<?xml version="1.0" standalone="no"?>
<!DOCTYPE svg PUBLIC "-//W3C//DTD SVG 1.1//EN" "http://www.w3.org/Graphics/SVG/1.1/DTD/svg11.dtd" >
<svg xmlns="http://www.w3.org/2000/svg" xmlns:xlink="http://www.w3.org/1999/xlink" version="1.1">
<metadata>
Created by FontForge 20170731 at Wed Nov 16 16:45:47 2022
 By Aleksey,,,
Copyright (c) 2016 by Jakob Runge and Lisa Fischbach, under exclusive license to TypeMates. All rights reserved.
</metadata>
<defs>
<font id="CeraRoundPro-Light" horiz-adv-x="1146" >
  <font-face 
    font-family="Cera Round Pro Light"
    font-weight="300"
    font-stretch="normal"
    units-per-em="2048"
    panose-1="0 0 4 0 0 0 0 0 0 0"
    ascent="1655"
    descent="-393"
    x-height="989"
    cap-height="1352"
    bbox="-242.545 -508 2613 2062.44"
    underline-thickness="92"
    underline-position="-296"
    unicode-range="U+0020-FB02"
  />
<missing-glyph horiz-adv-x="1441" 
d="M1190 1352q22 0 37.5 -16t15.5 -38v-1245q0 -22 -15.5 -37.5t-37.5 -15.5h-938q-22 0 -36.5 15.5t-14.5 37.5v1245q0 22 15 38t36 16h938zM1155 80v1192h-872z" />
    <glyph glyph-name="fi" unicode="fi" horiz-adv-x="1095" 
d="M590 1548q43 -9 43 -49q0 -19 -12.5 -30t-34.5 -11q-4 0 -28.5 2t-45.5 2q-203 0 -203 -207v-266h226q20 0 33.5 -13.5t13.5 -33.5t-13.5 -33.5t-33.5 -13.5h-226v-864q0 -22 -14.5 -36.5t-36.5 -14.5t-36.5 14.5t-14.5 36.5v864h-109q-20 0 -33.5 13.5t-13.5 33.5
t13.5 33.5t33.5 13.5h109v271q0 141 77 218.5t218 77.5q57 0 88 -8zM854 1458q37 0 62.5 -25.5t25.5 -62.5t-25.5 -62.5t-62.5 -25.5t-62.5 25.5t-25.5 62.5t25.5 62.5t62.5 25.5zM854 1010q22 0 36.5 -15t14.5 -37v-927q0 -22 -15 -36.5t-38 -14.5q-20 0 -34.5 14.5
t-14.5 36.5v927q0 22 14 37t37 15z" />
    <glyph glyph-name="fl" unicode="fl" horiz-adv-x="1095" 
d="M590 1548q43 -9 43 -49q0 -19 -12.5 -30t-34.5 -11q-4 0 -28.5 2t-45.5 2q-203 0 -203 -207v-266h226q20 0 33.5 -13.5t13.5 -33.5t-13.5 -33.5t-33.5 -13.5h-226v-864q0 -22 -14.5 -36.5t-36.5 -14.5t-36.5 14.5t-14.5 36.5v864h-109q-20 0 -33.5 13.5t-13.5 33.5
t13.5 33.5t33.5 13.5h109v271q0 141 77 218.5t218 77.5q57 0 88 -8zM854 1556q22 0 36.5 -14.5t14.5 -36.5v-1474q0 -22 -14 -36.5t-37 -14.5q-22 0 -36.5 14.5t-14.5 36.5v1474q0 22 14.5 36.5t36.5 14.5z" />
    <glyph glyph-name=".notdef" horiz-adv-x="1441" 
d="M1190 1352q22 0 37.5 -16t15.5 -38v-1245q0 -22 -15.5 -37.5t-37.5 -15.5h-938q-22 0 -36.5 15.5t-14.5 37.5v1245q0 22 15 38t36 16h938zM1155 80v1192h-872z" />
    <glyph glyph-name=".null" horiz-adv-x="0" 
 />
    <glyph glyph-name="nonmarkingreturn" horiz-adv-x="682" 
 />
    <glyph glyph-name="space" unicode=" " horiz-adv-x="573" 
 />
    <glyph glyph-name="exclam" unicode="!" horiz-adv-x="583" 
d="M293 375q-22 0 -37.5 14.5t-15.5 36.5l-4 887q-1 26 15 42.5t42 16.5q24 0 39.5 -16.5t15.5 -42.5l-4 -887q0 -21 -15 -36t-36 -15zM291 -20q-39 0 -68.5 28t-29.5 70q0 44 29 73t69 29q42 0 72 -28.5t30 -73.5q0 -42 -30 -70t-72 -28z" />
    <glyph glyph-name="quotedbl" unicode="&#x22;" horiz-adv-x="880" 
d="M240 825q-23 0 -37.5 13.5t-14.5 33.5q0 9 9 62t18.5 148t9.5 208q0 31 17 49.5t45 18.5q29 0 45 -18t16 -50q0 -194 -57 -420q-14 -45 -51 -45zM565 825q-23 0 -37 13t-14 34q0 9 9 62t18.5 148t9.5 208q0 31 16.5 49.5t44.5 18.5q29 0 45.5 -18t16.5 -50
q0 -190 -58 -420q-14 -45 -51 -45z" />
    <glyph glyph-name="numbersign" unicode="#" horiz-adv-x="1189" 
d="M1087 993q20 0 34 -13.5t14 -33.5q0 -19 -14 -32t-34 -13h-153l-60 -450h158q20 0 32.5 -13t12.5 -32q0 -21 -12.5 -34.5t-32.5 -13.5h-170l-47 -344q-7 -34 -47 -34q-19 0 -32 12.5t-13 32.5l2 20l43 313h-432l-47 -344q-1 -15 -14.5 -24.5t-32.5 -9.5t-32 12.5
t-13 32.5l2 20l43 313h-140q-20 0 -33.5 14t-13.5 34q0 19 13.5 32t33.5 13h152l61 450h-155q-20 0 -33.5 13t-13.5 32q0 20 13.5 33.5t33.5 13.5h168l47 344q3 15 16 25t31 10q19 0 32 -12t13 -31l-2 -22l-43 -314h432l47 344q2 15 14 25t31 10q20 0 32.5 -12t12.5 -31
l-2 -22l-43 -314h141zM348 451h432l62 450h-432z" />
    <glyph glyph-name="dollar" unicode="$" horiz-adv-x="1095" 
d="M950 369q0 -136 -99.5 -223.5t-252.5 -98.5v-190q0 -24 -14 -40t-37 -16q-22 0 -37.5 16.5t-15.5 39.5v192q-122 12 -219.5 76t-161.5 166q-11 17 -11 33q0 23 15 35t33 12q28 0 40 -21q115 -182 304 -205v523l-29 12q-63 28 -108.5 56t-87 66t-62.5 87t-21 108
q0 124 87 202.5t221 94.5v197q0 24 15.5 39.5t37.5 15.5q23 0 37 -15t14 -40v-195q182 -16 305 -170q17 -20 17 -39q0 -23 -15.5 -36t-32.5 -13q-14 0 -24.5 7t-26.5 26q-46 55 -98 87.5t-125 39.5v-469l61 -27q67 -30 115.5 -60.5t90.5 -70t63.5 -90.5t21.5 -112zM295 1001
q0 -80 48 -128.5t151 -96.5v420q-86 -13 -142.5 -61t-56.5 -134zM598 143q108 9 176 68.5t68 155.5q0 87 -58 141t-172 106l-14 7v-478z" />
    <glyph glyph-name="percent" unicode="%" horiz-adv-x="1640" 
d="M440 721q-138 0 -232.5 94.5t-94.5 231.5t94.5 231t232.5 94q137 0 232.5 -94.5t95.5 -230.5t-95.5 -231t-232.5 -95zM444 -20q-19 0 -31 11.5t-12 28.5q0 13 11 31l749 1301q14 20 41 20q19 0 31 -11t12 -28q0 -13 -10 -30l-752 -1301q-13 -22 -39 -22zM440 805
q100 0 167 69.5t67 172.5t-67 172t-167 69t-166.5 -68.5t-66.5 -172.5t66 -173t167 -69zM1200 -18q-137 0 -232.5 94.5t-95.5 230.5t95.5 231t232.5 95t232.5 -95t95.5 -231t-95.5 -230.5t-232.5 -94.5zM1200 66q100 0 167 69t67 172t-67 172.5t-167 69.5t-165.5 -69
t-65.5 -173t65.5 -172.5t165.5 -68.5z" />
    <glyph glyph-name="ampersand" unicode="&#x26;" horiz-adv-x="1236" 
d="M977 274l180 -206q17 -20 17 -37q0 -22 -15 -36.5t-37 -14.5q-26 0 -43 22l-168 193q-93 -107 -190.5 -161t-214.5 -54q-172 0 -286 96t-114 243q0 111 73 208t251 223q-88 106 -124 183.5t-36 156.5q0 126 77.5 204t203.5 78q122 0 201 -74.5t79 -191.5
q0 -94 -61.5 -181.5t-196.5 -187.5l336 -385q85 122 170 266q19 29 45 29q20 0 35 -14.5t15 -36.5q0 -18 -21 -53q-104 -170 -176 -269zM551 1274q-83 0 -129.5 -48t-46.5 -136q0 -66 30.5 -128.5t108.5 -156.5q112 83 162.5 154t50.5 145q0 78 -47 124t-129 46zM506 80
q95 0 177 48t163 144l-354 408q-168 -129 -222.5 -198t-54.5 -152q0 -109 82.5 -179.5t208.5 -70.5z" />
    <glyph glyph-name="quotesingle" unicode="'" horiz-adv-x="557" 
d="M240 825q-23 0 -37.5 13.5t-14.5 33.5q0 9 9 62t18.5 148t9.5 208q0 31 17 49.5t45 18.5q29 0 45 -18t16 -50q0 -194 -57 -420q-14 -45 -51 -45z" />
    <glyph glyph-name="parenleft" unicode="(" horiz-adv-x="661" 
d="M551 -260q-16 0 -29 8q-72 45 -131.5 112.5t-111 169.5t-80.5 251.5t-29 332.5q0 147 20 274t52.5 219.5t79 167.5t95.5 123t105 83q13 8 29 8q20 0 31.5 -12.5t11.5 -30.5q0 -28 -23 -41q-61 -43 -111.5 -106t-94.5 -157t-68.5 -229t-24.5 -299q0 -572 299 -790
q23 -16 23 -41q0 -18 -11.5 -30.5t-31.5 -12.5z" />
    <glyph glyph-name="parenright" unicode=")" horiz-adv-x="661" 
d="M111 -266q-20 0 -31.5 12.5t-11.5 30.5q0 25 22 41q299 218 299 790q0 164 -24.5 299t-68.5 229t-94.5 157t-111.5 106q-22 13 -22 41q0 18 11.5 30.5t31.5 12.5q15 0 28 -8q71 -44 131 -112t111.5 -170t81 -252t29.5 -333q0 -148 -19.5 -274.5t-52.5 -218t-79.5 -166.5
t-95.5 -123.5t-106 -83.5q-13 -8 -28 -8z" />
    <glyph glyph-name="asterisk" unicode="*" horiz-adv-x="786" 
d="M655 1118q23 -14 23 -39q0 -19 -11 -30t-28 -11q-15 0 -27 6l-176 101v-203q0 -20 -12.5 -32.5t-30.5 -12.5t-30.5 12.5t-12.5 32.5v203l-176 -101q-12 -6 -24 -6q-23 0 -37 21q-4 12 -4 20q0 25 22 39l176 103l-176 100q-22 14 -22 39q0 19 12 31t29 12q12 0 24 -6
l176 -103v205q0 20 12.5 32.5t30.5 12.5t30.5 -12.5t12.5 -32.5v-205l176 103q12 6 25 6q23 0 37 -21q4 -12 4 -22q0 -25 -23 -39l-176 -100z" />
    <glyph glyph-name="plus" unicode="+" 
d="M575 178q-22 0 -36.5 14.5t-14.5 36.5v359h-354q-22 0 -36.5 13t-14.5 36q0 22 14.5 35.5t36.5 13.5h354v356q0 23 14.5 38.5t36.5 15.5t37 -15.5t15 -38.5v-356h348q22 0 36.5 -13.5t14.5 -35.5q0 -23 -14.5 -36t-36.5 -13h-348v-359q0 -22 -15 -36.5t-37 -14.5z" />
    <glyph glyph-name="comma" unicode="," horiz-adv-x="552" 
d="M231 -389q-22 0 -36.5 13.5t-14.5 35.5q0 9 10 65.5t20.5 157t10.5 215.5q0 31 17 49.5t45 18.5q29 0 45 -18t16 -50q0 -190 -61 -444q-11 -43 -52 -43z" />
    <glyph glyph-name="hyphen" unicode="-" horiz-adv-x="702" 
d="M543 682q20 0 33.5 -12t13.5 -31q0 -20 -13.5 -33.5t-33.5 -13.5h-383q-20 0 -34.5 13.5t-14.5 33.5q0 19 14 31t35 12h383z" />
    <glyph glyph-name="period" unicode="." horiz-adv-x="552" 
d="M274 -20q-39 0 -68.5 28t-29.5 70q0 44 29 73t69 29q42 0 72.5 -28.5t30.5 -73.5q0 -42 -30.5 -70t-72.5 -28z" />
    <glyph glyph-name="slash" unicode="/" horiz-adv-x="1198" 
d="M90 -272q-22 0 -36.5 14.5t-14.5 34.5q0 12 8 28l1038 1770q15 24 48 24q22 0 36.5 -14.5t14.5 -34.5q0 -17 -8 -28l-1039 -1770q-15 -24 -47 -24z" />
    <glyph glyph-name="zero" unicode="0" horiz-adv-x="1243" 
d="M621 1372q229 0 352 -177.5t123 -506.5q0 -334 -125.5 -521t-349.5 -187q-223 0 -349.5 187t-126.5 521q0 328 124 506t352 178zM621 1274q-178 0 -270.5 -149.5t-92.5 -436.5q0 -294 94 -451t269 -157q177 0 270.5 156.5t93.5 451.5q0 288 -92 437t-272 149z" />
    <glyph glyph-name="one" unicode="1" horiz-adv-x="757" 
d="M473 1362q20 0 32.5 -15.5t12.5 -37.5v-1274q0 -25 -15 -40t-38 -15t-38 15t-15 40v1204l-246 -88q-27 -12 -45 -12q-19 0 -31 13t-12 34q0 36 41 51l297 109q40 16 57 16z" />
    <glyph glyph-name="two" unicode="2" horiz-adv-x="1124" 
d="M965 96q22 0 36.5 -13.5t14.5 -33.5q0 -22 -14.5 -35.5t-36.5 -13.5h-813q-22 0 -38 15.5t-16 35.5q0 22 19 41l471 447q134 128 192 227.5t58 202.5q0 134 -82 219.5t-211 85.5q-132 0 -219.5 -88.5t-87.5 -220.5q0 -17 3 -44.5t3 -33.5q0 -23 -14.5 -37t-39.5 -14
q-37 0 -51 38q-12 30 -12 95q0 171 119.5 287t296.5 116t292 -113t115 -288q0 -122 -65.5 -236.5t-220.5 -263.5l-390 -375h691z" />
    <glyph glyph-name="three" unicode="3" horiz-adv-x="1089" 
d="M539 831q189 0 311.5 -116t122.5 -295q0 -190 -132 -315t-333 -125q-126 0 -236 59.5t-188 169.5q-8 13 -8 31q0 21 14 35t35 14q23 0 39 -19q141 -190 344 -190q157 0 255.5 94.5t98.5 245.5q0 149 -100 234t-275 85h-63q-22 0 -36.5 15t-14.5 37t16 38l391 424h-596
q-22 0 -36.5 14t-14.5 36t14.5 35.5t36.5 13.5h699q21 0 36 -15.5t15 -36.5q0 -22 -14 -36l-398 -433h17z" />
    <glyph glyph-name="four" unicode="4" horiz-adv-x="1093" 
d="M993 365q25 0 39.5 -14.5t14.5 -35.5q0 -23 -14.5 -37t-39.5 -14h-157v-231q0 -23 -15.5 -38t-38.5 -15t-38 15t-15 38v231h-629q-20 0 -35.5 15.5t-15.5 35.5q0 13 6 25l443 995q13 37 51 37q21 0 36 -15t15 -36q0 -10 -6 -25l-412 -931h547v448q0 23 15 38t38 15
t38.5 -15t15.5 -38v-448h157z" />
    <glyph glyph-name="five" unicode="5" horiz-adv-x="1126" 
d="M545 834q94 0 176 -25t147.5 -74t103.5 -130t38 -185q0 -136 -67.5 -239t-171 -153.5t-222.5 -50.5q-146 0 -255 66.5t-181 169.5q-11 14 -11 29q0 20 15 34.5t35 14.5q23 0 38 -19q141 -196 359 -196q152 0 251 96t99 248q0 150 -99 234.5t-278 84.5h-246
q-25 0 -40 15.5t-15 40.5v501q0 25 15 40.5t40 15.5h582q23 0 37 -13t14 -34q0 -22 -14 -36t-37 -14h-528v-421h215z" />
    <glyph glyph-name="six" unicode="6" horiz-adv-x="1118" 
d="M567 854q183 0 310 -125.5t127 -308.5q0 -186 -128.5 -313t-316.5 -127q-189 0 -316.5 126.5t-127.5 315.5q0 96 31.5 174.5t117.5 198.5l383 551q17 26 45 26q22 0 36.5 -14.5t14.5 -36.5q0 -20 -12 -37l-334 -471q69 41 170 41zM559 76q145 0 242.5 97.5t97.5 244.5
q0 146 -97.5 245t-242.5 99t-241.5 -99t-96.5 -245q0 -148 96 -245t242 -97z" />
    <glyph glyph-name="seven" unicode="7" horiz-adv-x="1003" 
d="M899 1352q21 0 36 -15.5t15 -36.5q0 -17 -8 -30l-709 -1264q-17 -26 -45 -26q-22 0 -37.5 14.5t-15.5 36.5q0 14 12 32l668 1192h-696q-22 0 -35.5 14t-13.5 36q0 20 13.5 33.5t35.5 13.5h780z" />
    <glyph glyph-name="eight" unicode="8" horiz-adv-x="1171" 
d="M698 711q349 -121 349 -373q0 -159 -125.5 -258.5t-335.5 -99.5t-335.5 100t-125.5 260q0 253 348 371q-283 118 -283 338q0 151 113 237t283 86q110 0 198 -36t142.5 -111t54.5 -178q0 -224 -283 -336zM295 1044q0 -53 20.5 -95.5t62.5 -76t90 -58.5t118 -52
q70 28 117 52t89 57.5t62 76.5t20 96q0 110 -81.5 173t-206.5 63q-126 0 -208.5 -63.5t-82.5 -172.5zM586 72q166 0 259 73.5t93 194.5q0 53 -19.5 97t-49 74.5t-79.5 59.5t-94 47t-110 41q-66 -23 -110 -41t-94.5 -47t-79.5 -59.5t-49 -74.5t-20 -97q0 -121 93.5 -194.5
t259.5 -73.5z" />
    <glyph glyph-name="nine" unicode="9" horiz-adv-x="1118" 
d="M559 1372q189 0 317 -126.5t128 -315.5q0 -96 -32 -174.5t-118 -198.5l-383 -551q-17 -26 -45 -26q-22 0 -36.5 14.5t-14.5 36.5q0 20 12 37l334 471q-69 -41 -170 -41q-183 0 -309.5 125.5t-126.5 308.5q0 186 128 313t316 127zM559 590q145 0 241.5 99t96.5 245
q0 148 -96 245t-242 97q-145 0 -242.5 -97.5t-97.5 -244.5q0 -146 97.5 -245t242.5 -99z" />
    <glyph glyph-name="colon" unicode=":" horiz-adv-x="552" 
d="M274 795q-39 0 -68.5 28t-29.5 70q0 44 29 73t69 29q42 0 72.5 -28.5t30.5 -73.5q0 -42 -30.5 -70t-72.5 -28zM274 -20q-39 0 -68.5 28t-29.5 70q0 44 29 73t69 29q42 0 72.5 -28.5t30.5 -73.5q0 -42 -30.5 -70t-72.5 -28z" />
    <glyph glyph-name="semicolon" unicode=";" horiz-adv-x="552" 
d="M274 795q-39 0 -68.5 28t-29.5 70q0 44 29 73t69 29q42 0 72.5 -28.5t30.5 -73.5q0 -42 -30.5 -70t-72.5 -28zM231 -389q-22 0 -36.5 13.5t-14.5 35.5q0 9 10 65.5t20.5 157t10.5 215.5q0 31 17 49.5t45 18.5q29 0 45 -18t16 -50q0 -190 -61 -444q-11 -43 -52 -43z" />
    <glyph glyph-name="less" unicode="&#x3c;" 
d="M979 360q41 -15 41 -47q0 -20 -14.5 -34.5t-36.5 -14.5q-14 0 -35 8l-778 322q-37 15 -37 47q0 33 39 47l776 320q20 10 35 10q22 0 36.5 -14.5t14.5 -34.5q0 -32 -41 -47l-694 -281z" />
    <glyph glyph-name="equal" unicode="=" 
d="M956 893q20 0 34 -13.5t14 -33.5t-14 -33.5t-34 -13.5h-766q-20 0 -34.5 13.5t-14.5 33.5t14.5 33.5t34.5 13.5h766zM956 475q20 0 34 -13.5t14 -33.5t-13.5 -32.5t-34.5 -12.5h-766q-21 0 -35 12.5t-14 32.5t14.5 33.5t34.5 13.5h766z" />
    <glyph glyph-name="greater" unicode="&#x3e;" 
d="M989 688q39 -14 39 -47q0 -32 -37 -47l-778 -322q-21 -8 -35 -8q-22 0 -36.5 14.5t-14.5 34.5q0 32 41 47l694 281l-694 281q-41 15 -41 47q0 20 14.5 34.5t36.5 14.5q15 0 35 -10z" />
    <glyph glyph-name="question" unicode="?" horiz-adv-x="905" 
d="M412 377q-22 0 -37 14.5t-15 36.5v45q0 71 35 131t121 141q108 104 143 161t35 128q0 105 -66.5 173.5t-168.5 68.5q-84 0 -147 -47.5t-99 -134.5q-13 -33 -45 -33q-21 0 -35 14t-14 35q0 15 8 35q40 104 128.5 165.5t203.5 61.5q146 0 245 -95.5t99 -236.5
q0 -89 -45 -164.5t-164 -183.5q-74 -68 -101.5 -115t-29.5 -106v-43q0 -23 -14.5 -37t-36.5 -14zM418 -20q-39 0 -69 28t-30 70q0 44 29.5 73t69.5 29q42 0 72 -28.5t30 -73.5q0 -42 -30 -70t-72 -28z" />
    <glyph glyph-name="at" unicode="@" horiz-adv-x="1867" 
d="M954 1335q239 0 422 -102t283 -287.5t100 -427.5q0 -193 -80.5 -304.5t-218.5 -111.5q-83 0 -139 42t-76 118q-40 -91 -132.5 -147t-209.5 -56q-172 0 -289.5 123.5t-117.5 306.5t117.5 306t291.5 123q106 0 192.5 -46t131.5 -124v102q0 22 14.5 36.5t36.5 14.5
q20 0 33.5 -14.5t13.5 -36.5v-506q0 -154 137 -154q92 0 145.5 87t53.5 239q0 333 -191 530t-514 197q-210 0 -381.5 -95t-269.5 -262t-98 -372q0 -204 97.5 -371.5t269 -263.5t380.5 -96q130 0 236 35q22 6 38 -2t21 -25q9 -41 -32 -57q-125 -43 -273 -43q-173 0 -328 64
t-266.5 173.5t-177 262t-65.5 323.5t65.5 323t177.5 261.5t269 173t333 63.5zM918 156q137 0 222 93t85 243q0 149 -84.5 240t-222.5 91q-135 0 -224.5 -95t-89.5 -239t89.5 -238.5t224.5 -94.5z" />
    <glyph glyph-name="A" unicode="A" horiz-adv-x="1361" 
d="M1264 63q10 -20 10 -36q0 -19 -15.5 -33t-35.5 -14q-38 0 -52 36l-131 306h-723l-127 -306q-14 -36 -51 -36q-21 0 -36 14t-15 33q0 15 8 36l535 1272q15 37 51 37q37 0 49 -37zM680 1212l-322 -794h641z" />
    <glyph glyph-name="B" unicode="B" horiz-adv-x="1255" 
d="M868 748q136 -32 212.5 -127.5t76.5 -235.5q0 -175 -114.5 -280t-305.5 -105h-481q-24 0 -39.5 15.5t-15.5 39.5v1241q0 24 15.5 40t39.5 16h403q166 0 265.5 -89.5t99.5 -240.5q0 -91 -41 -161.5t-115 -112.5zM649 1257l-342 -2v-479h342q123 0 193.5 64t70.5 176
q0 114 -69.5 177.5t-194.5 63.5zM727 96q148 0 235 78.5t87 212.5t-87 213.5t-235 79.5h-420v-584h420z" />
    <glyph glyph-name="C" unicode="C" horiz-adv-x="1458" 
d="M801 -20q-193 0 -351.5 91.5t-249.5 251t-91 353.5q0 144 54 273t146 222t220.5 147t271.5 54q156 0 292 -63.5t230 -180.5q20 -23 20 -45q0 -20 -14.5 -34.5t-34.5 -14.5q-26 0 -45 25q-175 215 -448 215q-162 0 -295.5 -78.5t-209 -215.5t-75.5 -304
q0 -126 44.5 -236.5t121.5 -189.5t184.5 -124.5t229.5 -45.5q275 0 448 213q18 24 45 24q20 0 34.5 -14.5t14.5 -34.5q0 -19 -20 -45q-92 -117 -228.5 -180t-293.5 -63z" />
    <glyph glyph-name="D" unicode="D" horiz-adv-x="1425" 
d="M582 1352q335 0 535 -183.5t200 -490.5t-201.5 -492.5t-533.5 -185.5h-326q-24 0 -39.5 15.5t-15.5 39.5v1241q0 24 15.5 40t39.5 16h326zM582 1255h-275v-1159h275q281 0 452.5 160t171.5 422t-170.5 419.5t-453.5 157.5z" />
    <glyph glyph-name="E" unicode="E" horiz-adv-x="1153" 
d="M252 0q-23 0 -37 14.5t-14 36.5v1249q0 22 14 37t37 15h752q20 0 34.5 -13.5t14.5 -33.5t-14.5 -35t-34.5 -15h-697v-477h533q20 0 34.5 -13.5t14.5 -33.5t-14.5 -34.5t-34.5 -14.5h-533v-586h721q20 0 34.5 -13.5t14.5 -33.5t-14.5 -34.5t-34.5 -14.5h-776z" />
    <glyph glyph-name="F" unicode="F" horiz-adv-x="1060" 
d="M254 -10q-23 0 -38 16t-15 41v1249q0 24 15.5 40t39.5 16h727q20 0 34.5 -13.5t14.5 -33.5t-14.5 -35t-34.5 -15h-676v-522h555q20 0 34.5 -13.5t14.5 -33.5t-14.5 -34.5t-34.5 -14.5h-555v-590q0 -24 -15.5 -40.5t-37.5 -16.5z" />
    <glyph glyph-name="G" unicode="G" horiz-adv-x="1525" 
d="M801 -20q-143 0 -271.5 54t-220.5 147t-146 222t-54 273t54 273t146 222t220.5 147t271.5 54q157 0 298.5 -66t227.5 -180q16 -26 16 -43q0 -19 -14 -34t-35 -15q-25 0 -55 35q-178 205 -436 205q-165 0 -298 -77.5t-208.5 -214t-75.5 -304.5q0 -169 76 -306.5
t210 -215.5t300 -78q154 0 284.5 68.5t206.5 191.5v229h-450q-24 0 -39.5 14t-15.5 35t15.5 35.5t39.5 14.5h502q23 0 39 -16.5t16 -41.5v-239q0 -47 -23 -86q-92 -141 -247.5 -222t-333.5 -81z" />
    <glyph glyph-name="H" unicode="H" horiz-adv-x="1445" 
d="M254 -20q-23 0 -38 15t-15 38v1286q0 23 15 38t38 15q22 0 37.5 -15t15.5 -38v-541h832v541q0 23 15 38t38 15t38 -15t15 -38v-1286q0 -23 -15 -38t-38 -15t-38 15t-15 38v649h-832v-649q0 -23 -15.5 -38t-37.5 -15z" />
    <glyph glyph-name="I" unicode="I" horiz-adv-x="505" 
d="M254 -20q-23 0 -38 15t-15 40v1282q0 25 15 40t38 15q22 0 37.5 -15.5t15.5 -39.5v-1282q0 -24 -15.5 -39.5t-37.5 -15.5z" />
    <glyph glyph-name="J" unicode="J" horiz-adv-x="749" 
d="M223 -20q-86 0 -133 12q-19 5 -31 19.5t-12 33.5q0 22 15 36.5t38 14.5q14 0 57 -7t76 -7q103 0 157 55.5t54 161.5v1018q0 25 15 40t39 15q23 0 38 -15t15 -40v-1024q0 -152 -84.5 -232.5t-243.5 -80.5z" />
    <glyph glyph-name="K" unicode="K" horiz-adv-x="1255" 
d="M254 1372q22 0 37.5 -15.5t15.5 -39.5v-1282q0 -24 -15.5 -39.5t-37.5 -15.5q-23 0 -38 15t-15 40v1282q0 25 15 40t38 15zM1139 68q20 -20 20 -41q0 -20 -14.5 -33.5t-34.5 -13.5q-23 0 -47 24l-688 688q-17 17 -17 37q0 22 19 41l624 571q31 31 54 31q22 0 36.5 -13.5
t14.5 -33.5q0 -21 -27 -45l-602 -553z" />
    <glyph glyph-name="L" unicode="L" horiz-adv-x="1021" 
d="M256 0q-24 0 -39.5 15.5t-15.5 39.5v1262q0 25 15 40t38 15q22 0 37.5 -15.5t15.5 -39.5v-1221h621q22 0 36.5 -13.5t14.5 -33.5t-14.5 -34.5t-36.5 -14.5h-672z" />
    <glyph glyph-name="M" unicode="M" horiz-adv-x="1607" 
d="M1358 1372q21 0 35 -15t14 -38v-1286q0 -23 -15 -38t-38 -15t-38.5 15t-15.5 38v1112l-440 -682q-24 -37 -57 -37q-34 0 -58 37l-438 680v-1110q0 -23 -15.5 -38t-37.5 -15q-23 0 -38 15t-15 38v1286q0 23 13.5 38t35.5 15q19 0 31.5 -9t29.5 -34l492 -758l493 758
q15 25 28.5 34t33.5 9z" />
    <glyph glyph-name="N" unicode="N" horiz-adv-x="1445" 
d="M1192 1372q23 0 38 -15t15 -40v-1284q0 -23 -14.5 -38t-36.5 -15q-26 0 -47 24l-840 1149v-1118q0 -24 -15.5 -39.5t-37.5 -15.5q-23 0 -38 15t-15 40v1284q0 23 15 38t38 15q25 0 47 -31l840 -1146l-2 1122q0 25 15 40t38 15z" />
    <glyph glyph-name="O" unicode="O" horiz-adv-x="1603" 
d="M801 1372q143 0 271.5 -54t221 -147t147 -222t54.5 -273q0 -143 -54.5 -272.5t-147 -222t-221 -147t-271.5 -54.5q-191 0 -350 92t-250.5 252t-91.5 352q0 144 54 273t146 222t220.5 147t271.5 54zM803 1274q-123 0 -231 -46t-185 -125t-121.5 -189.5t-44.5 -235.5
q0 -169 76 -306t209 -214.5t297 -77.5q162 0 294.5 78t208.5 215.5t76 304.5t-76 303.5t-208.5 214.5t-294.5 78z" />
    <glyph glyph-name="P" unicode="P" horiz-adv-x="1155" 
d="M254 -20q-23 0 -38 15t-15 40v1261q0 24 15.5 40t39.5 16h403q185 0 297.5 -102t112.5 -271q0 -167 -113 -270t-297 -103h-352v-571q0 -24 -15.5 -39.5t-37.5 -15.5zM307 702h348q140 0 221.5 74t81.5 203q0 127 -81.5 201.5t-221.5 74.5h-348v-553z" />
    <glyph glyph-name="Q" unicode="Q" horiz-adv-x="1603" 
d="M2062 -297q58 3 58 -43q0 -37 -60 -49q-68 -12 -153 -12q-509 0 -826 438q-132 -57 -280 -57q-191 0 -350 92t-250.5 252t-91.5 352q0 144 54 273t146 222t220.5 147t271.5 54t271.5 -54t221 -147t147 -222t54.5 -273q0 -186 -88 -343t-238 -249q149 -198 333 -294.5
t413 -96.5q74 0 147 10zM221 678q0 -126 44.5 -237t121.5 -190t185 -125t231 -46q162 0 294.5 78t208.5 215.5t76 304.5t-75.5 303.5t-209 214.5t-296.5 78q-122 0 -229.5 -45.5t-184.5 -124.5t-121.5 -189.5t-44.5 -236.5z" />
    <glyph glyph-name="R" unicode="R" horiz-adv-x="1257" 
d="M1178 68q16 -22 16 -41q0 -20 -14.5 -33.5t-36.5 -13.5q-27 0 -47 28l-449 598h-340v-573q0 -23 -15.5 -38t-37.5 -15q-23 0 -38 15t-15 38v1265q0 22 15 38t38 16h405q185 0 297.5 -102t112.5 -271q0 -141 -81.5 -238t-221.5 -125zM307 1255v-553h348q139 0 221 74.5
t82 202.5q0 127 -81.5 201.5t-221.5 74.5h-348z" />
    <glyph glyph-name="S" unicode="S" horiz-adv-x="1138" 
d="M580 -20q-136 0 -255 63.5t-202 181.5q-12 15 -12 35t14.5 34.5t34.5 14.5q24 0 45 -24q143 -205 377 -205q138 0 222.5 70.5t84.5 185.5q0 93 -52 151t-198 127l-154 74q-161 77 -230 157.5t-69 192.5q0 152 112.5 243t281.5 91q111 0 206 -43t162 -125q19 -22 19 -43
q0 -19 -14.5 -33t-34.5 -14q-22 0 -39 21q-121 139 -299 139q-75 0 -137 -23t-104 -77t-42 -130q0 -86 50.5 -141t189.5 -121l151 -73q172 -82 241.5 -165t69.5 -206q0 -158 -116.5 -258t-302.5 -100z" />
    <glyph glyph-name="T" unicode="T" horiz-adv-x="1193" 
d="M596 -20q-23 0 -38 15t-15 40v1220h-451q-20 0 -34.5 15t-14.5 35t14.5 33.5t34.5 13.5h1010q20 0 34.5 -13.5t14.5 -33.5t-14.5 -35t-34.5 -15h-453v-1220q0 -25 -15 -40t-38 -15z" />
    <glyph glyph-name="U" unicode="U" horiz-adv-x="1398" 
d="M700 -20q-240 0 -380 146t-140 398v793q0 25 15 40t38 15t38.5 -15t15.5 -40v-797q0 -204 110.5 -322t302.5 -118q191 0 301.5 118t110.5 322v797q0 25 15 40t38 15t38.5 -15t15.5 -40v-793q0 -250 -141 -397t-378 -147z" />
    <glyph glyph-name="V" unicode="V" horiz-adv-x="1361" 
d="M1223 1372q21 0 36 -15t15 -36q0 -14 -8 -33l-535 -1274q-15 -34 -49 -34q-36 0 -51 34l-535 1274q-8 19 -8 33q0 23 15 37t36 14q36 0 51 -37l492 -1198l489 1198q15 37 52 37z" />
    <glyph glyph-name="W" unicode="W" horiz-adv-x="2195" 
d="M2028 1372q23 0 38 -14t15 -35q0 -16 -8 -35l-451 -1272q-13 -36 -53 -36q-37 0 -53 36l-418 1180l-418 -1178q-12 -38 -53 -38q-42 0 -54 38l-450 1270q-8 19 -8 35q0 22 15 35.5t38 13.5q39 0 51 -37l410 -1181l418 1179q14 39 53 39q37 0 49 -39l420 -1179l407 1181
q12 37 52 37z" />
    <glyph glyph-name="X" unicode="X" horiz-adv-x="1204" 
d="M1098 66q12 -14 12 -35q0 -23 -14 -37t-37 -14q-25 0 -43 24l-414 602l-414 -602q-18 -24 -45 -24q-22 0 -36.5 14t-14.5 37q0 13 17 37l434 626l-404 592q-12 18 -12 35q0 23 14.5 37t36.5 14q27 0 45 -24l381 -566l379 566q15 24 43 24q23 0 37 -14t14 -37
q0 -17 -14 -39l-399 -590z" />
    <glyph glyph-name="Y" unicode="Y" horiz-adv-x="1255" 
d="M1141 1323q0 -18 -15 -39l-446 -727v-522q0 -25 -15 -40t-38 -15t-38.5 15t-15.5 40v526l-444 721q-14 25 -14 41q0 22 15 35.5t38 13.5q30 0 47 -29l414 -677l411 677q17 29 50 29q23 0 37 -13.5t14 -35.5z" />
    <glyph glyph-name="Z" unicode="Z" horiz-adv-x="1208" 
d="M1087 96q21 0 35.5 -13.5t14.5 -33.5t-15 -34.5t-35 -14.5h-960q-20 0 -34.5 13.5t-14.5 33.5q0 15 16 39l887 1169h-770q-21 0 -35 14.5t-14 35.5q0 20 13.5 33.5t35.5 13.5h868q20 0 34.5 -13.5t14.5 -33.5q0 -15 -16 -37l-887 -1172h862z" />
    <glyph glyph-name="bracketleft" unicode="[" horiz-adv-x="696" 
d="M537 1493q22 0 36.5 -13.5t14.5 -33.5t-14.5 -32.5t-36.5 -12.5h-215v-1575h215q22 0 36.5 -13.5t14.5 -33.5t-14.5 -33.5t-36.5 -13.5h-265q-23 0 -38 14.5t-15 36.5v1659q0 22 15 36.5t38 14.5h265z" />
    <glyph glyph-name="backslash" unicode="\" horiz-adv-x="1198" 
d="M1120 -272q-32 0 -47 24l-1038 1770q-8 11 -8 28q0 20 14.5 34.5t36.5 14.5q32 0 47 -24l1038 -1770q8 -16 8 -28q0 -20 -14.5 -34.5t-36.5 -14.5z" />
    <glyph glyph-name="bracketright" unicode="]" horiz-adv-x="696" 
d="M424 1493q22 0 36.5 -14.5t14.5 -36.5v-1659q0 -22 -14.5 -36.5t-36.5 -14.5h-262q-22 0 -35.5 13.5t-13.5 33.5t13.5 33.5t35.5 13.5h213v1575h-213q-22 0 -35.5 12.5t-13.5 32.5t13.5 33.5t35.5 13.5h262z" />
    <glyph glyph-name="asciicircum" unicode="^" horiz-adv-x="1024" 
d="M205 592q-22 0 -36.5 14.5t-14.5 34.5q0 15 12 39l299 657q15 35 47 35q34 0 49 -35l299 -657q10 -20 10 -39q0 -20 -14.5 -34.5t-36.5 -14.5q-32 0 -49 35l-258 569l-258 -569q-14 -35 -49 -35z" />
    <glyph glyph-name="underscore" unicode="_" horiz-adv-x="1030" 
d="M893 -164q20 0 32.5 -13t12.5 -32q0 -20 -12.5 -32.5t-32.5 -12.5h-756q-20 0 -33.5 12.5t-13.5 32.5q0 19 13.5 32t33.5 13h756z" />
    <glyph glyph-name="grave" unicode="`" horiz-adv-x="436" 
d="M285 1153q-25 0 -43 33l-164 323q-8 19 -8 35q0 20 14.5 34.5t34.5 14.5q38 0 51 -32l154 -340q6 -15 6 -25q0 -19 -13 -31t-32 -12z" />
    <glyph glyph-name="a" unicode="a" horiz-adv-x="1067" 
d="M522 1010q174 0 272.5 -103t98.5 -286v-590q0 -22 -14.5 -36.5t-36.5 -14.5t-38 15t-16 36v116q-55 -79 -145 -123t-203 -44q-152 0 -246 74t-94 194q0 121 93.5 192.5t250.5 71.5h344v113q0 137 -71.5 212.5t-200.5 75.5q-154 0 -272 -133q-20 -20 -43 -20q-19 0 -33 13
t-14 30q0 22 22 47q136 160 346 160zM451 70q141 0 239 87t98 212v55h-333q-120 0 -184 -45.5t-64 -128.5q0 -82 67 -131t177 -49z" />
    <glyph glyph-name="b" unicode="b" horiz-adv-x="1298" 
d="M692 1010q209 0 350.5 -148t141.5 -368q0 -218 -142.5 -366t-349.5 -148q-130 0 -236 58t-163 155v-162q0 -22 -14.5 -36.5t-36.5 -14.5t-37 14.5t-15 36.5v1474q0 22 15 36.5t37 14.5t36.5 -14.5t14.5 -36.5v-708q57 97 163 155t236 58zM682 76q169 0 282 119.5
t113 300.5q0 180 -112.5 298.5t-282.5 118.5q-175 0 -282 -115t-107 -304q0 -188 107 -303t282 -115z" />
    <glyph glyph-name="c" unicode="c" horiz-adv-x="1130" 
d="M625 -20q-140 0 -257.5 68.5t-185 187.5t-67.5 260q0 215 148.5 364.5t363.5 149.5q246 0 391 -191q14 -19 14 -39q0 -19 -14 -32t-33 -13q-23 0 -39 21q-126 157 -319 157q-172 0 -289 -120t-117 -297t116.5 -298.5t287.5 -121.5q193 0 319 157q18 21 39 21
q20 0 34.5 -13t14.5 -32q0 -18 -16 -39q-148 -190 -391 -190z" />
    <glyph glyph-name="d" unicode="d" horiz-adv-x="1298" 
d="M1057 1556q22 0 36.5 -14.5t14.5 -36.5v-1474q0 -22 -14.5 -36.5t-36.5 -14.5t-36.5 14.5t-14.5 36.5v164q-55 -98 -161.5 -156.5t-238.5 -58.5q-207 0 -349 148t-142 366q0 220 141 368t350 148q130 0 237 -58t163 -155v708q0 22 14.5 36.5t36.5 14.5zM616 76
q175 0 282.5 115.5t107.5 302.5q0 189 -107.5 304t-282.5 115q-170 0 -282.5 -118.5t-112.5 -298.5q0 -181 113 -300.5t282 -119.5z" />
    <glyph glyph-name="e" unicode="e" horiz-adv-x="1171" 
d="M610 1010q195 0 321 -127t126 -322v-24q0 -68 -64 -68h-772q9 -171 123.5 -282t284.5 -111q86 0 165 33.5t136 93.5q20 20 39 20q20 0 32.5 -13.5t12.5 -33.5q0 -22 -25 -47q-149 -149 -360 -149q-218 0 -366 148.5t-148 365.5q0 143 66 261.5t179.5 186.5t249.5 68z
M610 915q-149 0 -256 -99t-129 -253h727q2 153 -93.5 252.5t-248.5 99.5z" />
    <glyph glyph-name="f" unicode="f" horiz-adv-x="581" 
d="M590 1548q43 -9 43 -49q0 -19 -12.5 -30t-34.5 -11q-4 0 -28.5 2t-45.5 2q-203 0 -203 -207v-266h226q20 0 33.5 -13.5t13.5 -33.5t-13.5 -33.5t-33.5 -13.5h-226v-864q0 -22 -14.5 -36.5t-36.5 -14.5t-36.5 14.5t-14.5 36.5v864h-109q-20 0 -33.5 13.5t-13.5 33.5
t13.5 33.5t33.5 13.5h109v271q0 141 77 218.5t218 77.5q57 0 88 -8z" />
    <glyph glyph-name="g" unicode="g" horiz-adv-x="1310" 
d="M1069 997q22 0 36.5 -14.5t14.5 -36.5v-858q0 -218 -128.5 -347.5t-344.5 -129.5q-120 0 -232.5 43t-195.5 121q-20 20 -20 41q0 20 14.5 34.5t34.5 14.5q14 0 33 -15q161 -143 364 -143q173 0 273 101t100 276v131q-56 -95 -164 -153t-238 -58q-207 0 -348 145t-141 359
t141 359t348 145q131 0 238 -58t164 -155v147q0 22 14.5 36.5t36.5 14.5zM631 100q173 0 280 112.5t107 295.5q0 181 -107 293t-280 112q-170 0 -284 -116t-114 -291q0 -173 114 -289.5t284 -116.5z" />
    <glyph glyph-name="h" unicode="h" horiz-adv-x="1142" 
d="M606 1010q165 0 263 -104t98 -281v-594q0 -22 -15 -36.5t-37 -14.5t-36.5 14.5t-14.5 36.5v585q0 135 -75.5 216t-200.5 81q-128 0 -211.5 -83.5t-83.5 -213.5v-585q0 -22 -14.5 -36.5t-36.5 -14.5t-37 14.5t-15 36.5v1474q0 22 15 36.5t37 14.5t36.5 -14.5t14.5 -36.5
v-653q50 76 130.5 117t182.5 41z" />
    <glyph glyph-name="i" unicode="i" horiz-adv-x="483" 
d="M242 1458q37 0 62.5 -25.5t25.5 -62.5t-25.5 -62.5t-62.5 -25.5t-62.5 25.5t-25.5 62.5t25.5 62.5t62.5 25.5zM240 -20q-20 0 -35 15t-15 36v927q0 22 14.5 37t37.5 15q22 0 36.5 -15t14.5 -37v-927q0 -22 -15 -36.5t-38 -14.5z" />
    <glyph glyph-name="j" unicode="j" horiz-adv-x="483" 
d="M242 1458q37 0 62.5 -25.5t25.5 -62.5t-25.5 -62.5t-62.5 -25.5t-62.5 25.5t-25.5 62.5t25.5 62.5t62.5 25.5zM-8 -389q-40 0 -78 6q-47 10 -47 49q0 19 13.5 32t33.5 13q5 0 27 -3t41 -3q208 0 208 207v1046q0 22 14.5 37t37.5 15q22 0 36.5 -15t14.5 -37v-1050
q0 -153 -81.5 -225t-219.5 -72z" />
    <glyph glyph-name="k" unicode="k" horiz-adv-x="987" 
d="M242 1546q22 0 36.5 -15.5t14.5 -37.5v-1450q0 -22 -14.5 -37.5t-36.5 -15.5t-37 15.5t-15 37.5v1450q0 22 14.5 37.5t37.5 15.5zM918 66q16 -13 16 -37q0 -22 -13.5 -35.5t-35.5 -13.5q-23 0 -45 22l-478 514q-16 16 -16 39t19 39l428 399q17 17 41 17q20 0 34.5 -13.5
t14.5 -33.5q0 -23 -23 -43l-395 -365z" />
    <glyph glyph-name="l" unicode="l" horiz-adv-x="483" 
d="M242 -20q-22 0 -37 14.5t-15 36.5v1474q0 22 15 36.5t37 14.5t36.5 -14.5t14.5 -36.5v-1474q0 -22 -14 -36.5t-37 -14.5z" />
    <glyph glyph-name="m" unicode="m" horiz-adv-x="1773" 
d="M1247 1010q162 0 257 -103.5t95 -281.5v-594q0 -22 -14.5 -36.5t-36.5 -14.5q-23 0 -38 14.5t-15 36.5v585q0 136 -71 216.5t-191 80.5q-122 0 -204.5 -80t-82.5 -200v-602q0 -22 -14.5 -36.5t-36.5 -14.5t-36.5 14.5t-14.5 36.5v585q0 135 -72 216t-192 81
q-126 0 -206.5 -83.5t-80.5 -213.5v-585q0 -22 -14.5 -36.5t-36.5 -14.5t-37 14.5t-15 36.5v927q0 22 15 37t37 15t36.5 -15t14.5 -37v-94q50 70 127.5 108t173.5 38q112 0 192.5 -50t118.5 -143q50 90 140 141.5t202 51.5z" />
    <glyph glyph-name="n" unicode="n" horiz-adv-x="1142" 
d="M604 1010q166 0 264.5 -104t98.5 -281v-594q0 -22 -15 -36.5t-37 -14.5t-36.5 14.5t-14.5 36.5v587q0 133 -75.5 214t-200.5 81q-128 0 -211.5 -83t-83.5 -212v-587q0 -22 -14.5 -36.5t-36.5 -14.5t-37 14.5t-15 36.5v927q0 22 15 37t37 15t36.5 -15t14.5 -37v-96
q52 70 132 109t179 39z" />
    <glyph glyph-name="o" unicode="o" horiz-adv-x="1253" 
d="M627 1010q214 0 363 -149t149 -365q0 -107 -40 -202.5t-109 -164t-164 -109t-201 -40.5q-105 0 -199.5 40.5t-162.5 109t-108 164t-40 202.5q0 143 67.5 261t185 185.5t259.5 67.5zM627 913q-174 0 -290 -119.5t-116 -299.5q0 -178 116 -298t288 -120t289.5 120.5
t117.5 297.5q0 179 -117 299t-288 120z" />
    <glyph glyph-name="p" unicode="p" horiz-adv-x="1298" 
d="M692 1010q207 0 349.5 -148t142.5 -366q0 -220 -141.5 -368t-350.5 -148q-130 0 -236 58t-163 155v-531q0 -23 -14.5 -38t-36.5 -15t-37 15.5t-15 37.5v1296q0 23 15 38.5t37 15.5t36.5 -15.5t14.5 -38.5v-161q57 97 163 155t236 58zM682 76q170 0 282.5 119t112.5 299
q0 181 -113 300t-282 119q-175 0 -282 -115t-107 -302q0 -189 107 -304.5t282 -115.5z" />
    <glyph glyph-name="q" unicode="q" horiz-adv-x="1298" 
d="M1057 1010q22 0 36.5 -15t14.5 -37v-1296q0 -23 -14.5 -38t-36.5 -15t-36.5 15.5t-14.5 37.5v531q-56 -97 -163 -155t-237 -58q-209 0 -350 148t-141 368q0 218 142 366t349 148q132 0 238.5 -58.5t161.5 -156.5v163q0 22 14.5 37t36.5 15zM616 76q175 0 282.5 115.5
t107.5 304.5q0 187 -107.5 302t-282.5 115q-169 0 -282 -119t-113 -300q0 -180 112.5 -299t282.5 -119z" />
    <glyph glyph-name="r" unicode="r" horiz-adv-x="716" 
d="M639 997q24 0 38.5 -13t14.5 -36q0 -22 -15 -35.5t-38 -13.5q-149 0 -247.5 -94t-98.5 -236v-538q0 -22 -14.5 -36.5t-36.5 -14.5t-37 14.5t-15 36.5v927q0 22 15 37t37 15t36.5 -15t14.5 -37v-137q55 84 143.5 130t202.5 46z" />
    <glyph glyph-name="s" unicode="s" horiz-adv-x="931" 
d="M473 -20q-115 0 -208.5 51t-155.5 135q-15 19 -15 35q0 20 15.5 35.5t35.5 15.5q23 0 39 -19q125 -157 289 -157q95 0 159 45t64 129q0 23 -6 43.5t-14 35.5t-25.5 30.5t-29.5 25t-39 23.5t-41 20.5t-47 20.5l-91 38q-56 24 -95 46.5t-75.5 54t-54.5 72.5t-18 92
q0 119 92 188.5t223 69.5q181 0 301 -138q19 -19 19 -36q0 -20 -13 -35t-32 -15t-45 23q-96 104 -236 104q-85 0 -143 -39t-58 -116q0 -34 12 -59.5t39.5 -46.5t56.5 -36t79 -36l92 -41q62 -27 105 -52.5t79 -59t54 -76.5t18 -97q0 -87 -47.5 -151t-120.5 -93.5t-162 -29.5z
" />
    <glyph glyph-name="t" unicode="t" horiz-adv-x="743" 
d="M653 84q21 0 34 -11.5t13 -31.5q0 -38 -43 -47q-55 -14 -125 -14q-146 0 -224.5 76.5t-78.5 219.5v619h-129q-20 0 -34.5 13.5t-14.5 33.5t14.5 33.5t34.5 13.5h129v242q0 23 16 38t38 15t36.5 -15.5t14.5 -37.5v-242h276q20 0 34.5 -13.5t14.5 -33.5t-14.5 -33.5
t-34.5 -13.5h-276v-614q0 -207 215 -207q29 0 62.5 5t41.5 5z" />
    <glyph glyph-name="u" unicode="u" horiz-adv-x="1128" 
d="M565 -20q-171 0 -280 110.5t-109 284.5v583q0 22 14.5 37t36.5 15q21 0 36.5 -15.5t15.5 -36.5v-587q0 -131 79 -213t207 -82q126 0 205.5 82.5t79.5 212.5v587q0 22 14.5 37t36.5 15t36.5 -15t14.5 -37v-583q0 -173 -109 -284t-278 -111z" />
    <glyph glyph-name="v" unicode="v" horiz-adv-x="1081" 
d="M963 1010q21 0 36 -15t15 -37q0 -13 -6 -22l-420 -924q-16 -32 -47 -32q-33 0 -49 32l-418 922q-6 12 -6 24q0 22 15 37t36 15q33 0 51 -35l371 -832l370 832q17 35 52 35z" />
    <glyph glyph-name="w" unicode="w" horiz-adv-x="1728" 
d="M1610 1010q20 0 35.5 -15t15.5 -37q0 -7 -6 -22l-363 -926q-12 -30 -49 -30q-34 0 -47 30l-332 817l-332 -817q-13 -30 -47 -30t-49 30l-362 926q-4 10 -4 22q0 22 14.5 37t36.5 15q15 0 28.5 -9.5t18.5 -23.5l319 -827l328 825q6 15 20 25t29 10q35 0 49 -35l328 -828
l320 830q15 33 49 33z" />
    <glyph glyph-name="x" unicode="x" horiz-adv-x="983" 
d="M889 63q12 -15 12 -34q0 -20 -14.5 -34.5t-36.5 -14.5q-28 0 -43 24l-315 428l-316 -428q-17 -24 -43 -24q-22 0 -36.5 14.5t-14.5 34.5q0 19 12 34l334 453l-303 406q-16 22 -16 39q0 20 15.5 34.5t35.5 14.5q26 0 45 -25l287 -391l288 391q19 25 43 25q22 0 36.5 -14.5
t14.5 -34.5q0 -19 -14 -39l-307 -408z" />
    <glyph glyph-name="y" unicode="y" horiz-adv-x="1081" 
d="M963 1010q21 0 36 -15t15 -37q0 -7 -6 -22l-480 -1077q-112 -248 -335 -248q-51 0 -87 8q-40 10 -40 47q0 20 14 33.5t33 13.5q7 0 32 -4t39 -4q168 0 248 180l57 133l-405 916q-6 15 -6 24q0 22 14.5 37t36.5 15q37 0 49 -35l369 -832l364 832q12 35 52 35z" />
    <glyph glyph-name="z" unicode="z" horiz-adv-x="921" 
d="M813 94q20 0 33.5 -13.5t13.5 -33.5t-13.5 -33.5t-33.5 -13.5h-696q-20 0 -34.5 13.5t-14.5 33.5q0 17 22 45l612 803h-544q-20 0 -33.5 13.5t-13.5 33.5t13.5 33.5t33.5 13.5h641q20 0 33.5 -13.5t13.5 -33.5t-21 -45l-614 -803h602z" />
    <glyph glyph-name="braceleft" unicode="{" horiz-adv-x="808" 
d="M653 -176q20 0 33.5 -12.5t13.5 -32.5t-13.5 -33.5t-33.5 -13.5h-69q-275 0 -275 266q0 76 29 233.5t29 202.5q0 131 -134 131h-75q-20 0 -33.5 13.5t-13.5 33.5t13.5 33.5t33.5 13.5h75q134 0 134 132q0 44 -29 203.5t-29 234.5q0 264 275 264h69q20 0 33.5 -13.5
t13.5 -33.5t-13.5 -32.5t-33.5 -12.5h-57q-186 0 -186 -193q0 -64 28.5 -216t28.5 -208q0 -73 -28.5 -111.5t-86.5 -60.5q58 -23 86.5 -63t28.5 -109q0 -56 -28.5 -207t-28.5 -215q0 -102 47 -148t139 -46h57z" />
    <glyph glyph-name="bar" unicode="|" horiz-adv-x="679" 
d="M340 1618q20 0 33.5 -13.5t13.5 -35.5v-1786q0 -23 -13 -37t-34 -14t-34 14t-13 37v1786q0 22 12.5 35.5t34.5 13.5z" />
    <glyph glyph-name="braceright" unicode="}" horiz-adv-x="808" 
d="M651 659q20 0 33.5 -13.5t13.5 -33.5t-13.5 -33.5t-33.5 -13.5h-76q-133 0 -133 -131q0 -45 29 -202.5t29 -233.5q0 -266 -275 -266h-69q-20 0 -33.5 13.5t-13.5 33.5t13.5 32.5t33.5 12.5h57q92 0 139 46t47 148q0 64 -28.5 215t-28.5 207q0 69 28.5 109t86.5 63
q-58 22 -86.5 60.5t-28.5 111.5q0 56 28.5 208t28.5 216q0 193 -186 193h-57q-20 0 -33.5 12.5t-13.5 32.5t13.5 33.5t33.5 13.5h69q275 0 275 -264q0 -75 -29 -234.5t-29 -203.5q0 -132 133 -132h76z" />
    <glyph glyph-name="asciitilde" unicode="~" 
d="M799 502q-52 0 -117.5 24.5t-117.5 54t-110.5 54t-97.5 24.5q-95 0 -116 -104q-11 -47 -47 -47q-22 0 -35 14.5t-11 36.5q5 87 60 142t139 55q51 0 117 -24.5t118.5 -54.5t111 -54.5t95.5 -24.5q50 0 78 25.5t39 78.5q15 48 49 48q20 0 32.5 -15t12.5 -37
q-6 -87 -61 -141.5t-139 -54.5z" />
    <glyph glyph-name="exclamdown" unicode="&#xa1;" horiz-adv-x="583" 
d="M291 809q-39 0 -68.5 28t-29.5 70q0 45 29.5 74t68.5 29q42 0 72 -29t30 -74q0 -42 -30 -70t-72 -28zM293 -391q-26 0 -42.5 17t-14.5 42l4 891q0 20 15.5 35.5t37.5 15.5q20 0 35.5 -15.5t15.5 -35.5l4 -891q0 -25 -16 -42t-39 -17z" />
    <glyph glyph-name="cent" unicode="&#xa2;" horiz-adv-x="1134" 
d="M932 412q20 0 33.5 -13t13.5 -32q0 -23 -18 -41q-135 -154 -340 -166v-316q0 -25 -14.5 -40t-37.5 -15q-22 0 -37.5 16t-15.5 39v318q-188 26 -314 172t-126 340q0 195 125.5 340.5t314.5 171.5v317q0 23 15.5 39.5t37.5 16.5q23 0 37.5 -15.5t14.5 -40.5v-315
q208 -12 340 -166q18 -21 18 -41q0 -19 -13.5 -32t-33.5 -13t-45 25q-107 119 -266 131v-836q159 12 266 131q25 25 45 25zM184 674q0 -157 93 -272.5t239 -141.5v827q-146 -26 -239 -141t-93 -272z" />
    <glyph glyph-name="sterling" unicode="&#xa3;" horiz-adv-x="1042" 
d="M907 94q20 0 33.5 -13.5t13.5 -33.5t-13.5 -33.5t-33.5 -13.5h-727q-21 0 -36 15t-15 36q0 30 27 45q127 72 187 147t60 183q0 42 -10 90h-200q-20 0 -34 13.5t-14 33.5t14 33.5t34 13.5h169q-14 32 -62 122t-70.5 157t-22.5 141q0 153 102 247.5t264 94.5
q133 0 229.5 -67.5t147.5 -194.5q8 -21 8 -39q0 -20 -14.5 -34.5t-36.5 -14.5q-39 0 -51 39q-38 105 -110 159t-171 54q-118 0 -188 -72t-70 -186q0 -64 25.5 -130t68.5 -147t62 -129h289q20 0 33.5 -13.5t13.5 -33.5t-13.5 -33.5t-33.5 -13.5h-260q8 -58 8 -88
q0 -97 -52 -186t-141 -148h590z" />
    <glyph glyph-name="currency" unicode="&#xa4;" horiz-adv-x="1347" 
d="M1251 156q19 -23 19 -39t-13.5 -29.5t-31.5 -13.5q-21 0 -37 16l-230 229q-126 -104 -292 -104q-162 0 -289 100l-217 -225q-19 -16 -37 -16t-31.5 12.5t-13.5 30.5q0 20 16 39l219 223q-106 125 -106 297q0 175 106 297l-221 223q-14 21 -14 37q0 18 12.5 31.5
t30.5 13.5q21 0 39 -18l217 -224q128 101 291 101q159 0 290 -103l230 228q16 16 37 16q17 0 30 -13t13 -32q0 -17 -17 -37l-227 -227q104 -123 104 -293q0 -169 -104 -295zM666 311q152 0 253 105t101 260t-101.5 260.5t-250.5 105.5q-151 0 -252 -105.5t-101 -260.5
q0 -156 100.5 -260.5t250.5 -104.5z" />
    <glyph glyph-name="yen" unicode="&#xa5;" horiz-adv-x="1089" 
d="M1049 1325q0 -14 -17 -37l-416 -575h355q20 0 33.5 -13.5t13.5 -33.5t-13.5 -32.5t-33.5 -12.5h-373v-224h373q20 0 33.5 -13.5t13.5 -33.5t-13.5 -32.5t-33.5 -12.5h-373v-270q0 -25 -15 -40t-38 -15t-38 15t-15 40v270h-369q-20 0 -33.5 12.5t-13.5 32.5t13.5 33.5
t33.5 13.5h369v224h-369q-20 0 -33.5 12.5t-13.5 32.5t13.5 33.5t33.5 13.5h352l-418 575q-14 22 -14 37q0 20 14.5 33.5t34.5 13.5q24 0 43 -24l412 -570l409 570q19 24 43 24q21 0 35.5 -13.5t14.5 -33.5z" />
    <glyph glyph-name="brokenbar" unicode="&#xa6;" horiz-adv-x="679" 
d="M340 1618q20 0 33.5 -13.5t13.5 -35.5v-555q0 -23 -13.5 -37t-35.5 -14q-19 0 -32 14t-13 37v555q0 22 12.5 35.5t34.5 13.5zM340 387q20 0 33.5 -13.5t13.5 -35.5v-555q0 -23 -13.5 -37t-35.5 -14q-19 0 -32 14t-13 37v555q0 22 12.5 35.5t34.5 13.5z" />
    <glyph glyph-name="section" unicode="&#xa7;" horiz-adv-x="1148" 
d="M1071 352q0 -104 -70.5 -174t-189.5 -84q4 -36 4 -53q0 -119 -83 -195.5t-212 -76.5q-161 0 -280 131q-17 20 -17 39q-3 20 17 36q15 14 35.5 11.5t37.5 -19.5q90 -100 209 -100q83 0 134 47t51 125q0 65 -39 119t-146 139l-198 156q-138 107 -192 182t-54 160
q0 105 71.5 174.5t190.5 83.5q-4 36 -4 53q0 119 82 195.5t211 76.5q160 0 282 -131q17 -20 17 -41t-17 -35q-36 -28 -73 9q-99 102 -211 102q-83 0 -134 -47.5t-51 -124.5q0 -65 40 -120t147 -138l198 -158q137 -107 190.5 -182t53.5 -160zM776 178q90 12 139.5 57
t49.5 115q0 60 -39.5 114t-141.5 134l-204 164q-156 123 -207 207q-90 -12 -139.5 -57t-49.5 -115q0 -59 40 -113.5t141 -132.5l198 -158q162 -131 213 -215z" />
    <glyph glyph-name="dieresis" unicode="&#xa8;" horiz-adv-x="710" 
d="M150 1456q37 0 62.5 -24.5t25.5 -61.5q0 -35 -25.5 -60.5t-62.5 -25.5q-35 0 -61 25.5t-26 60.5q0 36 25.5 61t61.5 25zM561 1456q37 0 61.5 -24.5t24.5 -61.5q0 -36 -25 -61t-61 -25q-37 0 -62.5 25.5t-25.5 60.5q0 37 25.5 61.5t62.5 24.5z" />
    <glyph glyph-name="copyright" unicode="&#xa9;" horiz-adv-x="1603" 
d="M801 -20q-191 0 -350 92t-250.5 252t-91.5 352t91.5 352t250.5 252t350 92q143 0 271.5 -54.5t221 -147t147 -222t54.5 -272.5t-54.5 -272.5t-147 -222t-221 -147t-271.5 -54.5zM801 61q125 0 237 48t192.5 130t127.5 196.5t47 242.5q0 127 -46.5 240.5t-127 195
t-192.5 129t-238 47.5q-168 0 -306 -80.5t-217 -221t-79 -310.5q0 -129 46.5 -243.5t126.5 -196.5t191.5 -129.5t237.5 -47.5zM817 274q-166 0 -282.5 117.5t-116.5 284.5t116.5 284t282.5 117q79 0 158 -36t129 -95q22 -25 22 -47q0 -19 -12 -30t-31 -11q-21 0 -39 21
q-90 106 -227 106q-126 0 -211.5 -89t-85.5 -220t85.5 -220t211.5 -89q134 0 227 106q20 23 39 23t31 -12t12 -31q0 -22 -22 -47q-45 -58 -126 -95t-161 -37z" />
    <glyph glyph-name="ordfeminine" unicode="&#xaa;" horiz-adv-x="741" 
d="M365 1141q112 0 178.5 -66t66.5 -186v-352q0 -22 -13 -36t-32 -14q-20 0 -33.5 14t-13.5 36v41q-75 -91 -209 -91q-97 0 -156 48.5t-59 126.5q0 80 60 127t163 47h199v57q0 80 -43 121t-117 41q-81 0 -151 -70q-15 -12 -33 -12q-20 0 -32.5 12t-12.5 31q0 17 20 37
q98 88 218 88zM328 565q80 0 134 46.5t54 119.5v31h-188q-65 0 -100 -25.5t-35 -72.5q0 -46 36 -72.5t99 -26.5z" />
    <glyph glyph-name="guillemotleft" unicode="&#xab;" horiz-adv-x="937" 
d="M440 184q-22 0 -43 21l-293 311q-16 19 -16 37t16 37l293 311q24 21 43 21t33 -15t14 -35q0 -18 -18 -36l-260 -283l260 -283q18 -21 18 -39q0 -19 -14 -33t-33 -14zM788 184q-22 0 -43 21l-292 311q-17 20 -17 37t17 37l292 311q25 21 43 21q19 0 33.5 -15t14.5 -35
q0 -17 -19 -36l-260 -283l260 -283q19 -22 19 -39q0 -19 -14.5 -33t-33.5 -14z" />
    <glyph glyph-name="logicalnot" unicode="&#xac;" 
d="M905 182q-21 0 -36 16t-15 38v356h-686q-20 0 -33.5 13.5t-13.5 33.5t13.5 32.5t33.5 12.5h739q20 0 34.5 -13.5t14.5 -33.5v-401q0 -22 -15 -38t-36 -16z" />
    <glyph glyph-name="uni00AD" unicode="&#xad;" horiz-adv-x="702" 
d="M543 682q20 0 33.5 -12t13.5 -31q0 -20 -13.5 -33.5t-33.5 -13.5h-383q-20 0 -34.5 13.5t-14.5 33.5q0 19 14 31t35 12h383z" />
    <glyph glyph-name="registered" unicode="&#xae;" horiz-adv-x="1165" 
d="M584 1382q132 0 243 -66t175.5 -179t64.5 -246q0 -201 -142 -345.5t-341 -144.5q-131 0 -243 66t-177.5 179t-65.5 245q0 133 65.5 246t177.5 179t243 66zM584 481q169 0 287 119t118 291q0 173 -117.5 293.5t-287.5 120.5t-288 -120.5t-118 -293.5q0 -170 118.5 -290
t287.5 -120zM682 846l113 -141q14 -14 14 -33t-12 -31t-29 -12q-24 0 -43 22l-143 178h-97v-155q0 -19 -13 -32t-30 -13q-19 0 -31 13t-12 32l-2 430q0 20 13 32.5t32 12.5h154q79 0 128.5 -44.5t49.5 -115.5q0 -103 -92 -143zM483 905h111q41 0 66.5 23t25.5 59
q0 38 -25.5 62t-66.5 24h-111v-168z" />
    <glyph glyph-name="macron" unicode="&#xaf;" horiz-adv-x="659" 
d="M559 1413q20 0 32.5 -12t12.5 -31t-12.5 -32t-32.5 -13h-457q-20 0 -33.5 13t-13.5 32t13.5 31t33.5 12h457z" />
    <glyph glyph-name="degree" unicode="&#xb0;" horiz-adv-x="737" 
d="M369 1372q124 0 210.5 -85.5t86.5 -207.5q0 -123 -86.5 -209t-210.5 -86t-210.5 86t-86.5 209t86 208t211 85zM369 1286q-85 0 -144 -60.5t-59 -146.5q0 -87 59 -147t144 -60q86 0 144 59.5t58 147.5t-58.5 147.5t-143.5 59.5z" />
    <glyph glyph-name="plusminus" unicode="&#xb1;" 
d="M573 268q-22 0 -36.5 14.5t-14.5 36.5v316h-332q-20 0 -34.5 13.5t-14.5 33.5t14.5 33.5t34.5 13.5h332v311q0 22 15 38t36 16q22 0 37 -16t15 -38v-311h331q20 0 34 -13.5t14 -33.5t-14 -33.5t-34 -13.5h-331v-316q0 -22 -15 -36.5t-37 -14.5zM190 0q-20 0 -34.5 13.5
t-14.5 33.5t14.5 33.5t34.5 13.5h766q20 0 34 -13.5t14 -33.5t-14 -33.5t-34 -13.5h-766z" />
    <glyph glyph-name="uni00B2" unicode="&#xb2;" horiz-adv-x="743" 
d="M621 831q19 0 32 -12t13 -31t-13 -31t-32 -12h-504q-18 0 -30.5 13.5t-12.5 32.5t18 34l287 267q80 75 114.5 135t34.5 123q0 74 -48.5 124t-121.5 50q-76 0 -125 -51.5t-49 -131.5q0 -7 1 -18t1 -14q0 -19 -13.5 -33t-33.5 -14q-51 0 -51 86q0 112 77 187t193 75
t191.5 -73t75.5 -185q0 -78 -43.5 -153.5t-141.5 -164.5l-221 -203h402z" />
    <glyph glyph-name="uni00B3" unicode="&#xb3;" horiz-adv-x="720" 
d="M367 1276q70 -4 129 -33.5t98 -89.5t39 -139q0 -126 -87 -203.5t-212 -77.5q-166 0 -266 137q-11 14 -11 29q0 19 13 32t30 13q22 0 37 -18q84 -105 197 -105q88 0 144.5 53.5t56.5 139.5q0 85 -57.5 132.5t-162.5 47.5h-32q-19 0 -32 13t-13 32q0 16 16 35l225 237h-336
q-20 0 -32.5 12.5t-12.5 30.5q0 19 12.5 31t32.5 12h424q19 0 31 -12t12 -31q0 -17 -16 -36z" />
    <glyph glyph-name="acute" unicode="&#xb4;" horiz-adv-x="436" 
d="M150 1153q-19 0 -32.5 12.5t-13.5 30.5q0 8 7 25l153 340q13 32 51 32q20 0 35 -14.5t15 -34.5q0 -14 -9 -35l-163 -323q-18 -33 -43 -33z" />
    <glyph glyph-name="uni00B5" unicode="&#xb5;" horiz-adv-x="1196" 
d="M1112 84q49 0 49 -43q0 -41 -43 -47q-18 -4 -57 -4q-157 0 -187 149q-43 -74 -119.5 -116.5t-172.5 -42.5t-171 41.5t-118 117.5v-477q0 -22 -14.5 -36.5t-36.5 -14.5t-37 14.5t-15 36.5v1296q0 22 15 37t37 15t36.5 -15t14.5 -37v-571q0 -135 80.5 -223t204.5 -88
q126 0 206 88t80 223v571q0 22 14.5 37t36.5 15t37 -15t15 -37v-714q0 -82 29.5 -121t90.5 -39h25z" />
    <glyph glyph-name="paragraph" unicode="&#xb6;" horiz-adv-x="1110" 
d="M860 1352q22 0 36.5 -16.5t14.5 -39.5v-1368q0 -167 -83 -242t-226 -75q-64 0 -106 10q-54 9 -54 49q0 22 14 35.5t36 13.5q8 0 38 -6t66 -6q98 0 154.5 49.5t56.5 175.5v568h-242q-207 0 -342 119t-135 311t134.5 307t342.5 115h295z" />
    <glyph glyph-name="periodcentered" unicode="&#xb7;" horiz-adv-x="552" 
d="M274 537q-39 0 -68.5 28t-29.5 70q0 44 29 73t69 29q42 0 72.5 -28.5t30.5 -73.5q0 -42 -30.5 -70t-72.5 -28z" />
    <glyph glyph-name="cedilla" unicode="&#xb8;" horiz-adv-x="507" 
d="M195 -389q-72 0 -109 12q-39 12 -39 43q0 19 12 31t29 12q9 0 38.5 -6t59.5 -6q70 0 114 37t44 102q0 84 -65 141q-15 13 -20.5 18.5t-11 15t-5.5 20.5q0 14 10.5 24.5t28.5 10.5q47 0 105 -75t58 -159q0 -98 -70 -159.5t-179 -61.5z" />
    <glyph glyph-name="uni00B9" unicode="&#xb9;" horiz-adv-x="708" 
d="M141 745q-20 0 -32.5 12t-12.5 31t12.5 31t32.5 12h183v680h-179q-19 0 -32 13t-13 30q0 19 13 31t32 12h224q23 0 37 -13.5t14 -35.5v-717h155q20 0 34 -12t14 -31t-14 -31t-34 -12h-434z" />
    <glyph glyph-name="ordmasculine" unicode="&#xba;" horiz-adv-x="843" 
d="M420 1139q138 0 234 -95t96 -231t-96 -231t-234 -95q-136 0 -231 94.5t-95 231.5t95 231.5t231 94.5zM420 1053q-100 0 -166 -68t-66 -172t66.5 -172t165.5 -68q101 0 167 68.5t66 171.5t-66 171.5t-167 68.5z" />
    <glyph glyph-name="guillemotright" unicode="&#xbb;" horiz-adv-x="942" 
d="M158 184q-19 0 -33 14t-14 33q0 18 18 39l260 283l-260 283q-18 18 -18 36q0 20 14 35t33 15q18 0 43 -21l293 -311q16 -19 16 -37t-16 -37l-293 -311q-21 -21 -43 -21zM506 184q-19 0 -33 14t-14 33q0 18 18 39l260 283l-260 283q-18 18 -18 36q0 20 14 35t33 15
q18 0 43 -21l293 -311q16 -19 16 -37t-16 -37l-293 -311q-21 -21 -43 -21z" />
    <glyph glyph-name="onequarter" unicode="&#xbc;" horiz-adv-x="1773" 
d="M1368 1325q0 -11 -8 -22l-752 -1295q-12 -28 -41 -28q-19 0 -32 13t-13 30q0 10 8 26l752 1292q14 29 41 29q19 0 32 -13t13 -32zM623 543q0 -19 -14 -31t-34 -12h-434q-20 0 -32.5 12t-12.5 31t12.5 31t32.5 12h183v680h-179q-19 0 -32 13t-13 30q0 19 13 31t32 12h224
q23 0 37 -13.5t14 -35.5v-717h155q20 0 34 -12t14 -31zM1696 250q21 0 34 -13t13 -32q0 -18 -13 -31.5t-34 -13.5h-84v-125q0 -20 -12.5 -33.5t-32.5 -13.5t-32.5 13.5t-12.5 33.5v125h-383q-17 0 -30 13t-13 32q0 12 6 24l270 607q2 5 4 8.5t4 6.5t4.5 5t4 3.5t4.5 2.5
l4.5 1.5t4.5 0.5h4.5h5.5h5q19 0 32 -12t13 -31q0 -10 -6 -22l-237 -549h303v235q0 20 12.5 33.5t32.5 13.5t32.5 -13.5t12.5 -33.5v-235h84z" />
    <glyph glyph-name="onehalf" unicode="&#xbd;" horiz-adv-x="1853" 
d="M1368 1325q0 -11 -8 -22l-752 -1295q-12 -28 -41 -28q-19 0 -32 13t-13 30q0 10 8 26l752 1292q14 29 41 29q19 0 32 -13t13 -32zM623 543q0 -19 -14 -31t-34 -12h-434q-20 0 -32.5 12t-12.5 31t12.5 31t32.5 12h183v680h-179q-19 0 -32 13t-13 30q0 19 13 31t32 12h224
q23 0 37 -13.5t14 -35.5v-717h155q20 0 34 -12t14 -31zM1731 86q19 0 32 -12t13 -31t-13 -31t-32 -12h-504q-19 0 -31 13t-12 32q0 20 18 35l287 266q80 75 114.5 135t34.5 123q0 74 -48.5 124t-121.5 50q-76 0 -125 -51t-49 -131q0 -6 1 -18t1 -15q0 -19 -13.5 -33
t-33.5 -14q-51 0 -51 86q0 112 77 187t193 75t191.5 -73t75.5 -185q0 -78 -43.5 -153t-141.5 -164l-221 -203h402z" />
    <glyph glyph-name="threequarters" unicode="&#xbe;" horiz-adv-x="1714" 
d="M1309 1325q0 -10 -9 -22l-751 -1295q-12 -28 -41 -28q-19 0 -32 13t-13 30q0 10 8 26l752 1292q15 29 41 29q19 0 32 -13t13 -32zM633 768q0 -126 -87 -203.5t-212 -77.5q-165 0 -266 138q-11 14 -11 28q0 19 13 32t30 13q22 0 37 -18q84 -105 197 -105q88 0 144.5 53.5
t56.5 139.5q0 85 -57.5 132.5t-162.5 47.5h-32q-19 0 -32 13t-13 32q0 16 16 35l225 238h-336q-20 0 -32.5 12.5t-12.5 30.5q0 19 12.5 31t32.5 12h424q19 0 31 -12t12 -31q0 -18 -16 -37l-227 -242q70 -4 129 -33.5t98 -89.5t39 -139zM1636 250q21 0 34 -13t13 -32
q0 -18 -13 -31.5t-34 -13.5h-84v-125q0 -20 -12.5 -33.5t-32.5 -13.5t-32.5 13.5t-12.5 33.5v125h-383q-17 0 -30 13t-13 32q0 12 6 24l271 607q2 5 4 8.5t4 6.5t4.5 5t4 3.5t4.5 2.5l4.5 1.5t4.5 0.5h4.5h5.5h5q19 0 32 -12t13 -31q0 -10 -6 -22l-238 -549h303v235
q0 20 12.5 33.5t32.5 13.5t32.5 -13.5t12.5 -33.5v-235h84z" />
    <glyph glyph-name="questiondown" unicode="&#xbf;" horiz-adv-x="905" 
d="M487 1012q39 0 69 -28.5t30 -70.5q0 -44 -29.5 -73t-69.5 -29q-42 0 -72 28.5t-30 73.5q0 42 30 70.5t72 28.5zM494 614q22 0 36.5 -14.5t14.5 -36.5v-45q0 -71 -35 -131t-121 -141q-108 -104 -143 -161t-35 -128q0 -105 66.5 -173.5t168.5 -68.5q84 0 147 48t99 135
q13 32 45 32q21 0 35 -14t14 -35q0 -15 -8 -35q-40 -104 -128.5 -165.5t-203.5 -61.5q-146 0 -245 95.5t-99 236.5q0 89 45 164.5t164 183.5q74 68 101.5 115t29.5 106v43q0 23 15 37t37 14z" />
    <glyph glyph-name="Agrave" unicode="&#xc0;" horiz-adv-x="1361" 
d="M616 1518l-159 278q-17 31 -4.5 55.5t41.5 26.5q34 4 51 -29l151 -295q11 -21 -1 -41.5t-36 -21.5q-26 -3 -43 27zM1264 63q10 -20 10 -36q0 -19 -15.5 -33t-35.5 -14q-38 0 -52 36l-131 306h-723l-127 -306q-14 -36 -51 -36q-21 0 -36 14t-15 33q0 15 8 36l535 1272
q15 37 51 37q37 0 49 -37zM680 1212l-322 -794h641z" />
    <glyph glyph-name="Aacute" unicode="&#xc1;" horiz-adv-x="1361" 
d="M705 1491q-24 1 -36 21.5t-1 41.5l151 295q17 33 51 29q29 -2 41.5 -26.5t-4.5 -55.5l-159 -278q-17 -30 -43 -27zM1264 63q10 -20 10 -36q0 -19 -15.5 -33t-35.5 -14q-38 0 -52 36l-131 306h-723l-127 -306q-14 -36 -51 -36q-21 0 -36 14t-15 33q0 15 8 36l535 1272
q15 37 51 37q37 0 49 -37zM680 1212l-322 -794h641z" />
    <glyph glyph-name="Acircumflex" unicode="&#xc2;" horiz-adv-x="1361" 
d="M403 1479q-17 0 -29 12t-12 31q0 15 15 30l270 281q14 14 33 14q15 0 33 -14l268 -281q14 -14 14 -30q0 -19 -12 -31t-29 -12q-16 0 -32 16l-242 240l-244 -240q-16 -16 -33 -16zM1264 63q10 -20 10 -36q0 -19 -15.5 -33t-35.5 -14q-38 0 -52 36l-131 306h-723l-127 -306
q-14 -36 -51 -36q-21 0 -36 14t-15 33q0 15 8 36l535 1272q15 37 51 37q37 0 49 -37zM680 1212l-322 -794h641z" />
    <glyph glyph-name="Atilde" unicode="&#xc3;" horiz-adv-x="1361" 
d="M424 1540q-20 0 -33.5 15t-13.5 38q0 80 41.5 131.5t105.5 51.5q61 0 142 -56l71 -49q27 -18 38 -25t25 -12.5t27 -5.5q32 0 49 23t17 65q2 23 14.5 37t32.5 14t33.5 -15t13.5 -38q0 -80 -41.5 -131t-105.5 -51q-60 0 -140 55l-71 49q-27 18 -38 25t-25.5 12.5t-28.5 5.5
q-66 0 -66 -88q-3 -51 -47 -51zM1264 63q10 -20 10 -36q0 -19 -15.5 -33t-35.5 -14q-38 0 -52 36l-131 306h-723l-127 -306q-14 -36 -51 -36q-21 0 -36 14t-15 33q0 15 8 36l535 1272q15 37 51 37q37 0 49 -37zM680 1212l-322 -794h641z" />
    <glyph glyph-name="Adieresis" unicode="&#xc4;" horiz-adv-x="1361" 
d="M449 1569q-36 0 -61.5 25t-25.5 61t25.5 60t61.5 24q37 0 62.5 -24t25.5 -60q0 -37 -25.5 -61.5t-62.5 -24.5zM911 1569q-35 0 -60.5 24.5t-25.5 59.5q0 36 25 61t61 25q37 0 62.5 -24.5t25.5 -61.5q0 -35 -25.5 -59.5t-62.5 -24.5zM1264 63q10 -20 10 -36
q0 -19 -15.5 -33t-35.5 -14q-38 0 -52 36l-131 306h-723l-127 -306q-14 -36 -51 -36q-21 0 -36 14t-15 33q0 15 8 36l535 1272q15 37 51 37q37 0 49 -37zM680 1212l-322 -794h641z" />
    <glyph glyph-name="Aring" unicode="&#xc5;" horiz-adv-x="1361" 
d="M680 1450q-88 0 -149.5 60.5t-61.5 148.5t61.5 148.5t149.5 60.5q89 0 151 -60.5t62 -148.5t-62 -148.5t-151 -60.5zM682 1784q-54 0 -89.5 -35.5t-35.5 -89.5q0 -53 35.5 -89t89.5 -36q52 0 87.5 36t35.5 89q0 54 -35 89.5t-88 35.5zM1264 63q10 -20 10 -36
q0 -19 -15.5 -33t-35.5 -14q-38 0 -52 36l-131 306h-723l-127 -306q-14 -36 -51 -36q-21 0 -36 14t-15 33q0 15 8 36l535 1272q15 37 51 37q37 0 49 -37zM680 1212l-322 -794h641z" />
    <glyph glyph-name="AE" unicode="&#xc6;" horiz-adv-x="1652" 
d="M1528 96q20 0 34.5 -13.5t14.5 -33.5t-14.5 -34.5t-34.5 -14.5h-510q-22 0 -36 12.5t-17 32.5l-50 279h-596l-161 -306q-20 -38 -52 -38q-22 0 -36.5 13.5t-14.5 33.5q0 12 8 28l660 1264q17 33 51 33h729q20 0 34.5 -13.5t14.5 -33.5t-14.5 -35t-34.5 -15h-641l84 -477
h393q21 0 35.5 -13.5t14.5 -33.5t-15 -34.5t-35 -14.5h-376l102 -586h463zM766 1194l-397 -774h530z" />
    <glyph glyph-name="Ccedilla" unicode="&#xc7;" horiz-adv-x="1458" 
d="M1294 317q20 0 34.5 -14.5t14.5 -34.5q0 -19 -20 -45q-154 -197 -424 -237q55 -76 55 -154q0 -98 -70 -159.5t-179 -61.5q-72 0 -109 12q-39 12 -39 43q0 19 12 31t29 12q9 0 38.5 -6t59.5 -6q70 0 114 37t44 102q0 83 -66 141l-2 3q-190 4 -345 96t-243.5 250t-88.5 350
q0 144 54 273t146 222t220.5 147t271.5 54q156 0 292 -63.5t230 -180.5q20 -23 20 -45q0 -20 -14.5 -34.5t-34.5 -14.5q-26 0 -45 25q-175 215 -448 215q-162 0 -295.5 -78.5t-209 -215.5t-75.5 -304q0 -126 44.5 -236.5t121.5 -189.5t184.5 -124.5t229.5 -45.5
q275 0 448 213q18 24 45 24z" />
    <glyph glyph-name="Egrave" unicode="&#xc8;" horiz-adv-x="1153" 
d="M596 1491q-26 -3 -43 27l-160 278q-17 31 -4.5 55.5t41.5 26.5q34 4 51 -29l152 -295q11 -21 -1 -41.5t-36 -21.5zM252 0q-23 0 -37 14.5t-14 36.5v1249q0 22 14 37t37 15h752q20 0 34.5 -13.5t14.5 -33.5t-14.5 -35t-34.5 -15h-697v-477h533q20 0 34.5 -13.5t14.5 -33.5
t-14.5 -34.5t-34.5 -14.5h-533v-586h721q20 0 34.5 -13.5t14.5 -33.5t-14.5 -34.5t-34.5 -14.5h-776z" />
    <glyph glyph-name="Eacute" unicode="&#xc9;" horiz-adv-x="1153" 
d="M641 1491q-24 1 -36 21.5t-1 41.5l152 295q17 33 51 29q29 -2 41.5 -26.5t-4.5 -55.5l-160 -278q-17 -30 -43 -27zM252 0q-23 0 -37 14.5t-14 36.5v1249q0 22 14 37t37 15h752q20 0 34.5 -13.5t14.5 -33.5t-14.5 -35t-34.5 -15h-697v-477h533q20 0 34.5 -13.5t14.5 -33.5
t-14.5 -34.5t-34.5 -14.5h-533v-586h721q20 0 34.5 -13.5t14.5 -33.5t-14.5 -34.5t-34.5 -14.5h-776z" />
    <glyph glyph-name="Ecircumflex" unicode="&#xca;" horiz-adv-x="1153" 
d="M340 1479q-17 0 -29 12t-12 31q0 16 14 30l271 281q14 14 32 14q16 0 33 -14l269 -281q14 -14 14 -30q0 -19 -12 -31t-29 -12t-33 16l-242 240l-243 -240q-16 -16 -33 -16zM1028 96q20 0 34.5 -13.5t14.5 -33.5t-14.5 -34.5t-34.5 -14.5h-776q-23 0 -37 14.5t-14 36.5
v1249q0 22 14 37t37 15h752q20 0 34.5 -13.5t14.5 -33.5t-14.5 -35t-34.5 -15h-697v-477h533q20 0 34.5 -13.5t14.5 -33.5t-14.5 -34.5t-34.5 -14.5h-533v-586h721z" />
    <glyph glyph-name="Edieresis" unicode="&#xcb;" horiz-adv-x="1153" 
d="M385 1569q-36 0 -61 25t-25 61t25 60t61 24q37 0 62.5 -24t25.5 -60q0 -37 -25.5 -61.5t-62.5 -24.5zM848 1569q-35 0 -60.5 24.5t-25.5 59.5q0 36 25 61t61 25q37 0 62.5 -24.5t25.5 -61.5q0 -35 -25.5 -59.5t-62.5 -24.5zM252 0q-23 0 -37 14.5t-14 36.5v1249
q0 22 14 37t37 15h752q20 0 34.5 -13.5t14.5 -33.5t-14.5 -35t-34.5 -15h-697v-477h533q20 0 34.5 -13.5t14.5 -33.5t-14.5 -34.5t-34.5 -14.5h-533v-586h721q20 0 34.5 -13.5t14.5 -33.5t-14.5 -34.5t-34.5 -14.5h-776z" />
    <glyph glyph-name="Igrave" unicode="&#xcc;" horiz-adv-x="505" 
d="M231 1491q-26 -3 -43 27l-159 278q-17 31 -4.5 55.5t41.5 26.5q34 4 51 -29l151 -295q11 -21 -1 -41.5t-36 -21.5zM254 -20q-23 0 -38 15t-15 40v1282q0 25 15 40t38 15q22 0 37.5 -15.5t15.5 -39.5v-1282q0 -24 -15.5 -39.5t-37.5 -15.5z" />
    <glyph glyph-name="Iacute" unicode="&#xcd;" horiz-adv-x="505" 
d="M276 1491q-24 1 -35.5 21.5t-0.5 41.5l151 295q17 33 51 29q29 -2 41.5 -26.5t-4.5 -55.5l-160 -278q-17 -30 -43 -27zM254 -20q-23 0 -38 15t-15 40v1282q0 25 15 40t38 15q22 0 37.5 -15.5t15.5 -39.5v-1282q0 -24 -15.5 -39.5t-37.5 -15.5z" />
    <glyph glyph-name="Icircumflex" unicode="&#xce;" horiz-adv-x="505" 
d="M553 1552q14 -14 14 -30q0 -19 -12 -31t-29 -12q-16 0 -32 16l-242 240l-244 -240q-16 -16 -33 -16t-29 12t-12 31q0 15 15 30l270 281q14 14 33 14q16 0 33 -14zM254 1372q22 0 37.5 -15.5t15.5 -39.5v-1282q0 -24 -15.5 -39.5t-37.5 -15.5q-23 0 -38 15t-15 40v1282
q0 25 15 40t38 15z" />
    <glyph glyph-name="Idieresis" unicode="&#xcf;" horiz-adv-x="505" 
d="M20 1569q-36 0 -61 25t-25 61t25 60t61 24q37 0 63 -24t26 -60t-26 -61t-63 -25zM483 1569q-35 0 -60.5 24.5t-25.5 59.5q0 36 25 61t61 25q37 0 62.5 -24.5t25.5 -61.5q0 -35 -25.5 -59.5t-62.5 -24.5zM254 -20q-23 0 -38 15t-15 40v1282q0 25 15 40t38 15
q22 0 37.5 -15.5t15.5 -39.5v-1282q0 -24 -15.5 -39.5t-37.5 -15.5z" />
    <glyph glyph-name="Eth" unicode="&#xd0;" horiz-adv-x="1425" 
d="M582 1352q335 0 535 -183.5t200 -490.5t-201.5 -492.5t-533.5 -185.5h-326q-24 0 -39.5 15.5t-15.5 39.5v520h-160q-22 0 -36.5 14t-14.5 34q0 19 14.5 32t36.5 13h160v628q0 24 15.5 40t39.5 16h326zM582 96q281 0 452.5 160t171.5 422t-170.5 419.5t-453.5 157.5h-275
v-587h248q20 0 34.5 -13t14.5 -32q0 -20 -14.5 -34t-34.5 -14h-248v-479h275z" />
    <glyph glyph-name="Ntilde" unicode="&#xd1;" horiz-adv-x="1445" 
d="M465 1540q-20 0 -33.5 15t-13.5 38q0 80 41.5 131.5t105.5 51.5q61 0 142 -56l71 -49q27 -18 38 -25t25 -12.5t27 -5.5q32 0 49 23t17 65q2 23 14.5 37t32.5 14t33.5 -15t13.5 -38q0 -80 -41.5 -131t-105.5 -51q-60 0 -140 55l-71 49q-27 18 -38 25t-25.5 12.5t-28.5 5.5
q-66 0 -66 -88q-3 -51 -47 -51zM1192 1372q23 0 38 -15t15 -40v-1284q0 -23 -14.5 -38t-36.5 -15q-26 0 -47 24l-840 1149v-1118q0 -24 -15.5 -39.5t-37.5 -15.5q-23 0 -38 15t-15 40v1284q0 23 15 38t38 15q25 0 47 -31l840 -1146l-2 1122q0 25 15 40t38 15z" />
    <glyph glyph-name="Ograve" unicode="&#xd2;" horiz-adv-x="1603" 
d="M780 1491q-26 -3 -43 27l-159 278q-18 31 -5.5 55.5t41.5 26.5q35 4 52 -29l151 -295q11 -21 -1 -41.5t-36 -21.5zM801 1372q143 0 271.5 -54t221 -147t147 -222t54.5 -273q0 -143 -54.5 -272.5t-147 -222t-221 -147t-271.5 -54.5q-191 0 -350 92t-250.5 252t-91.5 352
q0 144 54 273t146 222t220.5 147t271.5 54zM803 1274q-123 0 -231 -46t-185 -125t-121.5 -189.5t-44.5 -235.5q0 -169 76 -306t209 -214.5t297 -77.5q162 0 294.5 78t208.5 215.5t76 304.5t-76 303.5t-208.5 214.5t-294.5 78z" />
    <glyph glyph-name="Oacute" unicode="&#xd3;" horiz-adv-x="1603" 
d="M825 1491q-24 1 -36 21.5t-1 41.5l152 295q17 33 51 29q29 -2 41.5 -26.5t-4.5 -55.5l-160 -278q-17 -30 -43 -27zM801 1372q143 0 271.5 -54t221 -147t147 -222t54.5 -273q0 -143 -54.5 -272.5t-147 -222t-221 -147t-271.5 -54.5q-191 0 -350 92t-250.5 252t-91.5 352
q0 144 54 273t146 222t220.5 147t271.5 54zM803 1274q-123 0 -231 -46t-185 -125t-121.5 -189.5t-44.5 -235.5q0 -169 76 -306t209 -214.5t297 -77.5q162 0 294.5 78t208.5 215.5t76 304.5t-76 303.5t-208.5 214.5t-294.5 78z" />
    <glyph glyph-name="Ocircumflex" unicode="&#xd4;" horiz-adv-x="1603" 
d="M524 1479q-17 0 -29 12t-12 31q0 15 15 30l270 281q14 14 33 14q15 0 33 -14l268 -281q14 -14 14 -30q0 -19 -12 -31t-29 -12t-33 16l-241 240l-244 -240q-16 -16 -33 -16zM801 1372q143 0 271.5 -54t221 -147t147 -222t54.5 -273q0 -143 -54.5 -272.5t-147 -222
t-221 -147t-271.5 -54.5q-191 0 -350 92t-250.5 252t-91.5 352q0 144 54 273t146 222t220.5 147t271.5 54zM803 80q162 0 294.5 78t208.5 215.5t76 304.5t-76 303.5t-208.5 214.5t-294.5 78q-123 0 -231 -46t-185 -125t-121.5 -189.5t-44.5 -235.5q0 -169 76 -306
t209 -214.5t297 -77.5z" />
    <glyph glyph-name="Otilde" unicode="&#xd5;" horiz-adv-x="1603" 
d="M545 1540q-20 0 -33.5 15t-13.5 38q0 80 41.5 131.5t105.5 51.5q60 0 141 -56l72 -49q27 -18 38 -25t25 -12.5t27 -5.5q32 0 49 23t17 65q2 23 14.5 37t32.5 14t33.5 -15t13.5 -38q0 -80 -41.5 -131t-105.5 -51q-60 0 -140 55l-71 49q-37 25 -55 34t-38 9q-65 0 -65 -88
q-3 -51 -47 -51zM801 1372q143 0 271.5 -54t221 -147t147 -222t54.5 -273q0 -143 -54.5 -272.5t-147 -222t-221 -147t-271.5 -54.5q-191 0 -350 92t-250.5 252t-91.5 352q0 144 54 273t146 222t220.5 147t271.5 54zM803 1274q-123 0 -231 -46t-185 -125t-121.5 -189.5
t-44.5 -235.5q0 -169 76 -306t209 -214.5t297 -77.5q162 0 294.5 78t208.5 215.5t76 304.5t-76 303.5t-208.5 214.5t-294.5 78z" />
    <glyph glyph-name="Odieresis" unicode="&#xd6;" horiz-adv-x="1603" 
d="M569 1569q-36 0 -61 25t-25 61t25 60t61 24q37 0 62.5 -24t25.5 -60q0 -37 -25.5 -61.5t-62.5 -24.5zM1032 1569q-35 0 -60.5 24.5t-25.5 59.5q0 36 25 61t61 25q37 0 62.5 -24.5t25.5 -61.5q0 -35 -25.5 -59.5t-62.5 -24.5zM801 1372q143 0 271.5 -54t221 -147t147 -222
t54.5 -273q0 -143 -54.5 -272.5t-147 -222t-221 -147t-271.5 -54.5q-191 0 -350 92t-250.5 252t-91.5 352q0 144 54 273t146 222t220.5 147t271.5 54zM803 1274q-123 0 -231 -46t-185 -125t-121.5 -189.5t-44.5 -235.5q0 -169 76 -306t209 -214.5t297 -77.5q162 0 294.5 78
t208.5 215.5t76 304.5t-76 303.5t-208.5 214.5t-294.5 78z" />
    <glyph glyph-name="multiply" unicode="&#xd7;" 
d="M242 260q-19 0 -33 13t-14 32t16 35l299 299l-299 299q-16 16 -16 35t14 32t33 13q17 0 34 -17l297 -296l297 296q17 17 35 17q20 0 33.5 -13t13.5 -32t-16 -35l-299 -299l299 -299q16 -16 16 -35t-13.5 -32t-33.5 -13q-19 0 -35 16l-297 297l-297 -297q-16 -16 -34 -16z
" />
    <glyph glyph-name="Oslash" unicode="&#xd8;" horiz-adv-x="1605" 
d="M1485 1290l-156 -155q166 -196 166 -459q0 -143 -54 -272t-146.5 -222t-221.5 -147.5t-272 -54.5q-263 0 -457 170l-154 -154q-16 -16 -38 -16q-19 0 -32.5 12.5t-13.5 32.5q0 21 17 38l153 154q-165 195 -165 459q0 193 90.5 352.5t249.5 251.5t350 92q264 0 461 -170
l153 154q16 16 39 16q19 0 32 -12.5t13 -32.5t-14 -37zM219 678q0 -228 131 -387l840 839q-159 146 -387 146q-123 0 -231 -46t-185.5 -125t-122.5 -190t-45 -237zM1386 678q0 220 -131 383l-839 -840q158 -145 387 -145q163 0 296.5 78.5t210 217t76.5 306.5z" />
    <glyph glyph-name="Ugrave" unicode="&#xd9;" horiz-adv-x="1398" 
d="M676 1491q-26 -3 -43 27l-160 278q-17 31 -4.5 55.5t41.5 26.5q34 4 51 -29l152 -295q11 -21 -1 -41.5t-36 -21.5zM700 -20q-240 0 -380 146t-140 398v793q0 25 15 40t38 15t38.5 -15t15.5 -40v-797q0 -204 110.5 -322t302.5 -118q191 0 301.5 118t110.5 322v797
q0 25 15 40t38 15t38.5 -15t15.5 -40v-793q0 -250 -141 -397t-378 -147z" />
    <glyph glyph-name="Uacute" unicode="&#xda;" horiz-adv-x="1398" 
d="M721 1491q-24 1 -36 21.5t-1 41.5l152 295q17 33 51 29q29 -2 41.5 -26.5t-4.5 -55.5l-160 -278q-17 -30 -43 -27zM700 -20q-240 0 -380 146t-140 398v793q0 25 15 40t38 15t38.5 -15t15.5 -40v-797q0 -204 110.5 -322t302.5 -118q191 0 301.5 118t110.5 322v797
q0 25 15 40t38 15t38.5 -15t15.5 -40v-793q0 -250 -141 -397t-378 -147z" />
    <glyph glyph-name="Ucircumflex" unicode="&#xdb;" horiz-adv-x="1398" 
d="M420 1479q-17 0 -29 12t-12 31q0 16 14 30l271 281q14 14 32 14q16 0 33 -14l268 -281q15 -15 15 -30q0 -19 -12 -31t-29 -12t-33 16l-242 240l-243 -240q-16 -16 -33 -16zM1165 1372q23 0 38.5 -15t15.5 -40v-793q0 -250 -141 -397t-378 -147q-240 0 -380 146t-140 398
v793q0 25 15 40t38 15t38.5 -15t15.5 -40v-797q0 -204 110.5 -322t302.5 -118q191 0 301.5 118t110.5 322v797q0 25 15 40t38 15z" />
    <glyph glyph-name="Udieresis" unicode="&#xdc;" horiz-adv-x="1398" 
d="M465 1569q-36 0 -61 25t-25 61t25 60t61 24q37 0 62.5 -24t25.5 -60q0 -37 -25.5 -61.5t-62.5 -24.5zM928 1569q-35 0 -60.5 24.5t-25.5 59.5q0 36 25 61t61 25q37 0 62.5 -24.5t25.5 -61.5q0 -35 -25.5 -59.5t-62.5 -24.5zM700 -20q-240 0 -380 146t-140 398v793
q0 25 15 40t38 15t38.5 -15t15.5 -40v-797q0 -204 110.5 -322t302.5 -118q191 0 301.5 118t110.5 322v797q0 25 15 40t38 15t38.5 -15t15.5 -40v-793q0 -250 -141 -397t-378 -147z" />
    <glyph glyph-name="Yacute" unicode="&#xdd;" horiz-adv-x="1255" 
d="M647 1491q-24 1 -36 21.5t-1 41.5l152 295q17 33 51 29q29 -2 41.5 -26.5t-4.5 -55.5l-160 -278q-17 -30 -43 -27zM1141 1323q0 -18 -15 -39l-446 -727v-522q0 -25 -15 -40t-38 -15t-38.5 15t-15.5 40v526l-444 721q-14 25 -14 41q0 22 15 35.5t38 13.5q30 0 47 -29
l414 -677l411 677q17 29 50 29q23 0 37 -13.5t14 -35.5z" />
    <glyph glyph-name="Thorn" unicode="&#xde;" horiz-adv-x="1155" 
d="M254 1372q22 0 37.5 -15.5t15.5 -39.5v-223h352q186 0 298 -105t112 -278t-112 -278t-298 -105h-352v-293q0 -24 -15.5 -39.5t-37.5 -15.5q-23 0 -38 15t-15 40v1282q0 25 15 40t38 15zM655 997h-348v-573h348q141 0 222 76t81 209q0 134 -81 211t-222 77z" />
    <glyph glyph-name="germandbls" unicode="&#xdf;" horiz-adv-x="1214" 
d="M823 -25q-186 0 -311 131q-18 18 -18 39q0 20 14.5 35t34.5 15q21 0 37 -19q104 -104 254 -104q100 0 156.5 43.5t56.5 120.5q0 58 -36.5 96t-156.5 106q-125 72 -170 122t-45 116q0 59 37 166l92 276q27 96 27 148q0 91 -56.5 142.5t-154.5 51.5q-134 0 -212.5 -91.5
t-78.5 -248.5v-1089q0 -22 -14.5 -36.5t-36.5 -14.5t-37 14.5t-15 36.5v1091q0 198 108 316t290 118q143 0 228 -75.5t85 -202.5q0 -71 -29 -162l-98 -297q-29 -99 -29 -131q0 -45 31.5 -76t141.5 -96q136 -78 185.5 -137t49.5 -141q0 -117 -91 -190t-239 -73z" />
    <glyph glyph-name="agrave" unicode="&#xe0;" horiz-adv-x="1067" 
d="M453 1186l-164 323q-8 19 -8 35q0 20 14.5 34.5t34.5 14.5q38 0 51 -32l154 -340q6 -15 6 -25q0 -19 -13 -31t-32 -12q-25 0 -43 33zM522 1010q174 0 272.5 -103t98.5 -286v-590q0 -22 -14.5 -36.5t-36.5 -14.5t-38 15t-16 36v116q-55 -79 -145 -123t-203 -44
q-152 0 -246 74t-94 194q0 121 93.5 192.5t250.5 71.5h344v113q0 137 -71.5 212.5t-200.5 75.5q-154 0 -272 -133q-20 -20 -43 -20q-19 0 -33 13t-14 30q0 22 22 47q136 160 346 160zM451 70q141 0 239 87t98 212v55h-333q-120 0 -184 -45.5t-64 -128.5q0 -82 67 -131
t177 -49z" />
    <glyph glyph-name="aacute" unicode="&#xe1;" horiz-adv-x="1067" 
d="M543 1153q-19 0 -32 12t-13 31q0 10 6 25l153 340q13 32 52 32q20 0 34.5 -14.5t14.5 -34.5q0 -16 -8 -35l-164 -323q-18 -33 -43 -33zM522 1010q174 0 272.5 -103t98.5 -286v-590q0 -22 -14.5 -36.5t-36.5 -14.5t-38 15t-16 36v116q-55 -79 -145 -123t-203 -44
q-152 0 -246 74t-94 194q0 121 93.5 192.5t250.5 71.5h344v113q0 137 -71.5 212.5t-200.5 75.5q-154 0 -272 -133q-20 -20 -43 -20q-19 0 -33 13t-14 30q0 22 22 47q136 160 346 160zM451 70q141 0 239 87t98 212v55h-333q-120 0 -184 -45.5t-64 -128.5q0 -82 67 -131
t177 -49z" />
    <glyph glyph-name="acircumflex" unicode="&#xe2;" horiz-adv-x="1067" 
d="M270 1153q-18 0 -30.5 12.5t-12.5 30.5q0 20 11 31l241 348q15 18 41 18q24 0 39 -18l242 -348q12 -12 12 -31t-13 -31t-32 -12q-24 0 -35 18l-213 295l-213 -295q-11 -18 -37 -18zM522 1010q174 0 272.5 -103t98.5 -286v-590q0 -22 -14.5 -36.5t-36.5 -14.5t-38 15
t-16 36v116q-55 -79 -145 -123t-203 -44q-152 0 -246 74t-94 194q0 121 93.5 192.5t250.5 71.5h344v113q0 137 -71.5 212.5t-200.5 75.5q-154 0 -272 -133q-20 -20 -43 -20q-19 0 -33 13t-14 30q0 22 22 47q136 160 346 160zM451 70q141 0 239 87t98 212v55h-333
q-120 0 -184 -45.5t-64 -128.5q0 -82 67 -131t177 -49z" />
    <glyph glyph-name="atilde" unicode="&#xe3;" horiz-adv-x="1067" 
d="M279 1257q-22 0 -35 15.5t-13 40.5q0 79 41.5 129.5t104.5 50.5q77 0 135 -61l51 -52q31 -29 48.5 -39t37.5 -10q31 0 48.5 23.5t17.5 64.5q0 23 13.5 38.5t33.5 15.5t32.5 -16t12.5 -40q0 -79 -41 -130.5t-104 -51.5q-73 0 -134 61l-53 52q-30 30 -48 40.5t-38 10.5
q-31 0 -48 -23.5t-17 -64.5q0 -24 -13 -39t-32 -15zM522 1010q174 0 272.5 -103t98.5 -286v-590q0 -22 -14.5 -36.5t-36.5 -14.5t-38 15t-16 36v116q-55 -79 -145 -123t-203 -44q-152 0 -246 74t-94 194q0 121 93.5 192.5t250.5 71.5h344v113q0 137 -71.5 212.5t-200.5 75.5
q-154 0 -272 -133q-20 -20 -43 -20q-19 0 -33 13t-14 30q0 22 22 47q136 160 346 160zM451 70q141 0 239 87t98 212v55h-333q-120 0 -184 -45.5t-64 -128.5q0 -82 67 -131t177 -49z" />
    <glyph glyph-name="adieresis" unicode="&#xe4;" horiz-adv-x="1067" 
d="M315 1284q-35 0 -60.5 25.5t-25.5 60.5q0 36 25 61t61 25q37 0 62.5 -24.5t25.5 -61.5q0 -35 -25.5 -60.5t-62.5 -25.5zM727 1284q-37 0 -62.5 25.5t-25.5 60.5q0 37 25.5 61.5t62.5 24.5t61.5 -24.5t24.5 -61.5q0 -36 -25 -61t-61 -25zM522 1010q174 0 272.5 -103
t98.5 -286v-590q0 -22 -14.5 -36.5t-36.5 -14.5t-38 15t-16 36v116q-55 -79 -145 -123t-203 -44q-152 0 -246 74t-94 194q0 121 93.5 192.5t250.5 71.5h344v113q0 137 -71.5 212.5t-200.5 75.5q-154 0 -272 -133q-20 -20 -43 -20q-19 0 -33 13t-14 30q0 22 22 47
q136 160 346 160zM451 70q141 0 239 87t98 212v55h-333q-120 0 -184 -45.5t-64 -128.5q0 -82 67 -131t177 -49z" />
    <glyph glyph-name="aring" unicode="&#xe5;" horiz-adv-x="1067" 
d="M518 1161q-88 0 -149.5 60.5t-61.5 148.5t61.5 148.5t149.5 60.5q89 0 151 -60.5t62 -148.5t-62 -148.5t-151 -60.5zM520 1495q-54 0 -89.5 -35.5t-35.5 -89.5q0 -53 35.5 -89t89.5 -36q52 0 87.5 36t35.5 89q0 54 -35.5 89.5t-87.5 35.5zM522 1010q174 0 272.5 -103
t98.5 -286v-590q0 -22 -14.5 -36.5t-36.5 -14.5t-38 15t-16 36v116q-55 -79 -145 -123t-203 -44q-152 0 -246 74t-94 194q0 121 93.5 192.5t250.5 71.5h344v113q0 137 -71.5 212.5t-200.5 75.5q-154 0 -272 -133q-20 -20 -43 -20q-19 0 -33 13t-14 30q0 22 22 47
q136 160 346 160zM451 70q141 0 239 87t98 212v55h-333q-120 0 -184 -45.5t-64 -128.5q0 -82 67 -131t177 -49z" />
    <glyph glyph-name="ae" unicode="&#xe6;" horiz-adv-x="1847" 
d="M1288 1010q198 0 321.5 -128t123.5 -335v-25q0 -69 -64 -69h-770q14 -165 127.5 -271t278.5 -106q86 0 165 33.5t136 93.5q20 20 39 20q20 0 32.5 -13.5t12.5 -33.5q0 -22 -25 -47q-137 -149 -360 -149q-146 0 -265.5 72.5t-183.5 195.5q-43 -123 -153.5 -195.5
t-258.5 -72.5q-155 0 -249.5 77.5t-94.5 204.5q0 128 93.5 204.5t250.5 76.5h344v82q0 135 -71.5 211.5t-198.5 76.5q-156 0 -274 -133q-17 -20 -41 -20q-19 0 -33 13t-14 32q0 23 20 45q133 160 348 160q132 0 221 -63t123 -179q66 111 177 176.5t243 65.5zM899 543h729
q6 161 -90.5 266.5t-251.5 105.5t-263.5 -105t-123.5 -267zM455 70q138 0 235.5 87.5t97.5 211.5v84h-333q-121 0 -184.5 -46.5t-63.5 -134.5q0 -92 67.5 -147t180.5 -55z" />
    <glyph glyph-name="ccedilla" unicode="&#xe7;" horiz-adv-x="1130" 
d="M983 254q20 0 34.5 -13t14.5 -32q0 -18 -16 -39q-124 -155 -303 -184q55 -73 55 -154q0 -98 -70.5 -159.5t-179.5 -61.5q-71 0 -108 12q-39 12 -39 43q0 19 12 31t29 12q9 0 38.5 -6t59.5 -6q70 0 114 37t44 102q0 83 -66 141l-2 3q-206 11 -345.5 159t-139.5 357
q0 215 148.5 364.5t363.5 149.5q246 0 391 -191q14 -19 14 -39q0 -19 -14 -32t-33 -13q-23 0 -39 21q-126 157 -319 157q-172 0 -289 -120t-117 -297t116.5 -298.5t287.5 -121.5q193 0 319 157q18 21 39 21z" />
    <glyph glyph-name="egrave" unicode="&#xe8;" horiz-adv-x="1171" 
d="M545 1186l-164 323q-8 19 -8 35q0 20 14.5 34.5t34.5 14.5q38 0 51 -32l154 -340q6 -15 6 -25q0 -19 -13 -31t-32 -12q-25 0 -43 33zM610 1010q195 0 321 -127t126 -322v-24q0 -68 -64 -68h-772q9 -171 123.5 -282t284.5 -111q86 0 165 33.5t136 93.5q20 20 39 20
q20 0 32.5 -13.5t12.5 -33.5q0 -22 -25 -47q-149 -149 -360 -149q-218 0 -366 148.5t-148 365.5q0 143 66 261.5t179.5 186.5t249.5 68zM610 915q-149 0 -256 -99t-129 -253h727q2 153 -93.5 252.5t-248.5 99.5z" />
    <glyph glyph-name="eacute" unicode="&#xe9;" horiz-adv-x="1171" 
d="M635 1153q-19 0 -32 12t-13 31q0 10 6 25l154 340q13 32 51 32q20 0 34.5 -14.5t14.5 -34.5q0 -16 -8 -35l-164 -323q-18 -33 -43 -33zM610 1010q195 0 321 -127t126 -322v-24q0 -68 -64 -68h-772q9 -171 123.5 -282t284.5 -111q86 0 165 33.5t136 93.5q20 20 39 20
q20 0 32.5 -13.5t12.5 -33.5q0 -22 -25 -47q-149 -149 -360 -149q-218 0 -366 148.5t-148 365.5q0 143 66 261.5t179.5 186.5t249.5 68zM610 915q-149 0 -256 -99t-129 -253h727q2 153 -93.5 252.5t-248.5 99.5z" />
    <glyph glyph-name="ecircumflex" unicode="&#xea;" horiz-adv-x="1171" 
d="M362 1153q-18 0 -30.5 12.5t-12.5 30.5q0 20 11 31l241 348q15 18 41 18q24 0 39 -18l242 -348q12 -12 12 -31t-13 -31t-32 -12q-24 0 -35 18l-213 295l-213 -295q-11 -18 -37 -18zM610 1010q195 0 321 -127t126 -322v-24q0 -68 -64 -68h-772q9 -171 123.5 -282
t284.5 -111q86 0 165 33.5t136 93.5q20 20 39 20q20 0 32.5 -13.5t12.5 -33.5q0 -22 -25 -47q-149 -149 -360 -149q-218 0 -366 148.5t-148 365.5q0 143 66 261.5t179.5 186.5t249.5 68zM610 915q-149 0 -256 -99t-129 -253h727q2 153 -93.5 252.5t-248.5 99.5z" />
    <glyph glyph-name="edieresis" unicode="&#xeb;" horiz-adv-x="1171" 
d="M408 1284q-35 0 -60.5 25.5t-25.5 60.5q0 36 25 61t61 25q37 0 62.5 -24.5t25.5 -61.5q0 -35 -25.5 -60.5t-62.5 -25.5zM819 1284q-37 0 -62.5 25.5t-25.5 60.5q0 37 25.5 61.5t62.5 24.5t61.5 -24.5t24.5 -61.5q0 -36 -25 -61t-61 -25zM610 1010q195 0 321 -127
t126 -322v-24q0 -68 -64 -68h-772q9 -171 123.5 -282t284.5 -111q86 0 165 33.5t136 93.5q20 20 39 20q20 0 32.5 -13.5t12.5 -33.5q0 -22 -25 -47q-149 -149 -360 -149q-218 0 -366 148.5t-148 365.5q0 143 66 261.5t179.5 186.5t249.5 68zM610 915q-149 0 -256 -99
t-129 -253h727q2 153 -93.5 252.5t-248.5 99.5z" />
    <glyph glyph-name="igrave" unicode="&#xec;" horiz-adv-x="483" 
d="M217 1143q-22 5 -33 43l-73 354q-3 20 0 35q6 20 23.5 30.5t37.5 4.5q35 -9 41 -45l59 -367q3 -18 0 -27q-4 -17 -20 -25t-35 -3zM240 -20q-20 0 -35 15t-15 36v927q0 22 14.5 37t37.5 15q22 0 36.5 -15t14.5 -37v-927q0 -22 -15 -36.5t-38 -14.5z" />
    <glyph glyph-name="iacute" unicode="&#xed;" horiz-adv-x="483" 
d="M264 1151q-19 -3 -33.5 6.5t-17.5 28.5q-2 5 2 24l92 363q7 35 45 41q19 3 36 -9t20 -32q3 -16 -2 -35l-105 -346q-11 -36 -37 -41zM240 -20q-20 0 -35 15t-15 36v927q0 22 14.5 37t37.5 15q22 0 36.5 -15t14.5 -37v-927q0 -22 -15 -36.5t-38 -14.5z" />
    <glyph glyph-name="icircumflex" unicode="&#xee;" horiz-adv-x="483" 
d="M522 1227q13 -13 13 -31t-13.5 -30.5t-32.5 -12.5q-23 0 -34 18l-213 295l-213 -295q-11 -18 -37 -18q-18 0 -30.5 12.5t-12.5 30.5q0 21 10 31l242 348q15 18 41 18q24 0 39 -18zM242 1010q22 0 36.5 -15t14.5 -37v-927q0 -22 -15 -36.5t-38 -14.5q-20 0 -35 15t-15 36
v927q0 22 14.5 37t37.5 15z" />
    <glyph glyph-name="idieresis" unicode="&#xef;" horiz-adv-x="483" 
d="M68 1284q-35 0 -60.5 25.5t-25.5 60.5q0 37 24.5 61.5t61.5 24.5t62.5 -24.5t25.5 -61.5q0 -35 -25.5 -60.5t-62.5 -25.5zM416 1284q-37 0 -62.5 25.5t-25.5 60.5q0 37 25.5 61.5t62.5 24.5t62.5 -24.5t25.5 -61.5q0 -35 -25.5 -60.5t-62.5 -25.5zM240 -20q-20 0 -35 15
t-15 36v927q0 22 14.5 37t37.5 15q22 0 36.5 -15t14.5 -37v-927q0 -22 -15 -36.5t-38 -14.5z" />
    <glyph glyph-name="eth" unicode="&#xf0;" horiz-adv-x="1161" 
d="M834 920q129 -179 171 -271t42 -198q0 -203 -133 -337t-334 -134q-130 0 -236.5 59.5t-167.5 165t-61 235.5q0 195 130.5 329t319.5 134q97 0 183 -39l-256 353l-275 -130q-24 -12 -37 -12q-17 0 -29 13t-12 30q0 32 25 41l276 129l-133 185q-12 17 -12 36
q0 20 14.5 33.5t34.5 13.5q26 0 45 -24l146 -199l270 127q23 13 37 13q17 0 29 -13t12 -30q0 -28 -27 -41l-270 -127zM580 76q154 0 256 104.5t102 261.5t-102.5 261t-257.5 104q-153 0 -255 -104.5t-102 -262.5q0 -157 102.5 -260.5t256.5 -103.5z" />
    <glyph glyph-name="ntilde" unicode="&#xf1;" horiz-adv-x="1142" 
d="M340 1257q-22 0 -34.5 15.5t-12.5 40.5q0 79 41 129.5t104 50.5q77 0 135 -61l52 -52q31 -29 48.5 -39t37.5 -10q31 0 48 23.5t17 64.5q0 23 13.5 38.5t33.5 15.5t32.5 -16t12.5 -40q0 -79 -41 -130.5t-104 -51.5q-72 0 -133 61l-53 52q-30 30 -48 40.5t-38 10.5
q-31 0 -48.5 -23.5t-17.5 -64.5q0 -24 -13 -39t-32 -15zM604 1010q166 0 264.5 -104t98.5 -281v-594q0 -22 -15 -36.5t-37 -14.5t-36.5 14.5t-14.5 36.5v587q0 133 -75.5 214t-200.5 81q-128 0 -211.5 -83t-83.5 -212v-587q0 -22 -14.5 -36.5t-36.5 -14.5t-37 14.5t-15 36.5
v927q0 22 15 37t37 15t36.5 -15t14.5 -37v-96q52 70 132 109t179 39z" />
    <glyph glyph-name="ograve" unicode="&#xf2;" horiz-adv-x="1253" 
d="M602 1153q-25 0 -43 33l-164 323q-8 19 -8 35q0 20 14.5 34.5t34.5 14.5q38 0 51 -32l154 -340q6 -15 6 -25q0 -19 -13 -31t-32 -12zM627 1010q214 0 363 -149t149 -365q0 -107 -40 -202.5t-109 -164t-164 -109t-201 -40.5q-105 0 -199.5 40.5t-162.5 109t-108 164
t-40 202.5q0 143 67.5 261t185 185.5t259.5 67.5zM627 913q-174 0 -290 -119.5t-116 -299.5q0 -178 116 -298t288 -120t289.5 120.5t117.5 297.5q0 179 -117 299t-288 120z" />
    <glyph glyph-name="oacute" unicode="&#xf3;" horiz-adv-x="1253" 
d="M649 1153q-19 0 -32 12t-13 31q0 10 6 25l154 340q13 32 51 32q20 0 34.5 -14.5t14.5 -34.5q0 -16 -8 -35l-164 -323q-18 -33 -43 -33zM627 1010q214 0 363 -149t149 -365q0 -107 -40 -202.5t-109 -164t-164 -109t-201 -40.5q-105 0 -199.5 40.5t-162.5 109t-108 164
t-40 202.5q0 143 67.5 261t185 185.5t259.5 67.5zM627 913q-174 0 -290 -119.5t-116 -299.5q0 -178 116 -298t288 -120t289.5 120.5t117.5 297.5q0 179 -117 299t-288 120z" />
    <glyph glyph-name="ocircumflex" unicode="&#xf4;" horiz-adv-x="1253" 
d="M377 1153q-18 0 -30.5 12.5t-12.5 30.5q0 21 10 31l242 348q15 18 41 18q24 0 39 -18l241 -348q13 -13 13 -31t-13.5 -30.5t-32.5 -12.5q-23 0 -34 18l-213 295l-213 -295q-11 -18 -37 -18zM627 1010q214 0 363 -149t149 -365q0 -107 -40 -202.5t-109 -164t-164 -109
t-201 -40.5q-105 0 -199.5 40.5t-162.5 109t-108 164t-40 202.5q0 143 67.5 261t185 185.5t259.5 67.5zM625 76q172 0 289.5 120.5t117.5 297.5q0 179 -117 299t-288 120q-174 0 -290 -119.5t-116 -299.5q0 -178 116 -298t288 -120z" />
    <glyph glyph-name="otilde" unicode="&#xf5;" horiz-adv-x="1253" 
d="M768 1235q-72 0 -133 61l-53 52q-30 30 -48 40.5t-38 10.5q-31 0 -48.5 -23.5t-17.5 -64.5q0 -24 -13 -39t-32 -15q-22 0 -34.5 15.5t-12.5 40.5q0 79 41 129.5t104 50.5q77 0 135 -61l52 -52q31 -29 48.5 -39t37.5 -10q31 0 48 23.5t17 64.5q0 23 13.5 38.5t33.5 15.5
t32.5 -16t12.5 -40q0 -79 -41 -130.5t-104 -51.5zM627 1010q214 0 363 -149t149 -365q0 -107 -40 -202.5t-109 -164t-164 -109t-201 -40.5q-105 0 -199.5 40.5t-162.5 109t-108 164t-40 202.5q0 143 67.5 261t185 185.5t259.5 67.5zM627 913q-174 0 -290 -119.5t-116 -299.5
q0 -178 116 -298t288 -120t289.5 120.5t117.5 297.5q0 179 -117 299t-288 120z" />
    <glyph glyph-name="odieresis" unicode="&#xf6;" horiz-adv-x="1253" 
d="M422 1456q37 0 62.5 -24.5t25.5 -61.5q0 -35 -25.5 -60.5t-62.5 -25.5q-35 0 -60.5 25.5t-25.5 60.5q0 36 25 61t61 25zM834 1456q37 0 61.5 -24.5t24.5 -61.5q0 -36 -25 -61t-61 -25q-37 0 -63 25.5t-26 60.5q0 36 26 61t63 25zM627 1010q214 0 363 -149t149 -365
q0 -107 -40 -202.5t-109 -164t-164 -109t-201 -40.5q-105 0 -199.5 40.5t-162.5 109t-108 164t-40 202.5q0 143 67.5 261t185 185.5t259.5 67.5zM627 913q-174 0 -290 -119.5t-116 -299.5q0 -178 116 -298t288 -120t289.5 120.5t117.5 297.5q0 179 -117 299t-288 120z" />
    <glyph glyph-name="divide" unicode="&#xf7;" 
d="M567 1079q37 0 63.5 -25.5t26.5 -62.5q0 -35 -26.5 -60.5t-63.5 -25.5t-62.5 25.5t-25.5 60.5q0 37 25.5 62.5t62.5 25.5zM975 684q21 0 35 -12.5t14 -32.5t-14.5 -33.5t-34.5 -13.5h-805q-20 0 -34.5 13.5t-14.5 33.5t14 32.5t35 12.5h805zM567 367q37 0 63.5 -25
t26.5 -61q0 -37 -26.5 -62.5t-63.5 -25.5t-62.5 25.5t-25.5 62.5t25.5 61.5t62.5 24.5z" />
    <glyph glyph-name="oslash" unicode="&#xf8;" horiz-adv-x="1280" 
d="M1145 934l-111 -111q117 -139 117 -329q0 -140 -68.5 -258.5t-187 -187t-258.5 -68.5q-188 0 -328 118l-108 -110q-19 -19 -37 -19q-20 0 -33.5 14.5t-13.5 34.5q0 21 16 37l111 109q-117 142 -117 330q0 216 149 366t363 150q185 0 330 -119l108 110q22 19 39 19
q19 0 33 -14.5t14 -34.5q0 -19 -18 -37zM639 918q-175 0 -292.5 -122t-117.5 -302q0 -149 84 -263l590 590q-111 97 -264 97zM637 72q175 0 293.5 121.5t118.5 300.5q0 148 -84 262l-590 -590q112 -94 262 -94z" />
    <glyph glyph-name="ugrave" unicode="&#xf9;" horiz-adv-x="1128" 
d="M539 1153q-25 0 -43 33l-164 323q-8 19 -8 35q0 20 14.5 34.5t34.5 14.5q38 0 51 -32l154 -340q6 -15 6 -25q0 -19 -13 -31t-32 -12zM565 -20q-171 0 -280 110.5t-109 284.5v583q0 22 14.5 37t36.5 15q21 0 36.5 -15.5t15.5 -36.5v-587q0 -131 79 -213t207 -82
q126 0 205.5 82.5t79.5 212.5v587q0 22 14.5 37t36.5 15t36.5 -15t14.5 -37v-583q0 -173 -109 -284t-278 -111z" />
    <glyph glyph-name="uacute" unicode="&#xfa;" horiz-adv-x="1128" 
d="M586 1153q-19 0 -32 12t-13 31q0 10 6 25l153 340q13 32 52 32q20 0 34.5 -14.5t14.5 -34.5q0 -16 -8 -35l-164 -323q-18 -33 -43 -33zM565 -20q-171 0 -280 110.5t-109 284.5v583q0 22 14.5 37t36.5 15q21 0 36.5 -15.5t15.5 -36.5v-587q0 -131 79 -213t207 -82
q126 0 205.5 82.5t79.5 212.5v587q0 22 14.5 37t36.5 15t36.5 -15t14.5 -37v-583q0 -173 -109 -284t-278 -111z" />
    <glyph glyph-name="ucircumflex" unicode="&#xfb;" horiz-adv-x="1128" 
d="M313 1153q-18 0 -30.5 12.5t-12.5 30.5q0 20 11 31l241 348q15 18 41 18q24 0 39 -18l242 -348q12 -12 12 -31t-13 -31t-32 -12q-24 0 -35 18l-213 295l-213 -295q-11 -18 -37 -18zM901 1010q22 0 36.5 -15t14.5 -37v-583q0 -173 -109 -284t-278 -111q-171 0 -280 110.5
t-109 284.5v583q0 22 14.5 37t36.5 15q21 0 36.5 -15.5t15.5 -36.5v-587q0 -131 79 -213t207 -82q126 0 205.5 82.5t79.5 212.5v587q0 22 14.5 37t36.5 15z" />
    <glyph glyph-name="udieresis" unicode="&#xfc;" horiz-adv-x="1128" 
d="M358 1456q37 0 62.5 -24.5t25.5 -61.5q0 -35 -25.5 -60.5t-62.5 -25.5q-35 0 -60.5 25.5t-25.5 60.5q0 36 25 61t61 25zM770 1456q37 0 61.5 -24.5t24.5 -61.5q0 -36 -25 -61t-61 -25q-37 0 -62.5 25.5t-25.5 60.5q0 37 25.5 61.5t62.5 24.5zM565 -20q-171 0 -280 110.5
t-109 284.5v583q0 22 14.5 37t36.5 15q21 0 36.5 -15.5t15.5 -36.5v-587q0 -131 79 -213t207 -82q126 0 205.5 82.5t79.5 212.5v587q0 22 14.5 37t36.5 15t36.5 -15t14.5 -37v-583q0 -173 -109 -284t-278 -111z" />
    <glyph glyph-name="yacute" unicode="&#xfd;" horiz-adv-x="1081" 
d="M559 1153q-19 0 -32 12t-13 31q0 10 6 25l154 340q13 32 51 32q20 0 34.5 -14.5t14.5 -34.5q0 -16 -8 -35l-164 -323q-18 -33 -43 -33zM963 1010q21 0 36 -15t15 -37q0 -7 -6 -22l-480 -1077q-112 -248 -335 -248q-51 0 -87 8q-40 10 -40 47q0 20 14 33.5t33 13.5
q7 0 32 -4t39 -4q168 0 248 180l57 133l-405 916q-6 15 -6 24q0 22 14.5 37t36.5 15q37 0 49 -35l369 -832l364 832q12 35 52 35z" />
    <glyph glyph-name="thorn" unicode="&#xfe;" horiz-adv-x="1298" 
d="M692 1010q207 0 349.5 -148t142.5 -366q0 -220 -141.5 -368t-350.5 -148q-130 0 -236 58t-163 155v-531q0 -23 -14.5 -38t-36.5 -15t-37 15.5t-15 37.5v1843q0 22 15 36.5t37 14.5t36.5 -14.5t14.5 -36.5v-708q57 97 163 155t236 58zM682 76q170 0 282.5 119t112.5 299
q0 181 -113 300t-282 119q-175 0 -282 -115t-107 -302q0 -189 107 -304.5t282 -115.5z" />
    <glyph glyph-name="ydieresis" unicode="&#xff;" horiz-adv-x="1081" 
d="M332 1284q-35 0 -60.5 25.5t-25.5 60.5q0 36 25 61t61 25q37 0 62.5 -24.5t25.5 -61.5q0 -35 -25.5 -60.5t-62.5 -25.5zM743 1284q-37 0 -62.5 25.5t-25.5 60.5q0 37 25.5 61.5t62.5 24.5t61.5 -24.5t24.5 -61.5q0 -36 -25 -61t-61 -25zM963 1010q21 0 36 -15t15 -37
q0 -7 -6 -22l-480 -1077q-112 -248 -335 -248q-51 0 -87 8q-40 10 -40 47q0 20 14 33.5t33 13.5q7 0 32 -4t39 -4q168 0 248 180l57 133l-405 916q-6 15 -6 24q0 22 14.5 37t36.5 15q37 0 49 -35l369 -832l364 832q12 35 52 35z" />
    <glyph glyph-name="Amacron" unicode="&#x100;" horiz-adv-x="1361" 
d="M436 1591q-20 0 -33.5 12.5t-13.5 32.5q0 19 13.5 31t33.5 12h492q20 0 33.5 -12t13.5 -31q0 -20 -13.5 -32.5t-33.5 -12.5h-492zM1264 63q10 -20 10 -36q0 -19 -15.5 -33t-35.5 -14q-38 0 -52 36l-131 306h-723l-127 -306q-14 -36 -51 -36q-21 0 -36 14t-15 33
q0 15 8 36l535 1272q15 37 51 37q37 0 49 -37zM680 1212l-322 -794h641z" />
    <glyph glyph-name="amacron" unicode="&#x101;" horiz-adv-x="1067" 
d="M293 1325q-20 0 -33.5 13t-13.5 32t13.5 31t33.5 12h457q20 0 32.5 -12t12.5 -31t-12.5 -32t-32.5 -13h-457zM522 1010q174 0 272.5 -103t98.5 -286v-590q0 -22 -14.5 -36.5t-36.5 -14.5t-38 15t-16 36v116q-55 -79 -145 -123t-203 -44q-152 0 -246 74t-94 194
q0 121 93.5 192.5t250.5 71.5h344v113q0 137 -71.5 212.5t-200.5 75.5q-154 0 -272 -133q-20 -20 -43 -20q-19 0 -33 13t-14 30q0 22 22 47q136 160 346 160zM451 70q141 0 239 87t98 212v55h-333q-120 0 -184 -45.5t-64 -128.5q0 -82 67 -131t177 -49z" />
    <glyph glyph-name="Abreve" unicode="&#x102;" horiz-adv-x="1361" 
d="M682 1516q-117 0 -204 76t-87 180q0 20 13.5 34.5t33.5 14.5q39 0 45 -49q9 -73 65 -120.5t134 -47.5t134.5 48t62.5 120q6 49 45 49q20 0 33.5 -14.5t13.5 -34.5q0 -104 -86 -180t-203 -76zM1264 63q10 -20 10 -36q0 -19 -15.5 -33t-35.5 -14q-38 0 -52 36l-131 306
h-723l-127 -306q-14 -36 -51 -36q-21 0 -36 14t-15 33q0 15 8 36l535 1272q15 37 51 37q37 0 49 -37zM680 1212l-322 -794h641z" />
    <glyph glyph-name="abreve" unicode="&#x103;" horiz-adv-x="1067" 
d="M520 1204q-121 0 -207 83.5t-86 199.5q0 22 13.5 36.5t33.5 14.5q19 0 31.5 -13t13.5 -36q3 -83 60.5 -139t140.5 -56q82 0 139 56t60 139q1 22 14.5 35.5t32.5 13.5t32 -14.5t13 -36.5q0 -117 -85 -200t-206 -83zM522 1010q174 0 272.5 -103t98.5 -286v-590
q0 -22 -14.5 -36.5t-36.5 -14.5t-38 15t-16 36v116q-55 -79 -145 -123t-203 -44q-152 0 -246 74t-94 194q0 121 93.5 192.5t250.5 71.5h344v113q0 137 -71.5 212.5t-200.5 75.5q-154 0 -272 -133q-20 -20 -43 -20q-19 0 -33 13t-14 30q0 22 22 47q136 160 346 160zM451 70
q141 0 239 87t98 212v55h-333q-120 0 -184 -45.5t-64 -128.5q0 -82 67 -131t177 -49z" />
    <glyph glyph-name="Aogonek" unicode="&#x104;" horiz-adv-x="1361" 
d="M1253 -293q17 0 28 -11t11 -30q0 -32 -41 -41q-41 -14 -104 -14q-88 0 -146.5 45.5t-58.5 124.5q0 68 51 122t174 124l-127 295h-723l-127 -306q-14 -36 -51 -36q-21 0 -36 14t-15 33q0 15 8 36l535 1272q15 37 51 37q37 0 49 -37l533 -1272q10 -23 10 -30v-4v-2
q0 -17 -12 -29q-6 -10 -19 -16q-110 -66 -154.5 -107t-44.5 -86q0 -40 32 -65t87 -25q27 0 56.5 4t33.5 4zM680 1212l-322 -794h641z" />
    <glyph glyph-name="aogonek" unicode="&#x105;" horiz-adv-x="1067" 
d="M872 -293q17 0 28 -11t11 -30q0 -32 -41 -41q-41 -14 -104 -14q-88 0 -146.5 45.5t-58.5 124.5q0 68 51 122t176 126v2v116q-55 -79 -145 -123t-203 -44q-152 0 -246 74t-94 194q0 121 93.5 192.5t250.5 71.5h344v113q0 137 -71.5 212.5t-200.5 75.5q-154 0 -272 -133
q-20 -20 -43 -20q-19 0 -33 13t-14 30q0 22 22 47q136 160 346 160q174 0 272.5 -103t98.5 -286v-590v-2q0 -18 -10 -31l-6 -4q-6 -6 -15 -12q-109 -65 -153.5 -106.5t-44.5 -86.5q0 -40 31.5 -65t86.5 -25q27 0 56.5 4t33.5 4zM451 70q141 0 239 87t98 212v55h-333
q-120 0 -184 -45.5t-64 -128.5q0 -82 67 -131t177 -49z" />
    <glyph glyph-name="Cacute" unicode="&#x106;" horiz-adv-x="1458" 
d="M825 1491q-24 1 -36 21.5t-1 41.5l152 295q17 33 51 29q29 -2 41.5 -26.5t-4.5 -55.5l-160 -278q-17 -30 -43 -27zM801 -20q-193 0 -351.5 91.5t-249.5 251t-91 353.5q0 144 54 273t146 222t220.5 147t271.5 54q156 0 292 -63.5t230 -180.5q20 -23 20 -45
q0 -20 -14.5 -34.5t-34.5 -14.5q-26 0 -45 25q-175 215 -448 215q-162 0 -295.5 -78.5t-209 -215.5t-75.5 -304q0 -126 44.5 -236.5t121.5 -189.5t184.5 -124.5t229.5 -45.5q275 0 448 213q18 24 45 24q20 0 34.5 -14.5t14.5 -34.5q0 -19 -20 -45q-92 -117 -228.5 -180
t-293.5 -63z" />
    <glyph glyph-name="cacute" unicode="&#x107;" horiz-adv-x="1130" 
d="M647 1153q-19 0 -32 12t-13 31q0 10 6 25l154 340q13 32 51 32q20 0 34.5 -14.5t14.5 -34.5q0 -16 -8 -35l-164 -323q-18 -33 -43 -33zM625 -20q-140 0 -257.5 68.5t-185 187.5t-67.5 260q0 215 148.5 364.5t363.5 149.5q246 0 391 -191q14 -19 14 -39q0 -19 -14 -32
t-33 -13q-23 0 -39 21q-126 157 -319 157q-172 0 -289 -120t-117 -297t116.5 -298.5t287.5 -121.5q193 0 319 157q18 21 39 21q20 0 34.5 -13t14.5 -32q0 -18 -16 -39q-148 -190 -391 -190z" />
    <glyph glyph-name="Ccircumflex" unicode="&#x108;" horiz-adv-x="1458" 
d="M524 1479q-17 0 -29 12t-12 31q0 15 15 30l270 281q14 14 33 14q15 0 33 -14l268 -281q14 -14 14 -30q0 -19 -12 -31t-29 -12t-33 16l-241 240l-244 -240q-16 -16 -33 -16zM1294 317q20 0 34.5 -14.5t14.5 -34.5q0 -19 -20 -45q-92 -117 -228.5 -180t-293.5 -63
q-193 0 -351.5 91.5t-249.5 251t-91 353.5q0 144 54 273t146 222t220.5 147t271.5 54q156 0 292 -63.5t230 -180.5q20 -23 20 -45q0 -20 -14.5 -34.5t-34.5 -14.5q-26 0 -45 25q-175 215 -448 215q-162 0 -295.5 -78.5t-209 -215.5t-75.5 -304q0 -126 44.5 -236.5
t121.5 -189.5t184.5 -124.5t229.5 -45.5q275 0 448 213q18 24 45 24z" />
    <glyph glyph-name="ccircumflex" unicode="&#x109;" horiz-adv-x="1130" 
d="M375 1153q-18 0 -30.5 12.5t-12.5 30.5q0 21 10 31l242 348q15 18 41 18q24 0 39 -18l241 -348q13 -13 13 -31t-13.5 -30.5t-32.5 -12.5q-23 0 -34 18l-213 295l-213 -295q-11 -18 -37 -18zM983 254q20 0 34.5 -13t14.5 -32q0 -18 -16 -39q-148 -190 -391 -190
q-140 0 -257.5 68.5t-185 187.5t-67.5 260q0 215 148.5 364.5t363.5 149.5q246 0 391 -191q14 -19 14 -39q0 -19 -14 -32t-33 -13q-23 0 -39 21q-126 157 -319 157q-172 0 -289 -120t-117 -297t116.5 -298.5t287.5 -121.5q193 0 319 157q18 21 39 21z" />
    <glyph glyph-name="Cdotaccent" unicode="&#x10a;" horiz-adv-x="1458" 
d="M803 1741q37 0 62.5 -24.5t25.5 -61.5t-25.5 -62.5t-62.5 -25.5t-62.5 25.5t-25.5 62.5t25.5 61.5t62.5 24.5zM801 -20q-193 0 -351.5 91.5t-249.5 251t-91 353.5q0 144 54 273t146 222t220.5 147t271.5 54q156 0 292 -63.5t230 -180.5q20 -23 20 -45q0 -20 -14.5 -34.5
t-34.5 -14.5q-26 0 -45 25q-175 215 -448 215q-162 0 -295.5 -78.5t-209 -215.5t-75.5 -304q0 -126 44.5 -236.5t121.5 -189.5t184.5 -124.5t229.5 -45.5q275 0 448 213q18 24 45 24q20 0 34.5 -14.5t14.5 -34.5q0 -19 -20 -45q-92 -117 -228.5 -180t-293.5 -63z" />
    <glyph glyph-name="cdotaccent" unicode="&#x10b;" horiz-adv-x="1130" 
d="M625 1458q37 0 62.5 -25.5t25.5 -62.5t-25.5 -62.5t-62.5 -25.5t-62.5 25.5t-25.5 62.5t25.5 62.5t62.5 25.5zM625 -20q-140 0 -257.5 68.5t-185 187.5t-67.5 260q0 215 148.5 364.5t363.5 149.5q246 0 391 -191q14 -19 14 -39q0 -19 -14 -32t-33 -13q-23 0 -39 21
q-126 157 -319 157q-172 0 -289 -120t-117 -297t116.5 -298.5t287.5 -121.5q193 0 319 157q18 21 39 21q20 0 34.5 -13t14.5 -32q0 -18 -16 -39q-148 -190 -391 -190z" />
    <glyph glyph-name="Ccaron" unicode="&#x10c;" horiz-adv-x="1458" 
d="M770 1493l-270 281q-15 15 -15 30q0 19 12 31t29 12t33 -16l244 -240l241 240q16 16 33 16t29 -12t12 -31q0 -16 -14 -30l-268 -281q-18 -14 -33 -14q-19 0 -33 14zM1294 317q20 0 34.5 -14.5t14.5 -34.5q0 -19 -20 -45q-92 -117 -228.5 -180t-293.5 -63
q-193 0 -351.5 91.5t-249.5 251t-91 353.5q0 144 54 273t146 222t220.5 147t271.5 54q156 0 292 -63.5t230 -180.5q20 -23 20 -45q0 -20 -14.5 -34.5t-34.5 -14.5q-26 0 -45 25q-175 215 -448 215q-162 0 -295.5 -78.5t-209 -215.5t-75.5 -304q0 -126 44.5 -236.5
t121.5 -189.5t184.5 -124.5t229.5 -45.5q275 0 448 213q18 24 45 24z" />
    <glyph glyph-name="ccaron" unicode="&#x10d;" horiz-adv-x="1130" 
d="M584 1171l-242 349q-10 10 -10 30q0 18 12.5 30.5t30.5 12.5q26 0 37 -18l213 -295l213 295q11 18 34 18q19 0 32.5 -12.5t13.5 -30.5q0 -17 -13 -30l-241 -349q-15 -18 -39 -18q-26 0 -41 18zM983 254q20 0 34.5 -13t14.5 -32q0 -18 -16 -39q-148 -190 -391 -190
q-140 0 -257.5 68.5t-185 187.5t-67.5 260q0 215 148.5 364.5t363.5 149.5q246 0 391 -191q14 -19 14 -39q0 -19 -14 -32t-33 -13q-23 0 -39 21q-126 157 -319 157q-172 0 -289 -120t-117 -297t116.5 -298.5t287.5 -121.5q193 0 319 157q18 21 39 21z" />
    <glyph glyph-name="Dcaron" unicode="&#x10e;" horiz-adv-x="1425" 
d="M547 1493l-271 281q-14 14 -14 30q0 19 12 31t29 12t33 -16l244 -240l241 240q16 16 33 16t29 -12t12 -31q0 -16 -14 -30l-269 -281q-18 -14 -32 -14q-19 0 -33 14zM582 1352q335 0 535 -183.5t200 -490.5t-201.5 -492.5t-533.5 -185.5h-326q-24 0 -39.5 15.5t-15.5 39.5
v1241q0 24 15.5 40t39.5 16h326zM582 96q281 0 452.5 160t171.5 422t-170.5 419.5t-453.5 157.5h-275v-1159h275z" />
    <glyph glyph-name="dcaron" unicode="&#x10f;" horiz-adv-x="1509" 
d="M1057 1556q22 0 36.5 -14.5t14.5 -36.5v-1474q0 -22 -14.5 -36.5t-36.5 -14.5t-36.5 14.5t-14.5 36.5v164q-55 -98 -161.5 -156.5t-238.5 -58.5q-207 0 -349 148t-142 366q0 220 141 368t350 148q130 0 237 -58t163 -155v708q0 22 14.5 36.5t36.5 14.5zM1423 1556
q24 0 41 -17.5t11 -47.5l-64 -365q-2 -13 -14 -26t-31 -13q-21 0 -34.5 17t-10.5 41l47 358q3 26 18 39.5t37 13.5zM616 76q175 0 282.5 115.5t107.5 302.5q0 189 -107.5 304t-282.5 115q-170 0 -282.5 -118.5t-112.5 -298.5q0 -181 113 -300.5t282 -119.5z" />
    <glyph glyph-name="Dcroat" unicode="&#x110;" horiz-adv-x="1425" 
d="M582 1352q335 0 535 -183.5t200 -490.5t-201.5 -492.5t-533.5 -185.5h-326q-24 0 -39.5 15.5t-15.5 39.5v520h-160q-22 0 -36.5 14t-14.5 34q0 19 14.5 32t36.5 13h160v628q0 24 15.5 40t39.5 16h326zM582 96q281 0 452.5 160t171.5 422t-170.5 419.5t-453.5 157.5h-275
v-587h248q20 0 34.5 -13t14.5 -32q0 -20 -14.5 -34t-34.5 -14h-248v-479h275z" />
    <glyph glyph-name="dcroat" unicode="&#x111;" horiz-adv-x="1296" 
d="M1237 1307q19 0 33 -12.5t14 -32.5t-14 -32.5t-33 -12.5h-133v-1186q0 -22 -14.5 -36.5t-36.5 -14.5t-37 14.5t-15 36.5v164q-56 -98 -163.5 -156.5t-237.5 -58.5q-135 0 -247.5 66.5t-177 183t-64.5 257.5q0 217 141 364.5t348 147.5q130 0 237.5 -59.5t163.5 -157.5
v435h-419q-19 0 -33 12.5t-14 32.5t14 32.5t33 12.5h419v198q0 22 15 36.5t37 14.5t36.5 -14.5t14.5 -36.5v-198h133zM612 74q177 0 283 113.5t106 299.5q0 188 -106 302t-283 114q-169 0 -281 -118t-112 -298q0 -178 112 -295.5t281 -117.5z" />
    <glyph glyph-name="Emacron" unicode="&#x112;" horiz-adv-x="1153" 
d="M864 1679q20 0 33.5 -12t13.5 -31q0 -20 -13.5 -32.5t-33.5 -12.5h-491q-20 0 -33.5 12.5t-13.5 32.5q0 19 13.5 31t33.5 12h491zM252 0q-23 0 -37 14.5t-14 36.5v1249q0 22 14 37t37 15h752q20 0 34.5 -13.5t14.5 -33.5t-14.5 -35t-34.5 -15h-697v-477h533
q20 0 34.5 -13.5t14.5 -33.5t-14.5 -34.5t-34.5 -14.5h-533v-586h721q20 0 34.5 -13.5t14.5 -33.5t-14.5 -34.5t-34.5 -14.5h-776z" />
    <glyph glyph-name="emacron" unicode="&#x113;" horiz-adv-x="1171" 
d="M385 1325q-20 0 -33.5 13t-13.5 32t13.5 31t33.5 12h457q20 0 32.5 -12t12.5 -31t-12.5 -32t-32.5 -13h-457zM610 1010q195 0 321 -127t126 -322v-24q0 -68 -64 -68h-772q9 -171 123.5 -282t284.5 -111q86 0 165 33.5t136 93.5q20 20 39 20q20 0 32.5 -13.5t12.5 -33.5
q0 -22 -25 -47q-149 -149 -360 -149q-218 0 -366 148.5t-148 365.5q0 143 66 261.5t179.5 186.5t249.5 68zM610 915q-149 0 -256 -99t-129 -253h727q2 153 -93.5 252.5t-248.5 99.5z" />
    <glyph glyph-name="Ebreve" unicode="&#x114;" horiz-adv-x="1153" 
d="M618 1516q-117 0 -203.5 76t-86.5 180q0 20 13.5 34.5t33.5 14.5q39 0 45 -49q9 -74 64.5 -121t133.5 -47t134.5 48t62.5 120q6 49 45 49q20 0 33.5 -14.5t13.5 -34.5q0 -104 -86 -180t-203 -76zM252 0q-23 0 -37 14.5t-14 36.5v1249q0 22 14 37t37 15h752
q20 0 34.5 -13.5t14.5 -33.5t-14.5 -35t-34.5 -15h-697v-477h533q20 0 34.5 -13.5t14.5 -33.5t-14.5 -34.5t-34.5 -14.5h-533v-586h721q20 0 34.5 -13.5t14.5 -33.5t-14.5 -34.5t-34.5 -14.5h-776z" />
    <glyph glyph-name="ebreve" unicode="&#x115;" horiz-adv-x="1171" 
d="M612 1204q-121 0 -207 83.5t-86 199.5q0 22 14 36.5t34 14.5q19 0 31.5 -13t13.5 -36q3 -83 60 -139t140 -56q82 0 139 56t60 139q1 22 14.5 35.5t32.5 13.5t32 -14.5t13 -36.5q0 -117 -85 -200t-206 -83zM610 1010q195 0 321 -127t126 -322v-24q0 -68 -64 -68h-772
q9 -171 123.5 -282t284.5 -111q86 0 165 33.5t136 93.5q20 20 39 20q20 0 32.5 -13.5t12.5 -33.5q0 -22 -25 -47q-149 -149 -360 -149q-218 0 -366 148.5t-148 365.5q0 143 66 261.5t179.5 186.5t249.5 68zM610 915q-149 0 -256 -99t-129 -253h727q2 153 -93.5 252.5
t-248.5 99.5z" />
    <glyph glyph-name="Edotaccent" unicode="&#x116;" horiz-adv-x="1153" 
d="M618 1741q37 0 63 -25t26 -61q0 -37 -26 -62.5t-63 -25.5t-62.5 25.5t-25.5 62.5t25.5 61.5t62.5 24.5zM252 0q-23 0 -37 14.5t-14 36.5v1249q0 22 14 37t37 15h752q20 0 34.5 -13.5t14.5 -33.5t-14.5 -35t-34.5 -15h-697v-477h533q20 0 34.5 -13.5t14.5 -33.5
t-14.5 -34.5t-34.5 -14.5h-533v-586h721q20 0 34.5 -13.5t14.5 -33.5t-14.5 -34.5t-34.5 -14.5h-776z" />
    <glyph glyph-name="edotaccent" unicode="&#x117;" horiz-adv-x="1171" 
d="M612 1282q-37 0 -62.5 25.5t-25.5 62.5t25.5 62.5t62.5 25.5t62.5 -25.5t25.5 -62.5t-25.5 -62.5t-62.5 -25.5zM610 1010q195 0 321 -127t126 -322v-24q0 -68 -64 -68h-772q9 -171 123.5 -282t284.5 -111q86 0 165 33.5t136 93.5q20 20 39 20q20 0 32.5 -13.5t12.5 -33.5
q0 -22 -25 -47q-149 -149 -360 -149q-218 0 -366 148.5t-148 365.5q0 143 66 261.5t179.5 186.5t249.5 68zM610 915q-149 0 -256 -99t-129 -253h727q2 153 -93.5 252.5t-248.5 99.5z" />
    <glyph glyph-name="Eogonek" unicode="&#x118;" horiz-adv-x="1153" 
d="M1026 -293q17 0 27 -11t10 -28q0 -34 -39 -43q-43 -14 -104 -14q-89 0 -147 44t-58 120q0 59 42.5 111.5t141.5 113.5h-647q-23 0 -37 14.5t-14 36.5v1249q0 22 14 37t37 15h752q20 0 34.5 -13.5t14.5 -33.5t-14.5 -35t-34.5 -15h-697v-477h533q20 0 34.5 -13.5
t14.5 -33.5t-14.5 -34.5t-34.5 -14.5h-533v-586h721q20 0 34.5 -13.5t14.5 -33.5q0 -31 -28 -45l-105 -70q-74 -50 -101.5 -80.5t-27.5 -64.5q0 -42 33 -66t88 -24q25 0 55 4t35 4z" />
    <glyph glyph-name="eogonek" unicode="&#x119;" horiz-adv-x="1171" 
d="M610 1010q195 0 321 -127t126 -322v-24q0 -68 -64 -68h-772q9 -171 123.5 -282t284.5 -111q86 0 165 33.5t136 93.5q20 20 39 20q20 0 32.5 -13.5t12.5 -33.5q0 -22 -25 -47q-21 -21 -45 -39q-2 -3 -16 -14l-56 -41q-146 -104 -180 -135q-61 -57 -61 -111q0 -42 33 -67
t88 -25q25 0 55 5t33 5q17 0 27 -11t10 -28q0 -34 -39 -43q-43 -14 -103 -14q-91 0 -149 44.5t-58 123.5q0 51 32.5 98.5t103.5 104.5q-12 -2 -35 -2q-218 0 -366 148.5t-148 365.5q0 143 66 261.5t179.5 186.5t249.5 68zM610 915q-149 0 -256 -99t-129 -253h727
q2 153 -93.5 252.5t-248.5 99.5z" />
    <glyph glyph-name="Ecaron" unicode="&#x11a;" horiz-adv-x="1153" 
d="M586 1493l-271 281q-14 14 -14 30q0 19 12 31t29 12t33 -16l243 -240l242 240q16 16 33 16t29 -12t12 -31q0 -16 -14 -30l-269 -281q-17 -14 -33 -14q-18 0 -32 14zM1028 96q20 0 34.5 -13.5t14.5 -33.5t-14.5 -34.5t-34.5 -14.5h-776q-23 0 -37 14.5t-14 36.5v1249
q0 22 14 37t37 15h752q20 0 34.5 -13.5t14.5 -33.5t-14.5 -35t-34.5 -15h-697v-477h533q20 0 34.5 -13.5t14.5 -33.5t-14.5 -34.5t-34.5 -14.5h-533v-586h721z" />
    <glyph glyph-name="ecaron" unicode="&#x11b;" horiz-adv-x="1171" 
d="M571 1171l-241 349q-11 11 -11 30q0 18 12.5 30.5t30.5 12.5q26 0 37 -18l213 -295l213 295q11 18 35 18q19 0 32 -12t13 -31q0 -18 -12 -30l-242 -349q-15 -18 -39 -18q-26 0 -41 18zM610 1010q195 0 321 -127t126 -322v-24q0 -68 -64 -68h-772q9 -171 123.5 -282
t284.5 -111q86 0 165 33.5t136 93.5q20 20 39 20q20 0 32.5 -13.5t12.5 -33.5q0 -22 -25 -47q-149 -149 -360 -149q-218 0 -366 148.5t-148 365.5q0 143 66 261.5t179.5 186.5t249.5 68zM610 915q-149 0 -256 -99t-129 -253h727q2 153 -93.5 252.5t-248.5 99.5z" />
    <glyph glyph-name="Gcircumflex" unicode="&#x11c;" horiz-adv-x="1525" 
d="M524 1479q-17 0 -29 12t-12 31q0 15 15 30l270 281q14 14 33 14q15 0 33 -14l268 -281q14 -14 14 -30q0 -19 -12 -31t-29 -12t-33 16l-241 240l-244 -240q-16 -16 -33 -16zM1350 666q23 0 39 -16.5t16 -41.5v-239q0 -47 -23 -86q-92 -141 -247.5 -222t-333.5 -81
q-143 0 -271.5 54t-220.5 147t-146 222t-54 273t54 273t146 222t220.5 147t271.5 54q157 0 298.5 -66t227.5 -180q16 -26 16 -43q0 -19 -14 -34t-35 -15q-25 0 -55 35q-178 205 -436 205q-165 0 -298 -77.5t-208.5 -214t-75.5 -304.5q0 -169 76 -306.5t210 -215.5t300 -78
q154 0 284.5 68.5t206.5 191.5v229h-450q-24 0 -39.5 14t-15.5 35t15.5 35.5t39.5 14.5h502z" />
    <glyph glyph-name="gcircumflex" unicode="&#x11d;" horiz-adv-x="1310" 
d="M387 1153q-18 0 -30.5 12.5t-12.5 30.5q0 21 10 31l242 348q15 18 41 18q24 0 39 -18l242 -348q12 -12 12 -31t-13 -31t-32 -12q-24 0 -35 18l-213 295l-213 -295q-11 -18 -37 -18zM1069 997q22 0 36.5 -14.5t14.5 -36.5v-858q0 -218 -128.5 -347.5t-344.5 -129.5
q-120 0 -232.5 43t-195.5 121q-20 20 -20 41q0 20 14.5 34.5t34.5 14.5q14 0 33 -15q161 -143 364 -143q173 0 273 101t100 276v131q-56 -95 -164 -153t-238 -58q-207 0 -348 145t-141 359t141 359t348 145q131 0 238 -58t164 -155v147q0 22 14.5 36.5t36.5 14.5zM631 100
q173 0 280 112.5t107 295.5q0 181 -107 293t-280 112q-170 0 -284 -116t-114 -291q0 -173 114 -289.5t284 -116.5z" />
    <glyph glyph-name="Gbreve" unicode="&#x11e;" horiz-adv-x="1525" 
d="M803 1516q-117 0 -204 76t-87 180q0 20 13.5 34.5t33.5 14.5q39 0 45 -49q9 -73 65 -120.5t134 -47.5t134 48t62 120q6 49 45 49q20 0 34 -14.5t14 -34.5q0 -104 -86 -180t-203 -76zM801 -20q-143 0 -271.5 54t-220.5 147t-146 222t-54 273t54 273t146 222t220.5 147
t271.5 54q157 0 298.5 -66t227.5 -180q16 -26 16 -43q0 -19 -14 -34t-35 -15q-25 0 -55 35q-178 205 -436 205q-165 0 -298 -77.5t-208.5 -214t-75.5 -304.5q0 -169 76 -306.5t210 -215.5t300 -78q154 0 284.5 68.5t206.5 191.5v229h-450q-24 0 -39.5 14t-15.5 35t15.5 35.5
t39.5 14.5h502q23 0 39 -16.5t16 -41.5v-239q0 -47 -23 -86q-92 -141 -247.5 -222t-333.5 -81z" />
    <glyph glyph-name="gbreve" unicode="&#x11f;" horiz-adv-x="1310" 
d="M637 1204q-121 0 -207 83.5t-86 199.5q0 22 13.5 36.5t33.5 14.5q19 0 31.5 -13t13.5 -36q3 -83 60.5 -139t140.5 -56q82 0 139 56t60 139q1 22 14.5 35.5t32.5 13.5t32 -14.5t13 -36.5q0 -117 -85 -200t-206 -83zM1069 997q22 0 36.5 -14.5t14.5 -36.5v-858
q0 -218 -128.5 -347.5t-344.5 -129.5q-120 0 -232.5 43t-195.5 121q-20 20 -20 41q0 20 14.5 34.5t34.5 14.5q14 0 33 -15q161 -143 364 -143q173 0 273 101t100 276v131q-56 -95 -164 -153t-238 -58q-207 0 -348 145t-141 359t141 359t348 145q131 0 238 -58t164 -155v147
q0 22 14.5 36.5t36.5 14.5zM631 100q173 0 280 112.5t107 295.5q0 181 -107 293t-280 112q-170 0 -284 -116t-114 -291q0 -173 114 -289.5t284 -116.5z" />
    <glyph glyph-name="Gdotaccent" unicode="&#x120;" horiz-adv-x="1525" 
d="M803 1741q37 0 62.5 -24.5t25.5 -61.5t-25.5 -62.5t-62.5 -25.5t-62.5 25.5t-25.5 62.5t25.5 61.5t62.5 24.5zM801 -20q-143 0 -271.5 54t-220.5 147t-146 222t-54 273t54 273t146 222t220.5 147t271.5 54q157 0 298.5 -66t227.5 -180q16 -26 16 -43q0 -19 -14 -34
t-35 -15q-25 0 -55 35q-178 205 -436 205q-165 0 -298 -77.5t-208.5 -214t-75.5 -304.5q0 -169 76 -306.5t210 -215.5t300 -78q154 0 284.5 68.5t206.5 191.5v229h-450q-24 0 -39.5 14t-15.5 35t15.5 35.5t39.5 14.5h502q23 0 39 -16.5t16 -41.5v-239q0 -47 -23 -86
q-92 -141 -247.5 -222t-333.5 -81z" />
    <glyph glyph-name="gdotaccent" unicode="&#x121;" horiz-adv-x="1310" 
d="M637 1282q-37 0 -62.5 25.5t-25.5 62.5t25.5 62.5t62.5 25.5t62.5 -25.5t25.5 -62.5t-25.5 -62.5t-62.5 -25.5zM1069 997q22 0 36.5 -14.5t14.5 -36.5v-858q0 -218 -128.5 -347.5t-344.5 -129.5q-120 0 -232.5 43t-195.5 121q-20 20 -20 41q0 20 14.5 34.5t34.5 14.5
q14 0 33 -15q161 -143 364 -143q173 0 273 101t100 276v131q-56 -95 -164 -153t-238 -58q-207 0 -348 145t-141 359t141 359t348 145q131 0 238 -58t164 -155v147q0 22 14.5 36.5t36.5 14.5zM631 100q173 0 280 112.5t107 295.5q0 181 -107 293t-280 112q-170 0 -284 -116
t-114 -291q0 -173 114 -289.5t284 -116.5z" />
    <glyph glyph-name="Gcommaaccent" unicode="&#x122;" horiz-adv-x="1525" 
d="M801 -20q-143 0 -271.5 54t-220.5 147t-146 222t-54 273t54 273t146 222t220.5 147t271.5 54q157 0 298.5 -66t227.5 -180q16 -26 16 -43q0 -19 -14 -34t-35 -15q-25 0 -55 35q-178 205 -436 205q-165 0 -298 -77.5t-208.5 -214t-75.5 -304.5q0 -169 76 -306.5
t210 -215.5t300 -78q154 0 284.5 68.5t206.5 191.5v229h-450q-24 0 -39.5 14t-15.5 35t15.5 35.5t39.5 14.5h502q23 0 39 -16.5t16 -41.5v-239q0 -47 -23 -86q-92 -141 -247.5 -222t-333.5 -81zM768 -451q-20 0 -33 14t-12 34q1 5 6.5 34t9.5 53t7.5 70t3.5 96q0 22 15.5 37
t37.5 15t36.5 -15t14.5 -37q0 -135 -39 -256q-15 -45 -47 -45z" />
    <glyph glyph-name="gcommaaccent" unicode="&#x123;" horiz-adv-x="1310" 
d="M635 1153q-22 0 -36.5 14.5t-14.5 38.5q0 78 17 187t52 180q11 37 45 37q16 0 29.5 -11.5t13.5 -29.5q0 -7 -6 -26.5t-14 -42t-10 -30.5q-25 -139 -25 -264q0 -24 -15 -38.5t-36 -14.5zM1069 997q22 0 36.5 -14.5t14.5 -36.5v-858q0 -218 -128.5 -347.5t-344.5 -129.5
q-120 0 -232.5 43t-195.5 121q-20 20 -20 41q0 20 14.5 34.5t34.5 14.5q14 0 33 -15q161 -143 364 -143q173 0 273 101t100 276v131q-56 -95 -164 -153t-238 -58q-207 0 -348 145t-141 359t141 359t348 145q131 0 238 -58t164 -155v147q0 22 14.5 36.5t36.5 14.5zM631 100
q173 0 280 112.5t107 295.5q0 181 -107 293t-280 112q-170 0 -284 -116t-114 -291q0 -173 114 -289.5t284 -116.5z" />
    <glyph glyph-name="Hcircumflex" unicode="&#x124;" horiz-adv-x="1445" 
d="M444 1479q-17 0 -29 12t-12 31q0 15 15 30l270 281q14 14 33 14q15 0 33 -14l268 -281q14 -14 14 -30q0 -19 -12 -31t-29 -12q-16 0 -32 16l-242 240l-244 -240q-16 -16 -33 -16zM1192 1372q23 0 38 -15t15 -38v-1286q0 -23 -15 -38t-38 -15t-38 15t-15 38v649h-832v-649
q0 -23 -15.5 -38t-37.5 -15q-23 0 -38 15t-15 38v1286q0 23 15 38t38 15q22 0 37.5 -15t15.5 -38v-541h832v541q0 23 15 38t38 15z" />
    <glyph glyph-name="hcircumflex" unicode="&#x125;" horiz-adv-x="1142" 
d="M532 1679l-241 240l-244 -240q-16 -16 -33 -16t-29 12t-12 31q0 16 15 31l270 280q15 15 33 15q14 0 33 -15l268 -280q14 -14 14 -31q0 -19 -12 -31t-29 -12t-33 16zM606 1010q165 0 263 -104t98 -281v-594q0 -22 -15 -36.5t-37 -14.5t-36.5 14.5t-14.5 36.5v585
q0 135 -75.5 216t-200.5 81q-128 0 -211.5 -83.5t-83.5 -213.5v-585q0 -22 -14.5 -36.5t-36.5 -14.5t-37 14.5t-15 36.5v1474q0 22 15 36.5t37 14.5t36.5 -14.5t14.5 -36.5v-653q50 76 130.5 117t182.5 41z" />
    <glyph glyph-name="Hbar" unicode="&#x126;" horiz-adv-x="1462" 
d="M260 -20q-22 0 -37.5 15.5t-15.5 39.5v930h-168q-20 0 -34.5 13.5t-14.5 33.5q0 19 14.5 32t34.5 13h168v260q0 24 15.5 39.5t37.5 15.5q23 0 38 -15t15 -40v-260h834v260q0 25 15 40t38 15t38 -15t15 -40v-260h170q20 0 33.5 -13t13.5 -32q0 -20 -13.5 -33.5
t-33.5 -13.5h-170v-930q0 -25 -15 -40t-38 -15t-38 15t-15 40v522h-834v-522q0 -25 -15 -40t-38 -15zM313 653h834v312h-834v-312z" />
    <glyph glyph-name="hbar" unicode="&#x127;" horiz-adv-x="1144" 
d="M608 999q166 0 264.5 -105t98.5 -280v-583q0 -22 -14.5 -36.5t-36.5 -14.5t-38 15t-16 36v575q0 134 -75 214.5t-199 80.5q-129 0 -213 -83t-84 -212v-575q0 -22 -14.5 -36.5t-36.5 -14.5q-21 0 -36 15t-15 36v1183h-132q-20 0 -33.5 14t-13.5 34t13.5 33.5t33.5 13.5
h132v196q0 23 15 37t36 14q22 0 36.5 -14.5t14.5 -36.5v-196h381q20 0 34.5 -13.5t14.5 -33.5t-14.5 -34t-34.5 -14h-381v-374q105 159 313 159z" />
    <glyph glyph-name="Itilde" unicode="&#x128;" horiz-adv-x="505" 
d="M-4 1540q-20 0 -33.5 15t-13.5 38q0 80 41.5 131.5t105.5 51.5q61 0 142 -56l71 -49q27 -18 38 -25t25 -12.5t27 -5.5q32 0 49 23t17 65q2 23 14.5 37t32.5 14t33.5 -15t13.5 -38q0 -80 -41.5 -131t-105.5 -51q-60 0 -140 55l-71 49q-27 18 -38 25t-25.5 12.5t-28.5 5.5
q-66 0 -66 -88q-3 -51 -47 -51zM254 -20q-23 0 -38 15t-15 40v1282q0 25 15 40t38 15q22 0 37.5 -15.5t15.5 -39.5v-1282q0 -24 -15.5 -39.5t-37.5 -15.5z" />
    <glyph glyph-name="itilde" unicode="&#x129;" horiz-adv-x="483" 
d="M367 1235q-61 0 -123 65l-41 46q-46 51 -80 51q-62 0 -62 -86q0 -24 -13 -39t-32 -15q-22 0 -34.5 15.5t-12.5 40.5q0 79 41.5 129.5t104.5 50.5q65 0 125 -66l41 -45q28 -30 44.5 -40.5t34.5 -10.5q59 0 62 88q0 23 13 38.5t32 15.5q20 0 33.5 -16.5t13.5 -39.5
q0 -80 -41.5 -131t-105.5 -51zM240 -20q-20 0 -35 15t-15 36v927q0 22 14.5 37t37.5 15q22 0 36.5 -15t14.5 -37v-927q0 -22 -15 -36.5t-38 -14.5z" />
    <glyph glyph-name="Imacron" unicode="&#x12a;" horiz-adv-x="505" 
d="M500 1679q20 0 33.5 -12t13.5 -31q0 -20 -13.5 -32.5t-33.5 -12.5h-492q-20 0 -33.5 12.5t-13.5 32.5q0 19 13.5 31t33.5 12h492zM254 -20q-23 0 -38 15t-15 40v1282q0 25 15 40t38 15q22 0 37.5 -15.5t15.5 -39.5v-1282q0 -24 -15.5 -39.5t-37.5 -15.5z" />
    <glyph glyph-name="imacron" unicode="&#x12b;" horiz-adv-x="483" 
d="M412 1413q20 0 32.5 -12t12.5 -31q0 -20 -12.5 -32.5t-32.5 -12.5h-340q-19 0 -32 13t-13 32t13 31t32 12h340zM240 -20q-20 0 -35 15t-15 36v927q0 22 14.5 37t37.5 15q22 0 36.5 -15t14.5 -37v-927q0 -22 -15 -36.5t-38 -14.5z" />
    <glyph glyph-name="Ibreve" unicode="&#x12c;" horiz-adv-x="505" 
d="M254 1516q-117 0 -204 76t-87 180q0 20 13.5 34.5t33.5 14.5q39 0 45 -49q9 -73 65 -120.5t134 -47.5t134.5 48t62.5 120q6 49 45 49q20 0 33.5 -14.5t13.5 -34.5q0 -104 -86 -180t-203 -76zM254 -20q-23 0 -38 15t-15 40v1282q0 25 15 40t38 15q22 0 37.5 -15.5
t15.5 -39.5v-1282q0 -24 -15.5 -39.5t-37.5 -15.5z" />
    <glyph glyph-name="ibreve" unicode="&#x12d;" horiz-adv-x="483" 
d="M242 1204q-121 0 -207 83.5t-86 199.5q0 22 13.5 36.5t33.5 14.5q19 0 31.5 -13t13.5 -36q3 -83 60.5 -139t140.5 -56q82 0 138.5 56t59.5 139q1 22 14.5 35.5t32.5 13.5t32 -14.5t13 -36.5q0 -117 -84.5 -200t-205.5 -83zM240 -20q-20 0 -35 15t-15 36v927q0 22 14.5 37
t37.5 15q22 0 36.5 -15t14.5 -37v-927q0 -22 -15 -36.5t-38 -14.5z" />
    <glyph glyph-name="Iogonek" unicode="&#x12e;" horiz-adv-x="505" 
d="M287 -293q17 0 28 -11t11 -30q0 -32 -41 -41q-41 -14 -105 -14q-88 0 -146.5 45.5t-58.5 124.5q0 68 51 122t175 126v6v1282q0 25 15 40t38 15q22 0 37.5 -15.5t15.5 -39.5v-1282v-4v-2q0 -26 -31 -47q-109 -65 -153.5 -106.5t-44.5 -86.5q0 -40 32 -65t87 -25
q27 0 56.5 4t33.5 4z" />
    <glyph glyph-name="iogonek" unicode="&#x12f;" horiz-adv-x="483" 
d="M242 1282q-37 0 -62.5 25.5t-25.5 62.5t25.5 62.5t62.5 25.5t62.5 -25.5t25.5 -62.5t-25.5 -62.5t-62.5 -25.5zM272 -293q17 0 28 -11t11 -30q0 -32 -41 -41q-41 -14 -104 -14q-88 0 -146.5 45.5t-58.5 124.5q0 68 51 122t176 126q2 0 2 2v927q0 22 14.5 37t37.5 15
q22 0 36.5 -15t14.5 -37v-927v-2q0 -26 -31 -47q-110 -66 -154.5 -107t-44.5 -86q0 -40 32 -65t87 -25q27 0 56.5 4t33.5 4z" />
    <glyph glyph-name="Idotaccent" unicode="&#x130;" horiz-adv-x="505" 
d="M254 1741q37 0 62.5 -24.5t25.5 -61.5t-25.5 -62.5t-62.5 -25.5t-62.5 25.5t-25.5 62.5t25.5 61.5t62.5 24.5zM254 -20q-23 0 -38 15t-15 40v1282q0 25 15 40t38 15q22 0 37.5 -15.5t15.5 -39.5v-1282q0 -24 -15.5 -39.5t-37.5 -15.5z" />
    <glyph glyph-name="dotlessi" unicode="&#x131;" horiz-adv-x="483" 
d="M240 -20q-20 0 -35 15t-15 36v927q0 22 14.5 37t37.5 15q22 0 36.5 -15t14.5 -37v-927q0 -22 -15 -36.5t-38 -14.5z" />
    <glyph glyph-name="IJ" unicode="&#x132;" horiz-adv-x="1255" 
d="M254 -20q-23 0 -38 15t-15 40v1282q0 25 15 40t38 15q22 0 37.5 -15.5t15.5 -39.5v-1282q0 -24 -15.5 -39.5t-37.5 -15.5zM729 -20q-86 0 -133 12q-19 5 -31 19.5t-12 33.5q0 22 15 36.5t38 14.5q14 0 57 -7t76 -7q103 0 157 55.5t54 161.5v1018q0 25 15 40t39 15
q23 0 38 -15t15 -40v-1024q0 -152 -84.5 -232.5t-243.5 -80.5z" />
    <glyph glyph-name="ij" unicode="&#x133;" horiz-adv-x="966" 
d="M242 1458q37 0 62.5 -25.5t25.5 -62.5t-25.5 -62.5t-62.5 -25.5t-62.5 25.5t-25.5 62.5t25.5 62.5t62.5 25.5zM725 1458q37 0 62.5 -25.5t25.5 -62.5t-25.5 -62.5t-62.5 -25.5t-62.5 25.5t-25.5 62.5t25.5 62.5t62.5 25.5zM240 -20q-20 0 -35 15t-15 36v927q0 22 14.5 37
t37.5 15q22 0 36.5 -15t14.5 -37v-927q0 -22 -15 -36.5t-38 -14.5zM475 -389q-40 0 -78 6q-47 10 -47 49q0 19 13.5 32t33.5 13q5 0 27 -3t41 -3q209 0 209 207v1046q0 22 14 37t37 15q22 0 36.5 -15t14.5 -37v-1050q0 -153 -81.5 -225t-219.5 -72z" />
    <glyph glyph-name="Jcircumflex" unicode="&#x134;" horiz-adv-x="749" 
d="M784 1552q15 -15 15 -30q0 -19 -12 -31t-29 -12t-33 16l-242 240l-243 -240q-16 -16 -33 -16t-29 12t-12 31q0 16 14 30l271 281q14 14 32 14q15 0 33 -14zM498 1372q23 0 38 -15t15 -40v-1024q0 -152 -84.5 -232.5t-243.5 -80.5q-86 0 -133 12q-19 5 -31 19.5t-12 33.5
q0 22 15 36.5t38 14.5q14 0 57 -7t76 -7q103 0 157 55.5t54 161.5v1018q0 25 15 40t39 15z" />
    <glyph glyph-name="jcircumflex" unicode="&#x135;" horiz-adv-x="483" 
d="M522 1227q13 -13 13 -31t-13.5 -30.5t-32.5 -12.5q-23 0 -34 18l-213 295l-213 -295q-11 -18 -37 -18q-18 0 -30.5 12.5t-12.5 30.5q0 21 10 31l242 348q15 18 41 18q24 0 39 -18zM242 1010q22 0 36.5 -15t14.5 -37v-1050q0 -153 -81.5 -225t-219.5 -72q-40 0 -78 6
q-47 10 -47 49q0 19 13.5 32t33.5 13q5 0 27 -3t41 -3q208 0 208 207v1046q0 22 14.5 37t37.5 15z" />
    <glyph glyph-name="Kcommaaccent" unicode="&#x136;" horiz-adv-x="1255" 
d="M254 1372q22 0 37.5 -15.5t15.5 -39.5v-1282q0 -24 -15.5 -39.5t-37.5 -15.5q-23 0 -38 15t-15 40v1282q0 25 15 40t38 15zM1139 68q20 -20 20 -41q0 -20 -14.5 -33.5t-34.5 -13.5q-23 0 -47 24l-688 688q-17 17 -17 37q0 22 19 41l624 571q31 31 54 31q22 0 36.5 -13.5
t14.5 -33.5q0 -21 -27 -45l-602 -553zM596 -98q22 0 36.5 -15t14.5 -37q0 -135 -39 -256q-15 -45 -47 -45q-20 0 -33 14t-12 34q1 5 6.5 34t9.5 53t7.5 70t3.5 96q0 22 15.5 37t37.5 15z" />
    <glyph glyph-name="kcommaaccent" unicode="&#x137;" horiz-adv-x="987" 
d="M242 1546q22 0 36.5 -15.5t14.5 -37.5v-1450q0 -22 -14.5 -37.5t-36.5 -15.5t-37 15.5t-15 37.5v1450q0 22 14.5 37.5t37.5 15.5zM918 66q16 -13 16 -37q0 -22 -13.5 -35.5t-35.5 -13.5q-23 0 -45 22l-478 514q-16 16 -16 39t19 39l428 399q17 17 41 17q20 0 34.5 -13.5
t14.5 -33.5q0 -23 -23 -43l-395 -365zM494 -98q22 0 36.5 -15t14.5 -37q0 -135 -39 -256q-15 -45 -47 -45q-20 0 -33 14t-12 34q1 3 6.5 33.5t9 53.5t7 69.5t3.5 96.5q0 22 16 37t38 15z" />
    <glyph glyph-name="Lacute" unicode="&#x139;" horiz-adv-x="1021" 
d="M276 1491q-24 1 -35.5 21.5t-0.5 41.5l151 295q17 33 51 29q29 -2 41.5 -26.5t-4.5 -55.5l-160 -278q-17 -30 -43 -27zM256 0q-24 0 -39.5 15.5t-15.5 39.5v1262q0 25 15 40t38 15q22 0 37.5 -15.5t15.5 -39.5v-1221h621q22 0 36.5 -13.5t14.5 -33.5t-14.5 -34.5
t-36.5 -14.5h-672z" />
    <glyph glyph-name="lacute" unicode="&#x13a;" horiz-adv-x="483" 
d="M264 1675q-24 1 -36 22t-1 42l152 295q17 32 51 28q29 -2 41.5 -26.5t-4.5 -55.5l-160 -278q-17 -30 -43 -27zM242 -20q-22 0 -37 14.5t-15 36.5v1474q0 22 15 36.5t37 14.5t36.5 -14.5t14.5 -36.5v-1474q0 -22 -14 -36.5t-37 -14.5z" />
    <glyph glyph-name="Lcommaaccent" unicode="&#x13b;" horiz-adv-x="1021" 
d="M256 0q-24 0 -39.5 15.5t-15.5 39.5v1262q0 25 15 40t38 15q22 0 37.5 -15.5t15.5 -39.5v-1221h621q22 0 36.5 -13.5t14.5 -33.5t-14.5 -34.5t-36.5 -14.5h-672zM541 -451q-20 0 -33 14t-12 34q1 3 6.5 33.5t9 53.5t7 69.5t3.5 96.5q0 22 15.5 37t37.5 15t37 -15t15 -37
q0 -135 -39 -256q-15 -45 -47 -45z" />
    <glyph glyph-name="lcommaaccent" unicode="&#x13c;" horiz-adv-x="483" 
d="M242 -20q-22 0 -37 14.5t-15 36.5v1474q0 22 15 36.5t37 14.5t36.5 -14.5t14.5 -36.5v-1474q0 -22 -14 -36.5t-37 -14.5zM207 -451q-20 0 -33 14t-12 34q1 3 6.5 33.5t9 53.5t7 69.5t3.5 96.5q0 22 16 37t38 15t36.5 -15t14.5 -37q0 -135 -39 -256q-15 -45 -47 -45z" />
    <glyph glyph-name="Lcaron" unicode="&#x13d;" horiz-adv-x="1021" 
d="M797 1026q-21 0 -34.5 16.5t-10.5 40.5l47 359q3 26 18 39.5t37 13.5q24 0 40.5 -17.5t10.5 -47.5l-63 -365q-2 -13 -14 -26t-31 -13zM256 0q-24 0 -39.5 15.5t-15.5 39.5v1262q0 25 15 40t38 15q22 0 37.5 -15.5t15.5 -39.5v-1221h621q22 0 36.5 -13.5t14.5 -33.5
t-14.5 -34.5t-36.5 -14.5h-672z" />
    <glyph glyph-name="lcaron" unicode="&#x13e;" horiz-adv-x="694" 
d="M242 -20q-22 0 -37 14.5t-15 36.5v1474q0 22 15 36.5t37 14.5t36.5 -14.5t14.5 -36.5v-1474q0 -22 -14 -36.5t-37 -14.5zM549 1087q-21 0 -34.5 17t-10.5 41l47 358q3 26 18 39.5t37 13.5q24 0 40.5 -17.5t10.5 -47.5l-63 -365q-2 -13 -14 -26t-31 -13z" />
    <glyph glyph-name="Ldot" unicode="&#x13f;" horiz-adv-x="1021" 
d="M256 0q-24 0 -39.5 15.5t-15.5 39.5v1262q0 25 15 40t38 15q22 0 37.5 -15.5t15.5 -39.5v-1221h621q22 0 36.5 -13.5t14.5 -33.5t-14.5 -34.5t-36.5 -14.5h-672zM762 645q-39 0 -68.5 28t-29.5 70q0 45 29 74t69 29q42 0 72 -29t30 -74q0 -42 -30 -70t-72 -28z" />
    <glyph glyph-name="ldot" unicode="&#x140;" horiz-adv-x="546" 
d="M242 -20q-22 0 -37 14.5t-15 36.5v1474q0 22 15 36.5t37 14.5t36.5 -14.5t14.5 -36.5v-1474q0 -22 -14 -36.5t-37 -14.5zM512 537q-39 0 -68.5 28t-29.5 70q0 44 29 73t69 29q42 0 72 -28.5t30 -73.5q0 -42 -30 -70t-72 -28z" />
    <glyph glyph-name="Lslash" unicode="&#x141;" horiz-adv-x="1021" 
d="M928 96q22 0 36.5 -13.5t14.5 -33.5t-14.5 -34.5t-36.5 -14.5h-672q-24 0 -39.5 15.5t-15.5 39.5v510l-101 -47q-26 -10 -48.5 2t-22.5 37q0 33 32 47l140 64v649q0 25 15 40t38 15q22 0 37.5 -15.5t15.5 -39.5v-610l410 184q26 12 48.5 0.5t22.5 -37.5q0 -32 -34 -47
l-447 -201v-510h621z" />
    <glyph glyph-name="lslash" unicode="&#x142;" horiz-adv-x="585" 
d="M479 897q20 0 32.5 -13t12.5 -32q-3 -30 -26 -43l-160 -74v-704q0 -22 -14.5 -36.5t-36.5 -14.5t-38 15t-16 36v667l-110 -51q-15 -6 -25 -6q-20 0 -32.5 13t-12.5 32q3 28 27 43l153 70v706q0 22 15.5 36.5t38.5 14.5q22 0 36.5 -14.5t14.5 -36.5v-667l115 53q18 6 26 6
z" />
    <glyph glyph-name="Nacute" unicode="&#x143;" horiz-adv-x="1445" 
d="M745 1491q-24 1 -35.5 21.5t-0.5 41.5l151 295q17 33 51 29q29 -2 41.5 -26.5t-4.5 -55.5l-160 -278q-17 -30 -43 -27zM1192 1372q23 0 38 -15t15 -40v-1284q0 -23 -14.5 -38t-36.5 -15q-26 0 -47 24l-840 1149v-1118q0 -24 -15.5 -39.5t-37.5 -15.5q-23 0 -38 15t-15 40
v1284q0 23 15 38t38 15q25 0 47 -31l840 -1146l-2 1122q0 25 15 40t38 15z" />
    <glyph glyph-name="nacute" unicode="&#x144;" horiz-adv-x="1142" 
d="M604 1153q-19 0 -32 12t-13 31q0 10 6 25l154 340q13 32 51 32q20 0 34.5 -14.5t14.5 -34.5q0 -16 -8 -35l-164 -323q-18 -33 -43 -33zM604 1010q166 0 264.5 -104t98.5 -281v-594q0 -22 -15 -36.5t-37 -14.5t-36.5 14.5t-14.5 36.5v587q0 133 -75.5 214t-200.5 81
q-128 0 -211.5 -83t-83.5 -212v-587q0 -22 -14.5 -36.5t-36.5 -14.5t-37 14.5t-15 36.5v927q0 22 15 37t37 15t36.5 -15t14.5 -37v-96q52 70 132 109t179 39z" />
    <glyph glyph-name="Ncommaaccent" unicode="&#x145;" horiz-adv-x="1445" 
d="M1192 1372q23 0 38 -15t15 -40v-1284q0 -23 -14.5 -38t-36.5 -15q-26 0 -47 24l-840 1149v-1118q0 -24 -15.5 -39.5t-37.5 -15.5q-23 0 -38 15t-15 40v1284q0 23 15 38t38 15q25 0 47 -31l840 -1146l-2 1122q0 25 15 40t38 15zM723 -98q22 0 36.5 -15t14.5 -37
q0 -135 -39 -256q-15 -45 -47 -45q-20 0 -33 14t-12 34q1 5 6.5 34t9.5 53t7.5 70t3.5 96q0 22 15.5 37t37.5 15z" />
    <glyph glyph-name="ncommaaccent" unicode="&#x146;" horiz-adv-x="1142" 
d="M604 1010q166 0 264.5 -104t98.5 -281v-594q0 -22 -15 -36.5t-37 -14.5t-36.5 14.5t-14.5 36.5v587q0 133 -75.5 214t-200.5 81q-128 0 -211.5 -83t-83.5 -212v-587q0 -22 -14.5 -36.5t-36.5 -14.5t-37 14.5t-15 36.5v927q0 22 15 37t37 15t36.5 -15t14.5 -37v-96
q52 70 132 109t179 39zM582 -98q22 0 36.5 -15t14.5 -37q0 -135 -39 -256q-15 -45 -47 -45q-20 0 -33 14t-12 34q1 3 6.5 33.5t9 53.5t7 69.5t3.5 96.5q0 22 16 37t38 15z" />
    <glyph glyph-name="Ncaron" unicode="&#x147;" horiz-adv-x="1445" 
d="M690 1493l-270 281q-14 14 -14 30q0 19 11.5 31t28.5 12t33 -16l244 -240l242 240q16 16 32 16q17 0 29 -12t12 -31q0 -16 -14 -30l-268 -281q-18 -14 -33 -14q-19 0 -33 14zM1192 1372q23 0 38 -15t15 -40v-1284q0 -23 -14.5 -38t-36.5 -15q-26 0 -47 24l-840 1149
v-1118q0 -24 -15.5 -39.5t-37.5 -15.5q-23 0 -38 15t-15 40v1284q0 23 15 38t38 15q25 0 47 -31l840 -1146l-2 1122q0 25 15 40t38 15z" />
    <glyph glyph-name="ncaron" unicode="&#x148;" horiz-adv-x="1142" 
d="M541 1171l-242 349q-10 10 -10 30q0 18 12.5 30.5t30.5 12.5q26 0 37 -18l213 -295l213 295q11 18 34 18q19 0 32 -12t13 -31q0 -18 -12 -30l-241 -349q-15 -18 -39 -18q-26 0 -41 18zM604 1010q166 0 264.5 -104t98.5 -281v-594q0 -22 -15 -36.5t-37 -14.5t-36.5 14.5
t-14.5 36.5v587q0 133 -75.5 214t-200.5 81q-128 0 -211.5 -83t-83.5 -212v-587q0 -22 -14.5 -36.5t-36.5 -14.5t-37 14.5t-15 36.5v927q0 22 15 37t37 15t36.5 -15t14.5 -37v-96q52 70 132 109t179 39z" />
    <glyph glyph-name="Eng" unicode="&#x14a;" horiz-adv-x="1445" 
d="M1192 1372q23 0 38 -15t15 -40v-1409q0 -145 -77 -221t-222 -76q-56 0 -86 6q-41 10 -41 47q0 21 14 35t35 14q6 0 27.5 -2t32.5 -2q109 0 160 49.5t51 153.5v102l-832 1139v-1118q0 -24 -15.5 -39.5t-37.5 -15.5q-23 0 -38 15t-15 40v1284q0 23 15 38t38 15q25 0 47 -31
l840 -1146l-2 1122q0 25 15 40t38 15z" />
    <glyph glyph-name="eng" unicode="&#x14b;" horiz-adv-x="1142" 
d="M604 1010q166 0 264.5 -104t98.5 -281v-717q0 -148 -79 -222.5t-222 -74.5q-40 0 -78 6q-47 10 -47 49q0 19 13.5 32t33.5 13q5 0 26.5 -3t40.5 -3q209 0 209 207v706q0 133 -75.5 214t-200.5 81q-128 0 -211.5 -83t-83.5 -212v-587q0 -22 -14.5 -36.5t-36.5 -14.5
t-37 14.5t-15 36.5v927q0 22 15 37t37 15t36.5 -15t14.5 -37v-96q52 70 132 109t179 39z" />
    <glyph glyph-name="Omacron" unicode="&#x14c;" horiz-adv-x="1603" 
d="M1049 1679q20 0 33.5 -12t13.5 -31q0 -20 -13.5 -32.5t-33.5 -12.5h-492q-20 0 -33.5 12.5t-13.5 32.5q0 19 13.5 31t33.5 12h492zM801 1372q143 0 271.5 -54t221 -147t147 -222t54.5 -273q0 -143 -54.5 -272.5t-147 -222t-221 -147t-271.5 -54.5q-191 0 -350 92
t-250.5 252t-91.5 352q0 144 54 273t146 222t220.5 147t271.5 54zM803 1274q-123 0 -231 -46t-185 -125t-121.5 -189.5t-44.5 -235.5q0 -169 76 -306t209 -214.5t297 -77.5q162 0 294.5 78t208.5 215.5t76 304.5t-76 303.5t-208.5 214.5t-294.5 78z" />
    <glyph glyph-name="omacron" unicode="&#x14d;" horiz-adv-x="1253" 
d="M856 1413q20 0 32.5 -12t12.5 -31t-12.5 -32t-32.5 -13h-457q-20 0 -33.5 13t-13.5 32t13.5 31t33.5 12h457zM627 1010q214 0 363 -149t149 -365q0 -107 -40 -202.5t-109 -164t-164 -109t-201 -40.5q-105 0 -199.5 40.5t-162.5 109t-108 164t-40 202.5q0 143 67.5 261
t185 185.5t259.5 67.5zM627 913q-174 0 -290 -119.5t-116 -299.5q0 -178 116 -298t288 -120t289.5 120.5t117.5 297.5q0 179 -117 299t-288 120z" />
    <glyph glyph-name="Obreve" unicode="&#x14e;" horiz-adv-x="1603" 
d="M803 1516q-117 0 -204 76t-87 180q0 20 13.5 34.5t33.5 14.5q39 0 45 -49q9 -73 65 -120.5t134 -47.5t134 48t62 120q6 49 45 49q20 0 34 -14.5t14 -34.5q0 -104 -86 -180t-203 -76zM801 1372q143 0 271.5 -54t221 -147t147 -222t54.5 -273q0 -143 -54.5 -272.5
t-147 -222t-221 -147t-271.5 -54.5q-191 0 -350 92t-250.5 252t-91.5 352q0 144 54 273t146 222t220.5 147t271.5 54zM803 1274q-123 0 -231 -46t-185 -125t-121.5 -189.5t-44.5 -235.5q0 -169 76 -306t209 -214.5t297 -77.5q162 0 294.5 78t208.5 215.5t76 304.5t-76 303.5
t-208.5 214.5t-294.5 78z" />
    <glyph glyph-name="obreve" unicode="&#x14f;" horiz-adv-x="1253" 
d="M627 1204q-121 0 -207 83.5t-86 199.5q0 22 13.5 36.5t33.5 14.5q19 0 31.5 -13t13.5 -36q3 -83 60.5 -139t140.5 -56q82 0 138.5 56t59.5 139q1 22 14.5 35.5t32.5 13.5t32.5 -14.5t13.5 -36.5q0 -117 -85 -200t-206 -83zM627 1010q214 0 363 -149t149 -365
q0 -107 -40 -202.5t-109 -164t-164 -109t-201 -40.5q-105 0 -199.5 40.5t-162.5 109t-108 164t-40 202.5q0 143 67.5 261t185 185.5t259.5 67.5zM627 913q-174 0 -290 -119.5t-116 -299.5q0 -178 116 -298t288 -120t289.5 120.5t117.5 297.5q0 179 -117 299t-288 120z" />
    <glyph glyph-name="Ohungarumlaut" unicode="&#x150;" horiz-adv-x="1603" 
d="M664 1491q-24 1 -36 21.5t-1 41.5l151 295q17 33 51 29q29 -2 41.5 -26.5t-4.5 -55.5l-159 -278q-17 -30 -43 -27zM1004 1491q-24 1 -36 21.5t-1 41.5l151 295q17 33 51 29q29 -2 41.5 -26.5t-4.5 -55.5l-159 -278q-17 -30 -43 -27zM801 1372q143 0 271.5 -54t221 -147
t147 -222t54.5 -273q0 -143 -54.5 -272.5t-147 -222t-221 -147t-271.5 -54.5q-191 0 -350 92t-250.5 252t-91.5 352q0 144 54 273t146 222t220.5 147t271.5 54zM803 1274q-123 0 -231 -46t-185 -125t-121.5 -189.5t-44.5 -235.5q0 -169 76 -306t209 -214.5t297 -77.5
q162 0 294.5 78t208.5 215.5t76 304.5t-76 303.5t-208.5 214.5t-294.5 78z" />
    <glyph glyph-name="ohungarumlaut" unicode="&#x151;" horiz-adv-x="1253" 
d="M489 1153q-19 0 -32 12t-13 31q0 8 7 25l153 340q13 32 51 32q20 0 35 -14.5t15 -34.5q0 -14 -9 -35l-164 -323q-18 -33 -43 -33zM788 1153q-19 0 -32 12t-13 31q0 8 7 25l153 340q13 32 51 32q20 0 35 -14.5t15 -34.5q0 -14 -9 -35l-164 -323q-18 -33 -43 -33zM627 1010
q214 0 363 -149t149 -365q0 -107 -40 -202.5t-109 -164t-164 -109t-201 -40.5q-105 0 -199.5 40.5t-162.5 109t-108 164t-40 202.5q0 143 67.5 261t185 185.5t259.5 67.5zM627 913q-174 0 -290 -119.5t-116 -299.5q0 -178 116 -298t288 -120t289.5 120.5t117.5 297.5
q0 179 -117 299t-288 120z" />
    <glyph glyph-name="OE" unicode="&#x152;" horiz-adv-x="2336" 
d="M2212 96q20 0 34.5 -13.5t14.5 -33.5t-14.5 -34.5t-34.5 -14.5h-776q-23 0 -37.5 14.5t-14.5 36.5v279q-77 -160 -234.5 -255t-350.5 -95q-191 0 -349.5 92t-249.5 252t-91 352t91 352t249.5 252t349.5 92q193 0 350.5 -95t234.5 -255v278q0 22 14.5 37t37.5 15h751
q20 0 34.5 -13.5t14.5 -33.5t-14.5 -35t-34.5 -15h-696v-477h532q21 0 35.5 -13.5t14.5 -33.5t-15 -34.5t-35 -14.5h-532v-586h721zM801 80q163 0 296 77.5t209 215t76 305.5q0 167 -75.5 303.5t-209 214.5t-296.5 78t-296.5 -78t-208.5 -214.5t-75 -303.5
q0 -126 44.5 -237.5t121.5 -190.5t184.5 -124.5t229.5 -45.5z" />
    <glyph glyph-name="oe" unicode="&#x153;" horiz-adv-x="2048" 
d="M1487 1010q195 0 320.5 -127t125.5 -322v-24q0 -68 -63 -68h-756q9 -175 116.5 -284t274.5 -109q86 0 165 33.5t136 93.5q17 20 37 20t33.5 -13.5t13.5 -33.5q0 -23 -24 -47q-140 -149 -361 -149q-149 0 -266 76.5t-176 207.5q-59 -131 -176 -207.5t-264 -76.5
q-212 0 -360 149.5t-148 364.5q0 107 40 202.5t108 164t162.5 109t199.5 40.5q146 0 262 -77t174 -208q59 131 172 208t254 77zM1485 915q-146 0 -246.5 -97t-120.5 -255h709q2 153 -93.5 252.5t-248.5 99.5zM623 76q169 0 279 118.5t110 299.5q0 183 -109.5 301t-277.5 118
q-172 0 -288 -119.5t-116 -299.5q0 -177 116 -297.5t286 -120.5z" />
    <glyph glyph-name="Racute" unicode="&#x154;" horiz-adv-x="1257" 
d="M561 1491q-24 1 -36 21.5t-1 41.5l152 295q17 33 51 29q29 -2 41.5 -26.5t-4.5 -55.5l-160 -278q-17 -30 -43 -27zM1178 68q16 -22 16 -41q0 -20 -14.5 -33.5t-36.5 -13.5q-27 0 -47 28l-449 598h-340v-573q0 -23 -15.5 -38t-37.5 -15q-23 0 -38 15t-15 38v1265
q0 22 15 38t38 16h405q185 0 297.5 -102t112.5 -271q0 -141 -81.5 -238t-221.5 -125zM307 1255v-553h348q139 0 221 74.5t82 202.5q0 127 -81.5 201.5t-221.5 74.5h-348z" />
    <glyph glyph-name="racute" unicode="&#x155;" horiz-adv-x="716" 
d="M346 1153q-19 0 -32 12t-13 31q0 10 6 25l154 340q13 32 51 32q20 0 34.5 -14.5t14.5 -34.5q0 -16 -8 -35l-164 -323q-18 -33 -43 -33zM639 997q24 0 38.5 -13t14.5 -36q0 -22 -15 -35.5t-38 -13.5q-149 0 -247.5 -94t-98.5 -236v-538q0 -22 -14.5 -36.5t-36.5 -14.5
t-37 14.5t-15 36.5v927q0 22 15 37t37 15t36.5 -15t14.5 -37v-137q55 84 143.5 130t202.5 46z" />
    <glyph glyph-name="Rcommaaccent" unicode="&#x156;" horiz-adv-x="1257" 
d="M1178 68q16 -22 16 -41q0 -20 -14.5 -33.5t-36.5 -13.5q-27 0 -47 28l-449 598h-340v-573q0 -23 -15.5 -38t-37.5 -15q-23 0 -38 15t-15 38v1265q0 22 15 38t38 16h405q185 0 297.5 -102t112.5 -271q0 -141 -81.5 -238t-221.5 -125zM307 1255v-553h348q139 0 221 74.5
t82 202.5q0 127 -81.5 201.5t-221.5 74.5h-348zM608 -98q22 0 36.5 -15t14.5 -37q0 -138 -38 -256q-15 -45 -48 -45q-20 0 -33 14t-12 34q1 5 6.5 34t9.5 53t7.5 70t3.5 96q0 22 15.5 37t37.5 15z" />
    <glyph glyph-name="rcommaaccent" unicode="&#x157;" horiz-adv-x="716" 
d="M639 997q24 0 38.5 -13t14.5 -36q0 -22 -15 -35.5t-38 -13.5q-149 0 -247.5 -94t-98.5 -236v-538q0 -22 -14.5 -36.5t-36.5 -14.5t-37 14.5t-15 36.5v927q0 22 15 37t37 15t36.5 -15t14.5 -37v-137q55 84 143.5 130t202.5 46zM242 -98q22 0 36.5 -15t14.5 -37
q0 -135 -39 -256q-15 -45 -47 -45q-20 0 -33 14t-12 34q1 3 6.5 33.5t9 53.5t7 69.5t3.5 96.5q0 22 16 37t38 15z" />
    <glyph glyph-name="Rcaron" unicode="&#x158;" horiz-adv-x="1257" 
d="M506 1493l-270 281q-15 15 -15 30q0 19 12 31t29 12t33 -16l244 -240l241 240q16 16 33 16t29 -12t12 -31q0 -16 -14 -30l-269 -281q-18 -14 -32 -14q-19 0 -33 14zM1178 68q16 -22 16 -41q0 -20 -14.5 -33.5t-36.5 -13.5q-27 0 -47 28l-449 598h-340v-573
q0 -23 -15.5 -38t-37.5 -15q-23 0 -38 15t-15 38v1265q0 22 15 38t38 16h405q185 0 297.5 -102t112.5 -271q0 -141 -81.5 -238t-221.5 -125zM307 1255v-553h348q139 0 221 74.5t82 202.5q0 127 -81.5 201.5t-221.5 74.5h-348z" />
    <glyph glyph-name="rcaron" unicode="&#x159;" horiz-adv-x="716" 
d="M324 1153q-26 0 -41 18l-242 349q-10 10 -10 30q0 18 12.5 30.5t30.5 12.5q26 0 37 -18l213 -295l213 295q11 18 34 18q19 0 32 -12t13 -31q0 -18 -12 -30l-242 -349q-15 -18 -38 -18zM639 997q24 0 38.5 -13t14.5 -36q0 -22 -15 -35.5t-38 -13.5q-149 0 -247.5 -94
t-98.5 -236v-538q0 -22 -14.5 -36.5t-36.5 -14.5t-37 14.5t-15 36.5v927q0 22 15 37t37 15t36.5 -15t14.5 -37v-137q55 84 143.5 130t202.5 46z" />
    <glyph glyph-name="Sacute" unicode="&#x15a;" horiz-adv-x="1138" 
d="M600 1491q-24 1 -36 21.5t-1 41.5l152 295q17 33 51 29q29 -2 41.5 -26.5t-4.5 -55.5l-160 -278q-17 -30 -43 -27zM580 -20q-136 0 -255 63.5t-202 181.5q-12 15 -12 35t14.5 34.5t34.5 14.5q24 0 45 -24q143 -205 377 -205q138 0 222.5 70.5t84.5 185.5q0 93 -52 151
t-198 127l-154 74q-161 77 -230 157.5t-69 192.5q0 152 112.5 243t281.5 91q111 0 206 -43t162 -125q19 -22 19 -43q0 -19 -14.5 -33t-34.5 -14q-22 0 -39 21q-121 139 -299 139q-75 0 -137 -23t-104 -77t-42 -130q0 -86 50.5 -141t189.5 -121l151 -73q172 -82 241.5 -165
t69.5 -206q0 -158 -116.5 -258t-302.5 -100z" />
    <glyph glyph-name="sacute" unicode="&#x15b;" horiz-adv-x="931" 
d="M496 1153q-19 0 -32 12t-13 31q0 10 6 25l153 340q13 32 52 32q20 0 34.5 -14.5t14.5 -34.5q0 -14 -9 -35l-163 -323q-18 -33 -43 -33zM473 -20q-115 0 -208.5 51t-155.5 135q-15 19 -15 35q0 20 15.5 35.5t35.5 15.5q23 0 39 -19q125 -157 289 -157q95 0 159 45t64 129
q0 23 -6 43.5t-14 35.5t-25.5 30.5t-29.5 25t-39 23.5t-41 20.5t-47 20.5l-91 38q-56 24 -95 46.5t-75.5 54t-54.5 72.5t-18 92q0 119 92 188.5t223 69.5q181 0 301 -138q19 -19 19 -36q0 -20 -13 -35t-32 -15t-45 23q-96 104 -236 104q-85 0 -143 -39t-58 -116
q0 -34 12 -59.5t39.5 -46.5t56.5 -36t79 -36l92 -41q62 -27 105 -52.5t79 -59t54 -76.5t18 -97q0 -87 -47.5 -151t-120.5 -93.5t-162 -29.5z" />
    <glyph glyph-name="Scircumflex" unicode="&#x15c;" horiz-adv-x="1138" 
d="M299 1479q-17 0 -29 12t-12 31q0 16 14 30l271 281q14 14 32 14q15 0 33 -14l269 -281q14 -14 14 -30q0 -19 -12 -31t-29 -12t-33 16l-242 240l-243 -240q-16 -16 -33 -16zM688 709q172 -82 241.5 -165t69.5 -206q0 -158 -116.5 -258t-302.5 -100q-136 0 -255 63.5
t-202 181.5q-12 15 -12 35t14.5 34.5t34.5 14.5q24 0 45 -24q143 -205 377 -205q138 0 222.5 70.5t84.5 185.5q0 93 -52 151t-198 127l-154 74q-161 77 -230 157.5t-69 192.5q0 152 112.5 243t281.5 91q111 0 206 -43t162 -125q19 -22 19 -43q0 -19 -14.5 -33t-34.5 -14
q-22 0 -39 21q-121 139 -299 139q-75 0 -137 -23t-104 -77t-42 -130q0 -86 50.5 -141t189.5 -121z" />
    <glyph glyph-name="scircumflex" unicode="&#x15d;" horiz-adv-x="931" 
d="M223 1153q-18 0 -30.5 12.5t-12.5 30.5q0 21 10 31l242 348q15 18 41 18q24 0 39 -18l242 -348q12 -12 12 -31t-13 -31t-32 -12q-24 0 -35 18l-213 295l-213 -295q-11 -18 -37 -18zM547 539q62 -27 105 -52.5t79 -59t54 -76.5t18 -97q0 -87 -47.5 -151t-120.5 -93.5
t-162 -29.5q-115 0 -208.5 51t-155.5 135q-15 19 -15 35q0 20 15.5 35.5t35.5 15.5q23 0 39 -19q125 -157 289 -157q95 0 159 45t64 129q0 23 -6 43.5t-14 35.5t-25.5 30.5t-29.5 25t-39 23.5t-41 20.5t-47 20.5l-91 38q-56 24 -95 46.5t-75.5 54t-54.5 72.5t-18 92
q0 119 92 188.5t223 69.5q181 0 301 -138q19 -19 19 -36q0 -20 -13 -35t-32 -15t-45 23q-96 104 -236 104q-85 0 -143 -39t-58 -116q0 -34 12 -59.5t39.5 -46.5t56.5 -36t79 -36z" />
    <glyph glyph-name="Scedilla" unicode="&#x15e;" horiz-adv-x="1138" 
d="M999 338q0 -136 -88 -230.5t-235 -119.5q55 -76 55 -156q0 -98 -70.5 -159.5t-179.5 -61.5q-71 0 -108 12q-39 12 -39 43q0 19 12 31t29 12q9 0 38.5 -6t59.5 -6q70 0 114 37t44 102q0 83 -66 141l-2 3q-132 5 -246.5 68t-193.5 177q-12 15 -12 35t14.5 34.5t34.5 14.5
q24 0 45 -24q143 -205 377 -205q138 0 222.5 70.5t84.5 185.5q0 93 -52 151t-198 127l-154 74q-161 77 -230 157.5t-69 192.5q0 152 112.5 243t281.5 91q111 0 206 -43t162 -125q19 -22 19 -43q0 -19 -14.5 -33t-34.5 -14q-22 0 -39 21q-121 139 -299 139q-75 0 -137 -23
t-104 -77t-42 -130q0 -86 50.5 -141t189.5 -121l151 -73q172 -82 241.5 -165t69.5 -206z" />
    <glyph glyph-name="scedilla" unicode="&#x15f;" horiz-adv-x="931" 
d="M803 254q0 -104 -63.5 -171.5t-164.5 -90.5q60 -78 60 -160q0 -98 -70.5 -159.5t-179.5 -61.5q-72 0 -109 12q-38 11 -38 43q0 19 12 31t29 12q9 0 38.5 -6t59.5 -6q70 0 114 37t44 102q0 83 -66 141l-2 3q-113 1 -205 52t-153 134q-15 19 -15 35q0 20 15.5 35.5
t35.5 15.5q23 0 39 -19q125 -157 289 -157q95 0 159 45t64 129q0 23 -6 43.5t-14 35.5t-25.5 30.5t-29.5 25t-39 23.5t-41 20.5t-47 20.5l-91 38q-56 24 -95 46.5t-75.5 54t-54.5 72.5t-18 92q0 119 92 188.5t223 69.5q181 0 301 -138q19 -19 19 -36q0 -20 -13 -35t-32 -15
t-45 23q-96 104 -236 104q-85 0 -143 -39t-58 -116q0 -34 12 -59.5t39.5 -46.5t56.5 -36t79 -36l92 -41q62 -27 105 -52.5t79 -59t54 -76.5t18 -97z" />
    <glyph glyph-name="Scaron" unicode="&#x160;" horiz-adv-x="1138" 
d="M545 1493l-271 281q-14 14 -14 30q0 19 12 31t29 12t33 -16l244 -240l241 240q16 16 33 16t29 -12t12 -31q0 -16 -14 -30l-269 -281q-18 -14 -32 -14q-19 0 -33 14zM688 709q172 -82 241.5 -165t69.5 -206q0 -158 -116.5 -258t-302.5 -100q-136 0 -255 63.5t-202 181.5
q-12 15 -12 35t14.5 34.5t34.5 14.5q24 0 45 -24q143 -205 377 -205q138 0 222.5 70.5t84.5 185.5q0 93 -52 151t-198 127l-154 74q-161 77 -230 157.5t-69 192.5q0 152 112.5 243t281.5 91q111 0 206 -43t162 -125q19 -22 19 -43q0 -19 -14.5 -33t-34.5 -14q-22 0 -39 21
q-121 139 -299 139q-75 0 -137 -23t-104 -77t-42 -130q0 -86 50.5 -141t189.5 -121z" />
    <glyph glyph-name="scaron" unicode="&#x161;" horiz-adv-x="931" 
d="M432 1171l-242 349q-10 10 -10 30q0 18 12.5 30.5t30.5 12.5q26 0 37 -18l213 -295l213 295q11 18 35 18q19 0 32 -12t13 -31q0 -18 -12 -30l-242 -349q-15 -18 -39 -18q-26 0 -41 18zM547 539q62 -27 105 -52.5t79 -59t54 -76.5t18 -97q0 -87 -47.5 -151t-120.5 -93.5
t-162 -29.5q-115 0 -208.5 51t-155.5 135q-15 19 -15 35q0 20 15.5 35.5t35.5 15.5q23 0 39 -19q125 -157 289 -157q95 0 159 45t64 129q0 23 -6 43.5t-14 35.5t-25.5 30.5t-29.5 25t-39 23.5t-41 20.5t-47 20.5l-91 38q-56 24 -95 46.5t-75.5 54t-54.5 72.5t-18 92
q0 119 92 188.5t223 69.5q181 0 301 -138q19 -19 19 -36q0 -20 -13 -35t-32 -15t-45 23q-96 104 -236 104q-85 0 -143 -39t-58 -116q0 -34 12 -59.5t39.5 -46.5t56.5 -36t79 -36z" />
    <glyph glyph-name="uni0162" unicode="&#x162;" horiz-adv-x="1193" 
d="M1102 1352q20 0 34.5 -13.5t14.5 -33.5t-14.5 -35t-34.5 -15h-453v-1189q48 -5 104 -78.5t56 -155.5q0 -98 -70.5 -159.5t-179.5 -61.5q-71 0 -108 12q-39 12 -39 43q0 19 12 31t29 12q9 0 38.5 -6t59.5 -6q70 0 114 37t44 102q0 83 -66 141q-3 2 -14 13q-13 -10 -33 -10
q-23 0 -38 15t-15 40v1220h-451q-20 0 -34.5 15t-14.5 35t14.5 33.5t34.5 13.5h1010z" />
    <glyph glyph-name="uni0163" unicode="&#x163;" horiz-adv-x="743" 
d="M653 84q21 0 34 -11.5t13 -31.5q0 -38 -43 -47q-52 -14 -118 -14q51 -67 51 -148q0 -98 -70.5 -159.5t-179.5 -61.5q-72 0 -109 12q-38 11 -38 43q0 19 11.5 31t28.5 12q9 0 39 -6t60 -6q70 0 113.5 37t43.5 102q0 84 -65 141q-10 8 -25 23q-170 63 -170 276v619h-129
q-20 0 -34.5 13.5t-14.5 33.5t14.5 33.5t34.5 13.5h129v242q0 23 16 38t38 15t36.5 -15.5t14.5 -37.5v-242h276q20 0 34.5 -13.5t14.5 -33.5t-14.5 -33.5t-34.5 -13.5h-276v-614q0 -207 215 -207q29 0 62.5 5t41.5 5z" />
    <glyph glyph-name="Tcaron" unicode="&#x164;" horiz-adv-x="1193" 
d="M565 1493l-270 281q-14 14 -14 30q0 19 12 31t29 12q16 0 32 -16l244 -240l242 240q16 16 32 16q17 0 29 -12t12 -31q0 -16 -14 -30l-268 -281q-18 -14 -33 -14q-19 0 -33 14zM1102 1352q20 0 34.5 -13.5t14.5 -33.5t-14.5 -35t-34.5 -15h-453v-1220q0 -25 -15 -40
t-38 -15t-38 15t-15 40v1220h-451q-20 0 -34.5 15t-14.5 35t14.5 33.5t34.5 13.5h1010z" />
    <glyph glyph-name="tcaron" unicode="&#x165;" horiz-adv-x="743" 
d="M588 1087q-21 0 -34.5 17t-10.5 41l47 358q3 26 18 39.5t37 13.5q24 0 40.5 -17.5t10.5 -47.5l-63 -365q-2 -13 -14 -26t-31 -13zM653 84q21 0 34 -11.5t13 -31.5q0 -38 -43 -47q-55 -14 -125 -14q-146 0 -224.5 76.5t-78.5 219.5v619h-129q-20 0 -34.5 13.5t-14.5 33.5
t14.5 33.5t34.5 13.5h129v242q0 23 16 38t38 15t36.5 -15.5t14.5 -37.5v-242h276q20 0 34.5 -13.5t14.5 -33.5t-14.5 -33.5t-34.5 -13.5h-276v-614q0 -207 215 -207q29 0 62.5 5t41.5 5z" />
    <glyph glyph-name="Tbar" unicode="&#x166;" horiz-adv-x="1193" 
d="M596 -20q-23 0 -38 15t-15 40v528h-375q-20 0 -33.5 13t-13.5 32q0 20 13.5 32.5t33.5 12.5h375v602h-451q-20 0 -34.5 15t-14.5 35t14.5 33.5t34.5 13.5h1010q20 0 34.5 -13.5t14.5 -33.5t-14.5 -35t-34.5 -15h-453v-602h375q21 0 35 -12.5t14 -32.5q0 -19 -14.5 -32
t-34.5 -13h-375v-528q0 -25 -15 -40t-38 -15z" />
    <glyph glyph-name="tbar" unicode="&#x167;" horiz-adv-x="772" 
d="M674 84q21 0 34 -11.5t13 -31.5q0 -35 -43 -47q-55 -14 -125 -14q-146 0 -224.5 76.5t-78.5 219.5v193h-133q-20 0 -33.5 12.5t-13.5 32.5q0 19 13.5 32t33.5 13h133v338h-133q-20 0 -33.5 13.5t-13.5 33.5q0 19 13.5 32t33.5 13h133v242q0 23 15.5 38t37.5 15
t36.5 -15.5t14.5 -37.5v-242h277q20 0 33.5 -13t13.5 -32q0 -20 -13.5 -33.5t-33.5 -13.5h-277v-338h277q20 0 33.5 -13t13.5 -32q0 -20 -13.5 -32.5t-33.5 -12.5h-277v-188q0 -207 215 -207q29 0 63 5t42 5z" />
    <glyph glyph-name="Utilde" unicode="&#x168;" horiz-adv-x="1398" 
d="M440 1540q-20 0 -33.5 15t-13.5 38q0 80 42 131.5t106 51.5q60 0 141 -56l72 -49q27 -18 38 -25t25 -12.5t27 -5.5q65 0 65 88q2 23 14.5 37t32.5 14t34 -15t14 -38q0 -79 -41.5 -130.5t-106.5 -51.5q-59 0 -139 55l-72 49q-27 18 -38 25t-25.5 12.5t-28.5 5.5
q-66 0 -66 -88q-3 -51 -47 -51zM700 -20q-240 0 -380 146t-140 398v793q0 25 15 40t38 15t38.5 -15t15.5 -40v-797q0 -204 110.5 -322t302.5 -118q191 0 301.5 118t110.5 322v797q0 25 15 40t38 15t38.5 -15t15.5 -40v-793q0 -250 -141 -397t-378 -147z" />
    <glyph glyph-name="utilde" unicode="&#x169;" horiz-adv-x="1128" 
d="M705 1235q-73 0 -134 61l-53 52q-30 30 -48 40.5t-38 10.5q-31 0 -48 -23.5t-17 -64.5q0 -24 -13 -39t-32 -15q-22 0 -35 15.5t-13 40.5q0 79 41.5 129.5t104.5 50.5q77 0 135 -61l51 -52q31 -29 48.5 -39t37.5 -10q31 0 48.5 23.5t17.5 64.5q0 23 13.5 38.5t33.5 15.5
t32.5 -16t12.5 -40q0 -79 -41 -130.5t-104 -51.5zM565 -20q-171 0 -280 110.5t-109 284.5v583q0 22 14.5 37t36.5 15q21 0 36.5 -15.5t15.5 -36.5v-587q0 -131 79 -213t207 -82q126 0 205.5 82.5t79.5 212.5v587q0 22 14.5 37t36.5 15t36.5 -15t14.5 -37v-583
q0 -173 -109 -284t-278 -111z" />
    <glyph glyph-name="Umacron" unicode="&#x16a;" horiz-adv-x="1398" 
d="M944 1679q20 0 33.5 -12t13.5 -31q0 -20 -13.5 -32.5t-33.5 -12.5h-491q-20 0 -33.5 12.5t-13.5 32.5q0 19 13.5 31t33.5 12h491zM700 -20q-240 0 -380 146t-140 398v793q0 25 15 40t38 15t38.5 -15t15.5 -40v-797q0 -204 110.5 -322t302.5 -118q191 0 301.5 118
t110.5 322v797q0 25 15 40t38 15t38.5 -15t15.5 -40v-793q0 -250 -141 -397t-378 -147z" />
    <glyph glyph-name="umacron" unicode="&#x16b;" horiz-adv-x="1128" 
d="M793 1413q20 0 32.5 -12t12.5 -31t-12.5 -32t-32.5 -13h-457q-20 0 -33.5 13t-13.5 32t13.5 31t33.5 12h457zM565 -20q-171 0 -280 110.5t-109 284.5v583q0 22 14.5 37t36.5 15q21 0 36.5 -15.5t15.5 -36.5v-587q0 -131 79 -213t207 -82q126 0 205.5 82.5t79.5 212.5v587
q0 22 14.5 37t36.5 15t36.5 -15t14.5 -37v-583q0 -173 -109 -284t-278 -111z" />
    <glyph glyph-name="Ubreve" unicode="&#x16c;" horiz-adv-x="1398" 
d="M698 1516q-117 0 -203.5 76t-86.5 180q0 20 13.5 34.5t33.5 14.5q39 0 45 -49q9 -74 64.5 -121t133.5 -47t134.5 48t62.5 120q6 49 45 49q20 0 33.5 -14.5t13.5 -34.5q0 -104 -86 -180t-203 -76zM700 -20q-240 0 -380 146t-140 398v793q0 25 15 40t38 15t38.5 -15
t15.5 -40v-797q0 -204 110.5 -322t302.5 -118q191 0 301.5 118t110.5 322v797q0 25 15 40t38 15t38.5 -15t15.5 -40v-793q0 -250 -141 -397t-378 -147z" />
    <glyph glyph-name="ubreve" unicode="&#x16d;" horiz-adv-x="1128" 
d="M563 1204q-121 0 -207 83.5t-86 199.5q0 22 13.5 36.5t33.5 14.5q19 0 31.5 -13t13.5 -36q3 -83 60.5 -139t140.5 -56q82 0 139 56t60 139q1 22 14.5 35.5t32.5 13.5t32 -14.5t13 -36.5q0 -117 -85 -200t-206 -83zM565 -20q-171 0 -280 110.5t-109 284.5v583
q0 22 14.5 37t36.5 15q21 0 36.5 -15.5t15.5 -36.5v-587q0 -131 79 -213t207 -82q126 0 205.5 82.5t79.5 212.5v587q0 22 14.5 37t36.5 15t36.5 -15t14.5 -37v-583q0 -173 -109 -284t-278 -111z" />
    <glyph glyph-name="Uring" unicode="&#x16e;" horiz-adv-x="1398" 
d="M696 1868q89 0 151 -60.5t62 -148.5t-62 -148.5t-151 -60.5q-88 0 -149.5 60.5t-61.5 148.5t61.5 148.5t149.5 60.5zM698 1784q-54 0 -89.5 -35.5t-35.5 -89.5q0 -53 35.5 -89t89.5 -36q52 0 87.5 36t35.5 89q0 54 -35 89.5t-88 35.5zM700 -20q-240 0 -380 146t-140 398
v793q0 25 15 40t38 15t38.5 -15t15.5 -40v-797q0 -204 110.5 -322t302.5 -118q191 0 301.5 118t110.5 322v797q0 25 15 40t38 15t38.5 -15t15.5 -40v-793q0 -250 -141 -397t-378 -147z" />
    <glyph glyph-name="uring" unicode="&#x16f;" horiz-adv-x="1128" 
d="M561 1579q89 0 151 -60.5t62 -148.5t-62 -148.5t-151 -60.5q-88 0 -149.5 60.5t-61.5 148.5t61.5 148.5t149.5 60.5zM563 1495q-54 0 -89.5 -35.5t-35.5 -89.5q0 -53 35.5 -89t89.5 -36q52 0 87.5 36t35.5 89q0 54 -36 89.5t-87 35.5zM565 -20q-171 0 -280 110.5
t-109 284.5v583q0 22 14.5 37t36.5 15q21 0 36.5 -15.5t15.5 -36.5v-587q0 -131 79 -213t207 -82q126 0 205.5 82.5t79.5 212.5v587q0 22 14.5 37t36.5 15t36.5 -15t14.5 -37v-583q0 -173 -109 -284t-278 -111z" />
    <glyph glyph-name="Uhungarumlaut" unicode="&#x170;" horiz-adv-x="1398" 
d="M559 1491q-24 1 -36 21.5t-1 41.5l152 295q17 33 51 29q29 -2 41.5 -26.5t-4.5 -55.5l-160 -278q-17 -30 -43 -27zM899 1491q-24 1 -36 21.5t-1 41.5l152 295q17 33 51 29q29 -2 41.5 -26.5t-4.5 -55.5l-160 -278q-17 -30 -43 -27zM700 -20q-240 0 -380 146t-140 398v793
q0 25 15 40t38 15t38.5 -15t15.5 -40v-797q0 -204 110.5 -322t302.5 -118q191 0 301.5 118t110.5 322v797q0 25 15 40t38 15t38.5 -15t15.5 -40v-793q0 -250 -141 -397t-378 -147z" />
    <glyph glyph-name="uhungarumlaut" unicode="&#x171;" horiz-adv-x="1128" 
d="M426 1153q-19 0 -32 12t-13 31q0 10 6 25l154 340q13 32 51 32q20 0 34.5 -14.5t14.5 -34.5q0 -16 -8 -35l-164 -323q-18 -33 -43 -33zM725 1153q-19 0 -32 12t-13 31q0 10 6 25l154 340q13 32 51 32q20 0 34.5 -14.5t14.5 -34.5q0 -16 -8 -35l-164 -323q-18 -33 -43 -33
zM565 -20q-171 0 -280 110.5t-109 284.5v583q0 22 14.5 37t36.5 15q21 0 36.5 -15.5t15.5 -36.5v-587q0 -131 79 -213t207 -82q126 0 205.5 82.5t79.5 212.5v587q0 22 14.5 37t36.5 15t36.5 -15t14.5 -37v-583q0 -173 -109 -284t-278 -111z" />
    <glyph glyph-name="Uogonek" unicode="&#x172;" horiz-adv-x="1398" 
d="M885 -389q-92 0 -148.5 45t-56.5 119q0 54 44 114.5t122 116.5q-67 -26 -146 -26q-240 0 -380 146t-140 398v793q0 25 15 40t38 15t38.5 -15t15.5 -40v-797q0 -204 110.5 -322t302.5 -118q188 0 300 119t112 321v797q0 25 15 40t38 15t38.5 -15t15.5 -40v-793
q0 -270 -175 -428l-77 -69q-12 -11 -45 -41t-45 -42t-35 -36.5t-32 -40t-17.5 -37t-8.5 -41.5q0 -43 31 -67.5t86 -24.5q25 0 55 5t33 5q18 0 28.5 -10.5t10.5 -28.5q0 -32 -39 -43q-47 -14 -104 -14z" />
    <glyph glyph-name="uogonek" unicode="&#x173;" horiz-adv-x="1128" 
d="M901 1010q22 0 36.5 -15t14.5 -37v-583q0 -100 -38.5 -183.5t-108.5 -136.5l-96 -78q-142 -112 -142 -188q0 -42 33 -67t88 -25q25 0 55 5t33 5q17 0 28 -11t11 -28q0 -34 -41 -43q-41 -14 -102 -14q-89 0 -148 44t-59 120q0 49 28.5 97.5t98.5 107.5h-27
q-171 0 -280 110.5t-109 284.5v583q0 22 14.5 37t36.5 15q21 0 36.5 -15.5t15.5 -36.5v-587q0 -131 79 -213t207 -82q126 0 205.5 82.5t79.5 212.5v587q0 22 14.5 37t36.5 15z" />
    <glyph glyph-name="Wcircumflex" unicode="&#x174;" horiz-adv-x="2195" 
d="M821 1479q-17 0 -29 12t-12 31q0 15 15 30l270 281q14 14 33 14q14 0 32 -14l269 -281q14 -14 14 -30q0 -19 -12 -31t-29 -12t-33 16l-241 240l-244 -240q-16 -16 -33 -16zM2028 1372q23 0 38 -14t15 -35q0 -16 -8 -35l-451 -1272q-13 -36 -53 -36q-37 0 -53 36
l-418 1180l-418 -1178q-12 -38 -53 -38q-42 0 -54 38l-450 1270q-8 19 -8 35q0 22 15 35.5t38 13.5q39 0 51 -37l410 -1181l418 1179q14 39 53 39q37 0 49 -39l420 -1179l407 1181q12 37 52 37z" />
    <glyph glyph-name="wcircumflex" unicode="&#x175;" horiz-adv-x="1728" 
d="M614 1153q-18 0 -30.5 12.5t-12.5 30.5q0 20 11 31l241 348q15 18 41 18q24 0 39 -18l242 -348q12 -12 12 -31t-13 -31t-32 -12q-24 0 -35 18l-213 295l-213 -295q-11 -18 -37 -18zM1610 1010q20 0 35.5 -15t15.5 -37q0 -7 -6 -22l-363 -926q-12 -30 -49 -30
q-34 0 -47 30l-332 817l-332 -817q-13 -30 -47 -30t-49 30l-362 926q-4 10 -4 22q0 22 14.5 37t36.5 15q15 0 28.5 -9.5t18.5 -23.5l319 -827l328 825q6 15 20 25t29 10q35 0 49 -35l328 -828l320 830q15 33 49 33z" />
    <glyph glyph-name="Ycircumflex" unicode="&#x176;" horiz-adv-x="1255" 
d="M346 1479q-17 0 -29 12t-12 31q0 16 14 30l271 281q14 14 33 14q15 0 32 -14l269 -281q14 -14 14 -30q0 -19 -12 -31t-29 -12t-33 16l-241 240l-244 -240q-16 -16 -33 -16zM1141 1323q0 -18 -15 -39l-446 -727v-522q0 -25 -15 -40t-38 -15t-38.5 15t-15.5 40v526
l-444 721q-14 25 -14 41q0 22 15 35.5t38 13.5q30 0 47 -29l414 -677l411 677q17 29 50 29q23 0 37 -13.5t14 -35.5z" />
    <glyph glyph-name="ycircumflex" unicode="&#x177;" horiz-adv-x="1081" 
d="M287 1153q-18 0 -30.5 12.5t-12.5 30.5q0 21 10 31l242 348q15 18 41 18q23 0 38 -18l242 -348q12 -12 12 -31t-13 -31t-32 -12q-23 0 -34 18l-213 295l-213 -295q-11 -18 -37 -18zM963 1010q21 0 36 -15t15 -37q0 -7 -6 -22l-480 -1077q-112 -248 -335 -248q-51 0 -87 8
q-40 10 -40 47q0 20 14 33.5t33 13.5q7 0 32 -4t39 -4q168 0 248 180l57 133l-405 916q-6 15 -6 24q0 22 14.5 37t36.5 15q37 0 49 -35l369 -832l364 832q12 35 52 35z" />
    <glyph glyph-name="Ydieresis" unicode="&#x178;" horiz-adv-x="1255" 
d="M391 1569q-36 0 -61 25t-25 61t25 60t61 24q37 0 62.5 -24t25.5 -60q0 -37 -25.5 -61.5t-62.5 -24.5zM854 1569q-35 0 -60.5 24.5t-25.5 59.5q0 36 25 61t61 25q37 0 62.5 -24.5t25.5 -61.5q0 -35 -25.5 -59.5t-62.5 -24.5zM1141 1323q0 -18 -15 -39l-446 -727v-522
q0 -25 -15 -40t-38 -15t-38.5 15t-15.5 40v526l-444 721q-14 25 -14 41q0 22 15 35.5t38 13.5q30 0 47 -29l414 -677l411 677q17 29 50 29q23 0 37 -13.5t14 -35.5z" />
    <glyph glyph-name="Zacute" unicode="&#x179;" horiz-adv-x="1208" 
d="M635 1491q-24 1 -36 21.5t-1 41.5l152 295q17 33 51 29q29 -2 41.5 -26.5t-4.5 -55.5l-160 -278q-17 -30 -43 -27zM1087 96q21 0 35.5 -13.5t14.5 -33.5t-15 -34.5t-35 -14.5h-960q-20 0 -34.5 13.5t-14.5 33.5q0 15 16 39l887 1169h-770q-21 0 -35 14.5t-14 35.5
q0 20 13.5 33.5t35.5 13.5h868q20 0 34.5 -13.5t14.5 -33.5q0 -15 -16 -37l-887 -1172h862z" />
    <glyph glyph-name="zacute" unicode="&#x17a;" horiz-adv-x="921" 
d="M504 1153q-19 0 -32 12t-13 31q0 10 6 25l153 340q13 32 52 32q20 0 34.5 -14.5t14.5 -34.5q0 -16 -8 -35l-164 -323q-18 -33 -43 -33zM813 94q20 0 33.5 -13.5t13.5 -33.5t-13.5 -33.5t-33.5 -13.5h-696q-20 0 -34.5 13.5t-14.5 33.5q0 17 22 45l612 803h-544
q-20 0 -33.5 13.5t-13.5 33.5t13.5 33.5t33.5 13.5h641q20 0 33.5 -13.5t13.5 -33.5t-21 -45l-614 -803h602z" />
    <glyph glyph-name="Zdotaccent" unicode="&#x17b;" horiz-adv-x="1208" 
d="M612 1567q-37 0 -62.5 25.5t-25.5 62.5t25.5 61.5t62.5 24.5t62.5 -24.5t25.5 -61.5t-25.5 -62.5t-62.5 -25.5zM1087 96q21 0 35.5 -13.5t14.5 -33.5t-15 -34.5t-35 -14.5h-960q-20 0 -34.5 13.5t-14.5 33.5q0 15 16 39l887 1169h-770q-21 0 -35 14.5t-14 35.5
q0 20 13.5 33.5t35.5 13.5h868q20 0 34.5 -13.5t14.5 -33.5q0 -15 -16 -37l-887 -1172h862z" />
    <glyph glyph-name="zdotaccent" unicode="&#x17c;" horiz-adv-x="921" 
d="M481 1282q-37 0 -62.5 25.5t-25.5 62.5t25.5 62.5t62.5 25.5t62.5 -25.5t25.5 -62.5t-25.5 -62.5t-62.5 -25.5zM813 94q20 0 33.5 -13.5t13.5 -33.5t-13.5 -33.5t-33.5 -13.5h-696q-20 0 -34.5 13.5t-14.5 33.5q0 17 22 45l612 803h-544q-20 0 -33.5 13.5t-13.5 33.5
t13.5 33.5t33.5 13.5h641q20 0 33.5 -13.5t13.5 -33.5t-21 -45l-614 -803h602z" />
    <glyph glyph-name="Zcaron" unicode="&#x17d;" horiz-adv-x="1208" 
d="M580 1493l-271 281q-14 14 -14 30q0 19 12 31t29 12t33 -16l243 -240l242 240q16 16 33 16t29 -12t12 -31q0 -15 -15 -30l-268 -281q-17 -14 -33 -14q-18 0 -32 14zM1087 96q21 0 35.5 -13.5t14.5 -33.5t-15 -34.5t-35 -14.5h-960q-20 0 -34.5 13.5t-14.5 33.5
q0 15 16 39l887 1169h-770q-21 0 -35 14.5t-14 35.5q0 20 13.5 33.5t35.5 13.5h868q20 0 34.5 -13.5t14.5 -33.5q0 -15 -16 -37l-887 -1172h862z" />
    <glyph glyph-name="zcaron" unicode="&#x17e;" horiz-adv-x="921" 
d="M440 1171l-241 349q-11 11 -11 30q0 18 12.5 30.5t30.5 12.5q26 0 37 -18l213 -295l213 295q11 18 35 18q19 0 32 -12t13 -31q0 -18 -12 -30l-242 -349q-15 -18 -39 -18q-26 0 -41 18zM813 94q20 0 33.5 -13.5t13.5 -33.5t-13.5 -33.5t-33.5 -13.5h-696q-20 0 -34.5 13.5
t-14.5 33.5q0 17 22 45l612 803h-544q-20 0 -33.5 13.5t-13.5 33.5t13.5 33.5t33.5 13.5h641q20 0 33.5 -13.5t13.5 -33.5t-21 -45l-614 -803h602z" />
    <glyph glyph-name="uni018F" unicode="&#x18f;" horiz-adv-x="1550" 
d="M717 1372q139 0 263 -54t213 -146t141 -220t52 -272q0 -193 -89 -353.5t-244.5 -253.5t-341.5 -93q-261 0 -431.5 169.5t-170.5 428.5q0 32 4 67q3 25 17 39t34 14h1112q-3 121 -47 228t-118 183.5t-177 120.5t-219 44q-132 0 -251 -56.5t-200 -158.5q-26 -33 -49 -33
q-22 0 -35.5 13.5t-13.5 35.5q0 16 20 45q98 122 235.5 187t295.5 65zM715 80q219 0 375 147.5t182 374.5h-1055q-12 -225 129.5 -373.5t368.5 -148.5z" />
    <glyph glyph-name="florin" unicode="&#x192;" horiz-adv-x="899" 
d="M774 1372q60 0 88.5 -10t28.5 -41q0 -45 -47 -45q-8 0 -24.5 1t-28.5 1q-101 0 -156.5 -45.5t-69.5 -161.5l-33 -264h187q20 0 33.5 -13.5t13.5 -33.5t-13.5 -33.5t-33.5 -13.5h-199l-84 -688q-38 -297 -311 -297q-113 0 -113 51q0 20 13.5 33.5t33.5 13.5q9 0 27.5 -2
t34.5 -2q89 0 144 47t69 160l84 684h-121q-20 0 -34.5 13.5t-14.5 33.5t14.5 33.5t34.5 13.5h133l33 268q35 297 311 297z" />
    <glyph glyph-name="uni01D4" unicode="&#x1d4;" horiz-adv-x="1128" 
d="M522 1171l-241 349q-11 11 -11 30q0 18 12.5 30.5t30.5 12.5q26 0 37 -18l213 -295l213 295q11 18 35 18q19 0 32 -12t13 -31q0 -18 -12 -30l-242 -349q-15 -18 -39 -18q-26 0 -41 18zM901 1010q22 0 36.5 -15t14.5 -37v-583q0 -173 -109 -284t-278 -111
q-171 0 -280 110.5t-109 284.5v583q0 22 14.5 37t36.5 15q21 0 36.5 -15.5t15.5 -36.5v-587q0 -131 79 -213t207 -82q126 0 205.5 82.5t79.5 212.5v587q0 22 14.5 37t36.5 15z" />
    <glyph glyph-name="AEacute" unicode="&#x1fc;" horiz-adv-x="1652" 
d="M848 1491q-24 1 -36 21.5t-1 41.5l152 295q17 33 51 29q29 -2 41.5 -26.5t-4.5 -55.5l-160 -278q-17 -30 -43 -27zM1528 96q20 0 34.5 -13.5t14.5 -33.5t-14.5 -34.5t-34.5 -14.5h-510q-22 0 -36 12.5t-17 32.5l-50 279h-596l-161 -306q-20 -38 -52 -38q-22 0 -36.5 13.5
t-14.5 33.5q0 12 8 28l660 1264q17 33 51 33h729q20 0 34.5 -13.5t14.5 -33.5t-14.5 -35t-34.5 -15h-641l84 -477h393q21 0 35.5 -13.5t14.5 -33.5t-15 -34.5t-35 -14.5h-376l102 -586h463zM766 1194l-397 -774h530z" />
    <glyph glyph-name="aeacute" unicode="&#x1fd;" horiz-adv-x="1847" 
d="M901 1153q-19 0 -32 12t-13 31q0 10 6 25l154 340q13 32 51 32q20 0 34.5 -14.5t14.5 -34.5q0 -16 -8 -35l-164 -323q-18 -33 -43 -33zM1288 1010q198 0 321.5 -128t123.5 -335v-25q0 -69 -64 -69h-770q14 -165 127.5 -271t278.5 -106q86 0 165 33.5t136 93.5
q20 20 39 20q20 0 32.5 -13.5t12.5 -33.5q0 -22 -25 -47q-137 -149 -360 -149q-146 0 -265.5 72.5t-183.5 195.5q-43 -123 -153.5 -195.5t-258.5 -72.5q-155 0 -249.5 77.5t-94.5 204.5q0 128 93.5 204.5t250.5 76.5h344v82q0 135 -71.5 211.5t-198.5 76.5q-156 0 -274 -133
q-17 -20 -41 -20q-19 0 -33 13t-14 32q0 23 20 45q133 160 348 160q132 0 221 -63t123 -179q66 111 177 176.5t243 65.5zM899 543h729q6 161 -90.5 266.5t-251.5 105.5t-263.5 -105t-123.5 -267zM455 70q138 0 235.5 87.5t97.5 211.5v84h-333q-121 0 -184.5 -46.5
t-63.5 -134.5q0 -92 67.5 -147t180.5 -55z" />
    <glyph glyph-name="Oslashacute" unicode="&#x1fe;" horiz-adv-x="1605" 
d="M825 1491q-24 1 -36 21.5t-1 41.5l152 295q17 33 51 29q29 -2 41.5 -26.5t-4.5 -55.5l-160 -278q-17 -30 -43 -27zM1485 1290l-156 -155q166 -196 166 -459q0 -143 -54 -272t-146.5 -222t-221.5 -147.5t-272 -54.5q-263 0 -457 170l-154 -154q-16 -16 -38 -16
q-19 0 -32.5 12.5t-13.5 32.5q0 21 17 38l153 154q-165 195 -165 459q0 193 90.5 352.5t249.5 251.5t350 92q264 0 461 -170l153 154q16 16 39 16q19 0 32 -12.5t13 -32.5t-14 -37zM219 678q0 -228 131 -387l840 839q-159 146 -387 146q-123 0 -231 -46t-185.5 -125
t-122.5 -190t-45 -237zM1386 678q0 220 -131 383l-839 -840q158 -145 387 -145q163 0 296.5 78.5t210 217t76.5 306.5z" />
    <glyph glyph-name="oslashacute" unicode="&#x1ff;" horiz-adv-x="1280" 
d="M664 1153q-19 0 -32.5 12.5t-13.5 30.5q0 8 7 25l153 340q13 32 51 32q20 0 35 -14.5t15 -34.5q0 -14 -9 -35l-163 -323q-18 -33 -43 -33zM1145 934l-111 -111q117 -139 117 -329q0 -140 -68.5 -258.5t-187 -187t-258.5 -68.5q-188 0 -328 118l-108 -110q-19 -19 -37 -19
q-20 0 -33.5 14.5t-13.5 34.5q0 21 16 37l111 109q-117 142 -117 330q0 216 149 366t363 150q185 0 330 -119l108 110q22 19 39 19q19 0 33 -14.5t14 -34.5q0 -19 -18 -37zM639 918q-175 0 -292.5 -122t-117.5 -302q0 -149 84 -263l590 590q-111 97 -264 97zM637 72
q175 0 293.5 121.5t118.5 300.5q0 148 -84 262l-590 -590q112 -94 262 -94z" />
    <glyph glyph-name="Scommaaccent" unicode="&#x218;" horiz-adv-x="1138" 
d="M580 -20q-136 0 -255 63.5t-202 181.5q-12 15 -12 35t14.5 34.5t34.5 14.5q24 0 45 -24q143 -205 377 -205q138 0 222.5 70.5t84.5 185.5q0 93 -52 151t-198 127l-154 74q-161 77 -230 157.5t-69 192.5q0 152 112.5 243t281.5 91q111 0 206 -43t162 -125q19 -22 19 -43
q0 -19 -14.5 -33t-34.5 -14q-22 0 -39 21q-121 139 -299 139q-75 0 -137 -23t-104 -77t-42 -130q0 -86 50.5 -141t189.5 -121l151 -73q172 -82 241.5 -165t69.5 -206q0 -158 -116.5 -258t-302.5 -100zM553 -451q-20 0 -33 14t-12 34q1 5 6.5 34t9.5 53t7.5 70t3.5 96
q0 22 15.5 37t37.5 15t36.5 -15t14.5 -37q0 -135 -39 -256q-15 -45 -47 -45z" />
    <glyph glyph-name="scommaaccent" unicode="&#x219;" horiz-adv-x="931" 
d="M473 -20q-115 0 -208.5 51t-155.5 135q-15 19 -15 35q0 20 15.5 35.5t35.5 15.5q23 0 39 -19q125 -157 289 -157q95 0 159 45t64 129q0 23 -6 43.5t-14 35.5t-25.5 30.5t-29.5 25t-39 23.5t-41 20.5t-47 20.5l-91 38q-56 24 -95 46.5t-75.5 54t-54.5 72.5t-18 92
q0 119 92 188.5t223 69.5q181 0 301 -138q19 -19 19 -36q0 -20 -13 -35t-32 -15t-45 23q-96 104 -236 104q-85 0 -143 -39t-58 -116q0 -34 12 -59.5t39.5 -46.5t56.5 -36t79 -36l92 -41q62 -27 105 -52.5t79 -59t54 -76.5t18 -97q0 -87 -47.5 -151t-120.5 -93.5t-162 -29.5z
M457 -451q-20 0 -33 14t-12 34q1 3 6.5 33.5t9 53.5t7 69.5t3.5 96.5q0 22 16 37t38 15t36.5 -15t14.5 -37q0 -135 -39 -256q-15 -45 -47 -45z" />
    <glyph glyph-name="uni021A" unicode="&#x21a;" horiz-adv-x="1193" 
d="M596 -20q-23 0 -38 15t-15 40v1220h-451q-20 0 -34.5 15t-14.5 35t14.5 33.5t34.5 13.5h1010q20 0 34.5 -13.5t14.5 -33.5t-14.5 -35t-34.5 -15h-453v-1220q0 -25 -15 -40t-38 -15zM561 -451q-20 0 -33 14t-12 34q1 5 6.5 34t9.5 53t7.5 70t3.5 96q0 22 15.5 37t37.5 15
t36.5 -15t14.5 -37q0 -135 -39 -256q-15 -45 -47 -45z" />
    <glyph glyph-name="uni021B" unicode="&#x21b;" horiz-adv-x="743" 
d="M653 84q21 0 34 -11.5t13 -31.5q0 -38 -43 -47q-55 -14 -125 -14q-146 0 -224.5 76.5t-78.5 219.5v619h-129q-20 0 -34.5 13.5t-14.5 33.5t14.5 33.5t34.5 13.5h129v242q0 23 16 38t38 15t36.5 -15.5t14.5 -37.5v-242h276q20 0 34.5 -13.5t14.5 -33.5t-14.5 -33.5
t-34.5 -13.5h-276v-614q0 -207 215 -207q29 0 62.5 5t41.5 5zM446 -98q22 0 37 -15t15 -37q0 -135 -39 -256q-15 -45 -47 -45q-20 0 -33 14t-12 34q1 3 6.5 33.5t9 53.5t7 69.5t3.5 96.5q0 22 15.5 37t37.5 15z" />
    <glyph glyph-name="uni0237" unicode="&#x237;" horiz-adv-x="483" 
d="M-8 -389q-40 0 -78 6q-47 10 -47 49q0 19 13.5 32t33.5 13q5 0 27 -3t41 -3q208 0 208 207v1046q0 22 14.5 37t37.5 15q22 0 36.5 -15t14.5 -37v-1050q0 -153 -81.5 -225t-219.5 -72z" />
    <glyph glyph-name="uni0259" unicode="&#x259;" horiz-adv-x="1171" 
d="M543 1010q218 0 366 -148.5t148 -365.5q0 -143 -66 -261.5t-180 -186.5t-250 -68q-195 0 -320.5 126.5t-125.5 321.5v25q0 67 63 67h772q-9 171 -123 282t-284 111q-86 0 -165 -33.5t-136 -93.5q-20 -20 -39 -20q-20 0 -32.5 13.5t-12.5 33.5q0 23 24 47q150 150 361 150
zM561 74q149 0 256 99t129 253h-727q-2 -153 93.5 -252.5t248.5 -99.5z" />
    <glyph glyph-name="circumflex" unicode="&#x2c6;" horiz-adv-x="739" 
d="M651 1227q13 -13 13 -31t-13.5 -30.5t-32.5 -12.5q-23 0 -34 18l-213 295l-213 -295q-11 -18 -37 -18q-18 0 -30.5 12.5t-12.5 30.5q0 21 10 31l242 348q15 18 41 18q24 0 39 -18z" />
    <glyph glyph-name="caron" unicode="&#x2c7;" horiz-adv-x="739" 
d="M618 1593q19 0 32.5 -12.5t13.5 -30.5q0 -17 -13 -30l-241 -349q-15 -18 -39 -18q-26 0 -41 18l-242 349q-10 10 -10 30q0 18 12.5 30.5t30.5 12.5q26 0 37 -18l213 -295l213 295q11 18 34 18z" />
    <glyph glyph-name="breve" unicode="&#x2d8;" horiz-adv-x="706" 
d="M354 1204q-121 0 -207 83.5t-86 199.5q0 22 14 36.5t34 14.5q19 0 31.5 -13t13.5 -36q3 -83 60 -139t140 -56q82 0 139 56t60 139q1 22 14.5 35.5t32.5 13.5t32 -14.5t13 -36.5q0 -117 -85 -200t-206 -83z" />
    <glyph glyph-name="dotaccent" unicode="&#x2d9;" horiz-adv-x="303" 
d="M152 1458q37 0 62.5 -25.5t25.5 -62.5t-25.5 -62.5t-62.5 -25.5t-63 25.5t-26 62.5t26 62.5t63 25.5z" />
    <glyph glyph-name="ring" unicode="&#x2da;" horiz-adv-x="546" 
d="M272 1579q89 0 151 -60.5t62 -148.5t-62 -148.5t-151 -60.5q-88 0 -149.5 60.5t-61.5 148.5t61.5 148.5t149.5 60.5zM274 1495q-54 0 -89 -35.5t-35 -89.5q0 -53 35 -89t89 -36q52 0 87.5 36t35.5 89q0 54 -35.5 89.5t-87.5 35.5z" />
    <glyph glyph-name="ogonek" unicode="&#x2db;" horiz-adv-x="462" 
d="M252 -389q-88 0 -146.5 45.5t-58.5 124.5q0 68 51 122t176 126q44 32 72 32q13 0 23 -10t10 -22q0 -26 -31 -47q-109 -65 -153.5 -106.5t-44.5 -86.5q0 -40 31.5 -65t86.5 -25q27 0 56.5 4t33.5 4q17 0 28 -11t11 -30q0 -32 -41 -41q-41 -14 -104 -14z" />
    <glyph glyph-name="tilde" unicode="&#x2dc;" horiz-adv-x="698" 
d="M492 1235q-73 0 -134 61l-53 52q-30 30 -48 40.5t-38 10.5q-31 0 -48 -23.5t-17 -64.5q0 -24 -13 -39t-32 -15q-22 0 -35 15.5t-13 40.5q0 79 41.5 129.5t104.5 50.5q77 0 135 -61l51 -52q31 -29 48.5 -39t37.5 -10q31 0 48.5 23.5t17.5 64.5q0 23 13.5 38.5t33.5 15.5
t32.5 -16t12.5 -40q0 -79 -41 -130.5t-104 -51.5z" />
    <glyph glyph-name="hungarumlaut" unicode="&#x2dd;" horiz-adv-x="727" 
d="M150 1153q-19 0 -32.5 12.5t-13.5 30.5q0 8 7 25l153 340q13 32 51 32q20 0 35 -14.5t15 -34.5q0 -14 -9 -35l-163 -323q-18 -33 -43 -33zM449 1153q-19 0 -32.5 12.5t-13.5 30.5q0 8 7 25l153 340q13 32 51 32q20 0 35 -14.5t15 -34.5q0 -14 -9 -35l-163 -323
q-18 -33 -43 -33z" />
    <glyph glyph-name="uni030C" unicode="&#x30c;" horiz-adv-x="0" 
d="M-168 1087q-21 0 -34.5 17t-10.5 41l47 358q3 26 18 39.5t37 13.5q24 0 41 -17.5t11 -47.5l-64 -365q-2 -13 -14 -26t-31 -13z" />
    <glyph glyph-name="uni0326" unicode="&#x326;" horiz-adv-x="0" 
d="M-150 -451q-20 0 -33 14t-12 34q1 5 6.5 34t9.5 53t7.5 70t3.5 96q0 22 15.5 37t37.5 15t37 -15t15 -37q0 -135 -39 -256q-15 -45 -48 -45z" />
    <glyph glyph-name="dieresistonos" unicode="&#x385;" horiz-adv-x="888" 
d="M424 1153q-19 0 -33.5 13t-11.5 32l43 361q3 23 17 37t36 14q23 0 39 -17.5t12 -44.5l-57 -344q-9 -51 -45 -51zM168 1284q-35 0 -61.5 25.5t-26.5 60.5q0 36 26 62t62 26q37 0 63.5 -25.5t26.5 -62.5q0 -35 -26.5 -60.5t-63.5 -25.5zM721 1284q-37 0 -62.5 25.5
t-25.5 60.5q0 37 25.5 62.5t62.5 25.5t62.5 -25.5t25.5 -62.5q0 -35 -25.5 -60.5t-62.5 -25.5z" />
    <glyph glyph-name="Alphatonos" unicode="&#x386;" horiz-adv-x="1361" 
d="M133 1026q-21 0 -34.5 16.5t-10.5 40.5l47 359q3 26 18 39.5t37 13.5q24 0 41 -17.5t11 -47.5l-64 -365q-2 -13 -14 -26t-31 -13zM1264 63q10 -20 10 -36q0 -19 -15.5 -33t-35.5 -14q-38 0 -52 36l-131 306h-723l-127 -306q-14 -36 -51 -36q-21 0 -36 14t-15 33
q0 15 8 36l535 1272q15 37 51 37q37 0 49 -37zM680 1212l-322 -794h641z" />
    <glyph glyph-name="Epsilontonos" unicode="&#x388;" horiz-adv-x="1153" 
d="M-106 1026q-21 0 -35 16.5t-11 40.5l48 359q3 26 18 39.5t37 13.5q24 0 40.5 -17.5t10.5 -47.5l-63 -365q-2 -13 -14 -26t-31 -13zM252 0q-23 0 -37 14.5t-14 36.5v1249q0 22 14 37t37 15h752q20 0 34.5 -13.5t14.5 -33.5t-14.5 -35t-34.5 -15h-697v-477h533
q20 0 34.5 -13.5t14.5 -33.5t-14.5 -34.5t-34.5 -14.5h-533v-586h721q20 0 34.5 -13.5t14.5 -33.5t-14.5 -34.5t-34.5 -14.5h-776z" />
    <glyph glyph-name="Etatonos" unicode="&#x389;" horiz-adv-x="1445" 
d="M-106 1026q-21 0 -35 16.5t-11 40.5l48 359q3 26 18 39.5t37 13.5q24 0 40.5 -17.5t10.5 -47.5l-63 -365q-2 -13 -14 -26t-31 -13zM254 -20q-23 0 -38 15t-15 38v1286q0 23 15 38t38 15q22 0 37.5 -15t15.5 -38v-541h832v541q0 23 15 38t38 15t38 -15t15 -38v-1286
q0 -23 -15 -38t-38 -15t-38 15t-15 38v649h-832v-649q0 -23 -15.5 -38t-37.5 -15z" />
    <glyph glyph-name="Iotatonos" unicode="&#x38a;" horiz-adv-x="505" 
d="M-106 1026q-21 0 -35 16.5t-11 40.5l48 359q3 26 18 39.5t37 13.5q24 0 40.5 -17.5t10.5 -47.5l-63 -365q-2 -13 -14 -26t-31 -13zM254 -20q-23 0 -38 15t-15 40v1282q0 25 15 40t38 15q22 0 37.5 -15.5t15.5 -39.5v-1282q0 -24 -15.5 -39.5t-37.5 -15.5z" />
    <glyph glyph-name="Omicrontonos" unicode="&#x38c;" horiz-adv-x="1603" 
d="M-27 1026q-21 0 -34.5 16.5t-10.5 40.5l47 359q3 26 18.5 39.5t37.5 13.5q24 0 40.5 -17.5t10.5 -47.5l-64 -365q-2 -13 -14 -26t-31 -13zM801 1372q143 0 271.5 -54t221 -147t147 -222t54.5 -273q0 -143 -54.5 -272.5t-147 -222t-221 -147t-271.5 -54.5q-191 0 -350 92
t-250.5 252t-91.5 352q0 144 54 273t146 222t220.5 147t271.5 54zM803 1274q-123 0 -231 -46t-185 -125t-121.5 -189.5t-44.5 -235.5q0 -169 76 -306t209 -214.5t297 -77.5q162 0 294.5 78t208.5 215.5t76 304.5t-76 303.5t-208.5 214.5t-294.5 78z" />
    <glyph glyph-name="Upsilontonos" unicode="&#x38e;" horiz-adv-x="1255" 
d="M-139 1495q24 0 40.5 -17.5t10.5 -47.5l-64 -365q-2 -13 -14 -26t-31 -13q-21 0 -34.5 16.5t-10.5 40.5l47 359q3 26 18.5 39.5t37.5 13.5zM1141 1323q0 -18 -15 -39l-446 -727v-522q0 -25 -15 -40t-38 -15t-38.5 15t-15.5 40v526l-444 721q-14 25 -14 41q0 22 15 35.5
t38 13.5q30 0 47 -29l414 -677l411 677q17 29 50 29q23 0 37 -13.5t14 -35.5z" />
    <glyph glyph-name="Omegatonos" unicode="&#x38f;" horiz-adv-x="1624" 
d="M33 1495q24 0 40.5 -17.5t10.5 -47.5l-64 -365q-2 -13 -14 -26t-31 -13q-21 0 -34.5 16.5t-10.5 40.5l47 359q3 26 18.5 39.5t37.5 13.5zM1442 96q22 0 36.5 -13.5t14.5 -33.5t-14.5 -34.5t-36.5 -14.5h-445q-23 0 -40 16t-17 39q0 34 33 51q420 208 420 590
q0 164 -75 296t-208 207t-299 75t-298.5 -74.5t-207 -206t-74.5 -295.5q0 -191 106.5 -341t313.5 -251q33 -20 33 -51q0 -23 -17 -39t-42 -16h-445q-20 0 -34.5 14.5t-14.5 34.5t14.5 33.5t34.5 13.5h309q-370 233 -370 602q0 141 53 266.5t144.5 214.5t220 141t274.5 52
q193 0 352 -88t250.5 -243t91.5 -343q0 -183 -92.5 -331t-284.5 -271h314z" />
    <glyph glyph-name="iotadieresistonos" unicode="&#x390;" horiz-adv-x="555" 
d="M217 1153q-19 0 -33.5 13t-11.5 32l43 361q3 23 17 37t36 14q23 0 39 -17.5t12 -44.5l-57 -344q-9 -51 -45 -51zM-39 1284q-35 0 -61.5 25.5t-26.5 60.5q0 36 26 62t62 26q37 0 63.5 -25.5t26.5 -62.5q0 -35 -26.5 -60.5t-63.5 -25.5zM514 1284q-37 0 -62.5 25.5
t-25.5 60.5q0 37 25.5 62.5t62.5 25.5t62.5 -25.5t25.5 -62.5q0 -35 -25.5 -60.5t-62.5 -25.5zM412 -20q-113 0 -171.5 68.5t-58.5 201.5v708q0 22 15.5 37t38.5 15q20 0 35.5 -15t15.5 -37v-704q0 -180 139 -180q13 0 25.5 1t15.5 1q23 0 37 -12.5t14 -32.5q0 -31 -33 -45
q-20 -6 -73 -6z" />
    <glyph glyph-name="Alpha" unicode="&#x391;" horiz-adv-x="1361" 
d="M1264 63q10 -20 10 -36q0 -19 -15.5 -33t-35.5 -14q-38 0 -52 36l-131 306h-723l-127 -306q-14 -36 -51 -36q-21 0 -36 14t-15 33q0 15 8 36l535 1272q15 37 51 37q37 0 49 -37zM680 1212l-322 -794h641z" />
    <glyph glyph-name="Beta" unicode="&#x392;" horiz-adv-x="1255" 
d="M868 748q136 -32 212.5 -127.5t76.5 -235.5q0 -175 -114.5 -280t-305.5 -105h-481q-24 0 -39.5 15.5t-15.5 39.5v1241q0 24 15.5 40t39.5 16h403q166 0 265.5 -89.5t99.5 -240.5q0 -91 -41 -161.5t-115 -112.5zM649 1257l-342 -2v-479h342q123 0 193.5 64t70.5 176
q0 114 -69.5 177.5t-194.5 63.5zM727 96q148 0 235 78.5t87 212.5t-87 213.5t-235 79.5h-420v-584h420z" />
    <glyph glyph-name="Gamma" unicode="&#x393;" horiz-adv-x="1021" 
d="M254 -20q-23 0 -38 15t-15 40v1261q0 24 15.5 40t39.5 16h672q22 0 36.5 -13.5t14.5 -33.5q0 -21 -14.5 -35.5t-36.5 -14.5h-621v-1220q0 -24 -15.5 -39.5t-37.5 -15.5z" />
    <glyph glyph-name="uni0394" unicode="&#x394;" horiz-adv-x="1361" 
d="M1264 84q10 -18 10 -35q0 -20 -15.5 -34.5t-35.5 -14.5h-1084q-22 0 -36.5 14.5t-14.5 34.5q0 16 8 35l535 1251q15 37 51 37q34 0 49 -37zM682 1214l-467 -1118h932z" />
    <glyph glyph-name="Epsilon" unicode="&#x395;" horiz-adv-x="1153" 
d="M252 0q-23 0 -37 14.5t-14 36.5v1249q0 22 14 37t37 15h752q20 0 34.5 -13.5t14.5 -33.5t-14.5 -35t-34.5 -15h-697v-477h533q20 0 34.5 -13.5t14.5 -33.5t-14.5 -34.5t-34.5 -14.5h-533v-586h721q20 0 34.5 -13.5t14.5 -33.5t-14.5 -34.5t-34.5 -14.5h-776z" />
    <glyph glyph-name="Zeta" unicode="&#x396;" horiz-adv-x="1208" 
d="M1087 96q21 0 35.5 -13.5t14.5 -33.5t-15 -34.5t-35 -14.5h-960q-20 0 -34.5 13.5t-14.5 33.5q0 15 16 39l887 1169h-770q-21 0 -35 14.5t-14 35.5q0 20 13.5 33.5t35.5 13.5h868q20 0 34.5 -13.5t14.5 -33.5q0 -15 -16 -37l-887 -1172h862z" />
    <glyph glyph-name="Eta" unicode="&#x397;" horiz-adv-x="1445" 
d="M254 -20q-23 0 -38 15t-15 38v1286q0 23 15 38t38 15q22 0 37.5 -15t15.5 -38v-541h832v541q0 23 15 38t38 15t38 -15t15 -38v-1286q0 -23 -15 -38t-38 -15t-38 15t-15 38v649h-832v-649q0 -23 -15.5 -38t-37.5 -15z" />
    <glyph glyph-name="Theta" unicode="&#x398;" horiz-adv-x="1603" 
d="M801 1372q143 0 271.5 -54t221 -147t147 -222t54.5 -273q0 -143 -54.5 -272.5t-147 -222t-221 -147t-271.5 -54.5q-191 0 -350 92t-250.5 252t-91.5 352q0 144 54 273t146 222t220.5 147t271.5 54zM801 1276q-123 0 -231 -46t-185.5 -125t-122.5 -190t-45 -237
q0 -169 76.5 -307.5t210 -216.5t297.5 -78q123 0 231.5 46.5t186 126t122.5 191.5t45 238t-45 237t-122 190t-186 125t-232 46zM1061 743q20 0 34.5 -13.5t14.5 -33.5t-14.5 -34.5t-34.5 -14.5h-518q-20 0 -34.5 14.5t-14.5 34.5t14.5 33.5t34.5 13.5h518z" />
    <glyph glyph-name="Iota" unicode="&#x399;" horiz-adv-x="505" 
d="M254 -20q-23 0 -38 15t-15 40v1282q0 25 15 40t38 15q22 0 37.5 -15.5t15.5 -39.5v-1282q0 -24 -15.5 -39.5t-37.5 -15.5z" />
    <glyph glyph-name="Kappa" unicode="&#x39a;" horiz-adv-x="1255" 
d="M254 1372q22 0 37.5 -15.5t15.5 -39.5v-1282q0 -24 -15.5 -39.5t-37.5 -15.5q-23 0 -38 15t-15 40v1282q0 25 15 40t38 15zM1139 68q20 -20 20 -41q0 -20 -14.5 -33.5t-34.5 -13.5q-23 0 -47 24l-688 688q-17 17 -17 37q0 22 19 41l624 571q31 31 54 31q22 0 36.5 -13.5
t14.5 -33.5q0 -21 -27 -45l-602 -553z" />
    <glyph glyph-name="Lambda" unicode="&#x39b;" horiz-adv-x="1361" 
d="M1264 63q10 -20 10 -36q0 -19 -15.5 -33t-35.5 -14q-38 0 -52 36l-489 1182l-492 -1182q-14 -36 -51 -36q-21 0 -36 14t-15 33q0 15 8 36l535 1272q15 37 51 37q37 0 49 -37z" />
    <glyph glyph-name="Mu" unicode="&#x39c;" horiz-adv-x="1607" 
d="M1358 1372q21 0 35 -15t14 -38v-1286q0 -23 -15 -38t-38 -15t-38.5 15t-15.5 38v1112l-440 -682q-24 -37 -57 -37q-34 0 -58 37l-438 680v-1110q0 -23 -15.5 -38t-37.5 -15q-23 0 -38 15t-15 38v1286q0 23 13.5 38t35.5 15q19 0 31.5 -9t29.5 -34l492 -758l493 758
q15 25 28.5 34t33.5 9z" />
    <glyph glyph-name="Nu" unicode="&#x39d;" horiz-adv-x="1445" 
d="M1192 1372q23 0 38 -15t15 -40v-1284q0 -23 -14.5 -38t-36.5 -15q-26 0 -47 24l-840 1149v-1118q0 -24 -15.5 -39.5t-37.5 -15.5q-23 0 -38 15t-15 40v1284q0 23 15 38t38 15q25 0 47 -31l840 -1146l-2 1122q0 25 15 40t38 15z" />
    <glyph glyph-name="Xi" unicode="&#x39e;" horiz-adv-x="1097" 
d="M125 1255q-20 0 -34.5 15t-14.5 35t14.5 33.5t34.5 13.5h848q20 0 34.5 -13.5t14.5 -33.5t-14.5 -35t-34.5 -15h-848zM150 649q-22 0 -36 14.5t-14 34.5t14 33.5t36 13.5h800q20 0 34.5 -13.5t14.5 -33.5t-14.5 -34.5t-34.5 -14.5h-800zM125 0q-20 0 -34.5 14.5
t-14.5 34.5t14.5 33.5t34.5 13.5h848q20 0 34.5 -13.5t14.5 -33.5t-14.5 -34.5t-34.5 -14.5h-848z" />
    <glyph glyph-name="Omicron" unicode="&#x39f;" horiz-adv-x="1603" 
d="M801 1372q143 0 271.5 -54t221 -147t147 -222t54.5 -273q0 -143 -54.5 -272.5t-147 -222t-221 -147t-271.5 -54.5q-191 0 -350 92t-250.5 252t-91.5 352q0 144 54 273t146 222t220.5 147t271.5 54zM803 1274q-123 0 -231 -46t-185 -125t-121.5 -189.5t-44.5 -235.5
q0 -169 76 -306t209 -214.5t297 -77.5q162 0 294.5 78t208.5 215.5t76 304.5t-76 303.5t-208.5 214.5t-294.5 78z" />
    <glyph glyph-name="Pi" unicode="&#x3a0;" horiz-adv-x="1386" 
d="M254 -20q-23 0 -38 15t-15 40v1261q0 24 15.5 40t39.5 16h874q25 0 41.5 -16.5t16.5 -39.5v-1261q0 -25 -15 -40t-38 -15t-38.5 15t-15.5 40v1220h-774v-1220q0 -24 -15.5 -39.5t-37.5 -15.5z" />
    <glyph glyph-name="Rho" unicode="&#x3a1;" horiz-adv-x="1155" 
d="M254 -20q-23 0 -38 15t-15 40v1261q0 24 15.5 40t39.5 16h403q185 0 297.5 -102t112.5 -271q0 -167 -113 -270t-297 -103h-352v-571q0 -24 -15.5 -39.5t-37.5 -15.5zM307 702h348q140 0 221.5 74t81.5 203q0 127 -81.5 201.5t-221.5 74.5h-348v-553z" />
    <glyph glyph-name="Sigma" unicode="&#x3a3;" horiz-adv-x="1138" 
d="M1014 96q20 0 34.5 -14.5t14.5 -34.5t-14.5 -33.5t-34.5 -13.5h-840q-23 0 -38 15t-15 36q0 20 12 35l496 606l-490 568q-16 18 -16 40q0 21 15 36.5t36 15.5h815q20 0 34.5 -13.5t14.5 -33.5t-14.5 -35t-34.5 -15h-715l453 -522q16 -19 16 -39t-16 -39l-457 -559h744z
" />
    <glyph glyph-name="Tau" unicode="&#x3a4;" horiz-adv-x="1193" 
d="M596 -20q-23 0 -38 15t-15 40v1220h-451q-20 0 -34.5 15t-14.5 35t14.5 33.5t34.5 13.5h1010q20 0 34.5 -13.5t14.5 -33.5t-14.5 -35t-34.5 -15h-453v-1220q0 -25 -15 -40t-38 -15z" />
    <glyph glyph-name="Upsilon" unicode="&#x3a5;" horiz-adv-x="1255" 
d="M1141 1323q0 -18 -15 -39l-446 -727v-522q0 -25 -15 -40t-38 -15t-38.5 15t-15.5 40v526l-444 721q-14 25 -14 41q0 22 15 35.5t38 13.5q30 0 47 -29l414 -677l411 677q17 29 50 29q23 0 37 -13.5t14 -35.5z" />
    <glyph glyph-name="Phi" unicode="&#x3a6;" horiz-adv-x="1595" 
d="M1487 684q0 -248 -175 -398.5t-462 -150.5v-162q0 -25 -15 -41t-38 -16t-38.5 16t-15.5 41v162q-286 0 -460 151t-174 398q0 246 175 396.5t459 150.5v147q0 25 15.5 41.5t38.5 16.5t38 -16.5t15 -41.5v-147q287 0 462 -150.5t175 -396.5zM221 684q0 -207 140.5 -329
t381.5 -122v900q-241 0 -381.5 -121t-140.5 -328zM850 233q241 0 383.5 122t142.5 329t-142 328t-384 121v-900z" />
    <glyph glyph-name="Chi" unicode="&#x3a7;" horiz-adv-x="1204" 
d="M1098 66q12 -14 12 -35q0 -23 -14 -37t-37 -14q-25 0 -43 24l-414 602l-414 -602q-18 -24 -45 -24q-22 0 -36.5 14t-14.5 37q0 13 17 37l434 626l-404 592q-12 18 -12 35q0 23 14.5 37t36.5 14q27 0 45 -24l381 -566l379 566q15 24 43 24q23 0 37 -14t14 -37
q0 -17 -14 -39l-399 -590z" />
    <glyph glyph-name="Psi" unicode="&#x3a8;" horiz-adv-x="1640" 
d="M821 -20q-23 0 -38 15t-15 40v282q-290 0 -447 135.5t-157 387.5v477q0 25 15 40t38 15t38 -15t15 -40v-471q0 -211 127.5 -321.5t370.5 -110.5v944q0 25 15 41t38 16q22 0 37.5 -16.5t15.5 -40.5v-944q242 0 369 110.5t127 321.5v471q0 25 15 40t38 15t38.5 -15
t15.5 -40v-477q0 -252 -157 -387.5t-446 -135.5v-282q0 -24 -15.5 -39.5t-37.5 -15.5z" />
    <glyph glyph-name="uni03A9" unicode="&#x3a9;" horiz-adv-x="1624" 
d="M1442 96q22 0 36.5 -13.5t14.5 -33.5t-14.5 -34.5t-36.5 -14.5h-445q-23 0 -40 16t-17 39q0 34 33 51q420 208 420 590q0 164 -75 296t-208 207t-299 75t-298.5 -74.5t-207 -206t-74.5 -295.5q0 -191 106.5 -341t313.5 -251q33 -20 33 -51q0 -23 -17 -39t-42 -16h-445
q-20 0 -34.5 14.5t-14.5 34.5t14.5 33.5t34.5 13.5h309q-370 233 -370 602q0 141 53 266.5t144.5 214.5t220 141t274.5 52q193 0 352 -88t250.5 -243t91.5 -343q0 -183 -92.5 -331t-284.5 -271h314z" />
    <glyph glyph-name="Iotadieresis" unicode="&#x3aa;" horiz-adv-x="505" 
d="M20 1569q-36 0 -61 25t-25 61t25 60t61 24q37 0 63 -24t26 -60t-26 -61t-63 -25zM483 1569q-35 0 -60.5 24.5t-25.5 59.5q0 36 25 61t61 25q37 0 62.5 -24.5t25.5 -61.5q0 -35 -25.5 -59.5t-62.5 -24.5zM254 -20q-23 0 -38 15t-15 40v1282q0 25 15 40t38 15
q22 0 37.5 -15.5t15.5 -39.5v-1282q0 -24 -15.5 -39.5t-37.5 -15.5z" />
    <glyph glyph-name="Upsilondieresis" unicode="&#x3ab;" horiz-adv-x="1255" 
d="M393 1569q-36 0 -61 25t-25 61t25 60t61 24q37 0 62.5 -24t25.5 -60q0 -37 -25.5 -61.5t-62.5 -24.5zM856 1569q-35 0 -60.5 24.5t-25.5 59.5q0 36 25 61t61 25q37 0 62.5 -24.5t25.5 -61.5q0 -35 -25.5 -59.5t-62.5 -24.5zM1141 1323q0 -18 -15 -39l-446 -727v-522
q0 -25 -15 -40t-38 -15t-38.5 15t-15.5 40v526l-444 721q-14 25 -14 41q0 22 15 35.5t38 13.5q30 0 47 -29l414 -677l411 677q17 29 50 29q23 0 37 -13.5t14 -35.5z" />
    <glyph glyph-name="alphatonos" unicode="&#x3ac;" horiz-adv-x="1320" 
d="M643 1153q-19 0 -33.5 13t-11.5 32l43 361q3 23 17 37t36 14q23 0 39 -17.5t12 -44.5l-57 -344q-9 -51 -45 -51zM1237 84q22 0 34.5 -11.5t12.5 -31.5q0 -29 -24 -41q-22 -10 -76 -10q-89 0 -138 51.5t-55 151.5q-55 -98 -159.5 -155.5t-233.5 -57.5q-135 0 -246 67.5
t-174 186t-63 262.5t63 262t174 185t246 67q133 0 240 -61.5t159 -164.5q2 58 13 166q2 23 15.5 37t35.5 14q23 0 36.5 -17t10.5 -42q-16 -213 -16 -430v-270q0 -82 28.5 -120t91.5 -38h25zM608 76q169 0 275 116t106 302q0 187 -105.5 303t-275.5 116q-168 0 -277.5 -118
t-109.5 -299q0 -182 110 -301t277 -119z" />
    <glyph glyph-name="epsilontonos" unicode="&#x3ad;" horiz-adv-x="1007" 
d="M520 1153q-19 0 -33.5 13t-11.5 32l43 361q3 23 17 37t36 14q23 0 39.5 -18t12.5 -44l-58 -344q-9 -51 -45 -51zM852 227q20 0 33.5 -13.5t13.5 -35.5q0 -16 -12 -31q-128 -167 -365 -167q-170 0 -275.5 82t-105.5 212q0 87 51 155t144 101q-72 32 -110 91.5t-38 134.5
q0 117 90.5 185.5t245.5 68.5q222 0 338 -136q12 -12 12 -34q0 -20 -13.5 -33.5t-33.5 -13.5q-21 0 -34 16q-94 104 -265 104q-112 0 -172.5 -42t-60.5 -123q0 -74 53.5 -121t155.5 -47h147q20 0 33.5 -14t13.5 -34t-13.5 -34.5t-33.5 -14.5h-137q-127 0 -196.5 -55.5
t-69.5 -142.5q0 -92 73 -150.5t203 -58.5q98 0 165 34t126 101q16 16 37 16z" />
    <glyph glyph-name="etatonos" unicode="&#x3ae;" horiz-adv-x="1181" 
d="M594 1153q-19 0 -33.5 13t-11.5 32l43 361q3 23 17 37t36 14q23 0 39 -17.5t12 -44.5l-57 -344q-9 -51 -45 -51zM643 1010q166 0 265.5 -104.5t99.5 -280.5v-963q0 -21 -15.5 -36t-36.5 -15q-23 0 -38 14.5t-15 36.5v954q0 135 -74.5 216t-199.5 81q-129 0 -213 -83.5
t-84 -213.5v-585q0 -22 -14.5 -36.5t-36.5 -14.5t-37 14.5t-15 36.5v727q0 122 -96 141q-21 8 -51 8q-20 0 -33.5 13t-13.5 32q0 29 26 39q26 13 72 13q75 0 123.5 -40.5t65.5 -115.5q51 78 134 120t187 42z" />
    <glyph glyph-name="iotatonos" unicode="&#x3af;" horiz-adv-x="555" 
d="M238 1153q-19 0 -33.5 13t-11.5 32l43 361q3 23 17 37t36 14q23 0 39 -17.5t12 -44.5l-57 -344q-9 -51 -45 -51zM412 -20q-113 0 -171.5 68.5t-58.5 201.5v708q0 22 15.5 37t38.5 15q20 0 35.5 -15t15.5 -37v-704q0 -180 139 -180q13 0 25.5 1t15.5 1q23 0 37 -12.5
t14 -32.5q0 -31 -33 -45q-20 -6 -73 -6z" />
    <glyph glyph-name="upsilondieresistonos" unicode="&#x3b0;" horiz-adv-x="1110" 
d="M510 1153q-19 0 -33.5 13t-11.5 32l43 361q3 23 17 37t36 14q23 0 39 -17.5t12 -44.5l-57 -344q-9 -51 -45 -51zM254 1284q-35 0 -61.5 25.5t-26.5 60.5q0 36 26 62t62 26q37 0 63.5 -25.5t26.5 -62.5q0 -35 -26.5 -60.5t-63.5 -25.5zM807 1284q-37 0 -62.5 25.5
t-25.5 60.5q0 37 25.5 62.5t62.5 25.5t62.5 -25.5t25.5 -62.5q0 -35 -25.5 -60.5t-62.5 -25.5zM571 -20q-176 0 -285.5 109t-109.5 304v561q0 25 14.5 40.5t36.5 15.5t37 -16t15 -40v-565q0 -145 81.5 -229t212.5 -84q133 0 211 93.5t78 287.5q0 108 -23.5 233.5
t-54.5 208.5q-14 50 -14 64q0 22 13.5 34.5t35.5 12.5q37 0 51 -39q43 -110 71 -247t28 -261q0 -241 -108 -362t-290 -121z" />
    <glyph glyph-name="alpha" unicode="&#x3b1;" horiz-adv-x="1320" 
d="M1237 84q22 0 34.5 -11.5t12.5 -31.5q0 -29 -24 -41q-22 -10 -76 -10q-89 0 -138 51.5t-55 151.5q-55 -98 -159.5 -155.5t-233.5 -57.5q-135 0 -246 67.5t-174 186t-63 262.5t63 262t174 185t246 67q133 0 240 -61.5t159 -164.5q2 58 13 166q2 23 15.5 37t35.5 14
q23 0 36.5 -17t10.5 -42q-16 -213 -16 -430v-270q0 -82 28.5 -120t91.5 -38h25zM608 76q169 0 275 116t106 302q0 187 -105.5 303t-275.5 116q-168 0 -277.5 -118t-109.5 -299q0 -182 110 -301t277 -119z" />
    <glyph glyph-name="beta" unicode="&#x3b2;" horiz-adv-x="1228" 
d="M754 866q165 -32 262.5 -149t97.5 -285q0 -199 -131 -325.5t-336 -126.5q-101 0 -193 34t-161 97v-445q0 -24 -14.5 -39.5t-36.5 -15.5t-37 15.5t-15 39.5v1493q0 180 108.5 288.5t285.5 108.5q163 0 264.5 -100.5t101.5 -261.5q0 -115 -51.5 -200t-144.5 -128zM641 76
q164 0 265.5 98t101.5 258q0 163 -105.5 264t-277.5 101h-86q-21 0 -36.5 12.5t-15.5 32.5q0 22 14.5 34.5t37.5 12.5q146 1 224.5 79.5t78.5 219.5q0 128 -70 200t-194 72q-131 0 -208 -84.5t-77 -226.5v-924q63 -71 154.5 -110t193.5 -39z" />
    <glyph glyph-name="gamma" unicode="&#x3b3;" horiz-adv-x="1077" 
d="M1012 958q0 -10 -4 -22l-416 -909v-361q0 -24 -14.5 -39.5t-36.5 -15.5t-37 15.5t-15 39.5v350l-417 918q-6 12 -6 24q0 22 15 37t36 15q37 0 51 -35l371 -830l370 830q17 35 52 35q22 0 36.5 -15t14.5 -37z" />
    <glyph glyph-name="delta" unicode="&#x3b4;" horiz-adv-x="1253" 
d="M918 932q115 -103 168 -205.5t53 -222.5q0 -222 -148.5 -373t-365.5 -151q-105 0 -199.5 40.5t-162.5 109t-108 164t-40 202.5q0 214 147.5 363t360.5 149q21 0 61 -4l-508 446q-18 18 -18 39q0 19 14 33t33 14h842q22 0 35.5 -13.5t13.5 -33.5t-13.5 -32.5t-35.5 -12.5
h-711zM627 76q171 0 288 120.5t117 297.5q0 178 -117 297.5t-288 119.5q-172 0 -289 -119.5t-117 -297.5t117 -298t289 -120z" />
    <glyph glyph-name="epsilon" unicode="&#x3b5;" horiz-adv-x="1007" 
d="M852 227q20 0 33.5 -13.5t13.5 -35.5q0 -16 -12 -31q-128 -167 -365 -167q-170 0 -275.5 82t-105.5 212q0 87 51 155t144 101q-72 32 -110 91.5t-38 134.5q0 117 90.5 185.5t245.5 68.5q222 0 338 -136q12 -12 12 -34q0 -20 -13.5 -33.5t-33.5 -13.5q-21 0 -34 16
q-94 104 -265 104q-112 0 -172.5 -42t-60.5 -123q0 -74 53.5 -121t155.5 -47h147q20 0 33.5 -14t13.5 -34t-13.5 -34.5t-33.5 -14.5h-137q-127 0 -196.5 -55.5t-69.5 -142.5q0 -92 73 -150.5t203 -58.5q98 0 165 34t126 101q16 16 37 16z" />
    <glyph glyph-name="zeta" unicode="&#x3b6;" horiz-adv-x="1011" 
d="M698 84q277 -75 277 -289q0 -80 -35 -145q-19 -39 -53 -39q-22 0 -35.5 12t-13.5 33q0 12 15 53t15 78q0 147 -204 201l-160 43q-190 47 -289.5 151.5t-99.5 255.5q0 102 43.5 199.5t142.5 214.5l502 592h-561q-21 0 -35 12.5t-14 32.5t14.5 33.5t34.5 13.5h669
q20 0 33.5 -14t13.5 -33q0 -18 -12 -33l-563 -659q-87 -104 -124.5 -185t-37.5 -166q0 -120 76.5 -197.5t237.5 -121.5z" />
    <glyph glyph-name="eta" unicode="&#x3b7;" horiz-adv-x="1181" 
d="M643 1010q166 0 265.5 -104.5t99.5 -280.5v-963q0 -21 -15.5 -36t-36.5 -15q-23 0 -38 14.5t-15 36.5v954q0 135 -74.5 216t-199.5 81q-129 0 -213 -83.5t-84 -213.5v-585q0 -22 -14.5 -36.5t-36.5 -14.5t-37 14.5t-15 36.5v727q0 122 -96 141q-21 8 -51 8
q-20 0 -33.5 13t-13.5 32q0 29 26 39q26 13 72 13q75 0 123.5 -40.5t65.5 -115.5q51 78 134 120t187 42z" />
    <glyph glyph-name="theta" unicode="&#x3b8;" horiz-adv-x="1241" 
d="M621 1556q462 0 462 -788t-462 -788q-461 0 -461 788t461 788zM621 1460q-335 0 -353 -614h705q-18 614 -352 614zM621 76q351 0 354 676h-709q3 -676 355 -676z" />
    <glyph glyph-name="iota" unicode="&#x3b9;" horiz-adv-x="555" 
d="M412 -20q-113 0 -171.5 68.5t-58.5 201.5v708q0 22 15.5 37t38.5 15q20 0 35.5 -15t15.5 -37v-704q0 -180 139 -180q13 0 25.5 1t15.5 1q23 0 37 -12.5t14 -32.5q0 -31 -33 -45q-20 -6 -73 -6z" />
    <glyph glyph-name="kappa" unicode="&#x3ba;" horiz-adv-x="983" 
d="M242 1010q22 0 36.5 -15t14.5 -37v-927q0 -22 -14.5 -36.5t-36.5 -14.5t-37 14.5t-15 36.5v927q0 22 14.5 37t37.5 15zM920 66q16 -13 16 -37q0 -22 -13.5 -35.5t-35.5 -13.5q-23 0 -45 22l-477 514q-17 17 -17 39q0 23 19 39l428 399q17 17 41 17q20 0 34.5 -13.5
t14.5 -33.5q0 -23 -23 -43l-395 -365z" />
    <glyph glyph-name="lambda" unicode="&#x3bb;" horiz-adv-x="1099" 
d="M1055 80q28 -9 28 -39q0 -49 -82 -49q-62 0 -103.5 37t-70.5 121l-262 712l-393 -852q-13 -30 -45 -30q-22 0 -37.5 14.5t-15.5 36.5q0 12 6 24l440 932l-108 289q-41 111 -86 148.5t-125 37.5q-12 0 -35.5 -2t-30.5 -2q-19 -1 -32 13t-13 32q0 39 39 45q39 8 86 8
q104 0 170 -49.5t117 -189.5l413 -1122q39 -106 99 -109z" />
    <glyph glyph-name="uni03BC" unicode="&#x3bc;" horiz-adv-x="1196" 
d="M1112 84q49 0 49 -43q0 -41 -43 -47q-18 -4 -57 -4q-157 0 -187 149q-43 -74 -119.5 -116.5t-172.5 -42.5t-171 41.5t-118 117.5v-477q0 -22 -14.5 -36.5t-36.5 -14.5t-37 14.5t-15 36.5v1296q0 22 15 37t37 15t36.5 -15t14.5 -37v-571q0 -135 80.5 -223t204.5 -88
q126 0 206 88t80 223v571q0 22 14.5 37t36.5 15t37 -15t15 -37v-714q0 -82 29.5 -121t90.5 -39h25z" />
    <glyph glyph-name="nu" unicode="&#x3bd;" horiz-adv-x="1081" 
d="M963 1010q21 0 36 -15t15 -37q0 -13 -6 -22l-420 -924q-16 -32 -47 -32q-33 0 -49 32l-418 922q-6 12 -6 24q0 22 15 37t36 15q33 0 51 -35l371 -832l370 832q17 35 52 35z" />
    <glyph glyph-name="xi" unicode="&#x3be;" horiz-adv-x="1044" 
d="M731 80q134 -25 206.5 -97.5t72.5 -187.5q0 -80 -35 -145q-19 -39 -53 -39q-22 0 -36 12t-14 33q0 12 14.5 53t14.5 78q0 161 -201 197l-141 24q-200 35 -310 151.5t-110 284.5q0 146 80 255t219 153q-100 46 -157.5 133t-57.5 197q0 158 115.5 264t284.5 106
q216 0 350 -176q12 -18 12 -33q0 -20 -13.5 -33.5t-33.5 -13.5q-23 0 -43 23q-106 137 -268 137q-127 0 -212 -78.5t-85 -199.5q0 -125 89 -207t224 -82h141q21 0 35.5 -13.5t14.5 -33.5t-14.5 -32.5t-35.5 -12.5h-166q-161 0 -266.5 -99t-105.5 -252q0 -131 89.5 -219.5
t248.5 -117.5z" />
    <glyph glyph-name="omicron" unicode="&#x3bf;" horiz-adv-x="1253" 
d="M627 1010q214 0 363 -149t149 -365q0 -107 -40 -202.5t-109 -164t-164 -109t-201 -40.5q-105 0 -199.5 40.5t-162.5 109t-108 164t-40 202.5q0 143 67.5 261t185 185.5t259.5 67.5zM627 913q-174 0 -290 -119.5t-116 -299.5q0 -178 116 -298t288 -120t289.5 120.5
t117.5 297.5q0 179 -117 299t-288 120z" />
    <glyph glyph-name="pi" unicode="&#x3c0;" horiz-adv-x="1171" 
d="M242 -20q-22 0 -37 15.5t-15 39.5v899q0 24 16 39.5t40 15.5h639q24 0 39.5 -15.5t15.5 -39.5v-707q0 -143 119 -143h26q23 0 36.5 -11.5t13.5 -31.5q0 -29 -29 -41q-25 -10 -72 -10q-91 0 -143.5 56.5t-52.5 170.5v678h-545v-860q0 -24 -14.5 -39.5t-36.5 -15.5z" />
    <glyph glyph-name="rho" unicode="&#x3c1;" horiz-adv-x="1275" 
d="M657 1010q218 0 361 -145.5t143 -368.5q0 -218 -140 -367t-345 -149q-128 0 -234.5 58t-162.5 155v-527q0 -23 -15.5 -39t-36.5 -16q-22 0 -36.5 16t-14.5 39v834q0 229 133 369.5t348 140.5zM662 76q169 0 281 119t112 299q0 182 -113 300.5t-285 118.5t-276.5 -113
t-104.5 -302t107 -305.5t279 -116.5z" />
    <glyph glyph-name="uni03C2" unicode="&#x3c2;" horiz-adv-x="1073" 
d="M866 -389q-22 0 -35.5 12t-13.5 33q0 12 14.5 53t14.5 78q0 48 -13.5 81.5t-46 57.5t-74.5 40.5t-110 33.5q-83 23 -147.5 48t-131 66.5t-110 93.5t-71 129.5t-27.5 172.5q0 228 136.5 364t352.5 136q237 0 387 -176q15 -18 15 -35q0 -19 -14.5 -33t-33.5 -14
q-22 0 -40 18q-128 143 -312 143q-173 0 -278 -109t-105 -292q0 -78 22.5 -140.5t57.5 -104.5t90.5 -75.5t109 -53.5t124.5 -38q85 -22 141 -45.5t100.5 -58.5t65 -84t20.5 -117q0 -81 -34 -145q-19 -39 -54 -39z" />
    <glyph glyph-name="sigma" unicode="&#x3c3;" horiz-adv-x="1288" 
d="M1214 989q21 0 35.5 -13.5t14.5 -33.5t-14.5 -33.5t-35.5 -13.5h-313q104 -62 163.5 -169t59.5 -237q0 -217 -145.5 -363t-360.5 -146q-140 0 -255.5 67.5t-181.5 185t-66 259.5q0 212 145.5 354.5t362.5 142.5h591zM1018 494q0 175 -112 287t-285 112t-286.5 -113.5
t-113.5 -287.5q0 -178 113.5 -297t283.5 -119t285 120t115 298z" />
    <glyph glyph-name="tau" unicode="&#x3c4;" horiz-adv-x="886" 
d="M797 86q20 0 32.5 -12t12.5 -31q0 -39 -56 -49q-66 -14 -153 -14q-320 0 -320 296v619h-231q-20 0 -34.5 13.5t-14.5 33.5t14.5 33.5t34.5 13.5h684q20 0 33.5 -13.5t13.5 -33.5t-13.5 -33.5t-33.5 -13.5h-350v-614q0 -108 56 -157.5t179 -49.5q44 0 90.5 6t55.5 6z" />
    <glyph glyph-name="upsilon" unicode="&#x3c5;" horiz-adv-x="1110" 
d="M571 -20q-176 0 -285.5 109t-109.5 304v561q0 25 14.5 40.5t36.5 15.5t37 -16t15 -40v-565q0 -145 81.5 -229t212.5 -84q133 0 211 93.5t78 287.5q0 108 -23.5 233.5t-54.5 208.5q-14 50 -14 64q0 22 13.5 34.5t35.5 12.5q37 0 51 -39q43 -110 71 -247t28 -261
q0 -241 -108 -362t-290 -121z" />
    <glyph glyph-name="phi" unicode="&#x3c6;" horiz-adv-x="1480" 
d="M1368 494q0 -232 -158.5 -373t-418.5 -141v-314q0 -24 -15 -39.5t-37 -15.5t-36.5 15.5t-14.5 39.5v314q-258 0 -415.5 141t-157.5 373q0 230 157.5 371t415.5 141v471q0 24 14 39.5t37 15.5q22 0 37 -16t15 -39v-471q258 0 417.5 -141t159.5 -371zM219 492
q0 -192 127 -306t342 -114h2v841h-2q-215 0 -342 -114t-127 -307zM791 72q215 0 343 114t128 306q0 193 -127.5 307t-343.5 114h-3v-841h3z" />
    <glyph glyph-name="chi" unicode="&#x3c7;" horiz-adv-x="993" 
d="M930 -293q61 0 61 -43q0 -49 -80 -49q-58 0 -103.5 30t-82.5 107l-231 488l-351 -602q-17 -27 -45 -27q-22 0 -36.5 14.5t-14.5 34.5q0 16 10 33l381 645l-231 481q-25 50 -52.5 68t-66.5 18q-61 0 -61 45q0 47 79 47q58 0 104 -29.5t83 -107.5l203 -430l321 553
q13 27 45 27q20 0 34.5 -14.5t14.5 -34.5q0 -17 -10 -35l-352 -596l262 -535q25 -50 52.5 -69t66.5 -19z" />
    <glyph glyph-name="psi" unicode="&#x3c8;" horiz-adv-x="1529" 
d="M772 -389q-22 0 -36.5 15.5t-14.5 39.5v309q-248 0 -396.5 143t-148.5 380v456q0 25 14.5 40.5t36.5 15.5q21 0 36.5 -16t15.5 -40v-450q0 -195 121 -313.5t321 -118.5v1245q0 24 14.5 39.5t36.5 15.5t36.5 -15.5t14.5 -39.5v-1245q211 0 335 121.5t124 326.5
q0 165 -76 379q-16 53 -16 64q0 21 14.5 34t36.5 13q37 0 51 -39q97 -247 97 -449q0 -249 -153.5 -398t-412.5 -149v-309q0 -24 -14.5 -39.5t-36.5 -15.5z" />
    <glyph glyph-name="omega" unicode="&#x3c9;" horiz-adv-x="1701" 
d="M1239 989q171 -64 259.5 -196.5t88.5 -323.5q0 -220 -114.5 -354.5t-301.5 -134.5q-114 0 -197 54t-124 154q-41 -101 -124 -154.5t-196 -53.5q-188 0 -301.5 134t-113.5 355q0 191 88 322.5t260 197.5q27 10 41 10q19 0 32 -14.5t13 -36.5q0 -33 -39 -49
q-289 -111 -289 -428q0 -175 86 -285t223 -110q120 0 194.5 86.5t74.5 226.5v354q0 25 15 40.5t38 15.5q22 0 36.5 -15.5t14.5 -40.5v-354q0 -140 73 -226.5t193 -86.5q138 0 225 110t87 285q0 308 -289 430q-39 16 -39 49q0 20 13 34.5t32 14.5q21 0 41 -10z" />
    <glyph glyph-name="iotadieresis" unicode="&#x3ca;" horiz-adv-x="555" 
d="M63 1284q-35 0 -60.5 25.5t-25.5 60.5q0 37 24.5 61.5t61.5 24.5t63 -25t26 -61q0 -35 -26 -60.5t-63 -25.5zM412 1284q-37 0 -62.5 25.5t-25.5 60.5q0 37 25.5 61.5t62.5 24.5t62.5 -24.5t25.5 -61.5q0 -35 -25.5 -60.5t-62.5 -25.5zM412 -20q-113 0 -171.5 68.5
t-58.5 201.5v708q0 22 15.5 37t38.5 15q20 0 35.5 -15t15.5 -37v-704q0 -180 139 -180q13 0 25.5 1t15.5 1q23 0 37 -12.5t14 -32.5q0 -31 -33 -45q-20 -6 -73 -6z" />
    <glyph glyph-name="upsilondieresis" unicode="&#x3cb;" horiz-adv-x="1110" 
d="M326 1456q37 0 62.5 -24.5t25.5 -61.5q0 -35 -25.5 -60.5t-62.5 -25.5q-35 0 -60.5 25.5t-25.5 60.5q0 36 25 61t61 25zM737 1456q37 0 61.5 -24.5t24.5 -61.5q0 -36 -25 -61t-61 -25q-37 0 -62.5 25.5t-25.5 60.5q0 37 25.5 61.5t62.5 24.5zM571 -20q-176 0 -285.5 109
t-109.5 304v561q0 25 14.5 40.5t36.5 15.5t37 -16t15 -40v-565q0 -145 81.5 -229t212.5 -84q133 0 211 93.5t78 287.5q0 108 -23.5 233.5t-54.5 208.5q-14 50 -14 64q0 22 13.5 34.5t35.5 12.5q37 0 51 -39q43 -110 71 -247t28 -261q0 -241 -108 -362t-290 -121z" />
    <glyph glyph-name="omicrontonos" unicode="&#x3cc;" horiz-adv-x="1253" 
d="M627 1153q-19 0 -33.5 13t-11.5 32l43 361q3 23 17 37t36 14q23 0 39 -17.5t12 -44.5l-57 -344q-9 -51 -45 -51zM627 1010q214 0 363 -149t149 -365q0 -107 -40 -202.5t-109 -164t-164 -109t-201 -40.5q-105 0 -199.5 40.5t-162.5 109t-108 164t-40 202.5q0 143 67.5 261
t185 185.5t259.5 67.5zM627 913q-174 0 -290 -119.5t-116 -299.5q0 -178 116 -298t288 -120t289.5 120.5t117.5 297.5q0 179 -117 299t-288 120z" />
    <glyph glyph-name="upsilontonos" unicode="&#x3cd;" horiz-adv-x="1110" 
d="M530 1153q-19 0 -33.5 13t-11.5 32l43 361q3 23 17.5 37t36.5 14q23 0 39 -17.5t12 -44.5l-58 -344q-9 -51 -45 -51zM571 -20q-176 0 -285.5 109t-109.5 304v561q0 25 14.5 40.5t36.5 15.5t37 -16t15 -40v-565q0 -145 81.5 -229t212.5 -84q133 0 211 93.5t78 287.5
q0 108 -23.5 233.5t-54.5 208.5q-14 50 -14 64q0 22 13.5 34.5t35.5 12.5q37 0 51 -39q43 -110 71 -247t28 -261q0 -241 -108 -362t-290 -121z" />
    <glyph glyph-name="omegatonos" unicode="&#x3ce;" horiz-adv-x="1701" 
d="M852 1153q-19 0 -33.5 13t-11.5 32l43 361q3 23 17 37t36 14q23 0 39 -17.5t12 -44.5l-57 -344q-9 -51 -45 -51zM1239 989q171 -64 259.5 -196.5t88.5 -323.5q0 -220 -114.5 -354.5t-301.5 -134.5q-114 0 -197 54t-124 154q-41 -101 -124 -154.5t-196 -53.5
q-188 0 -301.5 134t-113.5 355q0 191 88 322.5t260 197.5q27 10 41 10q19 0 32 -14.5t13 -36.5q0 -33 -39 -49q-289 -111 -289 -428q0 -175 86 -285t223 -110q120 0 194.5 86.5t74.5 226.5v354q0 25 15 40.5t38 15.5q22 0 36.5 -15.5t14.5 -40.5v-354q0 -140 73 -226.5
t193 -86.5q138 0 225 110t87 285q0 308 -289 430q-39 16 -39 49q0 20 13 34.5t32 14.5q21 0 41 -10z" />
    <glyph glyph-name="uni0400" unicode="&#x400;" horiz-adv-x="1153" 
d="M596 1491q-26 -3 -43 27l-160 278q-17 31 -4.5 55.5t41.5 26.5q34 4 51 -29l152 -295q11 -21 -1 -41.5t-36 -21.5zM252 0q-23 0 -37 14.5t-14 36.5v1249q0 22 14 37t37 15h752q20 0 34.5 -13.5t14.5 -33.5t-14.5 -35t-34.5 -15h-697v-477h533q20 0 34.5 -13.5t14.5 -33.5
t-14.5 -34.5t-34.5 -14.5h-533v-586h721q20 0 34.5 -13.5t14.5 -33.5t-14.5 -34.5t-34.5 -14.5h-776z" />
    <glyph glyph-name="uni0401" unicode="&#x401;" horiz-adv-x="1153" 
d="M385 1569q-36 0 -61 25t-25 61t25 60t61 24q37 0 62.5 -24t25.5 -60q0 -37 -25.5 -61.5t-62.5 -24.5zM848 1569q-35 0 -60.5 24.5t-25.5 59.5q0 36 25 61t61 25q37 0 62.5 -24.5t25.5 -61.5q0 -35 -25.5 -59.5t-62.5 -24.5zM252 0q-23 0 -37 14.5t-14 36.5v1249
q0 22 14 37t37 15h752q20 0 34.5 -13.5t14.5 -33.5t-14.5 -35t-34.5 -15h-697v-477h533q20 0 34.5 -13.5t14.5 -33.5t-14.5 -34.5t-34.5 -14.5h-533v-586h721q20 0 34.5 -13.5t14.5 -33.5t-14.5 -34.5t-34.5 -14.5h-776z" />
    <glyph glyph-name="uni0402" unicode="&#x402;" horiz-adv-x="1540" 
d="M592 -20q-22 0 -37.5 15.5t-15.5 39.5v1220h-451q-20 0 -34.5 15t-14.5 35t14.5 33.5t34.5 13.5h1010q20 0 34.5 -13.5t14.5 -33.5t-14.5 -35t-34.5 -15h-453v-442h332q204 0 326 -111.5t122 -300.5q0 -152 -90.5 -257t-255.5 -148q-55 -14 -82 -14q-22 0 -35.5 14
t-13.5 37q0 39 43 49q158 32 241 114t83 207q0 143 -93.5 228.5t-248.5 85.5h-328v-682q0 -25 -15 -40t-38 -15z" />
    <glyph glyph-name="uni0403" unicode="&#x403;" horiz-adv-x="1026" 
d="M543 1491q-24 1 -36 21.5t-1 41.5l151 295q17 33 52 29q29 -2 41.5 -26.5t-5.5 -55.5l-159 -278q-17 -30 -43 -27zM934 1352q22 0 35.5 -13.5t13.5 -33.5q0 -21 -14 -35.5t-35 -14.5h-627v-1220q0 -24 -15.5 -39.5t-37.5 -15.5q-23 0 -38 15t-15 40v1261q0 24 15.5 40
t39.5 16h678z" />
    <glyph glyph-name="uni0404" unicode="&#x404;" horiz-adv-x="1458" 
d="M1294 317q20 0 34.5 -14.5t14.5 -34.5q0 -19 -20 -45q-92 -117 -228.5 -180t-293.5 -63q-193 0 -351.5 91.5t-249.5 251t-91 353.5q0 144 54 273t146 222t220.5 147t271.5 54q156 0 292 -63.5t230 -180.5q20 -23 20 -45q0 -20 -14.5 -34.5t-34.5 -14.5q-26 0 -45 25
q-175 215 -448 215q-220 0 -379 -139.5t-193 -356.5h754q22 0 36.5 -13.5t14.5 -33.5t-14.5 -34.5t-36.5 -14.5h-762v-6q0 -126 44.5 -236.5t121.5 -189.5t184.5 -124.5t229.5 -45.5q275 0 448 213q18 24 45 24z" />
    <glyph glyph-name="uni0405" unicode="&#x405;" horiz-adv-x="1138" 
d="M580 -20q-136 0 -255 63.5t-202 181.5q-12 15 -12 35t14.5 34.5t34.5 14.5q24 0 45 -24q143 -205 377 -205q138 0 222.5 70.5t84.5 185.5q0 93 -52 151t-198 127l-154 74q-161 77 -230 157.5t-69 192.5q0 152 112.5 243t281.5 91q111 0 206 -43t162 -125q19 -22 19 -43
q0 -19 -14.5 -33t-34.5 -14q-22 0 -39 21q-121 139 -299 139q-75 0 -137 -23t-104 -77t-42 -130q0 -86 50.5 -141t189.5 -121l151 -73q172 -82 241.5 -165t69.5 -206q0 -158 -116.5 -258t-302.5 -100z" />
    <glyph glyph-name="uni0406" unicode="&#x406;" horiz-adv-x="505" 
d="M254 1372q22 0 37.5 -15.5t15.5 -39.5v-1282q0 -24 -15.5 -39.5t-37.5 -15.5q-23 0 -38 15t-15 40v1282q0 25 15 40t38 15z" />
    <glyph glyph-name="uni0407" unicode="&#x407;" horiz-adv-x="505" 
d="M20 1569q-36 0 -61 25t-25 61t25 60t61 24q37 0 63 -24t26 -60t-26 -61t-63 -25zM483 1569q-35 0 -60.5 24.5t-25.5 59.5q0 36 25 61t61 25q37 0 62.5 -24.5t25.5 -61.5q0 -35 -25.5 -59.5t-62.5 -24.5zM254 1372q22 0 37.5 -15.5t15.5 -39.5v-1282q0 -24 -15.5 -39.5
t-37.5 -15.5q-23 0 -38 15t-15 40v1282q0 25 15 40t38 15z" />
    <glyph glyph-name="uni0408" unicode="&#x408;" horiz-adv-x="749" 
d="M223 -20q-86 0 -133 12q-19 5 -31 19.5t-12 33.5q0 22 15 36.5t38 14.5q14 0 57 -7t76 -7q103 0 157 55.5t54 161.5v1018q0 25 15 40t39 15q23 0 38 -15t15 -40v-1024q0 -152 -84.5 -232.5t-243.5 -80.5z" />
    <glyph glyph-name="uni0409" unicode="&#x409;" horiz-adv-x="2078" 
d="M1532 788q196 0 314 -107t118 -286q0 -180 -117.5 -287.5t-314.5 -107.5h-469q-25 0 -41 16t-16 39v1200h-517q-6 -1101 -423 -1261q-18 -6 -29 -6q-20 0 -33.5 13.5t-13.5 33.5q0 35 39 49q174 77 264 355t90 743v114q0 23 16 39.5t39 16.5h619q24 0 39.5 -16t15.5 -40
v-508h420zM1530 96q148 0 235.5 81t87.5 216q0 137 -87.5 218t-235.5 81h-418v-596h418z" />
    <glyph glyph-name="uni040A" unicode="&#x40a;" horiz-adv-x="2172" 
d="M254 -20q-23 0 -38 15t-15 40v1282q0 25 15 40t38 15q22 0 37.5 -15.5t15.5 -39.5v-535h795v535q0 25 15 40t38 15t38 -15t15 -40v-535h420q195 0 312.5 -107t117.5 -284q0 -178 -117.5 -284.5t-312.5 -106.5h-471q-24 0 -39.5 15.5t-15.5 39.5v631h-795v-651
q0 -24 -15.5 -39.5t-37.5 -15.5zM1208 96h416q149 0 236.5 79.5t87.5 213.5t-88.5 215.5t-235.5 81.5h-416v-590z" />
    <glyph glyph-name="uni040B" unicode="&#x40b;" horiz-adv-x="1613" 
d="M956 811q218 0 337.5 -133t119.5 -377v-266q0 -24 -15.5 -39.5t-37.5 -15.5q-23 0 -38 15t-15 40v264q0 204 -91 308t-268 104q-160 0 -303 -58v-618q0 -25 -15 -40t-38 -15q-22 0 -37.5 15.5t-15.5 39.5v1220h-451q-20 0 -34.5 15t-14.5 35t14.5 33.5t34.5 13.5h1010
q20 0 34.5 -13.5t14.5 -33.5t-14.5 -35t-34.5 -15h-453v-499q145 55 311 55z" />
    <glyph glyph-name="uni040C" unicode="&#x40c;" horiz-adv-x="1251" 
d="M651 1491q-24 1 -36 21.5t-1 41.5l152 295q17 33 51 29q29 -2 41.5 -26.5t-4.5 -55.5l-160 -278q-17 -30 -43 -27zM254 1372q22 0 37.5 -15.5t15.5 -39.5v-1282q0 -24 -15.5 -39.5t-37.5 -15.5q-23 0 -38 15t-15 40v1282q0 25 15 40t38 15zM1139 68q20 -20 20 -41
q0 -20 -14.5 -33.5t-34.5 -13.5q-23 0 -47 24l-688 688q-17 17 -17 37q0 22 19 41l624 571q31 31 54 31q22 0 36.5 -13.5t14.5 -33.5q0 -21 -27 -45l-602 -553z" />
    <glyph glyph-name="uni040D" unicode="&#x40d;" horiz-adv-x="1466" 
d="M649 1518l-160 278q-17 31 -4.5 55.5t41.5 26.5q35 4 52 -29l151 -295q11 -21 -1 -41.5t-36 -21.5q-26 -3 -43 27zM1212 1372q23 0 38.5 -15t15.5 -38v-1284q0 -25 -15 -40t-39 -15q-23 0 -38 15t-15 40v1132l-864 -1167q-15 -20 -41 -20q-23 0 -38 15t-15 38v1284
q0 25 15 40t38 15q22 0 37.5 -15.5t15.5 -39.5v-1131l864 1166q15 20 41 20z" />
    <glyph glyph-name="uni040E" unicode="&#x40e;" horiz-adv-x="1230" 
d="M608 1516q-117 0 -204 76t-87 180q0 20 14 34.5t34 14.5q39 0 45 -49q9 -74 64.5 -121t133.5 -47t134.5 48t62.5 120q6 49 45 49q20 0 33.5 -14.5t13.5 -34.5q0 -104 -86 -180t-203 -76zM1085 1364q22 0 38 -15.5t16 -37.5q0 -14 -11 -33l-462 -1047q-115 -251 -367 -251
q-69 0 -115 12q-19 3 -30 16.5t-11 32.5q0 20 15 34.5t37 14.5q5 0 38.5 -5t55.5 -5q104 0 170.5 42.5t107.5 135.5l17 37l-455 983q-8 19 -8 33q0 22 15.5 37.5t37.5 15.5q34 0 49 -37l416 -915l395 915q18 37 51 37z" />
    <glyph glyph-name="uni040F" unicode="&#x40f;" horiz-adv-x="1386" 
d="M1135 1372q23 0 38 -15t15 -40v-1262q0 -23 -16.5 -39t-41.5 -16h-382v-254q0 -24 -15 -39.5t-39 -15.5q-23 0 -38 15t-15 40v254h-385q-24 0 -39.5 15.5t-15.5 39.5v1262q0 25 15 40t38 15q22 0 37.5 -15.5t15.5 -39.5v-1221h774v1221q0 25 15.5 40t38.5 15z" />
    <glyph glyph-name="uni0410" unicode="&#x410;" horiz-adv-x="1361" 
d="M1264 63q10 -20 10 -36q0 -19 -15.5 -33t-35.5 -14q-38 0 -52 36l-131 306h-723l-127 -306q-14 -36 -51 -36q-21 0 -36 14t-15 33q0 15 8 36l535 1272q15 37 51 37q37 0 49 -37zM680 1212l-322 -794h641z" />
    <glyph glyph-name="uni0411" unicode="&#x411;" horiz-adv-x="1255" 
d="M983 1352q20 0 34.5 -13.5t14.5 -33.5t-14.5 -35t-34.5 -15h-676v-481h430q190 0 305 -106t115 -281t-115 -281t-305 -106h-481q-24 0 -39.5 15.5t-15.5 39.5v1241q0 24 15.5 40t39.5 16h727zM729 678h-422v-582h422q148 0 234 78t86 213t-85.5 213t-234.5 78z" />
    <glyph glyph-name="uni0412" unicode="&#x412;" horiz-adv-x="1255" 
d="M868 748q136 -32 212.5 -127.5t76.5 -235.5q0 -175 -114.5 -280t-305.5 -105h-481q-24 0 -39.5 15.5t-15.5 39.5v1241q0 24 15.5 40t39.5 16h403q166 0 265.5 -89.5t99.5 -240.5q0 -91 -41 -161.5t-115 -112.5zM649 1257l-342 -2v-479h342q123 0 193.5 64t70.5 176
q0 114 -69.5 177.5t-194.5 63.5zM727 96q148 0 235 78.5t87 212.5t-87 213.5t-235 79.5h-420v-584h420z" />
    <glyph glyph-name="uni0413" unicode="&#x413;" horiz-adv-x="1026" 
d="M934 1352q22 0 35.5 -13.5t13.5 -33.5q0 -21 -14 -35.5t-35 -14.5h-627v-1220q0 -24 -15.5 -39.5t-37.5 -15.5q-23 0 -38 15t-15 40v1261q0 24 15.5 40t39.5 16h678z" />
    <glyph glyph-name="uni0414" unicode="&#x414;" horiz-adv-x="1380" 
d="M1249 96q25 0 40.5 -16t15.5 -39v-295q0 -24 -15.5 -39.5t-38.5 -15.5q-22 0 -37.5 15.5t-15.5 39.5v254h-1042v-254q0 -24 -15 -39.5t-39 -15.5q-23 0 -38 15t-15 40v295q0 23 16 39t41 16h52q301 295 301 1123v77q0 23 16 39.5t39 16.5h580q23 0 39 -16.5t16 -39.5
v-1200h100zM563 1255q-2 -438 -70 -718t-214 -441h763v1159h-479z" />
    <glyph glyph-name="uni0415" unicode="&#x415;" horiz-adv-x="1153" 
d="M252 0q-23 0 -37 14.5t-14 36.5v1249q0 22 14 37t37 15h752q20 0 34.5 -13.5t14.5 -33.5t-14.5 -35t-34.5 -15h-697v-477h533q20 0 34.5 -13.5t14.5 -33.5t-14.5 -34.5t-34.5 -14.5h-533v-586h721q20 0 34.5 -13.5t14.5 -33.5t-14.5 -34.5t-34.5 -14.5h-776z" />
    <glyph glyph-name="uni0416" unicode="&#x416;" horiz-adv-x="1921" 
d="M242 1354l596 -580q22 -22 22 -45q0 -21 -20 -41l-645 -682q-23 -26 -50 -26q-22 0 -36.5 14.5t-14.5 36.5q0 16 15 35l632 663l-573 555q-18 18 -18 39q0 22 14.5 35.5t36.5 13.5q23 0 41 -18zM963 1372q23 0 38 -15t15 -40v-1282q0 -25 -15 -40t-38 -15t-38.5 15
t-15.5 40v1282q0 25 15.5 40t38.5 15zM1812 66q17 -17 17 -35q0 -22 -14.5 -36.5t-36.5 -14.5q-26 0 -49 26l-644 682q-22 22 -22 41q0 21 24 45l596 580q18 18 41 18q22 0 37 -14t15 -35q0 -20 -19 -39l-575 -555z" />
    <glyph glyph-name="uni0417" unicode="&#x417;" horiz-adv-x="1185" 
d="M809 743q125 -37 197.5 -130.5t72.5 -223.5q0 -177 -134.5 -293t-338.5 -116q-142 0 -264 62.5t-205 178.5q-14 25 -14 39q0 20 14.5 34.5t34.5 14.5q27 0 43 -24q159 -205 389 -205q157 0 262 88t105 221q0 127 -90.5 209t-231.5 82h-243q-22 0 -37 13.5t-15 33.5
t15 34.5t37 14.5h196q121 0 191.5 66.5t70.5 179.5q0 116 -75.5 184t-204.5 68q-189 0 -318 -150q-21 -24 -43 -24q-20 0 -34.5 14.5t-14.5 34.5t16 41q153 182 396 182q172 0 280.5 -96t108.5 -250q0 -94 -43.5 -167.5t-122.5 -115.5z" />
    <glyph glyph-name="uni0418" unicode="&#x418;" horiz-adv-x="1466" 
d="M1212 1372q23 0 38.5 -15t15.5 -38v-1284q0 -25 -15 -40t-39 -15q-23 0 -38 15t-15 40v1132l-864 -1167q-15 -20 -41 -20q-23 0 -38 15t-15 38v1284q0 25 15 40t38 15q22 0 37.5 -15.5t15.5 -39.5v-1131l864 1166q15 20 41 20z" />
    <glyph glyph-name="uni0419" unicode="&#x419;" horiz-adv-x="1466" 
d="M715 1516q-117 0 -204 76t-87 180q0 20 13.5 34.5t33.5 14.5q39 0 45 -49q9 -73 65 -120.5t134 -47.5t134 48t62 120q6 49 45 49q20 0 34 -14.5t14 -34.5q0 -104 -86 -180t-203 -76zM1212 1372q23 0 38.5 -15t15.5 -38v-1284q0 -25 -15 -40t-39 -15q-23 0 -38 15t-15 40
v1132l-864 -1167q-15 -20 -41 -20q-23 0 -38 15t-15 38v1284q0 25 15 40t38 15q22 0 37.5 -15.5t15.5 -39.5v-1131l864 1166q15 20 41 20z" />
    <glyph glyph-name="uni041A" unicode="&#x41a;" horiz-adv-x="1251" 
d="M254 1372q22 0 37.5 -15.5t15.5 -39.5v-1282q0 -24 -15.5 -39.5t-37.5 -15.5q-23 0 -38 15t-15 40v1282q0 25 15 40t38 15zM1139 68q20 -20 20 -41q0 -20 -14.5 -33.5t-34.5 -13.5q-23 0 -47 24l-688 688q-17 17 -17 37q0 22 19 41l624 571q31 31 54 31q22 0 36.5 -13.5
t14.5 -33.5q0 -21 -27 -45l-602 -553z" />
    <glyph glyph-name="uni041B" unicode="&#x41b;" horiz-adv-x="1312" 
d="M1057 1352q24 0 39.5 -16t15.5 -40v-1259q0 -25 -15 -41t-38 -16q-22 0 -37.5 16.5t-15.5 40.5v1218h-517q-3 -1096 -423 -1259q-18 -6 -29 -6q-20 0 -33.5 13.5t-13.5 33.5q0 35 39 49q354 156 354 1096v114q0 23 16 39.5t39 16.5h619z" />
    <glyph glyph-name="uni041C" unicode="&#x41c;" horiz-adv-x="1607" 
d="M1358 1372q21 0 35 -15t14 -38v-1286q0 -23 -15 -38t-38 -15t-38.5 15t-15.5 38v1112l-440 -682q-24 -37 -57 -37q-34 0 -58 37l-438 680v-1110q0 -23 -15.5 -38t-37.5 -15q-23 0 -38 15t-15 38v1286q0 23 13.5 38t35.5 15q19 0 31.5 -9t29.5 -34l492 -758l493 758
q15 25 28.5 34t33.5 9z" />
    <glyph glyph-name="uni041D" unicode="&#x41d;" horiz-adv-x="1445" 
d="M254 -20q-23 0 -38 15t-15 38v1286q0 23 15 38t38 15q22 0 37.5 -15t15.5 -38v-541h832v541q0 23 15 38t38 15t38 -15t15 -38v-1286q0 -23 -15 -38t-38 -15t-38 15t-15 38v649h-832v-649q0 -23 -15.5 -38t-37.5 -15z" />
    <glyph glyph-name="uni041E" unicode="&#x41e;" horiz-adv-x="1603" 
d="M801 1372q143 0 271.5 -54t221 -147t147 -222t54.5 -273q0 -143 -54.5 -272.5t-147 -222t-221 -147t-271.5 -54.5q-191 0 -350 92t-250.5 252t-91.5 352q0 144 54 273t146 222t220.5 147t271.5 54zM803 1274q-123 0 -231 -46t-185 -125t-121.5 -189.5t-44.5 -235.5
q0 -169 76 -306t209 -214.5t297 -77.5q162 0 294.5 78t208.5 215.5t76 304.5t-76 303.5t-208.5 214.5t-294.5 78z" />
    <glyph glyph-name="uni041F" unicode="&#x41f;" horiz-adv-x="1386" 
d="M254 -20q-23 0 -38 15t-15 40v1261q0 24 15.5 40t39.5 16h874q25 0 41.5 -16.5t16.5 -39.5v-1261q0 -25 -15 -40t-38 -15t-38.5 15t-15.5 40v1220h-774v-1220q0 -24 -15.5 -39.5t-37.5 -15.5z" />
    <glyph glyph-name="uni0420" unicode="&#x420;" horiz-adv-x="1159" 
d="M254 -20q-23 0 -38 15t-15 40v1261q0 24 15.5 40t39.5 16h403q185 0 297.5 -102t112.5 -271q0 -167 -113 -270t-297 -103h-352v-571q0 -24 -15.5 -39.5t-37.5 -15.5zM307 702h348q140 0 221.5 74t81.5 203q0 127 -81.5 201.5t-221.5 74.5h-348v-553z" />
    <glyph glyph-name="uni0421" unicode="&#x421;" horiz-adv-x="1458" 
d="M801 -20q-193 0 -351.5 91.5t-249.5 251t-91 353.5q0 144 54 273t146 222t220.5 147t271.5 54q156 0 292 -63.5t230 -180.5q20 -23 20 -45q0 -20 -14.5 -34.5t-34.5 -14.5q-26 0 -45 25q-175 215 -448 215q-162 0 -295.5 -78.5t-209 -215.5t-75.5 -304
q0 -126 44.5 -236.5t121.5 -189.5t184.5 -124.5t229.5 -45.5q275 0 448 213q18 24 45 24q20 0 34.5 -14.5t14.5 -34.5q0 -19 -20 -45q-92 -117 -228.5 -180t-293.5 -63z" />
    <glyph glyph-name="uni0422" unicode="&#x422;" horiz-adv-x="1181" 
d="M592 -20q-23 0 -38 15t-15 40v1220h-451q-20 0 -34.5 15t-14.5 35t14.5 33.5t34.5 13.5h1010q20 0 34.5 -13.5t14.5 -33.5t-14.5 -35t-34.5 -15h-453v-1220q0 -25 -15 -40t-38 -15z" />
    <glyph glyph-name="uni0423" unicode="&#x423;" horiz-adv-x="1230" 
d="M1085 1364q22 0 38 -15.5t16 -37.5q0 -14 -11 -33l-462 -1047q-115 -251 -367 -251q-69 0 -115 12q-19 3 -30 16.5t-11 32.5q0 20 15 34.5t37 14.5q5 0 38.5 -5t55.5 -5q104 0 170.5 42.5t107.5 135.5l17 37l-455 983q-8 19 -8 33q0 22 15.5 37.5t37.5 15.5q34 0 49 -37
l416 -915l395 915q18 37 51 37z" />
    <glyph glyph-name="uni0424" unicode="&#x424;" horiz-adv-x="1595" 
d="M1487 684q0 -248 -175 -398.5t-462 -150.5v-162q0 -25 -15 -41t-38 -16t-38.5 16t-15.5 41v162q-286 0 -460 151t-174 398q0 246 174 395.5t460 149.5v149q0 25 15.5 41.5t38.5 16.5t38 -16.5t15 -41.5v-149q287 0 462 -149.5t175 -395.5zM221 684q0 -209 140 -330
t382 -121v900q-241 0 -381.5 -121t-140.5 -328zM850 233q241 0 383.5 122t142.5 329t-142 328t-384 121v-900z" />
    <glyph glyph-name="uni0425" unicode="&#x425;" horiz-adv-x="1204" 
d="M1098 66q12 -14 12 -35q0 -23 -14 -37t-37 -14q-25 0 -43 24l-414 602l-414 -602q-18 -24 -45 -24q-22 0 -36.5 14t-14.5 37q0 13 17 37l434 626l-404 592q-12 18 -12 35q0 23 14.5 37t36.5 14q27 0 45 -24l381 -566l379 566q15 24 43 24q23 0 37 -14t14 -37
q0 -17 -14 -39l-399 -590z" />
    <glyph glyph-name="uni0426" unicode="&#x426;" horiz-adv-x="1400" 
d="M1116 1372q23 0 38 -15t15 -40v-1221h101q25 0 41 -16t16 -39v-295q0 -24 -15.5 -39.5t-37.5 -15.5q-23 0 -38 15t-15 40v254h-965q-24 0 -39.5 15.5t-15.5 39.5v1262q0 25 15 40t38 15q22 0 37.5 -15.5t15.5 -39.5v-1221h756v1221q0 25 15 40t38 15z" />
    <glyph glyph-name="uni0427" unicode="&#x427;" horiz-adv-x="1257" 
d="M1004 1372q23 0 38 -15t15 -40v-1282q0 -25 -15 -40t-38 -15q-24 0 -39 15t-15 40v530q-143 -57 -311 -57q-247 0 -388.5 144.5t-141.5 396.5v268q0 25 15 40t38 15t38 -15t15 -40v-262q0 -212 112.5 -329.5t315.5 -117.5q166 0 307 62v647q0 25 15 40t39 15z" />
    <glyph glyph-name="uni0428" unicode="&#x428;" horiz-adv-x="2078" 
d="M1827 1372q23 0 38 -15t15 -40v-1262q0 -23 -16 -39t-41 -16h-1567q-24 0 -39.5 15.5t-15.5 39.5v1262q0 25 15 40t38 15q22 0 37.5 -15.5t15.5 -39.5v-1221h680v1221q0 25 15 40t38 15q24 0 39 -15t15 -40v-1221h680v1221q0 25 15 40t38 15z" />
    <glyph glyph-name="uni0429" unicode="&#x429;" horiz-adv-x="2111" 
d="M1827 1372q23 0 38 -15t15 -40v-1221h100q24 0 40 -16t16 -39v-295q0 -24 -15 -39.5t-39 -15.5q-22 0 -37.5 15.5t-15.5 39.5v254h-1673q-24 0 -39.5 15.5t-15.5 39.5v1262q0 25 15 40t38 15q22 0 37.5 -15.5t15.5 -39.5v-1221h680v1221q0 25 15 40t38 15q24 0 39 -15
t15 -40v-1221h680v1221q0 25 15 40t38 15z" />
    <glyph glyph-name="uni042A" unicode="&#x42a;" horiz-adv-x="1302" 
d="M287 0q-25 0 -41.5 16t-16.5 39v1200h-206q-20 0 -35 15t-15 35t14.5 33.5t35.5 13.5h258q24 0 39.5 -16t15.5 -40v-508h420q196 0 314 -107t118 -286q0 -180 -118.5 -287.5t-313.5 -107.5h-469zM336 94h418q147 0 235 82t88 217q0 137 -87.5 218t-235.5 81h-418v-598z
" />
    <glyph glyph-name="uni042B" unicode="&#x42b;" horiz-adv-x="1777" 
d="M254 1372q22 0 37.5 -15.5t15.5 -39.5v-529h420q201 0 315.5 -110t114.5 -283q0 -174 -114 -284.5t-316 -110.5h-471q-24 0 -39.5 15.5t-15.5 39.5v1262q0 25 15 40t38 15zM1526 -20q-23 0 -38 15t-15 40v1282q0 25 15 40t38 15q22 0 37.5 -15.5t15.5 -39.5v-1282
q0 -24 -15.5 -39.5t-37.5 -15.5zM723 692h-416v-596h416q154 0 240 83.5t86 213.5q0 131 -85.5 215t-240.5 84z" />
    <glyph glyph-name="uni042C" unicode="&#x42c;" horiz-adv-x="1271" 
d="M254 1372q22 0 37.5 -15.5t15.5 -39.5v-529h420q201 0 315.5 -110t114.5 -283q0 -174 -114 -284.5t-316 -110.5h-471q-24 0 -39.5 15.5t-15.5 39.5v1262q0 25 15 40t38 15zM723 692h-416v-596h416q154 0 240 83.5t86 213.5q0 131 -85.5 215t-240.5 84z" />
    <glyph glyph-name="uni042D" unicode="&#x42d;" horiz-adv-x="1458" 
d="M657 1372q192 0 351 -92t250.5 -251.5t91.5 -352.5q0 -145 -53.5 -274t-146 -221.5t-221 -146.5t-272.5 -54q-157 0 -293.5 63t-228.5 180q-20 26 -20 45q0 20 14.5 34.5t34.5 14.5q27 0 45 -24q173 -213 448 -213q122 0 229.5 45.5t184.5 124.5t121.5 189.5t44.5 236.5
v6h-764q-20 0 -34.5 14.5t-14.5 34.5t14.5 33.5t34.5 13.5h756q-34 217 -193 356.5t-379 139.5q-273 0 -448 -215q-19 -25 -45 -25q-20 0 -34.5 14.5t-14.5 34.5q0 22 20 45q94 117 230 180.5t292 63.5z" />
    <glyph glyph-name="uni042E" unicode="&#x42e;" horiz-adv-x="2215" 
d="M1413 1372q143 0 272 -54t221.5 -147t146.5 -222t54 -273q0 -143 -54 -272t-146.5 -222t-221.5 -147.5t-272 -54.5q-190 0 -348 92t-249 252t-91 352v6h-418v-647q0 -24 -15.5 -39.5t-37.5 -15.5q-23 0 -38 15t-15 40v1282q0 25 15 40t38 15q22 0 37.5 -15.5t15.5 -39.5
v-539h424q37 257 228.5 425.5t453.5 168.5zM1415 80q122 0 230 46t185 125t122 190.5t45 236.5t-45 235.5t-122 189.5t-185 125t-230 46q-163 0 -295.5 -78t-208 -214.5t-75.5 -303.5q0 -168 75.5 -305t208 -215t295.5 -78z" />
    <glyph glyph-name="uni042F" unicode="&#x42f;" horiz-adv-x="1249" 
d="M993 1352q25 0 41.5 -16.5t16.5 -39.5v-1261q0 -25 -15.5 -40t-38.5 -15t-38 15t-15 40v520h-334q-35 0 -51 2l-377 -553q-16 -24 -47 -24q-22 0 -37.5 15t-15.5 38q0 15 12 33l352 512q-128 40 -200 138.5t-72 235.5q0 182 119 291t317 109h383zM944 651v604h-332
q-149 0 -239 -82t-90 -219q0 -138 90 -220.5t239 -82.5h332z" />
    <glyph glyph-name="uni0430" unicode="&#x430;" horiz-adv-x="1067" 
d="M522 1010q174 0 272.5 -103t98.5 -286v-590q0 -22 -14.5 -36.5t-36.5 -14.5t-38 15t-16 36v116q-55 -79 -145 -123t-203 -44q-152 0 -246 74t-94 194q0 121 93.5 192.5t250.5 71.5h344v113q0 137 -71.5 212.5t-200.5 75.5q-154 0 -272 -133q-20 -20 -43 -20q-19 0 -33 13
t-14 30q0 22 22 47q136 160 346 160zM451 70q141 0 239 87t98 212v55h-333q-120 0 -184 -45.5t-64 -128.5q0 -82 67 -131t177 -49z" />
    <glyph glyph-name="uni0431" unicode="&#x431;" horiz-adv-x="1288" 
d="M680 975q205 0 349.5 -141t144.5 -349q0 -140 -67 -255t-184.5 -181.5t-260.5 -66.5q-105 0 -197 38t-159.5 107t-106.5 171t-39 224v178q0 138 25 245t71.5 187t125 144t173 111t227.5 92l195 65q21 8 37 8q19 0 32 -14.5t13 -34.5q0 -32 -43 -49l-209 -70
q-147 -51 -244 -104.5t-166.5 -129.5t-100.5 -176.5t-32 -238.5q62 109 172.5 174.5t243.5 65.5zM668 78q166 0 281.5 118t115.5 289t-115 282.5t-280 111.5q-169 0 -286.5 -117.5t-117.5 -284.5q0 -166 117.5 -282.5t284.5 -116.5z" />
    <glyph glyph-name="uni0432" unicode="&#x432;" horiz-adv-x="1130" 
d="M813 524q92 -28 141.5 -89.5t49.5 -149.5q0 -128 -93 -206.5t-245 -78.5h-410q-22 0 -37.5 15.5t-15.5 37.5v883q0 22 15.5 37.5t37.5 15.5h383q138 0 218.5 -66t80.5 -180q0 -72 -32.5 -128.5t-92.5 -90.5zM307 895v-332h330q94 0 146.5 45.5t52.5 128.5q0 77 -51 117.5
t-148 40.5h-330zM659 94q110 0 176 52.5t66 140.5q0 86 -64.5 134t-177.5 48h-352v-375h352z" />
    <glyph glyph-name="uni0433" unicode="&#x433;" horiz-adv-x="892" 
d="M256 -20q-22 0 -37.5 14.5t-15.5 36.5v905q0 22 15.5 37.5t37.5 15.5h571q21 0 35.5 -13.5t14.5 -33.5t-14.5 -33.5t-35.5 -13.5h-520v-864q0 -22 -14.5 -36.5t-36.5 -14.5z" />
    <glyph glyph-name="uni0434" unicode="&#x434;" horiz-adv-x="1218" 
d="M1071 94q23 0 38 -15.5t15 -37.5v-299q0 -22 -14.5 -36.5t-36.5 -14.5t-36.5 14.5t-14.5 36.5v258h-838v-258q0 -22 -14.5 -36.5t-36.5 -14.5t-36.5 14.5t-14.5 36.5v299q0 22 15.5 37.5t37.5 15.5h49q104 107 152.5 309.5t48.5 530.5v2q0 23 15 38t38 15h475
q22 0 38 -15.5t16 -37.5v-842h104zM487 895q-2 -317 -44.5 -504.5t-141.5 -296.5h561v801h-375z" />
    </font>
</defs>
</svg>
