<?xml version="1.0" standalone="no"?>
<!DOCTYPE svg PUBLIC "-//W3C//DTD SVG 1.1//EN" "http://www.w3.org/Graphics/SVG/1.1/DTD/svg11.dtd" >
<svg xmlns="http://www.w3.org/2000/svg" xmlns:xlink="http://www.w3.org/1999/xlink" version="1.1">
<metadata>
Created by FontForge 20170731 at Wed Nov 16 16:45:46 2022
 By Aleksey,,,
Copyright (c) 2016 by Jakob Runge and Lisa Fischbach, under exclusive license to TypeMates. All rights reserved.
</metadata>
<defs>
<font id="CeraRoundPro-Bold" horiz-adv-x="1146" >
  <font-face 
    font-family="Cera Round Pro"
    font-weight="700"
    font-stretch="normal"
    units-per-em="2048"
    panose-1="0 0 8 0 0 0 0 0 0 0"
    ascent="1655"
    descent="-393"
    x-height="1014"
    cap-height="1352"
    bbox="-356 -520 2808 2114.21"
    underline-thickness="178"
    underline-position="-382"
    unicode-range="U+0020-FB02"
  />
<missing-glyph horiz-adv-x="1460" 
d="M1171 1352q57 0 95.5 -38.5t38.5 -96.5v-1082q0 -58 -38.5 -96.5t-95.5 -38.5h-882q-57 0 -95 38.5t-38 96.5v1082q0 58 38 96.5t95 38.5h882zM1116 158v1022h-776z" />
    <glyph glyph-name="fi" unicode="fi" horiz-adv-x="1282" 
d="M692 1534q32 -14 51 -43.5t19 -67.5q0 -51 -33 -81.5t-88 -30.5q-3 0 -14 1t-19 1q-70 0 -108.5 -41.5t-38.5 -116.5v-141h127q51 0 84 -33t33 -84t-33 -84t-84 -33h-127v-663q0 -61 -39 -101.5t-98 -40.5q-60 0 -100 41t-40 101v663h-45q-51 0 -85 33t-34 84t34 84
t85 33h45v166q0 180 100 280.5t277 100.5q75 0 131 -27zM1008 1217q-72 0 -123 48t-51 117q0 70 51 119t123 49q70 0 121 -49t51 -119q0 -68 -51 -116.5t-121 -48.5zM1008 1036q59 0 98 -39.5t39 -99.5v-780q0 -60 -39.5 -101t-99.5 -41q-58 0 -98 41t-40 101v780
q0 60 40 99.5t100 39.5z" />
    <glyph glyph-name="fl" unicode="fl" horiz-adv-x="1282" 
d="M692 1534q32 -14 51 -43.5t19 -67.5q0 -51 -33 -81.5t-88 -30.5q-3 0 -14 1t-19 1q-70 0 -108.5 -41.5t-38.5 -116.5v-141h127q51 0 84 -33t33 -84t-33 -84t-84 -33h-127v-663q0 -61 -39 -101.5t-98 -40.5q-60 0 -100 41t-40 101v663h-45q-51 0 -85 33t-34 84t34 84
t85 33h45v166q0 180 100 280.5t277 100.5q75 0 131 -27zM1008 1561q58 0 97.5 -41t39.5 -101v-1302q0 -60 -39.5 -101t-97.5 -41q-60 0 -100 41t-40 101v1302q0 60 40 101t100 41z" />
    <glyph glyph-name=".notdef" horiz-adv-x="1460" 
d="M1171 1352q57 0 95.5 -38.5t38.5 -96.5v-1082q0 -58 -38.5 -96.5t-95.5 -38.5h-882q-57 0 -95 38.5t-38 96.5v1082q0 58 38 96.5t95 38.5h882zM1116 158v1022h-776z" />
    <glyph glyph-name=".null" horiz-adv-x="0" 
 />
    <glyph glyph-name="nonmarkingreturn" horiz-adv-x="682" 
 />
    <glyph glyph-name="space" unicode=" " horiz-adv-x="573" 
 />
    <glyph glyph-name="exclam" unicode="!" horiz-adv-x="706" 
d="M354 428q-60 0 -97.5 41t-39.5 100l-22 637q-3 75 40.5 122.5t118.5 47.5q73 0 117 -48t41 -122l-23 -637q-3 -59 -40.5 -100t-94.5 -41zM356 -25q-78 0 -130 52t-52 127q0 74 52.5 127t129.5 53q75 0 125.5 -52.5t50.5 -127.5q0 -76 -50 -127.5t-126 -51.5z" />
    <glyph glyph-name="quotedbl" unicode="&#x22;" horiz-adv-x="1101" 
d="M256 700q-53 0 -89 35.5t-36 87.5q0 14 20.5 130t20.5 216q0 78 41.5 124t110.5 46q71 0 112 -44.5t41 -120.5q0 -61 -24.5 -174t-53.5 -183q-28 -66 -58.5 -91.5t-84.5 -25.5zM741 700q-53 0 -89 35.5t-36 87.5q0 14 20.5 130t20.5 216q0 78 41.5 124t110.5 46
q71 0 112.5 -44.5t41.5 -120.5q0 -61 -24.5 -174t-53.5 -183q-28 -66 -59 -91.5t-85 -25.5z" />
    <glyph glyph-name="numbersign" unicode="#" horiz-adv-x="1292" 
d="M1137 817h-95l-36 -282h96q43 0 72.5 -33t29.5 -84q0 -50 -33 -82.5t-84 -32.5h-114l-31 -235q-6 -40 -39 -66.5t-74 -26.5q-47 0 -79.5 33.5t-32.5 79.5q0 14 2 37l24 178h-294l-33 -235q-4 -39 -36.5 -66t-74.5 -27q-47 0 -81 33.5t-34 79.5q0 9 7 45l22 170h-61
q-52 0 -85.5 32.5t-33.5 82.5q0 51 33.5 84t85.5 33h94l37 282h-82q-51 0 -84 33t-33 84q0 50 33 82.5t84 32.5h112l33 235q4 38 36.5 64t74.5 26q47 0 79.5 -33t32.5 -79q0 -13 -2 -33l-24 -180h295l33 235q4 38 36.5 64t75.5 26q46 0 79.5 -33t33.5 -79q0 -13 -4 -33
l-25 -180h64q51 0 83.5 -32.5t32.5 -82.5q0 -51 -32.5 -84t-83.5 -33zM477 522h295l43 307h-295z" />
    <glyph glyph-name="dollar" unicode="$" horiz-adv-x="1101" 
d="M1010 410q0 -144 -93.5 -239t-246.5 -120v-145q0 -56 -34.5 -92.5t-86.5 -36.5t-86.5 36.5t-34.5 90.5v151q-197 42 -301 189q-27 39 -27 75q0 54 36.5 87.5t84.5 33.5q49 0 86 -37q106 -118 254 -118q79 0 128.5 31t49.5 90q0 49 -38 78.5t-119 62.5l-140 51
q-305 114 -305 356q0 125 80 213.5t211 120.5v142q0 55 34 90.5t87 35.5t87 -35.5t34 -90.5v-138q169 -37 264 -172q27 -42 27 -73q0 -55 -35.5 -89t-83.5 -34q-49 0 -86 37q-89 96 -201 96q-63 0 -105 -25.5t-42 -79.5q0 -46 33 -73.5t104 -55.5l153 -53q156 -58 234 -146
t78 -214z" />
    <glyph glyph-name="percent" unicode="%" horiz-adv-x="1701" 
d="M434 702q-148 0 -248 97.5t-100 240.5q0 141 100.5 238.5t247.5 97.5q146 0 247 -98t101 -238q0 -142 -101 -240t-247 -98zM504 -25q-41 0 -69.5 29.5t-28.5 69.5q0 33 14 55l692 1196q30 51 86 51q41 0 69.5 -29t28.5 -69q0 -33 -14 -55l-692 -1196q-27 -52 -86 -52z
M436 893q59 0 97 41.5t38 105.5q0 62 -38.5 104t-96.5 42q-60 0 -98.5 -41t-38.5 -105q0 -66 37.5 -106.5t99.5 -40.5zM1268 -23q-147 0 -247.5 98t-100.5 240q0 141 100.5 238.5t247.5 97.5q146 0 248 -97.5t102 -238.5t-102 -239.5t-248 -98.5zM1270 170q58 0 95.5 41
t37.5 104t-37.5 104.5t-95.5 41.5q-62 0 -99.5 -40t-37.5 -106q0 -65 38 -105t99 -40z" />
    <glyph glyph-name="ampersand" unicode="&#x26;" horiz-adv-x="1380" 
d="M1247 199q39 -36 39 -93q0 -54 -38.5 -92.5t-92.5 -38.5q-53 0 -92 39l-117 123q-185 -162 -407 -162q-198 0 -321.5 105t-123.5 272q0 108 60 197.5t211 208.5q-62 77 -89.5 146.5t-27.5 148.5q0 145 94 234t248 89q149 0 241.5 -83t92.5 -214q0 -88 -48 -168.5
t-153 -169.5l217 -225q43 59 100 146q50 69 119 69q51 0 88 -37.5t37 -89.5q0 -44 -49 -115q-64 -96 -113 -159zM588 1141q-43 0 -67.5 -23.5t-24.5 -66.5q0 -74 75 -152q59 46 82 80.5t23 73.5q0 41 -23.5 64.5t-64.5 23.5zM555 219q107 0 219 103l-250 264
q-93 -75 -123 -115.5t-30 -91.5q0 -71 50.5 -115.5t133.5 -44.5z" />
    <glyph glyph-name="quotesingle" unicode="'" horiz-adv-x="616" 
d="M256 700q-53 0 -89 35.5t-36 87.5q0 14 20.5 130t20.5 216q0 78 41.5 124t110.5 46q71 0 112 -44.5t41 -120.5q0 -61 -24.5 -174t-53.5 -183q-28 -66 -58.5 -91.5t-84.5 -25.5z" />
    <glyph glyph-name="parenleft" unicode="(" horiz-adv-x="747" 
d="M578 -254q-34 0 -72 25q-171 111 -268 326.5t-97 523.5q0 309 97 524.5t268 327.5q40 24 72 24q43 0 73.5 -31.5t30.5 -72.5q0 -49 -47 -90q-252 -219 -252 -682q0 -465 252 -680q47 -41 47 -91q0 -42 -30 -73t-74 -31z" />
    <glyph glyph-name="parenright" unicode=")" horiz-adv-x="747" 
d="M170 -260q-44 0 -74 31t-30 73q0 49 47 90q252 215 252 680q0 463 -252 682q-47 41 -47 90q0 41 30.5 73t73.5 32q30 0 72 -25q171 -111 267.5 -327t96.5 -525q0 -308 -96.5 -523.5t-267.5 -326.5q-36 -24 -72 -24z" />
    <glyph glyph-name="asterisk" unicode="*" horiz-adv-x="956" 
d="M809 1042q53 -29 53 -84q0 -44 -28.5 -72t-65.5 -28q-28 0 -57 16l-136 78v-155q0 -50 -28 -77.5t-68 -27.5q-41 0 -69.5 27.5t-28.5 77.5v155l-135 -78q-29 -16 -58 -16q-52 0 -82 49q-12 24 -12 51q0 55 53 84l138 80l-138 78q-53 29 -53 84q0 41 28.5 70.5t65.5 29.5
q29 0 58 -16l135 -78v156q0 50 28.5 77t69.5 27q40 0 68 -27t28 -77v-156l136 78q29 16 57 16q52 0 82 -49q12 -24 12 -51q0 -55 -53 -84l-137 -78z" />
    <glyph glyph-name="plus" unicode="+" 
d="M575 158q-57 0 -94 38t-37 97v235h-249q-59 0 -93 36.5t-34 88.5q0 53 34 89t93 36h249v238q0 57 37 95t94 38t95.5 -38t38.5 -95v-238h245q58 0 91.5 -36t33.5 -89q0 -52 -33.5 -88.5t-91.5 -36.5h-245v-235q0 -58 -38.5 -96.5t-95.5 -38.5z" />
    <glyph glyph-name="comma" unicode="," horiz-adv-x="552" 
d="M219 -393q-57 0 -94 35.5t-37 89.5q0 17 20.5 140.5t20.5 229.5q0 78 42.5 124t111.5 46q71 0 112 -45t41 -121q0 -63 -25.5 -184t-54.5 -196q-26 -64 -58 -91.5t-79 -27.5z" />
    <glyph glyph-name="hyphen" unicode="-" horiz-adv-x="700" 
d="M508 772q51 0 84 -32.5t33 -82.5t-33 -83t-84 -33h-313q-51 0 -84 33t-33 83t33 82.5t84 32.5h313z" />
    <glyph glyph-name="period" unicode="." horiz-adv-x="552" 
d="M279 -25q-83 0 -138 55.5t-55 135.5q0 79 55.5 134.5t137.5 55.5q81 0 134.5 -55.5t53.5 -134.5q0 -80 -53.5 -135.5t-134.5 -55.5z" />
    <glyph glyph-name="slash" unicode="/" horiz-adv-x="1382" 
d="M201 -272q-52 0 -90.5 38t-38.5 89q0 41 26 82l951 1599q38 61 108 61q52 0 89.5 -38t37.5 -91q0 -42 -24 -79l-951 -1600q-38 -61 -108 -61z" />
    <glyph glyph-name="zero" unicode="0" horiz-adv-x="1300" 
d="M651 1376q251 0 393 -183t142 -507q0 -329 -144 -520t-391 -191q-249 0 -392.5 191t-143.5 520q0 324 142 507t394 183zM651 1120q-128 0 -190 -107.5t-62 -328.5q0 -224 63.5 -338.5t188.5 -114.5q250 0 250 453q0 221 -62 328.5t-188 107.5z" />
    <glyph glyph-name="one" unicode="1" horiz-adv-x="821" 
d="M502 1376q55 0 94 -41t39 -98v-1120q0 -66 -36.5 -104t-102.5 -38t-102 38t-36 104v923l-131 -57q-31 -14 -63 -14q-53 0 -90 38t-37 93q0 85 86 121l307 139q50 16 72 16z" />
    <glyph glyph-name="two" unicode="2" horiz-adv-x="1196" 
d="M965 260q58 0 96.5 -36.5t38.5 -92.5q0 -57 -38 -94t-97 -37l-736 -2q-57 0 -97 40t-40 97q0 66 58 115l413 350q114 96 158.5 167.5t44.5 154.5q0 91 -50.5 144.5t-135.5 53.5q-75 0 -126 -46t-61 -124q-1 -11 -4 -31t-4 -28q-7 -55 -45 -88t-92 -33q-56 0 -94.5 37.5
t-42.5 97.5q-6 39 4 103q28 162 159.5 265t313.5 103q201 0 332 -124.5t131 -315.5q0 -132 -73.5 -250t-248.5 -264l-192 -162h428z" />
    <glyph glyph-name="three" unicode="3" horiz-adv-x="1124" 
d="M680 854q156 -26 254 -140t98 -272q0 -200 -145.5 -333.5t-364.5 -133.5q-134 0 -249 57.5t-193 164.5q-23 38 -23 73q0 52 37 88.5t90 36.5q55 0 90 -41q106 -123 240 -123q105 0 170.5 57t65.5 152t-71 145t-206 50h-41q-56 0 -92.5 36t-36.5 91q0 31 15 56t51 56
l252 228h-392q-54 0 -90.5 35.5t-36.5 89.5t36.5 89.5t90.5 35.5h639q57 0 97.5 -41t40.5 -97q0 -63 -60 -114z" />
    <glyph glyph-name="four" unicode="4" horiz-adv-x="1181" 
d="M1036 477q59 0 95 -38.5t36 -90.5q0 -50 -36 -88.5t-95 -38.5h-55v-104q0 -60 -40 -101t-99 -41q-58 0 -97.5 41t-39.5 101v104h-535q-57 0 -97 40t-40 97q0 30 12 60l379 868q18 40 52.5 65t76.5 25q57 0 98 -41t41 -98q0 -22 -10 -49l-307 -711h330v225q0 59 39 99.5
t98 40.5q58 0 98.5 -40.5t40.5 -99.5v-225h55z" />
    <glyph glyph-name="five" unicode="5" horiz-adv-x="1155" 
d="M594 872q129 0 235 -51t170 -150t64 -227q0 -135 -69 -243t-187 -167t-262 -59q-143 0 -260 59t-193 161q-24 34 -24 75q0 53 37.5 90t91.5 37q59 0 92 -41q106 -125 248 -125q107 0 174 57.5t67 151.5q0 96 -70 145.5t-206 49.5h-176q-60 0 -100 39.5t-40 99.5v438
q0 60 40 100t100 40h540q55 0 91 -35.5t36 -89.5q0 -53 -36 -89t-91 -36h-413v-230h141z" />
    <glyph glyph-name="six" unicode="6" horiz-adv-x="1150" 
d="M647 918q175 -9 299.5 -143t124.5 -316q0 -132 -66 -243.5t-180 -176t-250 -64.5q-137 0 -251.5 65t-180 176.5t-65.5 244.5q0 114 53.5 222t181.5 253l314 371q63 69 125 69q57 0 97 -38t40 -91q0 -50 -41 -94zM575 229q94 0 159 66.5t65 163.5t-64.5 162t-159.5 65
t-159 -65t-64 -162t64 -163.5t159 -66.5z" />
    <glyph glyph-name="seven" unicode="7" horiz-adv-x="1075" 
d="M889 1352q57 0 98 -41t41 -97q0 -38 -16 -65l-615 -1104q-19 -32 -50.5 -51t-67.5 -19q-57 0 -98.5 41.5t-41.5 98.5q0 29 19 67l514 920h-465q-55 0 -92 36t-37 89q0 54 36.5 89.5t92.5 35.5h682z" />
    <glyph glyph-name="eight" unicode="8" horiz-adv-x="1204" 
d="M846 700q262 -107 262 -340q0 -176 -141 -280.5t-365 -104.5q-225 0 -366.5 104.5t-141.5 280.5q0 235 266 340q-204 119 -204 318q0 168 126 263t320 95q127 0 227 -40.5t160 -123t60 -194.5q0 -200 -203 -318zM602 1153q-82 0 -135 -39t-53 -108q0 -61 46 -103t142 -86
q97 45 143 86.5t46 104.5q0 67 -54 106t-135 39zM602 201q113 0 172.5 46.5t59.5 123.5t-58 124t-174 89q-116 -43 -173.5 -90t-57.5 -123t59.5 -123t171.5 -47z" />
    <glyph glyph-name="nine" unicode="9" horiz-adv-x="1150" 
d="M575 1376q137 0 251.5 -64.5t180.5 -176t66 -244.5q0 -114 -53.5 -222t-181.5 -253l-314 -371q-64 -70 -125 -70q-57 0 -97 38t-40 91q0 51 41 95l201 235q-175 9 -299.5 143t-124.5 316q0 132 65.5 243t179.5 175.5t250 64.5zM575 666q95 0 159.5 65t64.5 162t-64.5 163
t-159.5 66q-94 0 -158.5 -66t-64.5 -163t64 -162t159 -65z" />
    <glyph glyph-name="colon" unicode=":" horiz-adv-x="552" 
d="M279 651q-83 0 -138 55.5t-55 135.5q0 79 55.5 134.5t137.5 55.5q81 0 134.5 -55.5t53.5 -134.5q0 -80 -53.5 -135.5t-134.5 -55.5zM279 -25q-83 0 -138 55.5t-55 135.5q0 79 55.5 134.5t137.5 55.5q81 0 134.5 -55.5t53.5 -134.5q0 -80 -53.5 -135.5t-134.5 -55.5z" />
    <glyph glyph-name="semicolon" unicode=";" horiz-adv-x="552" 
d="M279 651q-83 0 -138 55.5t-55 135.5q0 79 55.5 134.5t137.5 55.5q81 0 134.5 -55.5t53.5 -134.5q0 -80 -53.5 -135.5t-134.5 -55.5zM219 -393q-57 0 -94 35.5t-37 89.5q0 17 20.5 140.5t20.5 229.5q0 78 42.5 124t111.5 46q71 0 112 -45t41 -121q0 -63 -25.5 -184
t-54.5 -196q-26 -64 -58 -91.5t-79 -27.5z" />
    <glyph glyph-name="less" unicode="&#x3c;" 
d="M965 449q79 -39 79 -109q0 -48 -33.5 -81.5t-82.5 -33.5q-22 0 -62 15l-698 303q-92 40 -92 116q0 73 92 115l688 299q49 21 72 21q49 0 82.5 -34t33.5 -81q0 -72 -79 -111l-473 -209z" />
    <glyph glyph-name="equal" unicode="=" 
d="M934 993q51 0 85 -32.5t34 -83.5t-34 -84t-85 -33h-719q-52 0 -85.5 33t-33.5 84t33.5 83.5t85.5 32.5h719zM934 553q51 0 85 -33.5t34 -83.5q0 -51 -34 -84t-85 -33h-719q-52 0 -85.5 33t-33.5 84q0 50 33.5 83.5t85.5 33.5h719z" />
    <glyph glyph-name="greater" unicode="&#x3e;" 
d="M979 774q92 -42 92 -115q0 -76 -92 -116l-698 -303q-40 -15 -62 -15q-49 0 -83 33.5t-34 81.5q0 70 80 109l473 210l-473 209q-80 39 -80 111q0 46 34 80.5t83 34.5q23 0 72 -21z" />
    <glyph glyph-name="question" unicode="?" horiz-adv-x="925" 
d="M414 430q-54 0 -92.5 35t-38.5 86v20q0 59 30.5 107.5t120.5 132.5q80 71 105.5 108t25.5 80q0 52 -35 87.5t-86 35.5q-87 0 -141 -96q-51 -72 -115 -72q-52 0 -87 36t-35 89q0 39 28 90q52 100 145.5 153.5t213.5 53.5q170 0 284.5 -98t114.5 -244q0 -75 -38.5 -141
t-127.5 -141q-79 -70 -110.5 -113.5t-32.5 -85.5l-2 -18q-5 -45 -40.5 -75t-86.5 -30zM420 -25q-78 0 -130 52t-52 127q0 74 52.5 127t129.5 53q75 0 125.5 -52.5t50.5 -127.5q0 -76 -50 -127.5t-126 -51.5z" />
    <glyph glyph-name="at" unicode="@" horiz-adv-x="1951" 
d="M1004 1364q185 0 346 -62t275.5 -170.5t180.5 -261.5t66 -329q0 -202 -111 -330.5t-284 -128.5q-196 0 -260 137q-37 -86 -116 -133t-186 -47q-180 0 -295.5 126t-115.5 320t115.5 319.5t295.5 125.5q175 0 265 -117q3 48 36 80.5t80 32.5q49 0 82 -35t33 -86v-416
q0 -94 94 -94q63 0 106.5 70.5t43.5 175.5q0 280 -175 446t-470 166q-206 0 -367.5 -83.5t-251.5 -234.5t-90 -343q0 -188 87.5 -338.5t243.5 -235t351 -84.5q35 0 95.5 9t82.5 10q44 3 77 -24.5t36 -70.5q2 -36 -17.5 -65t-52.5 -39q-124 -31 -250 -31q-183 0 -345.5 66.5
t-279 180.5t-184 274.5t-67.5 342.5q0 184 71 346.5t194 279t295 184t366 67.5zM965 268q89 0 144.5 60t55.5 157t-54.5 157t-143.5 60q-91 0 -149 -61t-58 -156q0 -94 58 -155.5t147 -61.5z" />
    <glyph glyph-name="A" unicode="A" horiz-adv-x="1355" 
d="M1270 182q16 -39 16 -73q0 -56 -38.5 -95t-96.5 -39q-89 0 -131 99l-57 139h-572l-57 -139q-39 -99 -129 -99q-58 0 -97.5 39t-39.5 95q0 27 16 73l463 1100q39 94 131 94t131 -94zM678 969l-197 -529h389z" />
    <glyph glyph-name="B" unicode="B" horiz-adv-x="1269" 
d="M961 731q115 -40 178 -126.5t63 -207.5q0 -175 -125 -286t-321 -111h-461q-61 0 -101 40t-40 101v1069q0 62 40 102t101 40h338q189 0 308.5 -105t119.5 -272q0 -152 -100 -244zM612 1114h-190v-309h190q82 0 129 42t47 114t-47 112.5t-129 40.5zM735 238q91 0 142 44.5
t51 125.5q0 80 -51 125t-142 45h-313v-340h313z" />
    <glyph glyph-name="C" unicode="C" horiz-adv-x="1474" 
d="M797 -25q-150 0 -283.5 54.5t-229 148t-151 223.5t-55.5 275q0 194 95 354.5t260.5 253t365.5 92.5q155 0 293 -62t229 -171q43 -49 43 -103q0 -51 -37.5 -88t-91.5 -37q-59 0 -107 54q-130 151 -329 151q-191 0 -314 -125.5t-123 -320.5q0 -193 123 -318t314 -125
q193 0 327 152q50 53 109 53q53 0 90 -37t37 -88t-43 -102q-90 -109 -228 -171.5t-294 -62.5z" />
    <glyph glyph-name="D" unicode="D" horiz-adv-x="1413" 
d="M598 1352q217 0 384 -84t259 -237t92 -351t-93 -353t-260.5 -241t-381.5 -86h-303q-61 0 -101 40t-40 101v1069q0 62 40 102t101 40h303zM596 1102h-166v-852h166q205 0 330 118t125 312q0 195 -122 308.5t-333 113.5z" />
    <glyph glyph-name="E" unicode="E" horiz-adv-x="1171" 
d="M291 0q-59 0 -98 39t-39 98v1077q0 59 39.5 98.5t97.5 39.5h661q55 0 91 -35.5t36 -89.5q0 -53 -36.5 -89t-90.5 -36h-522v-275h358q52 0 86.5 -33.5t34.5 -84.5q0 -50 -34.5 -83.5t-86.5 -33.5h-358v-342h547q55 0 91 -36t36 -89q0 -54 -36.5 -89.5t-90.5 -35.5h-686z
" />
    <glyph glyph-name="F" unicode="F" horiz-adv-x="1093" 
d="M293 -25q-61 0 -100 40.5t-39 101.5v1093q0 62 40 102t101 40h637q55 0 91 -35.5t36 -89.5q0 -53 -36.5 -89t-90.5 -36h-502v-338h391q55 0 91 -36t36 -89q0 -54 -36.5 -89.5t-90.5 -35.5h-391v-397q0 -61 -38.5 -101.5t-98.5 -40.5z" />
    <glyph glyph-name="G" unicode="G" horiz-adv-x="1529" 
d="M801 -25q-151 0 -285 54.5t-230 147.5t-152 223t-56 276t56 275.5t152 223t230 147.5t285 54q138 0 267 -51t212 -139q84 -78 84 -146q0 -51 -37.5 -88t-89.5 -37q-61 0 -117 62q-134 143 -323 143q-192 0 -313.5 -123t-121.5 -321q0 -201 125.5 -327t325.5 -126
q112 0 204.5 42.5t151.5 119.5v117h-258q-55 0 -92 34t-37 85q0 52 36.5 86t92.5 34h394q61 0 101 -39.5t40 -101.5v-174q0 -89 -43 -154q-92 -135 -257 -216t-345 -81z" />
    <glyph glyph-name="H" unicode="H" horiz-adv-x="1458" 
d="M293 -25q-60 0 -99.5 41t-39.5 103v1114q0 62 39 102.5t100 40.5q60 0 98.5 -40.5t38.5 -102.5v-399h598v401q0 62 39 101.5t100 39.5q60 0 99 -40t39 -101v-1116q0 -61 -39.5 -102.5t-98.5 -41.5q-60 0 -99.5 41t-39.5 103v465h-598v-465q0 -61 -39 -102.5t-98 -41.5z
" />
    <glyph glyph-name="I" unicode="I" horiz-adv-x="583" 
d="M293 -25q-61 0 -100 40.5t-39 101.5v1118q0 61 39 101t100 40q60 0 98.5 -40.5t38.5 -100.5v-1118q0 -61 -38.5 -101.5t-98.5 -40.5z" />
    <glyph glyph-name="J" unicode="J" horiz-adv-x="794" 
d="M217 -25q-75 0 -127 19q-35 15 -57.5 47.5t-22.5 69.5q0 52 36.5 87t92.5 35q16 0 48.5 -3t50.5 -3q59 0 93 36t34 99v873q0 61 39 101t100 40q60 0 98.5 -40.5t38.5 -100.5v-875q0 -191 -106.5 -288t-317.5 -97z" />
    <glyph glyph-name="K" unicode="K" horiz-adv-x="1372" 
d="M293 1376q58 0 97.5 -40.5t39.5 -100.5v-1118q0 -60 -39.5 -101t-97.5 -41q-60 0 -99.5 41t-39.5 101v1118q0 61 39 101t100 40zM1241 190q35 -41 35 -84q0 -53 -38.5 -92t-90.5 -39q-62 0 -111 58l-514 592q-37 43 -37 92q0 46 39 88l488 526q45 45 100 45
q51 0 88 -37.5t37 -91.5q0 -48 -41 -92l-408 -440z" />
    <glyph glyph-name="L" unicode="L" horiz-adv-x="1071" 
d="M295 0q-61 0 -101 40t-40 101v1094q0 57 39.5 99t99.5 42t98.5 -40.5t38.5 -100.5v-985h481q55 0 91 -36t36 -89q0 -54 -36 -89.5t-91 -35.5h-616z" />
    <glyph glyph-name="M" unicode="M" horiz-adv-x="1630" 
d="M1341 1376q58 0 97 -40.5t39 -102.5v-1116q0 -60 -40 -101t-98 -41q-60 0 -99.5 41t-39.5 101v667l-254 -399q-30 -46 -60 -67t-71 -21q-75 0 -131 88l-254 403v-671q0 -60 -39.5 -101t-97.5 -41q-60 0 -99.5 41t-39.5 101v1116q0 62 38.5 102.5t96.5 40.5q44 0 77 -24
t68 -82l381 -604l381 604q37 59 69 82.5t76 23.5z" />
    <glyph glyph-name="N" unicode="N" horiz-adv-x="1458" 
d="M1167 1376q59 0 98.5 -40.5t39.5 -100.5v-1120q0 -59 -39 -99.5t-97 -40.5q-32 0 -58.5 13.5t-40.5 27.5t-38 43l-602 775v-717q0 -60 -39.5 -101t-97.5 -41q-60 0 -99.5 41t-39.5 101v1120q0 59 39 99t96 40q33 0 60 -14t40.5 -28t40.5 -48l600 -768l-2 717
q0 60 39.5 100.5t99.5 40.5z" />
    <glyph glyph-name="O" unicode="O" horiz-adv-x="1593" 
d="M795 1376q198 0 364 -93t261.5 -254t95.5 -353q0 -144 -56.5 -274t-152.5 -223.5t-229.5 -148.5t-282.5 -55t-282 54.5t-228 148t-151 223.5t-56 275q0 193 95 354t259.5 253.5t362.5 92.5zM797 1120q-191 0 -313 -124.5t-122 -319.5t122 -320t313 -125
q189 0 311.5 125.5t122.5 319.5q0 193 -122.5 318.5t-311.5 125.5z" />
    <glyph glyph-name="P" unicode="P" horiz-adv-x="1214" 
d="M293 -25q-60 0 -99.5 41t-39.5 101v1093q0 62 40 102t101 40h369q217 0 351 -121t134 -316q0 -193 -135.5 -315.5t-349.5 -122.5h-234v-360q0 -60 -39.5 -101t-97.5 -41zM430 719h232q95 0 149.5 52.5t54.5 143.5q0 88 -54.5 140.5t-149.5 52.5h-232v-389z" />
    <glyph glyph-name="Q" unicode="Q" horiz-adv-x="1593" 
d="M2068 -213q54 0 85.5 -29t31.5 -80q0 -75 -74 -102q-72 -29 -190 -29q-278 0 -509.5 119.5t-389.5 343.5q-110 -35 -227 -35q-149 0 -282 54.5t-228 148t-151 223.5t-56 275q0 193 95 354t259.5 253.5t362.5 92.5t364 -93t261.5 -254t95.5 -353q0 -163 -70.5 -305.5
t-194.5 -239.5q138 -179 312 -263.5t405 -84.5q26 0 59.5 2t40.5 2zM362 676q0 -194 122.5 -319.5t312.5 -125.5q189 0 311.5 125.5t122.5 319.5t-123 319t-313 125q-189 0 -311 -124.5t-122 -319.5z" />
    <glyph glyph-name="R" unicode="R" horiz-adv-x="1310" 
d="M1182 207q39 -58 39 -105q0 -52 -38 -89.5t-91 -37.5q-72 0 -123 72l-303 430h-2h-234v-360q0 -60 -39.5 -101t-97.5 -41q-60 0 -99.5 41t-39.5 101v1095q0 60 40 100t101 40h369q217 0 351 -120t134 -314q0 -121 -55.5 -218t-155.5 -155zM430 1108v-387h232
q95 0 149.5 52t54.5 142q0 88 -55 140.5t-149 52.5h-232z" />
    <glyph glyph-name="S" unicode="S" horiz-adv-x="1144" 
d="M584 -25q-121 0 -242 50t-195 133q-51 51 -51 106q1 54 38.5 88.5t88.5 34.5q42 0 72 -27q134 -139 289 -139q90 0 141 40.5t51 109.5q0 56 -36.5 89.5t-135.5 78.5l-145 65q-166 76 -247 169t-81 220q0 169 127.5 276t321.5 107q136 0 229.5 -47.5t148.5 -111.5
q37 -40 37 -89q0 -51 -39 -86.5t-88 -35.5q-40 0 -75 28q-51 46 -99.5 71t-113.5 25q-75 0 -121.5 -34.5t-46.5 -96.5q0 -50 32.5 -81.5t124.5 -73.5l154 -68q174 -77 254 -168.5t80 -226.5q0 -184 -133.5 -295t-339.5 -111z" />
    <glyph glyph-name="T" unicode="T" horiz-adv-x="1198" 
d="M598 -25q-58 0 -97.5 41t-39.5 101v985h-322q-54 0 -90.5 36t-36.5 89q0 54 36.5 89.5t90.5 35.5h920q55 0 91 -35.5t36 -89.5q0 -53 -36.5 -89t-90.5 -36h-322v-985q0 -60 -39.5 -101t-99.5 -41z" />
    <glyph glyph-name="U" unicode="U" horiz-adv-x="1433" 
d="M717 -25q-257 0 -415.5 161.5t-158.5 422.5v676q0 60 40 100.5t100 40.5q58 0 97.5 -40.5t39.5 -100.5v-696q0 -141 80.5 -224.5t216.5 -83.5t216.5 83.5t80.5 224.5v696q0 60 39.5 100.5t99.5 40.5q58 0 97.5 -40.5t39.5 -100.5v-676q0 -261 -158.5 -422.5
t-414.5 -161.5z" />
    <glyph glyph-name="V" unicode="V" horiz-adv-x="1355" 
d="M1151 1376q58 0 96.5 -38.5t38.5 -94.5q0 -43 -16 -74l-461 -1099q-41 -95 -131 -95q-93 0 -131 95l-463 1099q-16 37 -16 74q0 56 39.5 94.5t97.5 38.5q90 0 129 -98l344 -846l342 846q42 98 131 98z" />
    <glyph glyph-name="W" unicode="W" horiz-adv-x="2121" 
d="M1905 1376q58 0 97.5 -40t39.5 -97q0 -30 -14 -68l-414 -1101q-36 -95 -129 -95t-129 95l-295 817l-295 -817q-36 -95 -127 -95q-95 0 -131 95l-414 1101q-16 39 -16 68q0 57 40.5 97t98.5 40q44 0 79 -24.5t48 -65.5l297 -823l285 809q17 50 52.5 77t82.5 27t82.5 -27
t52.5 -77l287 -809l293 821q15 43 49 67.5t80 24.5z" />
    <glyph glyph-name="X" unicode="X" horiz-adv-x="1255" 
d="M1139 205q37 -53 37 -96q0 -54 -40.5 -94t-97.5 -40q-66 0 -110 60l-299 424l-301 -424q-44 -60 -113 -60q-55 0 -95 40t-40 96q0 44 39 100l342 477l-314 453q-38 55 -38 106q0 53 40 91t95 38q71 0 114 -61l271 -397l276 395q45 63 115 63q57 0 96 -38.5t39 -92.5
q0 -52 -41 -110l-317 -447z" />
    <glyph glyph-name="Y" unicode="Y" horiz-adv-x="1280" 
d="M1196 1243q0 -45 -29 -90l-389 -639v-397q0 -60 -39.5 -101t-99.5 -41q-58 0 -97.5 41t-39.5 101v397l-387 639q-31 44 -31 92q0 55 39 93t96 38q84 0 131 -82l291 -503l291 503q46 82 129 82q57 0 96 -38t39 -95z" />
    <glyph glyph-name="Z" unicode="Z" horiz-adv-x="1204" 
d="M1036 250q55 0 91 -36t36 -89q0 -54 -36.5 -89.5t-90.5 -35.5h-866q-55 0 -92 36t-37 89q0 37 37 86l684 891h-520q-55 0 -92 36t-37 89q0 54 36.5 89.5t92.5 35.5h776q54 0 90.5 -36t36.5 -89q0 -39 -35 -88l-684 -889h610z" />
    <glyph glyph-name="bracketleft" unicode="[" horiz-adv-x="743" 
d="M557 1495q49 0 81 -32.5t32 -80.5q0 -46 -32 -78t-81 -32h-137v-1315h137q49 0 81 -32.5t32 -80.5q0 -47 -32 -78.5t-81 -31.5h-254q-51 0 -85 34t-34 85v1521q0 52 34 86.5t85 34.5h254z" />
    <glyph glyph-name="backslash" unicode="\" horiz-adv-x="1382" 
d="M1169 -272q-70 0 -108 61l-950 1600q-25 39 -25 79q0 53 37.5 91t89.5 38q71 0 109 -61l950 -1599q26 -41 26 -82q0 -51 -38.5 -89t-90.5 -38z" />
    <glyph glyph-name="bracketright" unicode="]" horiz-adv-x="731" 
d="M428 1495q53 0 87 -34.5t34 -88.5v-1517q0 -53 -34.5 -87t-86.5 -34h-238q-49 0 -80.5 31t-31.5 79t31.5 80.5t80.5 32.5h121v1315h-121q-49 0 -80.5 32t-31.5 78q0 48 31.5 80.5t80.5 32.5h238z" />
    <glyph glyph-name="asciicircum" unicode="^" horiz-adv-x="1095" 
d="M268 553q-54 0 -92.5 38t-38.5 93q0 25 23 70l270 544q39 76 117 76q80 0 119 -76l270 -544q20 -39 20 -70q0 -56 -38 -93.5t-93 -37.5q-77 0 -112 68l-166 333l-166 -333q-35 -68 -113 -68z" />
    <glyph glyph-name="underscore" unicode="_" horiz-adv-x="1028" 
d="M858 -133q49 0 82 -31.5t33 -77.5q0 -47 -32.5 -77.5t-82.5 -30.5h-686q-50 0 -82.5 30.5t-32.5 77.5q0 46 33 77.5t82 31.5h686z" />
    <glyph glyph-name="grave" unicode="`" horiz-adv-x="604" 
d="M373 1151q-32 -1 -61 16t-48 47l-127 211q-22 37 -22 76q0 57 39 98t98 41q39 0 74.5 -21t52.5 -58l96 -220q17 -38 17 -61q3 -49 -30 -87.5t-89 -41.5z" />
    <glyph glyph-name="a" unicode="a" horiz-adv-x="1116" 
d="M549 1036q209 0 323.5 -113.5t114.5 -320.5v-487q0 -60 -38 -99t-95 -39q-50 0 -87 30.5t-46 76.5q-115 -109 -297 -109q-156 0 -253 84.5t-97 219.5q0 137 102.5 215.5t280.5 78.5h254v45q0 85 -49.5 132t-141.5 47q-106 0 -194 -76q-44 -33 -82 -33q-50 0 -84.5 33.5
t-34.5 79.5q0 56 57 110q64 60 160 92.5t207 32.5zM498 178q91 0 152 57.5t61 143.5v12h-217q-142 0 -142 -102q0 -51 39.5 -81t106.5 -30z" />
    <glyph glyph-name="b" unicode="b" horiz-adv-x="1288" 
d="M717 1036q214 0 352.5 -150t138.5 -380t-138.5 -380.5t-352.5 -150.5q-199 0 -309 129q-4 -57 -42 -93t-92 -36q-58 0 -97.5 41t-39.5 101v1302q0 60 39.5 101t99.5 41q59 0 98.5 -40.5t39.5 -101.5v-504q111 121 303 121zM666 227q115 0 188.5 79t73.5 202
q0 120 -74 199t-188 79t-185 -77.5t-71 -202.5t70.5 -202t185.5 -77z" />
    <glyph glyph-name="c" unicode="c" horiz-adv-x="1130" 
d="M623 -25q-228 0 -385.5 155t-157.5 378q0 146 71.5 267.5t196.5 191t275 69.5q128 0 239 -55t170 -145q25 -40 25 -74q0 -51 -36 -87t-87 -36q-59 0 -94 43q-85 102 -213 102q-117 0 -192 -77.5t-75 -198.5q0 -123 75 -201t192 -78q120 0 213 103q38 43 94 43
q51 0 87 -36t36 -87q0 -34 -23 -70q-64 -98 -170.5 -152.5t-240.5 -54.5z" />
    <glyph glyph-name="d" unicode="d" horiz-adv-x="1288" 
d="M1014 1561q59 0 98 -40.5t39 -101.5v-1304q0 -60 -38.5 -100t-96.5 -40q-54 0 -93 37.5t-42 91.5q-110 -129 -310 -129q-214 0 -352.5 150.5t-138.5 380.5t138.5 380t352.5 150q192 0 303 -121v504q0 60 40 101t100 41zM623 227q115 0 185.5 77t70.5 202t-71 202.5
t-185 77.5t-188.5 -79t-74.5 -199q0 -123 74 -202t189 -79z" />
    <glyph glyph-name="e" unicode="e" horiz-adv-x="1165" 
d="M606 1036q207 0 344 -135t137 -340v-6q0 -64 -41.5 -102.5t-109.5 -38.5h-578q25 -96 99 -148.5t186 -52.5q119 0 211 59q32 19 59 19q47 0 80 -32t33 -79q0 -63 -70 -110q-143 -95 -321 -95q-118 0 -221 40.5t-176.5 111t-115.5 169t-42 210.5q0 226 151 378t375 152z
M600 813q-90 0 -154.5 -55t-87.5 -150h461q-3 91 -63 148t-156 57z" />
    <glyph glyph-name="f" unicode="f" horiz-adv-x="700" 
d="M608 1313q-70 0 -108.5 -41.5t-38.5 -116.5v-141h127q51 0 84 -33t33 -84t-33 -84t-84 -33h-127v-663q0 -61 -39 -101.5t-98 -40.5q-60 0 -100 41t-40 101v663h-45q-51 0 -85 33t-34 84t34 84t85 33h45v166q0 180 100 280.5t277 100.5q75 0 131 -27q32 -14 51 -43.5
t19 -67.5q0 -51 -33 -81.5t-88 -30.5q-3 0 -14 1t-19 1z" />
    <glyph glyph-name="g" unicode="g" horiz-adv-x="1292" 
d="M1020 1036q58 0 96.5 -39.5t38.5 -99.5v-784q0 -239 -138 -372.5t-386 -133.5q-257 0 -436 141q-58 42 -58 100q0 52 36.5 88.5t88.5 36.5q33 0 74 -26q130 -90 272 -90q128 0 199.5 62.5t71.5 176.5v56q-112 -121 -310 -121q-214 0 -349.5 141.5t-135.5 362.5t135.5 361
t349.5 140q206 0 316 -129q3 55 42 92t93 37zM627 264q115 0 185.5 76t70.5 199q0 119 -69.5 190.5t-186.5 71.5q-116 0 -189 -73.5t-73 -190.5q0 -119 74 -196t188 -77z" />
    <glyph glyph-name="h" unicode="h" horiz-adv-x="1198" 
d="M692 1036q170 0 273.5 -111.5t103.5 -295.5v-512q0 -62 -38.5 -102t-98.5 -40q-58 0 -97.5 41t-39.5 101v473q0 89 -52 142.5t-137 53.5t-138.5 -54.5t-53.5 -141.5v-473q0 -61 -39.5 -101.5t-98.5 -40.5q-60 0 -99.5 41t-39.5 101v1302q0 60 39.5 101t99.5 41
q59 0 98.5 -40.5t39.5 -101.5v-493q110 110 278 110z" />
    <glyph glyph-name="i" unicode="i" horiz-adv-x="550" 
d="M276 1550q70 0 121.5 -49t51.5 -119q0 -68 -51.5 -116.5t-121.5 -48.5q-72 0 -123 48t-51 117q0 70 51 119t123 49zM274 -25q-58 0 -97.5 41t-39.5 101v780q0 60 39.5 99.5t99.5 39.5q59 0 98.5 -39.5t39.5 -99.5v-780q0 -60 -40 -101t-100 -41z" />
    <glyph glyph-name="j" unicode="j" horiz-adv-x="550" 
d="M276 1550q70 0 121.5 -49t51.5 -119q0 -68 -51.5 -116.5t-121.5 -48.5q-72 0 -123 48t-51 117q0 70 51 119t123 49zM35 -393q-57 0 -113 18q-84 33 -84 113q0 51 33 85t84 34q5 0 13.5 -1t13.5 -1q81 0 118 39.5t37 142.5v860q0 60 39.5 99.5t99.5 39.5q59 0 98.5 -39.5
t39.5 -99.5v-909q0 -184 -101 -282.5t-278 -98.5z" />
    <glyph glyph-name="k" unicode="k" 
d="M276 1561q60 0 99 -40t39 -102v-1302q0 -61 -39.5 -101.5t-98.5 -40.5q-60 0 -99.5 41t-39.5 101v1302q0 60 39.5 101t99.5 41zM1042 188q33 -42 33 -86q0 -54 -36 -90.5t-89 -36.5q-62 0 -102 52l-346 426q-43 57 -43 100q0 47 49 102l323 338q40 43 97 43
q54 0 90.5 -35.5t36.5 -87.5q0 -53 -45 -98l-258 -262z" />
    <glyph glyph-name="l" unicode="l" horiz-adv-x="550" 
d="M276 -25q-60 0 -99.5 41t-39.5 101v1302q0 60 39.5 101t99.5 41q58 0 98 -41t40 -101v-1302q0 -60 -40 -101t-98 -41z" />
    <glyph glyph-name="m" unicode="m" horiz-adv-x="1826" 
d="M1317 1036q177 0 280 -109.5t103 -297.5v-512q0 -61 -39 -101.5t-98 -40.5q-60 0 -100 41t-40 101v473q0 91 -48.5 143.5t-131.5 52.5t-134.5 -52.5t-51.5 -137.5v-479q0 -61 -39 -101.5t-98 -40.5q-60 0 -100 41t-40 101v473q0 90 -49 143t-131 53q-85 0 -135.5 -53.5
t-50.5 -142.5v-473q0 -61 -39.5 -101.5t-98.5 -40.5q-60 0 -99.5 41t-39.5 101v780q0 60 39 99.5t98 39.5q47 0 82 -28t47 -74q108 102 275 102q199 0 301 -145q61 68 149.5 106.5t188.5 38.5z" />
    <glyph glyph-name="n" unicode="n" horiz-adv-x="1198" 
d="M688 1036q173 0 277 -110.5t104 -296.5v-512q0 -62 -38.5 -102t-98.5 -40q-58 0 -97.5 41t-39.5 101v475q0 88 -52 142t-137 54t-138.5 -55t-53.5 -141v-475q0 -61 -39.5 -101.5t-98.5 -40.5q-60 0 -99.5 41t-39.5 101v780q0 60 39 99.5t98 39.5q47 0 82.5 -29t46.5 -75
q113 104 285 104z" />
    <glyph glyph-name="o" unicode="o" horiz-adv-x="1245" 
d="M623 1036q149 0 274 -70t197.5 -191.5t72.5 -266.5t-72.5 -267.5t-198 -193t-275.5 -70.5q-149 0 -273.5 70.5t-196 192.5t-71.5 268t71.5 267.5t196.5 191t275 69.5zM623 784q-114 0 -188.5 -78.5t-74.5 -199.5q0 -120 74.5 -197.5t188.5 -77.5q113 0 187.5 78.5
t74.5 196.5q0 120 -74.5 199t-187.5 79z" />
    <glyph glyph-name="p" unicode="p" horiz-adv-x="1288" 
d="M717 1036q214 0 352.5 -149t138.5 -379q0 -231 -139 -382t-352 -151q-193 0 -303 123v-352q0 -60 -39.5 -99.5t-98.5 -39.5q-60 0 -99.5 39.5t-39.5 99.5v1155q0 59 39.5 98t97.5 39q55 0 93 -37t41 -94q110 129 309 129zM666 227q114 0 188 79t74 200q0 123 -73.5 201.5
t-188.5 78.5t-185.5 -76.5t-70.5 -201.5t71 -203t185 -78z" />
    <glyph glyph-name="q" unicode="q" horiz-adv-x="1288" 
d="M1016 1036q58 0 96.5 -39.5t38.5 -99.5v-1151q0 -60 -39 -99.5t-98 -39.5q-60 0 -100 39.5t-40 99.5v352q-110 -123 -303 -123q-213 0 -352 151t-139 382q0 230 138.5 379t352.5 149q200 0 310 -129q5 56 43 92.5t92 36.5zM623 227q114 0 185 78t71 203t-70.5 201.5
t-185.5 76.5q-114 0 -188.5 -78.5t-74.5 -201.5q0 -121 74.5 -200t188.5 -79z" />
    <glyph glyph-name="r" unicode="r" horiz-adv-x="794" 
d="M655 1026q56 0 90.5 -34t34.5 -91q0 -55 -35 -91t-94 -42q-111 -8 -174 -77t-63 -185v-389q0 -61 -39.5 -101.5t-98.5 -40.5q-60 0 -99.5 41t-39.5 101v780q0 60 39 99.5t98 39.5q54 0 91.5 -35.5t42.5 -89.5q101 115 247 115z" />
    <glyph glyph-name="s" unicode="s" horiz-adv-x="931" 
d="M465 -25q-111 0 -207 39t-166 107q-39 33 -39 86q0 47 34 82t81 35q41 0 80 -31q104 -90 221 -90q56 0 92.5 21.5t36.5 62.5q0 17 -6.5 29.5t-24 24.5t-30 18t-43.5 20l-109 45q-140 57 -208 126.5t-68 182.5q0 143 103.5 224t268.5 81q193 0 320 -108q49 -37 49 -94
q0 -47 -33.5 -81t-79.5 -34q-28 0 -73 29q-87 61 -185 61q-108 0 -108 -72q0 -29 23.5 -48t82.5 -42l98 -41q147 -60 216 -128.5t69 -180.5q0 -152 -111.5 -238t-283.5 -86z" />
    <glyph glyph-name="t" unicode="t" horiz-adv-x="851" 
d="M690 225q55 0 88 -30.5t33 -81.5q0 -78 -70 -111q-66 -27 -143 -27q-198 0 -301.5 97.5t-103.5 283.5v424h-58q-51 0 -85 33t-34 84t34 84t85 33h58v139q0 60 39 99.5t100 39.5q59 0 98 -39.5t39 -99.5v-139h186q51 0 84 -33t33 -84t-33 -84t-84 -33h-186v-399
q0 -85 42.5 -121.5t139.5 -36.5q9 0 22 1t17 1z" />
    <glyph glyph-name="u" unicode="u" horiz-adv-x="1187" 
d="M596 -25q-207 0 -338 131t-131 340v451q0 60 39.5 99.5t99.5 39.5q59 0 98 -39.5t39 -99.5v-473q0 -85 54 -140t139 -55q83 0 135.5 55t52.5 140v473q0 60 39.5 99.5t100.5 39.5q59 0 98 -39.5t39 -99.5v-451q0 -209 -130 -340t-335 -131z" />
    <glyph glyph-name="v" unicode="v" horiz-adv-x="1144" 
d="M969 1036q54 0 93.5 -39.5t39.5 -93.5q0 -27 -21 -74l-381 -768q-20 -41 -53.5 -63.5t-73.5 -22.5q-85 0 -127 86l-380 768q-23 45 -23 74q0 54 40 93.5t95 39.5q81 0 121 -78l274 -565l273 565q40 78 123 78z" />
    <glyph glyph-name="w" unicode="w" horiz-adv-x="1753" 
d="M1583 1036q55 0 94 -39t39 -94q0 -35 -14 -67l-352 -775q-42 -86 -125 -86q-86 0 -125 86l-223 514l-224 -514q-42 -86 -125 -86t-125 86l-352 775q-14 32 -14 67q0 55 38.5 94t94.5 39q84 0 121 -75l246 -539l206 512q43 102 134 102t131 -102l209 -514l245 541
q37 75 121 75z" />
    <glyph glyph-name="x" unicode="x" horiz-adv-x="1087" 
d="M965 211q41 -52 41 -102q0 -56 -38.5 -95t-95.5 -39q-62 0 -114 62l-215 274l-215 -274q-49 -62 -113 -62q-57 0 -96 39t-39 95q0 47 43 102l246 305l-222 285q-45 61 -45 102q0 56 39.5 94.5t96.5 38.5q66 0 110 -59l197 -254l200 254q47 59 113 59q56 0 94.5 -39
t38.5 -94q0 -49 -45 -102l-225 -283z" />
    <glyph glyph-name="y" unicode="y" horiz-adv-x="1144" 
d="M969 1036q54 0 93.5 -39.5t39.5 -93.5q0 -30 -17 -63l-446 -916q-82 -167 -180 -242t-236 -75q-68 0 -117 22q-32 13 -50.5 43t-18.5 66q0 51 36 85t89 34q6 0 14 -1t10 -1q67 0 113.5 30.5t79.5 98.5l37 82l-350 772q-19 40 -19 65q0 54 40 93.5t95 39.5q40 0 73 -21
t48 -57l268 -600l275 600q15 35 48.5 56.5t74.5 21.5z" />
    <glyph glyph-name="z" unicode="z" horiz-adv-x="958" 
d="M823 233q51 0 85 -32.5t34 -83.5q0 -50 -34 -83.5t-85 -33.5h-667q-50 0 -83.5 34t-33.5 83q0 27 10 48.5t37 51.5l467 563h-369q-51 0 -84.5 33t-33.5 84t33.5 84t84.5 33h621q51 0 85 -33t34 -82t-39 -94l-471 -572h409z" />
    <glyph glyph-name="braceleft" unicode="{" horiz-adv-x="845" 
d="M676 -45q47 0 78.5 -32.5t31.5 -78.5q0 -49 -31 -79.5t-79 -30.5h-49q-162 0 -251 72t-89 214q0 69 22.5 200.5t22.5 168.5q0 56 -27.5 81.5t-85.5 25.5h-22q-51 0 -85 33.5t-34 84.5q0 50 34 83.5t85 33.5h22q113 0 113 107q0 37 -22.5 168.5t-22.5 199.5
q0 142 89.5 215.5t250.5 73.5h49q47 0 78.5 -32t31.5 -81q0 -46 -31.5 -78t-78.5 -32h-27q-61 0 -94 -33.5t-33 -99.5q0 -41 22.5 -168.5t22.5 -179.5q0 -138 -151 -179q76 -21 113.5 -63t37.5 -113q0 -50 -22.5 -177.5t-22.5 -170.5q0 -65 33 -99t94 -34h27z" />
    <glyph glyph-name="bar" unicode="|" horiz-adv-x="679" 
d="M340 1620q50 0 82.5 -33t32.5 -82v-1661q0 -49 -32.5 -81.5t-82.5 -32.5t-82.5 32.5t-32.5 81.5v1661q0 50 32 82.5t83 32.5z" />
    <glyph glyph-name="braceright" unicode="}" horiz-adv-x="845" 
d="M649 731q51 0 85 -33.5t34 -83.5q0 -51 -34 -84.5t-85 -33.5h-22q-58 0 -85.5 -25.5t-27.5 -81.5q0 -37 22.5 -168.5t22.5 -200.5q0 -142 -89 -214t-251 -72h-49q-48 0 -79.5 30.5t-31.5 79.5q0 46 32 78.5t79 32.5h27q61 0 94 34t33 99q0 43 -22.5 170.5t-22.5 177.5
q0 71 37.5 113t113.5 63q-151 41 -151 179q0 52 22.5 179.5t22.5 168.5q0 66 -33 99.5t-94 33.5h-27q-47 0 -79 32t-32 78q0 49 31.5 81t79.5 32h49q161 0 250.5 -73.5t89.5 -215.5q0 -68 -22.5 -199.5t-22.5 -168.5q0 -107 113 -107h22z" />
    <glyph glyph-name="asciitilde" unicode="~" 
d="M811 467q-77 0 -164.5 32.5t-157 64.5t-104.5 32q-40 0 -61.5 -13t-40.5 -48q-30 -58 -95 -58q-51 0 -84.5 34.5t-33.5 86.5q0 107 77 181.5t189 74.5q77 0 164 -33t157 -65.5t105 -32.5q40 0 61.5 13t40.5 48q29 60 94 60q51 0 85 -35t34 -88q0 -106 -77 -180t-189 -74z
" />
    <glyph glyph-name="exclamdown" unicode="&#xa1;" horiz-adv-x="712" 
d="M356 684q-78 0 -130 51.5t-52 126.5q0 74 52.5 127t129.5 53q75 0 125.5 -52.5t50.5 -127.5q0 -76 -50 -127t-126 -51zM356 -393q-76 0 -119 47t-40 121l22 639q2 59 40 100t97 41q57 0 95.5 -41.5t40.5 -99.5l22 -639q3 -74 -41 -121t-117 -47z" />
    <glyph glyph-name="cent" unicode="&#xa2;" horiz-adv-x="1140" 
d="M907 524q53 0 89 -36.5t36 -90.5q0 -47 -35 -88q-127 -142 -305 -166v-239q0 -56 -33.5 -91.5t-85.5 -35.5t-87 36.5t-35 90.5v256q-169 50 -276 189.5t-107 318.5t107 318.5t276 189.5v254q0 55 34.5 90.5t87.5 35.5q51 0 85 -35.5t34 -90.5v-238q188 -24 305 -166
q35 -41 35 -88q0 -53 -36.5 -90t-88.5 -37q-12 0 -23 2.5t-18 5t-17.5 9.5t-14 9.5t-15.5 13.5t-14 13q-77 80 -191 80q-116 0 -190 -77.5t-74 -198.5q0 -122 73.5 -199.5t190.5 -77.5q111 0 191 80q2 2 14 13t15.5 13.5t14 9.5t17.5 9.5t18 5t23 2.5z" />
    <glyph glyph-name="sterling" unicode="&#xa3;" horiz-adv-x="1165" 
d="M979 233q48 0 79.5 -32.5t31.5 -83.5q0 -52 -31.5 -84.5t-79.5 -32.5h-780q-47 0 -80 34t-33 81q0 65 61 102q68 39 99.5 59t61 47.5t39 54.5t9.5 66v21h-145q-53 0 -87 33t-34 84t34 83.5t87 32.5h57q-29 55 -43.5 87t-29.5 87t-15 109q0 176 125.5 285.5t321.5 109.5
q291 0 417 -237q27 -53 27 -88q0 -53 -36.5 -90t-90.5 -37q-24 0 -42.5 5.5t-35 21.5t-23 24.5t-24.5 32.5q-34 58 -75.5 85t-98.5 27q-86 0 -135 -50.5t-49 -133.5q0 -41 16 -87.5t28 -69.5t46 -81h225q51 0 85 -32.5t34 -83.5t-34 -84t-85 -33h-145v-16q0 -134 -105 -216
h453z" />
    <glyph glyph-name="currency" unicode="&#xa4;" horiz-adv-x="1345" 
d="M1241 260q39 -36 39 -86q0 -46 -34 -81.5t-81 -35.5q-49 0 -90 41l-157 162q-114 -63 -252 -63q-135 0 -248 61l-146 -154q-39 -45 -94 -45q-45 0 -78.5 35.5t-33.5 81.5q0 47 34 84l144 154q-78 118 -78 262q0 139 80 258l-144 145q-36 36 -36 86q0 48 34 82.5t78 34.5
q51 0 92 -41l146 -149q114 63 250 63q139 0 256 -65l153 153q39 39 88 39q46 0 80.5 -33.5t34.5 -79.5q0 -51 -39 -90l-145 -145q75 -118 75 -258q0 -145 -79 -260zM668 451q95 0 157 63.5t62 161.5t-62.5 161.5t-156.5 63.5q-98 0 -158.5 -63t-60.5 -162t60.5 -162
t158.5 -63z" />
    <glyph glyph-name="yen" unicode="&#xa5;" horiz-adv-x="1226" 
d="M1026 545h-272v-127h272q47 0 79 -33t32 -80q0 -46 -32 -78t-79 -32h-272v-78q0 -60 -40 -101t-100 -41q-58 0 -97.5 41t-39.5 101v78h-274q-47 0 -79 32t-32 78q0 47 32 80t79 33h274v127h-274q-47 0 -79 32.5t-32 79.5q0 46 32 78.5t79 32.5h196l-288 387
q-37 51 -37 94q0 51 37.5 88t89.5 37q67 0 116 -74l297 -430l297 430q49 74 117 74q52 0 89.5 -37t37.5 -88q0 -41 -39 -94l-289 -387h199q47 0 79 -32.5t32 -78.5q0 -47 -32 -79.5t-79 -32.5z" />
    <glyph glyph-name="brokenbar" unicode="&#xa6;" horiz-adv-x="679" 
d="M340 1620q50 0 82.5 -33t32.5 -82v-430q0 -49 -32.5 -81.5t-82.5 -32.5t-82.5 32.5t-32.5 81.5v430q0 50 32 82.5t83 32.5zM340 389q50 0 82.5 -32.5t32.5 -82.5v-426q0 -49 -32.5 -81.5t-82.5 -32.5t-82.5 32.5t-32.5 81.5v426q0 50 32 82.5t83 32.5z" />
    <glyph glyph-name="section" unicode="&#xa7;" horiz-adv-x="1232" 
d="M1174 401q0 -103 -63.5 -179.5t-174.5 -112.5q4 -32 4 -52q0 -147 -106 -238t-277 -91q-120 0 -209 39t-162 124q-36 38 -39 91q0 41 26 70t65 34q60 18 120 -39q47 -47 91.5 -67.5t101.5 -20.5q61 0 95 26t34 72q0 39 -29 71.5t-125 102.5l-186 127
q-156 99 -218.5 179.5t-62.5 179.5q0 105 63.5 182t174.5 113q-4 28 -4 49q0 148 105.5 239t277.5 91q116 0 205.5 -39t165.5 -125q36 -42 36 -92q0 -41 -25.5 -70.5t-62.5 -32.5q-62 -19 -123 39q-48 48 -91 68t-101 20q-60 0 -94.5 -26t-34.5 -72q0 -41 30.5 -75
t125.5 -99l184 -127q155 -95 219 -176.5t64 -182.5zM678 416q101 -66 166 -131q69 41 69 108q0 41 -30.5 75.5t-126.5 100.5l-201 133q-109 71 -166 134q-72 -44 -72 -111q0 -41 33 -78t127 -98z" />
    <glyph glyph-name="dieresis" unicode="&#xa8;" horiz-adv-x="940" 
d="M227 1544q69 0 117.5 -46.5t48.5 -115.5q0 -64 -49 -110.5t-117 -46.5q-66 0 -116 47.5t-50 109.5q0 67 49 114.5t117 47.5zM713 1544q71 0 118.5 -46.5t47.5 -115.5q0 -65 -48.5 -111t-117.5 -46q-64 0 -114 47.5t-50 109.5q0 67 48 114.5t116 47.5z" />
    <glyph glyph-name="copyright" unicode="&#xa9;" horiz-adv-x="1593" 
d="M795 -25q-117 0 -226.5 35t-197.5 100t-154.5 150.5t-102.5 192.5t-36 221q0 191 96.5 353t262 255.5t360.5 93.5q146 0 279.5 -55.5t229.5 -149.5t153 -223.5t57 -271.5q0 -190 -96.5 -351.5t-262.5 -255.5t-362 -94zM795 139q230 0 385 154t155 381q0 229 -155 383.5
t-385 154.5t-383.5 -154t-153.5 -384q0 -229 153.5 -382t383.5 -153zM809 297q-163 0 -274 109t-111 270t111 270t274 109q75 0 147 -30t115 -79q41 -47 41 -88q0 -38 -24.5 -64t-59.5 -26q-9 0 -17 1t-15.5 4l-12.5 5t-12.5 7.5t-10.5 8t-11.5 10.5t-12.5 11
q-50 47 -125 47q-76 0 -125 -52t-49 -134t49 -134.5t125 -52.5q71 0 125 48q5 4 16.5 14t17 14t15 9.5t20 7.5t23.5 2q35 0 59.5 -26t24.5 -64q0 -41 -41 -88q-43 -49 -115 -79t-147 -30z" />
    <glyph glyph-name="ordfeminine" unicode="&#xaa;" horiz-adv-x="759" 
d="M375 1157q138 0 214.5 -73.5t76.5 -206.5v-285q0 -46 -31.5 -77.5t-75.5 -31.5q-32 0 -58 16.5t-38 43.5q-73 -60 -176 -60q-100 0 -160.5 55t-60.5 146q0 89 65.5 138.5t183.5 49.5h138v23q0 86 -103 86q-53 0 -110 -35q-33 -16 -54 -16q-37 0 -62.5 25.5t-25.5 62.5
q0 51 54 80q93 59 223 59zM352 635q45 0 73 27t28 71v19h-101q-34 0 -52.5 -16t-18.5 -44q0 -57 71 -57z" />
    <glyph glyph-name="guillemotleft" unicode="&#xab;" horiz-adv-x="1218" 
d="M485 131q-51 0 -94 43l-287 297q-36 39 -36 88q0 47 36 86l287 299q43 43 94 43q46 0 81.5 -35t35.5 -82q0 -43 -35 -84l-202 -227l202 -227q35 -35 35 -84t-35.5 -83t-81.5 -34zM1010 131q-52 0 -95 43l-286 297q-37 40 -37 88q0 46 37 86l286 299q43 43 95 43
q46 0 81 -35t35 -82q0 -44 -34 -84l-203 -227l203 -227q34 -34 34 -84t-35 -83.5t-81 -33.5z" />
    <glyph glyph-name="logicalnot" unicode="&#xac;" 
d="M862 197q-56 0 -92.5 37t-36.5 94v211h-540q-52 0 -86.5 33t-34.5 83q0 51 34.5 85t86.5 34h671q55 0 91 -36.5t36 -92.5v-317q0 -57 -36 -94t-93 -37z" />
    <glyph glyph-name="uni00AD" unicode="&#xad;" horiz-adv-x="700" 
d="M508 772q51 0 84 -32.5t33 -82.5t-33 -83t-84 -33h-313q-51 0 -84 33t-33 83t33 82.5t84 32.5h313z" />
    <glyph glyph-name="registered" unicode="&#xae;" horiz-adv-x="1175" 
d="M590 1417q105 0 201 -41.5t165.5 -111.5t110.5 -167.5t41 -203.5q0 -143 -69.5 -264t-189 -191.5t-259.5 -70.5q-141 0 -261.5 70.5t-190.5 191.5t-70 264q0 106 41.5 203.5t111.5 167.5t166.5 111.5t202.5 41.5zM590 496q163 0 273 114t110 283q0 167 -110 281t-273 114
q-164 0 -274.5 -113.5t-110.5 -281.5q0 -169 110.5 -283t274.5 -114zM727 825l70 -75q22 -22 22 -52q0 -31 -20 -51t-49 -20q-35 0 -58 26l-123 135h-43v-88q0 -32 -19.5 -52.5t-49.5 -20.5q-31 0 -52.5 21t-21.5 52v375q0 31 22 52.5t54 21.5h137q91 0 149 -50.5t58 -129.5
q0 -91 -76 -144zM526 1024v-113h70q26 0 42.5 15.5t16.5 40.5q0 26 -16.5 41.5t-42.5 15.5h-70z" />
    <glyph glyph-name="macron" unicode="&#xaf;" horiz-adv-x="741" 
d="M582 1491q49 0 81.5 -31.5t32.5 -77.5t-32.5 -77t-81.5 -31h-422q-49 0 -82 31t-33 77t33 77.5t82 31.5h422z" />
    <glyph glyph-name="degree" unicode="&#xb0;" horiz-adv-x="739" 
d="M371 1376q133 0 226 -92t93 -223q0 -132 -93.5 -224t-225.5 -92q-133 0 -227.5 92.5t-94.5 223.5t94.5 223t227.5 92zM371 1198q-60 0 -99 -39.5t-39 -99.5q0 -58 39.5 -97.5t98.5 -39.5q60 0 98.5 38.5t38.5 98.5q0 61 -38.5 100t-98.5 39z" />
    <glyph glyph-name="plusminus" unicode="&#xb1;" 
d="M575 315q-56 0 -88 37t-32 97v196h-246q-47 0 -79 33t-32 80q0 46 32 78t79 32h246v183q0 59 32 96t88 37t87.5 -37t31.5 -96v-183h246q47 0 80 -32t33 -78q0 -47 -33 -80t-80 -33h-246v-196q0 -60 -31.5 -97t-87.5 -37zM209 0q-49 0 -81 31.5t-32 79.5q0 47 32 78.5
t81 31.5h731q48 0 80.5 -31.5t32.5 -78.5t-33 -79t-80 -32h-731z" />
    <glyph glyph-name="uni00B2" unicode="&#xb2;" horiz-adv-x="788" 
d="M629 930q40 0 67 -26t27 -66t-27 -66.5t-67 -26.5h-469q-38 0 -65 27.5t-27 65.5q0 40 41 75l260 211q61 52 86.5 96t25.5 97q0 47 -28 77.5t-72 30.5q-42 0 -68.5 -27.5t-29.5 -74.5q-3 -24 -13 -43q-6 -28 -31.5 -44.5t-60.5 -16.5q-47 0 -75.5 31t-28.5 83
q0 116 91 198.5t218 82.5q133 0 220 -80.5t87 -202.5q0 -92 -45 -168t-151 -164l-84 -69h219z" />
    <glyph glyph-name="uni00B3" unicode="&#xb3;" horiz-adv-x="737" 
d="M467 1290q87 -24 144 -96.5t57 -165.5q0 -127 -94 -213t-234 -86q-83 0 -155.5 33.5t-118.5 93.5q-23 29 -23 62q0 38 28 66t66 28q42 0 70 -31q60 -63 127 -63q57 0 90 29.5t33 80.5q0 98 -152 98h-10q-40 0 -67 27.5t-27 67.5q0 39 35 69l133 123h-199q-41 0 -68.5 26
t-27.5 66t27.5 66t68.5 26h393q38 0 64 -26.5t26 -63.5q0 -41 -28 -69z" />
    <glyph glyph-name="acute" unicode="&#xb4;" horiz-adv-x="604" 
d="M231 1151q-56 3 -88.5 41t-29.5 88q0 25 16 61l96 220q17 37 52.5 58t74.5 21q59 0 98 -41t39 -98q0 -39 -22 -76l-127 -211q-19 -30 -48 -47t-61 -16z" />
    <glyph glyph-name="uni00B5" unicode="&#xb5;" horiz-adv-x="1249" 
d="M1153 229q44 0 71 -29.5t27 -76.5q0 -84 -63 -115q-54 -28 -117 -28q-154 0 -217 106q-87 -111 -229 -111q-128 0 -211 93v-320q0 -58 -40.5 -99.5t-97.5 -41.5q-58 0 -98.5 41t-40.5 100v1149q0 59 40.5 99t98.5 40q57 0 97.5 -40.5t40.5 -98.5v-467q0 -91 52.5 -148
t135.5 -57q86 0 139.5 57t53.5 148v467q0 58 40 98.5t97 40.5t97 -40.5t40 -98.5v-567q0 -101 82 -101h2z" />
    <glyph glyph-name="paragraph" unicode="&#xb6;" horiz-adv-x="1255" 
d="M963 1352q60 0 99.5 -40t39.5 -100v-1218q0 -193 -105.5 -290t-302.5 -97q-94 0 -143 24q-78 35 -78 109q0 54 38 89.5t95 35.5q4 0 17.5 -2t27.5 -2q86 2 130 39t44 123v421h-299q-188 0 -324 134.5t-136 322.5t135 319.5t325 131.5h437z" />
    <glyph glyph-name="periodcentered" unicode="&#xb7;" horiz-adv-x="552" 
d="M279 465q-83 0 -138 55t-55 135q0 79 55.5 135t137.5 56q81 0 134.5 -56t53.5 -135q0 -80 -53.5 -135t-134.5 -55z" />
    <glyph glyph-name="cedilla" unicode="&#xb8;" horiz-adv-x="593" 
d="M213 -393q-83 0 -133 18q-66 28 -66 88q0 41 29 70t70 29q9 0 30.5 -1t34.5 -1q54 0 86.5 20t32.5 61q0 57 -43 111q-3 4 -11 15t-11.5 15.5t-9.5 13.5t-8.5 15t-4.5 14.5t-2 16.5q0 33 24 52.5t62 19.5q51 0 106.5 -46t92 -115t36.5 -132q0 -121 -86 -192.5t-229 -71.5z
" />
    <glyph glyph-name="uni00B9" unicode="&#xb9;" horiz-adv-x="757" 
d="M166 745q-40 0 -67 26.5t-27 66.5t27 66t67 26h131v483h-113q-41 0 -68.5 26t-27.5 66t27.5 66t68.5 26h215q44 0 74.5 -30t30.5 -74v-563h96q40 0 67 -26t27 -66t-27 -66.5t-67 -26.5h-434z" />
    <glyph glyph-name="ordmasculine" unicode="&#xba;" horiz-adv-x="819" 
d="M410 1157q146 0 248 -97.5t102 -238.5t-102 -239.5t-248 -98.5q-147 0 -248 98.5t-101 239.5t101 238.5t248 97.5zM410 967q-61 0 -99.5 -40.5t-38.5 -105.5t38.5 -105t99.5 -40t99 40t38 105t-38 105.5t-99 40.5z" />
    <glyph glyph-name="guillemotright" unicode="&#xbb;" horiz-adv-x="1222" 
d="M217 131q-46 0 -81.5 34t-35.5 83t35 84l203 227l-203 227q-35 41 -35 84q0 47 35.5 82t81.5 35q51 0 94 -43l287 -299q37 -40 37 -86q0 -48 -37 -88l-287 -297q-43 -43 -94 -43zM743 131q-46 0 -81 33.5t-35 83.5q0 49 35 84l202 227l-202 227q-35 41 -35 84q0 47 35 82
t81 35q52 0 95 -43l286 -299q37 -40 37 -86q0 -48 -37 -88l-286 -297q-43 -43 -95 -43z" />
    <glyph glyph-name="onequarter" unicode="&#xbc;" horiz-adv-x="1916" 
d="M1462 1278q0 -28 -14 -53l-694 -1194q-30 -56 -92 -56q-38 0 -65.5 27.5t-27.5 65.5q0 30 15 55l692 1192q30 55 92 55q38 0 66 -27t28 -65zM694 592q0 -40 -27 -66t-67 -26h-434q-40 0 -67 26t-27 66t27 66t67 26h131v483h-113q-41 0 -68.5 26.5t-27.5 66.5t27.5 66
t68.5 26h215q44 0 74.5 -30.5t30.5 -74.5v-563h96q40 0 67 -26t27 -66zM1819 324q42 0 68 -29.5t26 -67.5t-26 -67t-68 -29h-25v-51q0 -41 -26 -68.5t-66 -27.5q-41 0 -67.5 27.5t-26.5 68.5v51h-348q-35 0 -60.5 25.5t-25.5 60.5q0 22 8 41l250 545q28 65 90 65
q38 0 65 -28t27 -66q0 -24 -8 -45l-168 -405h170v114q0 42 26.5 69.5t67.5 27.5q40 0 66 -28t26 -69v-114h25z" />
    <glyph glyph-name="onehalf" unicode="&#xbd;" horiz-adv-x="1988" 
d="M1462 1278q0 -28 -14 -53l-694 -1194q-30 -56 -92 -56q-38 0 -65.5 27.5t-27.5 65.5q0 30 15 55l692 1192q30 55 92 55q38 0 66 -27t28 -65zM694 592q0 -40 -27 -66t-67 -26h-434q-40 0 -67 26t-27 66t27 66t67 26h131v483h-113q-41 0 -68.5 26.5t-27.5 66.5t27.5 66
t68.5 26h215q44 0 74.5 -30.5t30.5 -74.5v-563h96q40 0 67 -26t27 -66zM1829 184q40 0 67 -26t27 -66t-27 -66t-67 -26h-469q-38 0 -65 27t-27 65q0 41 41 76l260 211q61 52 86.5 95.5t25.5 96.5q0 47 -28 78t-72 31q-42 0 -68.5 -27.5t-29.5 -74.5q-3 -24 -13 -43
q-6 -28 -31.5 -45t-60.5 -17q-47 0 -75.5 31.5t-28.5 83.5q0 116 91 198t218 82q133 0 220 -80t87 -202q0 -92 -45 -168t-151 -164l-84 -70h219z" />
    <glyph glyph-name="threequarters" unicode="&#xbe;" horiz-adv-x="1824" 
d="M1370 1278q0 -28 -14 -53l-694 -1194q-30 -56 -93 -56q-38 0 -65 27.5t-27 65.5q0 30 15 55l692 1192q30 55 92 55q38 0 66 -27t28 -65zM668 782q0 -127 -94 -213t-234 -86q-83 0 -155.5 33.5t-118.5 93.5q-23 29 -23 62q0 38 28 66t66 28q42 0 70 -31q60 -63 127 -63
q57 0 90 29.5t33 80.5q0 99 -152 99h-10q-40 0 -67 27t-27 67q0 39 35 69l133 123h-199q-41 0 -68.5 26.5t-27.5 66.5t27.5 66t68.5 26h393q38 0 64 -26.5t26 -63.5q0 -42 -28 -70l-158 -148q87 -24 144 -96.5t57 -165.5zM1726 324q42 0 68.5 -29.5t26.5 -67.5t-26.5 -67
t-68.5 -29h-24v-51q0 -41 -26 -68.5t-66 -27.5q-41 0 -67.5 27.5t-26.5 68.5v51h-349q-35 0 -60.5 25.5t-25.5 60.5q0 20 9 41l249 545q28 65 91 65q38 0 65 -28t27 -66q0 -21 -9 -45l-167 -405h170v114q0 42 26.5 69.5t67.5 27.5q40 0 66 -28t26 -69v-114h24z" />
    <glyph glyph-name="questiondown" unicode="&#xbf;" horiz-adv-x="925" 
d="M506 1040q78 0 130 -51.5t52 -126.5q0 -74 -52.5 -127t-129.5 -53q-75 0 -125.5 52.5t-50.5 127.5q0 76 50 127t126 51zM512 586q54 0 92.5 -35t38.5 -86v-21q0 -59 -30 -106.5t-121 -132.5q-81 -71 -106.5 -108.5t-25.5 -80.5q0 -52 35 -87t86 -35q88 0 142 96
q27 37 53 54t61 17q52 0 87.5 -35.5t35.5 -88.5q0 -38 -29 -91q-52 -100 -145 -153t-213 -53q-170 0 -284.5 98t-114.5 244q0 75 38.5 141t127.5 141q79 70 110.5 113.5t32.5 85.5l2 18q5 45 40.5 75t86.5 30z" />
    <glyph glyph-name="Agrave" unicode="&#xc0;" horiz-adv-x="1355" 
d="M545 1526l-131 184q-31 47 -27.5 95.5t41 85.5t90.5 38q87 4 127 -71l107 -205q15 -37 10.5 -76.5t-36.5 -71t-79 -32.5q-61 0 -102 53zM1270 182q16 -39 16 -73q0 -56 -38.5 -95t-96.5 -39q-89 0 -131 99l-57 139h-572l-57 -139q-39 -99 -129 -99q-58 0 -97.5 39
t-39.5 95q0 27 16 73l463 1100q39 94 131 94t131 -94zM678 969l-197 -529h389z" />
    <glyph glyph-name="Aacute" unicode="&#xc1;" horiz-adv-x="1355" 
d="M711 1473q-47 1 -79 32.5t-36.5 71t10.5 76.5l107 205q40 75 127 71q53 -1 90.5 -38t41 -85.5t-27.5 -95.5l-131 -184q-41 -53 -102 -53zM1270 182q16 -39 16 -73q0 -56 -38.5 -95t-96.5 -39q-89 0 -131 99l-57 139h-572l-57 -139q-39 -99 -129 -99q-58 0 -97.5 39
t-39.5 95q0 27 16 73l463 1100q39 94 131 94t131 -94zM678 969l-197 -529h389z" />
    <glyph glyph-name="Acircumflex" unicode="&#xc2;" horiz-adv-x="1355" 
d="M426 1479q-41 0 -70.5 29.5t-29.5 72.5q0 25 13.5 44.5t47.5 51.5l193 189q44 41 96 41t96 -41l193 -189q34 -32 47.5 -51.5t13.5 -44.5q0 -43 -29.5 -72.5t-70.5 -29.5q-43 0 -80 32l-170 156l-170 -156q-37 -32 -80 -32zM1270 182q16 -39 16 -73q0 -56 -38.5 -95
t-96.5 -39q-89 0 -131 99l-57 139h-572l-57 -139q-39 -99 -129 -99q-58 0 -97.5 39t-39.5 95q0 27 16 73l463 1100q39 94 131 94t131 -94zM678 969l-197 -529h389z" />
    <glyph glyph-name="Atilde" unicode="&#xc3;" horiz-adv-x="1355" 
d="M381 1468q-52 0 -82.5 31.5t-30.5 85.5q0 116 67.5 190t172.5 74q75 0 151 -43l64 -37q66 -34 90 -34q49 0 61 55q9 35 36 55.5t67 20.5q51 0 80.5 -31.5t29.5 -85.5q0 -117 -66.5 -190.5t-172.5 -73.5q-76 0 -152 43l-61 35q-61 34 -92 34q-48 0 -62 -55
q-9 -34 -35.5 -54t-64.5 -20zM1270 182q16 -39 16 -73q0 -56 -38.5 -95t-96.5 -39q-89 0 -131 99l-57 139h-572l-57 -139q-39 -99 -129 -99q-58 0 -97.5 39t-39.5 95q0 27 16 73l463 1100q39 94 131 94t131 -94zM678 969l-197 -529h389z" />
    <glyph glyph-name="Adieresis" unicode="&#xc4;" horiz-adv-x="1355" 
d="M414 1509q-64 0 -115 48t-51 110q0 67 50.5 113.5t115.5 46.5q68 0 117 -46t49 -114q0 -63 -49.5 -110.5t-116.5 -47.5zM942 1507q-64 0 -115 48t-51 110q0 67 50.5 114.5t115.5 47.5q68 0 117 -47t49 -115q0 -63 -49.5 -110.5t-116.5 -47.5zM1270 182q16 -39 16 -73
q0 -56 -38.5 -95t-96.5 -39q-89 0 -131 99l-57 139h-572l-57 -139q-39 -99 -129 -99q-58 0 -97.5 39t-39.5 95q0 27 16 73l463 1100q39 94 131 94t131 -94zM678 969l-197 -529h389z" />
    <glyph glyph-name="Aring" unicode="&#xc5;" horiz-adv-x="1355" 
d="M676 1382q-110 0 -184 72.5t-74 179.5q0 106 74 177t184 71q112 0 186 -71t74 -177q0 -109 -74 -180.5t-186 -71.5zM678 1718q-36 0 -60 -24t-24 -60q0 -37 24.5 -61.5t59.5 -24.5t59.5 24.5t24.5 61.5q0 35 -24.5 59.5t-59.5 24.5zM1270 182q16 -39 16 -73
q0 -56 -38.5 -95t-96.5 -39q-89 0 -131 99l-57 139h-572l-57 -139q-39 -99 -129 -99q-58 0 -97.5 39t-39.5 95q0 27 16 73l463 1100q39 94 131 94t131 -94zM678 969l-197 -529h389z" />
    <glyph glyph-name="AE" unicode="&#xc6;" horiz-adv-x="1746" 
d="M1552 250q55 0 91 -36t36 -89q0 -54 -36.5 -89.5t-90.5 -35.5h-503q-51 0 -88 30.5t-46 78.5l-10 67h-508l-63 -123q-37 -78 -115 -78q-60 0 -98.5 37t-38.5 94q0 37 16 66l557 1085q47 95 146 95h727q55 0 91 -35.5t36 -89.5q0 -53 -36.5 -89t-90.5 -36h-506l45 -275
h303q51 0 85 -33t34 -85q0 -50 -34 -83.5t-85 -33.5h-264l57 -342h389zM778 954l-264 -551h352z" />
    <glyph glyph-name="Ccedilla" unicode="&#xc7;" horiz-adv-x="1474" 
d="M1235 436q53 0 90 -37t37 -88t-43 -102q-125 -153 -338 -211q35 -72 35 -127q0 -121 -86.5 -192.5t-229.5 -71.5q-84 0 -133 18q-65 27 -65 88q0 41 28.5 70t69.5 29q9 0 31 -1t35 -1q54 0 86 20t32 61q0 45 -24 84q-143 7 -269.5 64t-217 150t-143 219.5t-52.5 267.5
q0 194 95 354.5t260.5 253t365.5 92.5q155 0 293 -62t229 -171q43 -49 43 -103q0 -51 -37.5 -88t-91.5 -37q-59 0 -107 54q-130 151 -329 151q-191 0 -314 -125.5t-123 -320.5q0 -193 123 -318t314 -125q193 0 327 152q50 53 109 53z" />
    <glyph glyph-name="Egrave" unicode="&#xc8;" horiz-adv-x="1171" 
d="M571 1473q-61 0 -102 53l-131 184q-31 47 -27.5 95.5t41 85.5t90.5 38q87 4 127 -71l107 -205q15 -37 10.5 -76.5t-36.5 -71t-79 -32.5zM291 0q-59 0 -98 39t-39 98v1077q0 59 39.5 98.5t97.5 39.5h661q55 0 91 -35.5t36 -89.5q0 -53 -36.5 -89t-90.5 -36h-522v-275h358
q52 0 86.5 -33.5t34.5 -84.5q0 -50 -34.5 -83.5t-86.5 -33.5h-358v-342h547q55 0 91 -36t36 -89q0 -54 -36.5 -89.5t-90.5 -35.5h-686z" />
    <glyph glyph-name="Eacute" unicode="&#xc9;" horiz-adv-x="1171" 
d="M635 1473q-47 1 -79 32.5t-36.5 71t10.5 76.5l107 205q40 75 127 71q53 -1 90.5 -38t41 -85.5t-27.5 -95.5l-131 -184q-41 -53 -102 -53zM291 0q-59 0 -98 39t-39 98v1077q0 59 39.5 98.5t97.5 39.5h661q55 0 91 -35.5t36 -89.5q0 -53 -36.5 -89t-90.5 -36h-522v-275h358
q52 0 86.5 -33.5t34.5 -84.5q0 -50 -34.5 -83.5t-86.5 -33.5h-358v-342h547q55 0 91 -36t36 -89q0 -54 -36.5 -89.5t-90.5 -35.5h-686z" />
    <glyph glyph-name="Ecircumflex" unicode="&#xca;" horiz-adv-x="1171" 
d="M350 1479q-41 0 -70.5 29.5t-29.5 72.5q0 25 13.5 44.5t47.5 51.5l193 189q44 41 96 41t96 -41l193 -189q34 -32 47.5 -51.5t13.5 -44.5q0 -43 -29.5 -72.5t-70.5 -29.5q-43 0 -80 32l-170 156l-170 -156q-37 -32 -80 -32zM977 250q55 0 91 -36t36 -89q0 -54 -36.5 -89.5
t-90.5 -35.5h-686q-59 0 -98 39t-39 98v1077q0 59 39.5 98.5t97.5 39.5h661q55 0 91 -35.5t36 -89.5q0 -53 -36.5 -89t-90.5 -36h-522v-275h358q52 0 86.5 -33.5t34.5 -84.5q0 -50 -34.5 -83.5t-86.5 -33.5h-358v-342h547z" />
    <glyph glyph-name="Edieresis" unicode="&#xcb;" horiz-adv-x="1171" 
d="M338 1509q-64 0 -115 48t-51 110q0 67 50.5 113.5t115.5 46.5q68 0 117 -46t49 -114q0 -63 -49.5 -110.5t-116.5 -47.5zM866 1507q-64 0 -115 48t-51 110q0 67 50.5 114.5t115.5 47.5q68 0 117 -47t49 -115q0 -63 -49.5 -110.5t-116.5 -47.5zM291 0q-59 0 -98 39t-39 98
v1077q0 59 39.5 98.5t97.5 39.5h661q55 0 91 -35.5t36 -89.5q0 -53 -36.5 -89t-90.5 -36h-522v-275h358q52 0 86.5 -33.5t34.5 -84.5q0 -50 -34.5 -83.5t-86.5 -33.5h-358v-342h547q55 0 91 -36t36 -89q0 -54 -36.5 -89.5t-90.5 -35.5h-686z" />
    <glyph glyph-name="Igrave" unicode="&#xcc;" horiz-adv-x="583" 
d="M262 1473q-61 0 -102 53l-131 184q-31 47 -27.5 95.5t41 85.5t90.5 38q87 4 127 -71l107 -205q15 -37 10.5 -76.5t-36.5 -71t-79 -32.5zM293 -25q-61 0 -100 40.5t-39 101.5v1118q0 61 39 101t100 40q60 0 98.5 -40.5t38.5 -100.5v-1118q0 -61 -38.5 -101.5t-98.5 -40.5z
" />
    <glyph glyph-name="Iacute" unicode="&#xcd;" horiz-adv-x="583" 
d="M326 1473q-47 1 -79 32.5t-36.5 71t10.5 76.5l107 205q40 75 127 71q53 -1 90.5 -38t41 -85.5t-27.5 -95.5l-131 -184q-41 -53 -102 -53zM293 -25q-61 0 -100 40.5t-39 101.5v1118q0 61 39 101t100 40q60 0 98.5 -40.5t38.5 -100.5v-1118q0 -61 -38.5 -101.5t-98.5 -40.5
z" />
    <glyph glyph-name="Icircumflex" unicode="&#xce;" horiz-adv-x="583" 
d="M580 1677q34 -32 47.5 -51.5t13.5 -44.5q0 -43 -29.5 -72.5t-70.5 -29.5q-43 0 -80 32l-170 156l-170 -156q-37 -32 -80 -32q-41 0 -70.5 29.5t-29.5 72.5q0 25 13.5 44.5t47.5 51.5l193 189q44 41 96 41t96 -41zM293 1376q60 0 98.5 -40.5t38.5 -100.5v-1118
q0 -61 -38.5 -101.5t-98.5 -40.5q-61 0 -100 40.5t-39 101.5v1118q0 61 39 101t100 40z" />
    <glyph glyph-name="Idieresis" unicode="&#xcf;" horiz-adv-x="583" 
d="M29 1509q-64 0 -115 48t-51 110q0 67 50.5 113.5t115.5 46.5q68 0 117 -46t49 -114q0 -63 -49.5 -110.5t-116.5 -47.5zM557 1507q-64 0 -115 48t-51 110q0 67 50.5 114.5t115.5 47.5q68 0 117 -47t49 -115q0 -63 -49.5 -110.5t-116.5 -47.5zM293 -25q-61 0 -100 40.5
t-39 101.5v1118q0 61 39 101t100 40q60 0 98.5 -40.5t38.5 -100.5v-1118q0 -61 -38.5 -101.5t-98.5 -40.5z" />
    <glyph glyph-name="Eth" unicode="&#xd0;" horiz-adv-x="1413" 
d="M598 1352q217 0 384 -84t259 -237t92 -351t-93 -353t-260.5 -241t-381.5 -86h-303q-61 0 -101 40t-40 101v385h-58q-54 0 -90.5 33t-36.5 84q0 49 36.5 82t90.5 33h58v452q0 62 40 102t101 40h303zM596 250q205 0 330 118t125 312q0 195 -122 308.5t-333 113.5h-166v-344
h111q54 0 90.5 -33t36.5 -82q0 -51 -36.5 -84t-90.5 -33h-111v-276h166z" />
    <glyph glyph-name="Ntilde" unicode="&#xd1;" horiz-adv-x="1458" 
d="M432 1468q-52 0 -82.5 31.5t-30.5 85.5q0 116 67.5 190t172.5 74q76 0 152 -43l63 -37q66 -34 90 -34q50 0 62 55q9 36 36 56t66 20q51 0 81 -31.5t30 -85.5q0 -117 -67 -190.5t-173 -73.5q-75 0 -151 43l-62 35q-61 34 -92 34q-48 0 -62 -55q-9 -34 -35.5 -54t-64.5 -20
zM1167 1376q59 0 98.5 -40.5t39.5 -100.5v-1120q0 -59 -39 -99.5t-97 -40.5q-32 0 -58.5 13.5t-40.5 27.5t-38 43l-602 775v-717q0 -60 -39.5 -101t-97.5 -41q-60 0 -99.5 41t-39.5 101v1120q0 59 39 99t96 40q33 0 60 -14t40.5 -28t40.5 -48l600 -768l-2 717
q0 60 39.5 100.5t99.5 40.5z" />
    <glyph glyph-name="Ograve" unicode="&#xd2;" horiz-adv-x="1593" 
d="M766 1473q-61 0 -102 53l-132 184q-31 47 -27.5 95.5t41.5 85.5t91 38q87 4 127 -71l106 -205q15 -37 11 -76.5t-36 -71t-79 -32.5zM795 1376q198 0 364 -93t261.5 -254t95.5 -353q0 -144 -56.5 -274t-152.5 -223.5t-229.5 -148.5t-282.5 -55t-282 54.5t-228 148
t-151 223.5t-56 275q0 193 95 354t259.5 253.5t362.5 92.5zM797 1120q-191 0 -313 -124.5t-122 -319.5t122 -320t313 -125q189 0 311.5 125.5t122.5 319.5q0 193 -122.5 318.5t-311.5 125.5z" />
    <glyph glyph-name="Oacute" unicode="&#xd3;" horiz-adv-x="1593" 
d="M829 1473q-47 1 -79 32.5t-36 71t11 76.5l106 205q40 75 127 71q53 -1 91 -38t41.5 -85.5t-27.5 -95.5l-131 -184q-41 -53 -103 -53zM795 1376q198 0 364 -93t261.5 -254t95.5 -353q0 -144 -56.5 -274t-152.5 -223.5t-229.5 -148.5t-282.5 -55t-282 54.5t-228 148
t-151 223.5t-56 275q0 193 95 354t259.5 253.5t362.5 92.5zM797 1120q-191 0 -313 -124.5t-122 -319.5t122 -320t313 -125q189 0 311.5 125.5t122.5 319.5q0 193 -122.5 318.5t-311.5 125.5z" />
    <glyph glyph-name="Ocircumflex" unicode="&#xd4;" horiz-adv-x="1593" 
d="M545 1479q-41 0 -71 29.5t-30 72.5q0 25 13.5 44t48.5 52l192 189q44 41 97 41q52 0 96 -41l192 -189q24 -23 34.5 -34t19 -27.5t8.5 -34.5q0 -43 -29.5 -72.5t-71.5 -29.5t-79 32l-170 156l-170 -156q-37 -32 -80 -32zM795 1376q198 0 364 -93t261.5 -254t95.5 -353
q0 -144 -56.5 -274t-152.5 -223.5t-229.5 -148.5t-282.5 -55t-282 54.5t-228 148t-151 223.5t-56 275q0 193 95 354t259.5 253.5t362.5 92.5zM797 231q189 0 311.5 125.5t122.5 319.5q0 193 -122.5 318.5t-311.5 125.5q-191 0 -313 -124.5t-122 -319.5t122 -320t313 -125z
" />
    <glyph glyph-name="Otilde" unicode="&#xd5;" horiz-adv-x="1593" 
d="M500 1468q-52 0 -82.5 31.5t-30.5 85.5q0 116 67.5 190t172.5 74q75 0 151 -43l64 -37q66 -34 90 -34q49 0 61 55q9 35 36 55.5t67 20.5q51 0 80.5 -31.5t29.5 -85.5q0 -117 -66.5 -190.5t-172.5 -73.5q-76 0 -152 43l-61 35q-61 34 -92 34q-48 0 -62 -55
q-9 -34 -35.5 -54t-64.5 -20zM795 1376q198 0 364 -93t261.5 -254t95.5 -353q0 -144 -56.5 -274t-152.5 -223.5t-229.5 -148.5t-282.5 -55t-282 54.5t-228 148t-151 223.5t-56 275q0 193 95 354t259.5 253.5t362.5 92.5zM797 1120q-191 0 -313 -124.5t-122 -319.5t122 -320
t313 -125q189 0 311.5 125.5t122.5 319.5q0 193 -122.5 318.5t-311.5 125.5z" />
    <glyph glyph-name="Odieresis" unicode="&#xd6;" horiz-adv-x="1593" 
d="M532 1509q-64 0 -114.5 48t-50.5 110q0 67 50 113.5t115 46.5q68 0 117 -46t49 -114q0 -63 -49.5 -110.5t-116.5 -47.5zM1061 1507q-64 0 -115 48t-51 110q0 67 50.5 114.5t115.5 47.5q68 0 117 -47t49 -115q0 -63 -49.5 -110.5t-116.5 -47.5zM795 1376q198 0 364 -93
t261.5 -254t95.5 -353q0 -144 -56.5 -274t-152.5 -223.5t-229.5 -148.5t-282.5 -55t-282 54.5t-228 148t-151 223.5t-56 275q0 193 95 354t259.5 253.5t362.5 92.5zM797 1120q-191 0 -313 -124.5t-122 -319.5t122 -320t313 -125q189 0 311.5 125.5t122.5 319.5
q0 193 -122.5 318.5t-311.5 125.5z" />
    <glyph glyph-name="multiply" unicode="&#xd7;" 
d="M256 227q-47 0 -83 36t-36 83q0 45 39 84l232 232l-232 233q-39 36 -39 84q0 47 36 82t83 35t84 -37l233 -234l234 234q37 37 84 37t83 -35t36 -82q0 -48 -39 -84l-232 -233l232 -232q39 -39 39 -84q0 -47 -36 -83t-83 -36q-44 0 -84 37l-234 234l-233 -234
q-40 -37 -84 -37z" />
    <glyph glyph-name="Oslash" unicode="&#xd8;" horiz-adv-x="1595" 
d="M1378 1092q138 -188 138 -416q0 -192 -95.5 -353.5t-261 -254.5t-362.5 -93q-229 0 -410 123l-80 -80q-43 -43 -94 -43q-46 0 -79.5 35t-33.5 82q0 51 39 90l78 78q-137 183 -137 416q0 194 94.5 354.5t259.5 253t363 92.5q226 0 411 -123l80 80q43 43 94 43
q46 0 79.5 -34.5t33.5 -81.5q0 -52 -39 -91zM350 676q0 -127 53 -230l625 627q-107 60 -229 60q-195 0 -322 -129t-127 -328zM799 219q194 0 319 129t125 328q0 124 -53 227l-623 -624q102 -60 232 -60z" />
    <glyph glyph-name="Ugrave" unicode="&#xd9;" horiz-adv-x="1433" 
d="M686 1473q-61 0 -102 53l-131 184q-31 47 -27.5 95.5t41 85.5t90.5 38q87 4 127 -71l107 -205q15 -37 10.5 -76.5t-36.5 -71t-79 -32.5zM717 -25q-257 0 -415.5 161.5t-158.5 422.5v676q0 60 40 100.5t100 40.5q58 0 97.5 -40.5t39.5 -100.5v-696q0 -141 80.5 -224.5
t216.5 -83.5t216.5 83.5t80.5 224.5v696q0 60 39.5 100.5t99.5 40.5q58 0 97.5 -40.5t39.5 -100.5v-676q0 -261 -158.5 -422.5t-414.5 -161.5z" />
    <glyph glyph-name="Uacute" unicode="&#xda;" horiz-adv-x="1433" 
d="M750 1473q-47 1 -79 32.5t-36.5 71t10.5 76.5l107 205q40 75 127 71q53 -1 90.5 -38t41 -85.5t-27.5 -95.5l-131 -184q-41 -53 -102 -53zM717 -25q-257 0 -415.5 161.5t-158.5 422.5v676q0 60 40 100.5t100 40.5q58 0 97.5 -40.5t39.5 -100.5v-696q0 -141 80.5 -224.5
t216.5 -83.5t216.5 83.5t80.5 224.5v696q0 60 39.5 100.5t99.5 40.5q58 0 97.5 -40.5t39.5 -100.5v-676q0 -261 -158.5 -422.5t-414.5 -161.5z" />
    <glyph glyph-name="Ucircumflex" unicode="&#xdb;" horiz-adv-x="1433" 
d="M465 1479q-41 0 -70.5 29.5t-29.5 72.5q0 25 13.5 44.5t47.5 51.5l192 189q44 41 97 41q52 0 96 -41l193 -189q34 -32 47.5 -51.5t13.5 -44.5q0 -43 -29.5 -72.5t-70.5 -29.5q-43 0 -80 32l-170 156l-170 -156q-37 -32 -80 -32zM1153 1376q58 0 97.5 -40.5t39.5 -100.5
v-676q0 -261 -158.5 -422.5t-414.5 -161.5q-257 0 -415.5 161.5t-158.5 422.5v676q0 60 40 100.5t100 40.5q58 0 97.5 -40.5t39.5 -100.5v-696q0 -141 80.5 -224.5t216.5 -83.5t216.5 83.5t80.5 224.5v696q0 60 39.5 100.5t99.5 40.5z" />
    <glyph glyph-name="Udieresis" unicode="&#xdc;" horiz-adv-x="1433" 
d="M453 1509q-64 0 -115 48t-51 110q0 67 50.5 113.5t115.5 46.5q68 0 116.5 -46t48.5 -114q0 -63 -49 -110.5t-116 -47.5zM981 1507q-64 0 -115 48t-51 110q0 67 50.5 114.5t115.5 47.5q68 0 117 -47t49 -115q0 -63 -49.5 -110.5t-116.5 -47.5zM717 -25
q-257 0 -415.5 161.5t-158.5 422.5v676q0 60 40 100.5t100 40.5q58 0 97.5 -40.5t39.5 -100.5v-696q0 -141 80.5 -224.5t216.5 -83.5t216.5 83.5t80.5 224.5v696q0 60 39.5 100.5t99.5 40.5q58 0 97.5 -40.5t39.5 -100.5v-676q0 -261 -158.5 -422.5t-414.5 -161.5z" />
    <glyph glyph-name="Yacute" unicode="&#xdd;" horiz-adv-x="1280" 
d="M670 1473q-47 1 -79 32.5t-36.5 71t10.5 76.5l107 205q40 75 127 71q53 -1 90.5 -38t41 -85.5t-27.5 -95.5l-131 -184q-41 -53 -102 -53zM1196 1243q0 -45 -29 -90l-389 -639v-397q0 -60 -39.5 -101t-99.5 -41q-58 0 -97.5 41t-39.5 101v397l-387 639q-31 44 -31 92
q0 55 39 93t96 38q84 0 131 -82l291 -503l291 503q46 82 129 82q57 0 96 -38t39 -95z" />
    <glyph glyph-name="Thorn" unicode="&#xde;" horiz-adv-x="1214" 
d="M293 1376q58 0 97.5 -40.5t39.5 -100.5v-90h234q217 0 351 -121.5t134 -318.5q0 -195 -135 -319t-350 -124h-234v-145q0 -60 -39.5 -101t-97.5 -41q-60 0 -99.5 41t-39.5 101v1118q0 61 39 101t100 40zM662 901h-232v-397h232q95 0 149.5 53.5t54.5 144.5t-54.5 145
t-149.5 54z" />
    <glyph glyph-name="germandbls" unicode="&#xdf;" horiz-adv-x="1331" 
d="M895 -25q-181 0 -309 91q-58 38 -58 98q0 47 35 81t82 34q19 0 66 -21q98 -49 184 -49q117 0 117 86q0 35 -27.5 59.5t-132.5 87.5q-114 69 -161.5 126t-47.5 124q0 62 37 150l70 178q28 69 28 135q0 73 -42.5 114.5t-117.5 41.5q-98 0 -153 -67t-55 -187v-940
q0 -60 -39 -101t-97 -41t-97.5 41t-39.5 101v952q0 231 130.5 361.5t361.5 130.5q195 0 311.5 -90.5t116.5 -241.5q0 -86 -35 -170l-80 -205q-27 -66 -27 -98q0 -40 29 -69.5t135 -94.5q109 -67 155 -134.5t46 -158.5q0 -148 -105 -236t-280 -88z" />
    <glyph glyph-name="agrave" unicode="&#xe0;" horiz-adv-x="1116" 
d="M408 1214l-127 211q-23 39 -23 76q0 57 39 98t98 41q39 0 74.5 -21t52.5 -58l96 -220q17 -38 17 -61q3 -49 -30 -87.5t-89 -41.5q-66 -3 -108 63zM549 1036q209 0 323.5 -113.5t114.5 -320.5v-487q0 -60 -38 -99t-95 -39q-50 0 -87 30.5t-46 76.5q-115 -109 -297 -109
q-156 0 -253 84.5t-97 219.5q0 137 102.5 215.5t280.5 78.5h254v45q0 85 -49.5 132t-141.5 47q-106 0 -194 -76q-44 -33 -82 -33q-50 0 -84.5 33.5t-34.5 79.5q0 56 57 110q64 60 160 92.5t207 32.5zM498 178q91 0 152 57.5t61 143.5v12h-217q-142 0 -142 -102
q0 -51 39.5 -81t106.5 -30z" />
    <glyph glyph-name="aacute" unicode="&#xe1;" horiz-adv-x="1116" 
d="M592 1151q-56 3 -89 41.5t-30 87.5q0 25 16 61l97 220q17 37 52.5 58t74.5 21q59 0 98 -41t39 -98q0 -37 -23 -76l-127 -211q-42 -66 -108 -63zM549 1036q209 0 323.5 -113.5t114.5 -320.5v-487q0 -60 -38 -99t-95 -39q-50 0 -87 30.5t-46 76.5q-115 -109 -297 -109
q-156 0 -253 84.5t-97 219.5q0 137 102.5 215.5t280.5 78.5h254v45q0 85 -49.5 132t-141.5 47q-106 0 -194 -76q-44 -33 -82 -33q-50 0 -84.5 33.5t-34.5 79.5q0 56 57 110q64 60 160 92.5t207 32.5zM498 178q91 0 152 57.5t61 143.5v12h-217q-142 0 -142 -102
q0 -51 39.5 -81t106.5 -30z" />
    <glyph glyph-name="acircumflex" unicode="&#xe2;" horiz-adv-x="1116" 
d="M324 1159q-41 0 -73 29.5t-32 73.5q0 24 8 40t27 39l197 236q42 47 104 47q60 0 102 -47l197 -236q13 -16 18.5 -24.5t11 -23t5.5 -31.5q0 -44 -32 -73.5t-73 -29.5q-38 0 -69 31l-160 168l-162 -168q-31 -31 -69 -31zM549 1036q209 0 323.5 -113.5t114.5 -320.5v-487
q0 -60 -38 -99t-95 -39q-50 0 -87 30.5t-46 76.5q-115 -109 -297 -109q-156 0 -253 84.5t-97 219.5q0 137 102.5 215.5t280.5 78.5h254v45q0 85 -49.5 132t-141.5 47q-106 0 -194 -76q-44 -33 -82 -33q-50 0 -84.5 33.5t-34.5 79.5q0 56 57 110q64 60 160 92.5t207 32.5z
M498 178q91 0 152 57.5t61 143.5v12h-217q-142 0 -142 -102q0 -51 39.5 -81t106.5 -30z" />
    <glyph glyph-name="atilde" unicode="&#xe3;" horiz-adv-x="1116" 
d="M268 1176q-49 0 -78.5 32t-29.5 86q0 119 66.5 192t170.5 73q75 0 146 -48l57 -36q24 -16 33.5 -22t24 -11.5t28.5 -5.5q23 0 35 13.5t20 43.5q9 35 37 55.5t66 20.5q51 0 79.5 -32t28.5 -87q0 -118 -64.5 -191t-164.5 -73q-83 0 -154 47l-57 37q-4 3 -11.5 8.5
t-10.5 7.5t-9 6.5t-9 6t-8 4.5t-8 3.5t-7.5 2t-8.5 2t-8 0.5q-25 0 -39 -14.5t-22 -43.5q-9 -37 -36 -57t-67 -20zM549 1036q209 0 323.5 -113.5t114.5 -320.5v-487q0 -60 -38 -99t-95 -39q-50 0 -87 30.5t-46 76.5q-115 -109 -297 -109q-156 0 -253 84.5t-97 219.5
q0 137 102.5 215.5t280.5 78.5h254v45q0 85 -49.5 132t-141.5 47q-106 0 -194 -76q-44 -33 -82 -33q-50 0 -84.5 33.5t-34.5 79.5q0 56 57 110q64 60 160 92.5t207 32.5zM498 178q91 0 152 57.5t61 143.5v12h-217q-142 0 -142 -102q0 -51 39.5 -81t106.5 -30z" />
    <glyph glyph-name="adieresis" unicode="&#xe4;" horiz-adv-x="1116" 
d="M311 1225q-66 0 -116 47.5t-50 109.5q0 67 49 114.5t117 47.5q69 0 117.5 -46.5t48.5 -115.5q0 -64 -49 -110.5t-117 -46.5zM797 1225q-64 0 -114 47.5t-50 109.5q0 67 48 114.5t116 47.5q71 0 118.5 -46.5t47.5 -115.5q0 -65 -48.5 -111t-117.5 -46zM549 1036
q209 0 323.5 -113.5t114.5 -320.5v-487q0 -60 -38 -99t-95 -39q-50 0 -87 30.5t-46 76.5q-115 -109 -297 -109q-156 0 -253 84.5t-97 219.5q0 137 102.5 215.5t280.5 78.5h254v45q0 85 -49.5 132t-141.5 47q-106 0 -194 -76q-44 -33 -82 -33q-50 0 -84.5 33.5t-34.5 79.5
q0 56 57 110q64 60 160 92.5t207 32.5zM498 178q91 0 152 57.5t61 143.5v12h-217q-142 0 -142 -102q0 -51 39.5 -81t106.5 -30z" />
    <glyph glyph-name="aring" unicode="&#xe5;" horiz-adv-x="1116" 
d="M553 1126q-110 0 -184 72.5t-74 179.5q0 106 74 178t184 72q112 0 186 -71.5t74 -178.5q0 -108 -74 -180t-186 -72zM555 1462q-36 0 -60 -24t-24 -60q0 -37 23.5 -60.5t60.5 -23.5q35 0 59.5 24.5t24.5 59.5q0 36 -24 60t-60 24zM549 1036q209 0 323.5 -113.5
t114.5 -320.5v-487q0 -60 -38 -99t-95 -39q-50 0 -87 30.5t-46 76.5q-115 -109 -297 -109q-156 0 -253 84.5t-97 219.5q0 137 102.5 215.5t280.5 78.5h254v45q0 85 -49.5 132t-141.5 47q-106 0 -194 -76q-44 -33 -82 -33q-50 0 -84.5 33.5t-34.5 79.5q0 56 57 110
q64 60 160 92.5t207 32.5zM498 178q91 0 152 57.5t61 143.5v12h-217q-142 0 -142 -102q0 -51 39.5 -81t106.5 -30z" />
    <glyph glyph-name="ae" unicode="&#xe6;" horiz-adv-x="1798" 
d="M1245 1036q206 0 340.5 -134t134.5 -339v-14q0 -66 -41 -106t-108 -40h-578q28 -91 101.5 -140.5t183.5 -49.5q126 0 209 59q34 19 59 19q47 0 80 -32t33 -79q0 -63 -70 -110q-140 -95 -319 -95q-135 0 -245.5 54t-180.5 151q-59 -99 -161.5 -152t-238.5 -53
q-170 0 -270 83t-100 223q0 141 103 223t280 82h254v32q0 85 -49.5 132t-139.5 47q-105 0 -196 -76q-44 -33 -82 -33q-49 0 -84 34t-35 81q0 55 59 108q63 60 158 92.5t207 32.5q227 0 336 -149q143 149 360 149zM1235 813q-96 0 -163 -61.5t-87 -165.5h467q3 101 -57.5 164
t-159.5 63zM496 180q92 0 153.5 56t61.5 141v26h-217q-142 0 -142 -106q0 -54 39 -85.5t105 -31.5z" />
    <glyph glyph-name="ccedilla" unicode="&#xe7;" horiz-adv-x="1130" 
d="M934 375q51 0 87 -36t36 -87q0 -34 -23 -70q-80 -124 -231 -178q39 -67 39 -133q0 -121 -86.5 -192.5t-229.5 -71.5q-84 0 -133 18q-65 27 -65 88q0 41 28.5 70t69.5 29q9 0 31 -1t35 -1q54 0 86 20t32 61q0 43 -24 86q-216 14 -361 166t-145 365q0 146 71.5 267.5
t196.5 191t275 69.5q128 0 239 -55t170 -145q25 -40 25 -74q0 -51 -36 -87t-87 -36q-59 0 -94 43q-85 102 -213 102q-117 0 -192 -77.5t-75 -198.5q0 -123 75 -201t192 -78q120 0 213 103q38 43 94 43z" />
    <glyph glyph-name="egrave" unicode="&#xe8;" horiz-adv-x="1165" 
d="M463 1214l-127 211q-23 39 -23 76q0 57 39.5 98t98.5 41q39 0 74.5 -21t52.5 -58l96 -220q16 -36 16 -61q3 -49 -30 -87.5t-89 -41.5q-66 -3 -108 63zM606 1036q207 0 344 -135t137 -340v-6q0 -64 -41.5 -102.5t-109.5 -38.5h-578q25 -96 99 -148.5t186 -52.5
q119 0 211 59q32 19 59 19q47 0 80 -32t33 -79q0 -63 -70 -110q-143 -95 -321 -95q-118 0 -221 40.5t-176.5 111t-115.5 169t-42 210.5q0 226 151 378t375 152zM600 813q-90 0 -154.5 -55t-87.5 -150h461q-3 91 -63 148t-156 57z" />
    <glyph glyph-name="eacute" unicode="&#xe9;" horiz-adv-x="1165" 
d="M647 1151q-56 3 -89 41.5t-30 87.5q0 23 17 61l96 220q17 37 52.5 58t74.5 21q59 0 98 -41t39 -98q0 -39 -22 -76l-127 -211q-19 -30 -48 -47t-61 -16zM606 1036q207 0 344 -135t137 -340v-6q0 -64 -41.5 -102.5t-109.5 -38.5h-578q25 -96 99 -148.5t186 -52.5
q119 0 211 59q32 19 59 19q47 0 80 -32t33 -79q0 -63 -70 -110q-143 -95 -321 -95q-118 0 -221 40.5t-176.5 111t-115.5 169t-42 210.5q0 226 151 378t375 152zM600 813q-90 0 -154.5 -55t-87.5 -150h461q-3 91 -63 148t-156 57z" />
    <glyph glyph-name="ecircumflex" unicode="&#xea;" horiz-adv-x="1165" 
d="M379 1159q-41 0 -73 29.5t-32 73.5q0 24 8 40t27 39l197 236q42 47 104 47q61 0 103 -47l196 -236q13 -16 18.5 -24.5t11 -23t5.5 -31.5q0 -44 -31.5 -73.5t-72.5 -29.5q-39 0 -70 31l-160 168l-161 -168q-31 -31 -70 -31zM606 1036q207 0 344 -135t137 -340v-6
q0 -64 -41.5 -102.5t-109.5 -38.5h-578q25 -96 99 -148.5t186 -52.5q119 0 211 59q32 19 59 19q47 0 80 -32t33 -79q0 -63 -70 -110q-143 -95 -321 -95q-118 0 -221 40.5t-176.5 111t-115.5 169t-42 210.5q0 226 151 378t375 152zM600 813q-90 0 -154.5 -55t-87.5 -150h461
q-3 91 -63 148t-156 57z" />
    <glyph glyph-name="edieresis" unicode="&#xeb;" horiz-adv-x="1165" 
d="M367 1225q-66 0 -116 47.5t-50 109.5q0 67 49 114.5t117 47.5q69 0 117 -46.5t48 -115.5q0 -64 -48.5 -110.5t-116.5 -46.5zM852 1225q-64 0 -114 47.5t-50 109.5q0 67 48 114.5t116 47.5q71 0 118.5 -46.5t47.5 -115.5q0 -65 -48.5 -111t-117.5 -46zM606 1036
q207 0 344 -135t137 -340v-6q0 -64 -41.5 -102.5t-109.5 -38.5h-578q25 -96 99 -148.5t186 -52.5q119 0 211 59q32 19 59 19q47 0 80 -32t33 -79q0 -63 -70 -110q-143 -95 -321 -95q-118 0 -221 40.5t-176.5 111t-115.5 169t-42 210.5q0 226 151 378t375 152zM600 813
q-90 0 -154.5 -55t-87.5 -150h461q-3 91 -63 148t-156 57z" />
    <glyph glyph-name="igrave" unicode="&#xec;" horiz-adv-x="550" 
d="M229 1161q-30 7 -53.5 31.5t-34.5 58.5l-67 236q-11 43 -2 80q14 55 62 84t106 14q37 -9 66.5 -40t35.5 -71l37 -235q4 -43 0 -64q-9 -49 -51 -77.5t-99 -16.5zM274 -25q-58 0 -97.5 41t-39.5 101v780q0 60 39.5 99.5t99.5 39.5q59 0 98.5 -39.5t39.5 -99.5v-780
q0 -60 -40 -101t-100 -41z" />
    <glyph glyph-name="iacute" unicode="&#xed;" horiz-adv-x="550" 
d="M324 1163q-56 -7 -95.5 25.5t-44.5 81.5q-4 22 4 63l58 234q10 39 41.5 66.5t68.5 33.5q59 9 105 -25t55 -90q6 -36 -8 -77l-88 -230q-14 -33 -39.5 -55.5t-56.5 -26.5zM274 -25q-58 0 -97.5 41t-39.5 101v780q0 60 39.5 99.5t99.5 39.5q59 0 98.5 -39.5t39.5 -99.5v-780
q0 -60 -40 -101t-100 -41z" />
    <glyph glyph-name="icircumflex" unicode="&#xee;" horiz-adv-x="550" 
d="M575 1341q13 -16 18.5 -24.5t11 -23t5.5 -31.5q0 -44 -31.5 -73.5t-72.5 -29.5q-39 0 -70 31l-160 168l-161 -168q-31 -31 -70 -31q-41 0 -72.5 29.5t-31.5 73.5q0 24 8 40t26 39l197 236q42 47 104 47q61 0 103 -47zM276 1036q59 0 98.5 -39.5t39.5 -99.5v-780
q0 -60 -40 -101t-100 -41q-58 0 -97.5 41t-39.5 101v780q0 60 39.5 99.5t99.5 39.5z" />
    <glyph glyph-name="idieresis" unicode="&#xef;" horiz-adv-x="550" 
d="M51 1225q-67 0 -116.5 47t-49.5 112q0 66 48.5 113t117.5 47t117.5 -46.5t48.5 -113.5q0 -66 -49 -112.5t-117 -46.5zM502 1225q-67 0 -116.5 47t-49.5 112q0 66 48.5 113t117.5 47t116.5 -46.5t47.5 -113.5q0 -66 -48 -112.5t-116 -46.5zM274 -25q-58 0 -97.5 41
t-39.5 101v780q0 60 39.5 99.5t99.5 39.5q59 0 98.5 -39.5t39.5 -99.5v-780q0 -60 -40 -101t-100 -41z" />
    <glyph glyph-name="eth" unicode="&#xf0;" horiz-adv-x="1173" 
d="M852 987q136 -181 189 -295t53 -227q0 -211 -143 -350.5t-361 -139.5q-221 0 -365.5 135.5t-144.5 340.5q0 196 136 328t339 132h20l-126 172l-203 -100q-37 -16 -62 -16q-43 0 -74.5 32t-31.5 76q0 67 59 96l180 91l-65 90q-27 46 -27 80q0 52 38.5 90.5t90.5 38.5
q65 0 109 -62l92 -121l242 119q31 16 61 16q43 0 75 -32t32 -76q0 -30 -16.5 -56.5t-43.5 -39.5l-217 -107zM586 221q100 0 164.5 65.5t64.5 166.5q0 100 -64.5 164.5t-164.5 64.5t-164 -65t-64 -166q0 -100 63.5 -165t164.5 -65z" />
    <glyph glyph-name="ntilde" unicode="&#xf1;" horiz-adv-x="1198" 
d="M289 1176q-50 0 -79.5 32t-29.5 86q0 119 67 192t171 73q74 0 145 -48l58 -36q24 -16 33.5 -22t24 -11.5t28.5 -5.5q23 0 35 13.5t20 43.5q9 35 36.5 55.5t65.5 20.5q51 0 80 -32.5t29 -86.5q0 -118 -64.5 -191t-165.5 -73q-82 0 -153 47l-58 37l-14 10.5t-13.5 9.5
t-10.5 7t-10.5 6.5t-9 4t-10.5 3t-11 0.5q-46 0 -62 -58q-19 -77 -102 -77zM688 1036q173 0 277 -110.5t104 -296.5v-512q0 -62 -38.5 -102t-98.5 -40q-58 0 -97.5 41t-39.5 101v475q0 88 -52 142t-137 54t-138.5 -55t-53.5 -141v-475q0 -61 -39.5 -101.5t-98.5 -40.5
q-60 0 -99.5 41t-39.5 101v780q0 60 39 99.5t98 39.5q47 0 82.5 -29t46.5 -75q113 104 285 104z" />
    <glyph glyph-name="ograve" unicode="&#xf2;" horiz-adv-x="1245" 
d="M584 1151q-32 -1 -61 16t-48 47l-127 211q-22 37 -22 76q0 57 39 98t98 41q39 0 74.5 -21t52.5 -58l96 -220q16 -36 16 -61q3 -50 -29.5 -88t-88.5 -41zM623 1036q149 0 274 -70t197.5 -191.5t72.5 -266.5t-72.5 -267.5t-198 -193t-275.5 -70.5q-149 0 -273.5 70.5
t-196 192.5t-71.5 268t71.5 267.5t196.5 191t275 69.5zM623 784q-114 0 -188.5 -78.5t-74.5 -199.5q0 -120 74.5 -197.5t188.5 -77.5q113 0 187.5 78.5t74.5 196.5q0 120 -74.5 199t-187.5 79z" />
    <glyph glyph-name="oacute" unicode="&#xf3;" horiz-adv-x="1245" 
d="M659 1151q-56 3 -88.5 41t-29.5 88q0 25 16 61l96 220q17 37 52.5 58t74.5 21q59 0 98.5 -41t39.5 -98q0 -37 -23 -76l-127 -211q-19 -30 -48 -47t-61 -16zM623 1036q149 0 274 -70t197.5 -191.5t72.5 -266.5t-72.5 -267.5t-198 -193t-275.5 -70.5q-149 0 -273.5 70.5
t-196 192.5t-71.5 268t71.5 267.5t196.5 191t275 69.5zM623 784q-114 0 -188.5 -78.5t-74.5 -199.5q0 -120 74.5 -197.5t188.5 -77.5q113 0 187.5 78.5t74.5 196.5q0 120 -74.5 199t-187.5 79z" />
    <glyph glyph-name="ocircumflex" unicode="&#xf4;" horiz-adv-x="1245" 
d="M391 1159q-41 0 -72.5 29.5t-31.5 73.5q0 24 8 40t27 39l196 236q42 47 105 47q60 0 102 -47l197 -236q12 -15 18 -24.5t11 -23.5t5 -31q0 -44 -31.5 -73.5t-72.5 -29.5q-39 0 -70 31l-159 168l-162 -168q-31 -31 -70 -31zM623 1036q149 0 274 -70t197.5 -191.5
t72.5 -266.5t-72.5 -267.5t-198 -193t-275.5 -70.5q-149 0 -273.5 70.5t-196 192.5t-71.5 268t71.5 267.5t196.5 191t275 69.5zM623 231q113 0 187.5 78.5t74.5 196.5q0 120 -74.5 199t-187.5 79q-114 0 -188.5 -78.5t-74.5 -199.5q0 -120 74.5 -197.5t188.5 -77.5z" />
    <glyph glyph-name="otilde" unicode="&#xf5;" horiz-adv-x="1245" 
d="M791 1186q-83 0 -154 47l-57 37q-4 3 -11.5 8.5t-10.5 7.5t-9 6.5t-9 6t-8 4.5t-8 3.5t-7.5 2t-8.5 2t-8 0.5q-46 0 -62 -58q-19 -77 -102 -77q-50 0 -79.5 32t-29.5 86q0 119 67 192t171 73q74 0 145 -48l58 -36q24 -16 33.5 -22t24 -11.5t28.5 -5.5q23 0 35 13.5
t20 43.5q9 35 36.5 55.5t65.5 20.5q51 0 80 -32.5t29 -86.5q0 -118 -64.5 -191t-164.5 -73zM623 1036q149 0 274 -70t197.5 -191.5t72.5 -266.5t-72.5 -267.5t-198 -193t-275.5 -70.5q-149 0 -273.5 70.5t-196 192.5t-71.5 268t71.5 267.5t196.5 191t275 69.5zM623 784
q-114 0 -188.5 -78.5t-74.5 -199.5q0 -120 74.5 -197.5t188.5 -77.5q113 0 187.5 78.5t74.5 196.5q0 120 -74.5 199t-187.5 79z" />
    <glyph glyph-name="odieresis" unicode="&#xf6;" horiz-adv-x="1245" 
d="M379 1544q69 0 117.5 -46.5t48.5 -115.5q0 -64 -49 -110.5t-117 -46.5q-66 0 -116 47.5t-50 109.5q0 67 49 114.5t117 47.5zM864 1544q71 0 118.5 -46.5t47.5 -115.5q0 -65 -48.5 -111t-117.5 -46q-64 0 -114 47.5t-50 109.5q0 67 48 114.5t116 47.5zM623 1036
q149 0 274 -70t197.5 -191.5t72.5 -266.5t-72.5 -267.5t-198 -193t-275.5 -70.5q-149 0 -273.5 70.5t-196 192.5t-71.5 268t71.5 267.5t196.5 191t275 69.5zM623 784q-114 0 -188.5 -78.5t-74.5 -199.5q0 -120 74.5 -197.5t188.5 -77.5q113 0 187.5 78.5t74.5 196.5
q0 120 -74.5 199t-187.5 79z" />
    <glyph glyph-name="divide" unicode="&#xf7;" 
d="M571 1196q68 0 117 -45.5t49 -110.5q0 -67 -49 -113t-117 -46q-70 0 -119 46t-49 113q0 66 49.5 111t118.5 45zM952 774q51 0 85 -34t34 -85q0 -50 -34 -83t-85 -33h-759q-51 0 -85 33t-34 83q0 51 34 85t85 34h759zM571 428q68 0 117 -45.5t49 -112.5q0 -66 -49 -111.5
t-117 -45.5q-69 0 -118.5 45.5t-49.5 111.5q0 67 49 112.5t119 45.5z" />
    <glyph glyph-name="oslash" unicode="&#xf8;" horiz-adv-x="1253" 
d="M1137 852l-54 -53q88 -134 88 -293q0 -144 -72.5 -266.5t-198 -193.5t-275.5 -71q-158 0 -287 80l-57 -57q-40 -43 -93 -43q-48 0 -82 34t-34 83q0 48 45 90l53 53q-86 131 -86 291q0 110 42.5 208.5t114.5 169t172.5 111.5t213.5 41q152 0 286 -78l58 58q41 41 88 41
q50 0 84.5 -34t34.5 -83q0 -47 -41 -88zM627 803q-126 0 -205.5 -82.5t-79.5 -214.5q0 -69 25 -127l393 393q-60 31 -133 31zM625 209q124 0 205 84t81 213q0 72 -24 127l-395 -393q60 -31 133 -31z" />
    <glyph glyph-name="ugrave" unicode="&#xf9;" horiz-adv-x="1187" 
d="M555 1151q-32 -1 -61 16t-48 47l-127 211q-22 37 -22 76q0 57 39 98t98 41q39 0 74.5 -21t52.5 -58l96 -220q17 -38 17 -61q3 -49 -30 -87.5t-89 -41.5zM596 -25q-207 0 -338 131t-131 340v451q0 60 39.5 99.5t99.5 39.5q59 0 98 -39.5t39 -99.5v-473q0 -85 54 -140
t139 -55q83 0 135.5 55t52.5 140v473q0 60 39.5 99.5t100.5 39.5q59 0 98 -39.5t39 -99.5v-451q0 -209 -130 -340t-335 -131z" />
    <glyph glyph-name="uacute" unicode="&#xfa;" horiz-adv-x="1187" 
d="M631 1151q-56 3 -89 41.5t-30 87.5q0 25 16 61l97 220q17 37 52.5 58t74.5 21q59 0 98 -41t39 -98q0 -37 -23 -76l-127 -211q-42 -66 -108 -63zM596 -25q-207 0 -338 131t-131 340v451q0 60 39.5 99.5t99.5 39.5q59 0 98 -39.5t39 -99.5v-473q0 -85 54 -140t139 -55
q83 0 135.5 55t52.5 140v473q0 60 39.5 99.5t100.5 39.5q59 0 98 -39.5t39 -99.5v-451q0 -209 -130 -340t-335 -131z" />
    <glyph glyph-name="ucircumflex" unicode="&#xfb;" horiz-adv-x="1187" 
d="M362 1159q-41 0 -72.5 29.5t-31.5 73.5q0 24 8 40t27 39l196 236q42 47 105 47q60 0 102 -47l197 -236q13 -16 18.5 -24.5t11 -23t5.5 -31.5q0 -44 -32 -73.5t-73 -29.5q-38 0 -69 31l-160 168l-162 -168q-31 -31 -70 -31zM924 1036q59 0 98 -39.5t39 -99.5v-451
q0 -209 -130 -340t-335 -131q-207 0 -338 131t-131 340v451q0 60 39.5 99.5t99.5 39.5q59 0 98 -39.5t39 -99.5v-473q0 -85 54 -140t139 -55q83 0 135.5 55t52.5 140v473q0 60 39.5 99.5t100.5 39.5z" />
    <glyph glyph-name="udieresis" unicode="&#xfc;" horiz-adv-x="1187" 
d="M350 1544q69 0 117.5 -46.5t48.5 -115.5q0 -64 -49 -110.5t-117 -46.5q-66 0 -116 47.5t-50 109.5q0 67 49 114.5t117 47.5zM836 1544q70 0 117.5 -46.5t47.5 -115.5q0 -65 -48 -111t-117 -46q-64 0 -114 47.5t-50 109.5q0 67 48 114.5t116 47.5zM596 -25
q-207 0 -338 131t-131 340v451q0 60 39.5 99.5t99.5 39.5q59 0 98 -39.5t39 -99.5v-473q0 -85 54 -140t139 -55q83 0 135.5 55t52.5 140v473q0 60 39.5 99.5t100.5 39.5q59 0 98 -39.5t39 -99.5v-451q0 -209 -130 -340t-335 -131z" />
    <glyph glyph-name="yacute" unicode="&#xfd;" horiz-adv-x="1144" 
d="M606 1151q-56 3 -89 41.5t-30 87.5q0 23 17 61l96 220q17 37 52.5 58t74.5 21q59 0 98 -41t39 -98q0 -39 -22 -76l-127 -211q-19 -30 -48 -47t-61 -16zM969 1036q54 0 93.5 -39.5t39.5 -93.5q0 -30 -17 -63l-446 -916q-82 -167 -180 -242t-236 -75q-68 0 -117 22
q-32 13 -50.5 43t-18.5 66q0 51 36 85t89 34q6 0 14 -1t10 -1q67 0 113.5 30.5t79.5 98.5l37 82l-350 772q-19 40 -19 65q0 54 40 93.5t95 39.5q40 0 73 -21t48 -57l268 -600l275 600q15 35 48.5 56.5t74.5 21.5z" />
    <glyph glyph-name="thorn" unicode="&#xfe;" horiz-adv-x="1288" 
d="M717 1036q214 0 352.5 -149t138.5 -379q0 -231 -139 -382t-352 -151q-193 0 -303 123v-352q0 -60 -39.5 -99.5t-98.5 -39.5q-60 0 -99.5 39.5t-39.5 99.5v1673q0 60 39.5 101t99.5 41q59 0 98.5 -40.5t39.5 -101.5v-504q109 121 303 121zM666 227q114 0 188 79t74 200
q0 123 -73.5 201.5t-188.5 78.5t-185.5 -76.5t-70.5 -201.5t71 -203t185 -78z" />
    <glyph glyph-name="ydieresis" unicode="&#xff;" horiz-adv-x="1144" 
d="M326 1225q-66 0 -116 47.5t-50 109.5q0 67 49 114.5t117 47.5q69 0 117.5 -46.5t48.5 -115.5q0 -64 -49 -110.5t-117 -46.5zM811 1225q-64 0 -114 47.5t-50 109.5q0 67 48 114.5t116 47.5q71 0 118.5 -46.5t47.5 -115.5q0 -65 -48.5 -111t-117.5 -46zM969 1036
q54 0 93.5 -39.5t39.5 -93.5q0 -30 -17 -63l-446 -916q-82 -167 -180 -242t-236 -75q-68 0 -117 22q-32 13 -50.5 43t-18.5 66q0 51 36 85t89 34q6 0 14 -1t10 -1q67 0 113.5 30.5t79.5 98.5l37 82l-350 772q-19 40 -19 65q0 54 40 93.5t95 39.5q40 0 73 -21t48 -57
l268 -600l275 600q15 35 48.5 56.5t74.5 21.5z" />
    <glyph glyph-name="Amacron" unicode="&#x100;" horiz-adv-x="1355" 
d="M444 1550q-47 0 -79.5 31.5t-32.5 77.5t32.5 77t79.5 31h469q47 0 79 -31t32 -77t-32 -77.5t-79 -31.5h-469zM1270 182q16 -39 16 -73q0 -56 -38.5 -95t-96.5 -39q-89 0 -131 99l-57 139h-572l-57 -139q-39 -99 -129 -99q-58 0 -97.5 39t-39.5 95q0 27 16 73l463 1100
q39 94 131 94t131 -94zM678 969l-197 -529h389z" />
    <glyph glyph-name="amacron" unicode="&#x101;" horiz-adv-x="1116" 
d="M344 1274q-49 0 -82 31t-33 77t33 77.5t82 31.5h422q49 0 82 -31.5t33 -77.5t-33 -77t-82 -31h-422zM549 1036q209 0 323.5 -113.5t114.5 -320.5v-487q0 -60 -38 -99t-95 -39q-50 0 -87 30.5t-46 76.5q-115 -109 -297 -109q-156 0 -253 84.5t-97 219.5q0 137 102.5 215.5
t280.5 78.5h254v45q0 85 -49.5 132t-141.5 47q-106 0 -194 -76q-44 -33 -82 -33q-50 0 -84.5 33.5t-34.5 79.5q0 56 57 110q64 60 160 92.5t207 32.5zM498 178q91 0 152 57.5t61 143.5v12h-217q-142 0 -142 -102q0 -51 39.5 -81t106.5 -30z" />
    <glyph glyph-name="Abreve" unicode="&#x102;" horiz-adv-x="1355" 
d="M678 1487q-134 0 -239 85t-105 195q0 46 30 76.5t76 30.5q62 0 103 -78q43 -100 135 -100q95 0 133 100q40 78 104 78q46 0 75.5 -30.5t29.5 -76.5q0 -110 -104.5 -195t-237.5 -85zM1270 182q16 -39 16 -73q0 -56 -38.5 -95t-96.5 -39q-89 0 -131 99l-57 139h-572
l-57 -139q-39 -99 -129 -99q-58 0 -97.5 39t-39.5 95q0 27 16 73l463 1100q39 94 131 94t131 -94zM678 969l-197 -529h389z" />
    <glyph glyph-name="abreve" unicode="&#x103;" horiz-adv-x="1116" 
d="M555 1174q-141 0 -245.5 88.5t-104.5 207.5q0 47 31 80t75 33q83 0 107 -84q12 -54 48.5 -85.5t88.5 -31.5q51 0 87 31.5t48 85.5q24 84 105 84q46 0 77 -33t31 -80q0 -120 -103 -208t-245 -88zM549 1036q209 0 323.5 -113.5t114.5 -320.5v-487q0 -60 -38 -99t-95 -39
q-50 0 -87 30.5t-46 76.5q-115 -109 -297 -109q-156 0 -253 84.5t-97 219.5q0 137 102.5 215.5t280.5 78.5h254v45q0 85 -49.5 132t-141.5 47q-106 0 -194 -76q-44 -33 -82 -33q-50 0 -84.5 33.5t-34.5 79.5q0 56 57 110q64 60 160 92.5t207 32.5zM498 178q91 0 152 57.5
t61 143.5v12h-217q-142 0 -142 -102q0 -51 39.5 -81t106.5 -30z" />
    <glyph glyph-name="Aogonek" unicode="&#x104;" horiz-adv-x="1355" 
d="M1229 -190q38 0 61 -25.5t23 -65.5q0 -36 -20 -62t-58 -36q-58 -14 -123 -14q-113 0 -179.5 57t-66.5 154q0 69 37 125.5t119 126.5q0 1 -1 2t-1 2l-57 139h-572l-57 -139q-39 -99 -129 -99q-58 0 -97.5 39t-39.5 95q0 27 16 73l463 1100q39 94 131 94t131 -94l461 -1100
q16 -39 16 -73q0 -74 -61 -113q-49 -43 -75 -74.5t-26 -60.5q0 -24 19 -39t53 -15q8 0 19 1.5t14 1.5zM678 969l-197 -529h389z" />
    <glyph glyph-name="aogonek" unicode="&#x105;" horiz-adv-x="1116" 
d="M934 -190q38 0 61 -25.5t23 -65.5q0 -36 -20 -62t-58 -36q-58 -14 -123 -14q-113 0 -179.5 57t-66.5 154q0 68 37 125t117 125q-4 12 -4 16q-115 -109 -297 -109q-156 0 -253 84.5t-97 219.5q0 137 102.5 215.5t280.5 78.5h254v45q0 85 -49.5 132t-141.5 47
q-106 0 -194 -76q-44 -33 -82 -33q-50 0 -84.5 33.5t-34.5 79.5q0 56 57 110q64 60 160 92.5t207 32.5q209 0 323.5 -113.5t114.5 -320.5v-487v-15v-8q0 -47 -43 -84q-37 -32 -57 -51t-39 -46.5t-19 -49.5q0 -24 19 -39t53 -15q8 0 19 1.5t14 1.5zM498 178q91 0 152 57.5
t61 143.5v12h-217q-142 0 -142 -102q0 -51 39.5 -81t106.5 -30z" />
    <glyph glyph-name="Cacute" unicode="&#x106;" horiz-adv-x="1474" 
d="M829 1487q-47 1 -79 32.5t-36 71t11 76.5l106 205q21 40 56.5 57t70.5 15q53 -1 91 -38.5t41.5 -86t-27.5 -95.5l-131 -184q-41 -53 -103 -53zM797 -25q-150 0 -283.5 54.5t-229 148t-151 223.5t-55.5 275q0 194 95 354.5t260.5 253t365.5 92.5q155 0 293 -62t229 -171
q43 -49 43 -103q0 -51 -37.5 -88t-91.5 -37q-59 0 -107 54q-130 151 -329 151q-191 0 -314 -125.5t-123 -320.5q0 -193 123 -318t314 -125q193 0 327 152q50 53 109 53q53 0 90 -37t37 -88t-43 -102q-90 -109 -228 -171.5t-294 -62.5z" />
    <glyph glyph-name="cacute" unicode="&#x107;" horiz-adv-x="1130" 
d="M659 1151q-56 3 -88.5 41t-29.5 88q0 25 16 61l96 220q17 37 52.5 58t74.5 21q59 0 98.5 -41t39.5 -98q0 -37 -23 -76l-127 -211q-19 -30 -48 -47t-61 -16zM623 -25q-228 0 -385.5 155t-157.5 378q0 146 71.5 267.5t196.5 191t275 69.5q128 0 239 -55t170 -145
q25 -40 25 -74q0 -51 -36 -87t-87 -36q-59 0 -94 43q-85 102 -213 102q-117 0 -192 -77.5t-75 -198.5q0 -123 75 -201t192 -78q120 0 213 103q38 43 94 43q51 0 87 -36t36 -87q0 -34 -23 -70q-64 -98 -170.5 -152.5t-240.5 -54.5z" />
    <glyph glyph-name="Ccircumflex" unicode="&#x108;" horiz-adv-x="1474" 
d="M545 1493q-41 0 -71 29.5t-30 72.5q0 25 14 44.5t48 52.5l192 188q44 41 97 41q52 0 96 -41l192 -188q23 -22 34 -34t19.5 -28.5t8.5 -34.5q0 -43 -29.5 -72.5t-71.5 -29.5q-41 0 -79 33l-170 155l-170 -155q-38 -33 -80 -33zM1235 436q53 0 90 -37t37 -88t-43 -102
q-90 -109 -228 -171.5t-294 -62.5q-150 0 -283.5 54.5t-229 148t-151 223.5t-55.5 275q0 194 95 354.5t260.5 253t365.5 92.5q155 0 293 -62t229 -171q43 -49 43 -103q0 -51 -37.5 -88t-91.5 -37q-59 0 -107 54q-130 151 -329 151q-191 0 -314 -125.5t-123 -320.5
q0 -193 123 -318t314 -125q193 0 327 152q50 53 109 53z" />
    <glyph glyph-name="ccircumflex" unicode="&#x109;" horiz-adv-x="1130" 
d="M391 1159q-41 0 -72.5 29.5t-31.5 73.5q0 24 8 40t27 39l196 236q42 47 105 47q60 0 102 -47l197 -236q12 -15 18 -24.5t11 -23.5t5 -31q0 -44 -31.5 -73.5t-72.5 -29.5q-39 0 -70 31l-159 168l-162 -168q-31 -31 -70 -31zM934 375q51 0 87 -36t36 -87q0 -34 -23 -70
q-64 -98 -170.5 -152.5t-240.5 -54.5q-228 0 -385.5 155t-157.5 378q0 146 71.5 267.5t196.5 191t275 69.5q128 0 239 -55t170 -145q25 -40 25 -74q0 -51 -36 -87t-87 -36q-59 0 -94 43q-85 102 -213 102q-117 0 -192 -77.5t-75 -198.5q0 -123 75 -201t192 -78
q120 0 213 103q38 43 94 43z" />
    <glyph glyph-name="Cdotaccent" unicode="&#x10a;" horiz-adv-x="1474" 
d="M797 1849q70 0 121 -48t51 -118t-51 -117.5t-121 -47.5q-73 0 -123.5 47.5t-50.5 117.5t51 118t123 48zM797 -25q-150 0 -283.5 54.5t-229 148t-151 223.5t-55.5 275q0 194 95 354.5t260.5 253t365.5 92.5q155 0 293 -62t229 -171q43 -49 43 -103q0 -51 -37.5 -88
t-91.5 -37q-59 0 -107 54q-130 151 -329 151q-191 0 -314 -125.5t-123 -320.5q0 -193 123 -318t314 -125q193 0 327 152q50 53 109 53q53 0 90 -37t37 -88t-43 -102q-90 -109 -228 -171.5t-294 -62.5z" />
    <glyph glyph-name="cdotaccent" unicode="&#x10b;" horiz-adv-x="1130" 
d="M623 1550q70 0 121 -49t51 -119q0 -68 -51 -116.5t-121 -48.5q-72 0 -123 48t-51 117q0 70 51 119t123 49zM623 -25q-228 0 -385.5 155t-157.5 378q0 146 71.5 267.5t196.5 191t275 69.5q128 0 239 -55t170 -145q25 -40 25 -74q0 -51 -36 -87t-87 -36q-59 0 -94 43
q-85 102 -213 102q-117 0 -192 -77.5t-75 -198.5q0 -123 75 -201t192 -78q120 0 213 103q38 43 94 43q51 0 87 -36t36 -87q0 -34 -23 -70q-64 -98 -170.5 -152.5t-240.5 -54.5z" />
    <glyph glyph-name="Ccaron" unicode="&#x10c;" horiz-adv-x="1474" 
d="M506 1722q-23 22 -34 34t-19.5 28.5t-8.5 34.5q0 43 30 72.5t71 29.5q42 0 80 -33l170 -155l170 155q38 33 79 33q42 0 71.5 -29.5t29.5 -72.5q0 -25 -14 -44.5t-48 -52.5l-192 -188q-44 -41 -96 -41q-53 0 -97 41zM1235 436q53 0 90 -37t37 -88t-43 -102
q-90 -109 -228 -171.5t-294 -62.5q-150 0 -283.5 54.5t-229 148t-151 223.5t-55.5 275q0 194 95 354.5t260.5 253t365.5 92.5q155 0 293 -62t229 -171q43 -49 43 -103q0 -51 -37.5 -88t-91.5 -37q-59 0 -107 54q-130 151 -329 151q-191 0 -314 -125.5t-123 -320.5
q0 -193 123 -318t314 -125q193 0 327 152q50 53 109 53z" />
    <glyph glyph-name="ccaron" unicode="&#x10d;" horiz-adv-x="1130" 
d="M518 1208l-196 236q-35 44 -35 80q0 44 31.5 73t72.5 29q39 0 70 -31l162 -168l159 168q31 31 70 31q41 0 72.5 -29t31.5 -73q0 -38 -34 -80l-197 -236q-42 -47 -102 -47q-63 0 -105 47zM934 375q51 0 87 -36t36 -87q0 -34 -23 -70q-64 -98 -170.5 -152.5t-240.5 -54.5
q-228 0 -385.5 155t-157.5 378q0 146 71.5 267.5t196.5 191t275 69.5q128 0 239 -55t170 -145q25 -40 25 -74q0 -51 -36 -87t-87 -36q-59 0 -94 43q-85 102 -213 102q-117 0 -192 -77.5t-75 -198.5q0 -123 75 -201t192 -78q120 0 213 103q38 43 94 43z" />
    <glyph glyph-name="Dcaron" unicode="&#x10e;" horiz-adv-x="1413" 
d="M317 1708q-34 32 -47.5 51.5t-13.5 44.5q0 43 29.5 73t70.5 30q42 0 80 -33l170 -156l170 156q38 33 80 33q41 0 70.5 -30t29.5 -73q0 -25 -13.5 -44.5t-47.5 -51.5l-193 -188q-44 -41 -96 -41t-96 41zM598 1352q217 0 384 -84t259 -237t92 -351t-93 -353t-260.5 -241
t-381.5 -86h-303q-61 0 -101 40t-40 101v1069q0 62 40 102t101 40h303zM596 250q205 0 330 118t125 312q0 195 -122 308.5t-333 113.5h-166v-852h166z" />
    <glyph glyph-name="dcaron" unicode="&#x10f;" horiz-adv-x="1622" 
d="M1483 1597q69 0 112 -56t17 -134l-66 -227q-31 -84 -114 -84q-55 0 -93 43t-28 106l35 230q6 49 44.5 85.5t92.5 36.5zM1014 1561q59 0 98 -40.5t39 -101.5v-1304q0 -60 -38.5 -100t-96.5 -40q-54 0 -93 37.5t-42 91.5q-110 -129 -310 -129q-214 0 -352.5 150.5
t-138.5 380.5t138.5 380t352.5 150q192 0 303 -121v504q0 60 40 101t100 41zM623 227q115 0 185.5 77t70.5 202t-71 202.5t-185 77.5t-188.5 -79t-74.5 -199q0 -123 74 -202t189 -79z" />
    <glyph glyph-name="Dcroat" unicode="&#x110;" horiz-adv-x="1413" 
d="M598 1352q217 0 384 -84t259 -237t92 -351t-93 -353t-260.5 -241t-381.5 -86h-303q-61 0 -101 40t-40 101v385h-58q-54 0 -90.5 33t-36.5 84q0 49 36.5 82t90.5 33h58v452q0 62 40 102t101 40h303zM596 250q205 0 330 118t125 312q0 195 -122 308.5t-333 113.5h-166v-344
h111q54 0 90.5 -33t36.5 -82q0 -51 -36.5 -84t-90.5 -33h-111v-276h166z" />
    <glyph glyph-name="dcroat" unicode="&#x111;" horiz-adv-x="1302" 
d="M1212 1356q48 0 80.5 -32t32.5 -81t-32.5 -79.5t-80.5 -30.5h-63v-1016q0 -62 -37.5 -102t-95.5 -40q-56 0 -94 38t-41 96q-55 -64 -137 -99t-181 -35q-211 0 -348 141.5t-137 358.5t137 359.5t346 142.5q195 0 313 -131v287h-319q-50 0 -81.5 30.5t-31.5 79.5t32 81
t81 32h319v63q0 60 39 101t99 41q59 0 98 -40.5t39 -101.5v-63h63zM621 209q117 0 187.5 72.5t70.5 191.5q0 121 -71 195.5t-187 74.5q-113 0 -187 -75t-74 -193q0 -117 73.5 -191.5t187.5 -74.5z" />
    <glyph glyph-name="Emacron" unicode="&#x112;" horiz-adv-x="1171" 
d="M838 1767q47 0 78.5 -31t31.5 -77t-31.5 -77.5t-78.5 -31.5h-469q-47 0 -80 31.5t-33 77.5t33 77t80 31h469zM291 0q-59 0 -98 39t-39 98v1077q0 59 39.5 98.5t97.5 39.5h661q55 0 91 -35.5t36 -89.5q0 -53 -36.5 -89t-90.5 -36h-522v-275h358q52 0 86.5 -33.5
t34.5 -84.5q0 -50 -34.5 -83.5t-86.5 -33.5h-358v-342h547q55 0 91 -36t36 -89q0 -54 -36.5 -89.5t-90.5 -35.5h-686z" />
    <glyph glyph-name="emacron" unicode="&#x113;" horiz-adv-x="1165" 
d="M399 1274q-49 0 -81.5 31t-32.5 77t32.5 77.5t81.5 31.5h422q49 0 82 -31.5t33 -77.5t-33 -77t-82 -31h-422zM606 1036q207 0 344 -135t137 -340v-6q0 -64 -41.5 -102.5t-109.5 -38.5h-578q25 -96 99 -148.5t186 -52.5q119 0 211 59q32 19 59 19q47 0 80 -32t33 -79
q0 -63 -70 -110q-143 -95 -321 -95q-118 0 -221 40.5t-176.5 111t-115.5 169t-42 210.5q0 226 151 378t375 152zM600 813q-90 0 -154.5 -55t-87.5 -150h461q-3 91 -63 148t-156 57z" />
    <glyph glyph-name="Ebreve" unicode="&#x114;" horiz-adv-x="1171" 
d="M602 1487q-134 0 -239 85t-105 195q0 46 30.5 76.5t76.5 30.5q61 0 102 -78q43 -100 135 -100q95 0 133 100q40 78 105 78q45 0 74.5 -30.5t29.5 -76.5q0 -110 -104.5 -195t-237.5 -85zM291 0q-59 0 -98 39t-39 98v1077q0 59 39.5 98.5t97.5 39.5h661q55 0 91 -35.5
t36 -89.5q0 -53 -36.5 -89t-90.5 -36h-522v-275h358q52 0 86.5 -33.5t34.5 -84.5q0 -50 -34.5 -83.5t-86.5 -33.5h-358v-342h547q55 0 91 -36t36 -89q0 -54 -36.5 -89.5t-90.5 -35.5h-686z" />
    <glyph glyph-name="ebreve" unicode="&#x115;" horiz-adv-x="1165" 
d="M610 1174q-141 0 -245.5 88.5t-104.5 207.5q0 47 31.5 80t75.5 33q82 0 106 -84q12 -54 48.5 -85.5t88.5 -31.5q51 0 87 31.5t48 85.5q24 84 105 84q46 0 77 -33t31 -80q0 -120 -103 -208t-245 -88zM606 1036q207 0 344 -135t137 -340v-6q0 -64 -41.5 -102.5
t-109.5 -38.5h-578q25 -96 99 -148.5t186 -52.5q119 0 211 59q32 19 59 19q47 0 80 -32t33 -79q0 -63 -70 -110q-143 -95 -321 -95q-118 0 -221 40.5t-176.5 111t-115.5 169t-42 210.5q0 226 151 378t375 152zM600 813q-90 0 -154.5 -55t-87.5 -150h461q-3 91 -63 148
t-156 57z" />
    <glyph glyph-name="Edotaccent" unicode="&#x116;" horiz-adv-x="1171" 
d="M602 1835q70 0 121 -48t51 -118t-51 -118t-121 -48q-72 0 -123 48t-51 118t51 118t123 48zM291 0q-59 0 -98 39t-39 98v1077q0 59 39.5 98.5t97.5 39.5h661q55 0 91 -35.5t36 -89.5q0 -53 -36.5 -89t-90.5 -36h-522v-275h358q52 0 86.5 -33.5t34.5 -84.5
q0 -50 -34.5 -83.5t-86.5 -33.5h-358v-342h547q55 0 91 -36t36 -89q0 -54 -36.5 -89.5t-90.5 -35.5h-686z" />
    <glyph glyph-name="edotaccent" unicode="&#x117;" horiz-adv-x="1165" 
d="M610 1217q-72 0 -123 48t-51 117q0 70 51 119t123 49q70 0 121 -49t51 -119q0 -68 -51 -116.5t-121 -48.5zM606 1036q207 0 344 -135t137 -340v-6q0 -64 -41.5 -102.5t-109.5 -38.5h-578q25 -96 99 -148.5t186 -52.5q119 0 211 59q32 19 59 19q47 0 80 -32t33 -79
q0 -63 -70 -110q-143 -95 -321 -95q-118 0 -221 40.5t-176.5 111t-115.5 169t-42 210.5q0 226 151 378t375 152zM600 813q-90 0 -154.5 -55t-87.5 -150h461q-3 91 -63 148t-156 57z" />
    <glyph glyph-name="Eogonek" unicode="&#x118;" horiz-adv-x="1173" 
d="M1018 -190q38 0 62 -25.5t24 -65.5q0 -36 -21 -62t-59 -36q-58 -14 -123 -14q-110 0 -178 56.5t-68 148.5q0 82 95 188h-459q-59 0 -98 39t-39 98v1077q0 59 39.5 98.5t97.5 39.5h661q55 0 91 -35.5t36 -89.5q0 -53 -36.5 -89t-90.5 -36h-522v-275h358q52 0 86.5 -33.5
t34.5 -84.5q0 -50 -34.5 -83.5t-86.5 -33.5h-358v-342h547q55 0 91 -36t36 -89q0 -27 -8 -43q-4 -23 -31 -49l-78 -68q-44 -38 -59 -59.5t-15 -44.5q0 -25 20 -39.5t54 -14.5q5 0 17 1.5t14 1.5z" />
    <glyph glyph-name="eogonek" unicode="&#x119;" horiz-adv-x="1165" 
d="M606 1036q207 0 344 -135t137 -340v-6q0 -64 -41.5 -102.5t-109.5 -38.5h-578q25 -96 99 -148.5t186 -52.5q119 0 211 59q32 19 59 19q47 0 80 -32t33 -79q0 -63 -70 -110l-73 -56q-63 -44 -95 -77.5t-32 -69.5q0 -28 20.5 -45t52.5 -17q5 0 17 2.5t14 2.5q38 0 62 -25.5
t24 -65.5q0 -36 -21 -62t-59 -36q-58 -14 -123 -14q-111 0 -178 57t-67 152q0 81 71 164q-216 22 -352.5 168t-136.5 358q0 226 151 378t375 152zM600 813q-90 0 -154.5 -55t-87.5 -150h461q-3 91 -63 148t-156 57z" />
    <glyph glyph-name="Ecaron" unicode="&#x11a;" horiz-adv-x="1171" 
d="M311 1708q-34 32 -47.5 51.5t-13.5 44.5q0 43 29.5 73t70.5 30q42 0 80 -33l170 -156l170 156q38 33 80 33q41 0 70.5 -30t29.5 -73q0 -25 -13.5 -44.5t-47.5 -51.5l-193 -188q-44 -41 -96 -41t-96 41zM977 250q55 0 91 -36t36 -89q0 -54 -36.5 -89.5t-90.5 -35.5h-686
q-59 0 -98 39t-39 98v1077q0 59 39.5 98.5t97.5 39.5h661q55 0 91 -35.5t36 -89.5q0 -53 -36.5 -89t-90.5 -36h-522v-275h358q52 0 86.5 -33.5t34.5 -84.5q0 -50 -34.5 -83.5t-86.5 -33.5h-358v-342h547z" />
    <glyph glyph-name="ecaron" unicode="&#x11b;" horiz-adv-x="1165" 
d="M506 1208l-197 236q-35 44 -35 80q0 44 32 73t73 29q39 0 70 -31l161 -168l160 168q31 31 70 31q41 0 72.5 -29t31.5 -73q0 -36 -35 -80l-196 -236q-42 -47 -103 -47q-62 0 -104 47zM606 1036q207 0 344 -135t137 -340v-6q0 -64 -41.5 -102.5t-109.5 -38.5h-578
q25 -96 99 -148.5t186 -52.5q119 0 211 59q32 19 59 19q47 0 80 -32t33 -79q0 -63 -70 -110q-143 -95 -321 -95q-118 0 -221 40.5t-176.5 111t-115.5 169t-42 210.5q0 226 151 378t375 152zM600 813q-90 0 -154.5 -55t-87.5 -150h461q-3 91 -63 148t-156 57z" />
    <glyph glyph-name="Gcircumflex" unicode="&#x11c;" horiz-adv-x="1529" 
d="M543 1479q-41 0 -71 29.5t-30 72.5q0 25 13.5 44t48.5 52l192 189q44 41 97 41q52 0 96 -41l192 -189q24 -23 34.5 -34t19 -27.5t8.5 -34.5q0 -43 -29.5 -72.5t-71.5 -29.5t-79 32l-170 156l-170 -156q-37 -32 -80 -32zM1305 741q61 0 101 -39.5t40 -101.5v-174
q0 -89 -43 -154q-92 -135 -257 -216t-345 -81q-151 0 -285 54.5t-230 147.5t-152 223t-56 276t56 275.5t152 223t230 147.5t285 54q138 0 267 -51t212 -139q84 -78 84 -146q0 -51 -37.5 -88t-89.5 -37q-61 0 -117 62q-134 143 -323 143q-192 0 -313.5 -123t-121.5 -321
q0 -201 125.5 -327t325.5 -126q112 0 204.5 42.5t151.5 119.5v117h-258q-55 0 -92 34t-37 85q0 52 36.5 86t92.5 34h394z" />
    <glyph glyph-name="gcircumflex" unicode="&#x11d;" horiz-adv-x="1292" 
d="M401 1159q-41 0 -72.5 29.5t-31.5 73.5q0 24 8 40t27 39l196 236q42 47 105 47q60 0 102 -47l197 -236q13 -16 18.5 -24.5t11 -23t5.5 -31.5q0 -44 -32 -73.5t-73 -29.5q-38 0 -69 31l-160 168l-162 -168q-31 -31 -70 -31zM1020 1036q58 0 96.5 -39.5t38.5 -99.5v-784
q0 -239 -138 -372.5t-386 -133.5q-257 0 -436 141q-58 42 -58 100q0 52 36.5 88.5t88.5 36.5q33 0 74 -26q130 -90 272 -90q128 0 199.5 62.5t71.5 176.5v56q-112 -121 -310 -121q-214 0 -349.5 141.5t-135.5 362.5t135.5 361t349.5 140q206 0 316 -129q3 55 42 92t93 37z
M627 264q115 0 185.5 76t70.5 199q0 119 -69.5 190.5t-186.5 71.5q-116 0 -189 -73.5t-73 -190.5q0 -119 74 -196t188 -77z" />
    <glyph glyph-name="Gbreve" unicode="&#x11e;" horiz-adv-x="1529" 
d="M795 1487q-134 0 -239 85t-105 195q0 46 30 76.5t76 30.5q61 0 102 -78q43 -100 136 -100q95 0 133 100q40 78 104 78q46 0 75.5 -30.5t29.5 -76.5q0 -110 -104.5 -195t-237.5 -85zM801 -25q-151 0 -285 54.5t-230 147.5t-152 223t-56 276t56 275.5t152 223t230 147.5
t285 54q138 0 267 -51t212 -139q84 -78 84 -146q0 -51 -37.5 -88t-89.5 -37q-61 0 -117 62q-134 143 -323 143q-192 0 -313.5 -123t-121.5 -321q0 -201 125.5 -327t325.5 -126q112 0 204.5 42.5t151.5 119.5v117h-258q-55 0 -92 34t-37 85q0 52 36.5 86t92.5 34h394
q61 0 101 -39.5t40 -101.5v-174q0 -89 -43 -154q-92 -135 -257 -216t-345 -81z" />
    <glyph glyph-name="gbreve" unicode="&#x11f;" horiz-adv-x="1292" 
d="M633 1174q-141 0 -245.5 88.5t-104.5 207.5q0 47 31 80t75 33q83 0 107 -84q12 -54 48.5 -85.5t88.5 -31.5q51 0 87 31.5t48 85.5q24 84 104 84q46 0 77.5 -33t31.5 -80q0 -120 -103 -208t-245 -88zM1020 1036q58 0 96.5 -39.5t38.5 -99.5v-784q0 -239 -138 -372.5
t-386 -133.5q-257 0 -436 141q-58 42 -58 100q0 52 36.5 88.5t88.5 36.5q33 0 74 -26q130 -90 272 -90q128 0 199.5 62.5t71.5 176.5v56q-112 -121 -310 -121q-214 0 -349.5 141.5t-135.5 362.5t135.5 361t349.5 140q206 0 316 -129q3 55 42 92t93 37zM627 264
q115 0 185.5 76t70.5 199q0 119 -69.5 190.5t-186.5 71.5q-116 0 -189 -73.5t-73 -190.5q0 -119 74 -196t188 -77z" />
    <glyph glyph-name="Gdotaccent" unicode="&#x120;" horiz-adv-x="1529" 
d="M795 1835q70 0 121 -48t51 -118t-51 -118t-121 -48q-72 0 -123 48t-51 118t51 118t123 48zM801 -25q-151 0 -285 54.5t-230 147.5t-152 223t-56 276t56 275.5t152 223t230 147.5t285 54q138 0 267 -51t212 -139q84 -78 84 -146q0 -51 -37.5 -88t-89.5 -37q-61 0 -117 62
q-134 143 -323 143q-192 0 -313.5 -123t-121.5 -321q0 -201 125.5 -327t325.5 -126q112 0 204.5 42.5t151.5 119.5v117h-258q-55 0 -92 34t-37 85q0 52 36.5 86t92.5 34h394q61 0 101 -39.5t40 -101.5v-174q0 -89 -43 -154q-92 -135 -257 -216t-345 -81z" />
    <glyph glyph-name="gdotaccent" unicode="&#x121;" horiz-adv-x="1292" 
d="M633 1217q-72 0 -123 48t-51 117q0 70 51 119t123 49q70 0 121 -49t51 -119q0 -68 -51 -116.5t-121 -48.5zM1020 1036q58 0 96.5 -39.5t38.5 -99.5v-784q0 -239 -138 -372.5t-386 -133.5q-257 0 -436 141q-58 42 -58 100q0 52 36.5 88.5t88.5 36.5q33 0 74 -26
q130 -90 272 -90q128 0 199.5 62.5t71.5 176.5v56q-112 -121 -310 -121q-214 0 -349.5 141.5t-135.5 362.5t135.5 361t349.5 140q206 0 316 -129q3 55 42 92t93 37zM627 264q115 0 185.5 76t70.5 199q0 119 -69.5 190.5t-186.5 71.5q-116 0 -189 -73.5t-73 -190.5
q0 -119 74 -196t188 -77z" />
    <glyph glyph-name="Gcommaaccent" unicode="&#x122;" horiz-adv-x="1529" 
d="M801 -25q-151 0 -285 54.5t-230 147.5t-152 223t-56 276t56 275.5t152 223t230 147.5t285 54q138 0 267 -51t212 -139q84 -78 84 -146q0 -51 -37.5 -88t-89.5 -37q-61 0 -117 62q-134 143 -323 143q-192 0 -313.5 -123t-121.5 -321q0 -201 125.5 -327t325.5 -126
q112 0 204.5 42.5t151.5 119.5v117h-258q-55 0 -92 34t-37 85q0 52 36.5 86t92.5 34h394q61 0 101 -39.5t40 -101.5v-174q0 -89 -43 -154q-92 -135 -257 -216t-345 -81zM731 -520q-46 0 -82.5 34.5t-36.5 79.5q0 23 12.5 79t12.5 108q0 57 41 97t98 40t97 -40t40 -97
q0 -65 -21 -132t-54 -106q-45 -63 -107 -63z" />
    <glyph glyph-name="gcommaaccent" unicode="&#x123;" horiz-adv-x="1292" 
d="M633 1147q-56 0 -94.5 38t-38.5 95q0 68 18 153.5t43 143.5q43 98 127 98q47 0 82 -33t35 -83q0 -14 -14 -82q-23 -130 -23 -197q0 -56 -39.5 -94.5t-95.5 -38.5zM1020 1036q58 0 96.5 -39.5t38.5 -99.5v-784q0 -239 -138 -372.5t-386 -133.5q-257 0 -436 141
q-58 42 -58 100q0 52 36.5 88.5t88.5 36.5q33 0 74 -26q130 -90 272 -90q128 0 199.5 62.5t71.5 176.5v56q-112 -121 -310 -121q-214 0 -349.5 141.5t-135.5 362.5t135.5 361t349.5 140q206 0 316 -129q3 55 42 92t93 37zM627 264q115 0 185.5 76t70.5 199
q0 119 -69.5 190.5t-186.5 71.5q-116 0 -189 -73.5t-73 -190.5q0 -119 74 -196t188 -77z" />
    <glyph glyph-name="Hcircumflex" unicode="&#x124;" horiz-adv-x="1458" 
d="M477 1479q-41 0 -70.5 29.5t-29.5 72.5q0 25 13.5 44.5t47.5 51.5l193 189q44 41 96 41t96 -41l193 -189q34 -32 47.5 -51.5t13.5 -44.5q0 -43 -29.5 -72.5t-70.5 -29.5q-43 0 -80 32l-170 156l-170 -156q-37 -32 -80 -32zM1167 1376q60 0 99 -40t39 -101v-1116
q0 -61 -39.5 -102.5t-98.5 -41.5q-60 0 -99.5 41t-39.5 103v465h-598v-465q0 -61 -39 -102.5t-98 -41.5q-60 0 -99.5 41t-39.5 103v1114q0 62 39 102.5t100 40.5q60 0 98.5 -40.5t38.5 -102.5v-399h598v401q0 62 39 101.5t100 39.5z" />
    <glyph glyph-name="hcircumflex" unicode="&#x125;" horiz-adv-x="1198" 
d="M242 1696q-38 -33 -80 -33t-71.5 29.5t-29.5 72.5q0 25 14 44.5t48 52.5l192 188q44 41 97 41q52 0 96 -41l192 -188q23 -22 34 -34t19.5 -28.5t8.5 -34.5q0 -43 -29.5 -72.5t-70.5 -29.5q-42 0 -80 33l-170 155zM692 1036q170 0 273.5 -111.5t103.5 -295.5v-512
q0 -62 -38.5 -102t-98.5 -40q-58 0 -97.5 41t-39.5 101v473q0 89 -52 142.5t-137 53.5t-138.5 -54.5t-53.5 -141.5v-473q0 -61 -39.5 -101.5t-98.5 -40.5q-60 0 -99.5 41t-39.5 101v1302q0 60 39.5 101t99.5 41q59 0 98.5 -40.5t39.5 -101.5v-493q110 110 278 110z" />
    <glyph glyph-name="Hbar" unicode="&#x126;" horiz-adv-x="1499" 
d="M311 -25q-58 0 -97.5 41t-39.5 101v776h-88q-51 0 -84 32.5t-33 82.5q0 51 33 83.5t84 32.5h88v111q0 60 39.5 100.5t97.5 40.5q60 0 100 -40.5t40 -100.5v-111h598v111q0 60 38.5 100.5t98.5 40.5t99.5 -40.5t39.5 -100.5v-111h88q51 0 84 -32.5t33 -83.5
q0 -50 -33 -82.5t-84 -32.5h-88v-776q0 -60 -39.5 -101t-99.5 -41q-58 0 -97.5 41t-39.5 101v321h-598v-321q0 -60 -40 -101t-100 -41zM451 676h598v217h-598v-217z" />
    <glyph glyph-name="hbar" unicode="&#x127;" horiz-adv-x="1214" 
d="M707 977q172 0 275 -111.5t103 -296.5v-452q0 -61 -39 -101.5t-98 -40.5q-60 0 -99.5 41t-39.5 101v413q0 88 -51.5 142.5t-134.5 54.5q-86 0 -140.5 -54.5t-54.5 -142.5v-413q0 -60 -39.5 -101t-97.5 -41t-97.5 41t-39.5 101v1011h-62q-50 0 -83.5 33t-33.5 82t33.5 81
t83.5 32h62v63q0 62 38.5 102t98.5 40q58 0 97.5 -41t39.5 -101v-63h291q50 0 82.5 -32t32.5 -81t-33 -82t-82 -33h-291v-262q111 111 279 111z" />
    <glyph glyph-name="Itilde" unicode="&#x128;" horiz-adv-x="583" 
d="M-4 1468q-52 0 -82.5 31.5t-30.5 85.5q0 116 67.5 190t172.5 74q75 0 151 -43l64 -37q66 -34 90 -34q49 0 61 55q9 35 36 55.5t67 20.5q51 0 80.5 -31.5t29.5 -85.5q0 -117 -66.5 -190.5t-172.5 -73.5q-76 0 -152 43l-61 35q-61 34 -92 34q-48 0 -62 -55
q-9 -34 -35.5 -54t-64.5 -20zM293 -25q-61 0 -100 40.5t-39 101.5v1118q0 61 39 101t100 40q60 0 98.5 -40.5t38.5 -100.5v-1118q0 -61 -38.5 -101.5t-98.5 -40.5z" />
    <glyph glyph-name="itilde" unicode="&#x129;" horiz-adv-x="550" 
d="M420 1186q-69 0 -139 53l-41 31q-40 35 -66 35q-24 0 -36.5 -13.5t-20.5 -44.5q-9 -35 -36 -55.5t-67 -20.5q-49 0 -78.5 32.5t-29.5 86.5q0 117 64 190.5t165 73.5q67 0 137 -53l41 -31q42 -34 68 -34q23 0 36 13t19 42q9 35 37 56.5t66 21.5q51 0 79.5 -32t28.5 -87
q0 -118 -63 -191t-164 -73zM274 -25q-58 0 -97.5 41t-39.5 101v780q0 60 39.5 99.5t99.5 39.5q59 0 98.5 -39.5t39.5 -99.5v-780q0 -60 -40 -101t-100 -41z" />
    <glyph glyph-name="Imacron" unicode="&#x12a;" horiz-adv-x="583" 
d="M528 1767q47 0 79 -31t32 -77t-32 -77.5t-79 -31.5h-469q-47 0 -79.5 31.5t-32.5 77.5t32.5 77t79.5 31h469zM293 -25q-61 0 -100 40.5t-39 101.5v1118q0 61 39 101t100 40q60 0 98.5 -40.5t38.5 -100.5v-1118q0 -61 -38.5 -101.5t-98.5 -40.5z" />
    <glyph glyph-name="imacron" unicode="&#x12b;" horiz-adv-x="550" 
d="M446 1491q47 0 78 -31.5t31 -77.5t-31 -77t-78 -31h-337q-47 0 -79 31t-32 77t32 77.5t79 31.5h337zM274 -25q-58 0 -97.5 41t-39.5 101v780q0 60 39.5 99.5t99.5 39.5q59 0 98.5 -39.5t39.5 -99.5v-780q0 -60 -40 -101t-100 -41z" />
    <glyph glyph-name="Ibreve" unicode="&#x12c;" horiz-adv-x="583" 
d="M293 1487q-134 0 -239 85t-105 195q0 46 30 76.5t76 30.5q62 0 103 -78q43 -100 135 -100q95 0 133 100q40 78 104 78q46 0 75.5 -30.5t29.5 -76.5q0 -110 -104.5 -195t-237.5 -85zM293 -25q-61 0 -100 40.5t-39 101.5v1118q0 61 39 101t100 40q60 0 98.5 -40.5
t38.5 -100.5v-1118q0 -61 -38.5 -101.5t-98.5 -40.5z" />
    <glyph glyph-name="ibreve" unicode="&#x12d;" horiz-adv-x="550" 
d="M276 1174q-141 0 -245.5 88.5t-104.5 207.5q0 47 31.5 80t75.5 33q82 0 106 -84q12 -54 48.5 -85.5t88.5 -31.5q51 0 87.5 31.5t48.5 85.5q24 84 104 84q46 0 77.5 -33t31.5 -80q0 -120 -103.5 -208t-245.5 -88zM274 -25q-58 0 -97.5 41t-39.5 101v780q0 60 39.5 99.5
t99.5 39.5q59 0 98.5 -39.5t39.5 -99.5v-780q0 -60 -40 -101t-100 -41z" />
    <glyph glyph-name="Iogonek" unicode="&#x12e;" horiz-adv-x="583" 
d="M377 -190q38 0 61 -25.5t23 -65.5q0 -36 -20 -62t-58 -36q-58 -14 -123 -14q-113 0 -179.5 57t-66.5 154q0 68 35 123t113 122q-8 32 -8 54v1118q0 61 39 101t100 40q60 0 98.5 -40.5t38.5 -100.5v-1118v-15v-10q0 -47 -43 -84q-37 -32 -57 -51t-39 -46.5t-19 -49.5
q0 -24 19 -39t53 -15q8 0 19 1.5t14 1.5z" />
    <glyph glyph-name="iogonek" unicode="&#x12f;" horiz-adv-x="550" 
d="M276 1217q-72 0 -123 48t-51 117q0 70 51 119t123 49q70 0 121.5 -49t51.5 -119q0 -68 -51.5 -116.5t-121.5 -48.5zM360 -190q38 0 61 -25.5t23 -65.5q0 -77 -77 -98q-58 -14 -123 -14q-113 0 -179.5 57t-66.5 154q0 68 35.5 123.5t113.5 121.5q-10 27 -10 54v780
q0 60 39.5 99.5t99.5 39.5q59 0 98.5 -39.5t39.5 -99.5v-780v-15v-10q0 -47 -43 -84q-37 -32 -57 -51t-39 -46.5t-19 -49.5q0 -24 19 -39t53 -15q8 0 18.5 1.5t13.5 1.5z" />
    <glyph glyph-name="Idotaccent" unicode="&#x130;" horiz-adv-x="583" 
d="M293 1835q70 0 121 -48t51 -118t-51 -118t-121 -48q-72 0 -123 48t-51 118t51 118t123 48zM293 -25q-61 0 -100 40.5t-39 101.5v1118q0 61 39 101t100 40q60 0 98.5 -40.5t38.5 -100.5v-1118q0 -61 -38.5 -101.5t-98.5 -40.5z" />
    <glyph glyph-name="dotlessi" unicode="&#x131;" horiz-adv-x="550" 
d="M274 -25q-58 0 -97.5 41t-39.5 101v780q0 60 39.5 99.5t99.5 39.5q59 0 98.5 -39.5t39.5 -99.5v-780q0 -60 -40 -101t-100 -41z" />
    <glyph glyph-name="IJ" unicode="&#x132;" horiz-adv-x="1378" 
d="M293 -25q-61 0 -100 40.5t-39 101.5v1118q0 61 39 101t100 40q60 0 98.5 -40.5t38.5 -100.5v-1118q0 -61 -38.5 -101.5t-98.5 -40.5zM801 -25q-75 0 -127 19q-35 15 -57.5 47.5t-22.5 69.5q0 52 36.5 87t92.5 35q16 0 48 -3t50 -3q59 0 93 36t34 99v873q0 61 39 101
t100 40q60 0 99 -40.5t39 -100.5v-875q0 -191 -106.5 -288t-317.5 -97z" />
    <glyph glyph-name="ij" unicode="&#x133;" horiz-adv-x="1101" 
d="M276 1550q70 0 121.5 -49t51.5 -119q0 -68 -51.5 -116.5t-121.5 -48.5q-72 0 -123 48t-51 117q0 70 51 119t123 49zM827 1550q70 0 121 -49t51 -119q0 -68 -51 -116.5t-121 -48.5q-72 0 -123 48t-51 117q0 70 51 119t123 49zM274 -25q-58 0 -97.5 41t-39.5 101v780
q0 60 39.5 99.5t99.5 39.5q59 0 98.5 -39.5t39.5 -99.5v-780q0 -60 -40 -101t-100 -41zM586 -393q-57 0 -113 18q-84 33 -84 113q0 51 33 85t84 34q5 0 13 -1t13 -1q81 0 118.5 39.5t37.5 142.5v860q0 60 39.5 99.5t99.5 39.5q59 0 98.5 -39.5t39.5 -99.5v-909
q0 -184 -101 -282.5t-278 -98.5z" />
    <glyph glyph-name="Jcircumflex" unicode="&#x134;" horiz-adv-x="794" 
d="M754 1677q34 -32 47.5 -51.5t13.5 -44.5q0 -43 -29.5 -72.5t-70.5 -29.5q-43 0 -80 32l-170 156l-170 -156q-37 -32 -80 -32q-41 0 -70.5 29.5t-29.5 72.5q0 25 13.5 44.5t47.5 51.5l193 189q44 41 96 41t96 -41zM504 1376q60 0 98.5 -40.5t38.5 -100.5v-875
q0 -191 -106.5 -288t-317.5 -97q-75 0 -127 19q-35 15 -57.5 47.5t-22.5 69.5q0 52 36.5 87t92.5 35q16 0 48.5 -3t50.5 -3q59 0 93 36t34 99v873q0 61 39 101t100 40z" />
    <glyph glyph-name="jcircumflex" unicode="&#x135;" horiz-adv-x="550" 
d="M575 1341q13 -16 18.5 -24.5t11 -23t5.5 -31.5q0 -44 -31.5 -73.5t-72.5 -29.5q-39 0 -70 31l-160 168l-161 -168q-31 -31 -70 -31q-41 0 -72.5 29.5t-31.5 73.5q0 24 8 40t26 39l197 236q42 47 104 47q61 0 103 -47zM276 1036q59 0 98.5 -39.5t39.5 -99.5v-909
q0 -184 -101 -282.5t-278 -98.5q-57 0 -113 18q-84 33 -84 113q0 51 33 85t84 34q5 0 13.5 -1t13.5 -1q81 0 118 39.5t37 142.5v860q0 60 39.5 99.5t99.5 39.5z" />
    <glyph glyph-name="Kcommaaccent" unicode="&#x136;" horiz-adv-x="1372" 
d="M293 1376q58 0 97.5 -40.5t39.5 -100.5v-1118q0 -60 -39.5 -101t-97.5 -41q-60 0 -99.5 41t-39.5 101v1118q0 61 39 101t100 40zM1241 190q35 -41 35 -84q0 -53 -38.5 -92t-90.5 -39q-62 0 -111 58l-514 592q-37 43 -37 92q0 46 39 88l488 526q45 45 100 45
q51 0 88 -37.5t37 -91.5q0 -48 -41 -92l-408 -440zM676 -82q57 0 97 -40t40 -97q0 -65 -21 -131.5t-55 -106.5q-45 -63 -106 -63q-46 0 -82.5 34.5t-36.5 79.5q0 23 12.5 79t12.5 108q0 57 41 97t98 40z" />
    <glyph glyph-name="kcommaaccent" unicode="&#x137;" 
d="M414 1419v-1302q0 -61 -39.5 -101.5t-98.5 -40.5q-60 0 -99.5 41t-39.5 101v1302q0 60 39.5 101t99.5 41t99 -40t39 -102zM1042 188q33 -42 33 -86q0 -54 -36 -90.5t-89 -36.5q-62 0 -102 52l-346 426q-43 57 -43 100q0 47 49 102l323 338q40 43 97 43q54 0 90.5 -35.5
t36.5 -87.5q0 -53 -45 -98l-258 -262zM578 -82q57 0 97 -40t40 -97q0 -65 -21 -131.5t-55 -106.5q-45 -63 -107 -63q-46 0 -82 34.5t-36 79.5q0 23 12 79t12 108q0 57 41.5 97t98.5 40z" />
    <glyph glyph-name="Lacute" unicode="&#x139;" horiz-adv-x="1071" 
d="M326 1473q-47 1 -79 32.5t-36.5 71t10.5 76.5l107 205q40 75 127 71q53 -1 90.5 -38t41 -85.5t-27.5 -95.5l-131 -184q-41 -53 -102 -53zM295 0q-61 0 -101 40t-40 101v1094q0 57 39.5 99t99.5 42t98.5 -40.5t38.5 -100.5v-985h481q55 0 91 -36t36 -89q0 -54 -36 -89.5
t-91 -35.5h-616z" />
    <glyph glyph-name="lacute" unicode="&#x13a;" horiz-adv-x="550" 
d="M309 1657q-47 1 -79 32.5t-36 71t11 76.5l106 205q21 40 56.5 57t70.5 15q53 -1 91 -38.5t41.5 -86t-27.5 -95.5l-131 -184q-41 -53 -103 -53zM276 -25q-60 0 -99.5 41t-39.5 101v1302q0 60 39.5 101t99.5 41q58 0 98 -41t40 -101v-1302q0 -60 -40 -101t-98 -41z" />
    <glyph glyph-name="Lcommaaccent" unicode="&#x13b;" horiz-adv-x="1071" 
d="M295 0q-61 0 -101 40t-40 101v1094q0 57 39.5 99t99.5 42t98.5 -40.5t38.5 -100.5v-985h481q55 0 91 -36t36 -89q0 -54 -36 -89.5t-91 -35.5h-616zM528 -520q-46 0 -82 34.5t-36 79.5q0 23 12 79t12 108q0 57 41 97t98 40t97.5 -40t40.5 -97q0 -65 -21 -131.5t-55 -106.5
q-45 -63 -107 -63z" />
    <glyph glyph-name="lcommaaccent" unicode="&#x13c;" horiz-adv-x="550" 
d="M276 -25q-60 0 -99.5 41t-39.5 101v1302q0 60 39.5 101t99.5 41q58 0 98 -41t40 -101v-1302q0 -60 -40 -101t-98 -41zM227 -520q-46 0 -82 34.5t-36 79.5q0 23 12 79t12 108q0 57 41 97t98 40t97.5 -40t40.5 -97q0 -65 -21 -131.5t-55 -106.5q-45 -63 -107 -63z" />
    <glyph glyph-name="Lcaron" unicode="&#x13d;" horiz-adv-x="1071" 
d="M872 1034q-55 0 -92.5 43t-27.5 107l34 229q6 49 45 86t93 37q69 0 112 -56t17 -134l-66 -228q-31 -84 -115 -84zM295 0q-61 0 -101 40t-40 101v1094q0 57 39.5 99t99.5 42t98.5 -40.5t38.5 -100.5v-985h481q55 0 91 -36t36 -89q0 -54 -36 -89.5t-91 -35.5h-616z" />
    <glyph glyph-name="lcaron" unicode="&#x13e;" horiz-adv-x="886" 
d="M694 1096q-55 0 -93 43t-28 106l35 230q6 49 44.5 85.5t92.5 36.5q69 0 112 -56t17 -134l-65 -227q-31 -84 -115 -84zM276 -25q-60 0 -99.5 41t-39.5 101v1302q0 60 39.5 101t99.5 41q58 0 98 -41t40 -101v-1302q0 -60 -40 -101t-98 -41z" />
    <glyph glyph-name="Ldot" unicode="&#x13f;" horiz-adv-x="1073" 
d="M295 0q-61 0 -101 40t-40 101v1094q0 57 39.5 99t99.5 42t98.5 -40.5t38.5 -100.5v-985h481q55 0 91 -36t36 -89q0 -54 -36 -89.5t-91 -35.5h-616zM829 584q-83 0 -137.5 55t-54.5 135q0 79 55 135t137 56q81 0 135 -56t54 -135q0 -80 -54 -135t-135 -55z" />
    <glyph glyph-name="ldot" unicode="&#x140;" horiz-adv-x="841" 
d="M276 -25q-60 0 -99.5 41t-39.5 101v1302q0 60 39.5 101t99.5 41q58 0 98 -41t40 -101v-1302q0 -60 -40 -101t-98 -41zM692 465q-83 0 -137.5 55t-54.5 135q0 79 55 135t137 56q81 0 135 -56t54 -135q0 -80 -54 -135t-135 -55z" />
    <glyph glyph-name="Lslash" unicode="&#x141;" horiz-adv-x="1073" 
d="M911 250q55 0 91 -36t36 -89q0 -54 -36 -89.5t-91 -35.5h-616q-61 0 -101 40t-40 101v275q-59 -22 -110.5 11t-51.5 93q0 80 90 119l72 33v563q0 57 39.5 99t99.5 42t98.5 -40.5t38.5 -100.5v-451l256 115q60 28 114 -4.5t54 -95.5q0 -41 -21 -69t-67 -50l-336 -152v-278
h481z" />
    <glyph glyph-name="lslash" unicode="&#x142;" horiz-adv-x="677" 
d="M535 899q47 0 82 -36t34 -83q0 -33 -19 -62t-52 -42l-117 -53v-506q0 -61 -38.5 -101.5t-98.5 -40.5q-58 0 -98 41t-40 101v403h-2q-21 -12 -53 -12q-48 0 -83 35t-34 82q0 33 19.5 62t52.5 44l100 45v643q0 60 39 101t99 41t98.5 -40.5t38.5 -101.5v-540l18 8
q21 12 54 12z" />
    <glyph glyph-name="Nacute" unicode="&#x143;" horiz-adv-x="1458" 
d="M762 1473q-47 1 -79 32.5t-36.5 71t10.5 76.5l107 205q40 75 127 71q53 -1 90.5 -38t41 -85.5t-27.5 -95.5l-131 -184q-41 -53 -102 -53zM1167 1376q59 0 98.5 -40.5t39.5 -100.5v-1120q0 -59 -39 -99.5t-97 -40.5q-32 0 -58.5 13.5t-40.5 27.5t-38 43l-602 775v-717
q0 -60 -39.5 -101t-97.5 -41q-60 0 -99.5 41t-39.5 101v1120q0 59 39 99t96 40q33 0 60 -14t40.5 -28t40.5 -48l600 -768l-2 717q0 60 39.5 100.5t99.5 40.5z" />
    <glyph glyph-name="nacute" unicode="&#x144;" horiz-adv-x="1198" 
d="M612 1151q-56 3 -88.5 41t-29.5 88q0 25 16 61l96 220q17 37 52.5 58t74.5 21q59 0 98 -41t39 -98q0 -39 -22 -76l-127 -211q-19 -30 -48 -47t-61 -16zM688 1036q173 0 277 -110.5t104 -296.5v-512q0 -62 -38.5 -102t-98.5 -40q-58 0 -97.5 41t-39.5 101v475
q0 88 -52 142t-137 54t-138.5 -55t-53.5 -141v-475q0 -61 -39.5 -101.5t-98.5 -40.5q-60 0 -99.5 41t-39.5 101v780q0 60 39 99.5t98 39.5q47 0 82.5 -29t46.5 -75q113 104 285 104z" />
    <glyph glyph-name="Ncommaaccent" unicode="&#x145;" horiz-adv-x="1458" 
d="M1167 1376q59 0 98.5 -40.5t39.5 -100.5v-1120q0 -59 -39 -99.5t-97 -40.5q-32 0 -58.5 13.5t-40.5 27.5t-38 43l-602 775v-717q0 -60 -39.5 -101t-97.5 -41q-60 0 -99.5 41t-39.5 101v1120q0 59 39 99t96 40q33 0 60 -14t40.5 -28t40.5 -48l600 -768l-2 717
q0 60 39.5 100.5t99.5 40.5zM725 -82q57 0 97 -40t40 -97q0 -65 -21 -131.5t-55 -106.5q-45 -63 -106 -63q-46 0 -82.5 34.5t-36.5 79.5q0 23 12.5 79t12.5 108q0 57 41 97t98 40z" />
    <glyph glyph-name="ncommaaccent" unicode="&#x146;" horiz-adv-x="1198" 
d="M688 1036q173 0 277 -110.5t104 -296.5v-512q0 -62 -38.5 -102t-98.5 -40q-58 0 -97.5 41t-39.5 101v475q0 88 -52 142t-137 54t-138.5 -55t-53.5 -141v-475q0 -61 -39.5 -101.5t-98.5 -40.5q-60 0 -99.5 41t-39.5 101v780q0 60 39 99.5t98 39.5q47 0 82.5 -29t46.5 -75
q113 104 285 104zM604 -82q57 0 97 -40t40 -97q0 -65 -21 -132t-54 -106q-45 -63 -107 -63q-46 0 -82.5 34.5t-36.5 79.5q0 23 12.5 79t12.5 108q0 57 41 97t98 40z" />
    <glyph glyph-name="Ncaron" unicode="&#x147;" horiz-adv-x="1458" 
d="M438 1708q-34 32 -47.5 51.5t-13.5 44.5q0 43 29.5 73t70.5 30q42 0 80 -33l170 -156l170 156q38 33 80 33q41 0 70.5 -30t29.5 -73q0 -25 -13.5 -44.5t-47.5 -51.5l-193 -188q-44 -41 -96 -41t-96 41zM1167 1376q59 0 98.5 -40.5t39.5 -100.5v-1120q0 -59 -39 -99.5
t-97 -40.5q-32 0 -58.5 13.5t-40.5 27.5t-38 43l-602 775v-717q0 -60 -39.5 -101t-97.5 -41q-60 0 -99.5 41t-39.5 101v1120q0 59 39 99t96 40q33 0 60 -14t40.5 -28t40.5 -48l600 -768l-2 717q0 60 39.5 100.5t99.5 40.5z" />
    <glyph glyph-name="ncaron" unicode="&#x148;" horiz-adv-x="1198" 
d="M471 1208l-197 236q-34 42 -34 80q0 44 31.5 73t72.5 29q39 0 70 -31l161 -168l160 168q31 31 70 31q41 0 72.5 -29t31.5 -73q0 -36 -35 -80l-196 -236q-42 -47 -103 -47q-62 0 -104 47zM688 1036q173 0 277 -110.5t104 -296.5v-512q0 -62 -38.5 -102t-98.5 -40
q-58 0 -97.5 41t-39.5 101v475q0 88 -52 142t-137 54t-138.5 -55t-53.5 -141v-475q0 -61 -39.5 -101.5t-98.5 -40.5q-60 0 -99.5 41t-39.5 101v780q0 60 39 99.5t98 39.5q47 0 82.5 -29t46.5 -75q113 104 285 104z" />
    <glyph glyph-name="Eng" unicode="&#x14a;" horiz-adv-x="1460" 
d="M1305 211h2v-223q0 -186 -99.5 -283.5t-289.5 -97.5q-78 0 -121 24q-66 38 -66 109q0 56 37.5 92.5t97.5 36.5h19q70 0 107.5 35t37.5 100v57l-600 773v-717q0 -60 -39.5 -101t-97.5 -41q-60 0 -99.5 41t-39.5 101v1120q0 59 39 99t96 40q33 0 60 -14t40.5 -28t40.5 -48
l600 -768l-2 717q0 60 39.5 100.5t99.5 40.5q59 0 98.5 -40.5t39.5 -100.5v-1024z" />
    <glyph glyph-name="eng" unicode="&#x14b;" horiz-adv-x="1198" 
d="M688 1036q173 0 277 -110.5t104 -296.5v-641q0 -176 -105 -278.5t-272 -102.5q-65 0 -117 18q-38 13 -59.5 43t-21.5 70q0 51 33.5 85t84.5 34q4 0 12 -1t13 -1q158 0 158 157v580q0 88 -52 142t-137 54t-138.5 -55t-53.5 -141v-475q0 -61 -39.5 -101.5t-98.5 -40.5
q-60 0 -99.5 41t-39.5 101v780q0 60 39 99.5t98 39.5q47 0 82.5 -29t46.5 -75q113 104 285 104z" />
    <glyph glyph-name="Omacron" unicode="&#x14c;" horiz-adv-x="1593" 
d="M1032 1767q47 0 79 -31t32 -77t-32 -77.5t-79 -31.5h-469q-47 0 -79.5 31.5t-32.5 77.5t32.5 77t79.5 31h469zM795 1376q198 0 364 -93t261.5 -254t95.5 -353q0 -144 -56.5 -274t-152.5 -223.5t-229.5 -148.5t-282.5 -55t-282 54.5t-228 148t-151 223.5t-56 275
q0 193 95 354t259.5 253.5t362.5 92.5zM797 1120q-191 0 -313 -124.5t-122 -319.5t122 -320t313 -125q189 0 311.5 125.5t122.5 319.5q0 193 -122.5 318.5t-311.5 125.5z" />
    <glyph glyph-name="omacron" unicode="&#x14d;" horiz-adv-x="1245" 
d="M834 1491q49 0 81.5 -31.5t32.5 -77.5t-32.5 -77t-81.5 -31h-422q-49 0 -82 31t-33 77t33 77.5t82 31.5h422zM623 1036q149 0 274 -70t197.5 -191.5t72.5 -266.5t-72.5 -267.5t-198 -193t-275.5 -70.5q-149 0 -273.5 70.5t-196 192.5t-71.5 268t71.5 267.5t196.5 191
t275 69.5zM623 784q-114 0 -188.5 -78.5t-74.5 -199.5q0 -120 74.5 -197.5t188.5 -77.5q113 0 187.5 78.5t74.5 196.5q0 120 -74.5 199t-187.5 79z" />
    <glyph glyph-name="Obreve" unicode="&#x14e;" horiz-adv-x="1593" 
d="M797 1487q-134 0 -239 85t-105 195q0 46 30 76.5t76 30.5q62 0 103 -78q43 -100 135 -100q95 0 133 100q40 78 104 78q46 0 75.5 -30.5t29.5 -76.5q0 -110 -104.5 -195t-237.5 -85zM795 1376q198 0 364 -93t261.5 -254t95.5 -353q0 -144 -56.5 -274t-152.5 -223.5
t-229.5 -148.5t-282.5 -55t-282 54.5t-228 148t-151 223.5t-56 275q0 193 95 354t259.5 253.5t362.5 92.5zM797 1120q-191 0 -313 -124.5t-122 -319.5t122 -320t313 -125q189 0 311.5 125.5t122.5 319.5q0 193 -122.5 318.5t-311.5 125.5z" />
    <glyph glyph-name="obreve" unicode="&#x14f;" horiz-adv-x="1245" 
d="M623 1174q-141 0 -246 88.5t-105 207.5q0 47 31.5 80t75.5 33q82 0 106 -84q12 -54 49 -85.5t89 -31.5q51 0 87 31.5t48 85.5q24 84 104 84q46 0 77.5 -33t31.5 -80q0 -120 -103 -208t-245 -88zM623 1036q149 0 274 -70t197.5 -191.5t72.5 -266.5t-72.5 -267.5t-198 -193
t-275.5 -70.5q-149 0 -273.5 70.5t-196 192.5t-71.5 268t71.5 267.5t196.5 191t275 69.5zM623 784q-114 0 -188.5 -78.5t-74.5 -199.5q0 -120 74.5 -197.5t188.5 -77.5q113 0 187.5 78.5t74.5 196.5q0 120 -74.5 199t-187.5 79z" />
    <glyph glyph-name="Ohungarumlaut" unicode="&#x150;" horiz-adv-x="1593" 
d="M596 1473q-47 1 -79 32.5t-36 71t11 76.5l106 205q40 75 127 71q53 -1 90.5 -38t41 -85.5t-27.5 -95.5l-131 -184q-41 -53 -102 -53zM1036 1473q-47 1 -79 32.5t-36 71t11 76.5l106 205q40 75 127 71q53 -1 91 -38t41.5 -85.5t-27.5 -95.5l-131 -184q-41 -53 -103 -53z
M795 1376q198 0 364 -93t261.5 -254t95.5 -353q0 -144 -56.5 -274t-152.5 -223.5t-229.5 -148.5t-282.5 -55t-282 54.5t-228 148t-151 223.5t-56 275q0 193 95 354t259.5 253.5t362.5 92.5zM797 1120q-191 0 -313 -124.5t-122 -319.5t122 -320t313 -125q189 0 311.5 125.5
t122.5 319.5q0 193 -122.5 318.5t-311.5 125.5z" />
    <glyph glyph-name="ohungarumlaut" unicode="&#x151;" horiz-adv-x="1245" 
d="M473 1151q-56 3 -89 41.5t-30 87.5q0 23 17 61l96 220q17 37 52.5 58t74.5 21q59 0 98 -41t39 -98q0 -39 -22 -76l-127 -211q-19 -30 -48 -47t-61 -16zM866 1151q-56 3 -88.5 41t-29.5 88q0 25 16 61l96 220q17 37 52.5 58t74.5 21q59 0 98 -41t39 -98q0 -39 -22 -76
l-127 -211q-19 -30 -48 -47t-61 -16zM623 1036q149 0 274 -70t197.5 -191.5t72.5 -266.5t-72.5 -267.5t-198 -193t-275.5 -70.5q-149 0 -273.5 70.5t-196 192.5t-71.5 268t71.5 267.5t196.5 191t275 69.5zM623 784q-114 0 -188.5 -78.5t-74.5 -199.5q0 -120 74.5 -197.5
t188.5 -77.5q113 0 187.5 78.5t74.5 196.5q0 120 -74.5 199t-187.5 79z" />
    <glyph glyph-name="OE" unicode="&#x152;" horiz-adv-x="2248" 
d="M2052 250q55 0 91 -36t36 -89q0 -54 -36.5 -89.5t-90.5 -35.5h-686q-58 0 -97.5 39t-39.5 98v4q-81 -79 -193.5 -122.5t-242.5 -43.5q-199 0 -363 92t-258 253t-94 356t94 355.5t258.5 252.5t364.5 92q129 0 242 -43.5t192 -120.5v2q0 59 39.5 98.5t97.5 39.5h662
q55 0 90.5 -35.5t35.5 -89.5q0 -53 -36 -89t-90 -36h-523v-275h359q52 0 86.5 -33.5t34.5 -84.5q0 -50 -34.5 -83.5t-86.5 -33.5h-359v-342h547zM795 231q177 0 298 110.5t136 285.5v94q-15 177 -136 288t-298 111q-189 0 -311 -125t-122 -321q0 -193 122 -318t311 -125z
" />
    <glyph glyph-name="oe" unicode="&#x153;" horiz-adv-x="1929" 
d="M1370 1036q207 0 344 -135t137 -340v-6q0 -64 -40.5 -102.5t-108.5 -38.5h-572q23 -97 95 -149t184 -52q123 0 209 59q34 19 59 19q47 0 80 -32t33 -79q0 -63 -70 -110q-140 -95 -319 -95q-125 0 -229.5 49t-174.5 138q-65 -89 -163.5 -138t-217.5 -49
q-147 0 -270.5 70.5t-194.5 192.5t-71 268t71 268t194.5 192t270.5 70q118 0 216 -48t163 -136q67 87 164 135.5t211 48.5zM1366 813q-89 0 -151.5 -54.5t-84.5 -150.5h453q-3 91 -62.5 148t-154.5 57zM621 229q109 0 179 78t70 199q0 123 -70 200.5t-179 77.5
q-114 0 -187.5 -79t-73.5 -199t73.5 -198.5t187.5 -78.5z" />
    <glyph glyph-name="Racute" unicode="&#x154;" horiz-adv-x="1310" 
d="M594 1473q-47 1 -79 32.5t-36.5 71t10.5 76.5l107 205q40 75 127 71q53 -1 90.5 -38t41 -85.5t-27.5 -95.5l-131 -184q-41 -53 -102 -53zM1182 207q39 -58 39 -105q0 -52 -38 -89.5t-91 -37.5q-72 0 -123 72l-303 430h-2h-234v-360q0 -60 -39.5 -101t-97.5 -41
q-60 0 -99.5 41t-39.5 101v1095q0 60 40 100t101 40h369q217 0 351 -120t134 -314q0 -121 -55.5 -218t-155.5 -155zM430 1108v-387h232q95 0 149.5 52t54.5 142q0 88 -55 140.5t-149 52.5h-232z" />
    <glyph glyph-name="racute" unicode="&#x155;" horiz-adv-x="794" 
d="M428 1151q-56 3 -89 41.5t-30 87.5q0 23 17 61l96 220q17 37 52.5 58t74.5 21q59 0 98 -41t39 -98q0 -39 -22 -76l-127 -211q-19 -30 -48 -47t-61 -16zM655 1026q56 0 90.5 -34t34.5 -91q0 -55 -35 -91t-94 -42q-111 -8 -174 -77t-63 -185v-389q0 -61 -39.5 -101.5
t-98.5 -40.5q-60 0 -99.5 41t-39.5 101v780q0 60 39 99.5t98 39.5q54 0 91.5 -35.5t42.5 -89.5q101 115 247 115z" />
    <glyph glyph-name="Rcommaaccent" unicode="&#x156;" horiz-adv-x="1310" 
d="M1182 207q39 -58 39 -105q0 -52 -38 -89.5t-91 -37.5q-72 0 -123 72l-303 430h-2h-234v-360q0 -60 -39.5 -101t-97.5 -41q-60 0 -99.5 41t-39.5 101v1095q0 60 40 100t101 40h369q217 0 351 -120t134 -314q0 -121 -55.5 -218t-155.5 -155zM430 1108v-387h232
q95 0 149.5 52t54.5 142q0 88 -55 140.5t-149 52.5h-232zM643 -82q57 0 97 -40t40 -97q0 -65 -21 -132t-54 -106q-45 -63 -107 -63q-46 0 -82.5 34.5t-36.5 79.5q0 23 12.5 79t12.5 108q0 57 41 97t98 40z" />
    <glyph glyph-name="rcommaaccent" unicode="&#x157;" horiz-adv-x="794" 
d="M655 1026q56 0 90.5 -34t34.5 -91q0 -55 -35 -91t-94 -42q-111 -8 -174 -77t-63 -185v-389q0 -61 -39.5 -101.5t-98.5 -40.5q-60 0 -99.5 41t-39.5 101v780q0 60 39 99.5t98 39.5q54 0 91.5 -35.5t42.5 -89.5q101 115 247 115zM270 -82q57 0 97.5 -40t40.5 -97
q0 -65 -21 -131.5t-55 -106.5q-45 -63 -107 -63q-46 0 -82.5 34.5t-36.5 79.5q0 23 12.5 79t12.5 108q0 57 41 97t98 40z" />
    <glyph glyph-name="Rcaron" unicode="&#x158;" horiz-adv-x="1310" 
d="M270 1708q-34 32 -47.5 51.5t-13.5 44.5q0 43 29.5 73t70.5 30q42 0 80 -33l170 -156l170 156q38 33 80 33q41 0 70.5 -30t29.5 -73q0 -25 -13.5 -44.5t-47.5 -51.5l-193 -188q-44 -41 -96 -41t-96 41zM1182 207q39 -58 39 -105q0 -52 -38 -89.5t-91 -37.5q-72 0 -123 72
l-303 430h-2h-234v-360q0 -60 -39.5 -101t-97.5 -41q-60 0 -99.5 41t-39.5 101v1095q0 60 40 100t101 40h369q217 0 351 -120t134 -314q0 -121 -55.5 -218t-155.5 -155zM430 1108v-387h232q95 0 149.5 52t54.5 142q0 88 -55 140.5t-149 52.5h-232z" />
    <glyph glyph-name="rcaron" unicode="&#x159;" horiz-adv-x="794" 
d="M391 1161q-62 0 -104 47l-197 236q-35 44 -35 80q0 44 32 73t73 29q38 0 69 -31l162 -168l160 168q31 31 70 31q41 0 72.5 -29t31.5 -73q0 -36 -35 -80l-196 -236q-42 -47 -103 -47zM655 1026q56 0 90.5 -34t34.5 -91q0 -55 -35 -91t-94 -42q-111 -8 -174 -77t-63 -185
v-389q0 -61 -39.5 -101.5t-98.5 -40.5q-60 0 -99.5 41t-39.5 101v780q0 60 39 99.5t98 39.5q54 0 91.5 -35.5t42.5 -89.5q101 115 247 115z" />
    <glyph glyph-name="Sacute" unicode="&#x15a;" horiz-adv-x="1144" 
d="M606 1473q-47 1 -79 32.5t-36 71t11 76.5l106 205q40 75 127 71q53 -1 91 -38t41.5 -85.5t-27.5 -95.5l-131 -184q-41 -53 -103 -53zM584 -25q-121 0 -242 50t-195 133q-51 51 -51 106q1 54 38.5 88.5t88.5 34.5q42 0 72 -27q134 -139 289 -139q90 0 141 40.5t51 109.5
q0 56 -36.5 89.5t-135.5 78.5l-145 65q-166 76 -247 169t-81 220q0 169 127.5 276t321.5 107q136 0 229.5 -47.5t148.5 -111.5q37 -40 37 -89q0 -51 -39 -86.5t-88 -35.5q-40 0 -75 28q-51 46 -99.5 71t-113.5 25q-75 0 -121.5 -34.5t-46.5 -96.5q0 -50 32.5 -81.5
t124.5 -73.5l154 -68q174 -77 254 -168.5t80 -226.5q0 -184 -133.5 -295t-339.5 -111z" />
    <glyph glyph-name="sacute" unicode="&#x15b;" horiz-adv-x="931" 
d="M512 1151q-56 3 -89 41.5t-30 87.5q0 23 17 61l96 220q17 37 52.5 58t74.5 21q59 0 98 -41t39 -98q0 -39 -22 -76l-127 -211q-19 -30 -48 -47t-61 -16zM465 -25q-111 0 -207 39t-166 107q-39 33 -39 86q0 47 34 82t81 35q41 0 80 -31q104 -90 221 -90q56 0 92.5 21.5
t36.5 62.5q0 17 -6.5 29.5t-24 24.5t-30 18t-43.5 20l-109 45q-140 57 -208 126.5t-68 182.5q0 143 103.5 224t268.5 81q193 0 320 -108q49 -37 49 -94q0 -47 -33.5 -81t-79.5 -34q-28 0 -73 29q-87 61 -185 61q-108 0 -108 -72q0 -29 23.5 -48t82.5 -42l98 -41
q147 -60 216 -128.5t69 -180.5q0 -152 -111.5 -238t-283.5 -86z" />
    <glyph glyph-name="Scircumflex" unicode="&#x15c;" horiz-adv-x="1144" 
d="M322 1479q-42 0 -71.5 29.5t-29.5 72.5q0 25 13.5 44t48.5 52l192 189q44 41 96 41q53 0 97 -41l192 -189q24 -23 34.5 -34t19 -27.5t8.5 -34.5q0 -43 -30 -72.5t-71 -29.5q-43 0 -80 32l-170 156l-170 -156q-37 -32 -79 -32zM723 776q174 -77 254 -168.5t80 -226.5
q0 -184 -133.5 -295t-339.5 -111q-121 0 -242 50t-195 133q-51 51 -51 106q1 54 38.5 88.5t88.5 34.5q42 0 72 -27q134 -139 289 -139q90 0 141 40.5t51 109.5q0 56 -36.5 89.5t-135.5 78.5l-145 65q-166 76 -247 169t-81 220q0 169 127.5 276t321.5 107q136 0 229.5 -47.5
t148.5 -111.5q37 -40 37 -89q0 -51 -39 -86.5t-88 -35.5q-40 0 -75 28q-51 46 -99.5 71t-113.5 25q-75 0 -121.5 -34.5t-46.5 -96.5q0 -50 32.5 -81.5t124.5 -73.5z" />
    <glyph glyph-name="scircumflex" unicode="&#x15d;" horiz-adv-x="931" 
d="M244 1159q-41 0 -73 29.5t-32 73.5q0 24 8 40t27 39l197 236q42 47 104 47q61 0 103 -47l196 -236q13 -16 18.5 -24.5t11 -23t5.5 -31.5q0 -44 -31.5 -73.5t-72.5 -29.5q-39 0 -70 31l-160 168l-162 -168q-31 -31 -69 -31zM575 608q147 -60 216 -128.5t69 -180.5
q0 -152 -111.5 -238t-283.5 -86q-111 0 -207 39t-166 107q-39 33 -39 86q0 47 34 82t81 35q41 0 80 -31q104 -90 221 -90q56 0 92.5 21.5t36.5 62.5q0 17 -6.5 29.5t-24 24.5t-30 18t-43.5 20l-109 45q-140 57 -208 126.5t-68 182.5q0 143 103.5 224t268.5 81
q193 0 320 -108q49 -37 49 -94q0 -47 -33.5 -81t-79.5 -34q-28 0 -73 29q-87 61 -185 61q-108 0 -108 -72q0 -29 23.5 -48t82.5 -42z" />
    <glyph glyph-name="Scedilla" unicode="&#x15e;" horiz-adv-x="1144" 
d="M1057 381q0 -142 -81 -242t-218 -139q35 -75 35 -129q0 -121 -86.5 -192.5t-229.5 -71.5q-83 0 -133 18q-65 27 -65 88q0 41 28.5 70t69.5 29q9 0 30.5 -1t34.5 -1q54 0 86.5 20t32.5 61q0 45 -26 86q-110 9 -215.5 58t-172.5 123q-51 51 -51 106q1 54 38.5 88.5
t88.5 34.5q42 0 72 -27q134 -139 289 -139q90 0 141 40.5t51 109.5q0 56 -36.5 89.5t-135.5 78.5l-145 65q-166 76 -247 169t-81 220q0 169 127.5 276t321.5 107q136 0 229.5 -47.5t148.5 -111.5q37 -40 37 -89q0 -51 -39 -86.5t-88 -35.5q-40 0 -75 28q-51 46 -99.5 71
t-113.5 25q-75 0 -121.5 -34.5t-46.5 -96.5q0 -50 32.5 -81.5t124.5 -73.5l154 -68q174 -77 254 -168.5t80 -226.5z" />
    <glyph glyph-name="scedilla" unicode="&#x15f;" horiz-adv-x="931" 
d="M860 299q0 -105 -56 -180t-153 -113q39 -67 39 -135q0 -121 -86 -192.5t-229 -71.5q-83 0 -133 18q-66 28 -66 88q0 41 28.5 70t69.5 29q9 0 31 -1t35 -1q54 0 86.5 20t32.5 61q0 43 -25 84q-204 12 -342 146q-39 33 -39 86q0 47 34 82t81 35q41 0 80 -31
q104 -90 221 -90q56 0 92.5 21.5t36.5 62.5q0 17 -6.5 29.5t-24 24.5t-30 18t-43.5 20l-109 45q-140 57 -208 126.5t-68 182.5q0 143 103.5 224t268.5 81q193 0 320 -108q49 -37 49 -94q0 -47 -33.5 -81t-79.5 -34q-28 0 -73 29q-87 61 -185 61q-108 0 -108 -72
q0 -29 23.5 -48t82.5 -42l98 -41q147 -60 216 -128.5t69 -180.5z" />
    <glyph glyph-name="Scaron" unicode="&#x160;" horiz-adv-x="1144" 
d="M283 1708q-24 23 -34.5 34t-19 27.5t-8.5 34.5q0 43 30 73t71 30t79 -33l170 -156l170 156q38 33 80 33q41 0 71 -30t30 -73q0 -25 -13.5 -44t-48.5 -52l-192 -188q-44 -41 -97 -41q-52 0 -96 41zM723 776q174 -77 254 -168.5t80 -226.5q0 -184 -133.5 -295t-339.5 -111
q-121 0 -242 50t-195 133q-51 51 -51 106q1 54 38.5 88.5t88.5 34.5q42 0 72 -27q134 -139 289 -139q90 0 141 40.5t51 109.5q0 56 -36.5 89.5t-135.5 78.5l-145 65q-166 76 -247 169t-81 220q0 169 127.5 276t321.5 107q136 0 229.5 -47.5t148.5 -111.5q37 -40 37 -89
q0 -51 -39 -86.5t-88 -35.5q-40 0 -75 28q-51 46 -99.5 71t-113.5 25q-75 0 -121.5 -34.5t-46.5 -96.5q0 -50 32.5 -81.5t124.5 -73.5z" />
    <glyph glyph-name="scaron" unicode="&#x161;" horiz-adv-x="931" 
d="M371 1208l-197 236q-35 44 -35 80q0 44 32 73t73 29q38 0 69 -31l162 -168l160 168q31 31 70 31q41 0 72.5 -29t31.5 -73q0 -36 -35 -80l-196 -236q-42 -47 -103 -47q-62 0 -104 47zM575 608q147 -60 216 -128.5t69 -180.5q0 -152 -111.5 -238t-283.5 -86q-111 0 -207 39
t-166 107q-39 33 -39 86q0 47 34 82t81 35q41 0 80 -31q104 -90 221 -90q56 0 92.5 21.5t36.5 62.5q0 17 -6.5 29.5t-24 24.5t-30 18t-43.5 20l-109 45q-140 57 -208 126.5t-68 182.5q0 143 103.5 224t268.5 81q193 0 320 -108q49 -37 49 -94q0 -47 -33.5 -81t-79.5 -34
q-28 0 -73 29q-87 61 -185 61q-108 0 -108 -72q0 -29 23.5 -48t82.5 -42z" />
    <glyph glyph-name="uni0162" unicode="&#x162;" horiz-adv-x="1198" 
d="M1059 1352q55 0 91 -35.5t36 -89.5q0 -53 -36.5 -89t-90.5 -36h-322v-985v-4q53 -46 88 -113.5t35 -128.5q0 -121 -86 -192.5t-229 -71.5q-83 0 -133 18q-66 28 -66 88q0 41 28.5 70t69.5 29q9 0 31 -1t35 -1q54 0 86.5 20t32.5 61q0 43 -25 84h-6q-58 0 -97.5 41
t-39.5 101v985h-322q-54 0 -90.5 36t-36.5 89q0 54 36.5 89.5t90.5 35.5h920z" />
    <glyph glyph-name="uni0163" unicode="&#x163;" horiz-adv-x="851" 
d="M690 225q55 0 88 -30.5t33 -81.5q0 -78 -70 -111q-42 -17 -86 -22q25 -66 25 -109q0 -121 -86 -192.5t-229 -71.5q-85 0 -134 18q-65 27 -65 88q0 41 28.5 70t69.5 29q9 0 31 -1t35 -1q54 0 86.5 20t32.5 61q0 57 -43 111l-5 6q-208 80 -208 348v424h-58q-51 0 -85 33
t-34 84t34 84t85 33h58v139q0 60 39 99.5t100 39.5q59 0 98 -39.5t39 -99.5v-139h186q51 0 84 -33t33 -84t-33 -84t-84 -33h-186v-399q0 -85 42.5 -121.5t139.5 -36.5q9 0 22 1t17 1z" />
    <glyph glyph-name="Tcaron" unicode="&#x164;" horiz-adv-x="1198" 
d="M309 1708q-34 32 -47.5 51.5t-13.5 44.5q0 43 29.5 73t70.5 30q42 0 80 -33l170 -156l170 156q38 33 80 33q41 0 70.5 -30t29.5 -73q0 -25 -13.5 -44.5t-47.5 -51.5l-193 -188q-44 -41 -96 -41t-96 41zM1059 1352q55 0 91 -35.5t36 -89.5q0 -53 -36.5 -89t-90.5 -36h-322
v-985q0 -60 -39.5 -101t-99.5 -41q-58 0 -97.5 41t-39.5 101v985h-322q-54 0 -90.5 36t-36.5 89q0 54 36.5 89.5t90.5 35.5h920z" />
    <glyph glyph-name="tcaron" unicode="&#x165;" horiz-adv-x="851" 
d="M807 1597q69 0 112 -56t17 -134l-66 -227q-31 -84 -114 -84q-55 0 -93 43t-28 106l35 230q6 49 44.5 85.5t92.5 36.5zM690 225q55 0 88 -30.5t33 -81.5q0 -78 -70 -111q-66 -27 -143 -27q-198 0 -301.5 97.5t-103.5 283.5v424h-58q-51 0 -85 33t-34 84t34 84t85 33h58
v139q0 60 39 99.5t100 39.5q59 0 98 -39.5t39 -99.5v-139h186q51 0 84 -33t33 -84t-33 -84t-84 -33h-186v-399q0 -85 42.5 -121.5t139.5 -36.5q9 0 22 1t17 1z" />
    <glyph glyph-name="Tbar" unicode="&#x166;" horiz-adv-x="1198" 
d="M598 -25q-58 0 -97.5 41t-39.5 101v348h-260q-49 0 -83 33.5t-34 83.5t33.5 82t83.5 32h260v406h-322q-54 0 -90.5 36t-36.5 89q0 54 36.5 89.5t90.5 35.5h920q55 0 91 -35.5t36 -89.5q0 -53 -36.5 -89t-90.5 -36h-322v-406h260q51 0 84 -31.5t33 -82.5q0 -50 -33 -83.5
t-84 -33.5h-260v-348q0 -60 -39.5 -101t-99.5 -41z" />
    <glyph glyph-name="tbar" unicode="&#x167;" horiz-adv-x="882" 
d="M711 225q55 0 87.5 -30.5t32.5 -81.5q0 -38 -18.5 -68t-50.5 -43q-58 -27 -156 -27q-198 0 -301.5 97.5t-103.5 283.5v47h-54q-47 0 -78.5 32t-31.5 79t31.5 79t78.5 32h54v166h-54q-47 0 -78.5 31.5t-31.5 78.5t31.5 79t78.5 32h54v141q0 60 39 99.5t100 39.5
q59 0 98 -39.5t39 -99.5v-141h205q47 0 79 -32t32 -79t-32 -78.5t-79 -31.5h-205v-166h205q47 0 79 -32t32 -79t-32 -79t-79 -32h-205v-22q0 -85 42.5 -121.5t139.5 -36.5q9 0 28.5 1t23.5 1z" />
    <glyph glyph-name="Utilde" unicode="&#x168;" horiz-adv-x="1433" 
d="M420 1468q-52 0 -82.5 31.5t-30.5 85.5q0 116 67.5 190t172.5 74q75 0 151 -43l64 -37q66 -34 90 -34q49 0 61 55q9 35 36 55.5t67 20.5q51 0 80.5 -31.5t29.5 -85.5q0 -117 -66.5 -190.5t-172.5 -73.5q-76 0 -152 43l-61 35q-61 34 -92 34q-48 0 -62 -55
q-9 -34 -35.5 -54t-64.5 -20zM717 -25q-257 0 -415.5 161.5t-158.5 422.5v676q0 60 40 100.5t100 40.5q58 0 97.5 -40.5t39.5 -100.5v-696q0 -141 80.5 -224.5t216.5 -83.5t216.5 83.5t80.5 224.5v696q0 60 39.5 100.5t99.5 40.5q58 0 97.5 -40.5t39.5 -100.5v-676
q0 -261 -158.5 -422.5t-414.5 -161.5z" />
    <glyph glyph-name="utilde" unicode="&#x169;" horiz-adv-x="1187" 
d="M762 1186q-83 0 -154 47l-57 37q-4 3 -11.5 8.5t-10.5 7.5t-9 6.5t-9 6t-8 4.5t-8 3.5t-7.5 2t-8.5 2t-8 0.5q-25 0 -39 -14.5t-22 -43.5q-9 -37 -36 -57t-67 -20q-49 0 -78.5 32t-29.5 86q0 119 66.5 192t170.5 73q75 0 146 -48l57 -36q24 -16 33.5 -22t24 -11.5
t28.5 -5.5q23 0 35 13.5t20 43.5q9 35 37 55.5t66 20.5q51 0 79.5 -32t28.5 -87q0 -118 -64.5 -191t-164.5 -73zM596 -25q-207 0 -338 131t-131 340v451q0 60 39.5 99.5t99.5 39.5q59 0 98 -39.5t39 -99.5v-473q0 -85 54 -140t139 -55q83 0 135.5 55t52.5 140v473
q0 60 39.5 99.5t100.5 39.5q59 0 98 -39.5t39 -99.5v-451q0 -209 -130 -340t-335 -131z" />
    <glyph glyph-name="Umacron" unicode="&#x16a;" horiz-adv-x="1433" 
d="M952 1767q47 0 79 -31t32 -77t-32 -77.5t-79 -31.5h-469q-47 0 -79.5 31.5t-32.5 77.5t32.5 77t79.5 31h469zM717 -25q-257 0 -415.5 161.5t-158.5 422.5v676q0 60 40 100.5t100 40.5q58 0 97.5 -40.5t39.5 -100.5v-696q0 -141 80.5 -224.5t216.5 -83.5t216.5 83.5
t80.5 224.5v696q0 60 39.5 100.5t99.5 40.5q58 0 97.5 -40.5t39.5 -100.5v-676q0 -261 -158.5 -422.5t-414.5 -161.5z" />
    <glyph glyph-name="umacron" unicode="&#x16b;" horiz-adv-x="1187" 
d="M805 1491q49 0 82 -31.5t33 -77.5t-33 -77t-82 -31h-422q-49 0 -82 31t-33 77t33 77.5t82 31.5h422zM596 -25q-207 0 -338 131t-131 340v451q0 60 39.5 99.5t99.5 39.5q59 0 98 -39.5t39 -99.5v-473q0 -85 54 -140t139 -55q83 0 135.5 55t52.5 140v473q0 60 39.5 99.5
t100.5 39.5q59 0 98 -39.5t39 -99.5v-451q0 -209 -130 -340t-335 -131z" />
    <glyph glyph-name="Ubreve" unicode="&#x16c;" horiz-adv-x="1433" 
d="M717 1487q-134 0 -239 85t-105 195q0 46 30 76.5t76 30.5q62 0 103 -78q43 -100 135 -100q95 0 133 100q40 78 104 78q46 0 75.5 -30.5t29.5 -76.5q0 -110 -104.5 -195t-237.5 -85zM717 -25q-257 0 -415.5 161.5t-158.5 422.5v676q0 60 40 100.5t100 40.5
q58 0 97.5 -40.5t39.5 -100.5v-696q0 -141 80.5 -224.5t216.5 -83.5t216.5 83.5t80.5 224.5v696q0 60 39.5 100.5t99.5 40.5q58 0 97.5 -40.5t39.5 -100.5v-676q0 -261 -158.5 -422.5t-414.5 -161.5z" />
    <glyph glyph-name="ubreve" unicode="&#x16d;" horiz-adv-x="1187" 
d="M594 1174q-141 0 -245.5 88.5t-104.5 207.5q0 47 31 80t75 33q83 0 107 -84q12 -54 48.5 -85.5t88.5 -31.5q51 0 87 31.5t48 85.5q24 84 105 84q46 0 77 -33t31 -80q0 -120 -103 -208t-245 -88zM596 -25q-207 0 -338 131t-131 340v451q0 60 39.5 99.5t99.5 39.5
q59 0 98 -39.5t39 -99.5v-473q0 -85 54 -140t139 -55q83 0 135.5 55t52.5 140v473q0 60 39.5 99.5t100.5 39.5q59 0 98 -39.5t39 -99.5v-451q0 -209 -130 -340t-335 -131z" />
    <glyph glyph-name="Uring" unicode="&#x16e;" horiz-adv-x="1433" 
d="M715 1882q112 0 186 -71t74 -177q0 -109 -74 -180.5t-186 -71.5q-110 0 -184 72.5t-74 179.5q0 106 74 177t184 71zM717 1718q-36 0 -60 -24t-24 -60q0 -37 24.5 -61.5t59.5 -24.5t59.5 24.5t24.5 61.5q0 35 -24.5 59.5t-59.5 24.5zM717 -25q-257 0 -415.5 161.5
t-158.5 422.5v676q0 60 40 100.5t100 40.5q58 0 97.5 -40.5t39.5 -100.5v-696q0 -141 80.5 -224.5t216.5 -83.5t216.5 83.5t80.5 224.5v696q0 60 39.5 100.5t99.5 40.5q58 0 97.5 -40.5t39.5 -100.5v-676q0 -261 -158.5 -422.5t-414.5 -161.5z" />
    <glyph glyph-name="uring" unicode="&#x16f;" horiz-adv-x="1187" 
d="M592 1628q112 0 186 -71.5t74 -178.5q0 -108 -74 -180t-186 -72q-110 0 -184 72.5t-74 179.5q0 106 74 178t184 72zM594 1462q-36 0 -60 -24t-24 -60q0 -37 23.5 -60.5t60.5 -23.5q35 0 59.5 24.5t24.5 59.5q0 36 -24 60t-60 24zM596 -25q-207 0 -338 131t-131 340v451
q0 60 39.5 99.5t99.5 39.5q59 0 98 -39.5t39 -99.5v-473q0 -85 54 -140t139 -55q83 0 135.5 55t52.5 140v473q0 60 39.5 99.5t100.5 39.5q59 0 98 -39.5t39 -99.5v-451q0 -209 -130 -340t-335 -131z" />
    <glyph glyph-name="Uhungarumlaut" unicode="&#x170;" horiz-adv-x="1433" 
d="M516 1473q-47 1 -79 32.5t-36 71t11 76.5l106 205q40 75 127 71q53 -1 91 -38t41.5 -85.5t-27.5 -95.5l-132 -184q-41 -53 -102 -53zM956 1473q-47 1 -79 32.5t-36 71t11 76.5l106 205q40 75 127 71q53 -1 91 -38t41.5 -85.5t-27.5 -95.5l-131 -184q-41 -53 -103 -53z
M717 -25q-257 0 -415.5 161.5t-158.5 422.5v676q0 60 40 100.5t100 40.5q58 0 97.5 -40.5t39.5 -100.5v-696q0 -141 80.5 -224.5t216.5 -83.5t216.5 83.5t80.5 224.5v696q0 60 39.5 100.5t99.5 40.5q58 0 97.5 -40.5t39.5 -100.5v-676q0 -261 -158.5 -422.5t-414.5 -161.5z
" />
    <glyph glyph-name="uhungarumlaut" unicode="&#x171;" horiz-adv-x="1187" 
d="M444 1151q-56 3 -88.5 41t-29.5 88q0 25 16 61l96 220q17 37 52.5 58t74.5 21q59 0 98 -41t39 -98q0 -39 -22 -76l-127 -211q-19 -30 -48 -47t-61 -16zM838 1151q-56 3 -89 41.5t-30 87.5q0 25 16 61l96 220q17 37 52.5 58t74.5 21q59 0 98.5 -41t39.5 -98q0 -37 -23 -76
l-127 -211q-42 -66 -108 -63zM596 -25q-207 0 -338 131t-131 340v451q0 60 39.5 99.5t99.5 39.5q59 0 98 -39.5t39 -99.5v-473q0 -85 54 -140t139 -55q83 0 135.5 55t52.5 140v473q0 60 39.5 99.5t100.5 39.5q59 0 98 -39.5t39 -99.5v-451q0 -209 -130 -340t-335 -131z" />
    <glyph glyph-name="Uogonek" unicode="&#x172;" horiz-adv-x="1433" 
d="M887 -393q-112 0 -180 54t-68 142q0 46 29 94t80 85q-50 -5 -54 -5q-239 0 -395 164.5t-156 417.5v676q0 60 40 100.5t100 40.5q58 0 97.5 -40.5t39.5 -100.5v-696q0 -141 80.5 -224.5t216.5 -83.5t216.5 83.5t80.5 224.5v696q0 60 39.5 100.5t99.5 40.5q58 0 97.5 -40.5
t39.5 -100.5v-676q0 -137 -50 -255.5t-144 -203.5l-68 -59q-66 -59 -96 -98t-31 -76q-1 -30 17.5 -46t52.5 -16q5 0 16 2.5t14 2.5q38 0 62 -25.5t24 -65.5q0 -35 -20 -60t-55 -36q-53 -16 -125 -16z" />
    <glyph glyph-name="uogonek" unicode="&#x173;" horiz-adv-x="1187" 
d="M924 1036q59 0 98 -39.5t39 -99.5v-451q0 -235 -166 -372l-104 -101q-72 -67 -72 -112q0 -26 20 -41t54 -15q5 0 16 2.5t14 2.5q38 0 62 -25.5t24 -65.5q0 -73 -80 -98q-58 -14 -120 -14q-112 0 -180 56.5t-68 148.5q0 83 76 168q-184 19 -297 146.5t-113 319.5v451
q0 60 39.5 99.5t99.5 39.5q59 0 98 -39.5t39 -99.5v-473q0 -85 54 -140t139 -55q83 0 135.5 55t52.5 140v473q0 60 39.5 99.5t100.5 39.5z" />
    <glyph glyph-name="Wcircumflex" unicode="&#x174;" horiz-adv-x="2121" 
d="M809 1479q-41 0 -70.5 29.5t-29.5 72.5q0 25 13.5 44.5t47.5 51.5l193 189q44 41 96 41t96 -41l193 -189q34 -32 47.5 -51.5t13.5 -44.5q0 -43 -29.5 -72.5t-70.5 -29.5q-43 0 -80 32l-170 156l-170 -156q-37 -32 -80 -32zM1905 1376q58 0 97.5 -40t39.5 -97
q0 -30 -14 -68l-414 -1101q-36 -95 -129 -95t-129 95l-295 817l-295 -817q-36 -95 -127 -95q-95 0 -131 95l-414 1101q-16 39 -16 68q0 57 40.5 97t98.5 40q44 0 79 -24.5t48 -65.5l297 -823l285 809q17 50 52.5 77t82.5 27t82.5 -27t52.5 -77l287 -809l293 821
q15 43 49 67.5t80 24.5z" />
    <glyph glyph-name="wcircumflex" unicode="&#x175;" horiz-adv-x="1753" 
d="M645 1159q-41 0 -72.5 29.5t-31.5 73.5q0 24 8 40t26 39l197 236q42 47 105 47q60 0 102 -47l197 -236q34 -42 34 -79q0 -44 -31.5 -73.5t-72.5 -29.5q-39 0 -70 31l-159 168l-162 -168q-31 -31 -70 -31zM1583 1036q55 0 94 -39t39 -94q0 -35 -14 -67l-352 -775
q-42 -86 -125 -86q-86 0 -125 86l-223 514l-224 -514q-42 -86 -125 -86t-125 86l-352 775q-14 32 -14 67q0 55 38.5 94t94.5 39q84 0 121 -75l246 -539l206 512q43 102 134 102t131 -102l209 -514l245 541q37 75 121 75z" />
    <glyph glyph-name="Ycircumflex" unicode="&#x176;" horiz-adv-x="1280" 
d="M385 1479q-41 0 -70.5 29.5t-29.5 72.5q0 25 13.5 44.5t47.5 51.5l193 189q44 41 96 41t96 -41l193 -189q34 -32 47.5 -51.5t13.5 -44.5q0 -43 -29.5 -72.5t-70.5 -29.5q-43 0 -80 32l-170 156l-170 -156q-37 -32 -80 -32zM1196 1243q0 -45 -29 -90l-389 -639v-397
q0 -60 -39.5 -101t-99.5 -41q-58 0 -97.5 41t-39.5 101v397l-387 639q-31 44 -31 92q0 55 39 93t96 38q84 0 131 -82l291 -503l291 503q46 82 129 82q57 0 96 -38t39 -95z" />
    <glyph glyph-name="ycircumflex" unicode="&#x177;" horiz-adv-x="1144" 
d="M338 1159q-41 0 -73 29.5t-32 73.5q0 24 8 40t27 39l197 236q42 47 104 47q61 0 103 -47l196 -236q13 -16 18.5 -24.5t11 -23t5.5 -31.5q0 -44 -31.5 -73.5t-72.5 -29.5q-39 0 -70 31l-160 168l-161 -168q-31 -31 -70 -31zM969 1036q54 0 93.5 -39.5t39.5 -93.5
q0 -30 -17 -63l-446 -916q-82 -167 -180 -242t-236 -75q-68 0 -117 22q-32 13 -50.5 43t-18.5 66q0 51 36 85t89 34q6 0 14 -1t10 -1q67 0 113.5 30.5t79.5 98.5l37 82l-350 772q-19 40 -19 65q0 54 40 93.5t95 39.5q40 0 73 -21t48 -57l268 -600l275 600q15 35 48.5 56.5
t74.5 21.5z" />
    <glyph glyph-name="Ydieresis" unicode="&#x178;" horiz-adv-x="1280" 
d="M373 1509q-64 0 -115 48t-51 110q0 67 50.5 113.5t115.5 46.5q68 0 117 -46t49 -114q0 -63 -49.5 -110.5t-116.5 -47.5zM901 1507q-64 0 -115 48t-51 110q0 67 50.5 114.5t115.5 47.5q68 0 117 -47t49 -115q0 -63 -49.5 -110.5t-116.5 -47.5zM1196 1243q0 -45 -29 -90
l-389 -639v-397q0 -60 -39.5 -101t-99.5 -41q-58 0 -97.5 41t-39.5 101v397l-387 639q-31 44 -31 92q0 55 39 93t96 38q84 0 131 -82l291 -503l291 503q46 82 129 82q57 0 96 -38t39 -95z" />
    <glyph glyph-name="Zacute" unicode="&#x179;" horiz-adv-x="1204" 
d="M645 1473q-47 1 -79 32.5t-36 71t11 76.5l106 205q40 75 127 71q53 -1 91 -38t41.5 -85.5t-27.5 -95.5l-131 -184q-41 -53 -103 -53zM1036 250q55 0 91 -36t36 -89q0 -54 -36.5 -89.5t-90.5 -35.5h-866q-55 0 -92 36t-37 89q0 37 37 86l684 891h-520q-55 0 -92 36t-37 89
q0 54 36.5 89.5t92.5 35.5h776q54 0 90.5 -36t36.5 -89q0 -39 -35 -88l-684 -889h610z" />
    <glyph glyph-name="zacute" unicode="&#x17a;" horiz-adv-x="958" 
d="M524 1151q-56 3 -88.5 41t-29.5 88q0 25 16 61l96 220q17 37 52.5 58t74.5 21q59 0 98 -41t39 -98q0 -39 -22 -76l-127 -211q-19 -30 -48 -47t-61 -16zM823 233q51 0 85 -32.5t34 -83.5q0 -50 -34 -83.5t-85 -33.5h-667q-50 0 -83.5 34t-33.5 83q0 27 10 48.5t37 51.5
l467 563h-369q-51 0 -84.5 33t-33.5 84t33.5 84t84.5 33h621q51 0 85 -33t34 -82t-39 -94l-471 -572h409z" />
    <glyph glyph-name="Zdotaccent" unicode="&#x17b;" horiz-adv-x="1204" 
d="M612 1503q-72 0 -123 48t-51 118t51 118t123 48q70 0 121 -48t51 -118t-51 -118t-121 -48zM1036 250q55 0 91 -36t36 -89q0 -54 -36.5 -89.5t-90.5 -35.5h-866q-55 0 -92 36t-37 89q0 37 37 86l684 891h-520q-55 0 -92 36t-37 89q0 54 36.5 89.5t92.5 35.5h776
q54 0 90.5 -36t36.5 -89q0 -39 -35 -88l-684 -889h610z" />
    <glyph glyph-name="zdotaccent" unicode="&#x17c;" horiz-adv-x="958" 
d="M487 1217q-72 0 -123 48t-51 117q0 70 51 119t123 49q70 0 121 -49t51 -119q0 -68 -51 -116.5t-121 -48.5zM823 233q51 0 85 -32.5t34 -83.5q0 -50 -34 -83.5t-85 -33.5h-667q-50 0 -83.5 34t-33.5 83q0 27 10 48.5t37 51.5l467 563h-369q-51 0 -84.5 33t-33.5 84
t33.5 84t84.5 33h621q51 0 85 -33t34 -82t-39 -94l-471 -572h409z" />
    <glyph glyph-name="Zcaron" unicode="&#x17d;" horiz-adv-x="1204" 
d="M322 1708q-24 23 -34.5 34t-19 27.5t-8.5 34.5q0 43 29.5 73t70.5 30q42 0 80 -33l170 -156l170 156q38 33 80 33q41 0 71 -30t30 -73q0 -25 -13.5 -44t-48.5 -52l-192 -188q-44 -41 -97 -41q-52 0 -96 41zM1036 250q55 0 91 -36t36 -89q0 -54 -36.5 -89.5t-90.5 -35.5
h-866q-55 0 -92 36t-37 89q0 37 37 86l684 891h-520q-55 0 -92 36t-37 89q0 54 36.5 89.5t92.5 35.5h776q54 0 90.5 -36t36.5 -89q0 -39 -35 -88l-684 -889h610z" />
    <glyph glyph-name="zcaron" unicode="&#x17e;" horiz-adv-x="958" 
d="M383 1208l-197 236q-34 42 -34 80q0 44 31.5 73t72.5 29q39 0 70 -31l161 -168l160 168q31 31 70 31q41 0 72.5 -29t31.5 -73q0 -36 -35 -80l-196 -236q-42 -47 -103 -47q-62 0 -104 47zM823 233q51 0 85 -32.5t34 -83.5q0 -50 -34 -83.5t-85 -33.5h-667q-50 0 -83.5 34
t-33.5 83q0 27 10 48.5t37 51.5l467 563h-369q-51 0 -84.5 33t-33.5 84t33.5 84t84.5 33h621q51 0 85 -33t34 -82t-39 -94l-471 -572h409z" />
    <glyph glyph-name="uni018F" unicode="&#x18f;" horiz-adv-x="1501" 
d="M721 1376q193 0 354 -92.5t253.5 -252.5t92.5 -353q0 -144 -55.5 -274.5t-150 -224t-226.5 -149t-278 -55.5q-136 0 -253.5 47t-201 128.5t-131 196.5t-47.5 247q0 29 2 49q2 54 39 91.5t90 37.5h924q-28 157 -140.5 253.5t-271.5 96.5q-98 0 -185.5 -39.5t-152.5 -113.5
q-50 -58 -109 -58q-53 0 -87.5 35.5t-34.5 89.5q0 48 43 97q211 243 526 243zM715 231q149 0 257.5 83t147.5 221h-772q8 -134 109.5 -219t257.5 -85z" />
    <glyph glyph-name="florin" unicode="&#x192;" horiz-adv-x="923" 
d="M780 1376q87 0 135 -32.5t48 -96.5q0 -52 -32.5 -85.5t-82.5 -33.5h-21q-80 0 -123 -37t-53 -120l-16 -140h78q54 0 89.5 -33.5t35.5 -84.5q0 -50 -35.5 -83.5t-87.5 -33.5h-111l-59 -490q-23 -189 -125 -283.5t-277 -94.5q-86 0 -132 32.5t-46 94.5q0 52 32.5 86
t82.5 34q5 0 14.5 -1t14.5 -1q143 0 163 158l58 465h-43q-52 0 -86.5 33.5t-34.5 83.5q0 51 34.5 84.5t86.5 33.5h71l21 164q22 191 123.5 286t277.5 95z" />
    <glyph glyph-name="uni01D4" unicode="&#x1d4;" horiz-adv-x="1187" 
d="M489 1208l-196 236q-35 44 -35 80q0 44 31.5 73t72.5 29q39 0 70 -31l162 -168l160 168q31 31 69 31q41 0 73 -29t32 -73q0 -36 -35 -80l-197 -236q-42 -47 -102 -47q-63 0 -105 47zM924 1036q59 0 98 -39.5t39 -99.5v-451q0 -209 -130 -340t-335 -131q-207 0 -338 131
t-131 340v451q0 60 39.5 99.5t99.5 39.5q59 0 98 -39.5t39 -99.5v-473q0 -85 54 -140t139 -55q83 0 135.5 55t52.5 140v473q0 60 39.5 99.5t100.5 39.5z" />
    <glyph glyph-name="AEacute" unicode="&#x1fc;" horiz-adv-x="1746" 
d="M895 1473q-47 1 -79 32.5t-36 71t11 76.5l106 205q40 75 127 71q53 -1 90.5 -38t41 -85.5t-27.5 -95.5l-131 -184q-41 -53 -102 -53zM1552 250q55 0 91 -36t36 -89q0 -54 -36.5 -89.5t-90.5 -35.5h-503q-51 0 -88 30.5t-46 78.5l-10 67h-508l-63 -123q-37 -78 -115 -78
q-60 0 -98.5 37t-38.5 94q0 37 16 66l557 1085q47 95 146 95h727q55 0 91 -35.5t36 -89.5q0 -53 -36.5 -89t-90.5 -36h-506l45 -275h303q51 0 85 -33t34 -85q0 -50 -34 -83.5t-85 -33.5h-264l57 -342h389zM778 954l-264 -551h352z" />
    <glyph glyph-name="aeacute" unicode="&#x1fd;" horiz-adv-x="1798" 
d="M922 1151q-56 3 -89 41.5t-30 87.5q0 25 16 61l96 220q17 37 52.5 58t74.5 21q59 0 98.5 -41t39.5 -98q0 -37 -23 -76l-127 -211q-42 -66 -108 -63zM1245 1036q206 0 340.5 -134t134.5 -339v-14q0 -66 -41 -106t-108 -40h-578q28 -91 101.5 -140.5t183.5 -49.5
q126 0 209 59q34 19 59 19q47 0 80 -32t33 -79q0 -63 -70 -110q-140 -95 -319 -95q-135 0 -245.5 54t-180.5 151q-59 -99 -161.5 -152t-238.5 -53q-170 0 -270 83t-100 223q0 141 103 223t280 82h254v32q0 85 -49.5 132t-139.5 47q-105 0 -196 -76q-44 -33 -82 -33
q-49 0 -84 34t-35 81q0 55 59 108q63 60 158 92.5t207 32.5q227 0 336 -149q143 149 360 149zM1235 813q-96 0 -163 -61.5t-87 -165.5h467q3 101 -57.5 164t-159.5 63zM496 180q92 0 153.5 56t61.5 141v26h-217q-142 0 -142 -106q0 -54 39 -85.5t105 -31.5z" />
    <glyph glyph-name="Oslashacute" unicode="&#x1fe;" horiz-adv-x="1595" 
d="M831 1473q-47 1 -79 32.5t-36 71t11 76.5l107 205q40 75 127 71q53 -1 90.5 -38t41 -85.5t-27.5 -95.5l-131 -184q-41 -53 -103 -53zM1378 1092q138 -188 138 -416q0 -192 -95.5 -353.5t-261 -254.5t-362.5 -93q-229 0 -410 123l-80 -80q-43 -43 -94 -43q-46 0 -79.5 35
t-33.5 82q0 51 39 90l78 78q-137 183 -137 416q0 194 94.5 354.5t259.5 253t363 92.5q226 0 411 -123l80 80q43 43 94 43q46 0 79.5 -34.5t33.5 -81.5q0 -52 -39 -91zM350 676q0 -127 53 -230l625 627q-107 60 -229 60q-195 0 -322 -129t-127 -328zM799 219q194 0 319 129
t125 328q0 124 -53 227l-623 -624q102 -60 232 -60z" />
    <glyph glyph-name="oslashacute" unicode="&#x1ff;" horiz-adv-x="1253" 
d="M666 1151q-56 3 -89 41.5t-30 87.5q0 25 16 61l96 220q17 37 52.5 58t74.5 21q59 0 98.5 -41t39.5 -98q0 -37 -23 -76l-127 -211q-42 -66 -108 -63zM1137 852l-54 -53q88 -134 88 -293q0 -144 -72.5 -266.5t-198 -193.5t-275.5 -71q-158 0 -287 80l-57 -57
q-40 -43 -93 -43q-48 0 -82 34t-34 83q0 48 45 90l53 53q-86 131 -86 291q0 110 42.5 208.5t114.5 169t172.5 111.5t213.5 41q152 0 286 -78l58 58q41 41 88 41q50 0 84.5 -34t34.5 -83q0 -47 -41 -88zM627 803q-126 0 -205.5 -82.5t-79.5 -214.5q0 -69 25 -127l393 393
q-60 31 -133 31zM625 209q124 0 205 84t81 213q0 72 -24 127l-395 -393q60 -31 133 -31z" />
    <glyph glyph-name="Scommaaccent" unicode="&#x218;" horiz-adv-x="1144" 
d="M584 -25q-121 0 -242 50t-195 133q-51 51 -51 106q1 54 38.5 88.5t88.5 34.5q42 0 72 -27q134 -139 289 -139q90 0 141 40.5t51 109.5q0 56 -36.5 89.5t-135.5 78.5l-145 65q-166 76 -247 169t-81 220q0 169 127.5 276t321.5 107q136 0 229.5 -47.5t148.5 -111.5
q37 -40 37 -89q0 -51 -39 -86.5t-88 -35.5q-40 0 -75 28q-51 46 -99.5 71t-113.5 25q-75 0 -121.5 -34.5t-46.5 -96.5q0 -50 32.5 -81.5t124.5 -73.5l154 -68q174 -77 254 -168.5t80 -226.5q0 -184 -133.5 -295t-339.5 -111zM535 -520q-46 0 -82.5 34.5t-36.5 79.5
q0 23 12 79t12 108q0 57 41.5 97t98.5 40t97 -40t40 -97q0 -65 -21 -131.5t-55 -106.5q-45 -63 -106 -63z" />
    <glyph glyph-name="scommaaccent" unicode="&#x219;" horiz-adv-x="931" 
d="M465 -25q-111 0 -207 39t-166 107q-39 33 -39 86q0 47 34 82t81 35q41 0 80 -31q104 -90 221 -90q56 0 92.5 21.5t36.5 62.5q0 17 -6.5 29.5t-24 24.5t-30 18t-43.5 20l-109 45q-140 57 -208 126.5t-68 182.5q0 143 103.5 224t268.5 81q193 0 320 -108q49 -37 49 -94
q0 -47 -33.5 -81t-79.5 -34q-28 0 -73 29q-87 61 -185 61q-108 0 -108 -72q0 -29 23.5 -48t82.5 -42l98 -41q147 -60 216 -128.5t69 -180.5q0 -152 -111.5 -238t-283.5 -86zM432 -520q-46 0 -82.5 34.5t-36.5 79.5q0 23 12.5 79t12.5 108q0 57 41 97t98 40t97 -40t40 -97
q0 -65 -21 -132t-54 -106q-45 -63 -107 -63z" />
    <glyph glyph-name="uni021A" unicode="&#x21a;" horiz-adv-x="1198" 
d="M598 -25q-58 0 -97.5 41t-39.5 101v985h-322q-54 0 -90.5 36t-36.5 89q0 54 36.5 89.5t90.5 35.5h920q55 0 91 -35.5t36 -89.5q0 -53 -36.5 -89t-90.5 -36h-322v-985q0 -60 -39.5 -101t-99.5 -41zM549 -520q-46 0 -82.5 34.5t-36.5 79.5q0 23 12.5 79t12.5 108
q0 57 41 97t98 40t97 -40t40 -97q0 -65 -21 -131.5t-55 -106.5q-45 -63 -106 -63z" />
    <glyph glyph-name="uni021B" unicode="&#x21b;" horiz-adv-x="851" 
d="M690 225q55 0 88 -30.5t33 -81.5q0 -78 -70 -111q-66 -27 -143 -27q-198 0 -301.5 97.5t-103.5 283.5v424h-58q-51 0 -85 33t-34 84t34 84t85 33h58v139q0 60 39 99.5t100 39.5q59 0 98 -39.5t39 -99.5v-139h186q51 0 84 -33t33 -84t-33 -84t-84 -33h-186v-399
q0 -85 42.5 -121.5t139.5 -36.5q9 0 22 1t17 1zM467 -82q57 0 97 -40t40 -97q0 -65 -21 -131.5t-55 -106.5q-45 -63 -106 -63q-46 0 -82.5 34.5t-36.5 79.5q0 23 12.5 79t12.5 108q0 57 41 97t98 40z" />
    <glyph glyph-name="uni0237" unicode="&#x237;" horiz-adv-x="550" 
d="M35 -393q-57 0 -113 18q-84 33 -84 113q0 51 33 85t84 34q5 0 13.5 -1t13.5 -1q81 0 118 39.5t37 142.5v860q0 60 39.5 99.5t99.5 39.5q59 0 98.5 -39.5t39.5 -99.5v-909q0 -184 -101 -282.5t-278 -98.5z" />
    <glyph glyph-name="uni0259" unicode="&#x259;" horiz-adv-x="1165" 
d="M530 1038q157 0 284.5 -69t199 -190t71.5 -271q0 -226 -151 -378.5t-375 -152.5q-207 0 -344 135.5t-137 340.5v6q0 64 41.5 102.5t109.5 38.5h578q-25 96 -99 148.5t-186 52.5q-117 0 -211 -60q-30 -18 -59 -18q-47 0 -80 32t-33 79q0 63 70 110q142 94 321 94zM565 201
q90 0 154.5 55t87.5 150h-461q3 -91 63 -148t156 -57z" />
    <glyph glyph-name="circumflex" unicode="&#x2c6;" horiz-adv-x="854" 
d="M727 1341q13 -16 18.5 -24.5t11 -23t5.5 -31.5q0 -44 -32 -73.5t-73 -29.5q-38 0 -69 31l-160 168l-162 -168q-31 -31 -69 -31q-41 0 -73 29.5t-32 73.5q0 24 8 40t27 39l197 236q42 47 104 47q60 0 102 -47z" />
    <glyph glyph-name="caron" unicode="&#x2c7;" horiz-adv-x="854" 
d="M657 1626q41 0 73 -29t32 -73q0 -36 -35 -80l-197 -236q-42 -47 -102 -47q-62 0 -104 47l-197 236q-35 44 -35 80q0 44 32 73t73 29q38 0 69 -31l162 -168l160 168q31 31 69 31z" />
    <glyph glyph-name="breve" unicode="&#x2d8;" horiz-adv-x="829" 
d="M416 1174q-141 0 -245.5 88.5t-104.5 207.5q0 47 31 80t75 33q83 0 107 -84q12 -54 48.5 -85.5t88.5 -31.5q51 0 87 31.5t48 85.5q24 84 104 84q46 0 77.5 -33t31.5 -80q0 -120 -103 -208t-245 -88z" />
    <glyph glyph-name="dotaccent" unicode="&#x2d9;" horiz-adv-x="477" 
d="M240 1550q70 0 121 -49t51 -119q0 -68 -51 -116.5t-121 -48.5q-72 0 -123 48t-51 117q0 70 51 119t123 49z" />
    <glyph glyph-name="ring" unicode="&#x2da;" horiz-adv-x="641" 
d="M319 1628q112 0 186.5 -71.5t74.5 -178.5q0 -108 -74.5 -180t-186.5 -72q-110 0 -184 72.5t-74 179.5q0 106 74 178t184 72zM322 1462q-36 0 -60 -24t-24 -60q0 -37 23.5 -60.5t60.5 -23.5q35 0 59.5 24.5t24.5 59.5q0 36 -24 60t-60 24z" />
    <glyph glyph-name="ogonek" unicode="&#x2db;" horiz-adv-x="546" 
d="M291 -393q-113 0 -179.5 57t-66.5 154q0 74 43 135t141 141q94 76 148 76q34 0 59 -23.5t25 -54.5q0 -47 -43 -84q-37 -32 -57 -51t-39 -46.5t-19 -49.5q0 -24 19 -39t53 -15q8 0 19 1.5t14 1.5q38 0 61 -25.5t23 -65.5q0 -36 -20 -62t-58 -36q-58 -14 -123 -14z" />
    <glyph glyph-name="tilde" unicode="&#x2dc;" horiz-adv-x="913" 
d="M625 1186q-83 0 -154 47l-57 37q-4 3 -11.5 8.5t-10.5 7.5t-9 6.5t-9 6t-8 4.5t-8 3.5t-7.5 2t-8.5 2t-8 0.5q-46 0 -62 -58q-19 -77 -102 -77q-50 0 -79.5 32t-29.5 86q0 119 67 192t171 73q74 0 145 -48l58 -36q24 -16 33.5 -22t24 -11.5t28.5 -5.5q23 0 35 13.5
t20 43.5q9 35 36.5 55.5t65.5 20.5q51 0 80 -32.5t29 -86.5q0 -118 -64.5 -191t-164.5 -73z" />
    <glyph glyph-name="hungarumlaut" unicode="&#x2dd;" horiz-adv-x="960" 
d="M233 1151q-56 3 -88.5 41t-29.5 88q0 25 16 61l96 220q17 37 52.5 58t74.5 21q59 0 98.5 -41t39.5 -98q0 -37 -23 -76l-127 -211q-19 -30 -48 -47t-61 -16zM627 1151q-56 3 -89 41.5t-30 87.5q0 25 16 61l97 220q17 37 52.5 58t74.5 21q59 0 98 -41t39 -98q0 -37 -23 -76
l-127 -211q-42 -66 -108 -63z" />
    <glyph glyph-name="uni030C" unicode="&#x30c;" horiz-adv-x="0" 
d="M-219 1096q-55 0 -93 43t-28 106l35 230q6 49 44.5 85.5t92.5 36.5q69 0 112 -56t17 -134l-65 -227q-31 -84 -115 -84z" />
    <glyph glyph-name="uni0326" unicode="&#x326;" horiz-adv-x="0" 
d="M-238 -520q-46 0 -82 34.5t-36 79.5q0 23 12 79t12 108q0 57 41 97t98 40t97.5 -40t40.5 -97q0 -65 -21 -131.5t-55 -106.5q-45 -63 -107 -63z" />
    <glyph glyph-name="dieresistonos" unicode="&#x385;" horiz-adv-x="1267" 
d="M621 1124q-54 0 -92 39t-31 97l37 284q6 51 42 86t89 35q61 0 100.5 -47t28.5 -109l-56 -272q-9 -51 -40.5 -82t-77.5 -31zM244 1225q-62 0 -113 47.5t-51 109.5q0 67 50.5 114.5t113.5 47.5q67 0 114.5 -47t47.5 -115q0 -63 -48 -110t-114 -47zM1024 1225
q-62 0 -112 47.5t-50 109.5q0 67 49.5 114.5t112.5 47.5q68 0 116 -47t48 -115q0 -63 -48.5 -110t-115.5 -47z" />
    <glyph glyph-name="Alphatonos" unicode="&#x386;" horiz-adv-x="1355" 
d="M170 1034q-55 0 -93 43.5t-28 106.5l35 229q6 49 44.5 86t92.5 37q69 0 112 -56t17 -134l-65 -228q-31 -84 -115 -84zM1270 182q16 -39 16 -73q0 -56 -38.5 -95t-96.5 -39q-89 0 -131 99l-57 139h-572l-57 -139q-39 -99 -129 -99q-58 0 -97.5 39t-39.5 95q0 27 16 73
l463 1100q39 94 131 94t131 -94zM678 969l-197 -529h389z" />
    <glyph glyph-name="Epsilontonos" unicode="&#x388;" horiz-adv-x="1171" 
d="M-96 1034q-55 0 -93 43.5t-28 106.5l35 229q6 49 44.5 86t92.5 37q69 0 112 -56t17 -134l-66 -228q-31 -84 -114 -84zM291 0q-59 0 -98 39t-39 98v1077q0 59 39.5 98.5t97.5 39.5h661q55 0 91 -35.5t36 -89.5q0 -53 -36.5 -89t-90.5 -36h-522v-275h358q52 0 86.5 -33.5
t34.5 -84.5q0 -50 -34.5 -83.5t-86.5 -33.5h-358v-342h547q55 0 91 -36t36 -89q0 -54 -36.5 -89.5t-90.5 -35.5h-686z" />
    <glyph glyph-name="Etatonos" unicode="&#x389;" horiz-adv-x="1458" 
d="M-96 1034q-55 0 -93 43.5t-28 106.5l35 229q6 49 44.5 86t92.5 37q69 0 112 -56t17 -134l-66 -228q-31 -84 -114 -84zM293 -25q-60 0 -99.5 41t-39.5 103v1114q0 62 39 102.5t100 40.5q60 0 98.5 -40.5t38.5 -102.5v-399h598v401q0 62 39 101.5t100 39.5q60 0 99 -40
t39 -101v-1116q0 -61 -39.5 -102.5t-98.5 -41.5q-60 0 -99.5 41t-39.5 103v465h-598v-465q0 -61 -39 -102.5t-98 -41.5z" />
    <glyph glyph-name="Iotatonos" unicode="&#x38a;" horiz-adv-x="583" 
d="M-96 1034q-55 0 -93 43.5t-28 106.5l35 229q6 49 44.5 86t92.5 37q69 0 112 -56t17 -134l-66 -228q-31 -84 -114 -84zM293 -25q-58 0 -97.5 41t-39.5 101v1118q0 60 38.5 100.5t98.5 40.5t99.5 -40.5t39.5 -100.5v-1118q0 -60 -39.5 -101t-99.5 -41z" />
    <glyph glyph-name="Omicrontonos" unicode="&#x38c;" horiz-adv-x="1593" 
d="M-29 1034q-55 0 -93 43.5t-28 106.5l35 229q6 49 45 86t93 37q69 0 112 -56t17 -134l-66 -228q-31 -84 -115 -84zM795 1376q198 0 364 -93t261.5 -254t95.5 -353q0 -144 -56.5 -274t-152.5 -223.5t-229.5 -148.5t-282.5 -55t-282 54.5t-228 148t-151 223.5t-56 275
q0 193 95 354t259.5 253.5t362.5 92.5zM797 1120q-191 0 -313 -124.5t-122 -319.5t122 -320t313 -125q189 0 311.5 125.5t122.5 319.5q0 193 -122.5 318.5t-311.5 125.5z" />
    <glyph glyph-name="Upsilontonos" unicode="&#x38e;" horiz-adv-x="1280" 
d="M-172 1536q69 0 112 -56t17 -134l-66 -228q-31 -84 -114 -84q-55 0 -93 43.5t-28 106.5l35 229q6 49 44.5 86t92.5 37zM1196 1243q0 -45 -29 -90l-389 -639v-397q0 -60 -39.5 -101t-99.5 -41q-58 0 -97.5 41t-39.5 101v397l-387 639q-31 44 -31 92q0 55 39 93t96 38
q84 0 131 -82l291 -503l291 503q46 82 129 82q57 0 96 -38t39 -95z" />
    <glyph glyph-name="Omegatonos" unicode="&#x38f;" horiz-adv-x="1613" 
d="M18 1536q69 0 112 -56t17 -134l-65 -228q-31 -84 -115 -84q-55 0 -93 43.5t-28 106.5l35 229q6 49 44.5 86t92.5 37zM1393 250q55 0 91 -36t36 -89q0 -54 -36.5 -89.5t-90.5 -35.5h-359q-61 0 -103 41.5t-42 101.5q0 77 82 131q270 150 270 422q0 187 -122.5 305.5
t-313.5 118.5q-192 0 -312 -117.5t-120 -306.5q0 -272 270 -424q82 -51 82 -129q0 -60 -42 -101.5t-103 -41.5h-359q-54 0 -90.5 35.5t-36.5 89.5q0 53 36.5 89t90.5 36h111q-244 167 -244 461q0 184 95 336.5t259.5 240.5t362.5 88q148 0 281.5 -52t230 -141t153 -212
t56.5 -260q0 -288 -258 -461h125z" />
    <glyph glyph-name="iotadieresistonos" unicode="&#x390;" horiz-adv-x="643" 
d="M260 1124q-54 0 -92 39t-31 97l37 284q6 51 42 86t89 35q61 0 100.5 -47t28.5 -109l-55 -272q-9 -51 -41 -82t-78 -31zM-117 1225q-62 0 -113 47.5t-51 109.5q0 67 50.5 114.5t113.5 47.5q67 0 114.5 -47t47.5 -115q0 -63 -48 -110t-114 -47zM664 1225q-62 0 -112 47.5
t-50 109.5q0 67 49.5 114.5t112.5 47.5q68 0 115.5 -46.5t47.5 -115.5q0 -63 -48 -110t-115 -47zM457 -25q-153 0 -238.5 93.5t-85.5 261.5v567q0 59 39.5 99t97.5 40q59 0 98.5 -39.5t39.5 -99.5v-543q0 -127 112 -127h10q47 0 77 -30.5t30 -77.5q0 -79 -55 -111
q-44 -33 -125 -33z" />
    <glyph glyph-name="Alpha" unicode="&#x391;" horiz-adv-x="1355" 
d="M1270 182q16 -39 16 -73q0 -56 -38.5 -95t-96.5 -39q-89 0 -131 99l-57 139h-572l-57 -139q-39 -99 -129 -99q-58 0 -97.5 39t-39.5 95q0 27 16 73l463 1100q39 94 131 94t131 -94zM678 969l-197 -529h389z" />
    <glyph glyph-name="Beta" unicode="&#x392;" horiz-adv-x="1269" 
d="M961 731q115 -40 178 -126.5t63 -207.5q0 -175 -125 -286t-321 -111h-461q-61 0 -101 40t-40 101v1069q0 62 40 102t101 40h338q189 0 308.5 -105t119.5 -272q0 -152 -100 -244zM612 1114h-190v-309h190q82 0 129 42t47 114t-47 112.5t-129 40.5zM735 238q91 0 142 44.5
t51 125.5q0 80 -51 125t-142 45h-313v-340h313z" />
    <glyph glyph-name="Gamma" unicode="&#x393;" horiz-adv-x="1071" 
d="M293 -25q-60 0 -99.5 41t-39.5 101v1093q0 62 40 102t101 40h616q54 0 90.5 -35.5t36.5 -89.5q0 -53 -36.5 -89t-90.5 -36h-481v-985q0 -60 -39.5 -101t-97.5 -41z" />
    <glyph glyph-name="uni0394" unicode="&#x394;" horiz-adv-x="1380" 
d="M1294 205q17 -38 17 -72q0 -57 -38.5 -95t-96.5 -38h-971q-59 0 -98 38t-39 95q0 36 16 72l473 1077q42 94 133 94q89 0 131 -94zM690 979l-295 -729h588z" />
    <glyph glyph-name="Epsilon" unicode="&#x395;" horiz-adv-x="1171" 
d="M291 0q-59 0 -98 39t-39 98v1077q0 59 39.5 98.5t97.5 39.5h661q55 0 91 -35.5t36 -89.5q0 -53 -36.5 -89t-90.5 -36h-522v-275h358q52 0 86.5 -33.5t34.5 -84.5q0 -50 -34.5 -83.5t-86.5 -33.5h-358v-342h547q55 0 91 -36t36 -89q0 -54 -36.5 -89.5t-90.5 -35.5h-686z
" />
    <glyph glyph-name="Zeta" unicode="&#x396;" horiz-adv-x="1204" 
d="M1036 250q55 0 91 -36t36 -89q0 -54 -36.5 -89.5t-90.5 -35.5h-866q-55 0 -92 36t-37 89q0 37 37 86l684 891h-520q-55 0 -92 36t-37 89q0 54 36.5 89.5t92.5 35.5h776q54 0 90.5 -36t36.5 -89q0 -39 -35 -88l-684 -889h610z" />
    <glyph glyph-name="Eta" unicode="&#x397;" horiz-adv-x="1458" 
d="M293 -25q-60 0 -99.5 41t-39.5 103v1114q0 62 39 102.5t100 40.5q60 0 98.5 -40.5t38.5 -102.5v-399h598v401q0 62 39 101.5t100 39.5q60 0 99 -40t39 -101v-1116q0 -61 -39.5 -102.5t-98.5 -41.5q-60 0 -99.5 41t-39.5 103v465h-598v-465q0 -61 -39 -102.5t-98 -41.5z
" />
    <glyph glyph-name="Theta" unicode="&#x398;" horiz-adv-x="1593" 
d="M795 1376q198 0 364 -93t261.5 -254t95.5 -353q0 -144 -56.5 -274t-152.5 -223.5t-229.5 -148.5t-282.5 -55t-282 54.5t-228 148t-151 223.5t-56 275q0 193 95 354t259.5 253.5t362.5 92.5zM795 1137q-195 0 -322 -131t-127 -332q0 -200 126.5 -329.5t322.5 -129.5
t324 130.5t128 328.5q0 200 -128 331.5t-324 131.5zM956 803q48 0 80.5 -33t32.5 -82t-32.5 -81t-80.5 -32h-319q-48 0 -80.5 32t-32.5 81t32.5 82t80.5 33h319z" />
    <glyph glyph-name="Iota" unicode="&#x399;" horiz-adv-x="583" 
d="M293 -25q-58 0 -97.5 41t-39.5 101v1118q0 60 38.5 100.5t98.5 40.5t99.5 -40.5t39.5 -100.5v-1118q0 -60 -39.5 -101t-99.5 -41z" />
    <glyph glyph-name="Kappa" unicode="&#x39a;" horiz-adv-x="1372" 
d="M293 1376q58 0 97.5 -40.5t39.5 -100.5v-1118q0 -60 -39.5 -101t-97.5 -41q-60 0 -99.5 41t-39.5 101v1118q0 61 39 101t100 40zM1241 190q35 -41 35 -84q0 -53 -38.5 -92t-90.5 -39q-62 0 -111 58l-514 592q-37 43 -37 92q0 46 39 88l488 526q45 45 100 45
q51 0 88 -37.5t37 -91.5q0 -48 -41 -92l-408 -440z" />
    <glyph glyph-name="Lambda" unicode="&#x39b;" horiz-adv-x="1380" 
d="M1294 182q17 -38 17 -73q0 -56 -38.5 -95t-96.5 -39q-90 0 -132 99l-354 839l-356 -839q-42 -99 -129 -99q-58 0 -97.5 39t-39.5 95q0 30 16 73l473 1100q40 94 133 94q91 0 131 -94z" />
    <glyph glyph-name="Mu" unicode="&#x39c;" horiz-adv-x="1630" 
d="M1341 1376q58 0 97 -40.5t39 -102.5v-1116q0 -60 -40 -101t-98 -41q-60 0 -99.5 41t-39.5 101v667l-254 -399q-30 -46 -60 -67t-71 -21q-75 0 -131 88l-254 403v-671q0 -60 -39.5 -101t-97.5 -41q-60 0 -99.5 41t-39.5 101v1116q0 62 38.5 102.5t96.5 40.5q44 0 77 -24
t68 -82l381 -604l381 604q37 59 69 82.5t76 23.5z" />
    <glyph glyph-name="Nu" unicode="&#x39d;" horiz-adv-x="1458" 
d="M1167 1376q59 0 98.5 -40.5t39.5 -100.5v-1120q0 -59 -39 -99.5t-97 -40.5q-32 0 -58.5 13.5t-40.5 27.5t-38 43l-602 775v-717q0 -60 -39.5 -101t-97.5 -41q-60 0 -99.5 41t-39.5 101v1120q0 59 39 99t96 40q33 0 60 -14t40.5 -28t40.5 -48l600 -768l-2 717
q0 60 39.5 100.5t99.5 40.5z" />
    <glyph glyph-name="Xi" unicode="&#x39e;" horiz-adv-x="1163" 
d="M195 1102q-54 0 -90.5 36t-36.5 89q0 54 36.5 89.5t90.5 35.5h774q55 0 91 -35.5t36 -89.5q0 -53 -36 -89t-91 -36h-774zM215 567q-52 0 -87.5 35t-35.5 86q0 52 35 87.5t88 35.5h735q52 0 87.5 -35.5t35.5 -87.5q0 -51 -35.5 -86t-87.5 -35h-735zM195 0
q-54 0 -90.5 35.5t-36.5 89.5q0 53 36.5 89t90.5 36h774q55 0 91 -36t36 -89q0 -54 -36 -89.5t-91 -35.5h-774z" />
    <glyph glyph-name="Omicron" unicode="&#x39f;" horiz-adv-x="1593" 
d="M795 1376q198 0 364 -93t261.5 -254t95.5 -353q0 -144 -56.5 -274t-152.5 -223.5t-229.5 -148.5t-282.5 -55t-282 54.5t-228 148t-151 223.5t-56 275q0 193 95 354t259.5 253.5t362.5 92.5zM797 1120q-191 0 -313 -124.5t-122 -319.5t122 -320t313 -125
q189 0 311.5 125.5t122.5 319.5q0 193 -122.5 318.5t-311.5 125.5z" />
    <glyph glyph-name="Pi" unicode="&#x3a0;" horiz-adv-x="1413" 
d="M293 -25q-60 0 -99.5 41t-39.5 101v1093q0 62 40 102t101 40h823q60 0 101 -40.5t41 -101.5v-1093q0 -60 -40 -101t-100 -41q-58 0 -97.5 41t-39.5 101v985h-553v-985q0 -60 -39.5 -101t-97.5 -41z" />
    <glyph glyph-name="Rho" unicode="&#x3a1;" horiz-adv-x="1214" 
d="M293 -25q-60 0 -99.5 41t-39.5 101v1093q0 62 40 102t101 40h369q217 0 351 -121t134 -316q0 -193 -135.5 -315.5t-349.5 -122.5h-234v-360q0 -60 -39.5 -101t-97.5 -41zM430 719h232q95 0 149.5 52.5t54.5 143.5q0 88 -54.5 140.5t-149.5 52.5h-232v-389z" />
    <glyph glyph-name="Sigma" unicode="&#x3a3;" horiz-adv-x="1167" 
d="M973 248q54 0 90.5 -35.5t36.5 -89.5q0 -53 -36.5 -89t-90.5 -36h-762q-60 0 -99.5 40.5t-39.5 100.5q0 63 45 113l397 430l-393 418q-47 50 -47 112q0 60 39.5 100t99.5 40h735q54 0 90.5 -35.5t36.5 -89.5q0 -53 -36.5 -89t-90.5 -36h-473l293 -311q51 -51 51 -103
q0 -29 -11 -51t-40 -51l-307 -338h512z" />
    <glyph glyph-name="Tau" unicode="&#x3a4;" horiz-adv-x="1198" 
d="M598 -25q-58 0 -97.5 41t-39.5 101v985h-322q-54 0 -90.5 36t-36.5 89q0 54 36.5 89.5t90.5 35.5h920q55 0 91 -35.5t36 -89.5q0 -53 -36.5 -89t-90.5 -36h-322v-985q0 -60 -39.5 -101t-99.5 -41z" />
    <glyph glyph-name="Upsilon" unicode="&#x3a5;" horiz-adv-x="1280" 
d="M1196 1243q0 -45 -29 -90l-389 -639v-397q0 -60 -39.5 -101t-99.5 -41q-58 0 -97.5 41t-39.5 101v397l-387 639q-31 44 -31 92q0 55 39 93t96 38q84 0 131 -82l291 -503l291 503q46 82 129 82q57 0 96 -38t39 -95z" />
    <glyph glyph-name="Phi" unicode="&#x3a6;" horiz-adv-x="1716" 
d="M1636 688q0 -260 -174.5 -417t-466.5 -160v-70q0 -61 -39 -101t-98 -40q-60 0 -99.5 40t-39.5 101v70q-290 3 -465.5 161t-175.5 416q0 255 174.5 409.5t466.5 157.5v58q0 61 39.5 101t99.5 40q59 0 98 -40t39 -101v-58q293 -2 467 -155.5t174 -411.5zM350 680
q0 -155 97 -243t272 -89v672q-172 -1 -270.5 -92t-98.5 -248zM995 348q174 0 272.5 88t98.5 244q0 158 -99.5 249t-271.5 91v-672z" />
    <glyph glyph-name="Chi" unicode="&#x3a7;" horiz-adv-x="1255" 
d="M1139 205q37 -53 37 -96q0 -54 -40.5 -94t-97.5 -40q-66 0 -110 60l-299 424l-301 -424q-44 -60 -113 -60q-55 0 -95 40t-40 96q0 44 39 100l342 477l-314 453q-38 55 -38 106q0 53 40 91t95 38q71 0 114 -61l271 -397l276 395q45 63 115 63q57 0 96 -38.5t39 -92.5
q0 -52 -41 -110l-317 -447z" />
    <glyph glyph-name="Psi" unicode="&#x3a8;" horiz-adv-x="1726" 
d="M864 -25q-60 0 -99.5 41t-39.5 101v180q-290 0 -453 139.5t-163 388.5v410q0 60 39.5 100.5t99.5 40.5q58 0 97.5 -40.5t39.5 -100.5v-385q0 -144 90 -224.5t250 -80.5v735q0 61 39.5 101t99.5 40q59 0 98 -40t39 -101v-735q161 0 250.5 80t89.5 225v385q0 60 39.5 100.5
t98.5 40.5q60 0 99.5 -40.5t39.5 -100.5v-410q0 -249 -163.5 -388.5t-453.5 -139.5v-180q0 -60 -39.5 -101t-97.5 -41z" />
    <glyph glyph-name="uni03A9" unicode="&#x3a9;" horiz-adv-x="1613" 
d="M1393 250q55 0 91 -36t36 -89q0 -54 -36.5 -89.5t-90.5 -35.5h-359q-61 0 -103 41.5t-42 101.5q0 77 82 131q270 150 270 422q0 187 -122.5 305.5t-313.5 118.5q-192 0 -312 -117.5t-120 -306.5q0 -272 270 -424q82 -51 82 -129q0 -60 -42 -101.5t-103 -41.5h-359
q-54 0 -90.5 35.5t-36.5 89.5q0 53 36.5 89t90.5 36h111q-244 167 -244 461q0 184 95 336.5t259.5 240.5t362.5 88q148 0 281.5 -52t230 -141t153 -212t56.5 -260q0 -288 -258 -461h125z" />
    <glyph glyph-name="Iotadieresis" unicode="&#x3aa;" horiz-adv-x="583" 
d="M29 1509q-64 0 -115 48t-51 110q0 67 50.5 113.5t115.5 46.5q68 0 117 -46t49 -114q0 -63 -49.5 -110.5t-116.5 -47.5zM557 1507q-64 0 -115 48t-51 110q0 67 50.5 114.5t115.5 47.5q68 0 117 -47t49 -115q0 -63 -49.5 -110.5t-116.5 -47.5zM293 -25q-58 0 -97.5 41
t-39.5 101v1118q0 60 38.5 100.5t98.5 40.5t99.5 -40.5t39.5 -100.5v-1118q0 -60 -39.5 -101t-99.5 -41z" />
    <glyph glyph-name="Upsilondieresis" unicode="&#x3ab;" horiz-adv-x="1280" 
d="M375 1509q-64 0 -115 48t-51 110q0 67 50.5 113.5t115.5 46.5q68 0 117 -46t49 -114q0 -63 -49.5 -110.5t-116.5 -47.5zM903 1507q-64 0 -115 48t-51 110q0 67 50.5 114.5t115.5 47.5q68 0 117 -47t49 -115q0 -63 -49.5 -110.5t-116.5 -47.5zM1196 1243q0 -45 -29 -90
l-389 -639v-397q0 -60 -39.5 -101t-99.5 -41q-58 0 -97.5 41t-39.5 101v397l-387 639q-31 44 -31 92q0 55 39 93t96 38q84 0 131 -82l291 -503l291 503q46 82 129 82q57 0 96 -38t39 -95z" />
    <glyph glyph-name="alphatonos" unicode="&#x3ac;" horiz-adv-x="1312" 
d="M643 1124q-54 0 -92 39t-31 97l37 284q6 51 42 86t89 35q61 0 100.5 -47t28.5 -109l-55 -272q-9 -51 -41 -82t-78 -31zM1217 229q44 0 71 -29.5t27 -76.5q0 -74 -49 -111q-43 -32 -133 -32q-187 0 -242 159q-51 -79 -136.5 -121.5t-193.5 -42.5q-209 0 -345 150.5
t-136 380.5t136 380t345 150q103 0 186 -39t136 -110v6q5 62 41 97.5t94 35.5q60 0 99 -40t36 -99q-13 -280 -14 -348l-4 -187q-2 -65 16.5 -94t62.5 -29h3zM610 227q114 0 183 77t69 202t-70 202.5t-182 77.5q-109 0 -179.5 -78.5t-70.5 -199.5q0 -124 70.5 -202.5
t179.5 -78.5z" />
    <glyph glyph-name="epsilontonos" unicode="&#x3ad;" horiz-adv-x="1042" 
d="M543 1124q-54 0 -92 39t-31 97l37 284q6 51 42 86t89 35q61 0 100.5 -47t28.5 -109l-55 -272q-9 -51 -41 -82t-78 -31zM842 311q47 0 80.5 -34t35.5 -84q0 -56 -45 -89q-144 -129 -378 -129q-194 0 -318.5 83t-124.5 223q0 74 39 137.5t107 103.5q-105 82 -105 217
q0 140 114 218.5t300 78.5q219 0 360 -114q46 -37 43 -91q1 -49 -32.5 -83.5t-81.5 -34.5q-34 0 -70 22q-92 64 -217 64q-146 0 -146 -88q0 -41 30.5 -64.5t84.5 -23.5h88q44 0 74.5 -29.5t30.5 -73.5q0 -43 -30.5 -72.5t-74.5 -29.5h-98q-70 0 -108 -27t-38 -72
q0 -50 44.5 -78t130.5 -28q143 0 227 74q41 24 78 24z" />
    <glyph glyph-name="etatonos" unicode="&#x3ae;" horiz-adv-x="1239" 
d="M625 1124q-54 0 -92 39t-31 97l37 284q6 51 42 86t89 35q61 0 100.5 -47t28.5 -109l-56 -272q-9 -51 -40.5 -82t-77.5 -31zM721 1036q177 0 283 -110.5t106 -296.5v-881q0 -59 -40 -100t-97 -41t-97 41t-40 100v842q0 89 -52 142.5t-137 53.5q-86 0 -140 -54t-54 -142
v-473q0 -59 -40.5 -100.5t-97.5 -41.5t-97 41.5t-40 100.5v547q0 65 -28 96q-17 23 -66 35q-39 11 -63.5 42t-24.5 72q0 70 57 103q41 24 121 24q166 0 227 -123q60 59 143.5 91t176.5 32z" />
    <glyph glyph-name="iotatonos" unicode="&#x3af;" horiz-adv-x="643" 
d="M274 1124q-53 0 -91 39t-31 97l36 284q6 51 42 86t89 35q62 0 101 -47.5t29 -108.5l-56 -272q-9 -51 -41 -82t-78 -31zM457 -25q-153 0 -238.5 93.5t-85.5 261.5v567q0 59 39.5 99t97.5 40q59 0 98.5 -39.5t39.5 -99.5v-543q0 -127 112 -127h10q47 0 77 -30.5t30 -77.5
q0 -79 -55 -111q-44 -33 -125 -33z" />
    <glyph glyph-name="upsilondieresistonos" unicode="&#x3b0;" horiz-adv-x="1179" 
d="M561 1124q-54 0 -92 39t-31 97l37 284q6 51 42 86t89 35q61 0 100.5 -47t28.5 -109l-55 -272q-9 -51 -41 -82t-78 -31zM184 1225q-62 0 -113 47.5t-51 109.5q0 67 50.5 114.5t113.5 47.5q67 0 114.5 -47t47.5 -115q0 -63 -48 -110t-114 -47zM965 1225q-62 0 -112 47.5
t-50 109.5q0 67 49.5 114.5t112.5 47.5q68 0 115.5 -46.5t47.5 -115.5q0 -63 -48 -110t-115 -47zM602 -25q-215 0 -345 130.5t-130 345.5v446q0 58 41 98.5t98 40.5t97 -40.5t40 -98.5v-467q0 -92 55 -148.5t146 -56.5q94 0 143.5 71t49.5 206q0 131 -31 274q-21 99 -21 127
q0 60 37.5 96.5t96.5 36.5q112 0 139 -116q61 -213 61 -414q0 -246 -128 -388.5t-349 -142.5z" />
    <glyph glyph-name="alpha" unicode="&#x3b1;" horiz-adv-x="1312" 
d="M1217 229q44 0 71 -29.5t27 -76.5q0 -74 -49 -111q-43 -32 -133 -32q-187 0 -242 159q-51 -79 -136.5 -121.5t-193.5 -42.5q-209 0 -345 150.5t-136 380.5t136 380t345 150q103 0 186 -39t136 -110v6q5 62 41 97.5t94 35.5q60 0 99 -40t36 -99q-13 -280 -14 -348l-4 -187
q-2 -65 16.5 -94t62.5 -29h3zM610 227q114 0 183 77t69 202t-70 202.5t-182 77.5q-109 0 -179.5 -78.5t-70.5 -199.5q0 -124 70.5 -202.5t179.5 -78.5z" />
    <glyph glyph-name="beta" unicode="&#x3b2;" horiz-adv-x="1296" 
d="M928 877q135 -46 212 -155.5t77 -260.5q0 -213 -141.5 -349.5t-362.5 -136.5q-168 0 -299 95v-322q0 -61 -39.5 -101t-98.5 -40q-60 0 -99.5 40.5t-39.5 100.5v1339q0 217 134 345.5t360 128.5q193 0 313.5 -110t120.5 -284q0 -187 -137 -290zM676 229q120 0 191 66
t71 176q0 106 -69 174t-177 68h-33q-52 0 -86 31t-34 77q0 47 22 75.5t78 53.5q147 38 147 191q0 80 -47.5 128t-126.5 48q-90 0 -144 -63.5t-54 -168.5v-757q119 -99 262 -99z" />
    <glyph glyph-name="gamma" unicode="&#x3b3;" horiz-adv-x="1138" 
d="M1100 903q0 -27 -21 -74l-372 -751v-330q0 -60 -39 -100.5t-99 -40.5q-58 0 -97.5 40.5t-39.5 100.5v338l-369 743q-22 43 -22 74q0 54 39.5 93.5t93.5 39.5q83 0 123 -78l274 -565l273 565q40 78 121 78q55 0 95 -39.5t40 -93.5z" />
    <glyph glyph-name="delta" unicode="&#x3b4;" horiz-adv-x="1245" 
d="M948 944q219 -206 219 -436q0 -146 -72.5 -268.5t-198 -193.5t-275.5 -71t-274.5 70.5t-195.5 193.5t-71 271q0 195 120.5 334t313.5 170l-338 317q-39 36 -39 88q0 47 35 82t82 35h739q51 0 84 -33.5t33 -83.5q0 -51 -33 -83.5t-84 -32.5h-418zM623 229
q113 0 187.5 78.5t74.5 198.5q0 119 -74.5 196.5t-187.5 77.5q-114 0 -188.5 -77t-74.5 -197t74.5 -198.5t188.5 -78.5z" />
    <glyph glyph-name="epsilon" unicode="&#x3b5;" horiz-adv-x="1042" 
d="M842 311q47 0 80.5 -34t35.5 -84q0 -56 -45 -89q-144 -129 -378 -129q-194 0 -318.5 83t-124.5 223q0 74 39 137.5t107 103.5q-105 82 -105 217q0 140 114 218.5t300 78.5q219 0 360 -114q46 -37 43 -91q1 -49 -32.5 -83.5t-81.5 -34.5q-34 0 -70 22q-92 64 -217 64
q-146 0 -146 -88q0 -41 30.5 -64.5t84.5 -23.5h88q44 0 74.5 -29.5t30.5 -73.5q0 -43 -30.5 -72.5t-74.5 -29.5h-98q-70 0 -108 -27t-38 -72q0 -50 44.5 -78t130.5 -28q143 0 227 74q41 24 78 24z" />
    <glyph glyph-name="zeta" unicode="&#x3b6;" horiz-adv-x="1075" 
d="M725 221q170 -50 253 -133.5t83 -206.5q0 -111 -45 -194q-41 -80 -131 -80q-55 0 -91 32t-36 82q0 23 9 61t9 58q0 50 -38.5 86.5t-110.5 53.5l-113 28q-207 53 -320.5 170.5t-113.5 280.5q0 227 186 422l398 422h-428q-51 0 -85 32.5t-34 83.5q0 50 34 83.5t85 33.5h692
q47 0 81.5 -35t34.5 -82q0 -43 -30 -78l-539 -596q-115 -129 -115 -249q0 -173 238 -240z" />
    <glyph glyph-name="eta" unicode="&#x3b7;" horiz-adv-x="1239" 
d="M721 1036q177 0 283 -110.5t106 -296.5v-881q0 -59 -40 -100t-97 -41t-97 41t-40 100v842q0 89 -52 142.5t-137 53.5q-86 0 -140 -54t-54 -142v-473q0 -59 -40.5 -100.5t-97.5 -41.5t-97 41.5t-40 100.5v547q0 65 -28 96q-17 23 -66 35q-39 11 -63.5 42t-24.5 72
q0 70 57 103q41 24 121 24q166 0 227 -123q60 59 143.5 91t176.5 32z" />
    <glyph glyph-name="theta" unicode="&#x3b8;" horiz-adv-x="1312" 
d="M655 1561q264 0 404.5 -203t140.5 -584q0 -386 -141.5 -593.5t-403.5 -207.5q-261 0 -401.5 207.5t-140.5 593.5q0 381 140 584t402 203zM655 1307q-120 0 -182 -97.5t-74 -308.5h514q-12 212 -74 309t-184 97zM655 227q122 0 186 107t74 334h-518q10 -228 73 -334.5
t185 -106.5z" />
    <glyph glyph-name="iota" unicode="&#x3b9;" horiz-adv-x="643" 
d="M457 -25q-153 0 -238.5 93.5t-85.5 261.5v567q0 59 39.5 99t97.5 40q59 0 98.5 -39.5t39.5 -99.5v-543q0 -127 112 -127h10q47 0 77 -30.5t30 -77.5q0 -79 -55 -111q-44 -33 -125 -33z" />
    <glyph glyph-name="kappa" unicode="&#x3ba;" horiz-adv-x="1148" 
d="M276 1036q60 0 99 -39.5t39 -99.5v-780q0 -60 -40 -101t-98 -41q-60 0 -99.5 41t-39.5 101v780q0 60 39.5 99.5t99.5 39.5zM1044 188q33 -42 33 -86q0 -54 -36 -90.5t-89 -36.5q-62 0 -102 52l-346 424q-43 53 -43 100q0 50 49 102l324 340q40 43 96 43q54 0 90.5 -35.5
t36.5 -87.5q0 -53 -45 -98l-258 -264z" />
    <glyph glyph-name="lambda" unicode="&#x3bb;" horiz-adv-x="1171" 
d="M1153 180q31 -31 31 -82t-40 -84.5t-100 -33.5q-109 0 -170 55t-108 184l-176 479l-242 -628q-15 -45 -49 -70t-78 -25q-57 0 -97 40.5t-40 97.5q0 23 12 57l359 885l-35 96q-35 93 -78.5 126.5t-124.5 33.5h-22q-51 -1 -87 35t-36 86q0 73 67 106q54 23 119 23
q150 0 243.5 -71t157.5 -239l336 -901q25 -65 50 -94t57 -43q35 -14 51 -33z" />
    <glyph glyph-name="uni03BC" unicode="&#x3bc;" horiz-adv-x="1249" 
d="M1153 229q44 0 71 -29.5t27 -76.5q0 -84 -63 -115q-54 -28 -117 -28q-154 0 -217 106q-87 -111 -229 -111q-128 0 -211 93v-320q0 -58 -40.5 -99.5t-97.5 -41.5q-58 0 -98.5 41t-40.5 100v1149q0 59 40.5 99t98.5 40q57 0 97.5 -40.5t40.5 -98.5v-467q0 -91 52.5 -148
t135.5 -57q86 0 139.5 57t53.5 148v467q0 58 40 98.5t97 40.5t97 -40.5t40 -98.5v-567q0 -101 82 -101h2z" />
    <glyph glyph-name="nu" unicode="&#x3bd;" horiz-adv-x="1144" 
d="M969 1036q54 0 93.5 -39.5t39.5 -93.5q0 -27 -21 -74l-381 -768q-20 -41 -53.5 -63.5t-73.5 -22.5q-85 0 -127 86l-380 768q-23 45 -23 74q0 54 40 93.5t95 39.5q81 0 121 -78l274 -565l273 565q40 78 123 78z" />
    <glyph glyph-name="xi" unicode="&#x3be;" horiz-adv-x="1091" 
d="M731 229q164 -34 255 -121t91 -214q0 -131 -45 -205q-46 -82 -133 -82q-55 0 -92 35t-37 88q0 19 11.5 58.5t11.5 61.5q0 53 -38.5 88.5t-111.5 47.5l-96 16q-215 35 -335 153.5t-120 295.5q0 122 58.5 220t162.5 154q-80 56 -124 139t-44 183q0 181 131.5 297.5
t333.5 116.5q120 0 220.5 -44.5t170.5 -127.5q31 -43 31 -84q0 -52 -37 -88.5t-90 -36.5q-54 0 -94 43q-74 84 -178 84q-89 0 -147 -52t-58 -135q0 -82 57 -136t146 -54h127q47 0 83 -33t36 -86q0 -52 -36 -84.5t-83 -32.5h-146q-105 0 -171 -59.5t-66 -157.5
q0 -176 233 -221z" />
    <glyph glyph-name="omicron" unicode="&#x3bf;" horiz-adv-x="1245" 
d="M623 1036q149 0 274 -70t197.5 -191.5t72.5 -266.5t-72.5 -267.5t-198 -193t-275.5 -70.5q-149 0 -273.5 70.5t-196 192.5t-71.5 268t71.5 267.5t196.5 191t275 69.5zM623 784q-114 0 -188.5 -78.5t-74.5 -199.5q0 -120 74.5 -197.5t188.5 -77.5q113 0 187.5 78.5
t74.5 196.5q0 120 -74.5 199t-187.5 79z" />
    <glyph glyph-name="pi" unicode="&#x3c0;" horiz-adv-x="1224" 
d="M276 -25q-58 0 -98.5 41.5t-40.5 100.5v755q0 60 41 101t101 41h626q66 0 104 -38t38 -104v-548q0 -82 65 -91l12 -6q105 -24 105 -118q0 -58 -39 -91q-44 -38 -141 -38q-137 0 -208 84t-71 245v471h-356v-665q0 -57 -40.5 -98.5t-97.5 -41.5z" />
    <glyph glyph-name="rho" unicode="&#x3c1;" horiz-adv-x="1263" 
d="M653 1036q237 0 385 -146.5t148 -383.5q0 -230 -137.5 -380.5t-348.5 -150.5q-187 0 -297 119v-346q0 -60 -39 -99.5t-98 -39.5q-60 0 -99.5 39.5t-39.5 99.5v750q0 244 144 391t382 147zM649 227q112 0 183 78.5t71 200.5q0 125 -71 202.5t-185 77.5q-113 0 -181.5 -75
t-68.5 -201q0 -127 69.5 -205t182.5 -78z" />
    <glyph glyph-name="uni03C2" unicode="&#x3c2;" horiz-adv-x="1089" 
d="M825 -393q-55 0 -91 32t-36 82q0 23 9.5 61t9.5 58q0 55 -39.5 86.5t-147.5 65.5q-75 22 -135.5 48.5t-121 70t-101.5 97t-66.5 131t-25.5 171.5q0 242 147 384t377 142q252 0 397 -178q27 -34 27 -80q0 -52 -36 -88.5t-89 -36.5q-57 0 -90 39q-89 92 -207 92
q-110 0 -177 -72t-67 -190q0 -53 16 -95.5t41.5 -72.5t67.5 -55.5t84 -42.5t101 -35q175 -57 252 -137t77 -203q0 -114 -45 -194q-44 -80 -131 -80z" />
    <glyph glyph-name="sigma" unicode="&#x3c3;" horiz-adv-x="1323" 
d="M1165 1014q51 0 85 -33.5t34 -83.5q0 -51 -34 -84t-85 -33h-143q129 -123 129 -299q0 -142 -70.5 -258t-194 -182t-274.5 -66q-228 0 -380 151t-152 376q0 229 151.5 370.5t397.5 141.5h536zM614 229q110 0 182 78.5t72 198.5t-70.5 195t-183.5 75t-183.5 -75t-70.5 -195
q0 -121 71.5 -199t182.5 -78z" />
    <glyph glyph-name="tau" unicode="&#x3c4;" horiz-adv-x="980" 
d="M823 229q52 0 84.5 -34t32.5 -86q0 -69 -63 -101q-70 -33 -185 -33q-209 0 -315.5 96t-106.5 285v424h-151q-50 0 -84.5 34t-34.5 83t34.5 83t84.5 34h676q50 0 84 -34t34 -83t-34 -83t-84 -34h-248v-399q0 -83 46 -120.5t150 -37.5q14 0 41 3t39 3z" />
    <glyph glyph-name="upsilon" unicode="&#x3c5;" horiz-adv-x="1179" 
d="M602 -25q-215 0 -345 130.5t-130 345.5v446q0 58 41 98.5t98 40.5t97 -40.5t40 -98.5v-467q0 -92 55 -148.5t146 -56.5q94 0 143.5 71t49.5 206q0 131 -31 274q-21 99 -21 127q0 60 37.5 96.5t96.5 36.5q112 0 139 -116q61 -213 61 -414q0 -246 -128 -388.5t-349 -142.5z
" />
    <glyph glyph-name="phi" unicode="&#x3c6;" horiz-adv-x="1644" 
d="M1567 508q0 -240 -166.5 -386.5t-439.5 -146.5v-227q0 -61 -39.5 -101t-98.5 -40q-58 0 -97.5 40.5t-39.5 100.5v227q-273 0 -439.5 147.5t-166.5 385.5t165.5 383t440.5 145v248q0 60 38.5 99.5t98.5 39.5q59 0 98.5 -39.5t39.5 -99.5v-248q274 0 440 -144.5t166 -383.5
zM680 211h12v590h-12q-155 0 -243.5 -78.5t-88.5 -216.5q0 -139 87.5 -217t244.5 -78zM965 211q158 0 245.5 77.5t87.5 217.5q0 138 -88 216.5t-245 78.5h-13v-590h13z" />
    <glyph glyph-name="chi" unicode="&#x3c7;" horiz-adv-x="1124" 
d="M1030 -143q53 -4 83 -39.5t30 -83.5q0 -57 -43 -92t-111 -35q-95 0 -155.5 41t-120.5 153l-156 293l-258 -422q-18 -29 -48 -47t-65 -18q-54 0 -92.5 38.5t-38.5 92.5q0 39 25 78l336 534l-199 365q-18 34 -40 50t-58 17q-53 4 -83 40t-30 85q0 56 43 90.5t111 34.5
q95 0 155.5 -40.5t118.5 -151.5l131 -254l236 387q39 63 112 63q54 0 92.5 -38t38.5 -93q0 -41 -24 -78l-309 -491l221 -410q18 -33 40 -49.5t58 -19.5z" />
    <glyph glyph-name="psi" unicode="&#x3c8;" horiz-adv-x="1701" 
d="M854 -393q-57 0 -97 41t-40 98v229q-271 0 -430.5 144t-159.5 389v389q0 58 41 98.5t98 40.5t97 -40.5t40 -98.5v-367q0 -139 85.5 -222t228.5 -83v1010q0 57 40 98t97 41q58 0 97.5 -40.5t39.5 -98.5v-1010q328 0 328 314q0 113 -29 235q-22 116 -22 129q0 60 37 96.5
t96 36.5q108 0 139 -116q62 -203 62 -385q0 -260 -163 -410t-448 -150v-229q0 -57 -40 -98t-97 -41z" />
    <glyph glyph-name="omega" unicode="&#x3c9;" horiz-adv-x="1728" 
d="M1356 985q293 -138 293 -489q0 -235 -129 -378t-342 -143q-205 0 -314 140q-112 -140 -313 -140q-213 0 -342 143t-129 378q0 348 293 489q2 1 12.5 6t13 6t12 5t12.5 5.5t11.5 4.5t12.5 4l12 3t13.5 3t12 1.5t13.5 0.5q55 0 94 -38.5t39 -92.5q0 -82 -86 -123
q-97 -38 -143 -106t-46 -172q0 -120 56.5 -193.5t148.5 -73.5q78 0 125 56.5t47 150.5v211q0 55 37.5 93t93.5 38t93.5 -38t37.5 -93v-211q0 -94 47 -150.5t125 -56.5q92 0 148.5 73.5t56.5 193.5q0 104 -45.5 171.5t-142.5 108.5q-86 38 -86 123q0 53 39 91t94 38
q49 0 125 -39z" />
    <glyph glyph-name="iotadieresis" unicode="&#x3ca;" horiz-adv-x="643" 
d="M49 1225q-67 0 -116.5 47t-49.5 112q0 66 48.5 113t117.5 47t117.5 -46.5t48.5 -113.5q0 -66 -49 -112.5t-117 -46.5zM500 1225q-67 0 -116.5 47t-49.5 112q0 66 48.5 113t117.5 47t116.5 -46.5t47.5 -113.5q0 -66 -48 -112.5t-116 -46.5zM457 -25q-153 0 -238.5 93.5
t-85.5 261.5v567q0 59 39.5 99t97.5 40q59 0 98.5 -39.5t39.5 -99.5v-543q0 -127 112 -127h10q47 0 77 -30.5t30 -77.5q0 -79 -55 -111q-44 -33 -125 -33z" />
    <glyph glyph-name="upsilondieresis" unicode="&#x3cb;" horiz-adv-x="1179" 
d="M332 1544q69 0 117.5 -46.5t48.5 -115.5q0 -64 -49 -110.5t-117 -46.5q-66 0 -116 47.5t-50 109.5q0 67 49 114.5t117 47.5zM817 1544q71 0 118.5 -46.5t47.5 -115.5q0 -65 -48.5 -111t-117.5 -46q-64 0 -114 47.5t-50 109.5q0 67 48 114.5t116 47.5zM602 -25
q-215 0 -345 130.5t-130 345.5v446q0 58 41 98.5t98 40.5t97 -40.5t40 -98.5v-467q0 -92 55 -148.5t146 -56.5q94 0 143.5 71t49.5 206q0 131 -31 274q-21 99 -21 127q0 60 37.5 96.5t96.5 36.5q112 0 139 -116q61 -213 61 -414q0 -246 -128 -388.5t-349 -142.5z" />
    <glyph glyph-name="omicrontonos" unicode="&#x3cc;" horiz-adv-x="1245" 
d="M623 1124q-54 0 -92 39t-31 97l37 284q6 51 42 86t89 35q61 0 100.5 -47t28.5 -109l-56 -272q-9 -51 -40.5 -82t-77.5 -31zM623 1036q149 0 274 -70t197.5 -191.5t72.5 -266.5t-72.5 -267.5t-198 -193t-275.5 -70.5q-149 0 -273.5 70.5t-196 192.5t-71.5 268t71.5 267.5
t196.5 191t275 69.5zM623 784q-114 0 -188.5 -78.5t-74.5 -199.5q0 -120 74.5 -197.5t188.5 -77.5q113 0 187.5 78.5t74.5 196.5q0 120 -74.5 199t-187.5 79z" />
    <glyph glyph-name="upsilontonos" unicode="&#x3cd;" horiz-adv-x="1179" 
d="M575 1124q-53 0 -91 39t-31 97l36 284q6 51 42.5 86t89.5 35q61 0 100.5 -47t28.5 -109l-56 -272q-9 -51 -41 -82t-78 -31zM602 -25q-215 0 -345 130.5t-130 345.5v446q0 58 41 98.5t98 40.5t97 -40.5t40 -98.5v-467q0 -92 55 -148.5t146 -56.5q94 0 143.5 71t49.5 206
q0 131 -31 274q-21 99 -21 127q0 60 37.5 96.5t96.5 36.5q112 0 139 -116q61 -213 61 -414q0 -246 -128 -388.5t-349 -142.5z" />
    <glyph glyph-name="omegatonos" unicode="&#x3ce;" horiz-adv-x="1728" 
d="M852 1124q-54 0 -92 39t-31 97l37 284q6 51 42 86t89 35q61 0 100.5 -47t28.5 -109l-55 -272q-9 -51 -41 -82t-78 -31zM1356 985q293 -138 293 -489q0 -235 -129 -378t-342 -143q-205 0 -314 140q-112 -140 -313 -140q-213 0 -342 143t-129 378q0 348 293 489q2 1 12.5 6
t13 6t12 5t12.5 5.5t11.5 4.5t12.5 4l12 3t13.5 3t12 1.5t13.5 0.5q55 0 94 -38.5t39 -92.5q0 -82 -86 -123q-97 -38 -143 -106t-46 -172q0 -120 56.5 -193.5t148.5 -73.5q78 0 125 56.5t47 150.5v211q0 55 37.5 93t93.5 38t93.5 -38t37.5 -93v-211q0 -94 47 -150.5
t125 -56.5q92 0 148.5 73.5t56.5 193.5q0 104 -45.5 171.5t-142.5 108.5q-86 38 -86 123q0 53 39 91t94 38q49 0 125 -39z" />
    <glyph glyph-name="uni0400" unicode="&#x400;" horiz-adv-x="1171" 
d="M571 1473q-61 0 -102 53l-131 184q-31 47 -27.5 95.5t41 85.5t90.5 38q87 4 127 -71l107 -205q15 -37 10.5 -76.5t-36.5 -71t-79 -32.5zM291 0q-59 0 -98 39t-39 98v1077q0 59 39.5 98.5t97.5 39.5h661q55 0 91 -35.5t36 -89.5q0 -53 -36.5 -89t-90.5 -36h-522v-275h358
q52 0 86.5 -33.5t34.5 -84.5q0 -50 -34.5 -83.5t-86.5 -33.5h-358v-342h547q55 0 91 -36t36 -89q0 -54 -36.5 -89.5t-90.5 -35.5h-686z" />
    <glyph glyph-name="uni0401" unicode="&#x401;" horiz-adv-x="1171" 
d="M338 1509q-64 0 -115 48t-51 110q0 67 50.5 113.5t115.5 46.5q68 0 117 -46t49 -114q0 -63 -49.5 -110.5t-116.5 -47.5zM866 1507q-64 0 -115 48t-51 110q0 67 50.5 114.5t115.5 47.5q68 0 117 -47t49 -115q0 -63 -49.5 -110.5t-116.5 -47.5zM291 0q-59 0 -98 39t-39 98
v1077q0 59 39.5 98.5t97.5 39.5h661q55 0 91 -35.5t36 -89.5q0 -53 -36.5 -89t-90.5 -36h-522v-275h358q52 0 86.5 -33.5t34.5 -84.5q0 -50 -34.5 -83.5t-86.5 -33.5h-358v-342h547q55 0 91 -36t36 -89q0 -54 -36.5 -89.5t-90.5 -35.5h-686z" />
    <glyph glyph-name="uni0402" unicode="&#x402;" horiz-adv-x="1572" 
d="M598 -25q-60 0 -98.5 41t-38.5 103v983h-322q-54 0 -90.5 36t-36.5 89q0 54 36.5 89.5t90.5 35.5h920q55 0 91 -35.5t36 -89.5q0 -53 -36.5 -89t-90.5 -36h-322v-252h256q224 0 362 -121t138 -317q0 -136 -81 -245t-224 -165q-73 -25 -113 -25q-56 0 -95.5 36.5
t-39.5 86.5q0 84 100 133q170 63 170 195q0 80 -58.5 129t-156.5 49h-258v-487q0 -62 -39.5 -103t-99.5 -41z" />
    <glyph glyph-name="uni0403" unicode="&#x403;" horiz-adv-x="1075" 
d="M606 1473q-47 1 -79 32.5t-36 71t11 76.5l106 205q40 75 127 71q53 -1 91 -38t41.5 -85.5t-27.5 -95.5l-131 -184q-41 -53 -103 -53zM913 1352q55 0 91 -35.5t36 -89.5q0 -53 -36.5 -89t-90.5 -36h-481v-985q0 -60 -39.5 -101t-99.5 -41q-58 0 -97.5 41t-39.5 101v1093
q0 62 40 102t101 40h616z" />
    <glyph glyph-name="uni0404" unicode="&#x404;" horiz-adv-x="1474" 
d="M1235 436q53 0 90 -37t37 -88t-43 -102q-90 -109 -228 -171.5t-294 -62.5q-150 0 -283.5 54.5t-229 148t-151 223.5t-55.5 275q0 194 95 354.5t260.5 253t365.5 92.5q155 0 293 -62t229 -171q43 -49 43 -103q0 -51 -37.5 -88t-91.5 -37q-59 0 -107 54q-130 151 -329 151
q-149 0 -260 -79.5t-154 -213.5h481q54 0 87.5 -33.5t33.5 -84.5q0 -50 -34 -83.5t-87 -33.5h-497q26 -162 144 -261.5t286 -99.5q193 0 327 152q50 53 109 53z" />
    <glyph glyph-name="uni0405" unicode="&#x405;" horiz-adv-x="1144" 
d="M584 -25q-121 0 -242 50t-195 133q-51 51 -51 106q1 54 38.5 88.5t88.5 34.5q42 0 72 -27q134 -139 289 -139q90 0 141 40.5t51 109.5q0 56 -36.5 89.5t-135.5 78.5l-145 65q-166 76 -247 169t-81 220q0 169 127.5 276t321.5 107q136 0 229.5 -47.5t148.5 -111.5
q37 -40 37 -89q0 -51 -39 -86.5t-88 -35.5q-40 0 -75 28q-51 46 -99.5 71t-113.5 25q-75 0 -121.5 -34.5t-46.5 -96.5q0 -50 32.5 -81.5t124.5 -73.5l154 -68q174 -77 254 -168.5t80 -226.5q0 -184 -133.5 -295t-339.5 -111z" />
    <glyph glyph-name="uni0406" unicode="&#x406;" horiz-adv-x="583" 
d="M293 1376q60 0 99.5 -40.5t39.5 -100.5v-1118q0 -60 -39.5 -101t-99.5 -41q-58 0 -97.5 41t-39.5 101v1118q0 60 38.5 100.5t98.5 40.5z" />
    <glyph glyph-name="uni0407" unicode="&#x407;" horiz-adv-x="583" 
d="M29 1509q-64 0 -115 48t-51 110q0 67 50.5 113.5t115.5 46.5q68 0 117 -46t49 -114q0 -63 -49.5 -110.5t-116.5 -47.5zM557 1507q-64 0 -115 48t-51 110q0 67 50.5 114.5t115.5 47.5q68 0 117 -47t49 -115q0 -63 -49.5 -110.5t-116.5 -47.5zM293 1376q60 0 99.5 -40.5
t39.5 -100.5v-1118q0 -60 -39.5 -101t-99.5 -41q-58 0 -97.5 41t-39.5 101v1118q0 60 38.5 100.5t98.5 40.5z" />
    <glyph glyph-name="uni0408" unicode="&#x408;" horiz-adv-x="794" 
d="M217 -25q-75 0 -127 19q-35 15 -57.5 47.5t-22.5 69.5q0 52 36.5 87t92.5 35q16 0 48.5 -3t50.5 -3q59 0 93 36t34 99v873q0 61 39 101t100 40q60 0 98.5 -40.5t38.5 -100.5v-875q0 -191 -106.5 -288t-317.5 -97z" />
    <glyph glyph-name="uni0409" unicode="&#x409;" horiz-adv-x="2050" 
d="M1477 887q219 0 356 -123.5t137 -319.5q0 -199 -136 -321.5t-357 -122.5h-412q-61 0 -101 40t-40 101v961h-338q-4 -455 -91 -716.5t-264 -356.5q-73 -49 -145 -49q-56 0 -90.5 33t-34.5 87q0 93 90 125q143 50 207 256.5t64 620.5v108q0 62 40 102t101 40h596
q61 0 101 -40t40 -102v-323h277zM1477 244q97 0 154 53.5t57 144.5q0 92 -57 147.5t-154 55.5h-277v-401h277z" />
    <glyph glyph-name="uni040A" unicode="&#x40a;" horiz-adv-x="2129" 
d="M293 -25q-58 0 -97.5 41t-39.5 101v1118q0 60 39.5 100.5t97.5 40.5q60 0 99.5 -40.5t39.5 -100.5v-399h572v399q0 60 39.5 100.5t99.5 40.5q58 0 97.5 -40.5t39.5 -100.5v-354h276q220 0 358 -123t138 -318q0 -198 -137 -319t-359 -121h-411q-60 0 -100.5 40t-40.5 101
v447h-572v-471q0 -60 -39.5 -101t-99.5 -41zM1280 244h276q98 0 155.5 52.5t57.5 141.5q0 91 -58 145t-155 54h-276v-393z" />
    <glyph glyph-name="uni040B" unicode="&#x40b;" horiz-adv-x="1634" 
d="M967 848q243 0 384.5 -149.5t141.5 -405.5v-176q0 -60 -39.5 -101t-97.5 -41q-60 0 -99.5 41t-39.5 101v166q0 158 -68.5 234.5t-210.5 76.5q-91 0 -201 -29v-448q0 -60 -39.5 -101t-99.5 -41q-58 0 -97.5 41t-39.5 101v985h-322q-54 0 -90.5 36t-36.5 89q0 54 36.5 89.5
t90.5 35.5h920q55 0 91 -35.5t36 -89.5q0 -53 -36.5 -89t-90.5 -36h-322v-287q125 33 230 33z" />
    <glyph glyph-name="uni040C" unicode="&#x40c;" horiz-adv-x="1355" 
d="M721 1473q-47 1 -79 32.5t-36.5 71t10.5 76.5l107 205q40 75 127 71q53 -1 90.5 -38t41 -85.5t-27.5 -95.5l-131 -184q-41 -53 -102 -53zM295 1376q58 0 97.5 -40.5t39.5 -100.5v-1118q0 -60 -39.5 -101t-97.5 -41q-60 0 -99.5 41t-39.5 101v1118q0 61 39 101t100 40z
M1243 190q35 -41 35 -84q0 -53 -38.5 -92t-90.5 -39q-62 0 -111 58l-514 592q-37 43 -37 92q0 46 39 88l488 526q45 45 100 45q51 0 88 -37.5t37 -91.5q0 -48 -41 -92l-407 -440z" />
    <glyph glyph-name="uni040D" unicode="&#x40d;" horiz-adv-x="1478" 
d="M592 1526l-131 184q-31 47 -27.5 95.5t41 85.5t90.5 38q87 4 127 -71l107 -205q15 -37 10.5 -76.5t-36.5 -71t-79 -32.5q-61 0 -102 53zM1190 1376q58 0 97.5 -40t39.5 -99v-1120q0 -60 -39.5 -101t-99.5 -41q-58 0 -97.5 41t-39.5 101v749l-643 -831q-48 -60 -115 -60
q-57 0 -97 41t-40 99v1120q0 60 39.5 100.5t97.5 40.5q60 0 99.5 -40.5t39.5 -100.5v-754l625 813q22 28 35.5 42.5t39.5 27t58 12.5z" />
    <glyph glyph-name="uni040E" unicode="&#x40e;" horiz-adv-x="1292" 
d="M635 1487q-134 0 -239 85t-105 195q0 46 30 76.5t76 30.5q62 0 103 -78q43 -100 135 -100q95 0 133 100q40 78 104 78q46 0 75.5 -30.5t29.5 -76.5q0 -110 -104.5 -195t-237.5 -85zM1083 1366q60 0 102 -42.5t42 -102.5q0 -29 -21 -76l-407 -871q-71 -152 -184 -225.5
t-277 -73.5q-83 0 -141 25q-72 38 -72 111q0 54 36.5 88t94.5 34q3 0 16 -1t21 -1q90 0 144.5 30t88.5 95l-415 789q-21 44 -21 78q0 60 42 101.5t101 41.5q86 0 134 -88l311 -623l272 623q17 40 53 64t80 24z" />
    <glyph glyph-name="uni040F" unicode="&#x40f;" horiz-adv-x="1413" 
d="M1122 1376q59 0 98.5 -40.5t39.5 -100.5v-1094q0 -61 -40 -101t-102 -40h-272v-172q0 -60 -39.5 -100.5t-97.5 -40.5q-60 0 -100 40.5t-40 100.5v172h-272q-61 0 -101 40t-40 101v1094q0 60 39.5 100.5t97.5 40.5q60 0 99.5 -40.5t39.5 -100.5v-985h551v985
q0 60 39.5 100.5t99.5 40.5z" />
    <glyph glyph-name="uni0410" unicode="&#x410;" horiz-adv-x="1355" 
d="M1270 182q16 -39 16 -73q0 -56 -38.5 -95t-96.5 -39q-89 0 -131 99l-57 139h-572l-57 -139q-39 -99 -129 -99q-58 0 -97.5 39t-39.5 95q0 27 16 73l463 1100q39 94 131 94t131 -94zM678 969l-197 -529h389z" />
    <glyph glyph-name="uni0411" unicode="&#x411;" horiz-adv-x="1271" 
d="M932 1352q56 0 92.5 -35.5t36.5 -89.5q0 -53 -37 -89t-92 -36h-500v-297h326q200 0 322 -109.5t122 -287.5q0 -182 -123 -295t-321 -113h-461q-61 0 -101 40t-40 101v1069q0 62 40 102t101 40h635zM737 578h-305v-340h305q91 0 142 44.5t51 125.5q0 80 -51 125t-142 45z
" />
    <glyph glyph-name="uni0412" unicode="&#x412;" horiz-adv-x="1269" 
d="M961 731q115 -40 178 -126.5t63 -207.5q0 -175 -125 -286t-321 -111h-461q-61 0 -101 40t-40 101v1069q0 62 40 102t101 40h338q189 0 308.5 -105t119.5 -272q0 -152 -100 -244zM612 1114h-190v-309h190q82 0 129 42t47 114t-47 112.5t-129 40.5zM735 238q91 0 142 44.5
t51 125.5q0 80 -51 125t-142 45h-313v-340h313z" />
    <glyph glyph-name="uni0413" unicode="&#x413;" horiz-adv-x="1075" 
d="M913 1352q55 0 91 -35.5t36 -89.5q0 -53 -36.5 -89t-90.5 -36h-481v-985q0 -60 -39.5 -101t-99.5 -41q-58 0 -97.5 41t-39.5 101v1093q0 62 40 102t101 40h616z" />
    <glyph glyph-name="uni0414" unicode="&#x414;" horiz-adv-x="1488" 
d="M1296 250q61 0 101.5 -40.5t40.5 -100.5v-281q0 -60 -39.5 -100.5t-98.5 -40.5q-60 0 -99.5 40.5t-39.5 100.5v172h-842v-172q0 -60 -39.5 -100.5t-97.5 -40.5q-60 0 -99.5 40.5t-39.5 100.5v281q0 57 36.5 96.5t92.5 44.5q127 138 186.5 350t59.5 528v82
q0 61 40.5 101.5t100.5 40.5h557q61 0 101 -40t40 -102v-960h39zM682 1102q-6 -577 -225 -852h524v852h-299z" />
    <glyph glyph-name="uni0415" unicode="&#x415;" horiz-adv-x="1171" 
d="M291 0q-59 0 -98 39t-39 98v1077q0 59 39.5 98.5t97.5 39.5h661q55 0 91 -35.5t36 -89.5q0 -53 -36.5 -89t-90.5 -36h-522v-275h358q52 0 86.5 -33.5t34.5 -84.5q0 -50 -34.5 -83.5t-86.5 -33.5h-358v-342h547q55 0 91 -36t36 -89q0 -54 -36.5 -89.5t-90.5 -35.5h-686z
" />
    <glyph glyph-name="uni0416" unicode="&#x416;" horiz-adv-x="2076" 
d="M340 1325l465 -516q39 -45 39 -92q0 -54 -39 -96l-490 -582q-55 -64 -116 -64q-52 0 -90.5 40.5t-38.5 93.5q0 44 30 79l447 527l-402 442q-36 42 -36 90q0 54 36.5 91.5t87.5 37.5q59 0 107 -51zM1038 1376q60 0 100 -40.5t40 -100.5v-1118q0 -60 -40 -101t-100 -41
q-58 0 -97.5 41t-39.5 101v1118q0 60 39.5 100.5t97.5 40.5zM1978 188q31 -42 31 -79q0 -53 -39 -93.5t-92 -40.5q-63 0 -115 64l-491 582q-39 48 -39 96q0 47 39 92l467 516q48 51 106 51q51 0 88 -37.5t37 -91.5q0 -47 -37 -90l-405 -440z" />
    <glyph glyph-name="uni0417" unicode="&#x417;" horiz-adv-x="1204" 
d="M928 715q95 -46 146.5 -128t51.5 -188q0 -184 -145.5 -304t-368.5 -120q-146 0 -267.5 56.5t-203.5 161.5q-30 40 -30 79q0 54 36.5 90.5t90.5 36.5q53 0 90 -43q119 -125 282 -125q107 0 174.5 50.5t67.5 132.5q0 73 -52.5 118.5t-137.5 45.5h-166q-50 0 -83.5 32.5
t-33.5 81.5t33.5 81t83.5 32h108q78 0 126 43t48 113q0 72 -52.5 115.5t-137.5 43.5q-136 0 -236 -106q-38 -41 -92 -41q-52 0 -88.5 36t-36.5 87q0 45 31 84q72 92 185 144t239 52q197 0 330 -114.5t133 -284.5q0 -164 -125 -262z" />
    <glyph glyph-name="uni0418" unicode="&#x418;" horiz-adv-x="1478" 
d="M1190 1376q58 0 97.5 -40t39.5 -99v-1120q0 -60 -39.5 -101t-99.5 -41q-58 0 -97.5 41t-39.5 101v749l-643 -831q-48 -60 -115 -60q-57 0 -97 41t-40 99v1120q0 60 39.5 100.5t97.5 40.5q60 0 99.5 -40.5t39.5 -100.5v-754l625 813q22 28 35.5 42.5t39.5 27t58 12.5z" />
    <glyph glyph-name="uni0419" unicode="&#x419;" horiz-adv-x="1478" 
d="M725 1487q-134 0 -239 85t-105 195q0 46 30 76.5t76 30.5q62 0 103 -78q43 -100 135 -100q95 0 133 100q40 78 105 78q45 0 74.5 -30.5t29.5 -76.5q0 -110 -104.5 -195t-237.5 -85zM1190 1376q58 0 97.5 -40t39.5 -99v-1120q0 -60 -39.5 -101t-99.5 -41q-58 0 -97.5 41
t-39.5 101v749l-643 -831q-48 -60 -115 -60q-57 0 -97 41t-40 99v1120q0 60 39.5 100.5t97.5 40.5q60 0 99.5 -40.5t39.5 -100.5v-754l625 813q22 28 35.5 42.5t39.5 27t58 12.5z" />
    <glyph glyph-name="uni041A" unicode="&#x41a;" horiz-adv-x="1355" 
d="M295 1376q58 0 97.5 -40.5t39.5 -100.5v-1118q0 -60 -39.5 -101t-97.5 -41q-60 0 -99.5 41t-39.5 101v1118q0 61 39 101t100 40zM1243 190q35 -41 35 -84q0 -53 -38.5 -92t-90.5 -39q-62 0 -111 58l-514 592q-37 43 -37 92q0 46 39 88l488 526q45 45 100 45
q51 0 88 -37.5t37 -91.5q0 -48 -41 -92l-407 -440z" />
    <glyph glyph-name="uni041B" unicode="&#x41b;" horiz-adv-x="1353" 
d="M1059 1352q61 0 101 -40t40 -102v-1093q0 -60 -39.5 -101t-97.5 -41q-60 0 -99.5 41t-39.5 101v985h-338q-4 -456 -91 -717t-264 -356q-73 -49 -145 -49q-56 0 -90.5 33t-34.5 87q0 93 90 125q143 50 207 256t64 621v108q0 62 40 102t101 40h596z" />
    <glyph glyph-name="uni041C" unicode="&#x41c;" horiz-adv-x="1630" 
d="M1341 1376q58 0 97 -40.5t39 -102.5v-1116q0 -60 -40 -101t-98 -41q-60 0 -99.5 41t-39.5 101v667l-254 -399q-30 -46 -60 -67t-71 -21q-75 0 -131 88l-254 403v-671q0 -60 -39.5 -101t-97.5 -41q-60 0 -99.5 41t-39.5 101v1116q0 62 38.5 102.5t96.5 40.5q44 0 77 -24
t68 -82l381 -604l381 604q37 59 69 82.5t76 23.5z" />
    <glyph glyph-name="uni041D" unicode="&#x41d;" horiz-adv-x="1458" 
d="M293 -25q-60 0 -99.5 41t-39.5 103v1114q0 62 39 102.5t100 40.5q60 0 98.5 -40.5t38.5 -102.5v-399h598v401q0 62 39 101.5t100 39.5q60 0 99 -40t39 -101v-1116q0 -61 -39.5 -102.5t-98.5 -41.5q-60 0 -99.5 41t-39.5 103v465h-598v-465q0 -61 -39 -102.5t-98 -41.5z
" />
    <glyph glyph-name="uni041E" unicode="&#x41e;" horiz-adv-x="1593" 
d="M795 1376q198 0 364 -93t261.5 -254t95.5 -353q0 -144 -56.5 -274t-152.5 -223.5t-229.5 -148.5t-282.5 -55t-282 54.5t-228 148t-151 223.5t-56 275q0 193 95 354t259.5 253.5t362.5 92.5zM797 1120q-191 0 -313 -124.5t-122 -319.5t122 -320t313 -125
q189 0 311.5 125.5t122.5 319.5q0 193 -122.5 318.5t-311.5 125.5z" />
    <glyph glyph-name="uni041F" unicode="&#x41f;" horiz-adv-x="1413" 
d="M293 -25q-60 0 -99.5 41t-39.5 101v1093q0 62 40 102t101 40h823q60 0 101 -40.5t41 -101.5v-1093q0 -60 -40 -101t-100 -41q-58 0 -97.5 41t-39.5 101v985h-553v-985q0 -60 -39.5 -101t-97.5 -41z" />
    <glyph glyph-name="uni0420" unicode="&#x420;" horiz-adv-x="1214" 
d="M293 -25q-60 0 -99.5 41t-39.5 101v1093q0 62 40 102t101 40h369q217 0 351 -121t134 -316q0 -193 -135.5 -315.5t-349.5 -122.5h-234v-360q0 -60 -39.5 -101t-97.5 -41zM430 719h232q95 0 149.5 52.5t54.5 143.5q0 88 -54.5 140.5t-149.5 52.5h-232v-389z" />
    <glyph glyph-name="uni0421" unicode="&#x421;" horiz-adv-x="1474" 
d="M797 -25q-150 0 -283.5 54.5t-229 148t-151 223.5t-55.5 275q0 194 95 354.5t260.5 253t365.5 92.5q155 0 293 -62t229 -171q43 -49 43 -103q0 -51 -37.5 -88t-91.5 -37q-59 0 -107 54q-130 151 -329 151q-191 0 -314 -125.5t-123 -320.5q0 -193 123 -318t314 -125
q193 0 327 152q50 53 109 53q53 0 90 -37t37 -88t-43 -102q-90 -109 -228 -171.5t-294 -62.5z" />
    <glyph glyph-name="uni0422" unicode="&#x422;" horiz-adv-x="1198" 
d="M598 -25q-58 0 -97.5 41t-39.5 101v985h-322q-54 0 -90.5 36t-36.5 89q0 54 36.5 89.5t90.5 35.5h920q55 0 91 -35.5t36 -89.5q0 -53 -36.5 -89t-90.5 -36h-322v-985q0 -60 -39.5 -101t-99.5 -41z" />
    <glyph glyph-name="uni0423" unicode="&#x423;" horiz-adv-x="1292" 
d="M1083 1366q60 0 102 -42.5t42 -102.5q0 -29 -21 -76l-407 -871q-71 -152 -184 -225.5t-277 -73.5q-83 0 -141 25q-72 38 -72 111q0 54 36.5 88t94.5 34q3 0 16 -1t21 -1q90 0 144.5 30t88.5 95l-415 789q-21 44 -21 78q0 60 42 101.5t101 41.5q86 0 134 -88l311 -623
l272 623q17 40 53 64t80 24z" />
    <glyph glyph-name="uni0424" unicode="&#x424;" horiz-adv-x="1716" 
d="M1636 688q0 -260 -174.5 -417t-466.5 -160v-82q0 -61 -39 -101.5t-98 -40.5q-60 0 -99.5 40.5t-39.5 101.5v82q-290 3 -465.5 161t-175.5 416q0 255 174 409.5t467 157.5v70q0 61 39.5 101t99.5 40q59 0 98 -40t39 -101v-70q294 -1 467.5 -155t173.5 -412zM350 680
q0 -155 97 -243t272 -89v672q-172 -1 -270.5 -92t-98.5 -248zM995 348q174 0 272.5 88t98.5 244q0 158 -99.5 249t-271.5 91v-672z" />
    <glyph glyph-name="uni0425" unicode="&#x425;" horiz-adv-x="1255" 
d="M1139 205q37 -53 37 -96q0 -54 -40.5 -94t-97.5 -40q-66 0 -110 60l-299 424l-301 -424q-44 -60 -113 -60q-55 0 -95 40t-40 96q0 44 39 100l342 477l-314 453q-38 55 -38 106q0 53 40 91t95 38q71 0 114 -61l271 -397l276 395q45 63 115 63q57 0 96 -38.5t39 -92.5
q0 -52 -41 -110l-317 -447z" />
    <glyph glyph-name="uni0426" unicode="&#x426;" horiz-adv-x="1486" 
d="M1116 1376q60 0 99.5 -40.5t39.5 -100.5v-985h37q61 0 101.5 -40.5t40.5 -100.5v-281q0 -60 -39.5 -100.5t-98.5 -40.5q-60 0 -99.5 40.5t-39.5 100.5v172h-860q-61 0 -101 40t-40 101v1094q0 60 39.5 100.5t97.5 40.5q60 0 99.5 -40.5t39.5 -100.5v-985h547v985
q0 60 38.5 100.5t98.5 40.5z" />
    <glyph glyph-name="uni0427" unicode="&#x427;" horiz-adv-x="1316" 
d="M1026 1376q60 0 99.5 -40.5t39.5 -100.5v-1118q0 -60 -39.5 -101t-99.5 -41q-58 0 -97.5 41t-39.5 101v340q-125 -33 -238 -33q-263 0 -418 147.5t-155 397.5v266q0 60 39.5 100.5t99.5 40.5q58 0 97.5 -40.5t39.5 -100.5v-240q0 -149 82.5 -233t225.5 -84q109 0 227 43
v514q0 60 38.5 100.5t98.5 40.5z" />
    <glyph glyph-name="uni0428" unicode="&#x428;" horiz-adv-x="2123" 
d="M1833 1376q58 0 97.5 -40.5t39.5 -100.5v-1094q0 -61 -40 -101t-101 -40h-1532q-61 0 -101 40t-40 101v1094q0 60 39.5 100.5t97.5 40.5q60 0 99.5 -40.5t39.5 -100.5v-985h494v985q0 60 39.5 100.5t97.5 40.5q60 0 99.5 -40.5t39.5 -100.5v-985h492v985q0 60 39.5 100.5
t99.5 40.5z" />
    <glyph glyph-name="uni0429" unicode="&#x429;" horiz-adv-x="2201" 
d="M1833 1376q58 0 97.5 -40.5t39.5 -100.5v-985h39q61 0 101 -40.5t40 -100.5v-281q0 -60 -39.5 -100.5t-97.5 -40.5q-60 0 -99.5 40.5t-39.5 100.5v172h-1577q-61 0 -101 40t-40 101v1094q0 60 39.5 100.5t97.5 40.5q60 0 99.5 -40.5t39.5 -100.5v-985h494v985
q0 60 39.5 100.5t97.5 40.5q60 0 99.5 -40.5t39.5 -100.5v-985h492v985q0 60 39.5 100.5t99.5 40.5z" />
    <glyph glyph-name="uni042A" unicode="&#x42a;" horiz-adv-x="1325" 
d="M340 0q-62 0 -101.5 40t-39.5 101v961h-107q-55 0 -92 36t-37 89q0 54 36.5 89.5t92.5 35.5h242q60 0 100.5 -40.5t40.5 -101.5v-323h277q218 0 355.5 -124t137.5 -319q0 -199 -136 -321.5t-357 -122.5h-412zM475 244h277q97 0 154 53.5t57 144.5q0 92 -57 147.5
t-154 55.5h-277v-401z" />
    <glyph glyph-name="uni042B" unicode="&#x42b;" horiz-adv-x="1865" 
d="M293 1376q60 0 99.5 -40.5t39.5 -100.5v-348h277q220 0 356.5 -124t136.5 -319q0 -197 -135.5 -320.5t-357.5 -123.5h-412q-61 0 -101 40t-40 101v1094q0 60 38.5 100.5t98.5 40.5zM1575 -25q-61 0 -100 40.5t-39 101.5v1118q0 61 39 101t100 40q60 0 98.5 -40.5
t38.5 -100.5v-1118q0 -61 -38.5 -101.5t-98.5 -40.5zM709 645h-277v-401h277q99 0 155 54t56 144q0 91 -56 147t-155 56z" />
    <glyph glyph-name="uni042C" unicode="&#x42c;" horiz-adv-x="1282" 
d="M293 1376q60 0 99.5 -40.5t39.5 -100.5v-348h277q220 0 356.5 -124t136.5 -319q0 -197 -135.5 -320.5t-357.5 -123.5h-412q-61 0 -101 40t-40 101v1094q0 60 38.5 100.5t98.5 40.5zM709 645h-277v-401h277q99 0 155 54t56 144q0 91 -56 147t-155 56z" />
    <glyph glyph-name="uni042D" unicode="&#x42d;" horiz-adv-x="1474" 
d="M676 1376q200 0 365.5 -92.5t260.5 -253t95 -354.5q0 -145 -55.5 -275t-151 -223.5t-229 -148t-283.5 -54.5q-156 0 -294 62.5t-228 171.5q-43 51 -43 102t36.5 88t90.5 37q58 0 108 -53q134 -152 328 -152q168 0 286 99.5t144 261.5h-498q-53 0 -87 33.5t-34 83.5
q0 51 33.5 84.5t87.5 33.5h482q-43 134 -154 213.5t-260 79.5q-200 0 -330 -151q-48 -54 -106 -54q-54 0 -91.5 37t-37.5 88q0 54 43 103q91 109 229 171t293 62z" />
    <glyph glyph-name="uni042E" unicode="&#x42e;" horiz-adv-x="2166" 
d="M1372 1376q196 0 361 -93t260.5 -254t95.5 -353t-95.5 -353.5t-260.5 -254.5t-361 -93q-181 0 -333 79t-248 218t-117 312h-242v-467q0 -60 -39.5 -101t-99.5 -41q-58 0 -97.5 41t-39.5 101v1118q0 60 38.5 100.5t98.5 40.5t99.5 -40.5t39.5 -100.5v-401h252
q53 238 243.5 390t444.5 152zM1372 231q187 0 309.5 126.5t122.5 318.5q0 193 -122 318.5t-310 125.5q-187 0 -309.5 -125.5t-122.5 -318.5q0 -192 123 -318.5t309 -126.5z" />
    <glyph glyph-name="uni042F" unicode="&#x42f;" horiz-adv-x="1302" 
d="M1010 1352q61 0 101 -40t40 -102v-1093q0 -60 -39.5 -101t-99.5 -41q-58 0 -98 41t-40 101v299h-200q-26 0 -76 4l-250 -387q-38 -58 -108 -58q-56 0 -96 41t-40 99q0 38 31 88l207 309q-90 62 -140 158.5t-50 214.5q0 209 145 338t377 129h336zM874 659v449h-204
q-105 0 -170.5 -62t-65.5 -161q0 -101 65.5 -163.5t170.5 -62.5h204z" />
    <glyph glyph-name="uni0430" unicode="&#x430;" horiz-adv-x="1116" 
d="M549 1036q209 0 323.5 -113.5t114.5 -320.5v-487q0 -60 -38 -99t-95 -39q-50 0 -87 30.5t-46 76.5q-115 -109 -297 -109q-156 0 -253 84.5t-97 219.5q0 137 102.5 215.5t280.5 78.5h254v45q0 85 -49.5 132t-141.5 47q-106 0 -194 -76q-44 -33 -82 -33q-50 0 -84.5 33.5
t-34.5 79.5q0 56 57 110q64 60 160 92.5t207 32.5zM498 178q91 0 152 57.5t61 143.5v12h-217q-142 0 -142 -102q0 -51 39.5 -81t106.5 -30z" />
    </font>
</defs>
</svg>
