<?xml version="1.0" standalone="no"?>
<!DOCTYPE svg PUBLIC "-//W3C//DTD SVG 1.1//EN" "http://www.w3.org/Graphics/SVG/1.1/DTD/svg11.dtd" >
<svg xmlns="http://www.w3.org/2000/svg" xmlns:xlink="http://www.w3.org/1999/xlink" version="1.1">
<metadata>
Created by FontForge 20170731 at Wed Nov 16 16:45:48 2022
 By Aleksey,,,
Copyright (c) 2016 by Jakob Runge and Lisa Fischbach, under exclusive license to TypeMates. All rights reserved.
</metadata>
<defs>
<font id="CeraRoundPro-Regular" horiz-adv-x="1146" >
  <font-face 
    font-family="Cera Round Pro"
    font-weight="400"
    font-stretch="normal"
    units-per-em="2048"
    panose-1="0 0 5 0 0 0 0 0 0 0"
    ascent="1655"
    descent="-393"
    x-height="997"
    cap-height="1352"
    bbox="-284.309 -483 2671 2075.86"
    underline-thickness="133"
    underline-position="-337"
    unicode-range="U+0020-FB02"
  />
<missing-glyph horiz-adv-x="1447" 
d="M1180 1352q35 0 58.5 -24t23.5 -58v-1188q0 -34 -23.5 -58t-58.5 -24h-914q-34 0 -57 24t-23 58v1188q0 34 23 58t57 24h914zM1143 106v1137h-842z" />
    <glyph glyph-name="fi" unicode="fi" horiz-adv-x="1155" 
d="M618 1544q56 -15 56 -71q0 -28 -19 -45t-51 -17q-8 0 -28.5 2t-36.5 2q-90 0 -136.5 -48.5t-46.5 -141.5v-228h197q31 0 51.5 -20t20.5 -49q0 -31 -20.5 -51.5t-51.5 -20.5h-197v-797q0 -35 -21.5 -58.5t-55.5 -23.5t-57 24t-23 58v797h-90q-31 0 -51.5 20.5t-20.5 51.5
q0 29 20.5 49t51.5 20h90v238q0 152 84 238t235 86q56 0 100 -15zM905 1491q46 0 80.5 -33.5t34.5 -79.5q0 -47 -34.5 -79.5t-80.5 -32.5q-48 0 -82.5 32.5t-34.5 79.5q0 46 35 79.5t82 33.5zM905 1020q33 0 55.5 -24t22.5 -58v-879q0 -34 -24 -58t-58 -24q-33 0 -54.5 24
t-21.5 58v879q0 34 22.5 58t57.5 24z" />
    <glyph glyph-name="fl" unicode="fl" horiz-adv-x="1155" 
d="M618 1544q56 -15 56 -71q0 -28 -19 -45t-51 -17q-8 0 -28.5 2t-36.5 2q-90 0 -136.5 -48.5t-46.5 -141.5v-228h197q31 0 51.5 -20t20.5 -49q0 -31 -20.5 -51.5t-51.5 -20.5h-197v-797q0 -35 -21.5 -58.5t-55.5 -23.5t-57 24t-23 58v797h-90q-31 0 -51.5 20.5t-20.5 51.5
q0 29 20.5 49t51.5 20h90v238q0 152 84 238t235 86q56 0 100 -15zM905 1559q33 0 55.5 -24t22.5 -58v-1418q0 -34 -22.5 -58t-55.5 -24q-35 0 -57.5 24t-22.5 58v1418q0 34 22.5 58t57.5 24z" />
    <glyph glyph-name=".notdef" horiz-adv-x="1447" 
d="M1180 1352q35 0 58.5 -24t23.5 -58v-1188q0 -34 -23.5 -58t-58.5 -24h-914q-34 0 -57 24t-23 58v1188q0 34 23 58t57 24h914zM1143 106v1137h-842z" />
    <glyph glyph-name=".null" horiz-adv-x="0" 
 />
    <glyph glyph-name="nonmarkingreturn" horiz-adv-x="682" 
 />
    <glyph glyph-name="space" unicode=" " horiz-adv-x="573" 
 />
    <glyph glyph-name="exclam" unicode="!" horiz-adv-x="624" 
d="M311 381q-33 0 -55.5 22.5t-22.5 55.5l-12 817q-1 44 24 71t66 27q40 0 65 -27t25 -71l-12 -817q0 -34 -22 -56t-56 -22zM311 -23q-53 0 -91 37.5t-38 91.5t38 92t91 38t91 -38t38 -92t-38 -91.5t-91 -37.5z" />
    <glyph glyph-name="quotedbl" unicode="&#x22;" horiz-adv-x="948" 
d="M254 788q-35 0 -55.5 19.5t-20.5 52.5q0 12 9 66t17.5 143t8.5 186q0 44 25 72.5t65 28.5q43 0 66.5 -27t23.5 -74q0 -68 -21 -205t-42 -198q-23 -64 -76 -64zM629 788q-35 0 -55.5 19.5t-20.5 52.5q0 12 8.5 66t17.5 143t9 186q0 44 25 72.5t65 28.5q43 0 66.5 -27
t23.5 -74q0 -68 -21 -205t-42 -198q-23 -64 -76 -64z" />
    <glyph glyph-name="numbersign" unicode="#" horiz-adv-x="1222" 
d="M1100 883h-129l-58 -414h131q29 0 49.5 -19.5t20.5 -48.5q0 -28 -20.5 -47.5t-49.5 -19.5h-149l-41 -303q-3 -22 -23 -38t-47 -16q-26 0 -45.5 20t-19.5 46l2 20l37 271h-389l-41 -303q-3 -22 -23 -38t-47 -16q-26 0 -45.5 20t-19.5 46l2 20l36 271h-108
q-29 0 -49.5 19.5t-20.5 47.5q0 29 20.5 48.5t49.5 19.5h127l57 414h-127q-29 0 -49 19t-20 48q0 28 20 48t49 20h146l41 303q3 22 22.5 37.5t46.5 15.5q26 0 46 -19.5t20 -45.5l-2 -21l-37 -270h389l41 303q3 22 22.5 37.5t45.5 15.5q28 0 47.5 -19.5t19.5 -45.5l-2 -21
l-37 -270h111q29 0 49 -20t20 -48q0 -29 -20 -48t-49 -19zM387 469h389l58 414h-390z" />
    <glyph glyph-name="dollar" unicode="$" horiz-adv-x="1097" 
d="M969 381q0 -136 -95 -225.5t-247 -108.5v-178q0 -35 -22 -58.5t-56 -23.5t-57 23.5t-23 58.5v180q-113 17 -202.5 76t-151.5 151q-17 23 -17 48q0 32 22.5 50.5t51.5 18.5q36 0 53 -26q108 -142 244 -174v456l-12 6q-144 61 -214.5 141.5t-70.5 188.5q0 123 82.5 204.5
t214.5 102.5v185q0 34 23 58t57 24q33 0 55.5 -24t22.5 -58v-181q177 -24 288 -176q17 -24 17 -45q0 -31 -21.5 -52.5t-50.5 -21.5q-30 0 -53 29q-79 98 -180 121v-410l45 -18q144 -60 220.5 -141t76.5 -201zM332 987q0 -57 31 -96.5t106 -79.5v336q-61 -16 -99 -56.5
t-38 -103.5zM627 190q82 14 132 63.5t50 125.5q0 69 -46 115.5t-136 89.5v-394z" />
    <glyph glyph-name="percent" unicode="%" horiz-adv-x="1658" 
d="M438 715q-141 0 -238.5 95.5t-97.5 233.5t97.5 234t238.5 96q140 0 237 -96t97 -234t-97 -233.5t-237 -95.5zM463 -23q-25 0 -42.5 17.5t-17.5 42.5q0 17 11 35l731 1276q16 26 51 26q26 0 43.5 -17t17.5 -42q0 -18 -10 -35l-731 -1276q-17 -27 -53 -27zM438 831
q87 0 145 61t58 152t-58 152t-145 61q-88 0 -145 -60.5t-57 -152.5q0 -93 56.5 -153t145.5 -60zM1221 -20q-140 0 -237 95.5t-97 233.5t97 234t237 96t237.5 -96t97.5 -234t-97.5 -233.5t-237.5 -95.5zM1223 98q86 0 143 60t57 151q0 92 -57 152.5t-143 60.5
q-88 0 -145.5 -60t-57.5 -153q0 -92 57.5 -151.5t145.5 -59.5z" />
    <glyph glyph-name="ampersand" unicode="&#x26;" horiz-adv-x="1280" 
d="M1022 289l160 -178q22 -25 22 -54q0 -32 -24 -56t-56 -24q-36 0 -59 29l-145 164q-184 -193 -404 -193q-180 0 -297 99.5t-117 253.5q0 109 68 203.5t238 218.5q-146 173 -146 325q0 132 83 214.5t218 82.5q129 0 213 -78.5t84 -199.5q0 -93 -57 -180.5t-180 -180.5
l292 -327q78 106 146 223q28 43 67 43q30 0 53 -23.5t23 -56.5q0 -26 -30 -76q-77 -129 -152 -229zM563 1229q-70 0 -107.5 -39t-37.5 -113q0 -59 26.5 -115t87.5 -126q93 72 133 131t40 123q0 66 -38 102.5t-104 36.5zM520 125q155 0 299 160l-317 360
q-143 -113 -187.5 -170.5t-44.5 -130.5q0 -95 70.5 -157t179.5 -62z" />
    <glyph glyph-name="quotesingle" unicode="'" horiz-adv-x="573" 
d="M254 788q-35 0 -55.5 19.5t-20.5 52.5q0 12 9 66t17.5 143t8.5 186q0 44 25 72.5t65 28.5q43 0 66.5 -27t23.5 -74q0 -68 -21 -205t-42 -198q-23 -64 -76 -64z" />
    <glyph glyph-name="parenleft" unicode="(" horiz-adv-x="681" 
d="M555 -262q-25 0 -43 12q-354 237 -354 866q0 640 354 867q18 12 43 12q29 0 46 -20t17 -43q0 -37 -32 -62q-61 -49 -107.5 -112t-85.5 -152.5t-59.5 -213.5t-20.5 -276q0 -201 38 -354t95.5 -242.5t139.5 -156.5q32 -25 32 -62q0 -24 -17 -43.5t-46 -19.5z" />
    <glyph glyph-name="parenright" unicode=")" horiz-adv-x="681" 
d="M129 -268q-29 0 -46 19.5t-17 43.5q0 37 32 62q82 67 139.5 156.5t95.5 242.5t38 354q0 152 -20.5 276t-59.5 213.5t-85.5 152.5t-107.5 112q-32 25 -32 61q0 23 17.5 43.5t45.5 20.5q25 0 43 -12q354 -227 354 -867q0 -629 -354 -866q-18 -12 -43 -12z" />
    <glyph glyph-name="asterisk" unicode="*" horiz-adv-x="839" 
d="M702 1096q31 -19 31 -52q0 -28 -17.5 -44.5t-39.5 -16.5q-20 0 -33 8l-164 94v-188q0 -27 -17 -44t-42 -17t-42.5 17t-17.5 44v188l-163 -94q-13 -8 -33 -8q-32 0 -49 31q-9 15 -9 30q0 33 31 52l162 94l-162 92q-31 19 -31 51q0 28 18 45t40 17q18 0 33 -9l163 -94v191
q0 26 17.5 42.5t42.5 16.5t42 -16.5t17 -42.5v-191l164 94q15 9 33 9q31 0 49 -29q8 -13 8 -33q0 -32 -31 -51l-161 -92z" />
    <glyph glyph-name="plus" unicode="+" 
d="M578 172q-32 0 -55 23t-23 57v315h-320q-34 0 -55 19.5t-21 54.5q0 34 21 55t55 21h320v313q0 35 22.5 57.5t55.5 22.5t55 -22.5t22 -57.5v-313h310q34 0 54.5 -21t20.5 -55q0 -35 -20.5 -54.5t-54.5 -19.5h-310v-315q0 -34 -22.5 -57t-54.5 -23z" />
    <glyph glyph-name="comma" unicode="," horiz-adv-x="552" 
d="M236 -391q-33 0 -55.5 21.5t-22.5 52.5q0 13 10 70.5t19.5 152t9.5 198.5q0 44 25.5 72.5t66.5 28.5q43 0 67.5 -27t24.5 -74q0 -71 -24.5 -218t-47.5 -216q-12 -34 -28.5 -47.5t-44.5 -13.5z" />
    <glyph glyph-name="hyphen" unicode="-" horiz-adv-x="708" 
d="M537 711q30 0 49.5 -19t19.5 -47q0 -29 -19 -48t-50 -19h-365q-31 0 -51.5 19t-20.5 48q0 28 20.5 47t51.5 19h365z" />
    <glyph glyph-name="period" unicode="." horiz-adv-x="552" 
d="M276 -23q-53 0 -91 37.5t-38 91.5t38 92t91 38t91.5 -38t38.5 -92t-38.5 -91.5t-91.5 -37.5z" />
    <glyph glyph-name="slash" unicode="/" horiz-adv-x="1261" 
d="M137 -272q-32 0 -55 22.5t-23 54.5q0 19 13 45l1005 1711q23 38 74 38q31 0 54.5 -22.5t23.5 -54.5q0 -22 -15 -45l-1003 -1710q-24 -39 -74 -39z" />
    <glyph glyph-name="zero" unicode="0" horiz-adv-x="1259" 
d="M631 1374q233 0 363 -180.5t130 -505.5q0 -333 -131.5 -522t-361.5 -189q-232 0 -364 189t-132 522q0 325 130.5 505.5t365.5 180.5zM631 1227q-163 0 -246.5 -137t-83.5 -404q0 -272 85 -416.5t245 -144.5t243.5 143.5t83.5 417.5q0 268 -82.5 404.5t-244.5 136.5z" />
    <glyph glyph-name="one" unicode="1" horiz-adv-x="776" 
d="M487 1374q30 0 49 -24t19 -56v-1235q0 -34 -23 -58t-57 -24q-35 0 -57.5 24t-22.5 58v1123l-209 -82q-42 -17 -59 -17q-27 0 -46.5 19.5t-19.5 52.5q0 51 64 80l297 123q40 16 65 16z" />
    <glyph glyph-name="two" unicode="2" 
d="M961 143q32 0 53.5 -20t21.5 -51q0 -30 -21.5 -51t-53.5 -21h-785q-32 0 -56 24t-24 56q0 33 31 61l451 412q126 113 181.5 206t55.5 193q0 122 -72 198.5t-186 76.5q-118 0 -195 -79.5t-77 -199.5q0 -13 1 -30.5t1 -20.5q0 -34 -21.5 -56t-56.5 -22q-53 0 -76 53
q-14 32 -14 84q0 177 126.5 297.5t313.5 120.5q184 0 303 -118.5t119 -301.5q0 -129 -67.5 -249.5t-215.5 -255.5l-336 -306h599z" />
    <glyph glyph-name="three" unicode="3" horiz-adv-x="1101" 
d="M573 846q182 -8 300 -125.5t118 -292.5q0 -195 -136 -323t-343 -128q-126 0 -236.5 58t-189.5 166q-14 22 -14 45q0 30 21.5 51.5t51.5 21.5q36 0 60 -30q126 -164 305 -164q140 0 227.5 84t87.5 217q0 132 -89.5 205.5t-252.5 73.5h-53q-34 0 -57 23.5t-23 55.5
q0 35 27 62l346 358h-522q-31 0 -53.5 21t-22.5 53q0 31 22.5 52.5t53.5 21.5h676q33 0 56 -23.5t23 -56.5q0 -31 -20 -51z" />
    <glyph glyph-name="four" unicode="4" horiz-adv-x="1122" 
d="M1006 403q37 0 58 -22.5t21 -52.5q0 -32 -20.5 -54t-58.5 -22h-125v-195q0 -33 -23.5 -56.5t-56.5 -23.5q-32 0 -56 24t-24 56v195h-598q-32 0 -56 23t-24 55q0 16 8 35l422 950q25 59 78 59q32 0 56 -24t24 -56q0 -18 -8 -37l-379 -854h477v379q0 33 23.5 56.5
t56.5 23.5q34 0 57 -23t23 -57v-379h125z" />
    <glyph glyph-name="five" unicode="5" horiz-adv-x="1136" 
d="M563 846q73 0 140.5 -16t126.5 -49.5t102.5 -82t68.5 -118t25 -152.5q0 -102 -39.5 -188.5t-106 -143t-153 -88t-180.5 -31.5q-147 0 -261.5 65t-185.5 171q-10 15 -10 41q0 30 22 52t52 22q34 0 57 -31q135 -172 324 -172q137 0 226 83t89 218q0 134 -89.5 207.5
t-254.5 73.5h-225q-34 0 -58 23.5t-24 57.5v482q0 35 24 58.5t58 23.5h573q31 0 52.5 -21.5t21.5 -50.5q0 -31 -21.5 -51.5t-52.5 -20.5h-493v-362h192z" />
    <glyph glyph-name="six" unicode="6" horiz-adv-x="1128" 
d="M586 874q183 0 311.5 -129t128.5 -313q0 -191 -134 -323t-329 -132t-327 132.5t-132 324.5q0 102 39.5 194.5t143.5 231.5l352 473q24 41 70 41q32 0 55.5 -24t23.5 -56q0 -27 -18 -51l-293 -385q50 16 109 16zM563 123q129 0 217 88.5t88 218.5q0 131 -88 220t-217 89
t-215 -89t-86 -220t86 -219t215 -88z" />
    <glyph glyph-name="seven" unicode="7" horiz-adv-x="1026" 
d="M895 1352q33 0 56.5 -23.5t23.5 -56.5q0 -25 -12 -43l-670 -1209q-25 -43 -72 -43q-33 0 -56.5 23.5t-23.5 56.5q0 20 13 43l614 1108h-621q-32 0 -52.5 20.5t-20.5 51.5q0 30 20.5 51t52.5 21h748z" />
    <glyph glyph-name="eight" unicode="8" horiz-adv-x="1183" 
d="M743 709q322 -120 322 -365q0 -164 -129.5 -265.5t-343.5 -101.5q-215 0 -346 102t-131 267q0 248 321 361q-124 58 -191 137.5t-67 193.5q0 157 118 246.5t296 89.5q113 0 204.5 -38t148 -115.5t56.5 -182.5q0 -216 -258 -329zM336 1032q0 -87 62.5 -142t191.5 -108
q128 51 191 106.5t63 143.5q0 96 -70.5 150.5t-181.5 54.5q-112 0 -184 -54.5t-72 -150.5zM592 115q149 0 230 64t81 171q0 56 -23 100.5t-70 77.5t-95.5 56t-122.5 49q-75 -26 -124.5 -49t-97 -56.5t-71 -77.5t-23.5 -100q0 -106 83.5 -170.5t232.5 -64.5z" />
    <glyph glyph-name="nine" unicode="9" horiz-adv-x="1128" 
d="M565 1374q195 0 327 -132t132 -324q0 -102 -39.5 -195t-142.5 -231l-353 -474q-24 -41 -69 -41q-32 0 -56 24t-24 56q0 28 18 52l293 385q-53 -17 -108 -17q-183 0 -312 129.5t-129 313.5q0 191 134 322.5t329 131.5zM565 612q128 0 214.5 89.5t86.5 220.5t-86 219
t-215 88t-217 -88.5t-88 -218.5q0 -131 88 -220.5t217 -89.5z" />
    <glyph glyph-name="colon" unicode=":" horiz-adv-x="552" 
d="M276 750q-53 0 -91 37.5t-38 91.5t38 91.5t91 37.5t91.5 -37.5t38.5 -91.5t-38.5 -91.5t-91.5 -37.5zM276 -23q-53 0 -91 37.5t-38 91.5t38 92t91 38t91.5 -38t38.5 -92t-38.5 -91.5t-91.5 -37.5z" />
    <glyph glyph-name="semicolon" unicode=";" horiz-adv-x="552" 
d="M276 750q-53 0 -91 37.5t-38 91.5t38 91.5t91 37.5t91.5 -37.5t38.5 -91.5t-38.5 -91.5t-91.5 -37.5zM238 -391q-33 0 -55.5 21.5t-22.5 52.5q0 13 10 70.5t19.5 152t9.5 198.5q0 44 25.5 72.5t66.5 28.5q43 0 67.5 -27t24.5 -74q0 -71 -24.5 -218t-47.5 -216
q-12 -34 -28.5 -47.5t-44.5 -13.5z" />
    <glyph glyph-name="less" unicode="&#x3c;" 
d="M956 406q62 -21 62 -74q0 -29 -21.5 -50.5t-52.5 -21.5q-13 0 -51 14l-731 304q-58 21 -58 71q0 47 60 72l729 301q38 14 51 14q31 0 52.5 -20.5t21.5 -50.5q0 -50 -62 -74l-616 -242z" />
    <glyph glyph-name="equal" unicode="=" 
d="M946 928q31 0 51.5 -20.5t20.5 -49.5q0 -31 -20.5 -51.5t-51.5 -20.5h-745q-31 0 -51.5 20.5t-20.5 51.5q0 29 20.5 49.5t51.5 20.5h745zM946 502q31 0 51.5 -20.5t20.5 -49.5q0 -31 -20.5 -50.5t-51.5 -19.5h-745q-31 0 -51.5 19.5t-20.5 50.5q0 29 20.5 49.5t51.5 20.5
h745z" />
    <glyph glyph-name="greater" unicode="&#x3e;" 
d="M983 721q59 -24 59 -72q0 -51 -57 -71l-731 -304q-38 -14 -51 -14q-31 0 -52.5 21.5t-21.5 50.5q0 53 61 74l617 243l-617 242q-61 24 -61 74q0 30 21.5 50.5t52.5 20.5q13 0 51 -14z" />
    <glyph glyph-name="question" unicode="?" horiz-adv-x="911" 
d="M408 387q-31 0 -53.5 22t-22.5 54v29q0 70 36.5 131.5t127.5 146.5q97 91 128 140t31 112q0 89 -57 148t-143 59q-71 0 -126.5 -39t-84.5 -109q-21 -53 -70 -53q-30 0 -51 21t-21 51q0 18 9 41q43 110 134 171.5t214 61.5q154 0 257 -98t103 -244q0 -87 -43.5 -162
t-150.5 -170q-86 -76 -115 -119.5t-29 -93.5v-22q0 -34 -20.5 -56t-52.5 -22zM412 -23q-53 0 -91 37.5t-38 91.5t38 92t91 38t91 -38t38 -92t-38 -91.5t-91 -37.5z" />
    <glyph glyph-name="at" unicode="@" horiz-adv-x="1888" 
d="M969 1346q240 0 427 -104t290.5 -291t103.5 -427q0 -197 -85.5 -314.5t-227.5 -117.5q-92 0 -155 38.5t-89 109.5q-40 -87 -127.5 -138t-200.5 -51q-175 0 -291 124.5t-116 311.5q0 188 116 311.5t293 123.5q94 0 172.5 -36t124.5 -100v37q0 34 21.5 58t52.5 24
q32 0 53 -24t21 -58v-475q0 -67 29.5 -96t97.5 -29q80 0 127 81.5t47 219.5q0 313 -184.5 499.5t-495.5 186.5q-207 0 -373.5 -90.5t-260 -251.5t-93.5 -362q0 -148 54.5 -279t149 -225t227.5 -148.5t284 -54.5q85 0 194 25q34 8 57 -3.5t29 -39.5q6 -27 -6.5 -50t-38.5 -30
q-119 -35 -250 -35q-141 0 -271 41.5t-234 118t-181.5 179.5t-119.5 231.5t-42 267.5q0 235 114 428t314 303.5t443 110.5zM932 197q117 0 190.5 81t73.5 211q0 131 -73 211t-191 80q-117 0 -195 -83t-78 -210q0 -126 77 -208t196 -82z" />
    <glyph glyph-name="A" unicode="A" horiz-adv-x="1359" 
d="M1274 106q14 -28 14 -51q0 -31 -23.5 -54.5t-54.5 -23.5q-51 0 -77 54l-109 243h-694l-103 -243q-23 -54 -75 -54q-32 0 -55 23.5t-23 54.5q0 21 12 51l518 1213q24 55 76 55t76 -55zM680 1135l-291 -717h574z" />
    <glyph glyph-name="B" unicode="B" horiz-adv-x="1261" 
d="M907 743q125 -37 194.5 -129t69.5 -225q0 -175 -117.5 -282t-310.5 -107h-473q-36 0 -60 24t-24 60v1184q0 36 24 60t60 24h381q173 0 279 -94t106 -248q0 -171 -129 -267zM635 1208h-289v-420h289q111 0 174 56t63 155q0 98 -62.5 153.5t-174.5 55.5zM727 143
q131 0 206 66.5t75 183.5t-75 183.5t-206 66.5h-381v-500h381z" />
    <glyph glyph-name="C" unicode="C" horiz-adv-x="1464" 
d="M801 -23q-146 0 -276.5 54.5t-224 148t-148 223t-54.5 273.5t54.5 273.5t148 222.5t224 147.5t276.5 54.5q157 0 295.5 -63.5t230.5 -177.5q31 -39 31 -68t-22.5 -50.5t-53.5 -21.5q-42 0 -68 33q-160 201 -411 201q-151 0 -275 -72t-194 -198.5t-70 -280.5t70 -280.5
t194 -198.5t275 -72q248 0 411 201q25 32 68 32q31 0 53.5 -21t22.5 -50t-31 -68q-89 -114 -228.5 -178t-297.5 -64z" />
    <glyph glyph-name="D" unicode="D" horiz-adv-x="1421" 
d="M588 1352q333 0 534 -184t201 -490q0 -304 -203 -491t-532 -187h-318q-36 0 -60 24t-24 60v1184q0 36 24 60t60 24h318zM586 1208h-240v-1065h240q258 0 414.5 146.5t156.5 388.5q0 243 -155 386.5t-416 143.5z" />
    <glyph glyph-name="E" unicode="E" horiz-adv-x="1159" 
d="M260 0q-32 0 -53 21.5t-21 52.5v1204q0 31 21 52.5t53 21.5h727q31 0 52.5 -21.5t21.5 -50.5q0 -31 -21.5 -51.5t-52.5 -20.5h-641v-413h477q31 0 52.5 -20.5t21.5 -51.5q0 -29 -21.5 -50.5t-52.5 -21.5h-477v-508h666q31 0 52 -20t21 -51q0 -30 -21.5 -51t-51.5 -21
h-752z" />
    <glyph glyph-name="F" unicode="F" horiz-adv-x="1073" 
d="M266 -23q-35 0 -57.5 24t-22.5 60v1207q0 36 24 60t60 24h697q31 0 52 -21t21 -51q0 -31 -21 -51.5t-52 -20.5h-621v-465h504q31 0 52.5 -21t21.5 -50q0 -31 -21.5 -52.5t-52.5 -21.5h-504v-537q0 -35 -23 -59.5t-57 -24.5z" />
    <glyph glyph-name="G" unicode="G" horiz-adv-x="1527" 
d="M801 -23q-146 0 -276 54.5t-224 147.5t-148.5 222.5t-54.5 274.5t54.5 274.5t148.5 222.5t224 147t276 54q158 0 302.5 -68t229.5 -182q25 -36 25 -59q0 -28 -22 -50t-54 -22q-40 0 -74 39q-93 102 -189 148.5t-218 46.5q-232 0 -384.5 -156.5t-152.5 -392.5
q0 -157 70.5 -284.5t195.5 -200t279 -72.5q141 0 260 60.5t191 168.5v195h-386q-35 0 -59 21t-24 50q0 31 24 51.5t59 20.5h461q36 0 60 -24t24 -60v-219q0 -61 -33 -111q-94 -138 -251 -217.5t-334 -79.5z" />
    <glyph glyph-name="H" unicode="H" horiz-adv-x="1449" 
d="M266 -23q-35 0 -57.5 24t-22.5 58v1233q0 34 22.5 58t57.5 24q34 0 57 -24t23 -58v-497h758v497q0 34 23 58t57 24q35 0 57.5 -24t22.5 -58v-1233q0 -34 -22.5 -58t-57.5 -24q-34 0 -57 24t-23 58v592h-758v-592q0 -34 -23 -58t-57 -24z" />
    <glyph glyph-name="I" unicode="I" horiz-adv-x="530" 
d="M266 -23q-35 0 -57.5 24t-22.5 60v1229q0 36 22.5 60t57.5 24q34 0 57 -24.5t23 -59.5v-1229q0 -35 -23 -59.5t-57 -24.5z" />
    <glyph glyph-name="J" unicode="J" horiz-adv-x="763" 
d="M227 -23q-78 0 -133 15q-26 7 -42.5 28.5t-16.5 47.5q0 33 23 54t57 21q21 0 63 -6t72 -6q82 0 126 51.5t44 145.5v962q0 36 22.5 60t57.5 24t57.5 -24t22.5 -60v-977q0 -163 -91.5 -249.5t-261.5 -86.5z" />
    <glyph glyph-name="K" unicode="K" horiz-adv-x="1296" 
d="M266 1374q34 0 57 -24.5t23 -59.5v-1229q0 -35 -23 -59.5t-57 -24.5q-35 0 -57.5 24t-22.5 60v1229q0 36 22.5 60t57.5 24zM1167 109q31 -24 31 -60q0 -29 -21.5 -50.5t-52.5 -21.5q-30 0 -63 33l-645 660q-25 29 -25 55q0 27 27 57l586 559q36 33 61 33q31 0 52.5 -21
t21.5 -50q0 -32 -35 -64l-537 -514z" />
    <glyph glyph-name="L" unicode="L" horiz-adv-x="1036" 
d="M270 0q-36 0 -60 24t-24 60v1206q0 36 22.5 60t57.5 24q34 0 57 -24.5t23 -59.5v-1147h576q32 0 52.5 -20t20.5 -51q0 -30 -20.5 -51t-52.5 -21h-652z" />
    <glyph glyph-name="M" unicode="M" horiz-adv-x="1613" 
d="M1354 1374q32 0 52.5 -23.5t20.5 -58.5v-1233q0 -34 -22 -58t-57 -24q-34 0 -57 24t-23 58v971l-375 -586q-37 -57 -86 -57t-86 57l-375 586v-971q0 -34 -23 -58t-57 -24q-35 0 -57.5 24t-22.5 58v1233q0 35 21 58.5t53 23.5q28 0 47.5 -14.5t44.5 -54.5l455 -707
l453 707q26 40 46 54.5t48 14.5z" />
    <glyph glyph-name="N" unicode="N" horiz-adv-x="1449" 
d="M1184 1374q35 0 57.5 -24t22.5 -60v-1235q0 -31 -22.5 -54.5t-55.5 -23.5q-40 0 -70 41l-770 1033v-990q0 -35 -23 -59.5t-57 -24.5q-35 0 -57.5 24t-22.5 60v1235q0 31 23.5 54.5t56.5 23.5q37 0 76 -53l764 -1020l-2 989q0 35 23 59.5t57 24.5z" />
    <glyph glyph-name="O" unicode="O" horiz-adv-x="1599" 
d="M799 1374q145 0 275 -55t223.5 -148t148.5 -222.5t55 -272.5q0 -192 -93 -352.5t-254.5 -253.5t-354.5 -93q-145 0 -275 54.5t-223.5 148t-148 223t-54.5 273.5t54.5 273.5t148 222.5t223.5 147.5t275 54.5zM801 1227q-230 0 -383.5 -156.5t-153.5 -392.5
q0 -238 153.5 -395.5t383.5 -157.5q150 0 272.5 72t192 199t69.5 282q0 154 -69.5 280t-192 197.5t-272.5 71.5z" />
    <glyph glyph-name="P" unicode="P" horiz-adv-x="1173" 
d="M266 -23q-35 0 -57.5 24t-22.5 60v1207q0 36 24 60t60 24h392q193 0 312.5 -108t119.5 -283q0 -177 -119.5 -286.5t-312.5 -109.5h-316v-504q0 -35 -23 -59.5t-57 -24.5zM346 709h311q126 0 198.5 66t72.5 183q0 116 -72.5 183t-198.5 67h-311v-499z" />
    <glyph glyph-name="Q" unicode="Q" horiz-adv-x="1599" 
d="M2064 -272q35 0 54.5 -17t19.5 -47q0 -55 -74 -67q-73 -13 -151 -13q-263 0 -478 112.5t-370 332.5q-129 -52 -266 -52q-145 0 -275 54.5t-223.5 148t-148 223t-54.5 273.5t54.5 273.5t148 222.5t223.5 147.5t275 54.5t275 -55t223.5 -148t148.5 -222.5t55 -272.5
q0 -178 -82 -331t-223 -249q145 -191 326 -283t411 -92q27 0 72.5 3.5t58.5 3.5zM264 678q0 -236 153.5 -394.5t383.5 -158.5q228 0 381 158t153 393q0 236 -153 393.5t-383 157.5q-229 0 -382 -156.5t-153 -392.5z" />
    <glyph glyph-name="R" unicode="R" horiz-adv-x="1273" 
d="M1180 111q26 -33 26 -62q0 -30 -22 -51t-54 -21q-35 0 -69 43l-408 547h-307v-508q0 -34 -23 -58t-57 -24q-35 0 -57.5 24t-22.5 58v1211q0 34 23.5 58t58.5 24h394q193 0 312.5 -108t119.5 -283q0 -134 -72 -231.5t-197 -137.5zM346 1208v-497h309q128 0 200.5 66
t72.5 181q0 114 -73.5 182t-199.5 68h-309z" />
    <glyph glyph-name="S" unicode="S" horiz-adv-x="1142" 
d="M582 -23q-131 0 -254.5 62.5t-202.5 169.5q-19 22 -19 49q0 31 22.5 52.5t53.5 21.5q37 0 62 -31q138 -176 336 -176q122 0 197 62.5t75 162.5q0 75 -47.5 126t-177.5 112l-152 71q-161 76 -233 162.5t-72 200.5q0 152 116.5 252t291.5 100q226 0 372 -162q29 -32 29 -65
q0 -28 -23.5 -50t-52.5 -22q-28 0 -55 27q-113 125 -273 125q-107 0 -173 -54t-66 -143q0 -72 43.5 -118t173.5 -109l149 -72q170 -82 243 -169t73 -208q0 -166 -121.5 -271.5t-314.5 -105.5z" />
    <glyph glyph-name="T" unicode="T" horiz-adv-x="1189" 
d="M594 -23q-34 0 -57 24.5t-23 59.5v1147h-408q-32 0 -53.5 20.5t-21.5 51.5q0 30 21.5 51t53.5 21h979q31 0 52.5 -21.5t21.5 -50.5q0 -31 -21.5 -51.5t-52.5 -20.5h-411v-1147q0 -36 -22.5 -60t-57.5 -24z" />
    <glyph glyph-name="U" unicode="U" horiz-adv-x="1411" 
d="M707 -23q-247 0 -393 151.5t-146 408.5v753q0 35 23 59.5t57 24.5q35 0 57.5 -24t22.5 -60v-764q0 -186 102 -293.5t277 -107.5q173 0 273.5 107.5t100.5 293.5v764q0 35 23 59.5t57 24.5q35 0 57.5 -24t22.5 -60v-753q0 -255 -145.5 -407.5t-388.5 -152.5z" />
    <glyph glyph-name="V" unicode="V" horiz-adv-x="1359" 
d="M1210 1374q31 0 54.5 -23.5t23.5 -54.5q0 -23 -14 -51l-518 -1212q-24 -56 -76 -56t-76 56l-518 1212q-12 30 -12 51q0 32 23 55t55 23q53 0 75 -53l453 -1106l453 1106q26 53 77 53z" />
    <glyph glyph-name="W" unicode="W" horiz-adv-x="2183" 
d="M1991 1374q36 0 58 -23t22 -57q0 -19 -11 -51l-436 -1212q-20 -54 -76 -54q-55 0 -75 54l-381 1079l-379 -1079q-20 -54 -76 -54q-28 0 -48 14.5t-28 39.5l-440 1212q-10 29 -10 51q0 34 22 57t57 23q55 0 76 -53l373 -1057l377 1055q9 25 29.5 40t46.5 15q55 0 75 -55
l377 -1053l371 1055q9 24 29.5 38.5t46.5 14.5z" />
    <glyph glyph-name="X" unicode="X" horiz-adv-x="1226" 
d="M1116 111q23 -29 23 -56q0 -32 -23 -55t-55 -23q-39 0 -62 33l-385 551l-385 -551q-23 -33 -63 -33q-32 0 -55 23t-23 55q0 27 23 56l413 583l-381 547q-22 28 -22 55q0 32 23 55t55 23q40 0 63 -33l352 -516l355 516q20 33 61 33q32 0 55 -23t23 -55q0 -26 -23 -55
l-378 -547z" />
    <glyph glyph-name="Y" unicode="Y" horiz-adv-x="1263" 
d="M1171 1296q0 -26 -20 -59l-440 -715v-461q0 -35 -23 -59.5t-57 -24.5q-35 0 -57.5 24t-22.5 60v465l-436 711q-23 36 -23 61q0 32 23.5 54t58.5 22q26 0 43.5 -10.5t34.5 -36.5l381 -627l381 627q18 26 34.5 36.5t43.5 10.5q34 0 56.5 -23t22.5 -55z" />
    <glyph glyph-name="Z" unicode="Z" horiz-adv-x="1206" 
d="M1071 143q31 0 52.5 -20.5t21.5 -50.5q0 -29 -21.5 -50.5t-52.5 -21.5h-930q-32 0 -53.5 21t-21.5 51q0 16 26 55l821 1081h-692q-32 0 -53 20.5t-21 51.5q0 30 21 51t53 21h840q31 0 52.5 -21.5t21.5 -50.5q0 -22 -25 -53l-823 -1084h784z" />
    <glyph glyph-name="bracketleft" unicode="[" horiz-adv-x="702" 
d="M532 1493q32 0 53 -20t21 -50q0 -31 -21 -50t-53 -19h-172v-1479h172q32 0 53 -20.5t21 -51.5q0 -30 -21 -50.5t-53 -20.5h-249q-32 0 -54 21t-22 52v1614q0 31 22 52.5t54 21.5h249z" />
    <glyph glyph-name="backslash" unicode="\" horiz-adv-x="1261" 
d="M1137 -272q-50 0 -74 39l-1004 1710q-14 21 -14 45q0 32 23.5 54.5t54.5 22.5q51 0 74 -38l1005 -1711q12 -24 12 -45q0 -32 -22.5 -54.5t-54.5 -22.5z" />
    <glyph glyph-name="bracketright" unicode="]" horiz-adv-x="702" 
d="M420 1493q32 0 53 -21.5t21 -52.5v-1614q0 -31 -21 -52t-53 -21h-244q-31 0 -52.5 21t-21.5 50q0 31 21.5 51.5t52.5 20.5h166v1479h-166q-31 0 -52.5 19.5t-21.5 49.5q0 29 21.5 49.5t52.5 20.5h244z" />
    <glyph glyph-name="asciicircum" unicode="^" horiz-adv-x="1046" 
d="M225 582q-32 0 -56 24t-24 56q0 13 13 43l291 614q22 53 75 53q50 0 76 -53l289 -614q12 -28 12 -43q0 -32 -24 -56t-56 -24q-47 0 -71 49l-226 475l-227 -475q-21 -49 -72 -49z" />
    <glyph glyph-name="underscore" unicode="_" horiz-adv-x="1036" 
d="M885 -154q31 0 50 -19t19 -48q0 -28 -19.5 -47t-49.5 -19h-733q-31 0 -51.5 19t-20.5 47q0 29 20.5 48t51.5 19h733z" />
    <glyph glyph-name="grave" unicode="`" horiz-adv-x="489" 
d="M309 1157q-36 0 -63 45l-146 275q-12 24 -12 43q0 33 24 56t54 23q56 0 76 -49l129 -288q10 -20 10 -37q0 -29 -20.5 -48.5t-51.5 -19.5z" />
    <glyph glyph-name="a" unicode="a" horiz-adv-x="1081" 
d="M532 1020q182 0 286 -108t104 -298v-555q0 -35 -22.5 -58.5t-55.5 -23.5q-34 0 -57 24t-23 58v58q-118 -140 -326 -140q-157 0 -252.5 77.5t-95.5 203.5t98 202.5t261 76.5h315v86q0 121 -63 186t-179 65q-144 0 -250 -112q-31 -31 -61 -31q-29 0 -50.5 20.5t-21.5 45.5
q0 34 29 67q64 75 159.5 115.5t204.5 40.5zM459 109q126 0 215.5 80t89.5 194v25h-297q-106 0 -160.5 -36.5t-54.5 -107.5q0 -70 56.5 -112.5t150.5 -42.5z" />
    <glyph glyph-name="b" unicode="b" horiz-adv-x="1294" 
d="M698 1020q212 0 353 -149t141 -373q0 -146 -64 -265.5t-177 -187.5t-251 -68q-115 0 -211.5 45t-156.5 123v-86q0 -35 -22.5 -58.5t-55.5 -23.5q-35 0 -57.5 24t-22.5 58v1418q0 34 22.5 58t57.5 24q33 0 55.5 -23.5t22.5 -58.5v-627q59 79 155.5 124.5t210.5 45.5z
M676 123q154 0 254 107t100 270q0 162 -100.5 268t-253.5 106q-156 0 -251 -103.5t-95 -272.5q0 -167 95.5 -271t250.5 -104z" />
    <glyph glyph-name="c" unicode="c" horiz-adv-x="1128" 
d="M625 -23q-218 0 -370.5 152.5t-152.5 370.5q0 143 69.5 262.5t190 188.5t263.5 69q131 0 236 -56.5t169 -152.5q14 -21 14 -43q0 -29 -21 -50.5t-50 -21.5q-35 0 -58 29q-121 149 -288 149q-154 0 -258.5 -107.5t-104.5 -266.5q0 -161 104 -269t259 -108q167 0 288 149
q23 27 56 27q31 0 52 -20.5t21 -51.5q0 -22 -14 -43q-66 -95 -170.5 -151t-234.5 -56z" />
    <glyph glyph-name="d" unicode="d" horiz-adv-x="1294" 
d="M1044 1559q33 0 55.5 -23.5t22.5 -58.5v-1418q0 -35 -22.5 -58.5t-55.5 -23.5q-35 0 -57 24t-22 58v88q-60 -79 -156 -124.5t-213 -45.5q-139 0 -252 68t-177.5 187.5t-64.5 265.5q0 224 141.5 373t352.5 149q115 0 212 -46.5t157 -125.5v629q0 34 22 58t57 24zM618 123
q155 0 252 104t97 271t-97 271.5t-252 104.5q-153 0 -253.5 -106t-100.5 -268q0 -163 100 -270t254 -107z" />
    <glyph glyph-name="e" unicode="e" horiz-adv-x="1169" 
d="M612 1020q198 0 326.5 -130t128.5 -331v-10q0 -98 -96 -98h-705q15 -148 115.5 -238t251.5 -90q147 0 260 96q26 23 53 23q30 0 50 -20t20 -50q0 -36 -39 -72q-147 -123 -346 -123q-227 0 -378 149t-151 372q0 144 67.5 264t185 189t257.5 69zM608 877q-126 0 -218 -79
t-118 -208h633q-3 127 -85 207t-212 80z" />
    <glyph glyph-name="f" unicode="f" horiz-adv-x="620" 
d="M539 1415q-90 0 -136.5 -48.5t-46.5 -141.5v-228h197q31 0 51.5 -20t20.5 -49q0 -31 -20.5 -51.5t-51.5 -20.5h-197v-797q0 -35 -21.5 -58.5t-55.5 -23.5t-57 24t-23 58v797h-90q-31 0 -51.5 20.5t-20.5 51.5q0 29 20.5 49t51.5 20h90v238q0 152 84 238t235 86
q56 0 100 -15q56 -15 56 -71q0 -28 -19 -45t-51 -17q-8 0 -28.5 2t-36.5 2z" />
    <glyph glyph-name="g" unicode="g" horiz-adv-x="1304" 
d="M1055 1018q33 0 55.5 -23.5t22.5 -58.5v-840q0 -226 -130.5 -356.5t-355.5 -130.5q-121 0 -234.5 41.5t-201.5 118.5q-25 25 -25 57q0 31 21 52.5t53 21.5q25 0 45 -17q169 -129 338 -129q158 0 245 87t87 247v88q-59 -78 -156.5 -122t-214.5 -44q-211 0 -350 143
t-139 361t139 362t350 144q116 0 213.5 -46t157.5 -126v88q0 35 22.5 58.5t57.5 23.5zM629 156q157 0 252.5 98.5t95.5 259.5q0 160 -95.5 258t-252.5 98q-154 0 -254.5 -101t-100.5 -257q0 -155 100 -255.5t255 -100.5z" />
    <glyph glyph-name="h" unicode="h" horiz-adv-x="1159" 
d="M631 1020q169 0 268.5 -106.5t99.5 -286.5v-568q0 -35 -22.5 -58.5t-54.5 -23.5q-35 0 -57.5 24t-22.5 58v547q0 121 -68.5 194.5t-179.5 73.5q-115 0 -188.5 -75.5t-73.5 -192.5v-547q0 -35 -22.5 -58.5t-55.5 -23.5q-35 0 -57.5 24t-22.5 58v1418q0 34 22.5 58t57.5 24
q33 0 55.5 -23.5t22.5 -58.5v-592q107 135 299 135z" />
    <glyph glyph-name="i" unicode="i" horiz-adv-x="503" 
d="M254 1491q46 0 80.5 -33.5t34.5 -79.5q0 -47 -34.5 -79.5t-80.5 -32.5q-48 0 -82.5 32.5t-34.5 79.5q0 46 35 79.5t82 33.5zM250 -23q-33 0 -54.5 24t-21.5 58v879q0 34 22.5 58t57.5 24q33 0 55.5 -24t22.5 -58v-879q0 -34 -24 -58t-58 -24z" />
    <glyph glyph-name="j" unicode="j" horiz-adv-x="503" 
d="M254 1491q46 0 80.5 -33.5t34.5 -79.5q0 -47 -34.5 -79.5t-80.5 -32.5q-48 0 -82.5 32.5t-34.5 79.5q0 46 35 79.5t82 33.5zM2 -391q-38 0 -76 6q-30 5 -50.5 25t-20.5 47q0 29 20 48t51 19q7 0 24.5 -1t29.5 -1q194 0 194 191v995q0 34 22.5 58t57.5 24q33 0 55.5 -23.5
t22.5 -58.5v-1006q0 -163 -89.5 -243t-240.5 -80z" />
    <glyph glyph-name="k" unicode="k" horiz-adv-x="1036" 
d="M254 1559q33 0 55.5 -23.5t22.5 -58.5v-1418q0 -35 -22.5 -58.5t-55.5 -23.5q-35 0 -57.5 24t-22.5 58v1418q0 34 22.5 58t57.5 24zM973 109q24 -21 24 -56q0 -32 -22.5 -54t-54.5 -22q-36 0 -68 37l-444 486q-23 23 -23 57t23 57l399 381q25 25 59 25q32 0 55 -21.5
t23 -50.5q0 -33 -35 -65l-348 -324z" />
    <glyph glyph-name="l" unicode="l" horiz-adv-x="503" 
d="M254 -23q-35 0 -57.5 24t-22.5 58v1418q0 34 22.5 58t57.5 24q33 0 55.5 -24t22.5 -58v-1418q0 -34 -22.5 -58t-55.5 -24z" />
    <glyph glyph-name="m" unicode="m" horiz-adv-x="1789" 
d="M1268 1020q167 0 264.5 -105.5t97.5 -287.5v-568q0 -35 -22.5 -58.5t-55.5 -23.5q-35 0 -57 24t-22 58v547q0 123 -64 195.5t-172 72.5q-110 0 -183 -72.5t-73 -180.5v-562q0 -35 -22.5 -58.5t-55.5 -23.5q-35 0 -57.5 24t-22.5 58v547q0 121 -65 194.5t-172 73.5
q-114 0 -184 -74.5t-70 -193.5v-547q0 -35 -22.5 -58.5t-55.5 -23.5q-35 0 -57.5 24t-22.5 58v879q0 34 22.5 58t57.5 24q32 0 55 -24t23 -58v-33q112 115 286 115q106 0 185.5 -44.5t122.5 -127.5q56 80 146 126t196 46z" />
    <glyph glyph-name="n" unicode="n" horiz-adv-x="1159" 
d="M629 1020q170 0 270 -106.5t100 -286.5v-568q0 -35 -22.5 -58.5t-54.5 -23.5q-35 0 -57.5 24t-22.5 58v549q0 121 -68.5 193.5t-179.5 72.5q-115 0 -188.5 -74.5t-73.5 -191.5v-549q0 -35 -22.5 -58.5t-55.5 -23.5q-35 0 -57.5 24t-22.5 58v879q0 34 22.5 58t57.5 24
q32 0 55 -24t23 -58v-37q116 119 297 119z" />
    <glyph glyph-name="o" unicode="o" horiz-adv-x="1249" 
d="M625 1020q218 0 370 -151t152 -369q0 -217 -152.5 -368.5t-371.5 -151.5q-143 1 -263 70t-189 188.5t-69 261.5q0 219 151.5 369.5t371.5 150.5zM625 874q-155 0 -258.5 -107.5t-102.5 -268.5q0 -160 102.5 -266.5t256.5 -106.5t258 107.5t104 265.5q0 161 -103 268.5
t-257 107.5z" />
    <glyph glyph-name="p" unicode="p" horiz-adv-x="1294" 
d="M698 1020q212 0 353 -148.5t141 -371.5q0 -224 -141 -373.5t-353 -149.5q-114 0 -210.5 45t-155.5 123v-456q0 -35 -22.5 -58.5t-55.5 -23.5q-35 0 -57.5 24t-22.5 58v1253q0 34 22.5 57t57.5 23q32 0 55 -23t23 -57v-90q60 78 155.5 123t210.5 45zM676 123
q153 0 253.5 106.5t100.5 268.5q0 163 -100 269.5t-254 106.5q-155 0 -250.5 -103.5t-95.5 -270.5q0 -169 95 -273t251 -104z" />
    <glyph glyph-name="q" unicode="q" horiz-adv-x="1294" 
d="M1044 1020q32 0 55 -24t23 -58v-1249q0 -35 -22.5 -58.5t-55.5 -23.5q-35 0 -57 24t-22 58v458q-59 -79 -156 -124.5t-213 -45.5q-211 0 -352.5 149.5t-141.5 373.5q0 223 141.5 371.5t352.5 148.5q117 0 213 -45.5t156 -124.5v88q0 34 22 58t57 24zM618 123
q155 0 252 105t97 272t-97 270.5t-252 103.5q-152 0 -253 -106.5t-101 -269.5q0 -162 100.5 -268.5t253.5 -106.5z" />
    <glyph glyph-name="r" unicode="r" horiz-adv-x="741" 
d="M643 1006q34 0 57 -21t23 -53q0 -33 -23 -53.5t-57 -20.5q-135 0 -223 -83.5t-88 -211.5v-504q0 -35 -22.5 -58.5t-55.5 -23.5q-35 0 -57.5 24t-22.5 58v879q0 34 22.5 58t57.5 24q32 0 55 -24t23 -58v-74q56 67 136.5 104.5t174.5 37.5z" />
    <glyph glyph-name="s" unicode="s" horiz-adv-x="929" 
d="M469 -23q-114 0 -207.5 45.5t-159.5 122.5q-20 23 -20 52q0 30 22.5 51.5t53.5 21.5q30 0 55 -22q122 -125 254 -125q81 0 135.5 38t54.5 103q0 31 -11.5 54.5t-39.5 43t-52.5 31.5t-70.5 31l-96 41q-125 52 -186.5 113.5t-61.5 162.5q0 130 96.5 204.5t239.5 74.5
q196 0 316 -137q20 -23 20 -52q0 -28 -20.5 -48.5t-49.5 -20.5q-23 0 -59 31q-95 81 -215 81q-73 0 -119.5 -32.5t-46.5 -91.5q0 -49 36.5 -79.5t125.5 -66.5l92 -39q140 -59 202 -125.5t62 -169.5q0 -139 -101.5 -216t-248.5 -77z" />
    <glyph glyph-name="t" unicode="t" horiz-adv-x="780" 
d="M668 125q32 0 51.5 -17t19.5 -45q0 -56 -57 -71q-50 -15 -129 -15q-163 0 -249.5 83.5t-86.5 240.5v555h-102q-31 0 -52.5 20.5t-21.5 51.5q0 29 21.5 49t52.5 20h102v211q0 34 23 58t57 24t56 -23.5t22 -58.5v-211h248q29 0 50 -20t21 -49q0 -30 -21 -51t-50 -21h-248
v-545q0 -98 51.5 -144t159.5 -46q19 0 45.5 2t36.5 2z" />
    <glyph glyph-name="u" unicode="u" 
d="M575 -23q-183 0 -298 117.5t-115 302.5v541q0 34 22.5 58t55.5 24q32 0 54.5 -24t22.5 -58v-551q0 -116 71.5 -190t186.5 -74q110 0 182 74.5t72 189.5v551q0 34 22.5 58t57.5 24q33 0 55.5 -23.5t22.5 -58.5v-541q0 -184 -116 -302t-296 -118z" />
    <glyph glyph-name="v" unicode="v" horiz-adv-x="1103" 
d="M973 1020q31 0 54.5 -23.5t23.5 -54.5q0 -18 -7 -35l-419 -880q-23 -50 -72 -50q-51 0 -74 50l-418 878q-6 18 -6 37q0 31 23 54.5t55 23.5q50 0 74 -49l346 -748l346 748q9 22 29 35.5t45 13.5z" />
    <glyph glyph-name="w" unicode="w" horiz-adv-x="1740" 
d="M1608 1020q32 0 55 -23.5t23 -54.5q0 -14 -7 -31l-372 -886q-7 -22 -27 -35t-45 -13q-22 0 -41.5 13t-28.5 35l-295 735l-297 -735q-7 -22 -26.5 -35t-42.5 -13t-43 13t-29 35l-371 886q-6 15 -6 31q0 31 23 54.5t55 23.5q23 0 43 -14t29 -37l303 -725l289 721
q20 55 73 55q25 0 45 -15t29 -40l287 -723l305 727q20 51 72 51z" />
    <glyph glyph-name="x" unicode="x" horiz-adv-x="1017" 
d="M911 104q19 -22 19 -51q0 -31 -23 -53.5t-55 -22.5q-39 0 -66 39l-276 373l-279 -373q-31 -39 -65 -39q-33 0 -55.5 22.5t-22.5 53.5q0 30 18 51l308 408l-277 371q-26 33 -26 61q0 31 22.5 53.5t54.5 22.5q39 0 66 -39l256 -348l258 348q24 39 66 39q32 0 54.5 -22.5
t22.5 -53.5q0 -28 -26 -61l-281 -371z" />
    <glyph glyph-name="y" unicode="y" horiz-adv-x="1103" 
d="M973 1020q31 0 54.5 -23.5t23.5 -54.5q0 -18 -7 -35l-477 -1018q-69 -147 -156 -213.5t-210 -66.5q-43 0 -80 6q-27 4 -44.5 24.5t-17.5 45.5q0 29 22 49t50 20q12 0 31 -1t26 -1q152 0 228 168l51 111l-391 874q-8 20 -8 37q0 31 23 54.5t54 23.5q25 0 46 -13.5
t28 -35.5l334 -750l346 750q7 22 28 35.5t46 13.5z" />
    <glyph glyph-name="z" unicode="z" horiz-adv-x="929" 
d="M811 139q31 0 51.5 -19.5t20.5 -49.5q0 -29 -20.5 -49.5t-51.5 -20.5h-682q-31 0 -52.5 20.5t-21.5 49.5q0 26 35 69l559 717h-481q-31 0 -51.5 20.5t-20.5 51.5q0 29 20.5 49t51.5 20h629q31 0 51 -20t20 -49q0 -25 -30 -68l-566 -721h539z" />
    <glyph glyph-name="braceleft" unicode="{" horiz-adv-x="813" 
d="M645 -129q31 0 51.5 -19.5t20.5 -50.5q0 -29 -20.5 -49t-51.5 -20h-65q-283 0 -283 272q0 73 26.5 227t26.5 193q0 119 -125 119h-53q-30 0 -51 20t-21 49q0 30 21 50t51 20h53q125 0 125 119q0 39 -26.5 193t-26.5 227q0 272 283 272h65q31 0 51.5 -20.5t20.5 -49.5
q0 -30 -20.5 -49.5t-51.5 -19.5h-37q-159 0 -159 -172q0 -56 25.5 -199t25.5 -197q0 -68 -26.5 -108t-82.5 -66q56 -26 82.5 -66t26.5 -108q0 -54 -25.5 -196t-25.5 -199q0 -172 159 -172h37z" />
    <glyph glyph-name="bar" unicode="|" horiz-adv-x="679" 
d="M340 1618q29 0 48.5 -20.5t19.5 -49.5v-1747q0 -29 -19.5 -49t-48.5 -20t-48.5 20t-19.5 49v1747q0 30 19 50t49 20z" />
    <glyph glyph-name="braceright" unicode="}" horiz-adv-x="813" 
d="M641 682q30 0 51 -20t21 -50q0 -29 -21 -49t-51 -20h-53q-125 0 -125 -119q0 -39 26.5 -193t26.5 -227q0 -272 -283 -272h-65q-31 0 -51.5 20t-20.5 49q0 31 20.5 50.5t51.5 19.5h37q160 0 160 172q0 57 -26 199t-26 196q0 68 26.5 108t82.5 66q-56 26 -82.5 66
t-26.5 108q0 54 26 197t26 199q0 172 -160 172h-37q-31 0 -51.5 19.5t-20.5 49.5q0 29 20.5 49.5t51.5 20.5h65q283 0 283 -272q0 -73 -26.5 -227t-26.5 -193q0 -119 125 -119h53z" />
    <glyph glyph-name="asciitilde" unicode="~" 
d="M786 489q-67 0 -147.5 33.5t-150.5 67t-109 33.5q-51 0 -79 -17t-40 -57q-20 -60 -70 -60q-29 0 -47 19t-18 49q0 90 68 151.5t167 61.5q64 0 146 -34t153 -67.5t109 -33.5q51 0 79 17t40 57q11 31 26.5 45t42.5 14q29 0 47.5 -19.5t18.5 -48.5q0 -89 -68 -150t-168 -61z
" />
    <glyph glyph-name="exclamdown" unicode="&#xa1;" horiz-adv-x="624" 
d="M311 762q-53 0 -91 37.5t-38 91.5t38 91.5t91 37.5t91 -37.5t38 -91.5t-38 -91.5t-91 -37.5zM311 -393q-41 0 -66.5 27.5t-23.5 70.5l12 819q0 33 22.5 55.5t55.5 22.5q34 0 56 -22t22 -56l12 -819q0 -43 -25 -70.5t-65 -27.5z" />
    <glyph glyph-name="cent" unicode="&#xa2;" horiz-adv-x="1134" 
d="M920 442q29 0 50 -21t21 -50q0 -31 -20 -54q-128 -146 -322 -165v-285q0 -35 -22.5 -58.5t-55.5 -23.5t-56 24t-23 58v293q-182 36 -300 179t-118 333t118 332t300 178v295q0 34 23 58t56 24t55.5 -23.5t22.5 -58.5v-287q201 -19 322 -168q20 -23 20 -51q0 -29 -21 -50.5
t-50 -21.5q-31 0 -58 27q-87 101 -213 116v-743q128 19 213 117q26 26 58 26zM236 672q0 -131 70.5 -230t185.5 -133v721q-114 -34 -185 -131.5t-71 -226.5z" />
    <glyph glyph-name="sterling" unicode="&#xa3;" horiz-adv-x="1083" 
d="M926 139q31 0 51 -19t20 -50q0 -30 -20.5 -50t-50.5 -20h-731q-33 0 -55.5 23.5t-22.5 56.5q0 44 39 67q113 67 145 94q81 67 87 169q1 11 1 22q0 34 -6 68h-180q-31 0 -51.5 19.5t-20.5 49.5q0 29 20.5 49.5t51.5 20.5h131q-12 25 -43 84t-46.5 93.5t-30.5 90.5t-15 109
q0 160 110 259t281 99q138 0 240.5 -67t154.5 -191q12 -30 12 -57q0 -28 -22.5 -50t-52.5 -22q-56 0 -76 51q-77 189 -248 189q-110 0 -173 -67t-63 -169q0 -58 20 -113t61.5 -130t56.5 -109h264q29 0 50.5 -20.5t21.5 -49.5q0 -30 -21 -49.5t-51 -19.5h-219q4 -40 4 -66
q0 -87 -46 -165.5t-126 -129.5h549z" />
    <glyph glyph-name="currency" unicode="&#xa4;" horiz-adv-x="1318" 
d="M1036 393l185 -184q24 -24 24 -51t-20 -47.5t-47 -20.5q-29 0 -52 23l-188 188q-128 -88 -283 -88q-149 0 -276 86l-186 -186q-23 -23 -52 -23q-27 0 -47 20t-20 48q0 29 22 51l183 186q-95 126 -95 281q0 158 97 282l-185 187q-22 22 -22 49q0 28 20 49t47 21
q29 0 52 -23l186 -188q122 86 278 86q151 0 281 -86l188 188q23 23 52 23q27 0 47 -20.5t20 -49.5q0 -27 -22 -49l-187 -187q99 -127 99 -282q0 -156 -99 -283zM655 358q136 0 227 91t91 225q0 137 -91 229t-225 92t-222.5 -92t-88.5 -229q0 -134 88 -225t221 -91z" />
    <glyph glyph-name="yen" unicode="&#xa5;" horiz-adv-x="1130" 
d="M1085 1300q0 -24 -18 -51l-379 -512h295q30 0 51 -20t21 -49q0 -30 -21 -50t-51 -20h-336v-188h336q30 0 51 -21t21 -51q0 -29 -21.5 -49.5t-50.5 -20.5h-336v-209q0 -34 -22.5 -58t-57.5 -24q-34 0 -57 24t-23 58v209h-333q-31 0 -51.5 20.5t-20.5 49.5q0 31 20.5 51.5
t51.5 20.5h333v188h-333q-31 0 -51.5 19.5t-20.5 50.5q0 29 20.5 49t51.5 20h290l-374 512q-19 29 -19 51q0 30 22 52t54 22q35 0 63 -39l377 -516l377 516q28 39 66 39q30 0 52.5 -22t22.5 -52z" />
    <glyph glyph-name="brokenbar" unicode="&#xa6;" horiz-adv-x="679" 
d="M340 1618q29 0 48.5 -20.5t19.5 -49.5v-516q0 -29 -19.5 -49t-48.5 -20t-48.5 20t-19.5 49v516q0 30 19 50t49 20zM340 387q29 0 48.5 -20.5t19.5 -49.5v-516q0 -29 -19.5 -49t-48.5 -20t-48.5 20t-19.5 49v516q0 30 19 50t49 20z" />
    <glyph glyph-name="section" unicode="&#xa7;" horiz-adv-x="1185" 
d="M1112 336q0 -102 -68 -171t-188 -89q2 -8 2 -27q0 -129 -92 -211t-238 -82q-171 0 -305 131q-25 25 -28 58q-3 35 24 59q25 22 55.5 19.5t55.5 -27.5q51 -49 97.5 -70.5t102.5 -21.5q77 0 121.5 37.5t44.5 101.5q0 60 -36.5 109.5t-157.5 150.5l-217 178
q-117 96 -165 169t-48 153q0 102 68 170t188 88q-2 10 -2 29q0 128 92.5 209t238.5 81q175 0 306 -131q28 -28 28 -61q0 -34 -24 -55q-26 -20 -56.5 -17.5t-56.5 25.5q-51 51 -97 72.5t-102 21.5q-76 0 -122 -38t-46 -101q0 -61 37 -109.5t160 -150.5l215 -181
q118 -96 165.5 -167.5t47.5 -151.5zM815 201q72 20 104.5 52.5t32.5 84.5q0 46 -28.5 83t-128.5 120l-217 180q-156 129 -209 215q-72 -21 -104 -52.5t-32 -84.5q0 -46 29 -82.5t129 -120.5l215 -178q159 -131 209 -217z" />
    <glyph glyph-name="dieresis" unicode="&#xa8;" horiz-adv-x="780" 
d="M174 1489q47 0 80 -32.5t33 -78.5q0 -44 -33 -76t-80 -32q-44 0 -78.5 32.5t-34.5 75.5q0 44 34.5 77.5t78.5 33.5zM606 1489q47 0 80 -32.5t33 -78.5q0 -44 -33 -76t-80 -32q-44 0 -78 32.5t-34 75.5q0 44 34 77.5t78 33.5z" />
    <glyph glyph-name="copyright" unicode="&#xa9;" horiz-adv-x="1599" 
d="M799 -23q-191 0 -352.5 93t-255 254t-93.5 352q0 143 55 272.5t149 222.5t224 148t273 55q144 0 274 -55t224 -148.5t149 -222.5t55 -272t-55 -272t-149 -223t-224 -149t-274 -55zM799 90q162 0 294.5 76.5t208.5 211t76 298.5t-75.5 298t-208 211t-295.5 77
q-161 0 -293.5 -76.5t-208.5 -211t-76 -298.5t76 -298.5t208.5 -211t293.5 -76.5zM819 285q-164 0 -277.5 113.5t-113.5 277.5t113.5 277.5t277.5 113.5q77 0 149.5 -30t116.5 -81q33 -41 33 -69t-16 -46t-43 -18q-32 0 -55 29q-76 82 -183 82q-104 0 -175 -74.5t-71 -183.5
t71 -183.5t175 -74.5q107 0 183 82q22 28 55 28q27 0 43 -17t16 -44q0 -31 -33 -72q-42 -50 -115.5 -80t-150.5 -30z" />
    <glyph glyph-name="ordfeminine" unicode="&#xaa;" horiz-adv-x="745" 
d="M367 1147q121 0 189.5 -69.5t68.5 -192.5v-330q0 -29 -19.5 -49.5t-48.5 -20.5q-28 0 -47.5 19.5t-20.5 48.5q-71 -68 -186 -68q-100 0 -159.5 51t-59.5 136t62 133.5t169 48.5h174v39q0 64 -35.5 98.5t-101.5 34.5q-71 0 -135 -53q-18 -12 -41 -12q-26 0 -43.5 16.5
t-17.5 42.5q0 28 32 53q103 74 220 74zM336 594q67 0 110 39.5t43 101.5v21h-153q-52 0 -81.5 -21.5t-29.5 -58.5q0 -38 30 -60t81 -22z" />
    <glyph glyph-name="guillemotleft" unicode="&#xab;" horiz-adv-x="1021" 
d="M453 172q-41 0 -68 31l-281 299q-24 24 -24 53t24 53l281 299q31 31 68 31q26 0 45.5 -20.5t19.5 -49.5q0 -28 -26 -57l-236 -256l236 -256q26 -29 26 -57q0 -29 -19.5 -49.5t-45.5 -20.5zM858 172q-40 0 -67 31l-281 299q-25 25 -25 53t25 53l281 299q31 31 67 31
q27 0 46.5 -20.5t19.5 -49.5q0 -27 -27 -57l-235 -256l235 -256q27 -30 27 -57q0 -29 -19.5 -49.5t-46.5 -20.5z" />
    <glyph glyph-name="logicalnot" unicode="&#xac;" 
d="M891 188q-35 0 -57.5 23.5t-22.5 58.5v305h-633q-31 0 -51.5 19.5t-20.5 50.5q0 29 20.5 49.5t51.5 20.5h717q31 0 52.5 -21.5t21.5 -50.5v-373q0 -35 -22 -58.5t-56 -23.5z" />
    <glyph glyph-name="uni00AD" unicode="&#xad;" horiz-adv-x="708" 
d="M537 711q30 0 49.5 -19t19.5 -47q0 -29 -19 -48t-50 -19h-365q-31 0 -51.5 19t-20.5 48q0 28 20.5 47t51.5 19h365z" />
    <glyph glyph-name="registered" unicode="&#xae;" horiz-adv-x="1167" 
d="M586 1399q134 0 247.5 -68t179.5 -185t66 -255q0 -137 -66 -253.5t-179.5 -184.5t-247.5 -68t-248.5 68t-182 184.5t-67.5 253.5q0 138 67.5 255t182 185t248.5 68zM586 487q164 0 277.5 118t113.5 288q0 169 -113.5 286t-277.5 117t-277.5 -117t-113.5 -286
q0 -170 113.5 -288t277.5 -118zM702 836l84 -103q19 -22 19 -45q0 -25 -17 -42t-40 -17q-31 0 -54 26l-127 152h-61v-117q0 -26 -16.5 -43.5t-40.5 -17.5q-26 0 -44 18t-18 43v397q0 25 19 43.5t45 18.5h143q84 0 136 -47.5t52 -124.5q0 -45 -21.5 -82t-58.5 -59zM506 1044
v-135h86q30 0 50 19t20 47q0 31 -19.5 50t-50.5 19h-86z" />
    <glyph glyph-name="macron" unicode="&#xaf;" horiz-adv-x="686" 
d="M565 1442q29 0 48.5 -18.5t19.5 -45.5q0 -28 -19.5 -46.5t-48.5 -18.5h-444q-29 0 -48.5 18.5t-19.5 46.5q0 27 19.5 45.5t48.5 18.5h444z" />
    <glyph glyph-name="degree" unicode="&#xb0;" horiz-adv-x="737" 
d="M369 1374q127 0 216 -88t89 -213q0 -126 -88.5 -213.5t-216.5 -87.5t-217 87.5t-89 213.5q0 125 89.5 213t216.5 88zM369 1249q-72 0 -122 -51t-50 -125t50 -125t122 -51q74 0 124 51t50 125q0 75 -50 125.5t-124 50.5z" />
    <glyph glyph-name="plusminus" unicode="&#xb1;" 
d="M573 299q-33 0 -55 22.5t-22 57.5v256h-295q-31 0 -51.5 20.5t-20.5 49.5q0 30 20.5 49.5t51.5 19.5h295v252q0 34 22.5 57t54.5 23t55 -23t23 -57v-252h295q31 0 51.5 -19.5t20.5 -49.5q0 -29 -20.5 -49.5t-51.5 -20.5h-295v-256q0 -35 -22.5 -57.5t-55.5 -22.5zM201 0
q-31 0 -51.5 20.5t-20.5 49.5q0 30 20.5 49.5t51.5 19.5h745q31 0 51.5 -19.5t20.5 -49.5q0 -29 -20.5 -49.5t-51.5 -20.5h-745z" />
    <glyph glyph-name="uni00B2" unicode="&#xb2;" horiz-adv-x="755" 
d="M616 868q28 0 46 -17.5t18 -43.5t-18 -44t-46 -18h-485q-24 0 -41.5 18.5t-17.5 43.5q0 26 26 49l273 246q75 68 107 121.5t32 113.5q0 64 -41.5 107t-103.5 43q-65 0 -104.5 -43t-39.5 -113v-18q0 -29 -19.5 -48.5t-47.5 -19.5q-72 0 -72 94q0 116 81.5 194.5
t201.5 78.5q121 0 199.5 -77t78.5 -196q0 -80 -43.5 -154t-142.5 -163l-168 -154h327z" />
    <glyph glyph-name="uni00B3" unicode="&#xb3;" horiz-adv-x="724" 
d="M406 1284q102 -14 169.5 -87.5t67.5 -176.5q0 -124 -88 -206.5t-219 -82.5q-82 0 -152 35t-116 98q-15 21 -15 41q0 25 18.5 43.5t43.5 18.5q30 0 51 -27q72 -84 166 -84q77 0 124.5 45.5t47.5 118.5q0 71 -50 110t-145 39h-22q-26 0 -44 18.5t-18 43.5q0 23 17 43
l196 201h-282q-28 0 -47 18.5t-19 44.5q0 25 19 42t47 17h407q26 0 44 -17t18 -42q0 -21 -23 -51z" />
    <glyph glyph-name="acute" unicode="&#xb4;" horiz-adv-x="491" 
d="M180 1157q-31 0 -51 19.5t-20 48.5q0 17 10 37l129 288q20 49 76 49q30 0 53.5 -23t23.5 -56q0 -19 -12 -43l-145 -275q-27 -45 -64 -45z" />
    <glyph glyph-name="uni00B5" unicode="&#xb5;" horiz-adv-x="1212" 
d="M1118 127q31 0 51.5 -18.5t20.5 -47.5q0 -28 -19 -48t-47 -23q-58 -4 -61 -4q-143 0 -193 123q-46 -62 -117.5 -97t-156.5 -35q-168 0 -264 119v-405q0 -35 -22.5 -58.5t-55.5 -23.5q-35 0 -57.5 24t-22.5 58v1247q0 34 22.5 58t57.5 24q32 0 55 -24t23 -58v-537
q0 -122 71 -200t183 -78t184 78t72 200v537q0 34 22.5 58t57.5 24q32 0 54.5 -23.5t22.5 -58.5v-659q0 -77 28 -114.5t87 -37.5h4z" />
    <glyph glyph-name="paragraph" unicode="&#xb6;" horiz-adv-x="1155" 
d="M893 1352q33 0 55.5 -24t22.5 -58v-1321q0 -175 -90.5 -257.5t-249.5 -82.5q-59 0 -99 8q-83 14 -83 76q0 32 20 51.5t51 19.5q11 0 40.5 -5t60.5 -5q192 0 192 207v522h-246q-210 0 -348.5 121t-138.5 316q0 196 137 314t350 118h326z" />
    <glyph glyph-name="periodcentered" unicode="&#xb7;" horiz-adv-x="552" 
d="M276 514q-53 0 -91 37.5t-38 91.5t38 91.5t91 37.5t91.5 -37.5t38.5 -91.5t-38.5 -91.5t-91.5 -37.5z" />
    <glyph glyph-name="cedilla" unicode="&#xb8;" horiz-adv-x="534" 
d="M199 -391q-75 0 -113 14q-49 19 -49 60q0 26 17.5 43.5t43.5 17.5q12 0 38 -4t54 -4q60 0 101 29t41 83q0 65 -47 123q-5 7 -17.5 21t-17 20.5t-9.5 16.5t-5 20q0 23 14 37t41 14q57 0 120.5 -87.5t63.5 -168.5q0 -104 -77 -169.5t-199 -65.5z" />
    <glyph glyph-name="uni00B9" unicode="&#xb9;" horiz-adv-x="722" 
d="M154 745q-27 0 -46.5 18.5t-19.5 43.5q0 26 19 43.5t47 17.5h157v607h-149q-26 0 -45 18.5t-19 44.5q0 25 19 42t45 17h217q29 0 49.5 -20t20.5 -49v-660h129q28 0 45.5 -17.5t17.5 -43.5q0 -27 -17.5 -44.5t-45.5 -17.5h-424z" />
    <glyph glyph-name="ordmasculine" unicode="&#xba;" horiz-adv-x="833" 
d="M416 1145q140 0 238 -96t98 -234t-98 -234t-238 -96q-141 0 -237.5 96t-96.5 234t96.5 234t237.5 96zM416 1024q-88 0 -143.5 -58.5t-55.5 -150.5t56 -150.5t143 -58.5q88 0 144 58.5t56 150.5t-55.5 150.5t-144.5 58.5z" />
    <glyph glyph-name="guillemotright" unicode="&#xbb;" horiz-adv-x="1032" 
d="M184 172q-26 0 -45.5 20.5t-19.5 49.5q0 28 26 57l236 256l-236 256q-26 29 -26 57q0 29 19.5 49.5t45.5 20.5q37 0 68 -31l280 -299q25 -25 25 -53t-25 -53l-280 -299q-27 -31 -68 -31zM590 172q-27 0 -46.5 20.5t-19.5 49.5q0 27 27 57l235 256l-235 256q-27 30 -27 57
q0 29 19.5 49.5t46.5 20.5q36 0 67 -31l281 -299q25 -25 25 -53t-25 -53l-281 -299q-27 -31 -67 -31z" />
    <glyph glyph-name="onequarter" unicode="&#xbc;" horiz-adv-x="1816" 
d="M1395 1313q0 -16 -11 -35l-727 -1264q-21 -37 -59 -37q-23 0 -41 18.5t-18 41.5q0 20 14 43l723 1257q21 37 57 37q25 0 43.5 -18t18.5 -43zM641 561q0 -26 -17.5 -43.5t-45.5 -17.5h-424q-28 0 -47 18t-19 43q0 26 19 44t47 18h157v606h-149q-26 0 -45 18.5t-19 44.5
q0 25 19 42.5t45 17.5h217q29 0 49.5 -20.5t20.5 -49.5v-659h129q28 0 45.5 -17.5t17.5 -44.5zM1729 283q31 0 48 -19.5t17 -46.5t-17.5 -47t-47.5 -20h-60v-101q0 -26 -17.5 -44.5t-43.5 -18.5q-28 0 -46 18t-18 45v101h-362q-25 0 -43.5 18.5t-18.5 44.5q0 15 10 35
l256 575q19 43 62 43q26 0 43.5 -18t17.5 -43q0 -16 -8 -35l-205 -487h248v182q0 27 18 45t46 18q26 0 43.5 -18.5t17.5 -44.5v-182h60z" />
    <glyph glyph-name="onehalf" unicode="&#xbd;" horiz-adv-x="1894" 
d="M1395 1313q0 -16 -11 -35l-727 -1264q-21 -37 -59 -37q-23 0 -41 18.5t-18 41.5q0 20 14 43l723 1257q21 37 57 37q25 0 43.5 -18t18.5 -43zM641 561q0 -26 -17.5 -43.5t-45.5 -17.5h-424q-28 0 -47 18t-19 43q0 26 19 44t47 18h157v606h-149q-26 0 -45 18.5t-19 44.5
q0 25 19 42.5t45 17.5h217q29 0 49.5 -20.5t20.5 -49.5v-659h129q28 0 45.5 -17.5t17.5 -44.5zM1755 123q28 0 46 -18t18 -44t-18 -43.5t-46 -17.5h-485q-25 0 -42.5 18t-17.5 43q0 26 27 50l272 245q75 68 107.5 122t32.5 114q0 64 -42 106.5t-104 42.5q-65 0 -104 -42.5
t-39 -112.5v-19q0 -29 -20 -48t-48 -19q-71 0 -71 94q0 116 81 194t201 78q122 0 200.5 -77t78.5 -195q0 -80 -44 -154.5t-143 -163.5l-168 -153h328z" />
    <glyph glyph-name="threequarters" unicode="&#xbe;" horiz-adv-x="1746" 
d="M1325 1313q0 -17 -10 -35l-727 -1264q-21 -37 -60 -37q-23 0 -41 18.5t-18 41.5q0 20 14 43l723 1257q21 37 58 37q25 0 43 -18t18 -43zM643 774q0 -124 -88 -206.5t-219 -82.5q-82 0 -152 35t-116 98q-15 21 -15 41q0 25 18.5 43.5t43.5 18.5q30 0 51 -27
q72 -84 166 -84q77 0 124.5 45.5t47.5 118.5q0 71 -50.5 110.5t-144.5 39.5h-22q-26 0 -44 18t-18 43q0 23 17 43l196 201h-282q-28 0 -47 18.5t-19 44.5q0 25 19 42.5t47 17.5h407q26 0 44 -17.5t18 -42.5q0 -21 -23 -51l-196 -203q102 -14 169.5 -87.5t67.5 -176.5z
M1659 283q31 0 48 -19.5t17 -46.5t-17.5 -47t-47.5 -20h-60v-101q0 -26 -17.5 -44.5t-43.5 -18.5q-27 0 -45 18t-18 45v101h-363q-25 0 -43 18.5t-18 44.5q0 15 10 35l256 575q19 43 61 43q26 0 44 -18t18 -43q0 -16 -8 -35l-205 -487h248v182q0 27 18 45t45 18
q26 0 43.5 -18.5t17.5 -44.5v-182h60z" />
    <glyph glyph-name="questiondown" unicode="&#xbf;" horiz-adv-x="911" 
d="M500 1026q53 0 91 -37.5t38 -91.5t-38 -91.5t-91 -37.5t-91 37.5t-38 91.5t38 91.5t91 37.5zM504 616q31 0 53.5 -21.5t22.5 -53.5v-29q0 -70 -36.5 -132t-127.5 -147q-98 -92 -129 -140.5t-31 -110.5q0 -89 57.5 -148t143.5 -59q71 0 126.5 38.5t84.5 108.5q21 53 69 53
q31 0 51.5 -20.5t20.5 -50.5q0 -21 -8 -41q-43 -111 -134 -172.5t-214 -61.5q-154 0 -257.5 98t-103.5 244q0 87 44 162t151 170q85 76 114 119.5t29 93.5v23q0 34 21 55.5t53 21.5z" />
    <glyph glyph-name="Agrave" unicode="&#xc0;" horiz-adv-x="1359" 
d="M584 1530l-146 231q-26 46 -5.5 85t63.5 44q53 6 79 -43l134 -256q16 -32 -0.5 -65t-55.5 -37q-46 -3 -69 41zM1274 106q14 -28 14 -51q0 -31 -23.5 -54.5t-54.5 -23.5q-51 0 -77 54l-109 243h-694l-103 -243q-23 -54 -75 -54q-32 0 -55 23.5t-23 54.5q0 21 12 51
l518 1213q24 55 76 55t76 -55zM680 1135l-291 -717h574z" />
    <glyph glyph-name="Aacute" unicode="&#xc1;" horiz-adv-x="1359" 
d="M707 1489q-39 4 -55.5 37t-0.5 65l133 256q26 50 80 43q43 -5 63.5 -44t-5.5 -85l-146 -231q-23 -44 -69 -41zM1274 106q14 -28 14 -51q0 -31 -23.5 -54.5t-54.5 -23.5q-51 0 -77 54l-109 243h-694l-103 -243q-23 -54 -75 -54q-32 0 -55 23.5t-23 54.5q0 21 12 51
l518 1213q24 55 76 55t76 -55zM680 1135l-291 -717h574z" />
    <glyph glyph-name="Acircumflex" unicode="&#xc2;" horiz-adv-x="1359" 
d="M420 1475q-26 0 -44 17.5t-18 43.5q0 22 23 45l252 254q20 20 45 20q27 0 47 -20l250 -254q22 -22 22 -45q0 -26 -17 -43.5t-42 -17.5q-24 0 -47 20l-213 203l-213 -203q-23 -20 -45 -20zM1274 106q14 -28 14 -51q0 -31 -23.5 -54.5t-54.5 -23.5q-51 0 -77 54l-109 243
h-694l-103 -243q-23 -54 -75 -54q-32 0 -55 23.5t-23 54.5q0 21 12 51l518 1213q24 55 76 55t76 -55zM680 1135l-291 -717h574z" />
    <glyph glyph-name="Atilde" unicode="&#xc3;" horiz-adv-x="1359" 
d="M412 1518q-29 0 -49.5 21t-20.5 52q0 89 50.5 148t127.5 59q73 0 144 -47l69 -45q23 -16 32 -22t25 -12.5t31 -6.5q57 0 60 64q2 31 19.5 50t45.5 19q31 0 51.5 -21.5t20.5 -52.5q0 -89 -51.5 -147.5t-126.5 -58.5q-73 0 -144 47l-69 45q-9 5 -23.5 14.5t-22.5 14
t-19.5 8.5t-22.5 4q-59 0 -62 -64q-2 -31 -19 -50t-46 -19zM1274 106q14 -28 14 -51q0 -31 -23.5 -54.5t-54.5 -23.5q-51 0 -77 54l-109 243h-694l-103 -243q-23 -54 -75 -54q-32 0 -55 23.5t-23 54.5q0 21 12 51l518 1213q24 55 76 55t76 -55zM680 1135l-291 -717h574z" />
    <glyph glyph-name="Adieresis" unicode="&#xc4;" horiz-adv-x="1359" 
d="M440 1550q-44 0 -78 32t-34 77t34 76.5t78 31.5q47 0 80 -31t33 -77t-33 -77.5t-80 -31.5zM918 1548q-45 0 -79 32.5t-34 76.5q0 45 34 77.5t79 32.5q46 0 79 -32t33 -78q0 -44 -33 -76.5t-79 -32.5zM1274 106q14 -28 14 -51q0 -31 -23.5 -54.5t-54.5 -23.5q-51 0 -77 54
l-109 243h-694l-103 -243q-23 -54 -75 -54q-32 0 -55 23.5t-23 54.5q0 21 12 51l518 1213q24 55 76 55t76 -55zM680 1135l-291 -717h574z" />
    <glyph glyph-name="Aring" unicode="&#xc5;" horiz-adv-x="1359" 
d="M678 1430q-95 0 -160 64t-65 157t65.5 157t159.5 64q97 0 163 -63.5t66 -157.5t-66 -157.5t-163 -63.5zM680 1755q-43 0 -72.5 -29.5t-29.5 -74.5q0 -43 29.5 -73t72.5 -30q44 0 73 30t29 73q0 44 -29 74t-73 30zM1274 106q14 -28 14 -51q0 -31 -23.5 -54.5t-54.5 -23.5
q-51 0 -77 54l-109 243h-694l-103 -243q-23 -54 -75 -54q-32 0 -55 23.5t-23 54.5q0 21 12 51l518 1213q24 55 76 55t76 -55zM680 1135l-291 -717h574z" />
    <glyph glyph-name="AE" unicode="&#xc6;" horiz-adv-x="1683" 
d="M1536 143q31 0 52.5 -20.5t21.5 -50.5q0 -29 -21.5 -50.5t-52.5 -21.5h-512q-30 0 -52.5 19t-27.5 47l-35 208h-565l-125 -237q-31 -60 -78 -60q-33 0 -54 21.5t-21 52.5q0 21 10 41l629 1206q26 54 83 54h723q31 0 52.5 -21.5t21.5 -50.5q0 -31 -21.5 -51.5t-52.5 -20.5
h-596l70 -413h363q31 0 52 -20.5t21 -51.5q0 -29 -21.5 -50.5t-51.5 -21.5h-338l86 -508h440zM772 1108l-352 -690h465z" />
    <glyph glyph-name="Ccedilla" unicode="&#xc7;" horiz-adv-x="1464" 
d="M1282 358q31 0 53.5 -21t22.5 -50t-31 -68q-70 -90 -173.5 -149.5t-225.5 -81.5q47 -73 47 -144q0 -104 -77.5 -169.5t-199.5 -65.5q-74 0 -112 14q-49 19 -49 60q0 26 17.5 43.5t43.5 17.5q12 0 38 -4t54 -4q60 0 100.5 29t40.5 83q0 65 -47 123l-6 6
q-141 4 -267.5 60.5t-216.5 149.5t-143 220.5t-53 268.5q0 144 54.5 273.5t148 222.5t224 147.5t276.5 54.5q157 0 295.5 -63.5t230.5 -177.5q31 -39 31 -68t-22.5 -50.5t-53.5 -21.5q-42 0 -68 33q-160 201 -411 201q-151 0 -275 -72t-194 -198.5t-70 -280.5t70 -280.5
t194 -198.5t275 -72q248 0 411 201q25 32 68 32z" />
    <glyph glyph-name="Egrave" unicode="&#xc8;" horiz-adv-x="1159" 
d="M594 1489q-47 -3 -70 41l-145 231q-26 46 -6 85t63 44q54 7 80 -43l133 -256q16 -32 -0.5 -65t-54.5 -37zM260 0q-32 0 -53 21.5t-21 52.5v1204q0 31 21 52.5t53 21.5h727q31 0 52.5 -21.5t21.5 -50.5q0 -31 -21.5 -51.5t-52.5 -20.5h-641v-413h477q31 0 52.5 -20.5
t21.5 -51.5q0 -29 -21.5 -50.5t-52.5 -21.5h-477v-508h666q31 0 52 -20t21 -51q0 -30 -21.5 -51t-51.5 -21h-752z" />
    <glyph glyph-name="Eacute" unicode="&#xc9;" horiz-adv-x="1159" 
d="M647 1489q-38 4 -54.5 37t-0.5 65l133 256q26 50 80 43q43 -5 63 -44t-6 -85l-145 -231q-23 -44 -70 -41zM260 0q-32 0 -53 21.5t-21 52.5v1204q0 31 21 52.5t53 21.5h727q31 0 52.5 -21.5t21.5 -50.5q0 -31 -21.5 -51.5t-52.5 -20.5h-641v-413h477q31 0 52.5 -20.5
t21.5 -51.5q0 -29 -21.5 -50.5t-52.5 -21.5h-477v-508h666q31 0 52 -20t21 -51q0 -30 -21.5 -51t-51.5 -21h-752z" />
    <glyph glyph-name="Ecircumflex" unicode="&#xca;" horiz-adv-x="1159" 
d="M360 1475q-26 0 -43.5 17.5t-17.5 43.5q0 22 23 45l251 254q20 20 45 20q28 0 48 -20l249 -254q23 -23 23 -45q0 -26 -17 -43.5t-42 -17.5t-48 20l-213 203l-212 -203q-23 -20 -46 -20zM1012 143q31 0 52 -20t21 -51q0 -30 -21.5 -51t-51.5 -21h-752q-32 0 -53 21.5
t-21 52.5v1204q0 31 21 52.5t53 21.5h727q31 0 52.5 -21.5t21.5 -50.5q0 -31 -21.5 -51.5t-52.5 -20.5h-641v-413h477q31 0 52.5 -20.5t21.5 -51.5q0 -29 -21.5 -50.5t-52.5 -21.5h-477v-508h666z" />
    <glyph glyph-name="Edieresis" unicode="&#xcb;" horiz-adv-x="1159" 
d="M381 1550q-44 0 -78.5 32t-34.5 77t34.5 76.5t78.5 31.5q47 0 80 -31t33 -77t-33 -77.5t-80 -31.5zM858 1548q-45 0 -79 32.5t-34 76.5q0 45 34 77.5t79 32.5q46 0 79.5 -32.5t33.5 -77.5q0 -44 -33.5 -76.5t-79.5 -32.5zM260 0q-32 0 -53 21.5t-21 52.5v1204
q0 31 21 52.5t53 21.5h727q31 0 52.5 -21.5t21.5 -50.5q0 -31 -21.5 -51.5t-52.5 -20.5h-641v-413h477q31 0 52.5 -20.5t21.5 -51.5q0 -29 -21.5 -50.5t-52.5 -21.5h-477v-508h666q31 0 52 -20t21 -51q0 -30 -21.5 -51t-51.5 -21h-752z" />
    <glyph glyph-name="Igrave" unicode="&#xcc;" horiz-adv-x="530" 
d="M242 1489q-47 -3 -70 41l-145 231q-26 46 -6 85t63 44q54 7 80 -43l133 -256q16 -32 -0.5 -65t-54.5 -37zM266 -23q-35 0 -57.5 24t-22.5 60v1229q0 36 22.5 60t57.5 24q34 0 57 -24.5t23 -59.5v-1229q0 -35 -23 -59.5t-57 -24.5z" />
    <glyph glyph-name="Iacute" unicode="&#xcd;" horiz-adv-x="530" 
d="M295 1489q-38 4 -54.5 37t-0.5 65l133 256q26 50 80 43q43 -5 63 -44t-6 -85l-145 -231q-23 -44 -70 -41zM266 -23q-35 0 -57.5 24t-22.5 60v1229q0 36 22.5 60t57.5 24q34 0 57 -24.5t23 -59.5v-1229q0 -35 -23 -59.5t-57 -24.5z" />
    <glyph glyph-name="Icircumflex" unicode="&#xce;" horiz-adv-x="530" 
d="M563 1581q23 -23 23 -45q0 -26 -17.5 -43.5t-42.5 -17.5q-24 0 -47 20l-213 203l-213 -203q-23 -20 -45 -20q-26 0 -43.5 17.5t-17.5 43.5q0 23 22 45l252 254q20 20 45 20q27 0 47 -20zM266 1374q34 0 57 -24.5t23 -59.5v-1229q0 -35 -23 -59.5t-57 -24.5
q-35 0 -57.5 24t-22.5 60v1229q0 36 22.5 60t57.5 24z" />
    <glyph glyph-name="Idieresis" unicode="&#xcf;" horiz-adv-x="530" 
d="M29 1550q-44 0 -78.5 32t-34.5 77t34.5 76.5t78.5 31.5q47 0 79.5 -31t32.5 -77t-32.5 -77.5t-79.5 -31.5zM506 1548q-45 0 -79 32.5t-34 76.5q0 45 34 77.5t79 32.5q46 0 79 -32t33 -78q0 -44 -33 -76.5t-79 -32.5zM266 -23q-35 0 -57.5 24t-22.5 60v1229q0 36 22.5 60
t57.5 24q34 0 57 -24.5t23 -59.5v-1229q0 -35 -23 -59.5t-57 -24.5z" />
    <glyph glyph-name="Eth" unicode="&#xd0;" horiz-adv-x="1421" 
d="M588 1352q333 0 534 -184t201 -490q0 -304 -203 -491t-532 -187h-318q-36 0 -60 24t-24 60v477h-129q-31 0 -52 19.5t-21 48.5q0 28 21 47.5t52 19.5h129v572q0 36 24 60t60 24h318zM586 143q258 0 414.5 146.5t156.5 388.5q0 243 -155 386.5t-416 143.5h-240v-512h201
q32 0 53 -19.5t21 -47.5q0 -29 -21 -48.5t-53 -19.5h-201v-418h240z" />
    <glyph glyph-name="Ntilde" unicode="&#xd1;" horiz-adv-x="1449" 
d="M457 1518q-29 0 -49.5 21t-20.5 52q0 89 50.5 148t127.5 59q73 0 144 -47l69 -45q23 -16 32 -22t25 -12.5t31 -6.5q57 0 60 64q2 31 19.5 50t45.5 19q31 0 51.5 -21.5t20.5 -52.5q0 -89 -51.5 -147.5t-126.5 -58.5q-73 0 -144 47l-69 45q-9 5 -23.5 14.5t-22.5 14
t-19.5 8.5t-22.5 4q-59 0 -62 -64q-2 -31 -19 -50t-46 -19zM1184 1374q35 0 57.5 -24t22.5 -60v-1235q0 -31 -22.5 -54.5t-55.5 -23.5q-40 0 -70 41l-770 1033v-990q0 -35 -23 -59.5t-57 -24.5q-35 0 -57.5 24t-22.5 60v1235q0 31 23.5 54.5t56.5 23.5q37 0 76 -53
l764 -1020l-2 989q0 35 23 59.5t57 24.5z" />
    <glyph glyph-name="Ograve" unicode="&#xd2;" horiz-adv-x="1599" 
d="M774 1489q-46 -3 -69 41l-146 231q-26 46 -6 85t63 44q54 7 80 -43l133 -256q16 -32 -0.5 -65t-54.5 -37zM799 1374q145 0 275 -55t223.5 -148t148.5 -222.5t55 -272.5q0 -192 -93 -352.5t-254.5 -253.5t-354.5 -93q-145 0 -275 54.5t-223.5 148t-148 223t-54.5 273.5
t54.5 273.5t148 222.5t223.5 147.5t275 54.5zM801 1227q-230 0 -383.5 -156.5t-153.5 -392.5q0 -238 153.5 -395.5t383.5 -157.5q150 0 272.5 72t192 199t69.5 282q0 154 -69.5 280t-192 197.5t-272.5 71.5z" />
    <glyph glyph-name="Oacute" unicode="&#xd3;" horiz-adv-x="1599" 
d="M827 1489q-38 4 -54.5 37t-0.5 65l133 256q26 50 80 43q43 -5 63 -44t-6 -85l-145 -231q-23 -44 -70 -41zM799 1374q145 0 275 -55t223.5 -148t148.5 -222.5t55 -272.5q0 -192 -93 -352.5t-254.5 -253.5t-354.5 -93q-145 0 -275 54.5t-223.5 148t-148 223t-54.5 273.5
t54.5 273.5t148 222.5t223.5 147.5t275 54.5zM801 1227q-230 0 -383.5 -156.5t-153.5 -392.5q0 -238 153.5 -395.5t383.5 -157.5q150 0 272.5 72t192 199t69.5 282q0 154 -69.5 280t-192 197.5t-272.5 71.5z" />
    <glyph glyph-name="Ocircumflex" unicode="&#xd4;" horiz-adv-x="1599" 
d="M541 1475q-26 0 -44 17.5t-18 43.5q0 22 23 45l252 254q20 20 45 20q27 0 47 -20l250 -254q22 -22 22 -45q0 -26 -17 -43.5t-42 -17.5q-24 0 -47 20l-213 203l-213 -203q-23 -20 -45 -20zM799 1374q145 0 275 -55t223.5 -148t148.5 -222.5t55 -272.5q0 -192 -93 -352.5
t-254.5 -253.5t-354.5 -93q-145 0 -275 54.5t-223.5 148t-148 223t-54.5 273.5t54.5 273.5t148 222.5t223.5 147.5t275 54.5zM801 125q150 0 272.5 72t192 199t69.5 282q0 154 -69.5 280t-192 197.5t-272.5 71.5q-230 0 -383.5 -156.5t-153.5 -392.5q0 -238 153.5 -395.5
t383.5 -157.5z" />
    <glyph glyph-name="Otilde" unicode="&#xd5;" horiz-adv-x="1599" 
d="M532 1518q-29 0 -49 21t-20 52q0 89 50.5 148t127.5 59q72 0 143 -47l70 -45q23 -16 32 -22t25 -12.5t31 -6.5q56 0 59 64q1 31 19.5 50t46.5 19q31 0 51.5 -21.5t20.5 -52.5q0 -89 -51.5 -147.5t-126.5 -58.5q-73 0 -144 47l-69 45q-9 5 -24 14.5t-23 14t-19.5 8.5
t-22.5 4q-58 0 -61 -64q-2 -31 -19.5 -50t-46.5 -19zM799 1374q145 0 275 -55t223.5 -148t148.5 -222.5t55 -272.5q0 -192 -93 -352.5t-254.5 -253.5t-354.5 -93q-145 0 -275 54.5t-223.5 148t-148 223t-54.5 273.5t54.5 273.5t148 222.5t223.5 147.5t275 54.5zM801 1227
q-230 0 -383.5 -156.5t-153.5 -392.5q0 -238 153.5 -395.5t383.5 -157.5q150 0 272.5 72t192 199t69.5 282q0 154 -69.5 280t-192 197.5t-272.5 71.5z" />
    <glyph glyph-name="Odieresis" unicode="&#xd6;" horiz-adv-x="1599" 
d="M561 1550q-44 0 -78 32t-34 77t34 76.5t78 31.5q47 0 80 -31t33 -77t-33 -77.5t-80 -31.5zM1038 1548q-45 0 -78.5 32.5t-33.5 76.5q0 45 33.5 77.5t78.5 32.5q46 0 79.5 -32.5t33.5 -77.5q0 -44 -33.5 -76.5t-79.5 -32.5zM799 1374q145 0 275 -55t223.5 -148
t148.5 -222.5t55 -272.5q0 -192 -93 -352.5t-254.5 -253.5t-354.5 -93q-145 0 -275 54.5t-223.5 148t-148 223t-54.5 273.5t54.5 273.5t148 222.5t223.5 147.5t275 54.5zM801 1227q-230 0 -383.5 -156.5t-153.5 -392.5q0 -238 153.5 -395.5t383.5 -157.5q150 0 272.5 72
t192 199t69.5 282q0 154 -69.5 280t-192 197.5t-272.5 71.5z" />
    <glyph glyph-name="multiply" unicode="&#xd7;" 
d="M246 250q-28 0 -48 20t-20 49q0 25 21 50l278 278l-278 279q-21 21 -21 49t20 47.5t48 19.5q27 0 49 -22l278 -277l279 277q22 22 49 22q28 0 48 -19.5t20 -47.5t-21 -49l-278 -279l278 -278q21 -25 21 -50q0 -29 -20 -49t-48 -20q-27 0 -49 22l-279 279l-278 -279
q-22 -22 -49 -22z" />
    <glyph glyph-name="Oslash" unicode="&#xd8;" horiz-adv-x="1603" 
d="M1346 1120q157 -191 157 -444q0 -192 -93 -352.5t-254.5 -253.5t-354.5 -93q-251 0 -445 154l-129 -129q-25 -25 -55 -25q-27 0 -47.5 20.5t-20.5 47.5q0 30 25 55l129 129q-158 195 -158 447q0 144 54.5 273.5t148 222.5t223.5 147.5t275 54.5q256 0 444 -155l131 131
q24 24 56 24q28 0 47.5 -19.5t19.5 -47.5q0 -32 -22 -54zM260 678q0 -195 107 -340l776 776q-144 119 -340 119q-152 0 -276.5 -72t-195.5 -199.5t-71 -283.5zM803 119q151 0 275 73t194.5 201.5t70.5 284.5q0 193 -106 336l-776 -778q145 -117 342 -117z" />
    <glyph glyph-name="Ugrave" unicode="&#xd9;" horiz-adv-x="1411" 
d="M678 1489q-47 -3 -70 41l-145 231q-26 46 -6 85t63 44q54 7 80 -43l133 -256q16 -32 -0.5 -65t-54.5 -37zM707 -23q-247 0 -393 151.5t-146 408.5v753q0 35 23 59.5t57 24.5q35 0 57.5 -24t22.5 -60v-764q0 -186 102 -293.5t277 -107.5q173 0 273.5 107.5t100.5 293.5
v764q0 35 23 59.5t57 24.5q35 0 57.5 -24t22.5 -60v-753q0 -255 -145.5 -407.5t-388.5 -152.5z" />
    <glyph glyph-name="Uacute" unicode="&#xda;" horiz-adv-x="1411" 
d="M731 1489q-38 4 -54.5 37t-0.5 65l133 256q26 50 80 43q43 -5 63 -44t-6 -85l-145 -231q-23 -44 -70 -41zM707 -23q-247 0 -393 151.5t-146 408.5v753q0 35 23 59.5t57 24.5q35 0 57.5 -24t22.5 -60v-764q0 -186 102 -293.5t277 -107.5q173 0 273.5 107.5t100.5 293.5
v764q0 35 23 59.5t57 24.5q35 0 57.5 -24t22.5 -60v-753q0 -255 -145.5 -407.5t-388.5 -152.5z" />
    <glyph glyph-name="Ucircumflex" unicode="&#xdb;" horiz-adv-x="1411" 
d="M444 1475q-26 0 -43.5 17.5t-17.5 43.5q0 22 23 45l251 254q20 20 45 20q28 0 48 -20l249 -254q23 -23 23 -45q0 -26 -17 -43.5t-42 -17.5t-48 20l-213 203l-213 -203q-23 -20 -45 -20zM1161 1374q35 0 57.5 -24t22.5 -60v-753q0 -255 -145.5 -407.5t-388.5 -152.5
q-247 0 -393 151.5t-146 408.5v753q0 35 23 59.5t57 24.5q35 0 57.5 -24t22.5 -60v-764q0 -186 102 -293.5t277 -107.5q173 0 273.5 107.5t100.5 293.5v764q0 35 23 59.5t57 24.5z" />
    <glyph glyph-name="Udieresis" unicode="&#xdc;" horiz-adv-x="1411" 
d="M465 1550q-44 0 -78.5 32t-34.5 77t34.5 76.5t78.5 31.5q47 0 80 -31t33 -77t-33 -77.5t-80 -31.5zM942 1548q-45 0 -79 32.5t-34 76.5q0 45 34 77.5t79 32.5q46 0 79.5 -32.5t33.5 -77.5q0 -44 -33.5 -76.5t-79.5 -32.5zM707 -23q-247 0 -393 151.5t-146 408.5v753
q0 35 23 59.5t57 24.5q35 0 57.5 -24t22.5 -60v-764q0 -186 102 -293.5t277 -107.5q173 0 273.5 107.5t100.5 293.5v764q0 35 23 59.5t57 24.5q35 0 57.5 -24t22.5 -60v-753q0 -255 -145.5 -407.5t-388.5 -152.5z" />
    <glyph glyph-name="Yacute" unicode="&#xdd;" horiz-adv-x="1263" 
d="M651 1489q-38 4 -54.5 37t-0.5 65l133 256q26 50 80 43q43 -5 63 -44t-6 -85l-145 -231q-23 -44 -70 -41zM1171 1296q0 -26 -20 -59l-440 -715v-461q0 -35 -23 -59.5t-57 -24.5q-35 0 -57.5 24t-22.5 60v465l-436 711q-23 36 -23 61q0 32 23.5 54t58.5 22
q26 0 43.5 -10.5t34.5 -36.5l381 -627l381 627q18 26 34.5 36.5t43.5 10.5q34 0 56.5 -23t22.5 -55z" />
    <glyph glyph-name="Thorn" unicode="&#xde;" horiz-adv-x="1173" 
d="M266 1374q34 0 57 -24.5t23 -59.5v-180h316q195 0 313.5 -110t118.5 -291q0 -182 -118.5 -293t-313.5 -111h-316v-244q0 -35 -23 -59.5t-57 -24.5q-35 0 -57.5 24t-22.5 60v1229q0 36 22.5 60t57.5 24zM657 967h-311v-518h311q126 0 198.5 68.5t72.5 189.5t-72.5 190.5
t-198.5 69.5z" />
    <glyph glyph-name="germandbls" unicode="&#xdf;" horiz-adv-x="1251" 
d="M846 -25q-181 0 -309 115q-27 24 -27 57q0 29 22.5 50.5t51.5 21.5q21 0 47 -20q107 -78 227 -78q83 0 129.5 33.5t46.5 93.5q0 50 -34 84t-146 100q-120 70 -169.5 128.5t-49.5 127.5q0 61 37 162l86 237q30 80 30 148q0 83 -52 130.5t-142 47.5q-123 0 -193.5 -84
t-70.5 -229v-1041q0 -34 -23 -58t-55 -24q-33 0 -55.5 24t-22.5 58v1047q0 211 113.5 332t310.5 121q161 0 256.5 -82t95.5 -217q0 -81 -28 -160l-99 -283q-22 -68 -22 -102q0 -43 30.5 -73.5t137.5 -94.5q124 -73 174.5 -138.5t50.5 -152.5q0 -125 -96.5 -203t-251.5 -78z
" />
    <glyph glyph-name="agrave" unicode="&#xe0;" horiz-adv-x="1081" 
d="M428 1202l-145 275q-13 26 -13 43q0 33 24 56t54 23q56 0 76 -49l129 -288q10 -20 10 -37q0 -29 -20 -48.5t-51 -19.5q-37 0 -64 45zM532 1020q182 0 286 -108t104 -298v-555q0 -35 -22.5 -58.5t-55.5 -23.5q-34 0 -57 24t-23 58v58q-118 -140 -326 -140
q-157 0 -252.5 77.5t-95.5 203.5t98 202.5t261 76.5h315v86q0 121 -63 186t-179 65q-144 0 -250 -112q-31 -31 -61 -31q-29 0 -50.5 20.5t-21.5 45.5q0 34 29 67q64 75 159.5 115.5t204.5 40.5zM459 109q126 0 215.5 80t89.5 194v25h-297q-106 0 -160.5 -36.5t-54.5 -107.5
q0 -70 56.5 -112.5t150.5 -42.5z" />
    <glyph glyph-name="aacute" unicode="&#xe1;" horiz-adv-x="1081" 
d="M569 1157q-31 0 -51 19.5t-20 48.5q0 17 10 37l129 288q20 49 76 49q30 0 54 -23t24 -56q0 -17 -13 -43l-145 -275q-27 -45 -64 -45zM532 1020q182 0 286 -108t104 -298v-555q0 -35 -22.5 -58.5t-55.5 -23.5q-34 0 -57 24t-23 58v58q-118 -140 -326 -140
q-157 0 -252.5 77.5t-95.5 203.5t98 202.5t261 76.5h315v86q0 121 -63 186t-179 65q-144 0 -250 -112q-31 -31 -61 -31q-29 0 -50.5 20.5t-21.5 45.5q0 34 29 67q64 75 159.5 115.5t204.5 40.5zM459 109q126 0 215.5 80t89.5 194v25h-297q-106 0 -160.5 -36.5t-54.5 -107.5
q0 -70 56.5 -112.5t150.5 -42.5z" />
    <glyph glyph-name="acircumflex" unicode="&#xe2;" horiz-adv-x="1081" 
d="M303 1157q-29 0 -49.5 21t-20.5 49q0 27 15 45l223 299q25 28 59 28q37 0 62 -28l221 -299q16 -19 16 -45q0 -28 -20 -49t-49 -21q-34 0 -53 27l-177 223l-174 -223q-8 -11 -23 -19t-30 -8zM532 1020q182 0 286 -108t104 -298v-555q0 -35 -22.5 -58.5t-55.5 -23.5
q-34 0 -57 24t-23 58v58q-118 -140 -326 -140q-157 0 -252.5 77.5t-95.5 203.5t98 202.5t261 76.5h315v86q0 121 -63 186t-179 65q-144 0 -250 -112q-31 -31 -61 -31q-29 0 -50.5 20.5t-21.5 45.5q0 34 29 67q64 75 159.5 115.5t204.5 40.5zM459 109q126 0 215.5 80
t89.5 194v25h-297q-106 0 -160.5 -36.5t-54.5 -107.5q0 -70 56.5 -112.5t150.5 -42.5z" />
    <glyph glyph-name="atilde" unicode="&#xe3;" horiz-adv-x="1081" 
d="M274 1227q-28 0 -46.5 23t-18.5 55q0 90 49.5 148t124.5 58q77 0 139 -53l53 -45q34 -30 51.5 -39.5t35.5 -9.5q54 0 57 68q1 32 20 52.5t45 20.5q29 0 48.5 -22.5t19.5 -55.5q0 -90 -49.5 -148t-124.5 -58q-77 0 -139 53l-54 45q-37 31 -53 40t-33 9q-26 0 -41.5 -18
t-15.5 -50q-1 -32 -20.5 -52.5t-47.5 -20.5zM532 1020q182 0 286 -108t104 -298v-555q0 -35 -22.5 -58.5t-55.5 -23.5q-34 0 -57 24t-23 58v58q-118 -140 -326 -140q-157 0 -252.5 77.5t-95.5 203.5t98 202.5t261 76.5h315v86q0 121 -63 186t-179 65q-144 0 -250 -112
q-31 -31 -61 -31q-29 0 -50.5 20.5t-21.5 45.5q0 34 29 67q64 75 159.5 115.5t204.5 40.5zM459 109q126 0 215.5 80t89.5 194v25h-297q-106 0 -160.5 -36.5t-54.5 -107.5q0 -70 56.5 -112.5t150.5 -42.5z" />
    <glyph glyph-name="adieresis" unicode="&#xe4;" horiz-adv-x="1081" 
d="M313 1270q-44 0 -78 32.5t-34 75.5q0 44 34 77.5t78 33.5q47 0 80 -32.5t33 -78.5q0 -44 -33 -76t-80 -32zM745 1270q-44 0 -78 32.5t-34 75.5q0 44 34 77.5t78 33.5q47 0 80 -32.5t33 -78.5q0 -44 -33 -76t-80 -32zM532 1020q182 0 286 -108t104 -298v-555
q0 -35 -22.5 -58.5t-55.5 -23.5q-34 0 -57 24t-23 58v58q-118 -140 -326 -140q-157 0 -252.5 77.5t-95.5 203.5t98 202.5t261 76.5h315v86q0 121 -63 186t-179 65q-144 0 -250 -112q-31 -31 -61 -31q-29 0 -50.5 20.5t-21.5 45.5q0 34 29 67q64 75 159.5 115.5t204.5 40.5z
M459 109q126 0 215.5 80t89.5 194v25h-297q-106 0 -160.5 -36.5t-54.5 -107.5q0 -70 56.5 -112.5t150.5 -42.5z" />
    <glyph glyph-name="aring" unicode="&#xe5;" horiz-adv-x="1081" 
d="M528 1155q-94 0 -159.5 64.5t-65.5 158.5q0 93 65 157t160 64q97 0 163.5 -63.5t66.5 -157.5t-66.5 -158.5t-163.5 -64.5zM530 1483q-43 0 -72.5 -30.5t-29.5 -74.5t29 -73t73 -29t73.5 29t29.5 73t-30 74.5t-73 30.5zM532 1020q182 0 286 -108t104 -298v-555
q0 -35 -22.5 -58.5t-55.5 -23.5q-34 0 -57 24t-23 58v58q-118 -140 -326 -140q-157 0 -252.5 77.5t-95.5 203.5t98 202.5t261 76.5h315v86q0 121 -63 186t-179 65q-144 0 -250 -112q-31 -31 -61 -31q-29 0 -50.5 20.5t-21.5 45.5q0 34 29 67q64 75 159.5 115.5t204.5 40.5z
M459 109q126 0 215.5 80t89.5 194v25h-297q-106 0 -160.5 -36.5t-54.5 -107.5q0 -70 56.5 -112.5t150.5 -42.5z" />
    <glyph glyph-name="ae" unicode="&#xe6;" horiz-adv-x="1832" 
d="M1276 1020q198 0 325.5 -129.5t127.5 -329.5v-24q0 -105 -97 -105h-700q22 -140 120 -224.5t242 -84.5q149 0 262 96q26 23 52 23q31 0 50 -19.5t19 -50.5q0 -38 -39 -72q-138 -123 -346 -123q-139 0 -254 65t-182 177q-51 -113 -160 -177.5t-254 -64.5q-160 0 -256 79
t-96 210q0 133 98.5 214t260.5 81h315v62q0 119 -63 185t-177 66q-138 0 -250 -112q-31 -31 -61 -31q-28 0 -50 22t-22 48q0 31 29 63q61 75 156.5 115.5t208.5 40.5q122 0 210 -54.5t129 -154.5q69 97 174.5 153t227.5 56zM932 561h633q8 139 -74 227.5t-219 88.5
q-134 0 -227.5 -88t-112.5 -228zM461 111q125 0 214 79t89 191v51h-297q-215 0 -215 -149q0 -78 57 -125t152 -47z" />
    <glyph glyph-name="ccedilla" unicode="&#xe7;" horiz-adv-x="1128" 
d="M971 299q31 0 52 -20.5t21 -51.5q0 -22 -14 -43q-111 -157 -301 -196q47 -73 47 -144q0 -104 -77 -169.5t-199 -65.5q-75 0 -113 14q-49 19 -49 60q0 26 17.5 43.5t43.5 17.5q12 0 38.5 -4t54.5 -4q60 0 100.5 29t40.5 83q0 65 -47 123l-6 9q-203 17 -340.5 165.5
t-137.5 354.5q0 143 69.5 262.5t190 188.5t263.5 69q131 0 236 -56.5t169 -152.5q14 -21 14 -43q0 -29 -21 -50.5t-50 -21.5q-35 0 -58 29q-121 149 -288 149q-154 0 -258.5 -107.5t-104.5 -266.5q0 -161 104 -269t259 -108q167 0 288 149q23 27 56 27z" />
    <glyph glyph-name="egrave" unicode="&#xe8;" horiz-adv-x="1169" 
d="M506 1202l-146 275q-12 24 -12 43q0 33 24 56t54 23q56 0 76 -49l129 -288q10 -20 10 -37q0 -29 -20.5 -48.5t-51.5 -19.5q-36 0 -63 45zM612 1020q198 0 326.5 -130t128.5 -331v-10q0 -98 -96 -98h-705q15 -148 115.5 -238t251.5 -90q147 0 260 96q26 23 53 23
q30 0 50 -20t20 -50q0 -36 -39 -72q-147 -123 -346 -123q-227 0 -378 149t-151 372q0 144 67.5 264t185 189t257.5 69zM608 877q-126 0 -218 -79t-118 -208h633q-3 127 -85 207t-212 80z" />
    <glyph glyph-name="eacute" unicode="&#xe9;" horiz-adv-x="1169" 
d="M647 1157q-31 0 -51.5 19.5t-20.5 48.5q0 15 11 37l129 288q20 49 76 49q30 0 53.5 -23t23.5 -56q0 -19 -12 -43l-145 -275q-27 -45 -64 -45zM612 1020q198 0 326.5 -130t128.5 -331v-10q0 -98 -96 -98h-705q15 -148 115.5 -238t251.5 -90q147 0 260 96q26 23 53 23
q30 0 50 -20t20 -50q0 -36 -39 -72q-147 -123 -346 -123q-227 0 -378 149t-151 372q0 144 67.5 264t185 189t257.5 69zM608 877q-126 0 -218 -79t-118 -208h633q-3 127 -85 207t-212 80z" />
    <glyph glyph-name="ecircumflex" unicode="&#xea;" horiz-adv-x="1169" 
d="M381 1157q-29 0 -49.5 21t-20.5 49q0 27 15 45l223 299q25 28 59 28q37 0 62 -28l221 -299q16 -19 16 -45q0 -28 -20 -49t-49 -21q-35 0 -54 27l-176 223l-174 -223q-8 -11 -23 -19t-30 -8zM612 1020q198 0 326.5 -130t128.5 -331v-10q0 -98 -96 -98h-705
q15 -148 115.5 -238t251.5 -90q147 0 260 96q26 23 53 23q30 0 50 -20t20 -50q0 -36 -39 -72q-147 -123 -346 -123q-227 0 -378 149t-151 372q0 144 67.5 264t185 189t257.5 69zM608 877q-126 0 -218 -79t-118 -208h633q-3 127 -85 207t-212 80z" />
    <glyph glyph-name="edieresis" unicode="&#xeb;" horiz-adv-x="1169" 
d="M391 1270q-44 0 -78 32.5t-34 75.5q0 44 34 77.5t78 33.5q47 0 80 -32.5t33 -78.5q0 -44 -33 -76t-80 -32zM823 1270q-44 0 -78 32.5t-34 75.5q0 44 34 77.5t78 33.5q47 0 80 -32.5t33 -78.5q0 -44 -33 -76t-80 -32zM612 1020q198 0 326.5 -130t128.5 -331v-10
q0 -98 -96 -98h-705q15 -148 115.5 -238t251.5 -90q147 0 260 96q26 23 53 23q30 0 50 -20t20 -50q0 -36 -39 -72q-147 -123 -346 -123q-227 0 -378 149t-151 372q0 144 67.5 264t185 189t257.5 69zM608 877q-126 0 -218 -79t-118 -208h633q-3 127 -85 207t-212 80z" />
    <glyph glyph-name="igrave" unicode="&#xec;" horiz-adv-x="503" 
d="M233 1155q-36 7 -49 59l-69 304q-5 30 0 43q7 33 36.5 49t59.5 8q52 -12 59 -66l49 -313q6 -22 3 -39q-8 -28 -33 -41t-56 -4zM250 -23q-33 0 -54.5 24t-21.5 58v879q0 34 22.5 58t57.5 24q33 0 55.5 -24t22.5 -58v-879q0 -34 -24 -58t-58 -24z" />
    <glyph glyph-name="iacute" unicode="&#xed;" horiz-adv-x="503" 
d="M279 1161q-31 -6 -54.5 9t-29.5 44q0 25 4 39l77 306q10 51 66 63q30 5 57 -14.5t33 -51.5q3 -18 -4 -45l-96 -294q-18 -51 -53 -56zM250 -23q-33 0 -54.5 24t-21.5 58v879q0 34 22.5 58t57.5 24q33 0 55.5 -24t22.5 -58v-879q0 -34 -24 -58t-58 -24z" />
    <glyph glyph-name="icircumflex" unicode="&#xee;" horiz-adv-x="503" 
d="M537 1272q16 -19 16 -45q0 -28 -20.5 -49t-49.5 -21q-34 0 -53 27l-176 223l-174 -223q-8 -11 -23 -19t-30 -8q-29 0 -49.5 21t-20.5 49t14 45l224 299q25 28 59 28q36 0 61 -28zM254 1020q33 0 55.5 -24t22.5 -58v-879q0 -34 -24 -58t-58 -24q-33 0 -54.5 24t-21.5 58
v879q0 34 22.5 58t57.5 24z" />
    <glyph glyph-name="idieresis" unicode="&#xef;" horiz-adv-x="503" 
d="M68 1270q-45 0 -79 32t-34 76t33.5 77.5t79.5 33.5q47 0 79.5 -32.5t32.5 -78.5q0 -45 -32.5 -76.5t-79.5 -31.5zM438 1270q-44 0 -78 32.5t-34 75.5q0 44 34 77.5t78 33.5q47 0 80 -32.5t33 -78.5q0 -44 -33 -76t-80 -32zM250 -23q-33 0 -54.5 24t-21.5 58v879
q0 34 22.5 58t57.5 24q33 0 55.5 -24t22.5 -58v-879q0 -34 -24 -58t-58 -24z" />
    <glyph glyph-name="eth" unicode="&#xf0;" horiz-adv-x="1165" 
d="M840 940q132 -180 176.5 -278t44.5 -207q0 -205 -136.5 -341.5t-342.5 -136.5q-205 0 -342.5 133.5t-137.5 333.5q0 196 133 328.5t328 132.5q61 0 123 -16l-207 287l-254 -123q-30 -15 -45 -15q-25 0 -43 20t-18 46q0 17 10 33t25 24l249 121l-110 152q-19 25 -19 51
q0 30 22 52t54 22q38 0 64 -39l127 -172l256 122q27 15 43 15q26 0 44.5 -19.5t18.5 -46.5q0 -39 -35 -57l-250 -121zM582 123q138 0 227.5 91.5t89.5 229.5t-89.5 229t-227.5 91q-137 0 -227.5 -91.5t-90.5 -230.5q0 -138 90 -228.5t228 -90.5z" />
    <glyph glyph-name="ntilde" unicode="&#xf1;" horiz-adv-x="1159" 
d="M328 1227q-28 0 -47 23t-19 55q0 90 49.5 148t124.5 58q77 0 139 -53l54 -45q34 -30 51 -39.5t35 -9.5q54 0 57 68q1 32 20 52.5t46 20.5q29 0 48 -22.5t19 -55.5q0 -90 -49.5 -148t-124.5 -58q-77 0 -139 53l-53 45q-37 31 -53 40t-33 9q-27 0 -42.5 -18t-15.5 -50
q-1 -32 -20 -52.5t-47 -20.5zM629 1020q170 0 270 -106.5t100 -286.5v-568q0 -35 -22.5 -58.5t-54.5 -23.5q-35 0 -57.5 24t-22.5 58v549q0 121 -68.5 193.5t-179.5 72.5q-115 0 -188.5 -74.5t-73.5 -191.5v-549q0 -35 -22.5 -58.5t-55.5 -23.5q-35 0 -57.5 24t-22.5 58v879
q0 34 22.5 58t57.5 24q32 0 55 -24t23 -58v-37q116 119 297 119z" />
    <glyph glyph-name="ograve" unicode="&#xf2;" horiz-adv-x="1249" 
d="M586 1157q-37 0 -64 45l-145 275q-12 24 -12 43q0 33 23.5 56t53.5 23q56 0 76 -49l129 -288q10 -20 10 -37q0 -29 -20 -48.5t-51 -19.5zM625 1020q218 0 370 -151t152 -369q0 -217 -152.5 -368.5t-371.5 -151.5q-143 1 -263 70t-189 188.5t-69 261.5q0 219 151.5 369.5
t371.5 150.5zM625 874q-155 0 -258.5 -107.5t-102.5 -268.5q0 -160 102.5 -266.5t256.5 -106.5t258 107.5t104 265.5q0 161 -103 268.5t-257 107.5z" />
    <glyph glyph-name="oacute" unicode="&#xf3;" horiz-adv-x="1249" 
d="M664 1157q-31 0 -51.5 19.5t-20.5 48.5q0 17 10 37l129 288q20 49 76 49q30 0 54 -23t24 -56q0 -17 -13 -43l-145 -275q-27 -45 -63 -45zM625 1020q218 0 370 -151t152 -369q0 -217 -152.5 -368.5t-371.5 -151.5q-143 1 -263 70t-189 188.5t-69 261.5q0 219 151.5 369.5
t371.5 150.5zM625 874q-155 0 -258.5 -107.5t-102.5 -268.5q0 -160 102.5 -266.5t256.5 -106.5t258 107.5t104 265.5q0 161 -103 268.5t-257 107.5z" />
    <glyph glyph-name="ocircumflex" unicode="&#xf4;" horiz-adv-x="1249" 
d="M397 1157q-29 0 -49 21t-20 49t14 45l223 299q25 28 60 28q36 0 61 -28l221 -299q17 -20 17 -45q0 -28 -20.5 -49t-49.5 -21q-34 0 -53 27l-176 223l-174 -223q-8 -11 -23.5 -19t-30.5 -8zM625 1020q218 0 370 -151t152 -369q0 -217 -152.5 -368.5t-371.5 -151.5
q-143 1 -263 70t-189 188.5t-69 261.5q0 219 151.5 369.5t371.5 150.5zM623 125q154 0 258 107.5t104 265.5q0 161 -103 268.5t-257 107.5q-155 0 -258.5 -107.5t-102.5 -268.5q0 -160 102.5 -266.5t256.5 -106.5z" />
    <glyph glyph-name="otilde" unicode="&#xf5;" horiz-adv-x="1249" 
d="M772 1221q-77 0 -139 53l-53 45q-37 31 -53 40t-33 9q-27 0 -42.5 -18t-15.5 -50q-1 -32 -20 -52.5t-47 -20.5t-47 23t-19 55q0 90 49.5 148t124.5 58q77 0 139 -53l54 -45q34 -30 51 -39.5t35 -9.5q54 0 57 68q1 32 20 52.5t46 20.5q29 0 48 -22.5t19 -55.5
q0 -90 -49.5 -148t-124.5 -58zM625 1020q218 0 370 -151t152 -369q0 -217 -152.5 -368.5t-371.5 -151.5q-143 1 -263 70t-189 188.5t-69 261.5q0 219 151.5 369.5t371.5 150.5zM625 874q-155 0 -258.5 -107.5t-102.5 -268.5q0 -160 102.5 -266.5t256.5 -106.5t258 107.5
t104 265.5q0 161 -103 268.5t-257 107.5z" />
    <glyph glyph-name="odieresis" unicode="&#xf6;" horiz-adv-x="1249" 
d="M408 1489q47 0 79.5 -32.5t32.5 -78.5q0 -45 -32.5 -76.5t-79.5 -31.5q-44 0 -78.5 32.5t-34.5 75.5q0 44 34.5 77.5t78.5 33.5zM840 1489q47 0 79.5 -32.5t32.5 -78.5q0 -45 -32.5 -76.5t-79.5 -31.5q-44 0 -78.5 32.5t-34.5 75.5q0 44 34.5 77.5t78.5 33.5zM625 1020
q218 0 370 -151t152 -369q0 -217 -152.5 -368.5t-371.5 -151.5q-143 1 -263 70t-189 188.5t-69 261.5q0 219 151.5 369.5t371.5 150.5zM625 874q-155 0 -258.5 -107.5t-102.5 -268.5q0 -160 102.5 -266.5t256.5 -106.5t258 107.5t104 265.5q0 161 -103 268.5t-257 107.5z
" />
    <glyph glyph-name="divide" unicode="&#xf7;" 
d="M569 1116q46 0 79.5 -31.5t33.5 -78.5q0 -44 -33.5 -76.5t-79.5 -32.5q-47 0 -79.5 32t-32.5 77q0 47 32.5 78.5t79.5 31.5zM965 715q31 0 52 -20.5t21 -49.5q0 -30 -21 -50t-52 -20h-785q-31 0 -51 19.5t-20 50.5q0 29 20.5 49.5t50.5 20.5h785zM569 385q47 0 80 -31
t33 -78q0 -44 -33.5 -76t-79.5 -32q-47 0 -79.5 31.5t-32.5 76.5q0 47 32 78t80 31z" />
    <glyph glyph-name="oslash" unicode="&#xf8;" horiz-adv-x="1271" 
d="M1151 915l-100 -100q106 -137 106 -317q0 -141 -69.5 -261t-190.5 -190t-264 -70q-178 0 -316 107l-98 -100q-24 -27 -53 -27t-49.5 21.5t-20.5 50.5q0 25 25 53l100 100q-106 134 -106 316q0 144 69 264t188.5 189t262.5 69q179 0 317 -107l101 101q27 24 53 24
q30 0 51 -20t21 -49q0 -27 -27 -54zM635 881q-160 0 -264.5 -108.5t-104.5 -274.5q0 -122 62 -219l528 530q-98 72 -221 72zM633 113q158 0 265.5 110.5t107.5 274.5q0 122 -62 219l-530 -531q92 -73 219 -73z" />
    <glyph glyph-name="ugrave" unicode="&#xf9;" 
d="M535 1157q-37 0 -64 45l-145 275q-13 26 -13 43q0 33 24 56t54 23q56 0 76 -49l129 -288q10 -20 10 -37q0 -29 -20 -48.5t-51 -19.5zM575 -23q-183 0 -298 117.5t-115 302.5v541q0 34 22.5 58t55.5 24q32 0 54.5 -24t22.5 -58v-551q0 -116 71.5 -190t186.5 -74
q110 0 182 74.5t72 189.5v551q0 34 22.5 58t57.5 24q33 0 55.5 -23.5t22.5 -58.5v-541q0 -184 -116 -302t-296 -118z" />
    <glyph glyph-name="uacute" unicode="&#xfa;" 
d="M612 1157q-31 0 -51 19.5t-20 48.5q0 17 10 37l129 288q20 49 76 49q30 0 54 -23t24 -56q0 -17 -13 -43l-145 -275q-27 -45 -64 -45zM575 -23q-183 0 -298 117.5t-115 302.5v541q0 34 22.5 58t55.5 24q32 0 54.5 -24t22.5 -58v-551q0 -116 71.5 -190t186.5 -74
q110 0 182 74.5t72 189.5v551q0 34 22.5 58t57.5 24q33 0 55.5 -23.5t22.5 -58.5v-541q0 -184 -116 -302t-296 -118z" />
    <glyph glyph-name="ucircumflex" unicode="&#xfb;" 
d="M346 1157q-29 0 -49.5 21t-20.5 49q0 27 15 45l223 299q25 28 59 28q37 0 62 -28l221 -299q16 -19 16 -45q0 -28 -20 -49t-49 -21q-34 0 -53 27l-177 223l-174 -223q-8 -11 -23 -19t-30 -8zM909 1020q33 0 55.5 -23.5t22.5 -58.5v-541q0 -184 -116 -302t-296 -118
q-183 0 -298 117.5t-115 302.5v541q0 34 22.5 58t55.5 24q32 0 54.5 -24t22.5 -58v-551q0 -116 71.5 -190t186.5 -74q110 0 182 74.5t72 189.5v551q0 34 22.5 58t57.5 24z" />
    <glyph glyph-name="udieresis" unicode="&#xfc;" 
d="M356 1489q47 0 80 -32.5t33 -78.5q0 -44 -33 -76t-80 -32q-44 0 -78 32.5t-34 75.5q0 44 34 77.5t78 33.5zM788 1489q47 0 80 -32.5t33 -78.5q0 -44 -33 -76t-80 -32q-44 0 -78 32.5t-34 75.5q0 44 34 77.5t78 33.5zM575 -23q-183 0 -298 117.5t-115 302.5v541
q0 34 22.5 58t55.5 24q32 0 54.5 -24t22.5 -58v-551q0 -116 71.5 -190t186.5 -74q110 0 182 74.5t72 189.5v551q0 34 22.5 58t57.5 24q33 0 55.5 -23.5t22.5 -58.5v-541q0 -184 -116 -302t-296 -118z" />
    <glyph glyph-name="yacute" unicode="&#xfd;" horiz-adv-x="1103" 
d="M586 1157q-31 0 -51.5 19.5t-20.5 48.5q0 17 10 37l129 288q20 49 76 49q30 0 54 -23t24 -56q0 -19 -12 -43l-146 -275q-27 -45 -63 -45zM973 1020q31 0 54.5 -23.5t23.5 -54.5q0 -18 -7 -35l-477 -1018q-69 -147 -156 -213.5t-210 -66.5q-43 0 -80 6q-27 4 -44.5 24.5
t-17.5 45.5q0 29 22 49t50 20q12 0 31 -1t26 -1q152 0 228 168l51 111l-391 874q-8 20 -8 37q0 31 23 54.5t54 23.5q25 0 46 -13.5t28 -35.5l334 -750l346 750q7 22 28 35.5t46 13.5z" />
    <glyph glyph-name="thorn" unicode="&#xfe;" horiz-adv-x="1294" 
d="M698 1020q212 0 353 -148.5t141 -371.5q0 -224 -141 -373.5t-353 -149.5q-114 0 -210.5 45t-155.5 123v-456q0 -35 -22.5 -58.5t-55.5 -23.5q-35 0 -57.5 24t-22.5 58v1788q0 34 22.5 58t57.5 24q33 0 55.5 -23.5t22.5 -58.5v-625q60 78 155.5 123t210.5 45zM676 123
q153 0 253.5 106.5t100.5 268.5q0 163 -100 269.5t-254 106.5q-155 0 -250.5 -103.5t-95.5 -270.5q0 -169 95 -273t251 -104z" />
    <glyph glyph-name="ydieresis" unicode="&#xff;" horiz-adv-x="1103" 
d="M330 1270q-44 0 -78.5 32.5t-34.5 75.5q0 44 34.5 77.5t78.5 33.5q47 0 79.5 -32.5t32.5 -78.5q0 -45 -32.5 -76.5t-79.5 -31.5zM762 1270q-44 0 -78.5 32.5t-34.5 75.5q0 44 34.5 77.5t78.5 33.5q47 0 79.5 -32.5t32.5 -78.5q0 -45 -32.5 -76.5t-79.5 -31.5zM973 1020
q31 0 54.5 -23.5t23.5 -54.5q0 -18 -7 -35l-477 -1018q-69 -147 -156 -213.5t-210 -66.5q-43 0 -80 6q-27 4 -44.5 24.5t-17.5 45.5q0 29 22 49t50 20q12 0 31 -1t26 -1q152 0 228 168l51 111l-391 874q-8 20 -8 37q0 31 23 54.5t54 23.5q25 0 46 -13.5t28 -35.5l334 -750
l346 750q7 22 28 35.5t46 13.5z" />
    <glyph glyph-name="Amacron" unicode="&#x100;" horiz-adv-x="1359" 
d="M436 1577q-28 0 -47.5 18.5t-19.5 46.5q0 26 19.5 45t47.5 19h486q28 0 47.5 -19t19.5 -45q0 -29 -19.5 -47t-47.5 -18h-486zM1274 106q14 -28 14 -51q0 -31 -23.5 -54.5t-54.5 -23.5q-51 0 -77 54l-109 243h-694l-103 -243q-23 -54 -75 -54q-32 0 -55 23.5t-23 54.5
q0 21 12 51l518 1213q24 55 76 55t76 -55zM680 1135l-291 -717h574z" />
    <glyph glyph-name="amacron" unicode="&#x101;" horiz-adv-x="1081" 
d="M307 1313q-29 0 -48 18.5t-19 46.5q0 27 19 45.5t48 18.5h445q29 0 48 -18.5t19 -45.5q0 -28 -19 -46.5t-48 -18.5h-445zM532 1020q182 0 286 -108t104 -298v-555q0 -35 -22.5 -58.5t-55.5 -23.5q-34 0 -57 24t-23 58v58q-118 -140 -326 -140q-157 0 -252.5 77.5
t-95.5 203.5t98 202.5t261 76.5h315v86q0 121 -63 186t-179 65q-144 0 -250 -112q-31 -31 -61 -31q-29 0 -50.5 20.5t-21.5 45.5q0 34 29 67q64 75 159.5 115.5t204.5 40.5zM459 109q126 0 215.5 80t89.5 194v25h-297q-106 0 -160.5 -36.5t-54.5 -107.5q0 -70 56.5 -112.5
t150.5 -42.5z" />
    <glyph glyph-name="Abreve" unicode="&#x102;" horiz-adv-x="1359" 
d="M680 1499q-122 0 -214.5 79.5t-92.5 184.5q0 29 18.5 49.5t46.5 20.5q51 0 66 -66q15 -67 62.5 -106t113.5 -39q69 0 116.5 39.5t61.5 105.5q12 66 64 66q29 0 48 -20t19 -50q0 -106 -92.5 -185t-216.5 -79zM1274 106q14 -28 14 -51q0 -31 -23.5 -54.5t-54.5 -23.5
q-51 0 -77 54l-109 243h-694l-103 -243q-23 -54 -75 -54q-32 0 -55 23.5t-23 54.5q0 21 12 51l518 1213q24 55 76 55t76 -55zM680 1135l-291 -717h574z" />
    <glyph glyph-name="abreve" unicode="&#x103;" horiz-adv-x="1081" 
d="M530 1192q-124 0 -217.5 88.5t-93.5 204.5q0 31 19 51t47 20q61 0 67 -65q6 -72 57.5 -120t120.5 -48q70 0 121.5 48t59.5 120q3 29 21.5 47t43.5 18q29 0 48.5 -20t19.5 -51q0 -119 -92.5 -206t-221.5 -87zM532 1020q182 0 286 -108t104 -298v-555q0 -35 -22.5 -58.5
t-55.5 -23.5q-34 0 -57 24t-23 58v58q-118 -140 -326 -140q-157 0 -252.5 77.5t-95.5 203.5t98 202.5t261 76.5h315v86q0 121 -63 186t-179 65q-144 0 -250 -112q-31 -31 -61 -31q-29 0 -50.5 20.5t-21.5 45.5q0 34 29 67q64 75 159.5 115.5t204.5 40.5zM459 109
q126 0 215.5 80t89.5 194v25h-297q-106 0 -160.5 -36.5t-54.5 -107.5q0 -70 56.5 -112.5t150.5 -42.5z" />
    <glyph glyph-name="Aogonek" unicode="&#x104;" horiz-adv-x="1359" 
d="M1266 -258q24 0 39.5 -16t15.5 -43q0 -45 -51 -60q-47 -14 -113 -14q-98 0 -157.5 52t-59.5 140q0 37 11 68t37 60.5t48.5 50t65.5 53.5q20 15 22 16l-100 225h-694l-103 -243q-23 -54 -75 -54q-32 0 -55 23.5t-23 54.5q0 21 12 51l518 1213q24 55 76 55t76 -55
l518 -1213q14 -28 14 -51q0 -46 -53 -78q-145 -90 -145 -163q0 -33 27.5 -54.5t78.5 -21.5q16 0 40 2t30 2zM680 1135l-291 -717h574z" />
    <glyph glyph-name="aogonek" unicode="&#x105;" horiz-adv-x="1081" 
d="M899 -258q24 0 39.5 -16t15.5 -43q0 -45 -51 -60q-47 -14 -112 -14q-98 0 -158 52t-60 140q0 37 11 68t37 60.5t48.5 50t65.5 53.5l29 22v4v58q-118 -140 -326 -140q-157 0 -252.5 77.5t-95.5 203.5t98 202.5t261 76.5h315v86q0 121 -63 186t-179 65q-144 0 -250 -112
q-31 -31 -61 -31q-29 0 -50.5 20.5t-21.5 45.5q0 34 29 67q64 75 159.5 115.5t204.5 40.5q182 0 286 -108t104 -298v-555v-2v-2q0 -15 -11 -37q-11 -18 -24 -26q-7 -7 -19 -15q-145 -90 -145 -163q0 -33 27.5 -54.5t78.5 -21.5q16 0 40 2t30 2zM459 109q126 0 215.5 80
t89.5 194v25h-297q-106 0 -160.5 -36.5t-54.5 -107.5q0 -70 56.5 -112.5t150.5 -42.5z" />
    <glyph glyph-name="Cacute" unicode="&#x106;" horiz-adv-x="1464" 
d="M827 1489q-38 4 -54.5 37t-0.5 65l133 256q26 50 80 43q43 -5 63 -44t-6 -85l-145 -231q-23 -44 -70 -41zM801 -23q-146 0 -276.5 54.5t-224 148t-148 223t-54.5 273.5t54.5 273.5t148 222.5t224 147.5t276.5 54.5q157 0 295.5 -63.5t230.5 -177.5q31 -39 31 -68
t-22.5 -50.5t-53.5 -21.5q-42 0 -68 33q-160 201 -411 201q-151 0 -275 -72t-194 -198.5t-70 -280.5t70 -280.5t194 -198.5t275 -72q248 0 411 201q25 32 68 32q31 0 53.5 -21t22.5 -50t-31 -68q-89 -114 -228.5 -178t-297.5 -64z" />
    <glyph glyph-name="cacute" unicode="&#x107;" horiz-adv-x="1128" 
d="M662 1157q-31 0 -51.5 19.5t-20.5 48.5q0 17 10 37l129 288q20 49 76 49q30 0 54 -23t24 -56q0 -17 -13 -43l-145 -275q-27 -45 -63 -45zM625 -23q-218 0 -370.5 152.5t-152.5 370.5q0 143 69.5 262.5t190 188.5t263.5 69q131 0 236 -56.5t169 -152.5q14 -21 14 -43
q0 -29 -21 -50.5t-50 -21.5q-35 0 -58 29q-121 149 -288 149q-154 0 -258.5 -107.5t-104.5 -266.5q0 -161 104 -269t259 -108q167 0 288 149q23 27 56 27q31 0 52 -20.5t21 -51.5q0 -22 -14 -43q-66 -95 -170.5 -151t-234.5 -56z" />
    <glyph glyph-name="Ccircumflex" unicode="&#x108;" horiz-adv-x="1464" 
d="M541 1475q-26 0 -44 17.5t-18 43.5q0 22 23 45l252 254q20 20 45 20q27 0 47 -20l250 -254q22 -22 22 -45q0 -26 -17 -43.5t-42 -17.5q-24 0 -47 20l-213 203l-213 -203q-23 -20 -45 -20zM1282 358q31 0 53.5 -21t22.5 -50t-31 -68q-89 -114 -228.5 -178t-297.5 -64
q-146 0 -276.5 54.5t-224 148t-148 223t-54.5 273.5t54.5 273.5t148 222.5t224 147.5t276.5 54.5q157 0 295.5 -63.5t230.5 -177.5q31 -39 31 -68t-22.5 -50.5t-53.5 -21.5q-42 0 -68 33q-160 201 -411 201q-151 0 -275 -72t-194 -198.5t-70 -280.5t70 -280.5t194 -198.5
t275 -72q248 0 411 201q25 32 68 32z" />
    <glyph glyph-name="ccircumflex" unicode="&#x109;" horiz-adv-x="1128" 
d="M395 1157q-29 0 -49 21t-20 49t14 45l223 299q25 28 60 28q36 0 61 -28l221 -299q17 -20 17 -45q0 -28 -20.5 -49t-49.5 -21q-34 0 -53 27l-176 223l-174 -223q-8 -11 -23.5 -19t-30.5 -8zM971 299q31 0 52 -20.5t21 -51.5q0 -22 -14 -43q-66 -95 -170.5 -151t-234.5 -56
q-218 0 -370.5 152.5t-152.5 370.5q0 143 69.5 262.5t190 188.5t263.5 69q131 0 236 -56.5t169 -152.5q14 -21 14 -43q0 -29 -21 -50.5t-50 -21.5q-35 0 -58 29q-121 149 -288 149q-154 0 -258.5 -107.5t-104.5 -266.5q0 -161 104 -269t259 -108q167 0 288 149q23 27 56 27z
" />
    <glyph glyph-name="Cdotaccent" unicode="&#x10a;" horiz-adv-x="1464" 
d="M801 1772q46 0 80 -33.5t34 -79.5q0 -47 -34 -80t-80 -33q-48 0 -82.5 33t-34.5 80q0 46 35 79.5t82 33.5zM801 -23q-146 0 -276.5 54.5t-224 148t-148 223t-54.5 273.5t54.5 273.5t148 222.5t224 147.5t276.5 54.5q157 0 295.5 -63.5t230.5 -177.5q31 -39 31 -68
t-22.5 -50.5t-53.5 -21.5q-42 0 -68 33q-160 201 -411 201q-151 0 -275 -72t-194 -198.5t-70 -280.5t70 -280.5t194 -198.5t275 -72q248 0 411 201q25 32 68 32q31 0 53.5 -21t22.5 -50t-31 -68q-89 -114 -228.5 -178t-297.5 -64z" />
    <glyph glyph-name="cdotaccent" unicode="&#x10b;" horiz-adv-x="1128" 
d="M623 1491q46 0 80 -33.5t34 -79.5q0 -47 -34 -79.5t-80 -32.5q-48 0 -82.5 32.5t-34.5 79.5q0 46 35 79.5t82 33.5zM625 -23q-218 0 -370.5 152.5t-152.5 370.5q0 143 69.5 262.5t190 188.5t263.5 69q131 0 236 -56.5t169 -152.5q14 -21 14 -43q0 -29 -21 -50.5
t-50 -21.5q-35 0 -58 29q-121 149 -288 149q-154 0 -258.5 -107.5t-104.5 -266.5q0 -161 104 -269t259 -108q167 0 288 149q23 27 56 27q31 0 52 -20.5t21 -51.5q0 -22 -14 -43q-66 -95 -170.5 -151t-234.5 -56z" />
    <glyph glyph-name="Ccaron" unicode="&#x10c;" horiz-adv-x="1464" 
d="M756 1495l-252 254q-23 23 -23 45q0 26 18 43.5t44 17.5q22 0 45 -20l213 -203l213 203q23 20 47 20q25 0 42 -17.5t17 -43.5q0 -23 -22 -45l-250 -254q-20 -20 -47 -20q-25 0 -45 20zM1282 358q31 0 53.5 -21t22.5 -50t-31 -68q-89 -114 -228.5 -178t-297.5 -64
q-146 0 -276.5 54.5t-224 148t-148 223t-54.5 273.5t54.5 273.5t148 222.5t224 147.5t276.5 54.5q157 0 295.5 -63.5t230.5 -177.5q31 -39 31 -68t-22.5 -50.5t-53.5 -21.5q-42 0 -68 33q-160 201 -411 201q-151 0 -275 -72t-194 -198.5t-70 -280.5t70 -280.5t194 -198.5
t275 -72q248 0 411 201q25 32 68 32z" />
    <glyph glyph-name="ccaron" unicode="&#x10d;" horiz-adv-x="1128" 
d="M563 1186l-223 299q-14 17 -14 45t20 48.5t49 20.5q35 0 54 -26l174 -223l176 223q19 26 53 26q29 0 49.5 -20.5t20.5 -48.5q0 -25 -17 -45l-221 -299q-26 -29 -61 -29q-34 0 -60 29zM971 299q31 0 52 -20.5t21 -51.5q0 -22 -14 -43q-66 -95 -170.5 -151t-234.5 -56
q-218 0 -370.5 152.5t-152.5 370.5q0 143 69.5 262.5t190 188.5t263.5 69q131 0 236 -56.5t169 -152.5q14 -21 14 -43q0 -29 -21 -50.5t-50 -21.5q-35 0 -58 29q-121 149 -288 149q-154 0 -258.5 -107.5t-104.5 -266.5q0 -161 104 -269t259 -108q167 0 288 149q23 27 56 27z
" />
    <glyph glyph-name="Dcaron" unicode="&#x10e;" horiz-adv-x="1421" 
d="M539 1495l-252 254q-23 23 -23 45q0 26 18 43.5t44 17.5q22 0 45 -20l213 -203l213 203q23 20 47 20q25 0 42 -17.5t17 -43.5q0 -23 -22 -45l-250 -254q-20 -20 -47 -20q-25 0 -45 20zM588 1352q333 0 534 -184t201 -490q0 -304 -203 -491t-532 -187h-318q-36 0 -60 24
t-24 60v1184q0 36 24 60t60 24h318zM586 143q258 0 414.5 146.5t156.5 388.5q0 243 -155 386.5t-416 143.5h-240v-1065h240z" />
    <glyph glyph-name="dcaron" unicode="&#x10f;" horiz-adv-x="1544" 
d="M1044 1559q33 0 55.5 -23.5t22.5 -58.5v-1418q0 -35 -22.5 -58.5t-55.5 -23.5q-35 0 -57 24t-22 58v88q-60 -79 -156 -124.5t-213 -45.5q-139 0 -252 68t-177.5 187.5t-64.5 265.5q0 224 141.5 373t352.5 149q115 0 212 -46.5t157 -125.5v629q0 34 22 58t57 24z
M1438 1559q38 0 63.5 -29t14.5 -78l-66 -301q-4 -21 -21.5 -40t-48.5 -19q-32 0 -53.5 25t-15.5 65l43 299q5 34 28.5 56t55.5 22zM618 123q155 0 252 104t97 271t-97 271.5t-252 104.5q-153 0 -253.5 -106t-100.5 -268q0 -163 100 -270t254 -107z" />
    <glyph glyph-name="Dcroat" unicode="&#x110;" horiz-adv-x="1421" 
d="M588 1352q333 0 534 -184t201 -490q0 -304 -203 -491t-532 -187h-318q-36 0 -60 24t-24 60v477h-129q-31 0 -52 19.5t-21 48.5q0 28 21 47.5t52 19.5h129v572q0 36 24 60t60 24h318zM586 143q258 0 414.5 146.5t156.5 388.5q0 243 -155 386.5t-416 143.5h-240v-512h201
q32 0 53 -19.5t21 -47.5q0 -29 -21 -48.5t-53 -19.5h-201v-418h240z" />
    <glyph glyph-name="dcroat" unicode="&#x111;" horiz-adv-x="1298" 
d="M1227 1321q30 0 49.5 -18.5t19.5 -47.5q0 -28 -20 -46.5t-49 -18.5h-109v-1131q0 -35 -22 -58.5t-56 -23.5q-33 0 -55 24t-22 58v93q-61 -81 -159.5 -128t-215.5 -47q-206 0 -347 145t-141 361t140.5 362t347.5 146q117 0 215.5 -46.5t159.5 -127.5v373h-390
q-28 0 -47.5 18.5t-19.5 46.5q0 29 19.5 47.5t47.5 18.5h390v156q0 34 22 58t55 24q34 0 56 -23.5t22 -58.5v-156h109zM616 119q157 0 252 100t95 264q0 165 -95.5 266t-251.5 101q-154 0 -254 -103.5t-100 -263.5q0 -159 99.5 -261.5t254.5 -102.5z" />
    <glyph glyph-name="Emacron" unicode="&#x112;" horiz-adv-x="1159" 
d="M862 1706q28 0 48 -19t20 -45q0 -29 -20 -47t-48 -18h-485q-28 0 -48 19t-20 46q0 26 20 45t48 19h485zM260 0q-32 0 -53 21.5t-21 52.5v1204q0 31 21 52.5t53 21.5h727q31 0 52.5 -21.5t21.5 -50.5q0 -31 -21.5 -51.5t-52.5 -20.5h-641v-413h477q31 0 52.5 -20.5
t21.5 -51.5q0 -29 -21.5 -50.5t-52.5 -21.5h-477v-508h666q31 0 52 -20t21 -51q0 -30 -21.5 -51t-51.5 -21h-752z" />
    <glyph glyph-name="emacron" unicode="&#x113;" horiz-adv-x="1169" 
d="M385 1313q-29 0 -48.5 18.5t-19.5 46.5q0 27 19.5 45.5t48.5 18.5h444q29 0 48.5 -18.5t19.5 -45.5q0 -28 -19.5 -46.5t-48.5 -18.5h-444zM612 1020q198 0 326.5 -130t128.5 -331v-10q0 -98 -96 -98h-705q15 -148 115.5 -238t251.5 -90q147 0 260 96q26 23 53 23
q30 0 50 -20t20 -50q0 -36 -39 -72q-147 -123 -346 -123q-227 0 -378 149t-151 372q0 144 67.5 264t185 189t257.5 69zM608 877q-126 0 -218 -79t-118 -208h633q-3 127 -85 207t-212 80z" />
    <glyph glyph-name="Ebreve" unicode="&#x114;" horiz-adv-x="1159" 
d="M621 1499q-122 0 -215 79.5t-93 184.5q0 29 19 49.5t47 20.5q50 0 65 -66q15 -67 63 -106t114 -39q69 0 116.5 39.5t61.5 105.5q12 66 63 66q29 0 48.5 -20.5t19.5 -49.5q0 -106 -92.5 -185t-216.5 -79zM260 0q-32 0 -53 21.5t-21 52.5v1204q0 31 21 52.5t53 21.5h727
q31 0 52.5 -21.5t21.5 -50.5q0 -31 -21.5 -51.5t-52.5 -20.5h-641v-413h477q31 0 52.5 -20.5t21.5 -51.5q0 -29 -21.5 -50.5t-52.5 -21.5h-477v-508h666q31 0 52 -20t21 -51q0 -30 -21.5 -51t-51.5 -21h-752z" />
    <glyph glyph-name="ebreve" unicode="&#x115;" horiz-adv-x="1169" 
d="M608 1192q-124 0 -217.5 88.5t-93.5 204.5q0 31 18.5 51t46.5 20q62 0 68 -65q6 -72 57.5 -120t120.5 -48q70 0 121 48t59 120q3 29 22 47t44 18q29 0 48.5 -20t19.5 -51q0 -119 -92.5 -206t-221.5 -87zM612 1020q198 0 326.5 -130t128.5 -331v-10q0 -98 -96 -98h-705
q15 -148 115.5 -238t251.5 -90q147 0 260 96q26 23 53 23q30 0 50 -20t20 -50q0 -36 -39 -72q-147 -123 -346 -123q-227 0 -378 149t-151 372q0 144 67.5 264t185 189t257.5 69zM608 877q-126 0 -218 -79t-118 -208h633q-3 127 -85 207t-212 80z" />
    <glyph glyph-name="Edotaccent" unicode="&#x116;" horiz-adv-x="1159" 
d="M621 1772q46 0 80 -33.5t34 -79.5q0 -47 -34 -80t-80 -33q-48 0 -82.5 33t-34.5 80q0 46 35 79.5t82 33.5zM260 0q-32 0 -53 21.5t-21 52.5v1204q0 31 21 52.5t53 21.5h727q31 0 52.5 -21.5t21.5 -50.5q0 -31 -21.5 -51.5t-52.5 -20.5h-641v-413h477q31 0 52.5 -20.5
t21.5 -51.5q0 -29 -21.5 -50.5t-52.5 -21.5h-477v-508h666q31 0 52 -20t21 -51q0 -30 -21.5 -51t-51.5 -21h-752z" />
    <glyph glyph-name="edotaccent" unicode="&#x117;" horiz-adv-x="1169" 
d="M608 1266q-48 0 -82 32.5t-34 79.5q0 46 34.5 79.5t81.5 33.5q46 0 80.5 -33.5t34.5 -79.5q0 -47 -34.5 -79.5t-80.5 -32.5zM612 1020q198 0 326.5 -130t128.5 -331v-10q0 -98 -96 -98h-705q15 -148 115.5 -238t251.5 -90q147 0 260 96q26 23 53 23q30 0 50 -20t20 -50
q0 -36 -39 -72q-147 -123 -346 -123q-227 0 -378 149t-151 372q0 144 67.5 264t185 189t257.5 69zM608 877q-126 0 -218 -79t-118 -208h633q-3 127 -85 207t-212 80z" />
    <glyph glyph-name="Eogonek" unicode="&#x118;" horiz-adv-x="1159" 
d="M1028 -258q23 0 38 -16t15 -41q0 -47 -49 -62q-47 -14 -110 -14q-98 0 -159 49.5t-61 128.5q0 111 138 213h-580q-32 0 -53 21.5t-21 52.5v1204q0 31 21 52.5t53 21.5h727q31 0 52.5 -21.5t21.5 -50.5q0 -31 -21.5 -51.5t-52.5 -20.5h-641v-413h477q31 0 52.5 -20.5
t21.5 -51.5q0 -29 -21.5 -50.5t-52.5 -21.5h-477v-508h666q31 0 52 -20t21 -51q0 -46 -38 -64l-89 -63q-62 -47 -84 -74.5t-22 -58.5q0 -34 28.5 -54t75.5 -20q14 0 40 2t32 2z" />
    <glyph glyph-name="eogonek" unicode="&#x119;" horiz-adv-x="1169" 
d="M612 1020q198 0 326.5 -130t128.5 -331v-10q0 -98 -96 -98h-705q15 -148 115.5 -238t251.5 -90q147 0 260 96q26 23 53 23q30 0 50 -20t20 -50q0 -36 -39 -72q-42 -33 -64 -45l-47 -32q-7 -5 -30.5 -20.5t-32 -22t-28.5 -21t-29 -22.5t-24 -21.5t-22 -24t-15.5 -24
t-11.5 -26.5t-3 -27q0 -36 29 -57t77 -21q14 0 39 3t31 3q23 0 38 -16t15 -41q0 -47 -49 -62q-51 -14 -111 -14q-101 0 -161 50.5t-60 137.5q0 89 94 180q-220 6 -365 154.5t-145 366.5q0 144 67.5 264t185 189t257.5 69zM608 877q-126 0 -218 -79t-118 -208h633
q-3 127 -85 207t-212 80z" />
    <glyph glyph-name="Ecaron" unicode="&#x11a;" horiz-adv-x="1159" 
d="M575 1495l-251 254q-23 23 -23 45q0 26 17.5 43.5t43.5 17.5q23 0 46 -20l213 -203l213 203q23 20 47 20q25 0 42 -17.5t17 -43.5q0 -23 -22 -45l-250 -254q-20 -20 -47 -20q-26 0 -46 20zM1012 143q31 0 52 -20t21 -51q0 -30 -21.5 -51t-51.5 -21h-752q-32 0 -53 21.5
t-21 52.5v1204q0 31 21 52.5t53 21.5h727q31 0 52.5 -21.5t21.5 -50.5q0 -31 -21.5 -51.5t-52.5 -20.5h-641v-413h477q31 0 52.5 -20.5t21.5 -51.5q0 -29 -21.5 -50.5t-52.5 -21.5h-477v-508h666z" />
    <glyph glyph-name="ecaron" unicode="&#x11b;" horiz-adv-x="1169" 
d="M549 1186l-223 299q-15 18 -15 45q0 28 20.5 48.5t49.5 20.5q34 0 53 -26l174 -223l176 223q19 26 54 26q29 0 49 -20.5t20 -48.5q0 -26 -16 -45l-221 -299q-26 -29 -62 -29q-33 0 -59 29zM612 1020q198 0 326.5 -130t128.5 -331v-10q0 -98 -96 -98h-705
q15 -148 115.5 -238t251.5 -90q147 0 260 96q26 23 53 23q30 0 50 -20t20 -50q0 -36 -39 -72q-147 -123 -346 -123q-227 0 -378 149t-151 372q0 144 67.5 264t185 189t257.5 69zM608 877q-126 0 -218 -79t-118 -208h633q-3 127 -85 207t-212 80z" />
    <glyph glyph-name="Gcircumflex" unicode="&#x11c;" horiz-adv-x="1527" 
d="M545 1475q-26 0 -44 17.5t-18 43.5q0 22 23 45l252 254q20 20 45 20q27 0 47 -20l250 -254q22 -22 22 -45q0 -26 -17 -43.5t-42 -17.5q-24 0 -47 20l-213 203l-213 -203q-23 -20 -45 -20zM1335 688q36 0 60 -24t24 -60v-219q0 -61 -33 -111q-94 -138 -251 -217.5
t-334 -79.5q-146 0 -276 54.5t-224 147.5t-148.5 222.5t-54.5 274.5t54.5 274.5t148.5 222.5t224 147t276 54q158 0 302.5 -68t229.5 -182q25 -36 25 -59q0 -28 -22 -50t-54 -22q-40 0 -74 39q-93 102 -189 148.5t-218 46.5q-232 0 -384.5 -156.5t-152.5 -392.5
q0 -157 70.5 -284.5t195.5 -200t279 -72.5q141 0 260 60.5t191 168.5v195h-386q-35 0 -59 21t-24 50q0 31 24 51.5t59 20.5h461z" />
    <glyph glyph-name="gcircumflex" unicode="&#x11d;" horiz-adv-x="1304" 
d="M410 1157q-29 0 -49.5 21t-20.5 49t14 45l224 299q25 28 59 28q36 0 61 -28l222 -299q16 -19 16 -45q0 -28 -20.5 -49t-49.5 -21q-34 0 -53 27l-176 223l-174 -223q-8 -11 -23 -19t-30 -8zM1055 1018q33 0 55.5 -23.5t22.5 -58.5v-840q0 -226 -130.5 -356.5
t-355.5 -130.5q-121 0 -234.5 41.5t-201.5 118.5q-25 25 -25 57q0 31 21 52.5t53 21.5q25 0 45 -17q169 -129 338 -129q158 0 245 87t87 247v88q-59 -78 -156.5 -122t-214.5 -44q-211 0 -350 143t-139 361t139 362t350 144q116 0 213.5 -46t157.5 -126v88q0 35 22.5 58.5
t57.5 23.5zM629 156q157 0 252.5 98.5t95.5 259.5q0 160 -95.5 258t-252.5 98q-154 0 -254.5 -101t-100.5 -257q0 -155 100 -255.5t255 -100.5z" />
    <glyph glyph-name="Gbreve" unicode="&#x11e;" horiz-adv-x="1527" 
d="M805 1499q-122 0 -214.5 79.5t-92.5 184.5q0 29 18.5 49.5t46.5 20.5q51 0 66 -66q15 -67 62.5 -106t113.5 -39q69 0 116.5 39.5t61.5 105.5q12 66 64 66q29 0 48 -20t19 -50q0 -106 -92.5 -185t-216.5 -79zM801 -23q-146 0 -276 54.5t-224 147.5t-148.5 222.5
t-54.5 274.5t54.5 274.5t148.5 222.5t224 147t276 54q158 0 302.5 -68t229.5 -182q25 -36 25 -59q0 -28 -22 -50t-54 -22q-40 0 -74 39q-93 102 -189 148.5t-218 46.5q-232 0 -384.5 -156.5t-152.5 -392.5q0 -157 70.5 -284.5t195.5 -200t279 -72.5q141 0 260 60.5
t191 168.5v195h-386q-35 0 -59 21t-24 50q0 31 24 51.5t59 20.5h461q36 0 60 -24t24 -60v-219q0 -61 -33 -111q-94 -138 -251 -217.5t-334 -79.5z" />
    <glyph glyph-name="gbreve" unicode="&#x11f;" horiz-adv-x="1304" 
d="M637 1192q-124 0 -217.5 88.5t-93.5 204.5q0 31 18.5 51t46.5 20q62 0 68 -65q6 -72 57.5 -120t120.5 -48q70 0 121 48t59 120q3 29 22 47t44 18q29 0 48 -20t19 -51q0 -119 -92.5 -206t-220.5 -87zM1055 1018q33 0 55.5 -23.5t22.5 -58.5v-840q0 -226 -130.5 -356.5
t-355.5 -130.5q-121 0 -234.5 41.5t-201.5 118.5q-25 25 -25 57q0 31 21 52.5t53 21.5q25 0 45 -17q169 -129 338 -129q158 0 245 87t87 247v88q-59 -78 -156.5 -122t-214.5 -44q-211 0 -350 143t-139 361t139 362t350 144q116 0 213.5 -46t157.5 -126v88q0 35 22.5 58.5
t57.5 23.5zM629 156q157 0 252.5 98.5t95.5 259.5q0 160 -95.5 258t-252.5 98q-154 0 -254.5 -101t-100.5 -257q0 -155 100 -255.5t255 -100.5z" />
    <glyph glyph-name="Gdotaccent" unicode="&#x120;" horiz-adv-x="1527" 
d="M805 1772q46 0 80.5 -33.5t34.5 -79.5q0 -47 -34.5 -80t-80.5 -33q-48 0 -82.5 33t-34.5 80q0 46 35 79.5t82 33.5zM801 -23q-146 0 -276 54.5t-224 147.5t-148.5 222.5t-54.5 274.5t54.5 274.5t148.5 222.5t224 147t276 54q158 0 302.5 -68t229.5 -182q25 -36 25 -59
q0 -28 -22 -50t-54 -22q-40 0 -74 39q-93 102 -189 148.5t-218 46.5q-232 0 -384.5 -156.5t-152.5 -392.5q0 -157 70.5 -284.5t195.5 -200t279 -72.5q141 0 260 60.5t191 168.5v195h-386q-35 0 -59 21t-24 50q0 31 24 51.5t59 20.5h461q36 0 60 -24t24 -60v-219
q0 -61 -33 -111q-94 -138 -251 -217.5t-334 -79.5z" />
    <glyph glyph-name="gdotaccent" unicode="&#x121;" horiz-adv-x="1304" 
d="M637 1266q-48 0 -82.5 32.5t-34.5 79.5q0 46 35 79.5t82 33.5q46 0 80.5 -33.5t34.5 -79.5q0 -47 -34.5 -79.5t-80.5 -32.5zM1055 1018q33 0 55.5 -23.5t22.5 -58.5v-840q0 -226 -130.5 -356.5t-355.5 -130.5q-121 0 -234.5 41.5t-201.5 118.5q-25 25 -25 57
q0 31 21 52.5t53 21.5q25 0 45 -17q169 -129 338 -129q158 0 245 87t87 247v88q-59 -78 -156.5 -122t-214.5 -44q-211 0 -350 143t-139 361t139 362t350 144q116 0 213.5 -46t157.5 -126v88q0 35 22.5 58.5t57.5 23.5zM629 156q157 0 252.5 98.5t95.5 259.5q0 160 -95.5 258
t-252.5 98q-154 0 -254.5 -101t-100.5 -257q0 -155 100 -255.5t255 -100.5z" />
    <glyph glyph-name="Gcommaaccent" unicode="&#x122;" horiz-adv-x="1527" 
d="M801 -23q-146 0 -276 54.5t-224 147.5t-148.5 222.5t-54.5 274.5t54.5 274.5t148.5 222.5t224 147t276 54q158 0 302.5 -68t229.5 -182q25 -36 25 -59q0 -28 -22 -50t-54 -22q-40 0 -74 39q-93 102 -189 148.5t-218 46.5q-232 0 -384.5 -156.5t-152.5 -392.5
q0 -157 70.5 -284.5t195.5 -200t279 -72.5q141 0 260 60.5t191 168.5v195h-386q-35 0 -59 21t-24 50q0 31 24 51.5t59 20.5h461q36 0 60 -24t24 -60v-219q0 -61 -33 -111q-94 -138 -251 -217.5t-334 -79.5zM764 -453q-27 0 -48.5 20.5t-21.5 45.5q0 3 13.5 68.5t13.5 142.5
q0 32 24 56t56 24q33 0 56.5 -23.5t23.5 -56.5q0 -101 -41 -207q-26 -70 -76 -70z" />
    <glyph glyph-name="gcommaaccent" unicode="&#x123;" horiz-adv-x="1304" 
d="M635 1157q-33 0 -56.5 22t-23.5 58q0 122 61 342q14 59 68 59q25 0 44.5 -17.5t19.5 -47.5q0 -3 -1.5 -10.5t-3 -17.5t-2.5 -15q-28 -194 -28 -293q0 -35 -23.5 -57.5t-54.5 -22.5zM1055 1018q33 0 55.5 -23.5t22.5 -58.5v-840q0 -226 -130.5 -356.5t-355.5 -130.5
q-121 0 -234.5 41.5t-201.5 118.5q-25 25 -25 57q0 31 21 52.5t53 21.5q25 0 45 -17q169 -129 338 -129q158 0 245 87t87 247v88q-59 -78 -156.5 -122t-214.5 -44q-211 0 -350 143t-139 361t139 362t350 144q116 0 213.5 -46t157.5 -126v88q0 35 22.5 58.5t57.5 23.5z
M629 156q157 0 252.5 98.5t95.5 259.5q0 160 -95.5 258t-252.5 98q-154 0 -254.5 -101t-100.5 -257q0 -155 100 -255.5t255 -100.5z" />
    <glyph glyph-name="Hcircumflex" unicode="&#x124;" horiz-adv-x="1449" 
d="M465 1475q-26 0 -44 17.5t-18 43.5q0 22 23 45l252 254q20 20 45 20q27 0 47 -20l250 -254q22 -22 22 -45q0 -26 -17 -43.5t-42 -17.5q-24 0 -47 20l-213 203l-213 -203q-23 -20 -45 -20zM1184 1374q35 0 57.5 -24t22.5 -58v-1233q0 -34 -22.5 -58t-57.5 -24
q-34 0 -57 24t-23 58v592h-758v-592q0 -34 -23 -58t-57 -24q-35 0 -57.5 24t-22.5 58v1233q0 34 22.5 58t57.5 24q34 0 57 -24t23 -58v-497h758v497q0 34 23 58t57 24z" />
    <glyph glyph-name="hcircumflex" unicode="&#x125;" horiz-adv-x="1159" 
d="M543 1679l-213 203l-213 -203q-23 -20 -45 -20q-26 0 -44 17.5t-18 43.5q0 22 23 45l252 254q21 21 45 21q26 0 47 -21l250 -254q22 -22 22 -45q0 -26 -17 -43.5t-42 -17.5q-24 0 -47 20zM631 1020q169 0 268.5 -106.5t99.5 -286.5v-568q0 -35 -22.5 -58.5t-54.5 -23.5
q-35 0 -57.5 24t-22.5 58v547q0 121 -68.5 194.5t-179.5 73.5q-115 0 -188.5 -75.5t-73.5 -192.5v-547q0 -35 -22.5 -58.5t-55.5 -23.5q-35 0 -57.5 24t-22.5 58v1418q0 34 22.5 58t57.5 24q33 0 55.5 -23.5t22.5 -58.5v-592q107 135 299 135z" />
    <glyph glyph-name="Hbar" unicode="&#x126;" horiz-adv-x="1472" 
d="M274 -23q-34 0 -56.5 24.5t-22.5 59.5v881h-142q-29 0 -49 20t-20 48q0 29 20 48t49 19h142v213q0 35 22.5 59.5t56.5 24.5q35 0 57.5 -24t22.5 -60v-213h760v213q0 35 23 59.5t57 24.5q35 0 57.5 -24t22.5 -60v-213h141q31 0 50.5 -19t19.5 -48q0 -28 -20 -48t-50 -20
h-141v-881q0 -36 -22.5 -60t-57.5 -24q-34 0 -57 24.5t-23 59.5v457h-760v-457q0 -36 -22.5 -60t-57.5 -24zM354 664h760v278h-760v-278z" />
    <glyph glyph-name="hbar" unicode="&#x127;" horiz-adv-x="1167" 
d="M637 991q169 0 270 -106.5t101 -284.5v-541q0 -35 -22.5 -58.5t-55.5 -23.5q-35 0 -57.5 24t-22.5 58v523q0 119 -68.5 191.5t-179.5 72.5q-116 0 -191 -74t-75 -190v-523q0 -34 -22.5 -58t-55.5 -24q-32 0 -55 24t-23 58v1127h-104q-31 0 -52.5 20t-21.5 49
q0 30 21.5 50t52.5 20h104v152q0 35 22.5 58.5t55.5 23.5t55.5 -24t22.5 -58v-152h350q30 0 51 -20t21 -50q0 -29 -21 -49t-51 -20h-350v-332q108 137 301 137z" />
    <glyph glyph-name="Itilde" unicode="&#x128;" horiz-adv-x="530" 
d="M0 1518q-29 0 -49.5 21t-20.5 52q0 89 51 148t128 59q72 0 143 -47l70 -45q23 -16 32 -22t25 -12.5t31 -6.5q56 0 59 64q1 31 19.5 50t46.5 19q30 0 50.5 -21.5t20.5 -52.5q0 -89 -51.5 -147.5t-126.5 -58.5q-72 0 -143 47l-70 45q-9 5 -23.5 14.5t-22.5 14t-19.5 8.5
t-22.5 4q-58 0 -61 -64q-2 -31 -19.5 -50t-46.5 -19zM266 -23q-35 0 -57.5 24t-22.5 60v1229q0 36 22.5 60t57.5 24q34 0 57 -24.5t23 -59.5v-1229q0 -35 -23 -59.5t-57 -24.5z" />
    <glyph glyph-name="itilde" unicode="&#x129;" horiz-adv-x="503" 
d="M385 1221q-63 0 -131 59l-39 37q-49 49 -78 49q-53 0 -53 -66q-1 -32 -20.5 -52.5t-47.5 -20.5t-46.5 23t-18.5 55q0 90 49.5 148t124.5 58q63 0 131 -59l39 -37q30 -29 46.5 -39t31.5 -10q50 0 53 66q1 32 20 52.5t46 20.5q29 0 48 -22.5t19 -55.5q0 -90 -49.5 -148
t-124.5 -58zM250 -23q-33 0 -54.5 24t-21.5 58v879q0 34 22.5 58t57.5 24q33 0 55.5 -24t22.5 -58v-879q0 -34 -24 -58t-58 -24z" />
    <glyph glyph-name="Imacron" unicode="&#x12a;" horiz-adv-x="530" 
d="M510 1706q28 0 48 -19t20 -45q0 -29 -20 -47t-48 -18h-485q-28 0 -48 19t-20 46q0 26 20 45t48 19h485zM266 -23q-35 0 -57.5 24t-22.5 60v1229q0 36 22.5 60t57.5 24q34 0 57 -24.5t23 -59.5v-1229q0 -35 -23 -59.5t-57 -24.5z" />
    <glyph glyph-name="imacron" unicode="&#x12b;" horiz-adv-x="503" 
d="M422 1442q29 0 48 -18.5t19 -45.5q0 -29 -19 -47t-48 -18h-336q-28 0 -47 18.5t-19 46.5q0 26 19 45t47 19h336zM250 -23q-33 0 -54.5 24t-21.5 58v879q0 34 22.5 58t57.5 24q33 0 55.5 -24t22.5 -58v-879q0 -34 -24 -58t-58 -24z" />
    <glyph glyph-name="Ibreve" unicode="&#x12c;" horiz-adv-x="530" 
d="M268 1499q-122 0 -214.5 79.5t-92.5 184.5q0 29 19 49.5t47 20.5q50 0 65 -66q15 -67 62.5 -106t113.5 -39q69 0 116.5 39.5t61.5 105.5q12 66 64 66q29 0 48.5 -20.5t19.5 -49.5q0 -106 -93 -185t-217 -79zM266 -23q-35 0 -57.5 24t-22.5 60v1229q0 36 22.5 60t57.5 24
q34 0 57 -24.5t23 -59.5v-1229q0 -35 -23 -59.5t-57 -24.5z" />
    <glyph glyph-name="ibreve" unicode="&#x12d;" horiz-adv-x="503" 
d="M254 1192q-124 0 -217.5 88.5t-93.5 204.5q0 31 18.5 51t46.5 20q62 0 68 -65q6 -72 57.5 -120t120.5 -48q70 0 121 48t59 120q3 29 22 47t44 18q29 0 48 -20t19 -51q0 -119 -92.5 -206t-220.5 -87zM250 -23q-33 0 -54.5 24t-21.5 58v879q0 34 22.5 58t57.5 24
q33 0 55.5 -24t22.5 -58v-879q0 -34 -24 -58t-58 -24z" />
    <glyph glyph-name="Iogonek" unicode="&#x12e;" horiz-adv-x="530" 
d="M324 -258q24 0 39.5 -16t15.5 -43q0 -45 -51 -60q-47 -14 -113 -14q-98 0 -157.5 52t-59.5 140q0 37 11 68t37 60.5t48.5 50t65.5 53.5q2 2 26 20v8v1229q0 36 22.5 60t57.5 24q34 0 57 -24.5t23 -59.5v-1229v-4v-2q0 -46 -53 -78q-146 -90 -146 -163q0 -33 27.5 -54.5
t79.5 -21.5q16 0 40 2t30 2z" />
    <glyph glyph-name="iogonek" unicode="&#x12f;" horiz-adv-x="503" 
d="M254 1266q-48 0 -82.5 32.5t-34.5 79.5q0 46 35 79.5t82 33.5q46 0 80.5 -33.5t34.5 -79.5q0 -47 -34.5 -79.5t-80.5 -32.5zM309 -258q24 0 40 -16t16 -43q0 -44 -52 -60q-47 -14 -112 -14q-98 0 -157.5 52t-59.5 140q0 48 23.5 91t52.5 70t85 71l29 22v4v879
q0 34 22.5 58t57.5 24q33 0 55.5 -24t22.5 -58v-879v-2v-2q0 -46 -53 -78q-146 -90 -146 -163q0 -33 27.5 -54.5t79.5 -21.5q16 0 39.5 2t29.5 2z" />
    <glyph glyph-name="Idotaccent" unicode="&#x130;" horiz-adv-x="530" 
d="M268 1772q46 0 80.5 -33.5t34.5 -79.5q0 -47 -34.5 -80t-80.5 -33q-48 0 -82 33t-34 80q0 46 34.5 79.5t81.5 33.5zM266 -23q-35 0 -57.5 24t-22.5 60v1229q0 36 22.5 60t57.5 24q34 0 57 -24.5t23 -59.5v-1229q0 -35 -23 -59.5t-57 -24.5z" />
    <glyph glyph-name="dotlessi" unicode="&#x131;" horiz-adv-x="503" 
d="M250 -23q-33 0 -54.5 24t-21.5 58v879q0 34 22.5 58t57.5 24q33 0 55.5 -24t22.5 -58v-879q0 -34 -24 -58t-58 -24z" />
    <glyph glyph-name="IJ" unicode="&#x132;" horiz-adv-x="1294" 
d="M266 -23q-35 0 -57.5 24t-22.5 60v1229q0 36 22.5 60t57.5 24q34 0 57 -24.5t23 -59.5v-1229q0 -35 -23 -59.5t-57 -24.5zM758 -23q-78 0 -133 15q-26 8 -43 29t-17 47q0 33 23 54t57 21q21 0 63 -6t72 -6q82 0 126 51.5t44 145.5v962q0 36 22.5 60t57.5 24t57.5 -24
t22.5 -60v-977q0 -163 -91 -249.5t-261 -86.5z" />
    <glyph glyph-name="ij" unicode="&#x133;" horiz-adv-x="1007" 
d="M254 1491q46 0 80.5 -33.5t34.5 -79.5q0 -47 -34.5 -79.5t-80.5 -32.5q-48 0 -82.5 32.5t-34.5 79.5q0 46 35 79.5t82 33.5zM758 1491q46 0 80 -33.5t34 -79.5q0 -47 -34 -79.5t-80 -32.5q-48 0 -82.5 32.5t-34.5 79.5q0 46 35 79.5t82 33.5zM250 -23q-33 0 -54.5 24
t-21.5 58v879q0 34 22.5 58t57.5 24q33 0 55.5 -24t22.5 -58v-879q0 -34 -24 -58t-58 -24zM506 -391q-38 0 -76 6q-30 5 -51 25t-21 47q0 29 20.5 48t51.5 19q7 0 24 -1t29 -1q40 0 73 9t61.5 30t44.5 59.5t16 92.5v995q0 34 22.5 58t57.5 24q33 0 55.5 -23.5t22.5 -58.5
v-1006q0 -163 -89.5 -243t-240.5 -80z" />
    <glyph glyph-name="Jcircumflex" unicode="&#x134;" horiz-adv-x="763" 
d="M776 1581q23 -23 23 -45q0 -26 -17.5 -43.5t-42.5 -17.5q-24 0 -47 20l-213 203l-213 -203q-23 -20 -45 -20q-26 0 -43.5 17.5t-17.5 43.5q0 23 22 45l252 254q20 20 45 20q27 0 47 -20zM500 1374q35 0 57.5 -24t22.5 -60v-977q0 -163 -91.5 -249.5t-261.5 -86.5
q-78 0 -133 15q-26 7 -42.5 28.5t-16.5 47.5q0 33 23 54t57 21q21 0 63 -6t72 -6q82 0 126 51.5t44 145.5v962q0 36 22.5 60t57.5 24z" />
    <glyph glyph-name="jcircumflex" unicode="&#x135;" horiz-adv-x="503" 
d="M537 1272q16 -19 16 -45q0 -28 -20.5 -49t-49.5 -21q-34 0 -53 27l-176 223l-174 -223q-8 -11 -23 -19t-30 -8q-29 0 -49.5 21t-20.5 49t14 45l224 299q25 28 59 28q36 0 61 -28zM254 1020q33 0 55.5 -23.5t22.5 -58.5v-1006q0 -163 -89.5 -243t-240.5 -80q-38 0 -76 6
q-30 5 -50.5 25t-20.5 47q0 29 20 48t51 19q7 0 24.5 -1t29.5 -1q194 0 194 191v995q0 34 22.5 58t57.5 24z" />
    <glyph glyph-name="Kcommaaccent" unicode="&#x136;" horiz-adv-x="1296" 
d="M266 1374q34 0 57 -24.5t23 -59.5v-1229q0 -35 -23 -59.5t-57 -24.5q-35 0 -57.5 24t-22.5 60v1229q0 36 22.5 60t57.5 24zM1167 109q31 -24 31 -60q0 -29 -21.5 -50.5t-52.5 -21.5q-30 0 -63 33l-645 660q-25 29 -25 55q0 27 27 57l586 559q36 33 61 33q31 0 52.5 -21
t21.5 -50q0 -32 -35 -64l-537 -514zM618 -96q33 0 56.5 -23.5t23.5 -56.5q0 -101 -41 -207q-26 -70 -75 -70q-27 0 -48.5 20.5t-21.5 45.5q0 3 13.5 68.5t13.5 142.5q0 32 23.5 56t55.5 24z" />
    <glyph glyph-name="kcommaaccent" unicode="&#x137;" horiz-adv-x="1036" 
d="M254 1559q33 0 55.5 -23.5t22.5 -58.5v-1418q0 -35 -22.5 -58.5t-55.5 -23.5q-35 0 -57.5 24t-22.5 58v1418q0 34 22.5 58t57.5 24zM973 109q24 -21 24 -56q0 -32 -22.5 -54t-54.5 -22q-36 0 -68 37l-444 486q-23 23 -23 57t23 57l399 381q25 25 59 25q32 0 55 -21.5
t23 -50.5q0 -33 -35 -65l-348 -324zM516 -96q33 0 56.5 -23.5t23.5 -56.5q0 -101 -41 -207q-26 -70 -76 -70q-27 0 -48 20.5t-21 45.5q0 3 13 68.5t13 142.5q0 32 24 56t56 24z" />
    <glyph glyph-name="Lacute" unicode="&#x139;" horiz-adv-x="1036" 
d="M293 1489q-38 4 -54.5 37t-0.5 65l133 256q26 50 80 43q43 -5 63 -44t-6 -85l-146 -231q-23 -44 -69 -41zM270 0q-36 0 -60 24t-24 60v1206q0 36 22.5 60t57.5 24q34 0 57 -24.5t23 -59.5v-1147h576q32 0 52.5 -20t20.5 -51q0 -30 -20.5 -51t-52.5 -21h-652z" />
    <glyph glyph-name="lacute" unicode="&#x13a;" horiz-adv-x="503" 
d="M281 1673q-38 4 -55 37.5t-1 65.5l133 256q26 50 80 43q43 -5 63.5 -44t-5.5 -85l-146 -232q-23 -44 -69 -41zM254 -23q-35 0 -57.5 24t-22.5 58v1418q0 34 22.5 58t57.5 24q33 0 55.5 -24t22.5 -58v-1418q0 -34 -22.5 -58t-55.5 -24z" />
    <glyph glyph-name="Lcommaaccent" unicode="&#x13b;" horiz-adv-x="1036" 
d="M270 0q-36 0 -60 24t-24 60v1206q0 36 22.5 60t57.5 24q34 0 57 -24.5t23 -59.5v-1147h576q32 0 52.5 -20t20.5 -51q0 -30 -20.5 -51t-52.5 -21h-652zM530 -453q-27 0 -48 20.5t-21 45.5q0 3 13 68.5t13 142.5q0 32 24 56t56 24q33 0 56.5 -23.5t23.5 -56.5
q0 -101 -41 -207q-26 -70 -76 -70z" />
    <glyph glyph-name="lcommaaccent" unicode="&#x13c;" horiz-adv-x="503" 
d="M254 -23q-35 0 -57.5 24t-22.5 58v1418q0 34 22.5 58t57.5 24q33 0 55.5 -24t22.5 -58v-1418q0 -34 -22.5 -58t-55.5 -24zM213 -453q-27 0 -48.5 20.5t-21.5 45.5q0 3 13.5 68.5t13.5 142.5q0 32 24 56t56 24q33 0 56.5 -23.5t23.5 -56.5q0 -101 -41 -207
q-26 -70 -76 -70z" />
    <glyph glyph-name="Lcaron" unicode="&#x13d;" horiz-adv-x="1036" 
d="M813 1030q-33 0 -54.5 25.5t-15.5 64.5l43 299q5 34 28.5 56t55.5 22q38 0 63.5 -28.5t14.5 -77.5l-65 -301q-4 -21 -21.5 -40.5t-48.5 -19.5zM270 0q-36 0 -60 24t-24 60v1206q0 36 22.5 60t57.5 24q34 0 57 -24.5t23 -59.5v-1147h576q32 0 52.5 -20t20.5 -51
q0 -30 -20.5 -51t-52.5 -21h-652z" />
    <glyph glyph-name="lcaron" unicode="&#x13e;" horiz-adv-x="753" 
d="M254 -23q-35 0 -57.5 24t-22.5 58v1418q0 34 22.5 58t57.5 24q33 0 55.5 -24t22.5 -58v-1418q0 -34 -22.5 -58t-55.5 -24zM590 1092q-33 0 -54.5 25.5t-15.5 64.5l43 299q5 34 28.5 56t55.5 22q38 0 63.5 -29t14.5 -78l-66 -301q-4 -21 -21 -40t-48 -19z" />
    <glyph glyph-name="Ldot" unicode="&#x13f;" horiz-adv-x="1036" 
d="M270 0q-36 0 -60 24t-24 60v1206q0 36 22.5 60t57.5 24q34 0 57 -24.5t23 -59.5v-1147h576q32 0 52.5 -20t20.5 -51q0 -30 -20.5 -51t-52.5 -21h-652zM784 625q-53 0 -91 37.5t-38 91.5t38 91.5t91 37.5t91 -37.5t38 -91.5t-38 -91.5t-91 -37.5z" />
    <glyph glyph-name="ldot" unicode="&#x140;" horiz-adv-x="641" 
d="M254 -23q-35 0 -57.5 24t-22.5 58v1418q0 34 22.5 58t57.5 24q33 0 55.5 -24t22.5 -58v-1418q0 -34 -22.5 -58t-55.5 -24zM569 514q-53 0 -91 37.5t-38 91.5t38 91.5t91 37.5t91 -37.5t38 -91.5t-38 -91.5t-91 -37.5z" />
    <glyph glyph-name="Lslash" unicode="&#x141;" horiz-adv-x="1036" 
d="M922 143q32 0 52.5 -20t20.5 -51q0 -30 -20.5 -51t-52.5 -21h-652q-36 0 -60 24t-24 60v436l-59 -26q-40 -19 -75.5 -2t-35.5 55q0 49 52 71l118 54v618q0 36 22.5 60t57.5 24q34 0 57 -24.5t23 -59.5v-561l350 160q40 19 74.5 2t34.5 -55q0 -52 -49 -70l-410 -186v-437
h576z" />
    <glyph glyph-name="lslash" unicode="&#x142;" horiz-adv-x="737" 
d="M553 889q30 0 49.5 -19.5t18.5 -48.5q-3 -47 -39 -63l-150 -68v-631q0 -35 -21.5 -58.5t-56.5 -23.5q-34 0 -57 24t-23 58v578l-69 -33q-16 -8 -33 -8q-28 0 -48.5 19.5t-19.5 48.5q3 45 41 63l129 59v691q0 34 23 58t57 24q35 0 56.5 -23.5t21.5 -58.5v-637l88 41
q20 8 33 8z" />
    <glyph glyph-name="Nacute" unicode="&#x143;" horiz-adv-x="1449" 
d="M752 1489q-39 4 -55.5 37t-0.5 65l133 256q26 50 80 43q43 -5 63.5 -44t-5.5 -85l-146 -231q-23 -44 -69 -41zM1184 1374q35 0 57.5 -24t22.5 -60v-1235q0 -31 -22.5 -54.5t-55.5 -23.5q-40 0 -70 41l-770 1033v-990q0 -35 -23 -59.5t-57 -24.5q-35 0 -57.5 24t-22.5 60
v1235q0 31 23.5 54.5t56.5 23.5q37 0 76 -53l764 -1020l-2 989q0 35 23 59.5t57 24.5z" />
    <glyph glyph-name="nacute" unicode="&#x144;" horiz-adv-x="1159" 
d="M623 1157q-31 0 -51.5 19.5t-20.5 48.5q0 17 10 37l129 288q20 49 76 49q30 0 54 -23t24 -56q0 -17 -13 -43l-145 -275q-27 -45 -63 -45zM629 1020q170 0 270 -106.5t100 -286.5v-568q0 -35 -22.5 -58.5t-54.5 -23.5q-35 0 -57.5 24t-22.5 58v549q0 121 -68.5 193.5
t-179.5 72.5q-115 0 -188.5 -74.5t-73.5 -191.5v-549q0 -35 -22.5 -58.5t-55.5 -23.5q-35 0 -57.5 24t-22.5 58v879q0 34 22.5 58t57.5 24q32 0 55 -24t23 -58v-37q116 119 297 119z" />
    <glyph glyph-name="Ncommaaccent" unicode="&#x145;" horiz-adv-x="1449" 
d="M1184 1374q35 0 57.5 -24t22.5 -60v-1235q0 -31 -22.5 -54.5t-55.5 -23.5q-40 0 -70 41l-770 1033v-990q0 -35 -23 -59.5t-57 -24.5q-35 0 -57.5 24t-22.5 60v1235q0 31 23.5 54.5t56.5 23.5q37 0 76 -53l764 -1020l-2 989q0 35 23 59.5t57 24.5zM721 -96
q33 0 56.5 -23.5t23.5 -56.5q0 -101 -41 -207q-26 -70 -76 -70q-27 0 -48.5 20.5t-21.5 45.5q0 3 13.5 68.5t13.5 142.5q0 32 24 56t56 24z" />
    <glyph glyph-name="ncommaaccent" unicode="&#x146;" horiz-adv-x="1159" 
d="M629 1020q170 0 270 -106.5t100 -286.5v-568q0 -35 -22.5 -58.5t-54.5 -23.5q-35 0 -57.5 24t-22.5 58v549q0 121 -68.5 193.5t-179.5 72.5q-115 0 -188.5 -74.5t-73.5 -191.5v-549q0 -35 -22.5 -58.5t-55.5 -23.5q-35 0 -57.5 24t-22.5 58v879q0 34 22.5 58t57.5 24
q32 0 55 -24t23 -58v-37q116 119 297 119zM580 -96q33 0 56 -23.5t23 -56.5q0 -101 -41 -207q-26 -70 -75 -70q-27 0 -48.5 20.5t-21.5 45.5q0 3 13.5 68.5t13.5 142.5q0 32 24 56t56 24z" />
    <glyph glyph-name="Ncaron" unicode="&#x147;" horiz-adv-x="1449" 
d="M680 1495l-252 254q-22 22 -22 45q0 26 17.5 43.5t43.5 17.5q22 0 45 -20l213 -203l213 203q23 20 47 20q25 0 42 -17.5t17 -43.5q0 -23 -22 -45l-250 -254q-20 -20 -47 -20q-25 0 -45 20zM1184 1374q35 0 57.5 -24t22.5 -60v-1235q0 -31 -22.5 -54.5t-55.5 -23.5
q-40 0 -70 41l-770 1033v-990q0 -35 -23 -59.5t-57 -24.5q-35 0 -57.5 24t-22.5 60v1235q0 31 23.5 54.5t56.5 23.5q37 0 76 -53l764 -1020l-2 989q0 35 23 59.5t57 24.5z" />
    <glyph glyph-name="ncaron" unicode="&#x148;" horiz-adv-x="1159" 
d="M524 1186l-223 299q-14 17 -14 45t20 48.5t49 20.5q35 0 54 -26l174 -223l176 223q19 26 53 26q29 0 49.5 -20.5t20.5 -48.5q0 -25 -17 -45l-221 -299q-26 -29 -61 -29q-34 0 -60 29zM629 1020q170 0 270 -106.5t100 -286.5v-568q0 -35 -22.5 -58.5t-54.5 -23.5
q-35 0 -57.5 24t-22.5 58v549q0 121 -68.5 193.5t-179.5 72.5q-115 0 -188.5 -74.5t-73.5 -191.5v-549q0 -35 -22.5 -58.5t-55.5 -23.5q-35 0 -57.5 24t-22.5 58v879q0 34 22.5 58t57.5 24q32 0 55 -24t23 -58v-37q116 119 297 119z" />
    <glyph glyph-name="Eng" unicode="&#x14a;" horiz-adv-x="1449" 
d="M1184 1374q35 0 57.5 -24t22.5 -60v-1358q0 -156 -84.5 -239.5t-243.5 -83.5q-63 0 -90 8q-25 8 -40 26.5t-15 41.5q0 30 20.5 50.5t50.5 20.5h41q105 0 153 44.5t48 142.5v92l-758 1016v-990q0 -35 -23 -59.5t-57 -24.5q-35 0 -57.5 24t-22.5 60v1235q0 31 23.5 54.5
t56.5 23.5q37 0 76 -53l764 -1020l-2 989q0 35 23 59.5t57 24.5z" />
    <glyph glyph-name="eng" unicode="&#x14b;" horiz-adv-x="1159" 
d="M629 1020q170 0 270 -106.5t100 -286.5v-695q0 -164 -88.5 -243.5t-240.5 -79.5q-38 0 -76 6q-30 5 -50 25t-20 47q0 29 19.5 48t50.5 19q8 0 24.5 -1t28.5 -1q86 0 140.5 44.5t54.5 146.5v665q0 121 -68.5 193.5t-179.5 72.5q-115 0 -188.5 -74.5t-73.5 -191.5v-549
q0 -35 -22.5 -58.5t-55.5 -23.5q-35 0 -57.5 24t-22.5 58v879q0 34 22.5 58t57.5 24q32 0 55 -24t23 -58v-37q116 119 297 119z" />
    <glyph glyph-name="Omacron" unicode="&#x14c;" horiz-adv-x="1599" 
d="M1042 1706q28 0 48 -19t20 -45q0 -29 -20 -47t-48 -18h-485q-28 0 -48 19t-20 46q0 26 20 45t48 19h485zM799 1374q145 0 275 -55t223.5 -148t148.5 -222.5t55 -272.5q0 -192 -93 -352.5t-254.5 -253.5t-354.5 -93q-145 0 -275 54.5t-223.5 148t-148 223t-54.5 273.5
t54.5 273.5t148 222.5t223.5 147.5t275 54.5zM801 1227q-230 0 -383.5 -156.5t-153.5 -392.5q0 -238 153.5 -395.5t383.5 -157.5q150 0 272.5 72t192 199t69.5 282q0 154 -69.5 280t-192 197.5t-272.5 71.5z" />
    <glyph glyph-name="omacron" unicode="&#x14d;" horiz-adv-x="1249" 
d="M846 1442q29 0 48 -18.5t19 -45.5q0 -28 -19 -46.5t-48 -18.5h-445q-29 0 -48 18.5t-19 46.5q0 27 19 45.5t48 18.5h445zM625 1020q218 0 370 -151t152 -369q0 -217 -152.5 -368.5t-371.5 -151.5q-143 1 -263 70t-189 188.5t-69 261.5q0 219 151.5 369.5t371.5 150.5z
M625 874q-155 0 -258.5 -107.5t-102.5 -268.5q0 -160 102.5 -266.5t256.5 -106.5t258 107.5t104 265.5q0 161 -103 268.5t-257 107.5z" />
    <glyph glyph-name="Obreve" unicode="&#x14e;" horiz-adv-x="1599" 
d="M801 1499q-122 0 -214.5 79.5t-92.5 184.5q0 29 18.5 49.5t46.5 20.5q51 0 66 -66q15 -67 62.5 -106t113.5 -39q69 0 116.5 39.5t61.5 105.5q12 66 63 66q29 0 48.5 -20.5t19.5 -49.5q0 -106 -92.5 -185t-216.5 -79zM799 1374q145 0 275 -55t223.5 -148t148.5 -222.5
t55 -272.5q0 -192 -93 -352.5t-254.5 -253.5t-354.5 -93q-145 0 -275 54.5t-223.5 148t-148 223t-54.5 273.5t54.5 273.5t148 222.5t223.5 147.5t275 54.5zM801 1227q-230 0 -383.5 -156.5t-153.5 -392.5q0 -238 153.5 -395.5t383.5 -157.5q150 0 272.5 72t192 199t69.5 282
q0 154 -69.5 280t-192 197.5t-272.5 71.5z" />
    <glyph glyph-name="obreve" unicode="&#x14f;" horiz-adv-x="1249" 
d="M625 1192q-124 0 -218 88.5t-94 204.5q0 31 19 51t47 20q61 0 67 -65q6 -72 58 -120t121 -48q70 0 121 48t59 120q3 29 21.5 47t43.5 18q29 0 48.5 -20t19.5 -51q0 -119 -92.5 -206t-220.5 -87zM625 1020q218 0 370 -151t152 -369q0 -217 -152.5 -368.5t-371.5 -151.5
q-143 1 -263 70t-189 188.5t-69 261.5q0 219 151.5 369.5t371.5 150.5zM625 874q-155 0 -258.5 -107.5t-102.5 -268.5q0 -160 102.5 -266.5t256.5 -106.5t258 107.5t104 265.5q0 161 -103 268.5t-257 107.5z" />
    <glyph glyph-name="Ohungarumlaut" unicode="&#x150;" horiz-adv-x="1599" 
d="M631 1489q-39 4 -55.5 37t-0.5 65l134 256q26 49 79 43q43 -5 63.5 -44t-5.5 -85l-146 -231q-23 -44 -69 -41zM1001 1489q-38 4 -54.5 37t-0.5 65l133 256q26 50 80 43q43 -5 63.5 -44t-5.5 -85l-146 -231q-23 -44 -70 -41zM799 1374q145 0 275 -55t223.5 -148
t148.5 -222.5t55 -272.5q0 -192 -93 -352.5t-254.5 -253.5t-354.5 -93q-145 0 -275 54.5t-223.5 148t-148 223t-54.5 273.5t54.5 273.5t148 222.5t223.5 147.5t275 54.5zM801 1227q-230 0 -383.5 -156.5t-153.5 -392.5q0 -238 153.5 -395.5t383.5 -157.5q150 0 272.5 72
t192 199t69.5 282q0 154 -69.5 280t-192 197.5t-272.5 71.5z" />
    <glyph glyph-name="ohungarumlaut" unicode="&#x151;" horiz-adv-x="1249" 
d="M467 1157q-31 0 -51.5 19.5t-20.5 48.5q0 15 11 37l129 288q20 49 75 49q30 0 54 -23t24 -56q0 -19 -12 -43l-146 -275q-27 -45 -63 -45zM799 1157q-31 0 -51.5 19.5t-20.5 48.5q0 17 10 37l129 288q20 49 76 49q30 0 54 -23t24 -56q0 -19 -12 -43l-146 -275
q-27 -45 -63 -45zM625 1020q218 0 370 -151t152 -369q0 -217 -152.5 -368.5t-371.5 -151.5q-143 1 -263 70t-189 188.5t-69 261.5q0 219 151.5 369.5t371.5 150.5zM625 874q-155 0 -258.5 -107.5t-102.5 -268.5q0 -160 102.5 -266.5t256.5 -106.5t258 107.5t104 265.5
q0 161 -103 268.5t-257 107.5z" />
    <glyph glyph-name="OE" unicode="&#x152;" horiz-adv-x="2308" 
d="M2161 143q31 0 52 -20t21 -51q0 -30 -21 -51t-52 -21h-752q-32 0 -53 21.5t-21 52.5v184q-84 -130 -227 -205.5t-313 -75.5q-144 0 -273.5 54.5t-222 147.5t-147 222.5t-54.5 274.5t54.5 274.5t147.5 222.5t222.5 147t274.5 54q170 0 312 -75t226 -205v184q0 31 21 52.5
t53 21.5h727q31 0 52.5 -21.5t21.5 -50.5q0 -31 -21.5 -51.5t-52.5 -20.5h-641v-413h477q31 0 52.5 -20.5t21.5 -51.5q0 -29 -21.5 -50.5t-52.5 -21.5h-477v-508h666zM797 125q230 0 384 157.5t154 393.5t-154 393.5t-384 157.5q-150 0 -272.5 -71.5t-191.5 -198t-69 -281.5
t69.5 -281.5t192 -198t271.5 -71.5z" />
    <glyph glyph-name="oe" unicode="&#x153;" horiz-adv-x="2009" 
d="M1452 1020q198 0 326.5 -130t128.5 -331v-10q0 -98 -97 -98h-690q14 -149 109.5 -238.5t243.5 -89.5q149 0 262 96q26 23 51 23q31 0 50 -19.5t19 -50.5q0 -37 -38 -72q-138 -123 -347 -123q-139 0 -251.5 66.5t-178.5 181.5q-62 -115 -173 -181.5t-249 -66.5
q-142 0 -260.5 68.5t-187 188.5t-68.5 264q0 219 151 370.5t368 151.5q138 0 247.5 -66.5t171.5 -183.5q64 116 173 183t239 67zM1448 877q-124 0 -211.5 -78t-110.5 -209h619q-3 127 -85 207t-212 80zM618 123q151 0 249 106t98 269q0 164 -97.5 270t-246.5 106
q-154 0 -255.5 -107.5t-101.5 -268.5t101 -268t253 -107z" />
    <glyph glyph-name="Racute" unicode="&#x154;" horiz-adv-x="1273" 
d="M563 1489q-38 4 -54.5 37t-0.5 65l133 256q26 50 80 43q43 -5 63 -44t-6 -85l-145 -231q-23 -44 -70 -41zM1180 111q26 -33 26 -62q0 -30 -22 -51t-54 -21q-35 0 -69 43l-408 547h-307v-508q0 -34 -23 -58t-57 -24q-35 0 -57.5 24t-22.5 58v1211q0 34 23.5 58t58.5 24
h394q193 0 312.5 -108t119.5 -283q0 -134 -72 -231.5t-197 -137.5zM346 1208v-497h309q128 0 200.5 66t72.5 181q0 114 -73.5 182t-199.5 68h-309z" />
    <glyph glyph-name="racute" unicode="&#x155;" horiz-adv-x="741" 
d="M393 1157q-31 0 -51 19.5t-20 48.5q0 17 10 37l129 288q20 49 76 49q30 0 53.5 -23t23.5 -56q0 -19 -12 -43l-145 -275q-27 -45 -64 -45zM643 1006q34 0 57 -21t23 -53q0 -33 -23 -53.5t-57 -20.5q-135 0 -223 -83.5t-88 -211.5v-504q0 -35 -22.5 -58.5t-55.5 -23.5
q-35 0 -57.5 24t-22.5 58v879q0 34 22.5 58t57.5 24q32 0 55 -24t23 -58v-74q56 67 136.5 104.5t174.5 37.5z" />
    <glyph glyph-name="Rcommaaccent" unicode="&#x156;" horiz-adv-x="1273" 
d="M1180 111q26 -33 26 -62q0 -30 -22 -51t-54 -21q-35 0 -69 43l-408 547h-307v-508q0 -34 -23 -58t-57 -24q-35 0 -57.5 24t-22.5 58v1211q0 34 23.5 58t58.5 24h394q193 0 312.5 -108t119.5 -283q0 -134 -72 -231.5t-197 -137.5zM346 1208v-497h309q128 0 200.5 66
t72.5 181q0 114 -73.5 182t-199.5 68h-309zM614 -96q33 0 56.5 -23.5t23.5 -56.5q0 -101 -41 -207q-26 -70 -75 -70q-27 0 -48.5 20.5t-21.5 45.5q0 3 13.5 68.5t13.5 142.5q0 32 23.5 56t55.5 24z" />
    <glyph glyph-name="rcommaaccent" unicode="&#x157;" horiz-adv-x="741" 
d="M643 1006q34 0 57 -21t23 -53q0 -33 -23 -53.5t-57 -20.5q-135 0 -223 -83.5t-88 -211.5v-504q0 -35 -22.5 -58.5t-55.5 -23.5q-35 0 -57.5 24t-22.5 58v879q0 34 22.5 58t57.5 24q32 0 55 -24t23 -58v-74q56 67 136.5 104.5t174.5 37.5zM248 -96q33 0 56.5 -23.5
t23.5 -56.5q0 -101 -41 -207q-26 -70 -76 -70q-27 0 -48.5 20.5t-21.5 45.5q0 3 13.5 68.5t13.5 142.5q0 32 24 56t56 24z" />
    <glyph glyph-name="Rcaron" unicode="&#x158;" horiz-adv-x="1273" 
d="M492 1495l-252 254q-23 23 -23 45q0 26 18 43.5t44 17.5q22 0 45 -20l213 -203l213 203q23 20 47 20q25 0 42 -17.5t17 -43.5q0 -23 -22 -45l-250 -254q-20 -20 -47 -20q-25 0 -45 20zM1180 111q26 -33 26 -62q0 -30 -22 -51t-54 -21q-35 0 -69 43l-408 547h-307v-508
q0 -34 -23 -58t-57 -24q-35 0 -57.5 24t-22.5 58v1211q0 34 23.5 58t58.5 24h394q193 0 312.5 -108t119.5 -283q0 -134 -72 -231.5t-197 -137.5zM346 1208v-497h309q128 0 200.5 66t72.5 181q0 114 -73.5 182t-199.5 68h-309z" />
    <glyph glyph-name="rcaron" unicode="&#x159;" horiz-adv-x="741" 
d="M354 1157q-33 0 -59 29l-223 299q-15 18 -15 45q0 28 20.5 48.5t49.5 20.5q34 0 53 -26l174 -223l176 223q19 26 54 26q29 0 49 -20.5t20 -48.5q0 -26 -16 -45l-221 -299q-26 -29 -62 -29zM643 1006q34 0 57 -21t23 -53q0 -33 -23 -53.5t-57 -20.5q-135 0 -223 -83.5
t-88 -211.5v-504q0 -35 -22.5 -58.5t-55.5 -23.5q-35 0 -57.5 24t-22.5 58v879q0 34 22.5 58t57.5 24q32 0 55 -24t23 -58v-74q56 67 136.5 104.5t174.5 37.5z" />
    <glyph glyph-name="Sacute" unicode="&#x15a;" horiz-adv-x="1142" 
d="M602 1489q-38 4 -54.5 37t-0.5 65l133 256q26 50 80 43q43 -5 63 -44t-6 -85l-145 -231q-23 -44 -70 -41zM582 -23q-131 0 -254.5 62.5t-202.5 169.5q-19 22 -19 49q0 31 22.5 52.5t53.5 21.5q37 0 62 -31q138 -176 336 -176q122 0 197 62.5t75 162.5q0 75 -47.5 126
t-177.5 112l-152 71q-161 76 -233 162.5t-72 200.5q0 152 116.5 252t291.5 100q226 0 372 -162q29 -32 29 -65q0 -28 -23.5 -50t-52.5 -22q-28 0 -55 27q-113 125 -273 125q-107 0 -173 -54t-66 -143q0 -72 43.5 -118t173.5 -109l149 -72q170 -82 243 -169t73 -208
q0 -166 -121.5 -271.5t-314.5 -105.5z" />
    <glyph glyph-name="sacute" unicode="&#x15b;" horiz-adv-x="929" 
d="M510 1157q-31 0 -51.5 19.5t-20.5 48.5q0 15 11 37l129 288q20 49 75 49q30 0 54 -23t24 -56q0 -19 -12 -43l-146 -275q-27 -45 -63 -45zM469 -23q-114 0 -207.5 45.5t-159.5 122.5q-20 23 -20 52q0 30 22.5 51.5t53.5 21.5q30 0 55 -22q122 -125 254 -125q81 0 135.5 38
t54.5 103q0 31 -11.5 54.5t-39.5 43t-52.5 31.5t-70.5 31l-96 41q-125 52 -186.5 113.5t-61.5 162.5q0 130 96.5 204.5t239.5 74.5q196 0 316 -137q20 -23 20 -52q0 -28 -20.5 -48.5t-49.5 -20.5q-23 0 -59 31q-95 81 -215 81q-73 0 -119.5 -32.5t-46.5 -91.5
q0 -49 36.5 -79.5t125.5 -66.5l92 -39q140 -59 202 -125.5t62 -169.5q0 -139 -101.5 -216t-248.5 -77z" />
    <glyph glyph-name="Scircumflex" unicode="&#x15c;" horiz-adv-x="1142" 
d="M315 1475q-26 0 -43.5 17.5t-17.5 43.5q0 23 22 45l252 254q20 20 45 20q28 0 48 -20l249 -254q23 -23 23 -45q0 -26 -17 -43.5t-42 -17.5t-48 20l-213 203l-213 -203q-23 -20 -45 -20zM702 731q170 -82 243 -169t73 -208q0 -166 -121.5 -271.5t-314.5 -105.5
q-131 0 -254.5 62.5t-202.5 169.5q-19 22 -19 49q0 31 22.5 52.5t53.5 21.5q37 0 62 -31q138 -176 336 -176q122 0 197 62.5t75 162.5q0 75 -47.5 126t-177.5 112l-152 71q-161 76 -233 162.5t-72 200.5q0 152 116.5 252t291.5 100q226 0 372 -162q29 -32 29 -65
q0 -28 -23.5 -50t-52.5 -22q-28 0 -55 27q-113 125 -273 125q-107 0 -173 -54t-66 -143q0 -72 43.5 -118t173.5 -109z" />
    <glyph glyph-name="scircumflex" unicode="&#x15d;" horiz-adv-x="929" 
d="M244 1157q-29 0 -49.5 21t-20.5 49t14 45l224 299q25 28 59 28q36 0 61 -28l222 -299q16 -19 16 -45q0 -28 -20.5 -49t-49.5 -21q-34 0 -53 27l-176 223l-174 -223q-8 -11 -23 -19t-30 -8zM555 565q140 -59 202 -125.5t62 -169.5q0 -139 -101.5 -216t-248.5 -77
q-114 0 -207.5 45.5t-159.5 122.5q-20 23 -20 52q0 30 22.5 51.5t53.5 21.5q30 0 55 -22q122 -125 254 -125q81 0 135.5 38t54.5 103q0 31 -11.5 54.5t-39.5 43t-52.5 31.5t-70.5 31l-96 41q-125 52 -186.5 113.5t-61.5 162.5q0 130 96.5 204.5t239.5 74.5q196 0 316 -137
q20 -23 20 -52q0 -28 -20.5 -48.5t-49.5 -20.5q-23 0 -59 31q-95 81 -215 81q-73 0 -119.5 -32.5t-46.5 -91.5q0 -49 36.5 -79.5t125.5 -66.5z" />
    <glyph glyph-name="Scedilla" unicode="&#x15e;" horiz-adv-x="1142" 
d="M1018 354q0 -138 -85.5 -235.5t-230.5 -128.5q50 -78 50 -146q0 -104 -77.5 -169.5t-199.5 -65.5q-75 0 -113 14q-49 19 -49 60q0 26 18 43.5t44 17.5q12 0 38 -4t54 -4q60 0 100.5 29t40.5 83q0 65 -47 123l-6 6q-124 6 -240 68t-190 164q-19 22 -19 49q0 31 22.5 52.5
t53.5 21.5q37 0 62 -31q138 -176 336 -176q122 0 197 62.5t75 162.5q0 75 -47.5 126t-177.5 112l-152 71q-161 76 -233 162.5t-72 200.5q0 152 116.5 252t291.5 100q226 0 372 -162q29 -32 29 -65q0 -28 -23.5 -50t-52.5 -22q-28 0 -55 27q-113 125 -273 125
q-107 0 -173 -54t-66 -143q0 -72 43.5 -118t173.5 -109l149 -72q170 -82 243 -169t73 -208z" />
    <glyph glyph-name="scedilla" unicode="&#x15f;" horiz-adv-x="929" 
d="M819 270q0 -106 -60.5 -176.5t-160.5 -99.5q51 -74 51 -150q0 -104 -77 -169.5t-199 -65.5q-75 0 -113 14q-49 19 -49 60q0 26 17.5 43.5t43.5 17.5q12 0 38.5 -4t54.5 -4q60 0 100.5 29t40.5 83q0 65 -47 123l-6 6q-210 6 -351 168q-20 23 -20 52q0 30 22.5 51.5
t53.5 21.5q30 0 55 -22q122 -125 254 -125q81 0 135.5 38t54.5 103q0 31 -11.5 54.5t-39.5 43t-52.5 31.5t-70.5 31l-96 41q-125 52 -186.5 113.5t-61.5 162.5q0 130 96.5 204.5t239.5 74.5q196 0 316 -137q20 -23 20 -52q0 -28 -20.5 -48.5t-49.5 -20.5q-23 0 -59 31
q-95 81 -215 81q-73 0 -119.5 -32.5t-46.5 -91.5q0 -49 36.5 -79.5t125.5 -66.5l92 -39q140 -59 202 -125.5t62 -169.5z" />
    <glyph glyph-name="Scaron" unicode="&#x160;" horiz-adv-x="1142" 
d="M530 1495l-251 254q-23 23 -23 45q0 26 17.5 43.5t43.5 17.5q22 0 45 -20l213 -203l213 203q23 20 48 20t42 -17.5t17 -43.5q0 -22 -23 -45l-249 -254q-20 -20 -48 -20q-25 0 -45 20zM702 731q170 -82 243 -169t73 -208q0 -166 -121.5 -271.5t-314.5 -105.5
q-131 0 -254.5 62.5t-202.5 169.5q-19 22 -19 49q0 31 22.5 52.5t53.5 21.5q37 0 62 -31q138 -176 336 -176q122 0 197 62.5t75 162.5q0 75 -47.5 126t-177.5 112l-152 71q-161 76 -233 162.5t-72 200.5q0 152 116.5 252t291.5 100q226 0 372 -162q29 -32 29 -65
q0 -28 -23.5 -50t-52.5 -22q-28 0 -55 27q-113 125 -273 125q-107 0 -173 -54t-66 -143q0 -72 43.5 -118t173.5 -109z" />
    <glyph glyph-name="scaron" unicode="&#x161;" horiz-adv-x="929" 
d="M412 1186l-224 299q-14 17 -14 45t20.5 48.5t49.5 20.5q34 0 53 -26l174 -223l176 223q19 26 53 26q29 0 49.5 -20.5t20.5 -48.5q0 -26 -16 -45l-222 -299q-26 -29 -61 -29q-33 0 -59 29zM555 565q140 -59 202 -125.5t62 -169.5q0 -139 -101.5 -216t-248.5 -77
q-114 0 -207.5 45.5t-159.5 122.5q-20 23 -20 52q0 30 22.5 51.5t53.5 21.5q30 0 55 -22q122 -125 254 -125q81 0 135.5 38t54.5 103q0 31 -11.5 54.5t-39.5 43t-52.5 31.5t-70.5 31l-96 41q-125 52 -186.5 113.5t-61.5 162.5q0 130 96.5 204.5t239.5 74.5q196 0 316 -137
q20 -23 20 -52q0 -28 -20.5 -48.5t-49.5 -20.5q-23 0 -59 31q-95 81 -215 81q-73 0 -119.5 -32.5t-46.5 -91.5q0 -49 36.5 -79.5t125.5 -66.5z" />
    <glyph glyph-name="uni0162" unicode="&#x162;" horiz-adv-x="1189" 
d="M1085 1352q31 0 52.5 -21.5t21.5 -50.5q0 -31 -21.5 -51.5t-52.5 -20.5h-411v-1110q56 -14 112 -97t56 -157q0 -104 -77.5 -169.5t-199.5 -65.5q-74 0 -112 14q-50 19 -50 60q0 26 18 43.5t44 17.5q12 0 38 -4t54 -4q60 0 100.5 29t40.5 83q0 65 -47 123l-14 19
q-19 -13 -43 -13q-34 0 -57 24.5t-23 59.5v1147h-408q-32 0 -53.5 20.5t-21.5 51.5q0 30 21.5 51t53.5 21h979z" />
    <glyph glyph-name="uni0163" unicode="&#x163;" horiz-adv-x="780" 
d="M668 125q32 0 51.5 -17t19.5 -45q0 -56 -57 -71q-54 -15 -113 -15q41 -71 41 -133q0 -104 -77 -169.5t-199 -65.5q-74 0 -113 14q-49 19 -49 60q0 26 17.5 43.5t43.5 17.5q12 0 38.5 -4t54.5 -4q60 0 100.5 29t40.5 83q0 65 -47 123q-28 34 -29 35q-174 69 -174 295v555
h-102q-31 0 -52.5 20.5t-21.5 51.5q0 29 21.5 49t52.5 20h102v211q0 34 23 58t57 24t56 -23.5t22 -58.5v-211h248q29 0 50 -20t21 -49q0 -30 -21 -51t-50 -21h-248v-545q0 -98 51.5 -144t159.5 -46q19 0 45.5 2t36.5 2z" />
    <glyph glyph-name="Tcaron" unicode="&#x164;" horiz-adv-x="1189" 
d="M551 1495l-252 254q-23 23 -23 45q0 26 18 43.5t44 17.5q22 0 45 -20l213 -203l213 203q23 20 47 20q25 0 42 -17.5t17 -43.5q0 -23 -22 -45l-250 -254q-20 -20 -47 -20q-25 0 -45 20zM1085 1352q31 0 52.5 -21.5t21.5 -50.5q0 -31 -21.5 -51.5t-52.5 -20.5h-411v-1147
q0 -36 -22.5 -60t-57.5 -24q-34 0 -57 24.5t-23 59.5v1147h-408q-32 0 -53.5 20.5t-21.5 51.5q0 30 21.5 51t53.5 21h979z" />
    <glyph glyph-name="tcaron" unicode="&#x165;" horiz-adv-x="780" 
d="M698 1559q38 0 63.5 -29t14.5 -78l-65 -301q-4 -21 -21.5 -40t-48.5 -19q-33 0 -54.5 25.5t-15.5 64.5l43 299q5 34 28.5 56t55.5 22zM668 125q32 0 51.5 -17t19.5 -45q0 -56 -57 -71q-50 -15 -129 -15q-163 0 -249.5 83.5t-86.5 240.5v555h-102q-31 0 -52.5 20.5
t-21.5 51.5q0 29 21.5 49t52.5 20h102v211q0 34 23 58t57 24t56 -23.5t22 -58.5v-211h248q29 0 50 -20t21 -49q0 -30 -21 -51t-50 -21h-248v-545q0 -98 51.5 -144t159.5 -46q19 0 45.5 2t36.5 2z" />
    <glyph glyph-name="Tbar" unicode="&#x166;" horiz-adv-x="1189" 
d="M594 -23q-34 0 -57 24.5t-23 59.5v471h-336q-30 0 -49.5 20t-19.5 48q0 30 19.5 49t49.5 19h336v540h-408q-32 0 -53.5 20.5t-21.5 51.5q0 30 21.5 51t53.5 21h979q31 0 52.5 -21.5t21.5 -50.5q0 -31 -21.5 -51.5t-52.5 -20.5h-411v-540h338q31 0 51 -19.5t20 -48.5
q0 -28 -20.5 -48t-50.5 -20h-338v-471q0 -36 -22.5 -60t-57.5 -24z" />
    <glyph glyph-name="tbar" unicode="&#x167;" horiz-adv-x="806" 
d="M688 125q32 0 52 -17t20 -45q0 -52 -58 -71q-50 -15 -129 -15q-163 0 -249 83.5t-86 240.5v148h-107q-31 0 -51.5 19t-20.5 48q0 28 21 48t51 20h107v276h-107q-31 0 -51.5 20.5t-20.5 49.5q0 28 20.5 47.5t51.5 19.5h107v211q0 34 23 58t56 24q34 0 56 -23.5t22 -58.5
v-211h248q29 0 49.5 -19.5t20.5 -47.5q0 -29 -20.5 -49.5t-49.5 -20.5h-248v-276h248q29 0 49.5 -20t20.5 -48q0 -29 -20 -48t-50 -19h-248v-138q0 -98 51.5 -144t159.5 -46q19 0 45.5 2t36.5 2z" />
    <glyph glyph-name="Utilde" unicode="&#x168;" horiz-adv-x="1411" 
d="M436 1518q-29 0 -49 21t-20 52q0 89 50.5 148t127.5 59q72 0 143 -47l70 -45q23 -16 32 -22t25 -12.5t31 -6.5q56 0 59 64q1 31 19.5 50t46.5 19q30 0 50.5 -21.5t20.5 -52.5q0 -89 -51.5 -147.5t-126.5 -58.5q-72 0 -143 47l-70 45q-9 5 -23.5 14.5t-22.5 14t-19.5 8.5
t-22.5 4q-58 0 -61 -64q-2 -31 -19.5 -50t-46.5 -19zM707 -23q-247 0 -393 151.5t-146 408.5v753q0 35 23 59.5t57 24.5q35 0 57.5 -24t22.5 -60v-764q0 -186 102 -293.5t277 -107.5q173 0 273.5 107.5t100.5 293.5v764q0 35 23 59.5t57 24.5q35 0 57.5 -24t22.5 -60v-753
q0 -255 -145.5 -407.5t-388.5 -152.5z" />
    <glyph glyph-name="utilde" unicode="&#x169;" 
d="M721 1221q-77 0 -139 53l-54 45q-37 31 -53 40t-33 9q-26 0 -41.5 -18t-15.5 -50q-1 -32 -20.5 -52.5t-47.5 -20.5t-46.5 23t-18.5 55q0 90 49.5 148t124.5 58q77 0 139 -53l53 -45q34 -30 51.5 -39.5t35.5 -9.5q54 0 57 68q1 32 20 52.5t45 20.5q29 0 48.5 -22.5
t19.5 -55.5q0 -90 -49.5 -148t-124.5 -58zM575 -23q-183 0 -298 117.5t-115 302.5v541q0 34 22.5 58t55.5 24q32 0 54.5 -24t22.5 -58v-551q0 -116 71.5 -190t186.5 -74q110 0 182 74.5t72 189.5v551q0 34 22.5 58t57.5 24q33 0 55.5 -23.5t22.5 -58.5v-541
q0 -184 -116 -302t-296 -118z" />
    <glyph glyph-name="Umacron" unicode="&#x16a;" horiz-adv-x="1411" 
d="M946 1706q28 0 48 -19t20 -45q0 -29 -20 -47t-48 -18h-485q-28 0 -48 19t-20 46q0 26 20 45t48 19h485zM707 -23q-247 0 -393 151.5t-146 408.5v753q0 35 23 59.5t57 24.5q35 0 57.5 -24t22.5 -60v-764q0 -186 102 -293.5t277 -107.5q173 0 273.5 107.5t100.5 293.5v764
q0 35 23 59.5t57 24.5q35 0 57.5 -24t22.5 -60v-753q0 -255 -145.5 -407.5t-388.5 -152.5z" />
    <glyph glyph-name="umacron" unicode="&#x16b;" 
d="M795 1442q29 0 48 -18.5t19 -45.5q0 -28 -19 -46.5t-48 -18.5h-445q-29 0 -48 18.5t-19 46.5q0 27 19 45.5t48 18.5h445zM575 -23q-183 0 -298 117.5t-115 302.5v541q0 34 22.5 58t55.5 24q32 0 54.5 -24t22.5 -58v-551q0 -116 71.5 -190t186.5 -74q110 0 182 74.5
t72 189.5v551q0 34 22.5 58t57.5 24q33 0 55.5 -23.5t22.5 -58.5v-541q0 -184 -116 -302t-296 -118z" />
    <glyph glyph-name="Ubreve" unicode="&#x16c;" horiz-adv-x="1411" 
d="M705 1499q-122 0 -215 79.5t-93 184.5q0 29 19 49.5t47 20.5q50 0 65 -66q15 -67 63 -106t114 -39q69 0 116.5 39.5t61.5 105.5q12 66 63 66q29 0 48.5 -20.5t19.5 -49.5q0 -106 -92.5 -185t-216.5 -79zM707 -23q-247 0 -393 151.5t-146 408.5v753q0 35 23 59.5t57 24.5
q35 0 57.5 -24t22.5 -60v-764q0 -186 102 -293.5t277 -107.5q173 0 273.5 107.5t100.5 293.5v764q0 35 23 59.5t57 24.5q35 0 57.5 -24t22.5 -60v-753q0 -255 -145.5 -407.5t-388.5 -152.5z" />
    <glyph glyph-name="ubreve" unicode="&#x16d;" 
d="M573 1192q-124 0 -217.5 88.5t-93.5 204.5q0 31 19 51t47 20q61 0 67 -65q6 -72 57.5 -120t120.5 -48q70 0 121.5 48t59.5 120q3 29 21.5 47t43.5 18q29 0 48.5 -20t19.5 -51q0 -119 -92.5 -206t-221.5 -87zM575 -23q-183 0 -298 117.5t-115 302.5v541q0 34 22.5 58
t55.5 24q32 0 54.5 -24t22.5 -58v-551q0 -116 71.5 -190t186.5 -74q110 0 182 74.5t72 189.5v551q0 34 22.5 58t57.5 24q33 0 55.5 -23.5t22.5 -58.5v-541q0 -184 -116 -302t-296 -118z" />
    <glyph glyph-name="Uring" unicode="&#x16e;" horiz-adv-x="1411" 
d="M702 1872q97 0 163.5 -63.5t66.5 -157.5t-66.5 -157.5t-163.5 -63.5q-95 0 -160 64t-65 157t65.5 157t159.5 64zM705 1755q-43 0 -73 -29.5t-30 -74.5q0 -43 30 -73t73 -30q44 0 73 30t29 73q0 44 -29 74t-73 30zM707 -23q-247 0 -393 151.5t-146 408.5v753q0 35 23 59.5
t57 24.5q35 0 57.5 -24t22.5 -60v-764q0 -186 102 -293.5t277 -107.5q173 0 273.5 107.5t100.5 293.5v764q0 35 23 59.5t57 24.5q35 0 57.5 -24t22.5 -60v-753q0 -255 -145.5 -407.5t-388.5 -152.5z" />
    <glyph glyph-name="uring" unicode="&#x16f;" 
d="M571 1599q97 0 163.5 -63.5t66.5 -157.5t-66.5 -158.5t-163.5 -64.5q-94 0 -159.5 64.5t-65.5 158.5q0 93 65 157t160 64zM573 1483q-43 0 -72.5 -30.5t-29.5 -74.5t29 -73t73 -29t73.5 29t29.5 73t-30 74.5t-73 30.5zM575 -23q-183 0 -298 117.5t-115 302.5v541
q0 34 22.5 58t55.5 24q32 0 54.5 -24t22.5 -58v-551q0 -116 71.5 -190t186.5 -74q110 0 182 74.5t72 189.5v551q0 34 22.5 58t57.5 24q33 0 55.5 -23.5t22.5 -58.5v-541q0 -184 -116 -302t-296 -118z" />
    <glyph glyph-name="Uhungarumlaut" unicode="&#x170;" horiz-adv-x="1411" 
d="M535 1489q-39 4 -55.5 37t-0.5 65l133 256q26 50 80 43q43 -5 63.5 -44t-5.5 -85l-146 -231q-23 -44 -69 -41zM905 1489q-38 4 -54.5 37t-0.5 65l133 256q26 50 80 43q43 -5 63 -44t-6 -85l-145 -231q-23 -44 -70 -41zM707 -23q-247 0 -393 151.5t-146 408.5v753
q0 35 23 59.5t57 24.5q35 0 57.5 -24t22.5 -60v-764q0 -186 102 -293.5t277 -107.5q173 0 273.5 107.5t100.5 293.5v764q0 35 23 59.5t57 24.5q35 0 57.5 -24t22.5 -60v-753q0 -255 -145.5 -407.5t-388.5 -152.5z" />
    <glyph glyph-name="uhungarumlaut" unicode="&#x171;" 
d="M416 1157q-31 0 -51.5 19.5t-20.5 48.5q0 17 10 37l129 288q20 49 76 49q30 0 54 -23t24 -56q0 -19 -12 -43l-146 -275q-27 -45 -63 -45zM748 1157q-31 0 -51.5 19.5t-20.5 48.5q0 17 10 37l129 288q20 49 76 49q30 0 54 -23t24 -56q0 -17 -13 -43l-145 -275
q-27 -45 -63 -45zM575 -23q-183 0 -298 117.5t-115 302.5v541q0 34 22.5 58t55.5 24q32 0 54.5 -24t22.5 -58v-551q0 -116 71.5 -190t186.5 -74q110 0 182 74.5t72 189.5v551q0 34 22.5 58t57.5 24q33 0 55.5 -23.5t22.5 -58.5v-541q0 -184 -116 -302t-296 -118z" />
    <glyph glyph-name="Uogonek" unicode="&#x172;" horiz-adv-x="1411" 
d="M885 -391q-99 0 -159 49t-60 129q0 46 37.5 102t99.5 101q-60 -13 -96 -13q-247 0 -393 151.5t-146 408.5v753q0 35 23 59.5t57 24.5q35 0 57.5 -24t22.5 -60v-764q0 -186 102 -293.5t277 -107.5q173 0 273.5 107.5t100.5 293.5v764q0 35 23 59.5t57 24.5q35 0 57.5 -24
t22.5 -60v-753q0 -135 -46 -248t-134 -191l-74 -65q-7 -6 -26.5 -24t-26.5 -25t-23.5 -23t-23.5 -24.5t-19.5 -23t-18 -25t-12 -24t-9.5 -26.5t-3 -26q-1 -37 24 -56.5t73 -19.5q14 0 38.5 3t30.5 3q23 0 38 -16t15 -41q0 -45 -45 -60q-46 -16 -114 -16z" />
    <glyph glyph-name="uogonek" unicode="&#x173;" 
d="M909 1020q33 0 55.5 -23.5t22.5 -58.5v-541q0 -104 -39.5 -190t-109.5 -144l-115 -96q-107 -91 -107 -155q0 -36 29.5 -56t79.5 -20q13 0 37.5 3t30.5 3q23 0 39 -16t16 -41q0 -47 -51 -62q-47 -14 -111 -14q-98 0 -158.5 49t-60.5 129q0 96 102 190q-180 1 -293.5 119
t-113.5 301v541q0 34 22.5 58t55.5 24q32 0 54.5 -24t22.5 -58v-551q0 -116 71.5 -190t186.5 -74q110 0 182 74.5t72 189.5v551q0 34 22.5 58t57.5 24z" />
    <glyph glyph-name="Wcircumflex" unicode="&#x174;" horiz-adv-x="2183" 
d="M831 1475q-26 0 -43.5 17.5t-17.5 43.5q0 22 23 45l251 254q20 20 46 20q27 0 47 -20l249 -254q23 -23 23 -45q0 -26 -17 -43.5t-42 -17.5q-24 0 -47 20l-213 203l-213 -203q-23 -20 -46 -20zM1991 1374q36 0 58 -23t22 -57q0 -19 -11 -51l-436 -1212q-20 -54 -76 -54
q-55 0 -75 54l-381 1079l-379 -1079q-20 -54 -76 -54q-28 0 -48 14.5t-28 39.5l-440 1212q-10 29 -10 51q0 34 22 57t57 23q55 0 76 -53l373 -1057l377 1055q9 25 29.5 40t46.5 15q55 0 75 -55l377 -1053l371 1055q9 24 29.5 38.5t46.5 14.5z" />
    <glyph glyph-name="wcircumflex" unicode="&#x175;" horiz-adv-x="1740" 
d="M639 1157q-29 0 -49.5 21t-20.5 49q0 27 15 45l223 299q25 28 59 28q37 0 62 -28l221 -299q16 -19 16 -45q0 -28 -20 -49t-49 -21q-35 0 -54 27l-176 223l-174 -223q-8 -11 -23 -19t-30 -8zM1608 1020q32 0 55 -23.5t23 -54.5q0 -14 -7 -31l-372 -886q-7 -22 -27 -35
t-45 -13q-22 0 -41.5 13t-28.5 35l-295 735l-297 -735q-7 -22 -26.5 -35t-42.5 -13t-43 13t-29 35l-371 886q-6 15 -6 31q0 31 23 54.5t55 23.5q23 0 43 -14t29 -37l303 -725l289 721q20 55 73 55q25 0 45 -15t29 -40l287 -723l305 727q20 51 72 51z" />
    <glyph glyph-name="Ycircumflex" unicode="&#x176;" horiz-adv-x="1263" 
d="M365 1475q-26 0 -44 17.5t-18 43.5q0 22 23 45l252 254q20 20 45 20q27 0 47 -20l250 -254q22 -22 22 -45q0 -26 -17 -43.5t-42 -17.5q-24 0 -47 20l-213 203l-213 -203q-23 -20 -45 -20zM1171 1296q0 -26 -20 -59l-440 -715v-461q0 -35 -23 -59.5t-57 -24.5
q-35 0 -57.5 24t-22.5 60v465l-436 711q-23 36 -23 61q0 32 23.5 54t58.5 22q26 0 43.5 -10.5t34.5 -36.5l381 -627l381 627q18 26 34.5 36.5t43.5 10.5q34 0 56.5 -23t22.5 -55z" />
    <glyph glyph-name="ycircumflex" unicode="&#x177;" horiz-adv-x="1103" 
d="M319 1157q-29 0 -49 21t-20 49t14 45l223 299q25 28 60 28q36 0 61 -28l221 -299q17 -20 17 -45q0 -28 -20.5 -49t-49.5 -21q-34 0 -53 27l-176 223l-174 -223q-8 -11 -23.5 -19t-30.5 -8zM973 1020q31 0 54.5 -23.5t23.5 -54.5q0 -18 -7 -35l-477 -1018
q-69 -147 -156 -213.5t-210 -66.5q-43 0 -80 6q-27 4 -44.5 24.5t-17.5 45.5q0 29 22 49t50 20q12 0 31 -1t26 -1q152 0 228 168l51 111l-391 874q-8 20 -8 37q0 31 23 54.5t54 23.5q25 0 46 -13.5t28 -35.5l334 -750l346 750q7 22 28 35.5t46 13.5z" />
    <glyph glyph-name="Ydieresis" unicode="&#x178;" horiz-adv-x="1263" 
d="M385 1550q-44 0 -78.5 32t-34.5 77t34.5 76.5t78.5 31.5q47 0 80 -31t33 -77t-33 -77.5t-80 -31.5zM862 1548q-45 0 -78.5 32.5t-33.5 76.5q0 45 33.5 77.5t78.5 32.5q46 0 79.5 -32.5t33.5 -77.5q0 -44 -33.5 -76.5t-79.5 -32.5zM1171 1296q0 -26 -20 -59l-440 -715
v-461q0 -35 -23 -59.5t-57 -24.5q-35 0 -57.5 24t-22.5 60v465l-436 711q-23 36 -23 61q0 32 23.5 54t58.5 22q26 0 43.5 -10.5t34.5 -36.5l381 -627l381 627q18 26 34.5 36.5t43.5 10.5q34 0 56.5 -23t22.5 -55z" />
    <glyph glyph-name="Zacute" unicode="&#x179;" horiz-adv-x="1206" 
d="M641 1489q-38 4 -54.5 37t-0.5 65l133 256q26 50 80 43q43 -5 63 -44t-6 -85l-145 -231q-23 -44 -70 -41zM1071 143q31 0 52.5 -20.5t21.5 -50.5q0 -29 -21.5 -50.5t-52.5 -21.5h-930q-32 0 -53.5 21t-21.5 51q0 16 26 55l821 1081h-692q-32 0 -53 20.5t-21 51.5
q0 30 21 51t53 21h840q31 0 52.5 -21.5t21.5 -50.5q0 -22 -25 -53l-823 -1084h784z" />
    <glyph glyph-name="zacute" unicode="&#x17a;" horiz-adv-x="929" 
d="M524 1157q-31 0 -51 19.5t-20 48.5q0 17 10 37l129 288q20 49 76 49q30 0 53.5 -23t23.5 -56q0 -19 -12 -43l-145 -275q-27 -45 -64 -45zM811 139q31 0 51.5 -19.5t20.5 -49.5q0 -29 -20.5 -49.5t-51.5 -20.5h-682q-31 0 -52.5 20.5t-21.5 49.5q0 26 35 69l559 717h-481
q-31 0 -51.5 20.5t-20.5 51.5q0 29 20.5 49t51.5 20h629q31 0 51 -20t20 -49q0 -25 -30 -68l-566 -721h539z" />
    <glyph glyph-name="Zdotaccent" unicode="&#x17b;" horiz-adv-x="1206" 
d="M614 1546q-48 0 -82 33t-34 80q0 46 34.5 79.5t81.5 33.5q46 0 80.5 -33.5t34.5 -79.5q0 -47 -34.5 -80t-80.5 -33zM1071 143q31 0 52.5 -20.5t21.5 -50.5q0 -29 -21.5 -50.5t-52.5 -21.5h-930q-32 0 -53.5 21t-21.5 51q0 16 26 55l821 1081h-692q-32 0 -53 20.5
t-21 51.5q0 30 21 51t53 21h840q31 0 52.5 -21.5t21.5 -50.5q0 -22 -25 -53l-823 -1084h784z" />
    <glyph glyph-name="zdotaccent" unicode="&#x17c;" horiz-adv-x="929" 
d="M485 1266q-48 0 -82 32.5t-34 79.5q0 46 34.5 79.5t81.5 33.5q46 0 80.5 -33.5t34.5 -79.5q0 -47 -34.5 -79.5t-80.5 -32.5zM811 139q31 0 51.5 -19.5t20.5 -49.5q0 -29 -20.5 -49.5t-51.5 -20.5h-682q-31 0 -52.5 20.5t-21.5 49.5q0 26 35 69l559 717h-481
q-31 0 -51.5 20.5t-20.5 51.5q0 29 20.5 49t51.5 20h629q31 0 51 -20t20 -49q0 -25 -30 -68l-566 -721h539z" />
    <glyph glyph-name="Zcaron" unicode="&#x17d;" horiz-adv-x="1206" 
d="M569 1495l-252 254q-22 22 -22 45q0 26 17.5 43.5t43.5 17.5q22 0 45 -20l213 -203l213 203q23 20 47 20q25 0 42.5 -17.5t17.5 -43.5q0 -22 -23 -45l-249 -254q-20 -20 -48 -20q-25 0 -45 20zM1071 143q31 0 52.5 -20.5t21.5 -50.5q0 -29 -21.5 -50.5t-52.5 -21.5h-930
q-32 0 -53.5 21t-21.5 51q0 16 26 55l821 1081h-692q-32 0 -53 20.5t-21 51.5q0 30 21 51t53 21h840q31 0 52.5 -21.5t21.5 -50.5q0 -22 -25 -53l-823 -1084h784z" />
    <glyph glyph-name="zcaron" unicode="&#x17e;" horiz-adv-x="929" 
d="M426 1186l-223 299q-15 18 -15 45q0 28 20.5 48.5t49.5 20.5q34 0 53 -26l174 -223l177 223q19 26 53 26q29 0 49 -20.5t20 -48.5q0 -26 -16 -45l-221 -299q-26 -29 -62 -29q-33 0 -59 29zM811 139q31 0 51.5 -19.5t20.5 -49.5q0 -29 -20.5 -49.5t-51.5 -20.5h-682
q-31 0 -52.5 20.5t-21.5 49.5q0 26 35 69l559 717h-481q-31 0 -51.5 20.5t-20.5 51.5q0 29 20.5 49t51.5 20h629q31 0 51 -20t20 -49q0 -25 -30 -68l-566 -721h539z" />
    <glyph glyph-name="uni018F" unicode="&#x18f;" horiz-adv-x="1501" 
d="M719 1374q141 0 267 -54t216.5 -146.5t143.5 -221.5t53 -272q0 -192 -91.5 -354t-250 -255.5t-346.5 -93.5q-174 0 -314 78t-219.5 215.5t-79.5 307.5q0 34 4 65q5 36 25.5 58t50.5 22h1053q-14 219 -158 361.5t-356 142.5q-122 0 -231.5 -51.5t-182.5 -143.5
q-23 -27 -39 -37t-37 -10q-32 0 -51.5 19t-19.5 51q0 21 28 59q97 124 236.5 192t298.5 68zM717 125q195 0 336 127.5t172 327.5h-967q-6 -197 124 -326t335 -129z" />
    <glyph glyph-name="florin" unicode="&#x192;" horiz-adv-x="907" 
d="M776 1374q139 0 139 -78q0 -30 -19.5 -48.5t-49.5 -18.5q-10 0 -23 1t-18 1q-98 0 -149 -43t-64 -148l-27 -223h150q31 0 51 -20t20 -49q0 -31 -20 -51.5t-51 -20.5h-168l-76 -627q-41 -321 -340 -321q-131 0 -131 73q0 30 21 51t51 21q9 0 28.5 -1t32.5 -1q32 0 60 9.5
t54 30.5t44 59.5t24 90.5l76 615h-96q-30 0 -51 21t-21 51q0 29 21 49t51 20h113l28 234q39 323 340 323z" />
    <glyph glyph-name="uni01D4" unicode="&#x1d4;" 
d="M514 1186l-223 299q-15 18 -15 45q0 28 20.5 48.5t49.5 20.5q34 0 53 -26l174 -223l177 223q19 26 53 26q29 0 49 -20.5t20 -48.5q0 -26 -16 -45l-221 -299q-26 -29 -62 -29q-33 0 -59 29zM909 1020q33 0 55.5 -23.5t22.5 -58.5v-541q0 -184 -116 -302t-296 -118
q-183 0 -298 117.5t-115 302.5v541q0 34 22.5 58t55.5 24q32 0 54.5 -24t22.5 -58v-551q0 -116 71.5 -190t186.5 -74q110 0 182 74.5t72 189.5v551q0 34 22.5 58t57.5 24z" />
    <glyph glyph-name="AEacute" unicode="&#x1fc;" horiz-adv-x="1683" 
d="M881 1489q-39 4 -55.5 37t-0.5 65l133 256q26 50 80 43q43 -5 63.5 -44t-5.5 -85l-146 -231q-23 -44 -69 -41zM1536 143q31 0 52.5 -20.5t21.5 -50.5q0 -29 -21.5 -50.5t-52.5 -21.5h-512q-30 0 -52.5 19t-27.5 47l-35 208h-565l-125 -237q-31 -60 -78 -60
q-33 0 -54 21.5t-21 52.5q0 21 10 41l629 1206q26 54 83 54h723q31 0 52.5 -21.5t21.5 -50.5q0 -31 -21.5 -51.5t-52.5 -20.5h-596l70 -413h363q31 0 52 -20.5t21 -51.5q0 -29 -21.5 -50.5t-51.5 -21.5h-338l86 -508h440zM772 1108l-352 -690h465z" />
    <glyph glyph-name="aeacute" unicode="&#x1fd;" horiz-adv-x="1832" 
d="M911 1157q-31 0 -51 19.5t-20 48.5q0 17 10 37l129 288q20 49 76 49q30 0 54 -23t24 -56q0 -17 -13 -43l-145 -275q-27 -45 -64 -45zM1276 1020q198 0 325.5 -129.5t127.5 -329.5v-24q0 -105 -97 -105h-700q22 -140 120 -224.5t242 -84.5q149 0 262 96q26 23 52 23
q31 0 50 -19.5t19 -50.5q0 -38 -39 -72q-138 -123 -346 -123q-139 0 -254 65t-182 177q-51 -113 -160 -177.5t-254 -64.5q-160 0 -256 79t-96 210q0 133 98.5 214t260.5 81h315v62q0 119 -63 185t-177 66q-138 0 -250 -112q-31 -31 -61 -31q-28 0 -50 22t-22 48q0 31 29 63
q61 75 156.5 115.5t208.5 40.5q122 0 210 -54.5t129 -154.5q69 97 174.5 153t227.5 56zM932 561h633q8 139 -74 227.5t-219 88.5q-134 0 -227.5 -88t-112.5 -228zM461 111q125 0 214 79t89 191v51h-297q-215 0 -215 -149q0 -78 57 -125t152 -47z" />
    <glyph glyph-name="Oslashacute" unicode="&#x1fe;" horiz-adv-x="1603" 
d="M829 1489q-38 4 -54.5 37t-0.5 65l133 256q26 50 80 43q43 -5 63 -44t-6 -85l-145 -231q-23 -44 -70 -41zM1346 1120q157 -191 157 -444q0 -192 -93 -352.5t-254.5 -253.5t-354.5 -93q-251 0 -445 154l-129 -129q-25 -25 -55 -25q-27 0 -47.5 20.5t-20.5 47.5q0 30 25 55
l129 129q-158 195 -158 447q0 144 54.5 273.5t148 222.5t223.5 147.5t275 54.5q256 0 444 -155l131 131q24 24 56 24q28 0 47.5 -19.5t19.5 -47.5q0 -32 -22 -54zM260 678q0 -195 107 -340l776 776q-144 119 -340 119q-152 0 -276.5 -72t-195.5 -199.5t-71 -283.5zM803 119
q151 0 275 73t194.5 201.5t70.5 284.5q0 193 -106 336l-776 -778q145 -117 342 -117z" />
    <glyph glyph-name="oslashacute" unicode="&#x1ff;" horiz-adv-x="1271" 
d="M676 1157q-31 0 -51.5 19.5t-20.5 48.5q0 17 10 37l129 288q20 49 76 49q30 0 54 -23t24 -56q0 -19 -12 -43l-146 -275q-27 -45 -63 -45zM1151 915l-100 -100q106 -137 106 -317q0 -141 -69.5 -261t-190.5 -190t-264 -70q-178 0 -316 107l-98 -100q-24 -27 -53 -27
t-49.5 21.5t-20.5 50.5q0 25 25 53l100 100q-106 134 -106 316q0 144 69 264t188.5 189t262.5 69q179 0 317 -107l101 101q27 24 53 24q30 0 51 -20t21 -49q0 -27 -27 -54zM635 881q-160 0 -264.5 -108.5t-104.5 -274.5q0 -122 62 -219l528 530q-98 72 -221 72zM633 113
q158 0 265.5 110.5t107.5 274.5q0 122 -62 219l-530 -531q92 -73 219 -73z" />
    <glyph glyph-name="Scommaaccent" unicode="&#x218;" horiz-adv-x="1142" 
d="M582 -23q-131 0 -254.5 62.5t-202.5 169.5q-19 22 -19 49q0 31 22.5 52.5t53.5 21.5q37 0 62 -31q138 -176 336 -176q122 0 197 62.5t75 162.5q0 75 -47.5 126t-177.5 112l-152 71q-161 76 -233 162.5t-72 200.5q0 152 116.5 252t291.5 100q226 0 372 -162q29 -32 29 -65
q0 -28 -23.5 -50t-52.5 -22q-28 0 -55 27q-113 125 -273 125q-107 0 -173 -54t-66 -143q0 -72 43.5 -118t173.5 -109l149 -72q170 -82 243 -169t73 -208q0 -166 -121.5 -271.5t-314.5 -105.5zM557 -453q-27 0 -48.5 20.5t-21.5 45.5q0 3 13.5 68.5t13.5 142.5q0 32 24 56
t56 24q33 0 56.5 -23.5t23.5 -56.5q0 -101 -41 -207q-26 -70 -76 -70z" />
    <glyph glyph-name="scommaaccent" unicode="&#x219;" horiz-adv-x="929" 
d="M469 -23q-114 0 -207.5 45.5t-159.5 122.5q-20 23 -20 52q0 30 22.5 51.5t53.5 21.5q30 0 55 -22q122 -125 254 -125q81 0 135.5 38t54.5 103q0 31 -11.5 54.5t-39.5 43t-52.5 31.5t-70.5 31l-96 41q-125 52 -186.5 113.5t-61.5 162.5q0 130 96.5 204.5t239.5 74.5
q196 0 316 -137q20 -23 20 -52q0 -28 -20.5 -48.5t-49.5 -20.5q-23 0 -59 31q-95 81 -215 81q-73 0 -119.5 -32.5t-46.5 -91.5q0 -49 36.5 -79.5t125.5 -66.5l92 -39q140 -59 202 -125.5t62 -169.5q0 -139 -101.5 -216t-248.5 -77zM455 -453q-27 0 -48.5 20.5t-21.5 45.5
q0 3 13.5 68.5t13.5 142.5q0 32 24 56t56 24q33 0 56 -23.5t23 -56.5q0 -101 -41 -207q-26 -70 -75 -70z" />
    <glyph glyph-name="uni021A" unicode="&#x21a;" horiz-adv-x="1189" 
d="M594 -23q-34 0 -57 24.5t-23 59.5v1147h-408q-32 0 -53.5 20.5t-21.5 51.5q0 30 21.5 51t53.5 21h979q31 0 52.5 -21.5t21.5 -50.5q0 -31 -21.5 -51.5t-52.5 -20.5h-411v-1147q0 -36 -22.5 -60t-57.5 -24zM553 -453q-27 0 -48.5 20.5t-21.5 45.5q0 3 13.5 68.5
t13.5 142.5q0 32 24 56t56 24q33 0 56.5 -23.5t23.5 -56.5q0 -101 -41 -207q-26 -70 -76 -70z" />
    <glyph glyph-name="uni021B" unicode="&#x21b;" horiz-adv-x="780" 
d="M668 125q32 0 51.5 -17t19.5 -45q0 -56 -57 -71q-50 -15 -129 -15q-163 0 -249.5 83.5t-86.5 240.5v555h-102q-31 0 -52.5 20.5t-21.5 51.5q0 29 21.5 49t52.5 20h102v211q0 34 23 58t57 24t56 -23.5t22 -58.5v-211h248q29 0 50 -20t21 -49q0 -30 -21 -51t-50 -21h-248
v-545q0 -98 51.5 -144t159.5 -46q19 0 45.5 2t36.5 2zM453 -96q33 0 56 -23.5t23 -56.5q0 -104 -40 -207q-26 -70 -76 -70q-27 0 -48.5 20.5t-21.5 45.5q0 3 13.5 68.5t13.5 142.5q0 32 24 56t56 24z" />
    <glyph glyph-name="uni0237" unicode="&#x237;" horiz-adv-x="503" 
d="M2 -391q-38 0 -76 6q-30 5 -50.5 25t-20.5 47q0 29 20 48t51 19q7 0 24.5 -1t29.5 -1q194 0 194 191v995q0 34 22.5 58t57.5 24q33 0 55.5 -23.5t22.5 -58.5v-1006q0 -163 -89.5 -243t-240.5 -80z" />
    <glyph glyph-name="uni0259" unicode="&#x259;" horiz-adv-x="1169" 
d="M539 1020q227 0 377.5 -148.5t150.5 -371.5q0 -144 -67.5 -264.5t-185 -189.5t-257.5 -69q-198 0 -326.5 130t-128.5 331v11q0 98 97 98h704q-15 148 -115 237.5t-251 89.5q-148 0 -261 -96q-25 -22 -53 -22q-30 0 -49.5 19.5t-19.5 49.5q0 36 39 72q147 123 346 123z
M561 121q126 0 218 79t118 208h-633q3 -127 85 -207t212 -80z" />
    <glyph glyph-name="circumflex" unicode="&#x2c6;" horiz-adv-x="776" 
d="M670 1272q16 -19 16 -45q0 -28 -20.5 -49t-49.5 -21q-34 0 -53 27l-176 223l-174 -223q-8 -11 -23 -19t-30 -8q-29 0 -49.5 21t-20.5 49t14 45l224 299q25 28 59 28q37 0 62 -28z" />
    <glyph glyph-name="caron" unicode="&#x2c7;" horiz-adv-x="776" 
d="M616 1599q29 0 49.5 -20.5t20.5 -48.5q0 -26 -16 -45l-221 -299q-26 -29 -62 -29q-33 0 -59 29l-224 299q-14 17 -14 45t20.5 48.5t49.5 20.5q34 0 53 -26l174 -223l176 223q19 26 53 26z" />
    <glyph glyph-name="breve" unicode="&#x2d8;" horiz-adv-x="747" 
d="M373 1192q-124 0 -218 88.5t-94 204.5q0 31 19 51t47 20q62 0 68 -65q6 -72 57.5 -120t120.5 -48q70 0 121 48t59 120q3 29 21.5 47t43.5 18q29 0 48.5 -20t19.5 -51q0 -119 -92.5 -206t-220.5 -87z" />
    <glyph glyph-name="dotaccent" unicode="&#x2d9;" horiz-adv-x="358" 
d="M180 1491q46 0 80.5 -33.5t34.5 -79.5q0 -47 -34.5 -79.5t-80.5 -32.5q-48 0 -82.5 32.5t-34.5 79.5q0 46 35 79.5t82 33.5z" />
    <glyph glyph-name="ring" unicode="&#x2da;" horiz-adv-x="577" 
d="M287 1599q97 0 163 -63.5t66 -157.5t-66 -158.5t-163 -64.5q-94 0 -160 65t-66 158q0 92 65.5 156.5t160.5 64.5zM289 1483q-43 0 -73 -30.5t-30 -74.5t29.5 -73t73.5 -29t73 29t29 73t-29.5 74.5t-72.5 30.5z" />
    <glyph glyph-name="ogonek" unicode="&#x2db;" horiz-adv-x="489" 
d="M266 -391q-98 0 -157.5 52t-59.5 140q0 37 11 68t37 60.5t48.5 50t65.5 53.5q87 69 135 69q23 0 37 -14t14 -33q0 -46 -53 -78q-145 -90 -145 -163q0 -33 27.5 -54.5t78.5 -21.5q16 0 40 2t30 2q24 0 39.5 -16t15.5 -43q0 -45 -51 -60q-47 -14 -113 -14z" />
    <glyph glyph-name="tilde" unicode="&#x2dc;" horiz-adv-x="765" 
d="M530 1221q-77 0 -139 53l-53 45q-37 31 -53 40t-33 9q-26 0 -41.5 -18t-15.5 -50q-1 -32 -20.5 -52.5t-47.5 -20.5t-47 23t-19 55q0 90 50 148t125 58q77 0 139 -53l53 -45q34 -30 51 -39.5t35 -9.5q54 0 57 68q1 32 20 52.5t46 20.5q29 0 48.5 -22.5t19.5 -55.5
q0 -90 -50 -148t-125 -58z" />
    <glyph glyph-name="hungarumlaut" unicode="&#x2dd;" horiz-adv-x="798" 
d="M180 1157q-31 0 -51 19.5t-20 48.5q0 17 10 37l129 288q20 49 76 49q30 0 53.5 -23t23.5 -56q0 -19 -12 -43l-145 -275q-27 -45 -64 -45zM512 1157q-31 0 -51.5 19.5t-20.5 48.5q0 15 11 37l129 288q20 49 75 49q30 0 54 -23t24 -56q0 -19 -12 -43l-146 -275
q-27 -45 -63 -45z" />
    <glyph glyph-name="uni030C" unicode="&#x30c;" horiz-adv-x="0" 
d="M-188 1092q-33 0 -54.5 25.5t-15.5 64.5l43 299q5 34 28.5 56t55.5 22q38 0 63.5 -29t14.5 -78l-66 -301q-4 -21 -21 -40t-48 -19z" />
    <glyph glyph-name="uni0326" unicode="&#x326;" horiz-adv-x="0" 
d="M-178 -453q-27 0 -48.5 20.5t-21.5 45.5q0 3 13.5 68.5t13.5 142.5q0 32 24 56t56 24q33 0 56.5 -23.5t23.5 -56.5q0 -101 -41 -207q-26 -70 -76 -70z" />
    <glyph glyph-name="dieresistonos" unicode="&#x385;" horiz-adv-x="1007" 
d="M483 1157q-29 0 -50.5 21t-18.5 49l41 334q5 34 26 55.5t54 21.5q35 0 60.5 -27.5t18.5 -68.5l-57 -305q-15 -80 -74 -80zM190 1270q-43 0 -77.5 32t-34.5 76q0 45 34 78t78 33q47 0 80 -32.5t33 -78.5q0 -44 -33 -76t-80 -32zM815 1270q-45 0 -79 32t-34 76q0 45 34 78
t79 33q47 0 81 -32.5t34 -78.5q0 -44 -34 -76t-81 -32z" />
    <glyph glyph-name="Alphatonos" unicode="&#x386;" horiz-adv-x="1359" 
d="M152 1030q-33 0 -54.5 25.5t-15.5 64.5l43 299q5 34 28.5 56t55.5 22q38 0 63.5 -28.5t14.5 -77.5l-66 -301q-4 -21 -21 -40.5t-48 -19.5zM1274 106q14 -28 14 -51q0 -31 -23.5 -54.5t-54.5 -23.5q-51 0 -77 54l-109 243h-694l-103 -243q-23 -54 -75 -54q-32 0 -55 23.5
t-23 54.5q0 21 12 51l518 1213q24 55 76 55t76 -55zM680 1135l-291 -717h574z" />
    <glyph glyph-name="Epsilontonos" unicode="&#x388;" horiz-adv-x="1159" 
d="M-111 1030q-32 0 -53.5 25t-15.5 65l43 299q5 34 28.5 56t55.5 22q38 0 63.5 -28.5t14.5 -77.5l-66 -301q-4 -21 -21.5 -40.5t-48.5 -19.5zM260 0q-32 0 -53 21.5t-21 52.5v1204q0 31 21 52.5t53 21.5h727q31 0 52.5 -21.5t21.5 -50.5q0 -31 -21.5 -51.5t-52.5 -20.5
h-641v-413h477q31 0 52.5 -20.5t21.5 -51.5q0 -29 -21.5 -50.5t-52.5 -21.5h-477v-508h666q31 0 52 -20t21 -51q0 -30 -21.5 -51t-51.5 -21h-752z" />
    <glyph glyph-name="Etatonos" unicode="&#x389;" horiz-adv-x="1449" 
d="M-111 1030q-32 0 -53.5 25t-15.5 65l43 299q5 34 28.5 56t55.5 22q38 0 63.5 -28.5t14.5 -77.5l-66 -301q-4 -21 -21.5 -40.5t-48.5 -19.5zM266 -23q-35 0 -57.5 24t-22.5 58v1233q0 34 22.5 58t57.5 24q34 0 57 -24t23 -58v-497h758v497q0 34 23 58t57 24q35 0 57.5 -24
t22.5 -58v-1233q0 -34 -22.5 -58t-57.5 -24q-34 0 -57 24t-23 58v592h-758v-592q0 -34 -23 -58t-57 -24z" />
    <glyph glyph-name="Iotatonos" unicode="&#x38a;" horiz-adv-x="530" 
d="M-111 1030q-32 0 -53.5 25t-15.5 65l43 299q5 34 28.5 56t55.5 22q38 0 63.5 -28.5t14.5 -77.5l-66 -301q-4 -21 -21.5 -40.5t-48.5 -19.5zM266 -23q-35 0 -57.5 24t-22.5 60v1229q0 36 22.5 60t57.5 24q34 0 57 -24.5t23 -59.5v-1229q0 -35 -23 -59.5t-57 -24.5z" />
    <glyph glyph-name="Omicrontonos" unicode="&#x38c;" horiz-adv-x="1599" 
d="M-35 1030q-32 0 -53.5 25t-15.5 65l43 299q5 34 28.5 56t55.5 22q38 0 63 -28.5t14 -77.5l-65 -301q-4 -21 -21.5 -40.5t-48.5 -19.5zM799 1374q145 0 275 -55t223.5 -148t148.5 -222.5t55 -272.5q0 -192 -93 -352.5t-254.5 -253.5t-354.5 -93q-145 0 -275 54.5
t-223.5 148t-148 223t-54.5 273.5t54.5 273.5t148 222.5t223.5 147.5t275 54.5zM801 1227q-230 0 -383.5 -156.5t-153.5 -392.5q0 -238 153.5 -395.5t383.5 -157.5q150 0 272.5 72t192 199t69.5 282q0 154 -69.5 280t-192 197.5t-272.5 71.5z" />
    <glyph glyph-name="Upsilontonos" unicode="&#x38e;" horiz-adv-x="1263" 
d="M-156 1497q38 0 63.5 -28.5t14.5 -77.5l-65 -301q-4 -21 -21.5 -40.5t-48.5 -19.5q-33 0 -54.5 25.5t-15.5 64.5l43 299q5 34 28.5 56t55.5 22zM1171 1296q0 -26 -20 -59l-440 -715v-461q0 -35 -23 -59.5t-57 -24.5q-35 0 -57.5 24t-22.5 60v465l-436 711q-23 36 -23 61
q0 32 23.5 54t58.5 22q26 0 43.5 -10.5t34.5 -36.5l381 -627l381 627q18 26 34.5 36.5t43.5 10.5q34 0 56.5 -23t22.5 -55z" />
    <glyph glyph-name="Omegatonos" unicode="&#x38f;" horiz-adv-x="1622" 
d="M23 1497q38 0 63 -28.5t14 -77.5l-65 -301q-4 -21 -21.5 -40.5t-48.5 -19.5q-32 0 -53.5 25t-15.5 65l43 299q5 34 28.5 56t55.5 22zM1425 143q31 0 52.5 -20.5t21.5 -50.5q0 -29 -21.5 -50.5t-52.5 -21.5h-417q-38 0 -64 24t-26 58q0 50 47 74q187 94 284 231t97 309
q0 230 -152.5 380.5t-384.5 150.5t-383.5 -149.5t-151.5 -379.5q0 -173 97.5 -311.5t283.5 -230.5q47 -24 47 -74q0 -34 -26 -58t-64 -24h-417q-31 0 -52.5 21.5t-21.5 50.5q0 30 21.5 50.5t52.5 20.5h241q-327 219 -327 559q0 141 54 265.5t147 213.5t222.5 141t276.5 52
q195 0 356 -88.5t253.5 -242.5t92.5 -341q0 -169 -81.5 -306t-249.5 -253h245z" />
    <glyph glyph-name="iotadieresistonos" unicode="&#x390;" horiz-adv-x="583" 
d="M231 1157q-29 0 -50.5 21t-18.5 49l41 334q5 34 26 55.5t54 21.5q35 0 60.5 -27.5t18.5 -68.5l-57 -305q-15 -80 -74 -80zM-61 1270q-44 0 -78.5 32.5t-34.5 75.5q0 45 34.5 78t78.5 33q47 0 79.5 -32.5t32.5 -78.5q0 -45 -32.5 -76.5t-79.5 -31.5zM563 1270
q-45 0 -78.5 32t-33.5 76q0 45 33.5 78t78.5 33q47 0 81 -32.5t34 -78.5q0 -44 -34 -76t-81 -32zM426 -23q-126 0 -192 74.5t-66 214.5v672q0 34 22.5 58t57.5 24q33 0 55.5 -23.5t22.5 -58.5v-659q0 -158 127 -158h20q36 0 59 -19t23 -49q0 -45 -47 -65q-37 -11 -82 -11z
" />
    <glyph glyph-name="Alpha" unicode="&#x391;" horiz-adv-x="1359" 
d="M1274 106q14 -28 14 -51q0 -31 -23.5 -54.5t-54.5 -23.5q-51 0 -77 54l-109 243h-694l-103 -243q-23 -54 -75 -54q-32 0 -55 23.5t-23 54.5q0 21 12 51l518 1213q24 55 76 55t76 -55zM680 1135l-291 -717h574z" />
    <glyph glyph-name="Beta" unicode="&#x392;" horiz-adv-x="1261" 
d="M907 743q125 -37 194.5 -129t69.5 -225q0 -175 -117.5 -282t-310.5 -107h-473q-36 0 -60 24t-24 60v1184q0 36 24 60t60 24h381q173 0 279 -94t106 -248q0 -171 -129 -267zM635 1208h-289v-420h289q111 0 174 56t63 155q0 98 -62.5 153.5t-174.5 55.5zM727 143
q131 0 206 66.5t75 183.5t-75 183.5t-206 66.5h-381v-500h381z" />
    <glyph glyph-name="Gamma" unicode="&#x393;" horiz-adv-x="1036" 
d="M266 -23q-35 0 -57.5 24t-22.5 60v1207q0 36 24 60t60 24h652q32 0 52.5 -21t20.5 -51q0 -31 -20.5 -51.5t-52.5 -20.5h-576v-1147q0 -35 -23 -59.5t-57 -24.5z" />
    <glyph glyph-name="uni0394" unicode="&#x394;" horiz-adv-x="1359" 
d="M1274 129q14 -28 14 -51q0 -31 -23.5 -54.5t-54.5 -23.5h-1058q-32 0 -55 23.5t-23 54.5q0 21 12 51l518 1190q24 55 76 55t76 -55zM680 1139l-416 -996h834z" />
    <glyph glyph-name="Epsilon" unicode="&#x395;" horiz-adv-x="1159" 
d="M260 0q-32 0 -53 21.5t-21 52.5v1204q0 31 21 52.5t53 21.5h727q31 0 52.5 -21.5t21.5 -50.5q0 -31 -21.5 -51.5t-52.5 -20.5h-641v-413h477q31 0 52.5 -20.5t21.5 -51.5q0 -29 -21.5 -50.5t-52.5 -21.5h-477v-508h666q31 0 52 -20t21 -51q0 -30 -21.5 -51t-51.5 -21
h-752z" />
    <glyph glyph-name="Zeta" unicode="&#x396;" horiz-adv-x="1206" 
d="M1071 143q31 0 52.5 -20.5t21.5 -50.5q0 -29 -21.5 -50.5t-52.5 -21.5h-930q-32 0 -53.5 21t-21.5 51q0 16 26 55l821 1081h-692q-32 0 -53 20.5t-21 51.5q0 30 21 51t53 21h840q31 0 52.5 -21.5t21.5 -50.5q0 -22 -25 -53l-823 -1084h784z" />
    <glyph glyph-name="Eta" unicode="&#x397;" horiz-adv-x="1449" 
d="M266 -23q-35 0 -57.5 24t-22.5 58v1233q0 34 22.5 58t57.5 24q34 0 57 -24t23 -58v-497h758v497q0 34 23 58t57 24q35 0 57.5 -24t22.5 -58v-1233q0 -34 -22.5 -58t-57.5 -24q-34 0 -57 24t-23 58v592h-758v-592q0 -34 -23 -58t-57 -24z" />
    <glyph glyph-name="Theta" unicode="&#x398;" horiz-adv-x="1599" 
d="M799 1374q145 0 275 -55t223.5 -148t148.5 -222.5t55 -272.5q0 -192 -93 -352.5t-254.5 -253.5t-354.5 -93q-145 0 -275 54.5t-223.5 148t-148 223t-54.5 273.5t54.5 273.5t148 222.5t223.5 147.5t275 54.5zM799 1233q-233 0 -387 -159t-154 -398t154 -398t387 -159
q115 0 216 42.5t173 116.5t113.5 177.5t41.5 220.5t-41.5 220.5t-113.5 177.5t-173 116.5t-216 42.5zM1026 762q31 0 51.5 -19.5t20.5 -50.5q0 -29 -20.5 -49t-51.5 -20h-453q-31 0 -51 20t-20 49q0 31 20 50.5t51 19.5h453z" />
    <glyph glyph-name="Iota" unicode="&#x399;" horiz-adv-x="530" 
d="M266 -23q-35 0 -57.5 24t-22.5 60v1229q0 36 22.5 60t57.5 24q34 0 57 -24.5t23 -59.5v-1229q0 -35 -23 -59.5t-57 -24.5z" />
    <glyph glyph-name="Kappa" unicode="&#x39a;" horiz-adv-x="1296" 
d="M266 1374q34 0 57 -24.5t23 -59.5v-1229q0 -35 -23 -59.5t-57 -24.5q-35 0 -57.5 24t-22.5 60v1229q0 36 22.5 60t57.5 24zM1167 109q31 -24 31 -60q0 -29 -21.5 -50.5t-52.5 -21.5q-30 0 -63 33l-645 660q-25 29 -25 55q0 27 27 57l586 559q36 33 61 33q31 0 52.5 -21
t21.5 -50q0 -32 -35 -64l-537 -514z" />
    <glyph glyph-name="Lambda" unicode="&#x39b;" horiz-adv-x="1359" 
d="M1274 106q14 -28 14 -51q0 -31 -23.5 -54.5t-54.5 -23.5q-54 0 -77 54l-453 1077l-453 -1077q-23 -54 -75 -54q-32 0 -55 23.5t-23 54.5q0 21 12 51l518 1213q24 55 76 55t76 -55z" />
    <glyph glyph-name="Mu" unicode="&#x39c;" horiz-adv-x="1613" 
d="M1354 1374q32 0 52.5 -23.5t20.5 -58.5v-1233q0 -34 -22 -58t-57 -24q-34 0 -57 24t-23 58v971l-375 -586q-37 -57 -86 -57t-86 57l-375 586v-971q0 -34 -23 -58t-57 -24q-35 0 -57.5 24t-22.5 58v1233q0 35 21 58.5t53 23.5q28 0 47.5 -14.5t44.5 -54.5l455 -707
l453 707q26 40 46 54.5t48 14.5z" />
    <glyph glyph-name="Nu" unicode="&#x39d;" horiz-adv-x="1449" 
d="M1184 1374q35 0 57.5 -24t22.5 -60v-1235q0 -31 -22.5 -54.5t-55.5 -23.5q-40 0 -70 41l-770 1033v-990q0 -35 -23 -59.5t-57 -24.5q-35 0 -57.5 24t-22.5 60v1235q0 31 23.5 54.5t56.5 23.5q37 0 76 -53l764 -1020l-2 989q0 35 23 59.5t57 24.5z" />
    <glyph glyph-name="Xi" unicode="&#x39e;" horiz-adv-x="1120" 
d="M147 1208q-31 0 -52 20.5t-21 51.5q0 30 21 51t52 21h826q31 0 52.5 -21.5t21.5 -50.5q0 -31 -21.5 -51.5t-52.5 -20.5h-826zM172 631q-31 0 -52.5 20.5t-21.5 50.5q0 29 21.5 50.5t52.5 21.5h778q31 0 52.5 -21.5t21.5 -50.5q0 -30 -21.5 -50.5t-52.5 -20.5h-778zM147 0
q-31 0 -52 21t-21 51q0 31 21 51t52 20h826q31 0 52.5 -20.5t21.5 -50.5q0 -29 -21.5 -50.5t-52.5 -21.5h-826z" />
    <glyph glyph-name="Omicron" unicode="&#x39f;" horiz-adv-x="1599" 
d="M799 1374q145 0 275 -55t223.5 -148t148.5 -222.5t55 -272.5q0 -192 -93 -352.5t-254.5 -253.5t-354.5 -93q-145 0 -275 54.5t-223.5 148t-148 223t-54.5 273.5t54.5 273.5t148 222.5t223.5 147.5t275 54.5zM801 1227q-230 0 -383.5 -156.5t-153.5 -392.5
q0 -238 153.5 -395.5t383.5 -157.5q150 0 272.5 72t192 199t69.5 282q0 154 -69.5 280t-192 197.5t-272.5 71.5z" />
    <glyph glyph-name="Pi" unicode="&#x3a0;" horiz-adv-x="1396" 
d="M266 -23q-35 0 -57.5 24t-22.5 60v1207q0 36 24 60t60 24h856q36 0 60 -24t24 -60v-1207q0 -36 -22.5 -60t-57.5 -24q-34 0 -56.5 24.5t-22.5 59.5v1147h-705v-1147q0 -35 -23 -59.5t-57 -24.5z" />
    <glyph glyph-name="Rho" unicode="&#x3a1;" horiz-adv-x="1173" 
d="M266 -23q-35 0 -57.5 24t-22.5 60v1207q0 36 24 60t60 24h392q193 0 312.5 -108t119.5 -283q0 -177 -119.5 -286.5t-312.5 -109.5h-316v-504q0 -35 -23 -59.5t-57 -24.5zM346 709h311q126 0 198.5 66t72.5 183q0 116 -72.5 183t-198.5 67h-311v-499z" />
    <glyph glyph-name="Sigma" unicode="&#x3a3;" horiz-adv-x="1175" 
d="M1028 143q31 0 52.5 -20.5t21.5 -50.5q0 -29 -21.5 -50.5t-52.5 -21.5h-815q-33 0 -56.5 23.5t-23.5 56.5q0 26 14 47l469 565l-456 518q-25 34 -25 62q0 33 23.5 56.5t56.5 23.5h789q30 0 51.5 -21t21.5 -51q0 -31 -21 -51.5t-52 -20.5h-639l407 -463q19 -22 19 -53
q0 -29 -19 -51l-412 -498h668z" />
    <glyph glyph-name="Tau" unicode="&#x3a4;" horiz-adv-x="1189" 
d="M594 -23q-34 0 -57 24.5t-23 59.5v1147h-408q-32 0 -53.5 20.5t-21.5 51.5q0 30 21.5 51t53.5 21h979q31 0 52.5 -21.5t21.5 -50.5q0 -31 -21.5 -51.5t-52.5 -20.5h-411v-1147q0 -36 -22.5 -60t-57.5 -24z" />
    <glyph glyph-name="Upsilon" unicode="&#x3a5;" horiz-adv-x="1263" 
d="M1171 1296q0 -26 -20 -59l-440 -715v-461q0 -35 -23 -59.5t-57 -24.5q-35 0 -57.5 24t-22.5 60v465l-436 711q-23 36 -23 61q0 32 23.5 54t58.5 22q26 0 43.5 -10.5t34.5 -36.5l381 -627l381 627q18 26 34.5 36.5t43.5 10.5q34 0 56.5 -23t22.5 -55z" />
    <glyph glyph-name="Phi" unicode="&#x3a6;" horiz-adv-x="1634" 
d="M1534 686q0 -165 -79 -292t-224 -196.5t-336 -70.5v-129q0 -36 -22.5 -60t-57.5 -24q-34 0 -57 24.5t-23 59.5v129q-287 1 -462 154.5t-175 404.5q0 249 174.5 400t462.5 153v115q0 35 23 59.5t57 24.5q35 0 57.5 -24t22.5 -60v-115q289 -2 464 -153t175 -400zM264 682
q0 -190 126.5 -300t344.5 -110v822q-219 0 -345 -110t-126 -302zM895 272q219 0 346 110t127 300q0 192 -127 302t-346 110v-822z" />
    <glyph glyph-name="Chi" unicode="&#x3a7;" horiz-adv-x="1226" 
d="M1116 111q23 -29 23 -56q0 -32 -23 -55t-55 -23q-39 0 -62 33l-385 551l-385 -551q-23 -33 -63 -33q-32 0 -55 23t-23 55q0 27 23 56l413 583l-381 547q-22 28 -22 55q0 32 23 55t55 23q40 0 63 -33l352 -516l355 516q20 33 61 33q32 0 55 -23t23 -55q0 -26 -23 -55
l-378 -547z" />
    <glyph glyph-name="Psi" unicode="&#x3a8;" horiz-adv-x="1679" 
d="M840 -23q-34 0 -57 24.5t-23 59.5v250q-295 0 -455 136.5t-160 388.5v454q0 36 22.5 60t57.5 24q34 0 57 -24.5t23 -59.5v-442q0 -191 117 -292t338 -101v878q0 35 23 59.5t57 24.5q35 0 57.5 -24t22.5 -60v-878q221 0 337.5 101t116.5 292v442q0 36 22.5 60t57.5 24
q34 0 57 -24.5t23 -59.5v-454q0 -252 -159.5 -388.5t-454.5 -136.5v-250q0 -36 -22.5 -60t-57.5 -24z" />
    <glyph glyph-name="uni03A9" unicode="&#x3a9;" horiz-adv-x="1622" 
d="M1425 143q31 0 52.5 -20.5t21.5 -50.5q0 -29 -21.5 -50.5t-52.5 -21.5h-417q-38 0 -64 24t-26 58q0 50 47 74q187 94 284 231t97 309q0 230 -152.5 380.5t-384.5 150.5t-383.5 -149.5t-151.5 -379.5q0 -173 97.5 -311.5t283.5 -230.5q47 -24 47 -74q0 -34 -26 -58
t-64 -24h-417q-31 0 -52.5 21.5t-21.5 50.5q0 30 21.5 50.5t52.5 20.5h241q-327 219 -327 559q0 141 54 265.5t147 213.5t222.5 141t276.5 52q195 0 356 -88.5t253.5 -242.5t92.5 -341q0 -169 -81.5 -306t-249.5 -253h245z" />
    <glyph glyph-name="Iotadieresis" unicode="&#x3aa;" horiz-adv-x="530" 
d="M27 1550q-44 0 -78.5 32t-34.5 77t34.5 76.5t78.5 31.5q47 0 79.5 -31t32.5 -77t-32.5 -77.5t-79.5 -31.5zM504 1548q-45 0 -79 32.5t-34 76.5q0 45 34 77.5t79 32.5q46 0 79 -32t33 -78q0 -44 -33 -76.5t-79 -32.5zM266 -23q-35 0 -57.5 24t-22.5 60v1229q0 36 22.5 60
t57.5 24q34 0 57 -24.5t23 -59.5v-1229q0 -35 -23 -59.5t-57 -24.5z" />
    <glyph glyph-name="Upsilondieresis" unicode="&#x3ab;" horiz-adv-x="1263" 
d="M391 1550q-44 0 -78 32t-34 77t34 76.5t78 31.5q47 0 80 -31t33 -77t-33 -77.5t-80 -31.5zM868 1548q-45 0 -78.5 32.5t-33.5 76.5q0 45 33.5 77.5t78.5 32.5q46 0 79.5 -32.5t33.5 -77.5q0 -44 -33.5 -76.5t-79.5 -32.5zM1171 1296q0 -26 -20 -59l-440 -715v-461
q0 -35 -23 -59.5t-57 -24.5q-35 0 -57.5 24t-22.5 60v465l-436 711q-23 36 -23 61q0 32 23.5 54t58.5 22q26 0 43.5 -10.5t34.5 -36.5l381 -627l381 627q18 26 34.5 36.5t43.5 10.5q34 0 56.5 -23t22.5 -55z" />
    <glyph glyph-name="alphatonos" unicode="&#x3ac;" horiz-adv-x="1316" 
d="M643 1157q-30 0 -51.5 21.5t-18.5 48.5l41 334q5 34 26 55.5t54 21.5q35 0 61 -28t19 -68l-57 -305q-15 -80 -74 -80zM1223 127q31 0 51 -18.5t20 -47.5q0 -41 -30 -59q-27 -16 -97 -16q-174 0 -209 174q-56 -86 -153 -134.5t-217 -48.5q-207 0 -346.5 149.5
t-139.5 373.5q0 147 63.5 266.5t175 186.5t247.5 67q122 0 221 -51t154 -140q1 19 4 52t4 47q3 33 23 51t53 18q35 0 55.5 -23.5t17.5 -60.5q-14 -134 -14 -391v-250q0 -77 26.5 -111t86.5 -34h4zM608 123q152 0 247 104t95 271t-95 271.5t-247 104.5q-149 0 -246.5 -105.5
t-97.5 -268.5t97.5 -270t246.5 -107z" />
    <glyph glyph-name="epsilontonos" unicode="&#x3ad;" horiz-adv-x="1019" 
d="M524 1157q-30 0 -51 21t-18 49l41 334q5 34 25.5 55.5t53.5 21.5q35 0 61 -28t19 -68l-57 -305q-15 -80 -74 -80zM844 256q30 0 50.5 -21.5t20.5 -52.5q0 -26 -18 -47q-139 -158 -373 -158q-174 0 -285.5 84t-111.5 218q0 81 43.5 145.5t122.5 101.5q-59 36 -90 94
t-31 128q0 127 96.5 199.5t257.5 72.5q220 0 351 -135q20 -20 20 -49q0 -31 -20.5 -52.5t-51.5 -21.5q-29 0 -51 22q-105 90 -242 90q-198 0 -198 -139q0 -64 43.5 -100.5t130.5 -36.5h123q30 0 50.5 -20t20.5 -50q0 -29 -21 -49t-50 -20h-119q-110 0 -166.5 -45t-56.5 -117
q0 -79 62 -126.5t177 -47.5q86 0 145 25t120 85q23 23 51 23z" />
    <glyph glyph-name="etatonos" unicode="&#x3ae;" horiz-adv-x="1200" 
d="M598 1157q-30 0 -51.5 21.5t-18.5 48.5l41 334q5 34 26 55.5t54 21.5q35 0 61 -28t19 -68l-57 -305q-15 -80 -74 -80zM668 1020q170 0 271 -106.5t101 -286.5v-936q0 -35 -22.5 -58.5t-54.5 -23.5q-35 0 -57.5 24t-22.5 58v915q0 121 -68.5 194.5t-179.5 73.5
q-117 0 -190.5 -75.5t-73.5 -192.5v-547q0 -34 -23 -58t-55 -24q-33 0 -55.5 24t-22.5 58v674q0 78 -53 121q-27 20 -68 20q-29 0 -50 21t-21 49q0 38 32 57q35 17 90 17q154 0 201 -139q57 68 140.5 104.5t181.5 36.5z" />
    <glyph glyph-name="iotatonos" unicode="&#x3af;" horiz-adv-x="583" 
d="M252 1157q-30 0 -51.5 21.5t-18.5 48.5l41 334q5 34 26 55.5t54 21.5q35 0 61 -28t19 -68l-57 -305q-15 -80 -74 -80zM426 -23q-126 0 -192 74.5t-66 214.5v672q0 34 22.5 58t57.5 24q33 0 55.5 -23.5t22.5 -58.5v-659q0 -158 127 -158h20q36 0 59 -19t23 -49
q0 -45 -47 -65q-37 -11 -82 -11z" />
    <glyph glyph-name="upsilondieresistonos" unicode="&#x3b0;" horiz-adv-x="1130" 
d="M526 1157q-30 0 -51 21t-18 49l41 334q5 34 26 55.5t54 21.5q35 0 60.5 -27.5t18.5 -68.5l-57 -305q-15 -80 -74 -80zM233 1270q-43 0 -77.5 32t-34.5 76q0 45 34 78t78 33q47 0 80 -32.5t33 -78.5q0 -44 -33 -76t-80 -32zM858 1270q-45 0 -79 32t-34 76q0 45 34 78
t79 33q47 0 81 -32.5t34 -78.5q0 -44 -34 -76t-81 -32zM582 -23q-191 0 -305.5 117.5t-114.5 315.5v528q0 34 22.5 58t57.5 24q32 0 54.5 -24t22.5 -58v-537q0 -126 72.5 -203t192.5 -77q125 0 191.5 90t66.5 260q0 83 -14 188.5t-33 174.5q-29 97 -29 116q0 30 21 50t53 20
q30 0 48 -14.5t30 -47.5q39 -110 62.5 -241t23.5 -240q0 -237 -112 -368.5t-310 -131.5z" />
    <glyph glyph-name="alpha" unicode="&#x3b1;" horiz-adv-x="1316" 
d="M1223 127q31 0 51 -18.5t20 -47.5q0 -41 -30 -59q-27 -16 -97 -16q-174 0 -209 174q-56 -86 -153 -134.5t-217 -48.5q-207 0 -346.5 149.5t-139.5 373.5q0 147 63.5 266.5t175 186.5t247.5 67q122 0 221 -51t154 -140q1 19 4 52t4 47q3 33 23 51t53 18q35 0 55.5 -23.5
t17.5 -60.5q-14 -134 -14 -391v-250q0 -77 26.5 -111t86.5 -34h4zM608 123q152 0 247 104t95 271t-95 271.5t-247 104.5q-149 0 -246.5 -105.5t-97.5 -268.5t97.5 -270t246.5 -107z" />
    <glyph glyph-name="beta" unicode="&#x3b2;" horiz-adv-x="1249" 
d="M815 870q153 -38 242.5 -153t89.5 -277q0 -203 -134 -333t-343 -130q-193 0 -338 123v-409q0 -35 -22.5 -58.5t-55.5 -23.5q-35 0 -57.5 24t-22.5 58v1446q0 191 116 306.5t308 115.5q173 0 281 -104t108 -271q0 -104 -45 -185t-127 -129zM653 123q148 0 240 88.5
t92 232.5q0 145 -94 234.5t-248 89.5h-49q-33 0 -55.5 19.5t-22.5 48.5q0 68 78 71q106 5 168.5 75.5t62.5 188.5q0 112 -63 177t-172 65q-118 0 -188 -78t-70 -209v-858q61 -70 144 -107.5t177 -37.5z" />
    <glyph glyph-name="gamma" unicode="&#x3b3;" horiz-adv-x="1103" 
d="M1051 942q0 -18 -7 -35l-413 -868v-348q0 -34 -23 -58t-55 -24q-33 0 -55.5 24t-22.5 58v344l-414 870q-8 16 -8 37q0 31 23.5 54.5t54.5 23.5q52 0 76 -49l346 -748l344 748q24 49 76 49q31 0 54.5 -23.5t23.5 -54.5z" />
    <glyph glyph-name="delta" unicode="&#x3b4;" horiz-adv-x="1249" 
d="M913 946q123 -109 178.5 -213.5t55.5 -226.5q0 -146 -69 -267.5t-189.5 -191.5t-265.5 -70q-143 0 -263 69t-189 189.5t-69 264.5q0 141 67.5 258.5t185.5 185t261 68.5l-440 399q-26 26 -26 55q0 28 20.5 49t48.5 21h809q29 0 50.5 -20.5t21.5 -49.5q0 -30 -21 -49.5
t-51 -19.5h-612zM625 123q154 0 257 107.5t103 267.5q0 158 -103 264t-257 106t-257.5 -106.5t-103.5 -265.5q0 -160 103.5 -266.5t257.5 -106.5z" />
    <glyph glyph-name="epsilon" unicode="&#x3b5;" horiz-adv-x="1019" 
d="M844 256q30 0 50.5 -21.5t20.5 -52.5q0 -26 -18 -47q-139 -158 -373 -158q-174 0 -285.5 84t-111.5 218q0 81 43.5 145.5t122.5 101.5q-59 36 -90 94t-31 128q0 127 96.5 199.5t257.5 72.5q220 0 351 -135q20 -20 20 -49q0 -31 -20.5 -52.5t-51.5 -21.5q-29 0 -51 22
q-105 90 -242 90q-198 0 -198 -139q0 -64 43.5 -100.5t130.5 -36.5h123q30 0 50.5 -20t20.5 -50q0 -29 -21 -49t-50 -20h-119q-110 0 -166.5 -45t-56.5 -117q0 -79 62 -126.5t177 -47.5q86 0 145 25t120 85q23 23 51 23z" />
    <glyph glyph-name="zeta" unicode="&#x3b6;" horiz-adv-x="1030" 
d="M707 127q294 -78 294 -309q0 -70 -28 -146q-26 -63 -78 -63q-35 0 -55.5 18t-20.5 49q0 16 10.5 58t10.5 65q0 140 -191 189l-143 35q-194 44 -299 153.5t-105 267.5q0 105 44.5 204t142.5 214l463 535h-512q-30 0 -51 19.5t-21 49.5q0 29 21.5 49.5t50.5 20.5h678
q27 0 47 -21t20 -49t-18 -49l-555 -637q-78 -89 -113 -164.5t-35 -154.5q0 -109 70.5 -180.5t218.5 -112.5z" />
    <glyph glyph-name="eta" unicode="&#x3b7;" horiz-adv-x="1200" 
d="M668 1020q170 0 271 -106.5t101 -286.5v-936q0 -35 -22.5 -58.5t-54.5 -23.5q-35 0 -57.5 24t-22.5 58v915q0 121 -68.5 194.5t-179.5 73.5q-117 0 -190.5 -75.5t-73.5 -192.5v-547q0 -34 -23 -58t-55 -24q-33 0 -55.5 24t-22.5 58v674q0 78 -53 121q-27 20 -68 20
q-29 0 -50 21t-21 49q0 38 32 57q35 17 90 17q154 0 201 -139q57 68 140.5 104.5t181.5 36.5z" />
    <glyph glyph-name="theta" unicode="&#x3b8;" horiz-adv-x="1263" 
d="M633 1559q242 0 364.5 -199t122.5 -590q0 -392 -123 -592.5t-364 -200.5q-243 0 -365.5 200t-122.5 593q0 392 122.5 590.5t365.5 198.5zM633 1413q-154 0 -233.5 -135.5t-90.5 -413.5h647q-10 278 -90.5 413.5t-232.5 135.5zM633 121q313 0 325 604h-651q6 -304 87 -454
t239 -150z" />
    <glyph glyph-name="iota" unicode="&#x3b9;" horiz-adv-x="583" 
d="M426 -23q-126 0 -192 74.5t-66 214.5v672q0 34 22.5 58t57.5 24q33 0 55.5 -23.5t22.5 -58.5v-659q0 -158 127 -158h20q36 0 59 -19t23 -49q0 -45 -47 -65q-37 -11 -82 -11z" />
    <glyph glyph-name="kappa" unicode="&#x3ba;" horiz-adv-x="1040" 
d="M254 1020q33 0 55.5 -24t22.5 -58v-879q0 -34 -22.5 -58t-55.5 -24q-35 0 -57.5 24t-22.5 58v879q0 34 22.5 58t57.5 24zM975 109q24 -21 24 -56q0 -32 -22.5 -54t-54.5 -22q-36 0 -68 37l-444 486q-23 23 -23 57t23 57l399 381q25 25 59 25q32 0 55 -21.5t23 -50.5
q0 -33 -35 -65l-348 -324z" />
    <glyph glyph-name="lambda" unicode="&#x3bb;" horiz-adv-x="1122" 
d="M1087 117q29 -19 29 -56q0 -73 -100 -73q-79 0 -125 42t-78 134l-240 647l-346 -786q-9 -22 -28 -35t-41 -13q-33 0 -56.5 23.5t-23.5 56.5q0 19 6 31l416 916l-86 235q-39 104 -85 140t-128 36q-31 0 -49 -2q-28 -3 -49 19t-21 51q0 24 17 43t42 24q44 9 88 9
q116 0 191 -56.5t131 -206.5l395 -1063q34 -92 84 -100q33 -6 57 -16z" />
    <glyph glyph-name="uni03BC" unicode="&#x3bc;" horiz-adv-x="1212" 
d="M1118 127q31 0 51.5 -18.5t20.5 -47.5q0 -28 -19 -48t-47 -23q-58 -4 -61 -4q-143 0 -193 123q-46 -62 -117.5 -97t-156.5 -35q-168 0 -264 119v-405q0 -35 -22.5 -58.5t-55.5 -23.5q-35 0 -57.5 24t-22.5 58v1247q0 34 22.5 58t57.5 24q32 0 55 -24t23 -58v-537
q0 -122 71 -200t183 -78t184 78t72 200v537q0 34 22.5 58t57.5 24q32 0 54.5 -23.5t22.5 -58.5v-659q0 -77 28 -114.5t87 -37.5h4z" />
    <glyph glyph-name="nu" unicode="&#x3bd;" horiz-adv-x="1103" 
d="M973 1020q31 0 54.5 -23.5t23.5 -54.5q0 -18 -7 -35l-419 -880q-23 -50 -72 -50q-51 0 -74 50l-418 878q-6 18 -6 37q0 31 23 54.5t55 23.5q50 0 74 -49l346 -748l346 748q9 22 29 35.5t45 13.5z" />
    <glyph glyph-name="xi" unicode="&#x3be;" horiz-adv-x="1058" 
d="M729 127q145 -28 223 -106t78 -203q0 -75 -29 -146q-26 -63 -77 -63q-34 0 -55 18t-21 49q0 16 10 58t10 65q0 152 -184 185l-129 22q-209 37 -319.5 155t-110.5 285q0 137 71 242.5t193 155.5q-90 52 -140 136t-50 189q0 168 120.5 279t298.5 111q114 0 206.5 -46.5
t156.5 -128.5q18 -24 18 -49q0 -29 -21 -50t-52 -21q-33 0 -62 32q-93 117 -235 117q-113 0 -191 -72t-78 -180q0 -111 79 -184.5t200 -73.5h131q30 0 51 -21t21 -51q0 -29 -21 -49t-51 -20h-154q-142 0 -235.5 -85t-93.5 -220q0 -119 81.5 -197.5t223.5 -105.5z" />
    <glyph glyph-name="omicron" unicode="&#x3bf;" horiz-adv-x="1249" 
d="M625 1020q218 0 370 -151t152 -369q0 -217 -152.5 -368.5t-371.5 -151.5q-143 1 -263 70t-189 188.5t-69 261.5q0 219 151.5 369.5t371.5 150.5zM625 874q-155 0 -258.5 -107.5t-102.5 -268.5q0 -160 102.5 -266.5t256.5 -106.5t258 107.5t104 265.5q0 161 -103 268.5
t-257 107.5z" />
    <glyph glyph-name="pi" unicode="&#x3c0;" horiz-adv-x="1189" 
d="M254 -23q-35 0 -57.5 24t-22.5 58v856q0 34 23.5 58t58.5 24h639q34 0 58 -24t24 -58v-657q0 -67 25.5 -99t80.5 -32h9q34 0 54.5 -17.5t20.5 -48.5q0 -36 -30 -57q-30 -18 -97 -18q-106 0 -163.5 67.5t-57.5 194.5v608h-487v-797q0 -35 -22.5 -58.5t-55.5 -23.5z" />
    <glyph glyph-name="rho" unicode="&#x3c1;" horiz-adv-x="1271" 
d="M657 1020q223 0 367.5 -146.5t144.5 -373.5q0 -223 -139 -373t-348 -150q-114 0 -209.5 45t-155.5 123v-452q0 -34 -22.5 -58t-54.5 -24q-33 0 -55.5 24t-22.5 58v801q0 235 136.5 380.5t358.5 145.5zM657 123q152 0 251.5 106.5t99.5 268.5q0 163 -99.5 269.5
t-253.5 106.5q-155 0 -247.5 -101.5t-92.5 -270.5t94.5 -274t247.5 -105z" />
    <glyph glyph-name="uni03C2" unicode="&#x3c2;" horiz-adv-x="1079" 
d="M862 -391q-34 0 -55 18t-21 49q0 16 10.5 58t10.5 65q0 79 -43.5 118.5t-171.5 76.5q-246 68 -368 196.5t-122 327.5q0 224 138.5 363t361.5 139q245 0 391 -178q17 -20 17 -47q0 -31 -21.5 -52.5t-50.5 -21.5q-33 0 -57 27q-117 126 -279 126q-152 0 -244 -96t-92 -254
q0 -278 365 -381q189 -54 263.5 -125.5t74.5 -199.5q0 -74 -29 -146q-26 -63 -78 -63z" />
    <glyph glyph-name="sigma" unicode="&#x3c3;" horiz-adv-x="1298" 
d="M1198 997q30 0 51 -20t21 -49q0 -30 -21 -51t-51 -21h-240q83 -65 129 -161.5t46 -209.5q0 -215 -148.5 -361.5t-368.5 -146.5t-367 149t-147 370q0 218 148.5 359.5t374.5 141.5h573zM616 123q152 0 253.5 107.5t101.5 267.5q0 157 -99 256.5t-254 99.5
q-156 0 -255 -100t-99 -258q0 -160 100 -266.5t252 -106.5z" />
    <glyph glyph-name="tau" unicode="&#x3c4;" horiz-adv-x="917" 
d="M807 131q32 0 51 -20t19 -50q0 -54 -70 -69q-69 -15 -158 -15q-173 0 -260.5 82t-87.5 242v555h-205q-31 0 -52 20.5t-21 51.5q0 29 21 49t52 20h676q30 0 51 -20t21 -49q0 -30 -21 -51t-51 -21h-315v-545q0 -100 53.5 -145t171.5 -45q28 0 69 5t56 5z" />
    <glyph glyph-name="upsilon" unicode="&#x3c5;" horiz-adv-x="1130" 
d="M582 -23q-191 0 -305.5 117.5t-114.5 315.5v528q0 34 22.5 58t57.5 24q32 0 54.5 -24t22.5 -58v-537q0 -126 72.5 -203t192.5 -77q125 0 191.5 90t66.5 260q0 83 -14 188.5t-33 174.5q-29 97 -29 116q0 30 21 50t53 20q30 0 48 -14.5t30 -47.5q39 -110 62.5 -241
t23.5 -240q0 -237 -112 -368.5t-310 -131.5z" />
    <glyph glyph-name="phi" unicode="&#x3c6;" horiz-adv-x="1529" 
d="M1427 498q0 -232 -161 -376t-424 -145v-286q0 -35 -22 -58.5t-56 -23.5t-57 24t-23 58v286q-262 1 -422 145t-160 376t160 374.5t422 143.5v399q0 35 23 58.5t57 23.5t56 -23t22 -59v-399q264 -1 424.5 -143.5t160.5 -374.5zM260 496q0 -175 114 -277t312 -102h2v757h-2
q-197 0 -311.5 -101.5t-114.5 -276.5zM840 117q199 0 315.5 102t116.5 277t-116 276.5t-316 101.5h-2v-757h2z" />
    <glyph glyph-name="chi" unicode="&#x3c7;" horiz-adv-x="1032" 
d="M969 -252q33 0 51 -19.5t18 -47.5q0 -38 -29 -55t-73 -17q-67 0 -120 36t-95 122l-207 423l-328 -540q-20 -41 -69 -41q-31 0 -54.5 23.5t-23.5 54.5q0 25 16 49l375 610l-219 436q-24 47 -52 66.5t-67 19.5q-35 0 -53.5 20.5t-18.5 49.5q0 38 30 55t73 17
q69 0 121.5 -36t93.5 -124l178 -369l293 496q23 41 70 41q32 0 54.5 -23.5t22.5 -54.5q0 -23 -14 -51l-342 -559l250 -496q25 -46 53 -66t66 -20z" />
    <glyph glyph-name="psi" unicode="&#x3c8;" horiz-adv-x="1583" 
d="M799 -391q-34 0 -57 24t-23 58v286q-254 0 -405.5 143.5t-151.5 381.5v436q0 34 22.5 58t55.5 24q32 0 54.5 -24t22.5 -58v-424q0 -175 111 -284t291 -109v1171q0 34 23 58t57 24q33 0 55.5 -24t22.5 -58v-1171q195 0 306 107.5t111 293.5q0 144 -47 309q-28 95 -28 119
q0 30 20.5 50t52.5 20q55 0 78 -62q39 -101 62.5 -220t23.5 -220q0 -249 -156 -395t-423 -146v-286q0 -35 -22.5 -58.5t-55.5 -23.5z" />
    <glyph glyph-name="omega" unicode="&#x3c9;" horiz-adv-x="1710" 
d="M1270 993q164 -58 250 -190t86 -324q0 -226 -118.5 -364t-313.5 -138q-107 0 -189.5 46.5t-128.5 132.5q-47 -86 -129.5 -132.5t-189.5 -46.5q-196 0 -315.5 137t-119.5 363q0 192 87 323.5t251 190.5q40 15 60 15q29 0 50 -22.5t21 -53.5q0 -52 -59 -78
q-248 -99 -248 -375q0 -158 77 -256t200 -98q105 0 170 77t65 203v316q0 34 22.5 58t57.5 24q32 0 55 -24t23 -58v-316q0 -126 63.5 -203t169.5 -77q124 0 200.5 98.5t76.5 257.5q0 274 -246 375q-59 24 -59 78q0 31 21 53.5t50 22.5q16 0 60 -15z" />
    <glyph glyph-name="iotadieresis" unicode="&#x3ca;" horiz-adv-x="583" 
d="M66 1270q-45 0 -79 32t-34 76t33.5 77.5t79.5 33.5q47 0 79.5 -32.5t32.5 -78.5q0 -45 -32.5 -76.5t-79.5 -31.5zM436 1270q-44 0 -78 32.5t-34 75.5q0 44 34 77.5t78 33.5q47 0 80 -32.5t33 -78.5q0 -44 -33 -76t-80 -32zM426 -23q-126 0 -192 74.5t-66 214.5v672
q0 34 22.5 58t57.5 24q33 0 55.5 -23.5t22.5 -58.5v-659q0 -158 127 -158h20q36 0 59 -19t23 -49q0 -45 -47 -65q-37 -11 -82 -11z" />
    <glyph glyph-name="upsilondieresis" unicode="&#x3cb;" horiz-adv-x="1130" 
d="M330 1489q47 0 79.5 -32.5t32.5 -78.5q0 -45 -32.5 -76.5t-79.5 -31.5q-44 0 -78.5 32.5t-34.5 75.5q0 44 34.5 77.5t78.5 33.5zM762 1489q47 0 79.5 -32.5t32.5 -78.5q0 -45 -32.5 -76.5t-79.5 -31.5q-44 0 -78.5 32.5t-34.5 75.5q0 44 34.5 77.5t78.5 33.5zM582 -23
q-191 0 -305.5 117.5t-114.5 315.5v528q0 34 22.5 58t57.5 24q32 0 54.5 -24t22.5 -58v-537q0 -126 72.5 -203t192.5 -77q125 0 191.5 90t66.5 260q0 83 -14 188.5t-33 174.5q-29 97 -29 116q0 30 21 50t53 20q30 0 48 -14.5t30 -47.5q39 -110 62.5 -241t23.5 -240
q0 -237 -112 -368.5t-310 -131.5z" />
    <glyph glyph-name="omicrontonos" unicode="&#x3cc;" horiz-adv-x="1249" 
d="M625 1157q-30 0 -51.5 21.5t-18.5 48.5l41 334q5 34 26 55.5t54 21.5q35 0 61 -28t19 -68l-58 -305q-15 -80 -73 -80zM625 1020q218 0 370 -151t152 -369q0 -217 -152.5 -368.5t-371.5 -151.5q-143 1 -263 70t-189 188.5t-69 261.5q0 219 151.5 369.5t371.5 150.5z
M625 874q-155 0 -258.5 -107.5t-102.5 -268.5q0 -160 102.5 -266.5t256.5 -106.5t258 107.5t104 265.5q0 161 -103 268.5t-257 107.5z" />
    <glyph glyph-name="upsilontonos" unicode="&#x3cd;" horiz-adv-x="1130" 
d="M547 1157q-30 0 -51.5 21.5t-18.5 48.5l41 334q5 34 26 55.5t54 21.5q35 0 61 -28t19 -68l-57 -305q-15 -80 -74 -80zM582 -23q-191 0 -305.5 117.5t-114.5 315.5v528q0 34 22.5 58t57.5 24q32 0 54.5 -24t22.5 -58v-537q0 -126 72.5 -203t192.5 -77q125 0 191.5 90
t66.5 260q0 83 -14 188.5t-33 174.5q-29 97 -29 116q0 30 21 50t53 20q30 0 48 -14.5t30 -47.5q39 -110 62.5 -241t23.5 -240q0 -237 -112 -368.5t-310 -131.5z" />
    <glyph glyph-name="omegatonos" unicode="&#x3ce;" horiz-adv-x="1710" 
d="M856 1157q-30 0 -51.5 21.5t-18.5 48.5l41 334q5 34 26 55.5t54 21.5q35 0 61 -28t19 -68l-57 -305q-15 -80 -74 -80zM1270 993q164 -58 250 -190t86 -324q0 -226 -118.5 -364t-313.5 -138q-107 0 -189.5 46.5t-128.5 132.5q-47 -86 -129.5 -132.5t-189.5 -46.5
q-196 0 -315.5 137t-119.5 363q0 192 87 323.5t251 190.5q40 15 60 15q29 0 50 -22.5t21 -53.5q0 -52 -59 -78q-248 -99 -248 -375q0 -158 77 -256t200 -98q105 0 170 77t65 203v316q0 34 22.5 58t57.5 24q32 0 55 -24t23 -58v-316q0 -126 63.5 -203t169.5 -77
q124 0 200.5 98.5t76.5 257.5q0 274 -246 375q-59 24 -59 78q0 31 21 53.5t50 22.5q16 0 60 -15z" />
    <glyph glyph-name="uni0400" unicode="&#x400;" horiz-adv-x="1159" 
d="M594 1489q-47 -3 -70 41l-145 231q-26 46 -6 85t63 44q54 7 80 -43l133 -256q16 -32 -0.5 -65t-54.5 -37zM260 0q-32 0 -53 21.5t-21 52.5v1204q0 31 21 52.5t53 21.5h727q31 0 52.5 -21.5t21.5 -50.5q0 -31 -21.5 -51.5t-52.5 -20.5h-641v-413h477q31 0 52.5 -20.5
t21.5 -51.5q0 -29 -21.5 -50.5t-52.5 -21.5h-477v-508h666q31 0 52 -20t21 -51q0 -30 -21.5 -51t-51.5 -21h-752z" />
    <glyph glyph-name="uni0401" unicode="&#x401;" horiz-adv-x="1159" 
d="M381 1550q-44 0 -78.5 32t-34.5 77t34.5 76.5t78.5 31.5q47 0 80 -31t33 -77t-33 -77.5t-80 -31.5zM858 1548q-45 0 -79 32.5t-34 76.5q0 45 34 77.5t79 32.5q46 0 79.5 -32.5t33.5 -77.5q0 -44 -33.5 -76.5t-79.5 -32.5zM260 0q-32 0 -53 21.5t-21 52.5v1204
q0 31 21 52.5t53 21.5h727q31 0 52.5 -21.5t21.5 -50.5q0 -31 -21.5 -51.5t-52.5 -20.5h-641v-413h477q31 0 52.5 -20.5t21.5 -51.5q0 -29 -21.5 -50.5t-52.5 -21.5h-477v-508h666q31 0 52 -20t21 -51q0 -30 -21.5 -51t-51.5 -21h-752z" />
    <glyph glyph-name="uni0402" unicode="&#x402;" horiz-adv-x="1550" 
d="M594 -23q-34 0 -57 24.5t-23 59.5v1147h-410q-31 0 -52 20.5t-21 51.5q0 30 21.5 51t51.5 21h981q31 0 52.5 -21.5t21.5 -50.5q0 -31 -21.5 -51.5t-52.5 -20.5h-411v-383h307q212 0 338.5 -114t126.5 -305q0 -145 -80.5 -248t-232.5 -152q-80 -26 -113 -26
q-31 0 -53.5 22.5t-22.5 54.5q0 27 17 46.5t45 27.5q274 67 274 277q0 124 -82 198t-219 74h-305v-619q0 -35 -23 -59.5t-57 -24.5z" />
    <glyph glyph-name="uni0403" unicode="&#x403;" horiz-adv-x="1040" 
d="M565 1489q-38 4 -54.5 37t-0.5 65l133 256q26 50 80 43q43 -5 63 -44t-6 -85l-145 -231q-23 -44 -70 -41zM926 1352q32 0 52.5 -21t20.5 -51q0 -31 -20.5 -51.5t-52.5 -20.5h-580v-1147q0 -35 -23 -59.5t-57 -24.5q-35 0 -57.5 24t-22.5 60v1207q0 36 24 60t60 24h656z
" />
    <glyph glyph-name="uni0404" unicode="&#x404;" horiz-adv-x="1464" 
d="M1282 358q31 0 53.5 -21t22.5 -50t-31 -68q-89 -114 -228.5 -178t-297.5 -64q-146 0 -276.5 54.5t-224 148t-148 223t-54.5 273.5t54.5 273.5t148 222.5t224 147.5t276.5 54.5q157 0 295.5 -63.5t230.5 -177.5q31 -39 31 -68t-22.5 -50.5t-53.5 -21.5q-42 0 -68 33
q-160 201 -411 201q-198 0 -344 -121t-183 -311h664q31 0 52.5 -20.5t21.5 -51.5q0 -29 -21.5 -50.5t-52.5 -21.5h-676q9 -226 162 -376t377 -150q248 0 411 201q25 32 68 32z" />
    <glyph glyph-name="uni0405" unicode="&#x405;" horiz-adv-x="1142" 
d="M582 -23q-131 0 -254.5 62.5t-202.5 169.5q-19 22 -19 49q0 31 22.5 52.5t53.5 21.5q37 0 62 -31q138 -176 336 -176q122 0 197 62.5t75 162.5q0 75 -47.5 126t-177.5 112l-152 71q-161 76 -233 162.5t-72 200.5q0 152 116.5 252t291.5 100q226 0 372 -162q29 -32 29 -65
q0 -28 -23.5 -50t-52.5 -22q-28 0 -55 27q-113 125 -273 125q-107 0 -173 -54t-66 -143q0 -72 43.5 -118t173.5 -109l149 -72q170 -82 243 -169t73 -208q0 -166 -121.5 -271.5t-314.5 -105.5z" />
    <glyph glyph-name="uni0406" unicode="&#x406;" horiz-adv-x="530" 
d="M266 1374q34 0 57 -24.5t23 -59.5v-1229q0 -35 -23 -59.5t-57 -24.5q-35 0 -57.5 24t-22.5 60v1229q0 36 22.5 60t57.5 24z" />
    <glyph glyph-name="uni0407" unicode="&#x407;" horiz-adv-x="530" 
d="M27 1550q-44 0 -78.5 32t-34.5 77t34.5 76.5t78.5 31.5q47 0 79.5 -31t32.5 -77t-32.5 -77.5t-79.5 -31.5zM504 1548q-45 0 -79 32.5t-34 76.5q0 45 34 77.5t79 32.5q46 0 79 -32t33 -78q0 -44 -33 -76.5t-79 -32.5zM266 1374q34 0 57 -24.5t23 -59.5v-1229
q0 -35 -23 -59.5t-57 -24.5q-35 0 -57.5 24t-22.5 60v1229q0 36 22.5 60t57.5 24z" />
    <glyph glyph-name="uni0408" unicode="&#x408;" horiz-adv-x="763" 
d="M227 -23q-78 0 -133 15q-26 7 -42.5 28.5t-16.5 47.5q0 33 23 54t57 21q21 0 63 -6t72 -6q82 0 126 51.5t44 145.5v962q0 36 22.5 60t57.5 24t57.5 -24t22.5 -60v-977q0 -163 -91.5 -249.5t-261.5 -86.5z" />
    <glyph glyph-name="uni0409" unicode="&#x409;" horiz-adv-x="2068" 
d="M1516 819q203 0 326.5 -112.5t123.5 -296.5q0 -185 -123.5 -297.5t-326.5 -112.5h-451q-35 0 -59.5 24.5t-24.5 59.5v1124h-457q-3 -534 -111.5 -842.5t-314.5 -371.5q-27 -8 -45 -8q-29 0 -50 21t-21 50q0 55 59 74q160 56 242 315t82 711v111q0 36 24 60t60 24h608
q35 0 59.5 -24.5t24.5 -59.5v-449h375zM1513 143q130 0 208.5 72.5t78.5 192.5q0 123 -78 195.5t-209 72.5h-372v-533h372z" />
    <glyph glyph-name="uni040A" unicode="&#x40a;" horiz-adv-x="2160" 
d="M266 -23q-35 0 -57.5 24t-22.5 60v1229q0 36 22.5 60t57.5 24q34 0 57 -24.5t23 -59.5v-489h725v489q0 35 23 59.5t57 24.5q35 0 57.5 -24t22.5 -60v-489h375q202 0 326 -110t124 -290q0 -181 -123.5 -291t-326.5 -110h-451q-35 0 -59.5 24.5t-24.5 59.5v573h-725v-596
q0 -35 -23 -59.5t-57 -24.5zM1231 143h373q133 0 209.5 68.5t76.5 187.5q0 117 -77.5 187.5t-208.5 70.5h-373v-514z" />
    <glyph glyph-name="uni040B" unicode="&#x40b;" horiz-adv-x="1619" 
d="M958 823q227 0 353.5 -138t126.5 -386v-238q0 -35 -23 -59.5t-57 -24.5t-57 24.5t-23 59.5v232q0 381 -334 381q-137 0 -270 -47v-566q0 -35 -23 -59.5t-57 -24.5t-57 24.5t-23 59.5v1147h-410q-31 0 -52 20.5t-21 51.5q0 30 21.5 51t51.5 21h981q31 0 52.5 -21.5
t21.5 -50.5q0 -31 -21.5 -51.5t-52.5 -20.5h-411v-432q130 47 284 47z" />
    <glyph glyph-name="uni040C" unicode="&#x40c;" horiz-adv-x="1286" 
d="M674 1489q-39 4 -55.5 37t-0.5 65l134 256q26 49 79 43q43 -5 63.5 -44t-5.5 -85l-146 -231q-23 -44 -69 -41zM266 1374q34 0 57 -24.5t23 -59.5v-1229q0 -35 -23 -59.5t-57 -24.5q-35 0 -57.5 24t-22.5 60v1229q0 36 22.5 60t57.5 24zM1167 109q31 -24 31 -60
q0 -29 -21.5 -50.5t-52.5 -21.5q-30 0 -63 33l-645 660q-25 29 -25 55q0 27 27 57l586 559q36 33 61 33q31 0 52.5 -21t21.5 -50q0 -32 -35 -64l-537 -514z" />
    <glyph glyph-name="uni040D" unicode="&#x40d;" horiz-adv-x="1470" 
d="M618 1530l-145 231q-26 46 -6 85t63 44q54 7 80 -43l133 -256q16 -32 -0.5 -65t-54.5 -37q-47 -3 -70 41zM1204 1374q33 0 56.5 -23.5t23.5 -54.5v-1235q0 -36 -22.5 -60t-57.5 -24q-34 0 -57 24.5t-23 59.5v1002l-796 -1053q-24 -33 -62 -33q-33 0 -56.5 23.5
t-23.5 54.5v1235q0 36 22.5 60t57.5 24q34 0 57 -24.5t23 -59.5v-1001l797 1052q24 33 61 33z" />
    <glyph glyph-name="uni040E" unicode="&#x40e;" horiz-adv-x="1249" 
d="M606 1499q-122 0 -214.5 79.5t-92.5 184.5q0 29 19 49.5t47 20.5q50 0 65 -66q15 -67 62.5 -106t113.5 -39q69 0 116.5 39.5t61.5 105.5q12 66 64 66q29 0 48 -20t19 -50q0 -106 -92.5 -185t-216.5 -79zM1090 1352q32 0 56.5 -24t24.5 -56q0 -19 -12 -43l-446 -971
q-132 -281 -398 -281q-62 0 -116 13q-27 6 -43.5 25.5t-16.5 45.5q0 29 22.5 50.5t53.5 21.5q7 0 35.5 -2t46.5 -2q98 0 156 36.5t100 121.5l10 22l-446 920q-11 29 -11 43q0 32 24 56t58 24q50 0 74 -49l387 -822l367 822q21 49 74 49z" />
    <glyph glyph-name="uni040F" unicode="&#x40f;" horiz-adv-x="1396" 
d="M1130 1374q35 0 57.5 -24t22.5 -60v-1206q0 -36 -24 -60t-60 -24h-348v-227q0 -35 -23 -59.5t-57 -24.5q-35 0 -57.5 24t-22.5 60v227h-348q-36 0 -60 24t-24 60v1206q0 36 22.5 60t57.5 24q34 0 57 -24.5t23 -59.5v-1147h705v1147q0 35 22.5 59.5t56.5 24.5z" />
    <glyph glyph-name="uni0410" unicode="&#x410;" horiz-adv-x="1359" 
d="M1274 106q14 -28 14 -51q0 -31 -23.5 -54.5t-54.5 -23.5q-51 0 -77 54l-109 243h-694l-103 -243q-23 -54 -75 -54q-32 0 -55 23.5t-23 54.5q0 21 12 51l518 1213q24 55 76 55t76 -55zM680 1135l-291 -717h574z" />
    <glyph glyph-name="uni0411" unicode="&#x411;" horiz-adv-x="1261" 
d="M967 1352q31 0 52 -21t21 -51q0 -31 -21 -51.5t-52 -20.5h-621v-420h397q193 0 310.5 -108t117.5 -287q0 -177 -117.5 -285t-310.5 -108h-473q-36 0 -60 24t-24 60v1184q0 36 24 60t60 24h697zM727 643h-381v-500h381q131 0 206 66.5t75 183.5t-75 183.5t-206 66.5z" />
    <glyph glyph-name="uni0412" unicode="&#x412;" horiz-adv-x="1261" 
d="M907 743q125 -37 194.5 -129t69.5 -225q0 -175 -117.5 -282t-310.5 -107h-473q-36 0 -60 24t-24 60v1184q0 36 24 60t60 24h381q173 0 279 -94t106 -248q0 -171 -129 -267zM635 1208h-289v-420h289q111 0 174 56t63 155q0 98 -62.5 153.5t-174.5 55.5zM727 143
q131 0 206 66.5t75 183.5t-75 183.5t-206 66.5h-381v-500h381z" />
    <glyph glyph-name="uni0413" unicode="&#x413;" horiz-adv-x="1040" 
d="M926 1352q32 0 52.5 -21t20.5 -51q0 -31 -20.5 -51.5t-52.5 -20.5h-580v-1147q0 -35 -23 -59.5t-57 -24.5q-35 0 -57.5 24t-22.5 60v1207q0 36 24 60t60 24h656z" />
    <glyph glyph-name="uni0414" unicode="&#x414;" horiz-adv-x="1415" 
d="M1264 143q35 0 58.5 -23.5t23.5 -60.5v-286q0 -36 -22.5 -60t-57.5 -24q-34 0 -57 24.5t-23 59.5v227h-979v-227q0 -36 -22.5 -60t-57.5 -24q-34 0 -57 24.5t-23 59.5v286q0 36 24 60t60 24h21q149 137 221.5 394t72.5 653v78q0 35 23.5 59.5t58.5 24.5h572
q35 0 59.5 -24.5t24.5 -59.5v-1125h80zM600 1208q-2 -402 -64.5 -658.5t-197.5 -406.5h686v1065h-424z" />
    <glyph glyph-name="uni0415" unicode="&#x415;" horiz-adv-x="1159" 
d="M260 0q-32 0 -53 21.5t-21 52.5v1204q0 31 21 52.5t53 21.5h727q31 0 52.5 -21.5t21.5 -50.5q0 -31 -21.5 -51.5t-52.5 -20.5h-641v-413h477q31 0 52.5 -20.5t21.5 -51.5q0 -29 -21.5 -50.5t-52.5 -21.5h-477v-508h666q31 0 52 -20t21 -51q0 -30 -21.5 -51t-51.5 -21
h-752z" />
    <glyph glyph-name="uni0416" unicode="&#x416;" horiz-adv-x="1976" 
d="M829 791q35 -32 35 -66q0 -30 -33 -66l-587 -636q-43 -46 -80 -46q-29 0 -50.5 22.5t-21.5 53.5q0 30 19 49l575 623l-508 520q-24 24 -24 55t21 52.5t50 21.5q35 0 60 -28zM989 1374q34 0 57 -24.5t23 -59.5v-1229q0 -35 -23 -59.5t-57 -24.5t-57 24.5t-23 59.5v1229
q0 35 23 59.5t57 24.5zM1868 102q18 -18 18 -49t-21 -53.5t-50 -22.5q-37 0 -80 46l-590 636q-33 36 -33 66q0 34 35 66l547 555q25 28 59 28q31 0 51.5 -21.5t20.5 -52.5q0 -30 -25 -55l-510 -520z" />
    <glyph glyph-name="uni0417" unicode="&#x417;" horiz-adv-x="1191" 
d="M858 735q110 -43 173 -132.5t63 -209.5q0 -180 -137.5 -298t-346.5 -118q-142 0 -266.5 61.5t-202.5 170.5q-20 29 -20 53q0 31 22.5 52.5t53.5 21.5q35 0 59 -33q156 -178 352 -178q138 0 230 77.5t92 194.5q0 110 -78 178t-201 68h-213q-32 0 -52.5 21t-20.5 51
q0 31 20.5 52t52.5 21h162q109 0 171.5 58t62.5 158t-67 161.5t-179 61.5q-176 0 -287 -133q-29 -33 -63 -33q-29 0 -51.5 22.5t-22.5 53.5q0 24 24 55q70 86 175.5 134t224.5 48q180 0 295.5 -102.5t115.5 -259.5q0 -87 -37 -159t-104 -118z" />
    <glyph glyph-name="uni0418" unicode="&#x418;" horiz-adv-x="1470" 
d="M1204 1374q33 0 56.5 -23.5t23.5 -54.5v-1235q0 -36 -22.5 -60t-57.5 -24q-34 0 -57 24.5t-23 59.5v1002l-796 -1053q-24 -33 -62 -33q-33 0 -56.5 23.5t-23.5 54.5v1235q0 36 22.5 60t57.5 24q34 0 57 -24.5t23 -59.5v-1001l797 1052q24 33 61 33z" />
    <glyph glyph-name="uni0419" unicode="&#x419;" horiz-adv-x="1470" 
d="M715 1499q-122 0 -214.5 79.5t-92.5 184.5q0 29 18.5 49.5t46.5 20.5q51 0 66 -66q15 -67 62.5 -106t113.5 -39q69 0 116.5 39.5t61.5 105.5q12 66 63 66q29 0 48.5 -20.5t19.5 -49.5q0 -106 -92.5 -185t-216.5 -79zM1204 1374q33 0 56.5 -23.5t23.5 -54.5v-1235
q0 -36 -22.5 -60t-57.5 -24q-34 0 -57 24.5t-23 59.5v1002l-796 -1053q-24 -33 -62 -33q-33 0 -56.5 23.5t-23.5 54.5v1235q0 36 22.5 60t57.5 24q34 0 57 -24.5t23 -59.5v-1001l797 1052q24 33 61 33z" />
    <glyph glyph-name="uni041A" unicode="&#x41a;" horiz-adv-x="1286" 
d="M266 1374q34 0 57 -24.5t23 -59.5v-1229q0 -35 -23 -59.5t-57 -24.5q-35 0 -57.5 24t-22.5 60v1229q0 36 22.5 60t57.5 24zM1167 109q31 -24 31 -60q0 -29 -21.5 -50.5t-52.5 -21.5q-30 0 -63 33l-645 660q-25 29 -25 55q0 27 27 57l586 559q36 33 61 33q31 0 52.5 -21
t21.5 -50q0 -32 -35 -64l-537 -514z" />
    <glyph glyph-name="uni041B" unicode="&#x41b;" horiz-adv-x="1327" 
d="M1057 1352q35 0 59.5 -24.5t24.5 -59.5v-1207q0 -35 -23 -59.5t-57 -24.5t-57 24.5t-23 59.5v1147h-457q-3 -536 -111 -843.5t-315 -370.5q-27 -8 -45 -8q-29 0 -50 21t-21 50q0 55 59 74q324 113 324 1026v111q0 36 24 60t60 24h608z" />
    <glyph glyph-name="uni041C" unicode="&#x41c;" horiz-adv-x="1613" 
d="M1354 1374q32 0 52.5 -23.5t20.5 -58.5v-1233q0 -34 -22 -58t-57 -24q-34 0 -57 24t-23 58v971l-375 -586q-37 -57 -86 -57t-86 57l-375 586v-971q0 -34 -23 -58t-57 -24q-35 0 -57.5 24t-22.5 58v1233q0 35 21 58.5t53 23.5q28 0 47.5 -14.5t44.5 -54.5l455 -707
l453 707q26 40 46 54.5t48 14.5z" />
    <glyph glyph-name="uni041D" unicode="&#x41d;" horiz-adv-x="1449" 
d="M266 -23q-35 0 -57.5 24t-22.5 58v1233q0 34 22.5 58t57.5 24q34 0 57 -24t23 -58v-497h758v497q0 34 23 58t57 24q35 0 57.5 -24t22.5 -58v-1233q0 -34 -22.5 -58t-57.5 -24q-34 0 -57 24t-23 58v592h-758v-592q0 -34 -23 -58t-57 -24z" />
    <glyph glyph-name="uni041E" unicode="&#x41e;" horiz-adv-x="1599" 
d="M799 1374q145 0 275 -55t223.5 -148t148.5 -222.5t55 -272.5q0 -192 -93 -352.5t-254.5 -253.5t-354.5 -93q-145 0 -275 54.5t-223.5 148t-148 223t-54.5 273.5t54.5 273.5t148 222.5t223.5 147.5t275 54.5zM801 1227q-230 0 -383.5 -156.5t-153.5 -392.5
q0 -238 153.5 -395.5t383.5 -157.5q150 0 272.5 72t192 199t69.5 282q0 154 -69.5 280t-192 197.5t-272.5 71.5z" />
    <glyph glyph-name="uni041F" unicode="&#x41f;" horiz-adv-x="1396" 
d="M266 -23q-35 0 -57.5 24t-22.5 60v1207q0 36 24 60t60 24h856q36 0 60 -24t24 -60v-1207q0 -36 -22.5 -60t-57.5 -24q-34 0 -56.5 24.5t-22.5 59.5v1147h-705v-1147q0 -35 -23 -59.5t-57 -24.5z" />
    <glyph glyph-name="uni0420" unicode="&#x420;" horiz-adv-x="1173" 
d="M266 -23q-35 0 -57.5 24t-22.5 60v1207q0 36 24 60t60 24h392q193 0 312.5 -108t119.5 -283q0 -177 -119.5 -286.5t-312.5 -109.5h-316v-504q0 -35 -23 -59.5t-57 -24.5zM346 709h311q126 0 198.5 66t72.5 183q0 116 -72.5 183t-198.5 67h-311v-499z" />
    <glyph glyph-name="uni0421" unicode="&#x421;" horiz-adv-x="1464" 
d="M801 -23q-146 0 -276.5 54.5t-224 148t-148 223t-54.5 273.5t54.5 273.5t148 222.5t224 147.5t276.5 54.5q157 0 295.5 -63.5t230.5 -177.5q31 -39 31 -68t-22.5 -50.5t-53.5 -21.5q-42 0 -68 33q-160 201 -411 201q-151 0 -275 -72t-194 -198.5t-70 -280.5t70 -280.5
t194 -198.5t275 -72q248 0 411 201q25 32 68 32q31 0 53.5 -21t22.5 -50t-31 -68q-89 -114 -228.5 -178t-297.5 -64z" />
    <glyph glyph-name="uni0422" unicode="&#x422;" horiz-adv-x="1189" 
d="M594 -23q-34 0 -57 24.5t-23 59.5v1147h-408q-32 0 -53.5 20.5t-21.5 51.5q0 30 21.5 51t53.5 21h979q31 0 52.5 -21.5t21.5 -50.5q0 -31 -21.5 -51.5t-52.5 -20.5h-411v-1147q0 -36 -22.5 -60t-57.5 -24z" />
    <glyph glyph-name="uni0423" unicode="&#x423;" horiz-adv-x="1249" 
d="M1090 1352q32 0 56.5 -24t24.5 -56q0 -19 -12 -43l-446 -971q-132 -281 -398 -281q-62 0 -116 13q-27 6 -43.5 25.5t-16.5 45.5q0 29 22.5 50.5t53.5 21.5q7 0 35.5 -2t46.5 -2q98 0 156 36.5t100 121.5l10 22l-446 920q-11 29 -11 43q0 32 24 56t58 24q50 0 74 -49
l387 -822l367 822q21 49 74 49z" />
    <glyph glyph-name="uni0424" unicode="&#x424;" horiz-adv-x="1634" 
d="M1534 686q0 -165 -79 -292t-224 -196.5t-336 -70.5v-129q0 -36 -22.5 -60t-57.5 -24q-34 0 -57 24.5t-23 59.5v129q-287 1 -462 154.5t-175 404.5q0 249 174.5 400t462.5 153v115q0 35 23 59.5t57 24.5q35 0 57.5 -24t22.5 -60v-115q289 -2 464 -153t175 -400zM264 682
q0 -190 126.5 -300t344.5 -110v822q-219 0 -345 -110t-126 -302zM895 272q219 0 346 110t127 300q0 192 -127 302t-346 110v-822z" />
    <glyph glyph-name="uni0425" unicode="&#x425;" horiz-adv-x="1226" 
d="M1116 111q23 -29 23 -56q0 -32 -23 -55t-55 -23q-39 0 -62 33l-385 551l-385 -551q-23 -33 -63 -33q-32 0 -55 23t-23 55q0 27 23 56l413 583l-381 547q-22 28 -22 55q0 32 23 55t55 23q40 0 63 -33l352 -516l355 516q20 33 61 33q32 0 55 -23t23 -55q0 -26 -23 -55
l-378 -547z" />
    <glyph glyph-name="uni0426" unicode="&#x426;" horiz-adv-x="1427" 
d="M1116 1374q34 0 57 -24.5t23 -59.5v-1147h80q36 0 60 -24t24 -60v-286q0 -35 -23 -59.5t-57 -24.5q-35 0 -57.5 24t-22.5 60v227h-930q-36 0 -60 24t-24 60v1206q0 36 22.5 60t57.5 24q34 0 57 -24.5t23 -59.5v-1147h690v1147q0 35 23 59.5t57 24.5z" />
    <glyph glyph-name="uni0427" unicode="&#x427;" horiz-adv-x="1275" 
d="M1012 1374q34 0 57 -24.5t23 -59.5v-1229q0 -35 -23 -59.5t-57 -24.5q-35 0 -57.5 24t-22.5 60v469q-136 -49 -289 -49q-253 0 -399 145.5t-146 397.5v266q0 35 23 59.5t57 24.5q35 0 57.5 -24t22.5 -60v-254q0 -192 103.5 -299.5t287.5 -107.5q149 0 283 57v604
q0 36 22.5 60t57.5 24z" />
    <glyph glyph-name="uni0428" unicode="&#x428;" horiz-adv-x="2093" 
d="M1829 1374q34 0 57 -24.5t23 -59.5v-1206q0 -35 -24.5 -59.5t-59.5 -24.5h-1555q-36 0 -60 24t-24 60v1206q0 36 22.5 60t57.5 24q34 0 57 -24.5t23 -59.5v-1147h623v1147q0 36 22.5 60t57.5 24q34 0 56.5 -24.5t22.5 -59.5v-1147h621v1147q0 35 23 59.5t57 24.5z" />
    <glyph glyph-name="uni0429" unicode="&#x429;" horiz-adv-x="2140" 
d="M1829 1374q34 0 57 -24.5t23 -59.5v-1147h80q36 0 60 -24t24 -60v-286q0 -35 -23 -59.5t-57 -24.5q-35 0 -57.5 24t-22.5 60v227h-1643q-36 0 -60 24t-24 60v1206q0 36 22.5 60t57.5 24q34 0 57 -24.5t23 -59.5v-1147h623v1147q0 36 22.5 60t57.5 24q34 0 56.5 -24.5
t22.5 -59.5v-1147h621v1147q0 35 23 59.5t57 24.5z" />
    <glyph glyph-name="uni042A" unicode="&#x42a;" horiz-adv-x="1308" 
d="M303 0q-35 0 -59.5 24.5t-24.5 59.5v1124h-174q-31 0 -52.5 20.5t-21.5 51.5q0 29 21.5 50.5t52.5 21.5h250q36 0 60 -24t24 -60v-449h375q204 0 327 -112t123 -297t-123 -297.5t-327 -112.5h-451zM379 143h373q131 0 208.5 72t77.5 193q0 123 -77 195.5t-209 72.5h-373
v-533z" />
    <glyph glyph-name="uni042B" unicode="&#x42b;" horiz-adv-x="1806" 
d="M266 1374q34 0 57 -24.5t23 -59.5v-471h375q207 0 328.5 -113.5t121.5 -295.5t-121.5 -296t-328.5 -114h-451q-36 0 -60 24t-24 60v1206q0 36 22.5 60t57.5 24zM1542 -23q-35 0 -57.5 24t-22.5 60v1229q0 36 22.5 60t57.5 24q34 0 57 -24.5t23 -59.5v-1229
q0 -35 -23 -59.5t-57 -24.5zM719 676h-373v-533h373q137 0 213 74t76 191q0 119 -76 193.5t-213 74.5z" />
    <glyph glyph-name="uni042C" unicode="&#x42c;" horiz-adv-x="1275" 
d="M266 1374q34 0 57 -24.5t23 -59.5v-471h375q207 0 328.5 -113.5t121.5 -295.5t-121.5 -296t-328.5 -114h-451q-36 0 -60 24t-24 60v1206q0 36 22.5 60t57.5 24zM719 676h-373v-533h373q137 0 213 74t76 191q0 119 -76 193.5t-213 74.5z" />
    <glyph glyph-name="uni042D" unicode="&#x42d;" horiz-adv-x="1464" 
d="M664 1374q194 0 355.5 -92.5t254 -252.5t92.5 -353q0 -144 -54.5 -273.5t-148 -223t-223.5 -148t-276 -54.5q-158 0 -298 64t-229 178q-31 39 -31 68t22.5 50t53.5 21q43 0 68 -32q163 -201 412 -201q224 0 376.5 150t161.5 376h-676q-30 0 -51.5 21.5t-21.5 50.5
q0 31 21 51.5t52 20.5h664q-37 190 -182.5 311t-343.5 121q-252 0 -412 -201q-26 -33 -68 -33q-31 0 -53.5 21.5t-22.5 50.5t31 68q92 114 231 177.5t296 63.5z" />
    <glyph glyph-name="uni042E" unicode="&#x42e;" horiz-adv-x="2201" 
d="M1401 1374q144 0 274 -55t223 -148t148 -222.5t55 -272.5q0 -192 -93 -352.5t-254 -253.5t-353 -93q-187 0 -344 89t-249.5 243.5t-98.5 341.5h-363v-590q0 -35 -23 -59.5t-57 -24.5q-35 0 -57.5 24t-22.5 60v1229q0 36 22.5 60t57.5 24q34 0 57 -24.5t23 -59.5v-495h373
q40 252 231 415.5t451 163.5zM1403 125q227 0 379.5 158.5t152.5 394.5q0 235 -152.5 392t-379.5 157q-150 0 -273 -71.5t-192.5 -197.5t-69.5 -280q0 -155 69.5 -282t192.5 -199t273 -72z" />
    <glyph glyph-name="uni042F" unicode="&#x42f;" horiz-adv-x="1265" 
d="M997 1352q35 0 59.5 -24.5t24.5 -59.5v-1207q0 -35 -23 -59.5t-57 -24.5q-35 0 -57 24t-22 60v451h-293q-42 0 -60 2l-338 -498q-24 -39 -67 -39q-32 0 -56 24t-24 58q0 27 18 50l306 446q-114 48 -178 146.5t-64 230.5q0 189 128 304.5t335 115.5h368zM922 655v553h-293
q-134 0 -215.5 -76t-81.5 -200q0 -126 81.5 -201.5t215.5 -75.5h293z" />
    <glyph glyph-name="uni0430" unicode="&#x430;" horiz-adv-x="1081" 
d="M532 1020q182 0 286 -108t104 -298v-555q0 -35 -22.5 -58.5t-55.5 -23.5q-34 0 -57 24t-23 58v58q-118 -140 -326 -140q-157 0 -252.5 77.5t-95.5 203.5t98 202.5t261 76.5h315v86q0 121 -63 186t-179 65q-144 0 -250 -112q-31 -31 -61 -31q-29 0 -50.5 20.5t-21.5 45.5
q0 34 29 67q64 75 159.5 115.5t204.5 40.5zM459 109q126 0 215.5 80t89.5 194v25h-297q-106 0 -160.5 -36.5t-54.5 -107.5q0 -70 56.5 -112.5t150.5 -42.5z" />
    </font>
</defs>
</svg>
