<?xml version="1.0" standalone="no"?>
<!DOCTYPE svg PUBLIC "-//W3C//DTD SVG 1.1//EN" "http://www.w3.org/Graphics/SVG/1.1/DTD/svg11.dtd" >
<svg xmlns="http://www.w3.org/2000/svg" xmlns:xlink="http://www.w3.org/1999/xlink" version="1.1">
<metadata>
Created by FontForge 20170731 at Wed Nov 16 16:45:47 2022
 By Aleksey,,,
Copyright (c) 2016 by Jakob Runge and Lisa Fischbach, under exclusive license to TypeMates. All rights reserved.
</metadata>
<defs>
<font id="CeraRoundPro-Medium" horiz-adv-x="1146" >
  <font-face 
    font-family="Cera Round Pro Medium"
    font-weight="500"
    font-stretch="normal"
    units-per-em="2048"
    panose-1="0 0 6 0 0 0 0 0 0 0"
    ascent="1655"
    descent="-393"
    x-height="1006"
    cap-height="1352"
    bbox="-312.361 -494 2736 2093.25"
    underline-thickness="155"
    underline-position="-359"
    unicode-range="U+0020-FB02"
  />
<missing-glyph horiz-adv-x="1454" 
d="M1176 1352q46 0 77 -31.5t31 -77.5v-1134q0 -46 -31 -77.5t-77 -31.5h-897q-46 0 -77.5 31.5t-31.5 77.5v1134q0 46 31.5 77.5t77.5 31.5h897zM1130 131v1081h-811z" />
    <glyph glyph-name="fi" unicode="fi" horiz-adv-x="1216" 
d="M655 1540q64 -23 64 -92q0 -38 -26.5 -62t-69.5 -24q-6 0 -22.5 1t-27.5 1q-80 0 -122.5 -44.5t-42.5 -129.5v-184h161q41 0 69 -27.5t28 -67.5t-28 -66t-69 -26h-161v-731q0 -49 -30.5 -80t-76.5 -31q-47 0 -77.5 31.5t-30.5 79.5v731h-70q-40 0 -67 26t-27 66t27 67.5
t67 27.5h70v202q0 166 91.5 258.5t254.5 92.5q64 0 116 -19zM954 1241q-60 0 -101.5 40.5t-41.5 98.5q0 59 41.5 99.5t101.5 40.5q59 0 101.5 -41t42.5 -99t-42.5 -98.5t-101.5 -40.5zM954 1028q46 0 76.5 -31.5t30.5 -78.5v-830q0 -47 -31.5 -79t-77.5 -32t-76 32t-30 79
v830q0 47 30.5 78.5t77.5 31.5z" />
    <glyph glyph-name="fl" unicode="fl" horiz-adv-x="1216" 
d="M655 1540q64 -23 64 -92q0 -38 -26.5 -62t-69.5 -24q-6 0 -22.5 1t-27.5 1q-80 0 -122.5 -44.5t-42.5 -129.5v-184h161q41 0 69 -27.5t28 -67.5t-28 -66t-69 -26h-161v-731q0 -49 -30.5 -80t-76.5 -31q-47 0 -77.5 31.5t-30.5 79.5v731h-70q-40 0 -67 26t-27 66t27 67.5
t67 27.5h70v202q0 166 91.5 258.5t254.5 92.5q64 0 116 -19zM954 1559q46 0 76.5 -32t30.5 -79v-1360q0 -47 -30.5 -79t-76.5 -32t-77 32t-31 79v1360q0 48 30.5 79.5t77.5 31.5z" />
    <glyph glyph-name=".notdef" horiz-adv-x="1454" 
d="M1176 1352q46 0 77 -31.5t31 -77.5v-1134q0 -46 -31 -77.5t-77 -31.5h-897q-46 0 -77.5 31.5t-31.5 77.5v1134q0 46 31.5 77.5t77.5 31.5h897zM1130 131v1081h-811z" />
    <glyph glyph-name=".null" horiz-adv-x="0" 
 />
    <glyph glyph-name="nonmarkingreturn" horiz-adv-x="682" 
 />
    <glyph glyph-name="space" unicode=" " horiz-adv-x="573" 
 />
    <glyph glyph-name="exclam" unicode="!" horiz-adv-x="665" 
d="M332 403q-45 0 -75 32t-32 77l-18 729q-2 60 32.5 96.5t92.5 36.5t91.5 -36t33.5 -97l-19 -729q-2 -45 -31.5 -77t-74.5 -32zM334 -23q-66 0 -112 45t-46 109q0 65 46 110.5t112 45.5q64 0 108.5 -45.5t44.5 -110.5t-44.5 -109.5t-108.5 -44.5z" />
    <glyph glyph-name="quotedbl" unicode="&#x22;" horiz-adv-x="1024" 
d="M254 745q-42 0 -70 27.5t-28 69.5q0 6 18.5 130t18.5 240q0 61 33 98.5t87 37.5q57 0 89 -35.5t32 -98.5q0 -64 -23.5 -190t-48.5 -188q-19 -51 -43 -71t-65 -20zM684 745q-42 0 -70 27.5t-28 69.5q0 6 18.5 130t18.5 240q0 61 33 98.5t87 37.5q57 0 89 -35.5t32 -98.5
q0 -65 -23 -190.5t-48 -187.5q-19 -51 -43 -71t-66 -20z" />
    <glyph glyph-name="numbersign" unicode="#" horiz-adv-x="1257" 
d="M1116 850h-110l-48 -348h113q37 0 61.5 -27t24.5 -65q0 -39 -26.5 -66t-65.5 -27h-131l-37 -268q-4 -31 -30 -51.5t-60 -20.5q-37 0 -63.5 26t-26.5 63q0 10 4 28l31 223h-344l-37 -268q-5 -31 -30 -51.5t-60 -20.5q-37 0 -62.5 26t-25.5 63q0 9 2 32l30 219h-86
q-39 0 -65.5 27t-26.5 66t26.5 65.5t65.5 26.5h111l49 348h-104q-41 0 -68 26.5t-27 65.5t27 65.5t68 26.5h129l36 269q3 30 29 50.5t60 20.5q37 0 63.5 -26.5t26.5 -61.5q0 -10 -4 -26l-31 -226h344l37 269q5 31 30 51t60 20q36 0 62 -26t26 -62q0 -10 -2 -26l-31 -226h86
q41 0 67.5 -26.5t26.5 -65.5t-26.5 -65.5t-67.5 -26.5zM432 496h344l47 360h-344z" />
    <glyph glyph-name="dollar" unicode="$" horiz-adv-x="1099" 
d="M989 395q0 -140 -94 -232t-248 -114v-164q0 -43 -28 -73.5t-70 -30.5q-43 0 -71.5 30t-28.5 74v168q-207 37 -328 207q-23 33 -23 62q0 41 29.5 67.5t69.5 26.5q42 0 67 -31q86 -102 185 -135v377q-295 117 -295 342q0 122 81.5 207t213.5 114v164q0 44 28.5 74.5
t71.5 30.5q42 0 70 -30t28 -75v-162q175 -28 277 -172q22 -31 22 -59q0 -42 -27.5 -70t-66.5 -28q-41 0 -70 32q-68 77 -135 99v-334l37 -15q148 -58 226.5 -143t78.5 -207zM369 971q0 -75 80 -125v241q-80 -34 -80 -116zM647 244q59 15 93 53t34 94q0 51 -32 86.5t-95 67.5
v-301z" />
    <glyph glyph-name="percent" unicode="%" horiz-adv-x="1681" 
d="M436 709q-144 0 -243 96.5t-99 236.5t98.5 236t243.5 96q143 0 242.5 -96.5t99.5 -235.5t-99.5 -236t-242.5 -97zM483 -23q-34 0 -57 23t-23 55q0 15 13 45l712 1237q23 37 70 37q32 0 55 -23t23 -55q0 -24 -12 -45l-713 -1237q-19 -37 -68 -37zM436 862q74 0 122 51
t48 129q0 77 -48.5 129t-121.5 52t-121.5 -51.5t-48.5 -129.5t47.5 -129t122.5 -51zM1243 -20q-143 0 -241.5 96t-98.5 235q0 141 98.5 237.5t241.5 96.5t243.5 -97.5t100.5 -236.5t-100.5 -235t-243.5 -96zM1245 133q72 0 120 51t48 127q0 78 -48 129.5t-120 51.5
q-74 0 -122 -51t-48 -130q0 -78 47.5 -128t122.5 -50z" />
    <glyph glyph-name="ampersand" unicode="&#x26;" horiz-adv-x="1329" 
d="M1071 309l143 -153q29 -32 29 -74q0 -43 -30.5 -74t-73.5 -31t-76 33l-131 144q-96 -92 -194.5 -134.5t-211.5 -42.5q-188 0 -308 101.5t-120 261.5q0 109 64 202t223 214q-129 159 -129 309q0 139 87.5 224t231.5 85q139 0 227.5 -80.5t88.5 -206.5q0 -90 -52 -173.5
t-167 -176.5l258 -276q66 95 121 184q37 57 92 57q40 0 70 -31t30 -73q0 -35 -39 -94q-59 -96 -133 -195zM575 1186q-57 0 -87.5 -31.5t-30.5 -89.5q0 -91 94 -199q77 62 108 107.5t31 97.5q0 54 -30.5 84.5t-84.5 30.5zM537 172q134 0 260 129l-285 313
q-119 -95 -156 -143.5t-37 -110.5q0 -83 61 -135.5t157 -52.5z" />
    <glyph glyph-name="quotesingle" unicode="'" horiz-adv-x="595" 
d="M254 745q-42 0 -70 27.5t-28 69.5q0 6 18.5 130t18.5 240q0 61 33 98.5t87 37.5q57 0 89 -35.5t32 -98.5q0 -64 -23.5 -190t-48.5 -188q-19 -51 -43 -71t-65 -20z" />
    <glyph glyph-name="parenleft" unicode="(" horiz-adv-x="714" 
d="M565 -258q-28 0 -55 18q-360 238 -360 858q0 328 96.5 540.5t263.5 320.5q24 16 55 16q36 0 60 -25.5t24 -56.5q0 -45 -39 -76q-125 -106 -193.5 -278t-68.5 -441t68.5 -440t193.5 -276q39 -34 39 -76q0 -33 -23.5 -58.5t-60.5 -25.5z" />
    <glyph glyph-name="parenright" unicode=")" horiz-adv-x="714" 
d="M150 -264q-37 0 -60.5 25.5t-23.5 58.5q0 43 38 76q125 105 194 276t69 440t-69 441t-194 278q-38 30 -38 76q0 31 24 56.5t60 25.5q31 0 55 -16q167 -108 263.5 -320.5t96.5 -540.5q0 -620 -360 -858q-27 -18 -55 -18z" />
    <glyph glyph-name="asterisk" unicode="*" horiz-adv-x="897" 
d="M754 1069q43 -24 43 -65q0 -36 -23 -59t-53 -23q-24 0 -45 12l-150 86v-172q0 -38 -22.5 -60t-54.5 -22t-55 22t-23 60v172l-150 -86q-21 -12 -45 -12q-41 0 -65 39q-11 26 -11 43q0 41 43 65l150 86l-150 86q-43 27 -43 68q0 35 23.5 58.5t52.5 23.5q22 0 45 -13
l150 -86v172q0 37 23 59.5t55 22.5t54.5 -22.5t22.5 -59.5v-172l150 86q23 13 45 13q42 0 65 -41q11 -22 11 -41q0 -41 -43 -68l-150 -86z" />
    <glyph glyph-name="plus" unicode="+" 
d="M578 166q-44 0 -74.5 30t-30.5 76v277h-287q-45 0 -72.5 28t-27.5 70t27.5 71.5t72.5 29.5h287v276q0 44 30.5 74t74.5 30t74 -30t30 -74v-276h276q46 0 73.5 -29t27.5 -72q0 -42 -27.5 -70t-73.5 -28h-276v-277q0 -46 -30 -76t-74 -30z" />
    <glyph glyph-name="comma" unicode="," horiz-adv-x="552" 
d="M227 -391q-45 0 -74.5 27.5t-29.5 70.5q0 7 20.5 139t20.5 256q0 61 33.5 98.5t89.5 37.5q57 0 89 -35.5t32 -98.5q0 -67 -25 -202t-51 -205q-19 -49 -42.5 -68.5t-62.5 -19.5z" />
    <glyph glyph-name="hyphen" unicode="-" horiz-adv-x="704" 
d="M522 741q40 0 67 -26t27 -64t-27 -65t-67 -27h-340q-39 0 -65.5 26.5t-26.5 65.5q0 38 26 64t66 26h340z" />
    <glyph glyph-name="period" unicode="." horiz-adv-x="552" 
d="M279 -23q-68 0 -115 46t-47 112t47.5 113t114.5 47q66 0 111.5 -47t45.5 -113t-45.5 -112t-111.5 -46z" />
    <glyph glyph-name="slash" unicode="/" horiz-adv-x="1320" 
d="M168 -272q-41 0 -71.5 30.5t-30.5 71.5q0 37 18 64l979 1654q25 49 90 49q41 0 71.5 -30.5t30.5 -71.5q0 -32 -18 -61l-979 -1655q-12 -23 -36.5 -37t-53.5 -14z" />
    <glyph glyph-name="zero" unicode="0" horiz-adv-x="1280" 
d="M641 1374q242 0 378 -181t136 -505q0 -331 -138 -521t-376 -190q-240 0 -378 190t-138 521q0 324 136.5 505t379.5 181zM641 1176q-291 0 -291 -490q0 -249 74.5 -379.5t216.5 -130.5t215.5 129.5t73.5 380.5q0 490 -289 490z" />
    <glyph glyph-name="one" unicode="1" horiz-adv-x="798" 
d="M496 1374q41 0 69.5 -31.5t28.5 -76.5v-1178q0 -51 -29.5 -81t-79.5 -30q-51 0 -79.5 30t-28.5 81v1024l-170 -70q-40 -16 -64 -16q-39 0 -66.5 28.5t-27.5 73.5q0 67 74 101l303 129q37 16 70 16z" />
    <glyph glyph-name="two" unicode="2" horiz-adv-x="1171" 
d="M963 201q44 0 74 -29t30 -72t-30 -71.5t-74 -28.5h-760q-45 0 -77 31t-32 75q0 52 43 89l434 380q119 104 169.5 187t50.5 174q0 107 -62 173.5t-162 66.5q-97 0 -160.5 -64t-68.5 -164q-2 -20 -2 -53q-5 -44 -35 -72t-74 -28q-39 0 -68 25t-36 67q-12 37 -6 92
q12 171 141 283t315 112q192 0 317.5 -121.5t125.5 -308.5q0 -131 -70.5 -251t-230.5 -259l-266 -233h514z" />
    <glyph glyph-name="three" unicode="3" horiz-adv-x="1112" 
d="M627 852q168 -19 276.5 -136t108.5 -282q0 -196 -141 -326.5t-353 -130.5q-131 0 -243.5 57.5t-190.5 164.5q-18 23 -18 59q0 41 29 69.5t69 28.5q46 0 76 -34q116 -146 272 -146q123 0 199.5 71t76.5 185t-80.5 176t-230.5 62h-45q-44 0 -74 30t-30 74q0 46 45 86
l301 293h-459q-43 0 -71.5 28.5t-28.5 71.5q0 41 28.5 70t71.5 29h657q44 0 76.5 -32.5t32.5 -76.5q0 -46 -39 -82z" />
    <glyph glyph-name="four" unicode="4" horiz-adv-x="1150" 
d="M1020 438q49 0 77.5 -29.5t28.5 -70.5t-29 -71.5t-77 -30.5h-90v-150q0 -46 -31.5 -77.5t-77.5 -31.5t-77 31.5t-31 77.5v150h-568q-44 0 -76 32t-32 76q0 20 12 47l400 909q14 33 42 53.5t62 20.5q44 0 76.5 -32t32.5 -76q0 -14 -11 -43l-344 -785h406v305q0 46 31 77.5
t77 31.5t77.5 -31.5t31.5 -77.5v-305h90z" />
    <glyph glyph-name="five" unicode="5" horiz-adv-x="1144" 
d="M580 858q93 0 176.5 -28t148 -80t102 -133t37.5 -181q0 -102 -40 -189t-108 -145.5t-158.5 -91.5t-190.5 -33q-146 0 -261.5 61.5t-189.5 166.5q-18 29 -18 57q0 40 30 70t70 30q47 0 76 -36q59 -71 127.5 -110.5t159.5 -39.5q123 0 201.5 71t78.5 185q0 116 -80.5 178
t-230.5 62h-201q-47 0 -78.5 31.5t-31.5 78.5v459q0 47 31.5 79t78.5 32h557q42 0 70.5 -28.5t28.5 -70.5q0 -41 -28.5 -68.5t-70.5 -27.5h-454v-299h168z" />
    <glyph glyph-name="six" unicode="6" horiz-adv-x="1138" 
d="M604 897q183 0 313 -133t130 -320q0 -195 -139.5 -331t-340.5 -136q-132 0 -241.5 62t-172.5 170t-63 237q0 109 46.5 209.5t162.5 243.5l334 422q42 53 96 53q44 0 76.5 -30.5t32.5 -71.5t-31 -72l-244 -305q12 2 41 2zM567 176q113 0 190 76.5t77 191.5
q0 114 -76.5 191.5t-190.5 77.5q-112 0 -187 -77.5t-75 -191.5q0 -115 75.5 -191.5t186.5 -76.5z" />
    <glyph glyph-name="seven" unicode="7" horiz-adv-x="1050" 
d="M893 1352q44 0 76 -32.5t32 -76.5q0 -30 -14 -55l-643 -1155q-32 -56 -94 -56q-44 0 -76.5 32.5t-32.5 76.5q0 29 15 53l567 1018h-547q-43 0 -71.5 27.5t-28.5 68.5t29 70t71 29h717z" />
    <glyph glyph-name="eight" unicode="8" horiz-adv-x="1193" 
d="M795 702q292 -108 292 -350q0 -169 -135.5 -272t-353.5 -103q-220 0 -357 103t-137 272q0 244 293 350q-229 122 -229 326q0 163 121.5 254.5t308.5 91.5q120 0 215 -39t153 -118.5t58 -188.5q0 -206 -229 -326zM598 1196q-98 0 -160.5 -46.5t-62.5 -129.5
q0 -74 53.5 -121.5t167.5 -97.5q114 48 167.5 95.5t53.5 123.5q0 82 -62 129t-157 47zM598 158q130 0 200 55t70 147q0 48 -19.5 86.5t-59 67.5t-84 50t-109.5 44q-65 -23 -109.5 -44.5t-84 -50.5t-59 -67t-19.5 -86q0 -92 71 -147t203 -55z" />
    <glyph glyph-name="nine" unicode="9" horiz-adv-x="1138" 
d="M571 1374q99 0 187.5 -36.5t152 -99.5t101 -149.5t37.5 -183.5q0 -108 -46.5 -208.5t-162.5 -243.5l-334 -422q-42 -54 -96 -54q-44 0 -76.5 31t-32.5 72t31 72l243 305q-12 -2 -40 -2q-183 0 -313 132.5t-130 319.5q0 195 139 331t340 136zM571 639q112 0 187.5 77
t75.5 191q0 115 -76 192t-187 77q-113 0 -189.5 -77t-76.5 -192q0 -114 76 -191t190 -77z" />
    <glyph glyph-name="colon" unicode=":" horiz-adv-x="552" 
d="M279 702q-68 0 -115 46t-47 112t47.5 113t114.5 47q66 0 111.5 -47t45.5 -113t-45.5 -112t-111.5 -46zM279 -23q-68 0 -115 46t-47 112t47.5 113t114.5 47q66 0 111.5 -47t45.5 -113t-45.5 -112t-111.5 -46z" />
    <glyph glyph-name="semicolon" unicode=";" horiz-adv-x="552" 
d="M279 702q-68 0 -115 46t-47 112t47.5 113t114.5 47q66 0 111.5 -47t45.5 -113t-45.5 -112t-111.5 -46zM229 -391q-45 0 -74.5 27.5t-29.5 70.5q0 7 20.5 139t20.5 256q0 61 33.5 98.5t89.5 37.5q57 0 89 -35.5t32 -98.5q0 -67 -25 -202t-51 -205q-19 -49 -42.5 -68.5
t-62.5 -19.5z" />
    <glyph glyph-name="less" unicode="&#x3c;" 
d="M958 428q72 -29 72 -92q0 -38 -27 -65t-67 -27q-19 0 -57 14l-715 303q-74 29 -74 92q0 61 76 95l708 299q40 18 62 18q39 0 66.5 -27.5t27.5 -66.5q0 -58 -72 -92l-542 -226z" />
    <glyph glyph-name="equal" unicode="=" 
d="M940 961q40 0 67 -27.5t27 -67.5t-27 -66t-67 -26h-733q-40 0 -67 26t-27 66t27 67.5t67 27.5h733zM940 526q40 0 67 -26t27 -66t-27 -67t-67 -27h-733q-40 0 -67 27t-27 67t27 66t67 26h733z" />
    <glyph glyph-name="greater" unicode="&#x3e;" 
d="M981 748q76 -34 76 -95q0 -63 -74 -92l-715 -303q-38 -14 -57 -14q-40 0 -67 27t-27 65q0 63 71 92l543 225l-543 226q-71 33 -71 92q0 39 27.5 66.5t66.5 27.5q21 0 61 -18z" />
    <glyph glyph-name="question" unicode="?" horiz-adv-x="917" 
d="M410 408q-42 0 -72.5 28.5t-30.5 69.5v24q0 65 33.5 120.5t124.5 140.5q90 81 118.5 124t28.5 97q0 70 -47 117t-116 47q-118 0 -177 -121q-36 -62 -92 -62q-40 0 -68 28.5t-28 68.5q0 30 18 65q47 105 139.5 162t215.5 57q162 0 270.5 -97t108.5 -243
q0 -81 -41.5 -151.5t-139.5 -157.5q-82 -73 -112.5 -116.5t-30.5 -88.5l-2 -20q-1 -40 -30 -66t-70 -26zM416 -23q-66 0 -112 45t-46 109q0 65 46 110.5t112 45.5q64 0 108.5 -45.5t44.5 -110.5t-44.5 -109.5t-108.5 -44.5z" />
    <glyph glyph-name="at" unicode="@" horiz-adv-x="1918" 
d="M985 1354q244 0 437 -105t301 -292.5t108 -424.5q0 -199 -98 -322.5t-256 -123.5q-192 0 -252 141q-38 -85 -122 -133.5t-194 -48.5q-177 0 -293 125t-116 315q0 191 116.5 316t294.5 125q90 0 163 -33t118 -92v12q0 43 27 72.5t67 29.5q41 0 67.5 -29.5t26.5 -72.5v-446
q0 -57 27 -83t86 -26q71 0 115.5 76t44.5 198q0 297 -180 473.5t-484 176.5q-205 0 -369 -87t-256 -243t-92 -352q0 -194 90.5 -350.5t250.5 -245t358 -88.5q41 0 186 22q39 5 66.5 -13.5t31.5 -53.5q5 -31 -11 -57.5t-46 -35.5q-115 -34 -248 -34q-144 0 -276.5 42
t-238 119.5t-184 182t-121 235.5t-42.5 273q0 180 69 339t188 273t285.5 180t354.5 66zM948 231q103 0 167.5 71t64.5 185t-63.5 184t-166.5 70q-105 0 -173 -72t-68 -184q0 -109 67.5 -181.5t171.5 -72.5z" />
    <glyph glyph-name="A" unicode="A" horiz-adv-x="1357" 
d="M1272 143q16 -40 16 -61q0 -43 -31 -74t-75 -31q-72 0 -103 76l-84 191h-637l-79 -191q-28 -76 -103 -76q-44 0 -75 31t-31 74q0 28 16 61l489 1157q30 74 103 74q74 0 104 -74zM678 1057l-244 -629h484z" />
    <glyph glyph-name="B" unicode="B" horiz-adv-x="1265" 
d="M936 737q119 -38 185.5 -128.5t66.5 -215.5q0 -175 -121.5 -284t-316.5 -109h-467q-49 0 -81 32t-32 81v1126q0 49 32 81t81 32h360q181 0 293.5 -100t112.5 -261q0 -158 -113 -254zM623 1161h-240v-364h240q97 0 151.5 48.5t54.5 135.5q0 86 -54 133t-152 47zM731 190
q110 0 173 55.5t63 153.5t-63 154.5t-173 56.5h-348v-420h348z" />
    <glyph glyph-name="C" unicode="C" horiz-adv-x="1468" 
d="M799 -23q-197 0 -360 92t-257 253t-94 354t94 353.5t257 252.5t360 92q156 0 294.5 -62t231.5 -173q35 -46 35 -86t-29.5 -69.5t-70.5 -29.5q-49 0 -86 43q-147 179 -373 179q-211 0 -349.5 -142.5t-138.5 -357.5t138.5 -357.5t349.5 -142.5q221 0 370 178q37 43 89 43
q41 0 70.5 -29t29.5 -69q0 -38 -37 -86q-90 -111 -228 -173.5t-296 -62.5z" />
    <glyph glyph-name="D" unicode="D" horiz-adv-x="1417" 
d="M592 1352q332 0 534.5 -185t202.5 -489q0 -199 -93 -353.5t-260.5 -239.5t-383.5 -85h-309q-49 0 -81 32t-32 81v1126q0 49 32 81t81 32h309zM590 1155h-203v-960h203q232 0 373 132.5t141 350.5q0 220 -139 348.5t-375 128.5z" />
    <glyph glyph-name="E" unicode="E" horiz-adv-x="1165" 
d="M274 0q-44 0 -74 30t-30 74v1143q0 44 30 74.5t74 30.5h695q43 0 71.5 -29t28.5 -70t-28.5 -68.5t-71.5 -27.5h-582v-346h420q41 0 68.5 -27t27.5 -67t-27.5 -67t-68.5 -27h-420v-428h606q43 0 72 -28t29 -69t-29 -69.5t-72 -28.5h-719z" />
    <glyph glyph-name="F" unicode="F" horiz-adv-x="1083" 
d="M279 -23q-47 0 -78 32t-31 79v1151q0 49 32 81t81 32h665q43 0 72 -29t29 -70t-29 -68.5t-72 -27.5h-561v-403h449q42 0 71 -29t29 -70t-28.5 -69.5t-71.5 -28.5h-449v-469q0 -48 -30.5 -79.5t-77.5 -31.5z" />
    <glyph glyph-name="G" unicode="G" horiz-adv-x="1527" 
d="M801 -23q-148 0 -280 54t-227 147t-150.5 222.5t-55.5 275.5q0 194 94 354.5t257.5 252t361.5 91.5q149 0 286 -60t222 -161q51 -54 51 -100q0 -39 -29 -69t-71 -30q-48 0 -95 52q-82 88 -169.5 129t-196.5 41q-212 0 -349 -140.5t-137 -357.5q0 -221 140 -363.5
t358 -142.5q126 0 232.5 51.5t170.5 143.5v155h-321q-45 0 -76 28t-31 68t31 68.5t76 28.5h428q48 0 79.5 -32t31.5 -81v-196q0 -78 -37 -134q-94 -135 -255 -215t-339 -80z" />
    <glyph glyph-name="H" unicode="H" horiz-adv-x="1454" 
d="M279 -23q-46 0 -77.5 32t-31.5 79v1176q0 47 31 78.5t78 31.5t77.5 -31.5t30.5 -78.5v-451h680v451q0 47 31 78.5t78 31.5t77.5 -31.5t30.5 -78.5v-1176q0 -47 -31 -79t-77 -32t-77.5 32t-31.5 79v530h-680v-530q0 -47 -31 -79t-77 -32z" />
    <glyph glyph-name="I" unicode="I" horiz-adv-x="557" 
d="M279 -23q-47 0 -78 32t-31 79v1176q0 47 31 78.5t78 31.5t77.5 -31.5t30.5 -78.5v-1176q0 -48 -30.5 -79.5t-77.5 -31.5z" />
    <glyph glyph-name="J" unicode="J" horiz-adv-x="780" 
d="M223 -23q-81 0 -131 17q-31 10 -50 37t-19 59q0 41 30 69.5t74 28.5q20 0 57.5 -5t61.5 -5q69 0 108 44.5t39 121.5v920q0 47 31 78.5t78 31.5t77.5 -31.5t30.5 -78.5v-928q0 -175 -99 -267t-288 -92z" />
    <glyph glyph-name="K" unicode="K" horiz-adv-x="1333" 
d="M279 1374q46 0 77 -31.5t31 -78.5v-1176q0 -47 -31 -79t-77 -32t-77.5 32t-31.5 79v1176q0 47 31 78.5t78 31.5zM1202 150q35 -35 35 -72q0 -41 -30 -71t-70 -30q-48 0 -88 43l-580 627q-33 38 -33 74q0 34 33 72l539 542q39 39 79 39q41 0 70 -28.5t29 -69.5
q0 -40 -37 -80l-473 -475z" />
    <glyph glyph-name="L" unicode="L" horiz-adv-x="1054" 
d="M283 0q-49 0 -81 32t-32 81v1151q0 46 31 78t78 32t77.5 -31.5t30.5 -78.5v-1069h531q42 0 70 -27.5t28 -69.5t-28 -70t-70 -28h-635z" />
    <glyph glyph-name="M" unicode="M" horiz-adv-x="1622" 
d="M1348 1374q44 0 74 -31.5t30 -78.5v-1176q0 -47 -31.5 -79t-77.5 -32t-77 32t-31 79v823l-315 -495q-25 -38 -50 -55t-59 -17q-65 0 -109 72l-315 495v-823q0 -47 -31 -79t-77 -32t-77.5 32t-31.5 79v1176q0 47 30 78.5t74 31.5q36 0 62.5 -19t56.5 -69l418 -655l418 655
q30 50 56.5 69t62.5 19z" />
    <glyph glyph-name="N" unicode="N" horiz-adv-x="1454" 
d="M1176 1374q46 0 77 -31.5t31 -78.5v-1180q0 -45 -30.5 -76t-75.5 -31q-54 0 -103 62l-688 907v-858q0 -47 -31 -79t-77 -32t-77.5 32t-31.5 79v1180q0 44 31 75t75 31q35 0 57.5 -16t51.5 -55l684 -895l-2 856q0 47 31.5 78.5t77.5 31.5z" />
    <glyph glyph-name="O" unicode="O" horiz-adv-x="1597" 
d="M797 1374q146 0 278 -55t226.5 -148t150 -222.5t55.5 -272.5q0 -144 -55.5 -273.5t-150 -223t-226.5 -148t-278 -54.5q-195 0 -358 92.5t-257 253t-94 353.5q0 192 94 352.5t257 253t358 92.5zM799 1176q-211 0 -348.5 -141.5t-137.5 -356.5q0 -218 137.5 -360
t348.5 -142q209 0 347 142.5t138 359.5q0 214 -138 356t-347 142z" />
    <glyph glyph-name="P" unicode="P" horiz-adv-x="1193" 
d="M279 -23q-46 0 -77.5 32t-31.5 79v1151q0 49 32 81t81 32h379q206 0 332 -114t126 -300q0 -185 -127 -300.5t-331 -115.5h-275v-434q0 -47 -31 -79t-77 -32zM387 715h272q110 0 174 59t64 162t-64 163t-174 60h-272v-444z" />
    <glyph glyph-name="Q" unicode="Q" horiz-adv-x="1597" 
d="M2066 -244q44 0 69.5 -23t25.5 -63q0 -66 -74 -84q-64 -20 -170 -20q-271 0 -494.5 116t-378.5 338q-116 -43 -247 -43q-195 0 -358 92.5t-257 253t-94 353.5q0 192 94 352.5t257 253t358 92.5q146 0 278 -55t226.5 -148t150 -222.5t55.5 -272.5q0 -172 -75.5 -319
t-208.5 -242q142 -186 320.5 -274.5t408.5 -88.5q25 0 64 2t50 2zM313 678q0 -217 137.5 -359.5t348.5 -142.5q209 0 347 142.5t138 357.5q0 216 -138.5 358t-348.5 142q-209 0 -346.5 -141.5t-137.5 -356.5z" />
    <glyph glyph-name="R" unicode="R" horiz-adv-x="1292" 
d="M1180 158q32 -40 32 -82q0 -41 -29.5 -70t-70.5 -29q-55 0 -96 56l-354 489h-275v-434q0 -47 -31 -79t-77 -32t-77.5 32t-31.5 79v1153q0 47 32 79t79 32h381q206 0 332 -114t126 -300q0 -128 -63 -225.5t-174 -147.5zM387 1159v-444h270q112 0 176 59.5t64 161.5
t-65 162.5t-175 60.5h-270z" />
    <glyph glyph-name="S" unicode="S" horiz-adv-x="1144" 
d="M584 -23q-127 0 -249 56t-200 151q-33 38 -33 76q0 42 30 70t71 28q40 0 65 -28q133 -158 314 -158q107 0 170 51.5t63 136.5q0 65 -42.5 107.5t-156.5 95.5l-149 70q-163 76 -239 165.5t-76 209.5q0 159 121 262.5t305 103.5q229 3 376 -160q33 -36 33 -77
q0 -38 -30.5 -67.5t-69.5 -29.5q-34 0 -66 29q-111 111 -243 111q-93 0 -149 -44.5t-56 -119.5q0 -62 38.5 -101t149.5 -92l152 -69q171 -79 247 -168t76 -217q0 -175 -127 -283.5t-325 -108.5z" />
    <glyph glyph-name="T" unicode="T" horiz-adv-x="1193" 
d="M596 -23q-46 0 -77.5 32t-31.5 79v1069h-364q-43 0 -71.5 27.5t-28.5 68.5t28.5 70t71.5 29h948q43 0 71.5 -29t28.5 -70t-28.5 -68.5t-71.5 -27.5h-366v-1069q0 -47 -31.5 -79t-77.5 -32z" />
    <glyph glyph-name="U" unicode="U" horiz-adv-x="1421" 
d="M713 -23q-253 0 -405 156t-152 414v717q0 47 31 78.5t77 31.5q47 0 78 -31.5t31 -78.5v-732q0 -164 91.5 -260t248.5 -96q155 0 245.5 96t90.5 260v732q0 47 30.5 78.5t77.5 31.5q46 0 77.5 -31.5t31.5 -78.5v-717q0 -258 -152 -414t-401 -156z" />
    <glyph glyph-name="V" unicode="V" horiz-adv-x="1357" 
d="M1182 1374q44 0 75 -30.5t31 -73.5q0 -25 -16 -62l-490 -1157q-30 -74 -104 -74q-73 0 -103 74l-489 1157q-16 31 -16 62q0 43 31 73.5t75 30.5q75 0 103 -76l401 -981l399 981q31 76 103 76z" />
    <glyph glyph-name="W" unicode="W" horiz-adv-x="2152" 
d="M1950 1374q46 0 77 -31t31 -75q0 -24 -14 -62l-426 -1157q-26 -72 -100 -72q-77 0 -103 72l-338 952l-338 -952q-26 -72 -102 -72q-73 0 -102 72l-426 1157q-13 35 -13 62q0 45 31 75.5t78 30.5q35 0 62.5 -18.5t37.5 -50.5l336 -943l332 934q12 37 39.5 57.5t64.5 20.5
t65 -20.5t40 -57.5l331 -934l334 941q12 33 39.5 52t63.5 19z" />
    <glyph glyph-name="X" unicode="X" horiz-adv-x="1241" 
d="M1128 158q29 -45 29 -76q0 -43 -31 -74t-75 -31q-54 0 -86 46l-344 487l-345 -487q-29 -46 -86 -46q-44 0 -75 31t-31 74q0 39 31 78l379 532l-349 500q-30 44 -30 80q0 43 31 72.5t75 29.5q55 0 88 -45l312 -457l317 457q31 45 88 45q44 0 74 -29.5t30 -72.5
q0 -42 -30 -82l-350 -498z" />
    <glyph glyph-name="Y" unicode="Y" horiz-adv-x="1271" 
d="M1184 1270q0 -36 -25 -76l-416 -676v-430q0 -47 -31 -79t-77 -32t-77.5 32t-31.5 79v434l-413 672q-25 43 -25 78q0 44 31 73t76 29q36 0 60 -14.5t44 -48.5l336 -570l338 570q40 63 104 63q46 0 76.5 -30t30.5 -74z" />
    <glyph glyph-name="Z" unicode="Z" horiz-adv-x="1204" 
d="M1053 195q43 0 71.5 -28t28.5 -69t-28.5 -69.5t-71.5 -28.5h-897q-43 0 -73 28.5t-30 69.5q0 28 33 72l756 987h-611q-43 0 -71.5 27.5t-28.5 68.5t28.5 70t71.5 29h809q41 0 71 -29t30 -70q0 -27 -31 -69l-756 -989h699z" />
    <glyph glyph-name="bracketleft" unicode="[" horiz-adv-x="722" 
d="M545 1493q40 0 66 -26t26 -64t-26 -64t-66 -26h-156v-1397h156q39 0 65.5 -26.5t26.5 -65.5t-26.5 -65.5t-65.5 -26.5h-252q-41 0 -68.5 28t-27.5 68v1569q0 41 27.5 68.5t68.5 27.5h252z" />
    <glyph glyph-name="backslash" unicode="\" horiz-adv-x="1320" 
d="M1153 -272q-29 0 -53.5 14t-36.5 37l-979 1655q-18 29 -18 61q0 41 30.5 71.5t71.5 30.5q65 0 90 -49l979 -1654q18 -27 18 -64q0 -41 -30.5 -71.5t-71.5 -30.5z" />
    <glyph glyph-name="bracketright" unicode="]" horiz-adv-x="716" 
d="M424 1493q41 0 68.5 -27.5t27.5 -68.5v-1567q0 -41 -27.5 -69.5t-68.5 -28.5h-240q-40 0 -67 27t-27 65t27 65t67 27h144v1397h-144q-40 0 -67 26t-27 64t27 64t67 26h240z" />
    <glyph glyph-name="asciicircum" unicode="^" horiz-adv-x="1071" 
d="M248 567q-44 0 -75.5 31.5t-31.5 75.5q0 17 17 55l280 580q32 65 97 65q66 0 98 -65l278 -580q17 -33 17 -55q0 -44 -31 -75.5t-74 -31.5q-61 0 -92 58l-196 407l-195 -407q-31 -58 -92 -58z" />
    <glyph glyph-name="underscore" unicode="_" horiz-adv-x="1032" 
d="M872 -143q39 0 66 -25t27 -63q0 -36 -27 -61t-66 -25h-710q-40 0 -66 24.5t-26 61.5q0 38 26 63t66 25h710z" />
    <glyph glyph-name="grave" unicode="`" horiz-adv-x="544" 
d="M342 1155q-53 -3 -86 55l-137 242q-17 33 -17 57q0 46 31.5 78.5t75.5 32.5q32 0 61 -18t41 -46l111 -256q14 -28 14 -49q2 -38 -25 -66.5t-69 -29.5z" />
    <glyph glyph-name="a" unicode="a" horiz-adv-x="1097" 
d="M541 1028q195 0 304 -111t109 -309v-522q0 -47 -30 -78t-76 -31t-76.5 31.5t-30.5 77.5v12q-115 -121 -309 -121q-157 0 -253.5 80.5t-96.5 210.5q0 132 100.5 209.5t270.5 77.5h284v66q0 103 -56 159t-159 56q-128 0 -223 -95q-38 -32 -74 -32q-38 0 -66 27t-28 63
q0 45 43 88q64 67 160.5 104t206.5 37zM477 143q109 0 184.5 69t75.5 169v18h-258q-178 0 -178 -123q0 -61 48 -97t128 -36z" />
    <glyph glyph-name="b" unicode="b" horiz-adv-x="1292" 
d="M707 1028q214 0 353.5 -149.5t139.5 -376.5t-139.5 -376t-351.5 -149q-106 0 -194 39t-146 109v-37q0 -49 -30 -80t-75 -31q-47 0 -77.5 31.5t-30.5 79.5v1360q0 47 31 79t77 32t76.5 -31t30.5 -80v-567q58 70 144.5 108.5t191.5 38.5zM672 174q133 0 220 93.5t87 236.5
q0 141 -87 234t-220 93q-136 0 -219.5 -90.5t-83.5 -238.5q0 -146 84 -237t219 -91z" />
    <glyph glyph-name="c" unicode="c" horiz-adv-x="1130" 
d="M625 -23q-224 0 -378.5 153t-154.5 374q0 144 70.5 264.5t193 190t269.5 69.5q129 0 237 -56t168 -149q21 -33 21 -57q0 -41 -28.5 -69.5t-68.5 -28.5q-46 0 -75 34q-101 127 -252 127q-135 0 -225.5 -93t-90.5 -232q0 -142 89.5 -235t226.5 -93q146 0 252 125
q30 35 75 35q40 0 68.5 -28t28.5 -68q0 -29 -19 -56q-65 -96 -170 -151.5t-237 -55.5z" />
    <glyph glyph-name="d" unicode="d" horiz-adv-x="1292" 
d="M1028 1559q46 0 77.5 -31t31.5 -80v-1362q0 -47 -31 -78t-76 -31t-75.5 31.5t-30.5 77.5v41q-56 -71 -144 -110.5t-196 -39.5q-212 0 -352 149t-140 376t140 376.5t352 149.5q104 0 191 -38t145 -107v565q0 47 31 79t77 32zM621 174q135 0 219 91t84 237t-84 237.5
t-219 91.5q-134 0 -222 -93t-88 -234q0 -143 87.5 -236.5t222.5 -93.5z" />
    <glyph glyph-name="e" unicode="e" horiz-adv-x="1167" 
d="M610 1028q201 0 334 -132.5t133 -334.5v-10q0 -55 -33 -87t-90 -32h-643q22 -122 109 -193t219 -71q131 0 235 78q30 20 56 20q38 0 64 -26t26 -64q0 -51 -53 -90q-145 -109 -334 -109q-233 0 -387 149.5t-154 375.5q0 146 68 267t187 190t263 69zM604 846
q-108 0 -186 -67.5t-103 -178.5h547q-3 109 -74 177.5t-184 68.5z" />
    <glyph glyph-name="f" unicode="f" horiz-adv-x="659" 
d="M573 1364q-80 0 -122.5 -44.5t-42.5 -129.5v-184h161q41 0 69 -27.5t28 -67.5t-28 -66t-69 -26h-161v-731q0 -49 -30.5 -80t-76.5 -31q-47 0 -77.5 31.5t-30.5 79.5v731h-70q-40 0 -67 26t-27 66t27 67.5t67 27.5h70v202q0 166 91.5 258.5t254.5 92.5q64 0 116 -19
q64 -23 64 -92q0 -38 -26.5 -62t-69.5 -24q-6 0 -22.5 1t-27.5 1z" />
    <glyph glyph-name="g" unicode="g" horiz-adv-x="1298" 
d="M1038 1028q44 0 74.5 -31.5t30.5 -78.5v-814q0 -231 -134.5 -363t-369.5 -132q-254 0 -436 149q-41 35 -41 78q0 41 28.5 69.5t69.5 28.5q36 0 62 -20q146 -109 305 -109q143 0 222 75.5t79 211.5v72q-122 -144 -340 -144q-213 0 -351.5 142.5t-138.5 361.5t138.5 361.5
t351.5 142.5q109 0 197.5 -39t144.5 -110v39q0 47 31 78.5t77 31.5zM627 209q136 0 219.5 87t83.5 230q0 140 -82.5 225t-220.5 85q-134 0 -221 -88t-87 -224q0 -138 87 -226.5t221 -88.5z" />
    <glyph glyph-name="h" unicode="h" horiz-adv-x="1177" 
d="M662 1028q169 0 270.5 -109t101.5 -290v-541q0 -49 -30.5 -80t-75.5 -31q-47 0 -78 32t-31 79v510q0 105 -60 169t-159 64q-100 0 -164.5 -65.5t-64.5 -167.5v-510q0 -49 -30.5 -80t-76.5 -31t-77 32t-31 79v1360q0 47 31 79t77 32t76.5 -31t30.5 -80v-543
q110 123 291 123z" />
    <glyph glyph-name="i" unicode="i" horiz-adv-x="526" 
d="M264 1520q59 0 101.5 -41t42.5 -99t-42.5 -98.5t-101.5 -40.5q-60 0 -101.5 40.5t-41.5 98.5q0 59 41.5 99.5t101.5 40.5zM262 -23q-46 0 -76 32t-30 79v830q0 47 30.5 78.5t77.5 31.5q46 0 76.5 -31.5t30.5 -78.5v-830q0 -47 -31.5 -79t-77.5 -32z" />
    <glyph glyph-name="j" unicode="j" horiz-adv-x="526" 
d="M264 1520q59 0 101.5 -41t42.5 -99t-42.5 -98.5t-101.5 -40.5q-60 0 -101.5 40.5t-41.5 98.5q0 59 41.5 99.5t101.5 40.5zM18 -391q-54 0 -94 12q-35 9 -56.5 33t-21.5 57q0 40 27.5 67t67.5 27q7 0 19 -1t20 -1q84 0 130 41.5t46 143.5v930q0 47 30.5 78.5t77.5 31.5
q46 0 76.5 -31.5t30.5 -78.5v-959q0 -173 -94.5 -261.5t-258.5 -88.5z" />
    <glyph glyph-name="k" unicode="k" horiz-adv-x="1091" 
d="M264 1559q46 0 76.5 -31t30.5 -80v-1360q0 -49 -30.5 -80t-76.5 -31t-77 32t-31 79v1360q0 47 31 79t77 32zM1008 150q28 -32 28 -72q0 -42 -29 -71.5t-71 -29.5q-49 0 -86 43l-395 457q-33 42 -33 78q0 42 35 80l362 360q33 33 78 33q43 0 72.5 -28.5t29.5 -69.5
q0 -39 -41 -80l-301 -293z" />
    <glyph glyph-name="l" unicode="l" horiz-adv-x="526" 
d="M264 -23q-46 0 -77 32t-31 79v1360q0 48 30.5 79.5t77.5 31.5q46 0 76.5 -32t30.5 -79v-1360q0 -47 -30.5 -79t-76.5 -32z" />
    <glyph glyph-name="m" unicode="m" horiz-adv-x="1808" 
d="M1292 1028q172 0 272.5 -107.5t100.5 -291.5v-541q0 -49 -31.5 -80t-77.5 -31t-77 32t-31 79v510q0 107 -56 170t-153 63q-95 0 -158 -63t-63 -160v-520q0 -49 -31 -80t-76 -31q-47 0 -77.5 31.5t-30.5 79.5v510q0 106 -58 169.5t-153 63.5q-98 0 -159.5 -64.5
t-61.5 -168.5v-510q0 -49 -30.5 -80t-76.5 -31t-77 32t-31 79v830q0 47 30.5 78.5t77.5 31.5q43 0 73.5 -30t31.5 -74q110 104 278 104q103 0 181 -40.5t124 -117.5q58 74 146.5 116t193.5 42z" />
    <glyph glyph-name="n" unicode="n" horiz-adv-x="1177" 
d="M657 1028q172 0 274.5 -108t102.5 -291v-541q0 -49 -30.5 -80t-75.5 -31q-47 0 -78 32t-31 79v512q0 104 -60.5 169t-158.5 65q-100 0 -164.5 -66.5t-64.5 -167.5v-512q0 -49 -30.5 -80t-76.5 -31t-77 32t-31 79v830q0 47 30.5 78.5t77.5 31.5q44 0 74.5 -31.5
t30.5 -78.5q113 110 288 110z" />
    <glyph glyph-name="o" unicode="o" horiz-adv-x="1247" 
d="M623 1028q147 0 270 -69.5t193.5 -190t70.5 -264.5q0 -108 -41.5 -205.5t-113 -168t-170.5 -112t-209 -41.5q-146 1 -268 71t-192.5 191t-70.5 265q0 145 70.5 265.5t192.5 189.5t268 69zM625 831q-135 -2 -224.5 -95t-89.5 -234q0 -139 89 -232.5t223 -93.5
q133 0 223 94t90 232q0 140 -89 233.5t-222 95.5z" />
    <glyph glyph-name="p" unicode="p" horiz-adv-x="1292" 
d="M707 1028q213 0 353 -149t140 -375q0 -228 -140 -377.5t-353 -149.5q-104 0 -191 38.5t-145 107.5v-406q0 -47 -30.5 -78.5t-76.5 -31.5t-77 31.5t-31 78.5v1205q0 46 30.5 77t77.5 31q44 0 74.5 -31t30.5 -77v-41q56 70 144 108.5t194 38.5zM672 174q133 0 220 93.5
t87 234.5q0 143 -87 236t-220 93q-135 0 -219 -90.5t-84 -236.5q0 -148 83.5 -239t219.5 -91z" />
    <glyph glyph-name="q" unicode="q" horiz-adv-x="1292" 
d="M1030 1028q45 0 76 -31.5t31 -78.5v-1201q0 -47 -31.5 -78.5t-77.5 -31.5t-77 31.5t-31 78.5v404q-58 -67 -145 -105.5t-191 -38.5q-212 0 -352 150t-140 377q0 226 140 375t352 149q107 0 195.5 -39.5t144.5 -109.5v39q0 47 30 78.5t76 31.5zM621 174q135 0 219 92
t84 238t-84 236.5t-219 90.5q-134 0 -222 -93.5t-88 -235.5q0 -141 88.5 -234.5t221.5 -93.5z" />
    <glyph glyph-name="r" unicode="r" horiz-adv-x="768" 
d="M649 1016q44 0 73.5 -27.5t29.5 -70.5q0 -44 -29.5 -73t-75.5 -32q-123 -3 -199.5 -79t-76.5 -197v-449q0 -49 -30.5 -80t-76.5 -31t-77 32t-31 79v830q0 47 30.5 78.5t77.5 31.5q44 0 74.5 -31.5t30.5 -78.5v-31q110 129 280 129z" />
    <glyph glyph-name="s" unicode="s" horiz-adv-x="931" 
d="M467 -23q-223 0 -369 156q-30 27 -30 70q0 38 28 66t68 28q34 0 67 -29q111 -104 236 -104q70 0 116 29t46 83q0 45 -33.5 70t-108.5 55l-102 43q-133 56 -197.5 121t-64.5 172q0 136 100 213.5t254 77.5q194 0 320 -123q32 -28 32 -71q0 -38 -26.5 -65.5t-63.5 -27.5
q-25 0 -67 31q-90 70 -199 70q-63 0 -100 -24.5t-37 -72.5q0 -39 29.5 -63.5t103.5 -54.5l96 -39q143 -60 209 -128.5t66 -174.5q0 -146 -107 -227t-266 -81z" />
    <glyph glyph-name="t" unicode="t" horiz-adv-x="815" 
d="M680 174q43 0 68.5 -24t25.5 -62q0 -68 -63 -90q-53 -21 -136 -21q-180 0 -275 90.5t-95 260.5v491h-80q-40 0 -68 26.5t-28 65.5q0 40 28 67.5t68 27.5h80v176q0 46 31 78t77 32t77.5 -31.5t31.5 -78.5v-176h215q41 0 68.5 -27.5t27.5 -67.5t-27.5 -66t-68.5 -26h-215
v-473q0 -92 46.5 -133t149.5 -41q13 0 33.5 1t28.5 1z" />
    <glyph glyph-name="u" unicode="u" horiz-adv-x="1167" 
d="M586 -23q-195 0 -318 124t-123 321v496q0 47 30.5 78.5t76.5 31.5t76 -31.5t30 -78.5v-512q0 -100 64 -165t164 -65q97 0 159 65t62 165v512q0 47 30.5 78.5t77.5 31.5q46 0 76.5 -31.5t30.5 -78.5v-496q0 -196 -122 -320.5t-314 -124.5z" />
    <glyph glyph-name="v" unicode="v" horiz-adv-x="1124" 
d="M971 1028q42 0 73 -31t31 -73q0 -26 -12 -56l-401 -825q-15 -31 -41.5 -48.5t-57.5 -17.5q-68 0 -100 66l-400 825q-14 28 -14 56q0 42 31.5 73t73.5 31q67 0 98 -63l311 -656l309 656q31 63 99 63z" />
    <glyph glyph-name="w" unicode="w" horiz-adv-x="1746" 
d="M1595 1028q43 0 75 -31t32 -73q0 -23 -10 -50l-365 -831q-29 -66 -98 -66q-31 0 -56.5 17.5t-39.5 46.5l-259 627l-260 -627q-33 -64 -98 -64q-67 0 -96 66l-365 831q-10 27 -10 50q0 43 31 73.5t74 30.5q32 0 58 -17t38 -46l278 -635l246 620q32 78 102 78q74 0 103 -78
l248 -620l278 635q12 29 37.5 46t56.5 17z" />
    <glyph glyph-name="x" unicode="x" horiz-adv-x="1052" 
d="M938 158q29 -39 29 -78q0 -43 -30.5 -73t-74.5 -30q-53 0 -90 50l-246 323l-247 -323q-40 -50 -89 -50q-44 0 -75 30t-31 73q0 36 31 78l276 358l-248 326q-37 45 -37 82q0 43 31.5 73.5t75.5 30.5q52 0 88 -49l225 -301l230 301q40 49 90 49q43 0 73.5 -30.5t30.5 -73.5
q0 -36 -35 -82l-256 -328z" />
    <glyph glyph-name="y" unicode="y" horiz-adv-x="1124" 
d="M971 1028q42 0 73 -31t31 -73q0 -30 -10 -50l-463 -968q-75 -157 -167 -227t-224 -70q-55 0 -96 12q-30 9 -48 34t-18 56q0 38 29 66t69 28q9 0 22 -1t19 -1q71 0 122 35.5t87 112.5l45 96l-372 825q-13 35 -13 52q0 41 32 72.5t75 31.5q33 0 59.5 -17t38.5 -46l301 -676
l309 676q12 28 39.5 45.5t59.5 17.5z" />
    <glyph glyph-name="z" unicode="z" horiz-adv-x="944" 
d="M817 186q40 0 67 -26.5t27 -67.5q0 -38 -27 -65t-67 -27h-676q-38 0 -66 27t-28 65q0 37 41 86l514 641h-426q-40 0 -67 26t-27 66t27 67.5t67 27.5h625q39 0 66.5 -27t27.5 -66q0 -35 -35 -79l-518 -648h475z" />
    <glyph glyph-name="braceleft" unicode="{" horiz-adv-x="827" 
d="M659 -88q39 0 66 -26t27 -64t-27 -64t-66 -26h-57q-148 0 -229.5 68.5t-81.5 211.5q0 71 24.5 215t24.5 181q0 112 -117 112h-39q-40 0 -67 26t-27 66t27 67.5t67 27.5h39q59 0 88 26t29 84q0 39 -24.5 182.5t-24.5 214.5q0 142 81.5 210.5t229.5 68.5h57q39 0 66 -25.5
t27 -64.5q0 -38 -27 -64t-66 -26h-30q-146 0 -146 -152q0 -49 24.5 -185t24.5 -188q0 -69 -32.5 -110.5t-98.5 -65.5q66 -22 98.5 -63.5t32.5 -110.5q0 -53 -24.5 -187.5t-24.5 -184.5q0 -77 38 -115.5t108 -38.5h30z" />
    <glyph glyph-name="bar" unicode="|" horiz-adv-x="679" 
d="M340 1620q38 0 64 -27t26 -67v-1702q0 -40 -26 -67t-64 -27t-64 27t-26 67v1702q0 40 25.5 67t64.5 27z" />
    <glyph glyph-name="braceright" unicode="}" horiz-adv-x="827" 
d="M643 707q40 0 67 -27.5t27 -67.5t-27 -66t-67 -26h-39q-117 0 -117 -112q0 -37 25 -181t25 -215q0 -143 -82 -211.5t-230 -68.5h-57q-38 0 -65 26t-27 64t27 64t65 26h31q70 0 107.5 38.5t37.5 115.5q0 50 -24.5 184.5t-24.5 187.5q0 69 32.5 110.5t98.5 63.5
q-66 24 -98.5 65.5t-32.5 110.5q0 52 24.5 188t24.5 185q0 152 -145 152h-31q-38 0 -65 26t-27 64q0 39 26.5 64.5t65.5 25.5h57q148 0 230 -68.5t82 -210.5q0 -71 -25 -214.5t-25 -182.5q0 -58 29 -84t88 -26h39z" />
    <glyph glyph-name="asciitilde" unicode="~" 
d="M799 477q-57 0 -123 20.5t-114 45t-98 45t-81 20.5q-46 0 -71 -14.5t-40 -50.5q-26 -62 -84 -62q-38 0 -64 28.5t-26 68.5q0 97 72 164t178 67q55 0 121 -20.5t114.5 -45t99.5 -45t81 -20.5q46 0 71.5 15t38.5 52q26 60 84 60q38 0 64.5 -27t26.5 -67q0 -98 -72 -166
t-178 -68z" />
    <glyph glyph-name="exclamdown" unicode="&#xa1;" horiz-adv-x="667" 
d="M334 723q-66 0 -112 45t-46 109q0 65 46 110t112 45q64 0 108.5 -45t44.5 -110t-44.5 -109.5t-108.5 -44.5zM334 -393q-58 0 -93 37t-32 96l18 731q0 45 31 77t76 32t74.5 -32t31.5 -77l17 -731q2 -59 -32 -96t-91 -37z" />
    <glyph glyph-name="cent" unicode="&#xa2;" horiz-adv-x="1136" 
d="M913 481q40 0 69.5 -28.5t29.5 -69.5q0 -33 -29 -70q-126 -145 -311 -166v-262q0 -44 -29 -74t-72 -30t-71.5 30t-28.5 74v275q-175 43 -287 184.5t-112 325.5q0 186 112 326t287 182v276q0 44 28.5 74.5t71.5 30.5t72 -30.5t29 -74.5v-264q93 -10 173.5 -53.5
t137.5 -112.5q29 -36 29 -70q0 -40 -29.5 -69t-69.5 -29q-37 0 -79 39q-66 75 -162 94v-641q96 22 162 94q42 39 79 39zM291 670q0 -102 49 -182t131 -117v596q-83 -37 -131.5 -116t-48.5 -181z" />
    <glyph glyph-name="sterling" unicode="&#xa3;" horiz-adv-x="1122" 
d="M952 186q38 0 64 -27t26 -67t-26 -66t-64 -26h-753q-41 0 -70 28t-29 68q0 54 52 86q118 69 151 98q66 58 70 144v14q0 29 -2 43h-164q-41 0 -68.5 27t-27.5 67t27.5 66.5t68.5 26.5h96q-3 5 -25 47t-28 54t-22 49t-21 59t-11 55.5t-6 66.5q0 168 117 271.5t301 103.5
q141 0 245 -64t161 -184q20 -39 20 -71q0 -40 -30 -69.5t-72 -29.5q-35 0 -56.5 16.5t-41.5 49.5q-74 154 -213 154q-97 0 -153 -59.5t-56 -151.5q0 -38 12.5 -81t23.5 -67.5t40.5 -78.5t37.5 -70h244q40 0 67 -26.5t27 -66.5t-27 -67t-67 -27h-182q2 -12 2 -41
q0 -75 -36.5 -142.5t-100.5 -111.5h499z" />
    <glyph glyph-name="currency" unicode="&#xa4;" horiz-adv-x="1331" 
d="M1063 403l166 -167q31 -31 31 -70q0 -36 -26.5 -63t-64.5 -27q-36 0 -69 30l-172 175q-118 -76 -266 -76q-145 0 -265 74l-166 -170q-33 -33 -71 -33q-35 0 -62.5 27.5t-27.5 64.5t28 68l164 167q-88 122 -88 273q0 148 88 270l-164 166q-28 28 -28 68q0 37 27.5 64.5
t62.5 27.5q38 0 71 -33l166 -166q120 74 265 74q144 0 270 -76l168 170q31 31 69 31q36 0 63.5 -27t27.5 -63q0 -39 -31 -70l-164 -166q86 -123 86 -270q0 -148 -88 -273zM662 403q115 0 191.5 77.5t76.5 193.5q0 120 -76 197t-192 77q-117 0 -192 -77.5t-75 -196.5
q0 -116 75.5 -193.5t191.5 -77.5z" />
    <glyph glyph-name="yen" unicode="&#xa5;" horiz-adv-x="1177" 
d="M1004 571h-306v-157h306q38 0 65 -26t27 -64t-27 -64.5t-65 -26.5h-306v-145q0 -48 -30.5 -79.5t-77.5 -31.5q-46 0 -77.5 32t-31.5 79v145h-303q-38 0 -65 26.5t-27 64.5t27 64t65 26h303v157h-303q-38 0 -65 26.5t-27 64.5q0 39 26.5 65.5t65.5 26.5h246l-334 450
q-29 39 -29 72q0 40 30 69t71 29q51 0 90 -55l338 -475l338 475q39 55 90 55q41 0 71.5 -29t30.5 -69q0 -30 -28 -72l-336 -450h248q39 0 65.5 -26.5t26.5 -65.5q0 -38 -27 -64.5t-65 -26.5z" />
    <glyph glyph-name="brokenbar" unicode="&#xa6;" horiz-adv-x="679" 
d="M340 1620q38 0 64 -27t26 -67v-471q0 -40 -26 -67t-64 -27t-64 27t-26 67v471q0 40 25.5 67t64.5 27zM340 389q38 0 64 -27t26 -67v-471q0 -38 -26 -65t-64 -27t-64 27t-26 65v471q0 40 25.5 67t64.5 27z" />
    <glyph glyph-name="section" unicode="&#xa7;" horiz-adv-x="1208" 
d="M1143 367q0 -103 -65.5 -176t-180.5 -103q2 -10 2 -35q0 -138 -99 -224.5t-257 -86.5q-200 0 -338 147q-30 30 -33 72q-1 30 13.5 52.5t41.5 31.5q58 31 117 -25q50 -48 95.5 -69t101.5 -21q69 0 108 31.5t39 87.5q0 51 -33 92t-143 127l-203 156q-135 98 -189 173.5
t-54 164.5q0 103 65 175.5t180 102.5q-2 10 -2 35q0 138 99.5 224.5t259.5 86.5q195 0 336 -147q32 -32 32 -78q0 -28 -15 -49t-38 -29q-28 -15 -59.5 -9t-59.5 32q-49 49 -94 69.5t-102 20.5q-69 0 -108.5 -31.5t-39.5 -85.5q0 -52 33 -93t143 -128l203 -153
q134 -97 189 -173t55 -165zM834 242q100 39 100 123q0 43 -29.5 77.5t-128.5 108.5l-209 160q-134 102 -192 176q-99 -39 -99 -123q0 -43 30 -79.5t126 -109.5l211 -157q131 -98 191 -176z" />
    <glyph glyph-name="dieresis" unicode="&#xa8;" horiz-adv-x="860" 
d="M201 1516q59 0 98 -39t39 -97q0 -54 -40 -93.5t-97 -39.5q-55 0 -97.5 40t-42.5 93q0 55 41.5 95.5t98.5 40.5zM659 1516q59 0 99.5 -39t40.5 -97q0 -54 -41.5 -93.5t-98.5 -39.5q-55 0 -97 40t-42 93q0 56 41 96t98 40z" />
    <glyph glyph-name="copyright" unicode="&#xa9;" horiz-adv-x="1597" 
d="M797 -23q-145 0 -276 55t-226 148.5t-151 223t-56 272.5t56 272.5t151 222.5t226 148t276 55q146 0 277.5 -55t226 -148.5t150.5 -222.5t56 -272q0 -191 -94.5 -351.5t-258 -254t-357.5 -93.5zM797 115q117 0 221 43.5t178.5 118t118 178.5t43.5 221t-43.5 221
t-118 178.5t-178.5 118t-221 43.5t-220.5 -43t-177 -117.5t-116.5 -178.5t-43 -222t43 -222t116.5 -178.5t177 -117.5t220.5 -43zM813 291q-163 0 -275 111t-112 274t112 274t275 111q77 0 149 -30t115 -79q39 -44 39 -80q0 -32 -21 -53.5t-53 -21.5q-16 0 -29 5t-20.5 11.5
t-23.5 20.5q-60 63 -152 63q-91 0 -151 -63t-60 -158t60 -158t151 -63q92 0 152 63q16 14 23.5 20.5t20.5 11.5t29 5q32 0 53 -22t21 -54q0 -36 -39 -80q-43 -49 -115 -78.5t-149 -29.5z" />
    <glyph glyph-name="ordfeminine" unicode="&#xaa;" horiz-adv-x="751" 
d="M371 1153q130 0 202 -72t72 -200v-308q0 -38 -25 -63t-61 -25q-31 0 -53.5 17t-30.5 45q-72 -62 -180 -62q-100 0 -159.5 52.5t-59.5 140.5t63 137t176 49h156v29q0 111 -121 111q-61 0 -123 -43q-23 -17 -47 -17q-31 0 -52.5 21.5t-21.5 52.5q0 40 44 67q98 68 221 68z
M344 614q56 0 91.5 33.5t35.5 85.5v21h-127q-43 0 -67.5 -19t-24.5 -51t24.5 -51t67.5 -19z" />
    <glyph glyph-name="guillemotleft" unicode="&#xab;" horiz-adv-x="1118" 
d="M467 152q-44 0 -80 36l-283 299q-30 30 -30 70t30 70l283 297q36 39 80 39q36 0 63 -28t27 -65q0 -40 -31 -71l-219 -242l219 -242q31 -31 31 -71q0 -38 -27 -65t-63 -27zM932 152q-44 0 -80 36l-283 299q-30 30 -30 70t30 70l283 297q36 39 80 39q36 0 63 -28t27 -65
q0 -40 -31 -71l-219 -242l219 -242q31 -31 31 -71q0 -38 -27 -65t-63 -27z" />
    <glyph glyph-name="logicalnot" unicode="&#xac;" 
d="M877 193q-45 0 -75 30.5t-30 75.5v258h-588q-40 0 -67 27t-27 67q0 38 27 65t67 27h697q41 0 69.5 -28.5t28.5 -69.5v-346q0 -46 -29 -76t-73 -30z" />
    <glyph glyph-name="uni00AD" unicode="&#xad;" horiz-adv-x="704" 
d="M522 741q40 0 67 -26t27 -64t-27 -65t-67 -27h-340q-39 0 -65.5 26.5t-26.5 65.5q0 38 26 64t66 26h340z" />
    <glyph glyph-name="registered" unicode="&#xae;" horiz-adv-x="1171" 
d="M588 1409q137 0 253.5 -69.5t184.5 -189t68 -259.5q0 -139 -68 -258t-184.5 -188.5t-253.5 -69.5q-138 0 -255.5 69.5t-186 188.5t-68.5 258q0 140 68.5 259.5t186 189t255.5 69.5zM588 492q163 0 275 116t112 285q0 167 -112 283t-275 116q-164 0 -275.5 -115.5
t-111.5 -283.5q0 -169 111.5 -285t275.5 -116zM715 829l78 -88q18 -21 18 -47q0 -28 -18.5 -47.5t-44.5 -19.5q-34 0 -56 28l-125 142h-51v-101q0 -29 -18.5 -49t-44.5 -20q-29 0 -48.5 20t-19.5 49v383q0 29 20.5 49.5t49.5 20.5h141q88 0 142.5 -49t54.5 -127
q0 -95 -78 -144zM516 1034v-123h78q28 0 45.5 17t17.5 43q0 28 -17.5 45.5t-45.5 17.5h-78z" />
    <glyph glyph-name="macron" unicode="&#xaf;" horiz-adv-x="712" 
d="M573 1466q40 0 65.5 -24.5t25.5 -61.5t-25.5 -61.5t-65.5 -24.5h-434q-38 0 -64 24.5t-26 61.5t26 61.5t64 24.5h434z" />
    <glyph glyph-name="degree" unicode="&#xb0;" horiz-adv-x="739" 
d="M369 1374q130 0 221.5 -89.5t91.5 -217.5q0 -129 -91 -218t-222 -89q-129 0 -220.5 90t-91.5 217t91.5 217t220.5 90zM369 1225q-64 0 -109 -46t-45 -112q0 -67 44.5 -112.5t109.5 -45.5q67 0 111 45t44 113t-44 113t-111 45z" />
    <glyph glyph-name="plusminus" unicode="&#xb1;" 
d="M573 307q-44 0 -71 30.5t-27 76.5v227h-270q-38 0 -65 26t-27 64t27 64t65 26h270v215q0 46 27 76.5t71 30.5t71.5 -30.5t27.5 -76.5v-215h272q38 0 64 -26t26 -64t-26 -64t-64 -26h-272v-227q0 -46 -27.5 -76.5t-71.5 -30.5zM205 0q-40 0 -66 26t-26 64t26 64t66 26h739
q38 0 64 -26t26 -64t-26 -64t-64 -26h-739z" />
    <glyph glyph-name="uni00B2" unicode="&#xb2;" horiz-adv-x="770" 
d="M623 899q34 0 56.5 -22t22.5 -54q0 -34 -22.5 -56t-56.5 -22h-478q-32 0 -53.5 22.5t-21.5 55.5q0 35 34 62l265 227q69 60 98 109.5t29 105.5q0 57 -34.5 93t-88.5 36t-87 -34.5t-34 -94.5l-6 -31q-3 -28 -26 -46.5t-54 -18.5q-42 0 -65 27.5t-23 78.5q0 115 86 195
t209 80q127 0 210 -78.5t83 -198.5q0 -86 -44 -161t-147 -164l-127 -111h275z" />
    <glyph glyph-name="uni00B3" unicode="&#xb3;" horiz-adv-x="731" 
d="M434 1288q96 -19 158.5 -93.5t62.5 -170.5q0 -126 -91 -209.5t-226 -83.5q-83 0 -154 33.5t-118 95.5q-17 23 -17 51q0 32 23 55t55 23q34 0 59 -28q65 -74 146 -74q68 0 108.5 37t40.5 100q0 60 -44 92.5t-130 32.5h-16q-32 0 -55 22.5t-23 53.5q0 33 27 57l163 162
h-241q-34 0 -57 23t-23 55t23 53.5t57 21.5h401q32 0 54 -21.5t22 -53.5q0 -30 -27 -60z" />
    <glyph glyph-name="acute" unicode="&#xb4;" horiz-adv-x="546" 
d="M205 1155q-42 1 -69 29.5t-25 66.5q0 21 14 49l111 256q12 28 41 46t61 18q44 0 75 -32.5t31 -78.5q0 -26 -16 -57l-137 -242q-33 -58 -86 -55z" />
    <glyph glyph-name="uni00B5" unicode="&#xb5;" horiz-adv-x="1230" 
d="M1135 178q38 0 62 -24.5t24 -61.5q0 -35 -18 -60t-48 -34q-46 -14 -88 -14q-148 0 -205 112q-95 -119 -252 -119q-149 0 -239 107v-365q0 -47 -31 -78.5t-76 -31.5q-46 0 -77 32t-31 78v1199q0 46 31 78t77 32q44 0 75.5 -32t31.5 -78v-502q0 -106 62.5 -174t160.5 -68
q99 0 162 68t63 174v502q0 46 31.5 78t77.5 32q45 0 75.5 -31.5t30.5 -78.5v-615q0 -125 99 -125h2z" />
    <glyph glyph-name="paragraph" unicode="&#xb6;" horiz-adv-x="1204" 
d="M928 1352q46 0 76 -32t30 -79v-1270q0 -185 -97 -273.5t-275 -88.5q-81 0 -119 14q-82 23 -82 92q0 43 29 71t73 28q7 0 29 -3.5t45 -3.5q86 0 134 42.5t48 142.5v473h-272q-130 0 -238 56.5t-171.5 159.5t-63.5 230t63 228.5t171 157t239 55.5h381z" />
    <glyph glyph-name="periodcentered" unicode="&#xb7;" horiz-adv-x="552" 
d="M279 492q-68 0 -115 45.5t-47 111.5t47.5 113t114.5 47q66 0 111.5 -47t45.5 -113t-45.5 -111.5t-111.5 -45.5z" />
    <glyph glyph-name="cedilla" unicode="&#xb8;" horiz-adv-x="563" 
d="M205 -391q-83 0 -121 16q-57 22 -57 74q0 32 22.5 55t54.5 23q12 0 35.5 -3t44.5 -3q56 0 93.5 25.5t37.5 72.5q0 56 -45 117q-4 6 -13 17.5t-13.5 17.5t-10 15t-8 17.5t-2.5 16.5q0 28 18 44.5t50 16.5q69 0 140 -92.5t71 -181.5q0 -112 -81.5 -180t-215.5 -68z" />
    <glyph glyph-name="uni00B9" unicode="&#xb9;" horiz-adv-x="739" 
d="M160 745q-34 0 -57 23t-23 55t23 54t57 22h145v545h-131q-34 0 -57 23t-23 55t23 53.5t57 21.5h215q37 0 61.5 -25t24.5 -63v-610h113q34 0 57 -22t23 -54q0 -34 -23 -56t-57 -22h-428z" />
    <glyph glyph-name="ordmasculine" unicode="&#xba;" horiz-adv-x="827" 
d="M414 1151q143 0 242.5 -97.5t99.5 -236.5t-99.5 -235.5t-242.5 -96.5q-145 0 -243.5 96t-98.5 236q0 141 98.5 237.5t243.5 96.5zM414 995q-75 0 -122.5 -49.5t-47.5 -128.5q0 -78 47.5 -127t122.5 -49q73 0 120.5 49.5t47.5 126.5q0 78 -46.5 128t-121.5 50z" />
    <glyph glyph-name="guillemotright" unicode="&#xbb;" horiz-adv-x="1126" 
d="M201 152q-36 0 -63 27t-27 65q0 41 30 71l219 242l-219 242q-30 30 -30 71q0 37 27 65t63 28q44 0 80 -39l282 -297q31 -31 31 -70t-31 -70l-282 -299q-36 -36 -80 -36zM666 152q-36 0 -63.5 27t-27.5 65q0 40 31 71l219 242l-219 242q-31 31 -31 71q0 37 27 65t64 28
q43 0 79 -39l283 -297q31 -31 31 -70t-31 -70l-283 -299q-36 -36 -79 -36z" />
    <glyph glyph-name="onequarter" unicode="&#xbc;" horiz-adv-x="1863" 
d="M1425 1296q0 -25 -10 -45l-710 -1228q-28 -48 -76 -48q-31 0 -53.5 23.5t-22.5 54.5q0 24 14 47l707 1227q28 45 76 45q31 0 53 -22.5t22 -53.5zM668 578q0 -34 -23 -56t-57 -22h-428q-34 0 -57 23t-23 55t23 53.5t57 21.5h145v545h-131q-34 0 -57 23t-23 55t23 54t57 22
h215q37 0 61.5 -25t24.5 -63v-611h113q34 0 57 -21.5t23 -53.5zM1772 303q36 0 57.5 -24.5t21.5 -57.5q0 -32 -21.5 -56t-57.5 -24h-43v-75q0 -34 -22 -57t-56 -23t-56 23t-22 57v75h-354q-31 0 -52.5 21.5t-21.5 52.5q0 16 10 39l252 559q22 53 76 53q32 0 55 -22t23 -53
q0 -12 -11 -41l-186 -447h209v148q0 35 22 57t56 22t56 -22t22 -57v-148h43z" />
    <glyph glyph-name="onehalf" unicode="&#xbd;" horiz-adv-x="1937" 
d="M1425 1296q0 -25 -10 -45l-710 -1228q-28 -48 -76 -48q-31 0 -53.5 23.5t-22.5 54.5q0 24 14 47l707 1227q28 45 76 45q31 0 53 -22.5t22 -53.5zM668 578q0 -34 -23 -56t-57 -22h-428q-34 0 -57 23t-23 55t23 53.5t57 21.5h145v545h-131q-34 0 -57 23t-23 55t23 54t57 22
h215q37 0 61.5 -25t24.5 -63v-611h113q34 0 57 -21.5t23 -53.5zM1790 154q34 0 57 -22t23 -54q0 -34 -23 -56t-57 -22h-477q-32 0 -54 23t-22 55q0 33 35 61l264 228q69 60 98 109.5t29 105.5q0 57 -34.5 93t-88.5 36t-87 -34.5t-34 -94.5l-6 -31q-3 -28 -26 -47t-54 -19
q-41 0 -64.5 28t-23.5 79q0 115 86 194.5t209 79.5q127 0 210 -78t83 -198q0 -86 -44 -161.5t-147 -164.5l-126 -110h274z" />
    <glyph glyph-name="threequarters" unicode="&#xbe;" horiz-adv-x="1783" 
d="M1346 1296q0 -23 -11 -45l-710 -1228q-28 -48 -76 -48q-31 0 -53.5 23.5t-22.5 54.5q0 24 14 47l707 1227q28 45 76 45q31 0 53.5 -22.5t22.5 -53.5zM655 778q0 -126 -91 -209.5t-226 -83.5q-83 0 -154 33.5t-118 95.5q-17 23 -17 52q0 32 23 54.5t55 22.5q34 0 59 -28
q65 -74 146 -74q68 0 108.5 37t40.5 100q0 60 -44 92.5t-130 32.5h-16q-32 0 -55 22.5t-23 53.5q0 33 27 57l163 162h-241q-34 0 -57 23t-23 55t23 54t57 22h401q32 0 54 -22t22 -54q0 -29 -27 -59l-178 -175q96 -19 158.5 -93.5t62.5 -170.5zM1692 303q36 0 58 -24.5
t22 -57.5q0 -31 -22 -55.5t-58 -24.5h-43v-75q0 -34 -22 -57t-56 -23t-56 23t-22 57v75h-354q-31 0 -52.5 21.5t-21.5 52.5q0 16 10 39l252 559q22 53 76 53q32 0 55 -22t23 -53q0 -12 -11 -41l-186 -447h209v148q0 35 22 57t56 22t56 -22t22 -57v-148h43z" />
    <glyph glyph-name="questiondown" unicode="&#xbf;" horiz-adv-x="917" 
d="M502 1032q66 0 111.5 -44.5t45.5 -108.5q0 -65 -45.5 -110.5t-111.5 -45.5q-64 0 -109 45.5t-45 110.5q0 64 44.5 108.5t109.5 44.5zM508 602q42 0 72 -28.5t30 -69.5v-25q0 -65 -33.5 -120.5t-123.5 -139.5q-91 -82 -119.5 -124.5t-28.5 -96.5q0 -70 47.5 -117
t116.5 -47q117 0 176 121q35 61 92 61q40 0 68.5 -28t28.5 -68q0 -29 -19 -65q-47 -105 -139.5 -162.5t-214.5 -57.5q-162 0 -270.5 97t-108.5 243q0 81 41.5 152t138.5 158q83 73 113.5 116.5t30.5 87.5l2 21q1 40 30 66t70 26z" />
    <glyph glyph-name="Agrave" unicode="&#xc0;" horiz-adv-x="1357" 
d="M561 1528l-137 209q-37 56 -9 112.5t89 59.5q70 4 104 -58l119 -229q24 -41 0 -89.5t-80 -51.5q-52 0 -86 47zM1272 143q16 -40 16 -61q0 -43 -31 -74t-75 -31q-72 0 -103 76l-84 191h-637l-79 -191q-28 -76 -103 -76q-44 0 -75 31t-31 74q0 28 16 61l489 1157
q30 74 103 74q74 0 104 -74zM678 1057l-244 -629h484z" />
    <glyph glyph-name="Aacute" unicode="&#xc1;" horiz-adv-x="1357" 
d="M709 1481q-56 3 -80 51.5t0 89.5l119 229q34 62 104 58q61 -3 89 -59.5t-9 -112.5l-137 -209q-34 -47 -86 -47zM1272 143q16 -40 16 -61q0 -43 -31 -74t-75 -31q-72 0 -103 76l-84 191h-637l-79 -191q-28 -76 -103 -76q-44 0 -75 31t-31 74q0 28 16 61l489 1157
q30 74 103 74q74 0 104 -74zM678 1057l-244 -629h484z" />
    <glyph glyph-name="Acircumflex" unicode="&#xc2;" horiz-adv-x="1357" 
d="M422 1477q-34 0 -57 22.5t-23 56.5q0 19 9 34t32 38l223 221q31 31 70 31q38 0 69 -31l224 -221q23 -23 32 -38t9 -34q0 -34 -23 -56.5t-57 -22.5q-31 0 -64 26l-190 178l-191 -178q-33 -26 -63 -26zM1272 143q16 -40 16 -61q0 -43 -31 -74t-75 -31q-72 0 -103 76
l-84 191h-637l-79 -191q-28 -76 -103 -76q-44 0 -75 31t-31 74q0 28 16 61l489 1157q30 74 103 74q74 0 104 -74zM678 1057l-244 -629h484z" />
    <glyph glyph-name="Atilde" unicode="&#xc3;" horiz-adv-x="1357" 
d="M395 1493q-40 0 -65 26.5t-25 69.5q0 101 59 167.5t148 66.5q76 0 147 -45l68 -41q5 -3 16.5 -9.5t16 -9t13.5 -7t14.5 -6.5t13 -3.5t14.5 -1.5q53 0 62 57q4 34 27 54t57 20q40 0 65 -26.5t25 -67.5q0 -103 -59 -169.5t-150 -66.5q-72 0 -148 45l-65 41q-6 3 -20 11
t-20 11t-16 7.5t-18 6t-16 1.5q-54 0 -60 -57q-6 -34 -28.5 -54t-55.5 -20zM1272 143q16 -40 16 -61q0 -43 -31 -74t-75 -31q-72 0 -103 76l-84 191h-637l-79 -191q-28 -76 -103 -76q-44 0 -75 31t-31 74q0 28 16 61l489 1157q30 74 103 74q74 0 104 -74zM678 1057
l-244 -629h484z" />
    <glyph glyph-name="Adieresis" unicode="&#xc4;" horiz-adv-x="1357" 
d="M426 1530q-55 0 -97 40t-42 93q0 56 42 94.5t97 38.5q57 0 97 -38t40 -95q0 -54 -40 -93.5t-97 -39.5zM926 1528q-53 0 -95.5 40t-42.5 93q0 56 42 95.5t96 39.5q59 0 99 -39t40 -96q0 -54 -40.5 -93.5t-98.5 -39.5zM1272 143q16 -40 16 -61q0 -43 -31 -74t-75 -31
q-72 0 -103 76l-84 191h-637l-79 -191q-28 -76 -103 -76q-44 0 -75 31t-31 74q0 28 16 61l489 1157q30 74 103 74q74 0 104 -74zM678 1057l-244 -629h484z" />
    <glyph glyph-name="Aring" unicode="&#xc5;" horiz-adv-x="1357" 
d="M676 1407q-103 0 -172.5 67.5t-69.5 167.5t70.5 168t171.5 68q104 0 174 -68t70 -168q0 -101 -70 -168t-174 -67zM678 1737q-40 0 -67 -27t-27 -68q0 -40 27 -67t67 -27t66 27t26 67t-26.5 67.5t-65.5 27.5zM1272 143q16 -40 16 -61q0 -43 -31 -74t-75 -31q-72 0 -103 76
l-84 191h-637l-79 -191q-28 -76 -103 -76q-44 0 -75 31t-31 74q0 28 16 61l489 1157q30 74 103 74q74 0 104 -74zM678 1057l-244 -629h484z" />
    <glyph glyph-name="AE" unicode="&#xc6;" horiz-adv-x="1714" 
d="M1544 195q43 0 72 -28t29 -69t-29.5 -69.5t-71.5 -28.5h-508q-40 0 -70 25t-36 63l-23 137h-536l-95 -180q-35 -68 -96 -68q-46 0 -76 29t-30 72q0 29 12 53l594 1147q38 74 117 74h723q42 0 71 -29t29 -70t-29 -68.5t-71 -27.5h-551l57 -346h332q41 0 68.5 -27t27.5 -67
t-27.5 -67t-68.5 -27h-301l71 -428h416zM776 1034l-309 -622h407z" />
    <glyph glyph-name="Ccedilla" unicode="&#xc7;" horiz-adv-x="1468" 
d="M1260 397q41 0 70.5 -29t29.5 -69q0 -38 -37 -86q-65 -82 -161.5 -138.5t-207.5 -80.5q41 -74 41 -137q0 -112 -81.5 -180t-215.5 -68q-82 0 -120 16q-58 22 -58 74q0 32 23 55t55 23q12 0 35.5 -3t44.5 -3q56 0 93.5 25.5t37.5 72.5q0 51 -39 108q-142 5 -268.5 61.5
t-217 149t-143.5 220t-53 268.5q0 193 94 353.5t257 252.5t360 92q156 0 294.5 -62t231.5 -173q35 -46 35 -86t-29.5 -69.5t-70.5 -29.5q-49 0 -86 43q-147 179 -373 179q-211 0 -349.5 -142.5t-138.5 -357.5t138.5 -357.5t349.5 -142.5q221 0 370 178q37 43 89 43z" />
    <glyph glyph-name="Egrave" unicode="&#xc8;" horiz-adv-x="1165" 
d="M582 1481q-52 0 -86 47l-138 209q-37 56 -9 112.5t89 59.5q71 4 105 -58l119 -229q24 -41 0 -89.5t-80 -51.5zM274 0q-44 0 -74 30t-30 74v1143q0 44 30 74.5t74 30.5h695q43 0 71.5 -29t28.5 -70t-28.5 -68.5t-71.5 -27.5h-582v-346h420q41 0 68.5 -27t27.5 -67
t-27.5 -67t-68.5 -27h-420v-428h606q43 0 72 -28t29 -69t-29 -69.5t-72 -28.5h-719z" />
    <glyph glyph-name="Eacute" unicode="&#xc9;" horiz-adv-x="1165" 
d="M643 1481q-56 3 -80 51.5t0 89.5l119 229q34 62 104 58q61 -3 89 -59.5t-9 -112.5l-137 -209q-34 -47 -86 -47zM274 0q-44 0 -74 30t-30 74v1143q0 44 30 74.5t74 30.5h695q43 0 71.5 -29t28.5 -70t-28.5 -68.5t-71.5 -27.5h-582v-346h420q41 0 68.5 -27t27.5 -67
t-27.5 -67t-68.5 -27h-420v-428h606q43 0 72 -28t29 -69t-29 -69.5t-72 -28.5h-719z" />
    <glyph glyph-name="Ecircumflex" unicode="&#xca;" horiz-adv-x="1165" 
d="M356 1477q-34 0 -57 22.5t-23 56.5q0 19 9 34t32 38l224 221q31 31 69 31q39 0 70 -31l223 -221q23 -23 32 -38t9 -34q0 -34 -23 -56.5t-57 -22.5q-30 0 -63 26l-191 178l-190 -178q-33 -26 -64 -26zM993 195q43 0 72 -28t29 -69t-29 -69.5t-72 -28.5h-719q-44 0 -74 30
t-30 74v1143q0 44 30 74.5t74 30.5h695q43 0 71.5 -29t28.5 -70t-28.5 -68.5t-71.5 -27.5h-582v-346h420q41 0 68.5 -27t27.5 -67t-27.5 -67t-68.5 -27h-420v-428h606z" />
    <glyph glyph-name="Edieresis" unicode="&#xcb;" horiz-adv-x="1165" 
d="M360 1530q-55 0 -97 40t-42 93q0 56 42 94.5t97 38.5q58 0 98 -38t40 -95q0 -54 -40.5 -93.5t-97.5 -39.5zM860 1528q-53 0 -95 40t-42 93q0 56 41.5 95.5t95.5 39.5q59 0 99 -39t40 -96q0 -54 -40.5 -93.5t-98.5 -39.5zM274 0q-44 0 -74 30t-30 74v1143q0 44 30 74.5
t74 30.5h695q43 0 71.5 -29t28.5 -70t-28.5 -68.5t-71.5 -27.5h-582v-346h420q41 0 68.5 -27t27.5 -67t-27.5 -67t-68.5 -27h-420v-428h606q43 0 72 -28t29 -69t-29 -69.5t-72 -28.5h-719z" />
    <glyph glyph-name="Igrave" unicode="&#xcc;" horiz-adv-x="557" 
d="M250 1481q-52 0 -86 47l-137 209q-37 56 -9.5 112.5t88.5 59.5q71 4 105 -58l119 -229q24 -41 0 -89.5t-80 -51.5zM279 -23q-47 0 -78 32t-31 79v1176q0 47 31 78.5t78 31.5t77.5 -31.5t30.5 -78.5v-1176q0 -48 -30.5 -79.5t-77.5 -31.5z" />
    <glyph glyph-name="Iacute" unicode="&#xcd;" horiz-adv-x="557" 
d="M311 1481q-56 3 -80 51.5t0 89.5l119 229q34 62 105 58q61 -3 89 -59.5t-9 -112.5l-138 -209q-34 -47 -86 -47zM279 -23q-47 0 -78 32t-31 79v1176q0 47 31 78.5t78 31.5t77.5 -31.5t30.5 -78.5v-1176q0 -48 -30.5 -79.5t-77.5 -31.5z" />
    <glyph glyph-name="Icircumflex" unicode="&#xce;" horiz-adv-x="557" 
d="M571 1628q23 -23 32 -38t9 -34q0 -34 -23 -56.5t-57 -22.5q-30 0 -63 26l-190 178l-191 -178q-33 -26 -63 -26q-34 0 -57 22.5t-23 56.5q0 19 9 34t32 38l223 221q31 31 70 31q38 0 69 -31zM279 1374q47 0 77.5 -31.5t30.5 -78.5v-1176q0 -48 -30.5 -79.5t-77.5 -31.5
t-78 32t-31 79v1176q0 47 31 78.5t78 31.5z" />
    <glyph glyph-name="Idieresis" unicode="&#xcf;" horiz-adv-x="557" 
d="M29 1530q-55 0 -97.5 40t-42.5 93q0 56 42.5 94.5t97.5 38.5q57 0 97 -38t40 -95q0 -54 -40 -93.5t-97 -39.5zM528 1528q-53 0 -95 40t-42 93q0 56 41.5 95.5t95.5 39.5q59 0 99.5 -39t40.5 -96q0 -54 -41 -93.5t-99 -39.5zM279 -23q-47 0 -78 32t-31 79v1176
q0 47 31 78.5t78 31.5t77.5 -31.5t30.5 -78.5v-1176q0 -48 -30.5 -79.5t-77.5 -31.5z" />
    <glyph glyph-name="Eth" unicode="&#xd0;" horiz-adv-x="1417" 
d="M592 1352q332 0 534.5 -185t202.5 -489q0 -199 -93 -353.5t-260.5 -239.5t-383.5 -85h-309q-49 0 -81 32t-32 81v430h-94q-41 0 -70 27t-29 65t29 65t70 27h94v512q0 49 32 81t81 32h309zM590 195q232 0 373 132.5t141 350.5q0 220 -139 348.5t-375 128.5h-203v-428h158
q41 0 69.5 -27t28.5 -65t-28.5 -65t-69.5 -27h-158v-348h203z" />
    <glyph glyph-name="Ntilde" unicode="&#xd1;" horiz-adv-x="1454" 
d="M444 1493q-40 0 -65 26.5t-25 69.5q0 101 59 167.5t148 66.5q77 0 148 -45l67 -41q5 -3 16.5 -9.5t16 -9t13.5 -7t14.5 -6.5t13 -3.5t14.5 -1.5q53 0 62 57q4 34 27 54t57 20q40 0 65 -26.5t25 -67.5q0 -103 -59 -169.5t-150 -66.5q-72 0 -148 45l-65 41q-6 3 -20 11
t-20 11t-16 7.5t-18 6t-16 1.5q-54 0 -60 -57q-6 -34 -28.5 -54t-55.5 -20zM1176 1374q46 0 77 -31.5t31 -78.5v-1180q0 -45 -30.5 -76t-75.5 -31q-54 0 -103 62l-688 907v-858q0 -47 -31 -79t-77 -32t-77.5 32t-31.5 79v1180q0 44 31 75t75 31q35 0 57.5 -16t51.5 -55
l684 -895l-2 856q0 47 31.5 78.5t77.5 31.5z" />
    <glyph glyph-name="Ograve" unicode="&#xd2;" horiz-adv-x="1597" 
d="M768 1481q-52 0 -86 47l-137 209q-37 56 -9 112.5t89 59.5q70 4 104 -58l119 -229q24 -41 0 -89.5t-80 -51.5zM797 1374q146 0 278 -55t226.5 -148t150 -222.5t55.5 -272.5q0 -144 -55.5 -273.5t-150 -223t-226.5 -148t-278 -54.5q-195 0 -358 92.5t-257 253t-94 353.5
q0 192 94 352.5t257 253t358 92.5zM799 1176q-211 0 -348.5 -141.5t-137.5 -356.5q0 -218 137.5 -360t348.5 -142q209 0 347 142.5t138 359.5q0 214 -138 356t-347 142z" />
    <glyph glyph-name="Oacute" unicode="&#xd3;" horiz-adv-x="1597" 
d="M829 1481q-56 3 -79.5 51.5t0.5 89.5l118 229q34 62 105 58q61 -3 89 -59.5t-9 -112.5l-138 -209q-34 -47 -86 -47zM797 1374q146 0 278 -55t226.5 -148t150 -222.5t55.5 -272.5q0 -144 -55.5 -273.5t-150 -223t-226.5 -148t-278 -54.5q-195 0 -358 92.5t-257 253
t-94 353.5q0 192 94 352.5t257 253t358 92.5zM799 1176q-211 0 -348.5 -141.5t-137.5 -356.5q0 -218 137.5 -360t348.5 -142q209 0 347 142.5t138 359.5q0 214 -138 356t-347 142z" />
    <glyph glyph-name="Ocircumflex" unicode="&#xd4;" horiz-adv-x="1597" 
d="M543 1477q-34 0 -57 22.5t-23 56.5q0 19 9 34t32 38l223 221q31 31 70 31q38 0 69 -31l224 -221q23 -23 31.5 -37.5t8.5 -34.5q0 -34 -22.5 -56.5t-56.5 -22.5q-31 0 -64 26l-190 178l-191 -178q-33 -26 -63 -26zM797 1374q146 0 278 -55t226.5 -148t150 -222.5
t55.5 -272.5q0 -144 -55.5 -273.5t-150 -223t-226.5 -148t-278 -54.5q-195 0 -358 92.5t-257 253t-94 353.5q0 192 94 352.5t257 253t358 92.5zM799 176q209 0 347 142.5t138 359.5q0 214 -138 356t-347 142q-211 0 -348.5 -141.5t-137.5 -356.5q0 -218 137.5 -360
t348.5 -142z" />
    <glyph glyph-name="Otilde" unicode="&#xd5;" horiz-adv-x="1597" 
d="M516 1493q-40 0 -65 26.5t-25 69.5q0 101 59 167.5t148 66.5q76 0 147 -45l68 -41q5 -3 16.5 -9.5t16 -9t13.5 -7t14.5 -6.5t13 -3.5t14.5 -1.5q52 0 61 57q4 34 27 54t57 20q40 0 65 -26.5t25 -67.5q0 -103 -58.5 -169.5t-149.5 -66.5q-72 0 -148 45l-65 41
q-5 3 -20 11.5t-20.5 11t-16 7t-18.5 6t-16 1.5q-53 0 -59 -57q-6 -34 -28.5 -54t-55.5 -20zM797 1374q146 0 278 -55t226.5 -148t150 -222.5t55.5 -272.5q0 -144 -55.5 -273.5t-150 -223t-226.5 -148t-278 -54.5q-195 0 -358 92.5t-257 253t-94 353.5q0 192 94 352.5
t257 253t358 92.5zM799 1176q-211 0 -348.5 -141.5t-137.5 -356.5q0 -218 137.5 -360t348.5 -142q209 0 347 142.5t138 359.5q0 214 -138 356t-347 142z" />
    <glyph glyph-name="Odieresis" unicode="&#xd6;" horiz-adv-x="1597" 
d="M547 1530q-55 0 -97 40t-42 93q0 56 42 94.5t97 38.5q57 0 97 -38t40 -95q0 -54 -40 -93.5t-97 -39.5zM1047 1528q-53 0 -95.5 40t-42.5 93q0 56 42 95.5t96 39.5q59 0 99 -39t40 -96q0 -54 -40.5 -93.5t-98.5 -39.5zM797 1374q146 0 278 -55t226.5 -148t150 -222.5
t55.5 -272.5q0 -144 -55.5 -273.5t-150 -223t-226.5 -148t-278 -54.5q-195 0 -358 92.5t-257 253t-94 353.5q0 192 94 352.5t257 253t358 92.5zM799 1176q-211 0 -348.5 -141.5t-137.5 -356.5q0 -218 137.5 -360t348.5 -142q209 0 347 142.5t138 359.5q0 214 -138 356
t-347 142z" />
    <glyph glyph-name="multiply" unicode="&#xd7;" 
d="M250 240q-37 0 -64.5 27t-27.5 65q0 37 30 67l254 254l-254 256q-30 27 -30 68q0 38 27.5 65t64.5 27q39 0 67 -31l256 -254l256 254q28 31 68 31q37 0 64.5 -27t27.5 -65q0 -40 -31 -68l-253 -256l253 -254q31 -31 31 -67q0 -38 -27.5 -65t-64.5 -27q-40 0 -68 28
l-256 256l-256 -256q-28 -28 -67 -28z" />
    <glyph glyph-name="Oslash" unicode="&#xd8;" horiz-adv-x="1599" 
d="M1360 1106q149 -185 149 -430q0 -144 -55.5 -273.5t-150 -223t-226.5 -148t-278 -54.5q-237 0 -428 138l-105 -105q-33 -33 -73 -33q-37 0 -64 27t-27 64q0 40 33 73l103 103q-148 191 -148 432q0 192 94 352.5t257 253t358 92.5q240 0 428 -139l106 106q33 33 74 33
q37 0 63.5 -26.5t26.5 -63.5q0 -41 -31 -72zM305 678q0 -162 80 -287l702 705q-128 88 -286 88q-214 0 -355 -144t-141 -362zM801 168q212 0 352.5 145t140.5 365q0 158 -80 283l-702 -705q128 -88 289 -88z" />
    <glyph glyph-name="Ugrave" unicode="&#xd9;" horiz-adv-x="1421" 
d="M680 1481q-52 0 -86 47l-137 209q-37 56 -9 112.5t89 59.5q70 4 104 -58l119 -229q24 -41 0 -89.5t-80 -51.5zM713 -23q-253 0 -405 156t-152 414v717q0 47 31 78.5t77 31.5q47 0 78 -31.5t31 -78.5v-732q0 -164 91.5 -260t248.5 -96q155 0 245.5 96t90.5 260v732
q0 47 30.5 78.5t77.5 31.5q46 0 77.5 -31.5t31.5 -78.5v-717q0 -258 -152 -414t-401 -156z" />
    <glyph glyph-name="Uacute" unicode="&#xda;" horiz-adv-x="1421" 
d="M741 1481q-56 3 -79.5 51.5t0.5 89.5l118 229q34 62 105 58q61 -3 89 -59.5t-9 -112.5l-138 -209q-34 -47 -86 -47zM713 -23q-253 0 -405 156t-152 414v717q0 47 31 78.5t77 31.5q47 0 78 -31.5t31 -78.5v-732q0 -164 91.5 -260t248.5 -96q155 0 245.5 96t90.5 260v732
q0 47 30.5 78.5t77.5 31.5q46 0 77.5 -31.5t31.5 -78.5v-717q0 -258 -152 -414t-401 -156z" />
    <glyph glyph-name="Ucircumflex" unicode="&#xdb;" horiz-adv-x="1421" 
d="M455 1477q-34 0 -57 22.5t-23 56.5q0 19 9 34t32 38l223 221q31 31 70 31q38 0 69 -31l223 -221q23 -23 32 -38t9 -34q0 -34 -22.5 -56.5t-56.5 -22.5q-31 0 -64 26l-190 178l-191 -178q-33 -26 -63 -26zM1157 1374q46 0 77.5 -31.5t31.5 -78.5v-717q0 -258 -152 -414
t-401 -156q-253 0 -405 156t-152 414v717q0 47 31 78.5t77 31.5q47 0 78 -31.5t31 -78.5v-732q0 -164 91.5 -260t248.5 -96q155 0 245.5 96t90.5 260v732q0 47 30.5 78.5t77.5 31.5z" />
    <glyph glyph-name="Udieresis" unicode="&#xdc;" horiz-adv-x="1421" 
d="M459 1530q-55 0 -97.5 40t-42.5 93q0 56 42.5 94.5t97.5 38.5q57 0 97 -38t40 -95q0 -54 -40 -93.5t-97 -39.5zM958 1528q-53 0 -95 40t-42 93q0 56 41.5 95.5t95.5 39.5q59 0 99.5 -39t40.5 -96q0 -54 -41 -93.5t-99 -39.5zM713 -23q-253 0 -405 156t-152 414v717
q0 47 31 78.5t77 31.5q47 0 78 -31.5t31 -78.5v-732q0 -164 91.5 -260t248.5 -96q155 0 245.5 96t90.5 260v732q0 47 30.5 78.5t77.5 31.5q46 0 77.5 -31.5t31.5 -78.5v-717q0 -258 -152 -414t-401 -156z" />
    <glyph glyph-name="Yacute" unicode="&#xdd;" horiz-adv-x="1271" 
d="M662 1481q-56 3 -80 51.5t0 89.5l118 229q34 62 105 58q61 -3 89 -59.5t-9 -112.5l-137 -209q-34 -47 -86 -47zM1184 1270q0 -36 -25 -76l-416 -676v-430q0 -47 -31 -79t-77 -32t-77.5 32t-31.5 79v434l-413 672q-25 43 -25 78q0 44 31 73t76 29q36 0 60 -14.5t44 -48.5
l336 -570l338 570q40 63 104 63q46 0 76.5 -30t30.5 -74z" />
    <glyph glyph-name="Thorn" unicode="&#xde;" horiz-adv-x="1193" 
d="M279 1374q46 0 77 -31.5t31 -78.5v-138h275q206 0 332 -115t126 -304q0 -188 -126.5 -306t-331.5 -118h-275v-195q0 -47 -31 -79t-77 -32t-77.5 32t-31.5 79v1176q0 47 31 78.5t78 31.5zM659 934h-272v-459h272q110 0 174 62t64 168t-64 167.5t-174 61.5z" />
    <glyph glyph-name="germandbls" unicode="&#xdf;" horiz-adv-x="1290" 
d="M870 -25q-184 0 -309 103q-41 30 -41 78q0 37 28 64.5t66 27.5q20 0 58 -21q101 -63 205 -63q69 0 107 27.5t38 78.5q0 42 -30.5 72t-137.5 96q-118 69 -166.5 126t-48.5 126q0 61 37 156l78 209q30 83 30 141q0 78 -48 122t-130 44q-110 0 -173.5 -76t-63.5 -209v-989
q0 -47 -30.5 -79t-76.5 -32t-76 32t-30 79v999q0 221 121.5 346.5t334.5 125.5q178 0 283.5 -85.5t105.5 -230.5q0 -85 -30 -164l-88 -245q-25 -61 -25 -99q0 -42 30 -72t136 -94q117 -70 165 -136.5t48 -156.5q0 -135 -101.5 -218t-265.5 -83z" />
    <glyph glyph-name="agrave" unicode="&#xe0;" horiz-adv-x="1097" 
d="M420 1210l-137 242q-17 33 -17 57q0 46 31.5 78.5t75.5 32.5q32 0 61 -18t41 -46l111 -256q14 -28 14 -49q2 -38 -25 -66.5t-69 -29.5q-53 -3 -86 55zM541 1028q195 0 304 -111t109 -309v-522q0 -47 -30 -78t-76 -31t-76.5 31.5t-30.5 77.5v12q-115 -121 -309 -121
q-157 0 -253.5 80.5t-96.5 210.5q0 132 100.5 209.5t270.5 77.5h284v66q0 103 -56 159t-159 56q-128 0 -223 -95q-38 -32 -74 -32q-38 0 -66 27t-28 63q0 45 43 88q64 67 160.5 104t206.5 37zM477 143q109 0 184.5 69t75.5 169v18h-258q-178 0 -178 -123q0 -61 48 -97
t128 -36z" />
    <glyph glyph-name="aacute" unicode="&#xe1;" horiz-adv-x="1097" 
d="M580 1155q-42 1 -69.5 29.5t-25.5 66.5q0 19 15 49l110 256q12 28 41.5 46t61.5 18q44 0 75 -32.5t31 -78.5q0 -26 -16 -57l-137 -242q-33 -58 -86 -55zM541 1028q195 0 304 -111t109 -309v-522q0 -47 -30 -78t-76 -31t-76.5 31.5t-30.5 77.5v12q-115 -121 -309 -121
q-157 0 -253.5 80.5t-96.5 210.5q0 132 100.5 209.5t270.5 77.5h284v66q0 103 -56 159t-159 56q-128 0 -223 -95q-38 -32 -74 -32q-38 0 -66 27t-28 63q0 45 43 88q64 67 160.5 104t206.5 37zM477 143q109 0 184.5 69t75.5 169v18h-258q-178 0 -178 -123q0 -61 48 -97
t128 -36z" />
    <glyph glyph-name="acircumflex" unicode="&#xe2;" horiz-adv-x="1097" 
d="M313 1159q-34 0 -60 25t-26 61q0 34 25 62l209 266q34 39 82 39q49 0 80 -39l211 -266q24 -31 24 -62q0 -36 -26 -61t-60 -25q-38 0 -63 29l-166 190l-168 -190q-22 -29 -62 -29zM541 1028q195 0 304 -111t109 -309v-522q0 -47 -30 -78t-76 -31t-76.5 31.5t-30.5 77.5v12
q-115 -121 -309 -121q-157 0 -253.5 80.5t-96.5 210.5q0 132 100.5 209.5t270.5 77.5h284v66q0 103 -56 159t-159 56q-128 0 -223 -95q-38 -32 -74 -32q-38 0 -66 27t-28 63q0 45 43 88q64 67 160.5 104t206.5 37zM477 143q109 0 184.5 69t75.5 169v18h-258
q-178 0 -178 -123q0 -61 48 -97t128 -36z" />
    <glyph glyph-name="atilde" unicode="&#xe3;" horiz-adv-x="1097" 
d="M272 1202q-39 0 -63.5 27.5t-24.5 70.5q0 104 57.5 169t147.5 65q75 0 143 -49l54 -41q38 -28 53.5 -36.5t32.5 -8.5q48 0 57 61q6 35 29 55.5t55 20.5q39 0 63.5 -27.5t24.5 -70.5q0 -103 -57 -169.5t-146 -66.5q-79 0 -145 51l-55 41q-33 27 -49.5 36t-34.5 9
q-52 0 -58 -61q-6 -35 -29 -55.5t-55 -20.5zM541 1028q195 0 304 -111t109 -309v-522q0 -47 -30 -78t-76 -31t-76.5 31.5t-30.5 77.5v12q-115 -121 -309 -121q-157 0 -253.5 80.5t-96.5 210.5q0 132 100.5 209.5t270.5 77.5h284v66q0 103 -56 159t-159 56q-128 0 -223 -95
q-38 -32 -74 -32q-38 0 -66 27t-28 63q0 45 43 88q64 67 160.5 104t206.5 37zM477 143q109 0 184.5 69t75.5 169v18h-258q-178 0 -178 -123q0 -61 48 -97t128 -36z" />
    <glyph glyph-name="adieresis" unicode="&#xe4;" horiz-adv-x="1097" 
d="M313 1247q-55 0 -97 40t-42 93q0 56 41 96t98 40q59 0 98.5 -39t39.5 -97q0 -54 -40.5 -93.5t-97.5 -39.5zM772 1247q-55 0 -97 40t-42 93q0 56 41 96t98 40q59 0 99 -39t40 -97q0 -54 -41 -93.5t-98 -39.5zM541 1028q195 0 304 -111t109 -309v-522q0 -47 -30 -78
t-76 -31t-76.5 31.5t-30.5 77.5v12q-115 -121 -309 -121q-157 0 -253.5 80.5t-96.5 210.5q0 132 100.5 209.5t270.5 77.5h284v66q0 103 -56 159t-159 56q-128 0 -223 -95q-38 -32 -74 -32q-38 0 -66 27t-28 63q0 45 43 88q64 67 160.5 104t206.5 37zM477 143q109 0 184.5 69
t75.5 169v18h-258q-178 0 -178 -123q0 -61 48 -97t128 -36z" />
    <glyph glyph-name="aring" unicode="&#xe5;" horiz-adv-x="1097" 
d="M541 1143q-102 0 -172 68t-70 167q0 100 69.5 168t172.5 68q104 0 173.5 -67.5t69.5 -168.5q0 -100 -69.5 -167.5t-173.5 -67.5zM543 1473q-40 0 -67 -27t-27 -68q0 -40 27 -66t67 -26t66 26t26 66t-27 67.5t-65 27.5zM541 1028q195 0 304 -111t109 -309v-522
q0 -47 -30 -78t-76 -31t-76.5 31.5t-30.5 77.5v12q-115 -121 -309 -121q-157 0 -253.5 80.5t-96.5 210.5q0 132 100.5 209.5t270.5 77.5h284v66q0 103 -56 159t-159 56q-128 0 -223 -95q-38 -32 -74 -32q-38 0 -66 27t-28 63q0 45 43 88q64 67 160.5 104t206.5 37zM477 143
q109 0 184.5 69t75.5 169v18h-258q-178 0 -178 -123q0 -61 48 -97t128 -36z" />
    <glyph glyph-name="ae" unicode="&#xe6;" horiz-adv-x="1816" 
d="M1262 1028q201 0 331.5 -132t130.5 -335v-18q0 -60 -31.5 -92.5t-90.5 -32.5h-641q25 -116 111.5 -183t213.5 -67q140 0 236 78q29 20 55 20q40 0 66 -26t26 -64q0 -28 -12 -48t-43 -42q-136 -109 -332 -109q-137 0 -250 60t-182 164q-54 -106 -160.5 -165t-245.5 -59
q-165 0 -263.5 80.5t-98.5 214.5q0 138 101 219.5t270 81.5h284v48q0 102 -56.5 158.5t-158.5 56.5q-120 0 -223 -95q-38 -32 -72 -32q-37 0 -65.5 27.5t-28.5 64.5q0 43 43 86q63 68 158 104.5t207 36.5q118 0 205 -46.5t133 -133.5q68 86 167.5 133t215.5 47zM958 573h551
q6 120 -65.5 196.5t-190.5 76.5q-115 0 -195.5 -75.5t-99.5 -197.5zM477 145q109 0 184.5 68t75.5 166v39h-258q-178 0 -178 -129q0 -66 47.5 -105t128.5 -39z" />
    <glyph glyph-name="ccedilla" unicode="&#xe7;" horiz-adv-x="1130" 
d="M954 336q40 0 68.5 -28t28.5 -68q0 -29 -19 -56q-96 -142 -268 -188q43 -72 43 -139q0 -112 -81.5 -180t-215.5 -68q-83 0 -121 16q-57 22 -57 74q0 32 23 55t55 23q12 0 35 -3t44 -3q56 0 94 25.5t38 72.5q0 52 -41 111q-208 15 -348 164.5t-140 359.5q0 144 70.5 264.5
t193 190t269.5 69.5q129 0 237 -56t168 -149q21 -33 21 -57q0 -41 -28.5 -69.5t-68.5 -28.5q-46 0 -75 34q-101 127 -252 127q-135 0 -225.5 -93t-90.5 -232q0 -142 89.5 -235t226.5 -93q146 0 252 125q30 35 75 35z" />
    <glyph glyph-name="egrave" unicode="&#xe8;" horiz-adv-x="1167" 
d="M485 1210l-137 242q-16 31 -16 57q0 46 31 78.5t75 32.5q32 0 61.5 -18t41.5 -46l110 -256q15 -30 15 -49q2 -38 -25.5 -66.5t-69.5 -29.5q-53 -3 -86 55zM610 1028q201 0 334 -132.5t133 -334.5v-10q0 -55 -33 -87t-90 -32h-643q22 -122 109 -193t219 -71q131 0 235 78
q30 20 56 20q38 0 64 -26t26 -64q0 -51 -53 -90q-145 -109 -334 -109q-233 0 -387 149.5t-154 375.5q0 146 68 267t187 190t263 69zM604 846q-108 0 -186 -67.5t-103 -178.5h547q-3 109 -74 177.5t-184 68.5z" />
    <glyph glyph-name="eacute" unicode="&#xe9;" horiz-adv-x="1167" 
d="M645 1155q-42 1 -69 29.5t-25 66.5q0 21 14 49l111 256q12 28 41 46t61 18q44 0 75.5 -32.5t31.5 -78.5q0 -24 -17 -57l-137 -242q-33 -58 -86 -55zM610 1028q201 0 334 -132.5t133 -334.5v-10q0 -55 -33 -87t-90 -32h-643q22 -122 109 -193t219 -71q131 0 235 78
q30 20 56 20q38 0 64 -26t26 -64q0 -51 -53 -90q-145 -109 -334 -109q-233 0 -387 149.5t-154 375.5q0 146 68 267t187 190t263 69zM604 846q-108 0 -186 -67.5t-103 -178.5h547q-3 109 -74 177.5t-184 68.5z" />
    <glyph glyph-name="ecircumflex" unicode="&#xea;" horiz-adv-x="1167" 
d="M379 1159q-34 0 -60 25t-26 61q0 35 24 62l209 266q34 39 82 39q49 0 80 -39l211 -266q25 -32 25 -62q0 -36 -26 -61t-60 -25q-39 0 -64 29l-166 190l-168 -190q-22 -29 -61 -29zM610 1028q201 0 334 -132.5t133 -334.5v-10q0 -55 -33 -87t-90 -32h-643q22 -122 109 -193
t219 -71q131 0 235 78q30 20 56 20q38 0 64 -26t26 -64q0 -51 -53 -90q-145 -109 -334 -109q-233 0 -387 149.5t-154 375.5q0 146 68 267t187 190t263 69zM604 846q-108 0 -186 -67.5t-103 -178.5h547q-3 109 -74 177.5t-184 68.5z" />
    <glyph glyph-name="edieresis" unicode="&#xeb;" horiz-adv-x="1167" 
d="M379 1247q-55 0 -97 40t-42 93q0 56 41 96t98 40q59 0 98 -39t39 -97q0 -54 -40 -93.5t-97 -39.5zM838 1247q-55 0 -97.5 40t-42.5 93q0 55 41.5 95.5t98.5 40.5q59 0 99 -39t40 -97q0 -54 -41 -93.5t-98 -39.5zM610 1028q201 0 334 -132.5t133 -334.5v-10q0 -55 -33 -87
t-90 -32h-643q22 -122 109 -193t219 -71q131 0 235 78q30 20 56 20q38 0 64 -26t26 -64q0 -51 -53 -90q-145 -109 -334 -109q-233 0 -387 149.5t-154 375.5q0 146 68 267t187 190t263 69zM604 846q-108 0 -186 -67.5t-103 -178.5h547q-3 109 -74 177.5t-184 68.5z" />
    <glyph glyph-name="igrave" unicode="&#xec;" horiz-adv-x="526" 
d="M233 1159q-48 10 -67 76l-70 268q-8 35 -2 60q12 44 50 67t81 12q32 -9 55.5 -34t28.5 -54l39 -276q7 -31 2 -51q-8 -36 -41.5 -57t-75.5 -11zM262 -23q-46 0 -76 32t-30 79v830q0 47 30.5 78.5t77.5 31.5q46 0 76.5 -31.5t30.5 -78.5v-830q0 -47 -31.5 -79t-77.5 -32z
" />
    <glyph glyph-name="iacute" unicode="&#xed;" horiz-adv-x="526" 
d="M297 1163q-42 -6 -74 17.5t-37 60.5q-3 22 7 51l63 271q7 31 32.5 53.5t57.5 28.5q44 7 80.5 -20t44.5 -73q4 -28 -6 -57l-94 -262q-22 -64 -74 -70zM262 -23q-46 0 -76 32t-30 79v830q0 47 30.5 78.5t77.5 31.5q46 0 76.5 -31.5t30.5 -78.5v-830q0 -47 -31.5 -79
t-77.5 -32z" />
    <glyph glyph-name="icircumflex" unicode="&#xee;" horiz-adv-x="526" 
d="M555 1307q25 -32 25 -62q0 -36 -26 -61t-60 -25q-39 0 -64 29l-166 190l-168 -190q-22 -29 -61 -29q-34 0 -60 25t-26 61q0 35 24 62l209 266q34 39 82 39q49 0 80 -39zM264 1028q46 0 76.5 -31.5t30.5 -78.5v-830q0 -47 -31.5 -79t-77.5 -32t-76 32t-30 79v830
q0 47 30.5 78.5t77.5 31.5z" />
    <glyph glyph-name="idieresis" unicode="&#xef;" horiz-adv-x="526" 
d="M59 1247q-57 0 -98 39.5t-41 93.5q0 56 40.5 96t98.5 40q57 0 97.5 -39.5t40.5 -96.5q0 -54 -40.5 -93.5t-97.5 -39.5zM469 1247q-57 0 -98 40t-41 93q0 56 41 96t98 40t97 -39.5t40 -96.5q0 -54 -40 -93.5t-97 -39.5zM262 -23q-46 0 -76 32t-30 79v830q0 47 30.5 78.5
t77.5 31.5q46 0 76.5 -31.5t30.5 -78.5v-830q0 -47 -31.5 -79t-77.5 -32z" />
    <glyph glyph-name="eth" unicode="&#xf0;" horiz-adv-x="1169" 
d="M846 963q134 -181 182.5 -286.5t48.5 -217.5q0 -207 -139.5 -344.5t-351.5 -137.5q-213 0 -353.5 134t-140.5 335q0 196 134.5 328.5t332.5 132.5q24 0 70 -4l-164 227l-229 -112q-32 -14 -54 -14q-34 0 -59 25.5t-25 60.5q0 24 13 45t34 30l215 105l-88 123
q-22 36 -22 65q0 41 30.5 71t71.5 30q50 0 86 -50l111 -147l248 121q27 16 51 16q35 0 60.5 -25.5t25.5 -60.5q0 -25 -13 -46.5t-36 -31.5l-232 -112zM584 172q120 0 197 78.5t77 198.5t-77 197t-197 77q-119 0 -196 -78t-77 -199q0 -120 76.5 -197t196.5 -77z" />
    <glyph glyph-name="ntilde" unicode="&#xf1;" horiz-adv-x="1177" 
d="M309 1202q-39 0 -63.5 27.5t-24.5 70.5q0 104 57.5 169t147.5 65q75 0 143 -49l54 -41q38 -28 53.5 -36.5t32.5 -8.5q48 0 57 61q6 35 29 55.5t55 20.5q39 0 63.5 -27.5t24.5 -70.5q0 -103 -57 -169.5t-146 -66.5q-79 0 -145 51l-55 41q-33 27 -49.5 36t-34.5 9
q-52 0 -58 -61q-6 -35 -29 -55.5t-55 -20.5zM657 1028q172 0 274.5 -108t102.5 -291v-541q0 -49 -30.5 -80t-75.5 -31q-47 0 -78 32t-31 79v512q0 104 -60.5 169t-158.5 65q-100 0 -164.5 -66.5t-64.5 -167.5v-512q0 -49 -30.5 -80t-76.5 -31t-77 32t-31 79v830
q0 47 30.5 78.5t77.5 31.5q44 0 74.5 -31.5t30.5 -78.5q113 110 288 110z" />
    <glyph glyph-name="ograve" unicode="&#xf2;" horiz-adv-x="1247" 
d="M588 1155q-53 -3 -86 55l-137 242q-17 33 -17 57q0 46 31.5 78.5t75.5 32.5q32 0 61 -18t41 -46l111 -256q14 -28 14 -49q2 -38 -25 -66.5t-69 -29.5zM623 1028q147 0 270 -69.5t193.5 -190t70.5 -264.5q0 -108 -41.5 -205.5t-113 -168t-170.5 -112t-209 -41.5
q-146 1 -268 71t-192.5 191t-70.5 265q0 145 70.5 265.5t192.5 189.5t268 69zM625 831q-135 -2 -224.5 -95t-89.5 -234q0 -139 89 -232.5t223 -93.5q133 0 223 94t90 232q0 140 -89 233.5t-222 95.5z" />
    <glyph glyph-name="oacute" unicode="&#xf3;" horiz-adv-x="1247" 
d="M662 1155q-42 1 -69.5 29.5t-25.5 66.5q0 19 15 49l110 256q12 28 41.5 46t61.5 18q44 0 75 -32.5t31 -78.5q0 -26 -16 -57l-137 -242q-33 -58 -86 -55zM623 1028q147 0 270 -69.5t193.5 -190t70.5 -264.5q0 -108 -41.5 -205.5t-113 -168t-170.5 -112t-209 -41.5
q-146 1 -268 71t-192.5 191t-70.5 265q0 145 70.5 265.5t192.5 189.5t268 69zM625 831q-135 -2 -224.5 -95t-89.5 -234q0 -139 89 -232.5t223 -93.5q133 0 223 94t90 232q0 140 -89 233.5t-222 95.5z" />
    <glyph glyph-name="ocircumflex" unicode="&#xf4;" horiz-adv-x="1247" 
d="M395 1159q-34 0 -60 25t-26 61q0 34 25 62l209 266q34 39 82 39q49 0 80 -39l210 -266q25 -32 25 -62q0 -36 -26 -61t-60 -25q-38 0 -63 29l-166 190l-168 -190q-22 -29 -62 -29zM623 1028q147 0 270 -69.5t193.5 -190t70.5 -264.5q0 -108 -41.5 -205.5t-113 -168
t-170.5 -112t-209 -41.5q-146 1 -268 71t-192.5 191t-70.5 265q0 145 70.5 265.5t192.5 189.5t268 69zM623 176q133 0 223 94t90 232q0 140 -89 233.5t-222 95.5q-135 -2 -224.5 -95t-89.5 -234q0 -139 89 -232.5t223 -93.5z" />
    <glyph glyph-name="otilde" unicode="&#xf5;" horiz-adv-x="1247" 
d="M780 1202q-79 0 -145 51l-55 41q-33 27 -49.5 36t-34.5 9q-52 0 -58 -61q-6 -35 -29 -55.5t-55 -20.5q-39 0 -63.5 27.5t-24.5 70.5q0 104 57.5 169t147.5 65q75 0 143 -49l54 -41q38 -28 53.5 -36.5t32.5 -8.5q48 0 57 61q6 35 29 55.5t55 20.5q39 0 63.5 -27.5
t24.5 -70.5q0 -103 -57 -169.5t-146 -66.5zM623 1028q147 0 270 -69.5t193.5 -190t70.5 -264.5q0 -108 -41.5 -205.5t-113 -168t-170.5 -112t-209 -41.5q-146 1 -268 71t-192.5 191t-70.5 265q0 145 70.5 265.5t192.5 189.5t268 69zM625 831q-135 -2 -224.5 -95t-89.5 -234
q0 -139 89 -232.5t223 -93.5q133 0 223 94t90 232q0 140 -89 233.5t-222 95.5z" />
    <glyph glyph-name="odieresis" unicode="&#xf6;" horiz-adv-x="1247" 
d="M395 1516q59 0 98 -39t39 -97q0 -54 -40 -93.5t-97 -39.5q-55 0 -97 40t-42 93q0 56 41 96t98 40zM854 1516q59 0 99 -39t40 -97q0 -54 -41 -93.5t-98 -39.5q-55 0 -97 40t-42 93q0 56 41 96t98 40zM623 1028q147 0 270 -69.5t193.5 -190t70.5 -264.5
q0 -108 -41.5 -205.5t-113 -168t-170.5 -112t-209 -41.5q-146 1 -268 71t-192.5 191t-70.5 265q0 145 70.5 265.5t192.5 189.5t268 69zM625 831q-135 -2 -224.5 -95t-89.5 -234q0 -139 89 -232.5t223 -93.5q133 0 223 94t90 232q0 140 -89 233.5t-222 95.5z" />
    <glyph glyph-name="divide" unicode="&#xf7;" 
d="M569 1155q59 0 99.5 -38t40.5 -95q0 -56 -41 -94.5t-99 -38.5q-57 0 -98 39t-41 94q0 56 40.5 94.5t98.5 38.5zM958 743q40 0 67.5 -27t27.5 -65q0 -40 -27.5 -67t-67.5 -27h-772q-40 0 -67 27t-27 67q0 38 27 65t67 27h772zM569 408q59 0 99.5 -38.5t40.5 -95.5
t-40.5 -95t-99.5 -38q-58 0 -98.5 38.5t-40.5 94.5q0 57 41 95.5t98 38.5z" />
    <glyph glyph-name="oslash" unicode="&#xf8;" horiz-adv-x="1263" 
d="M1145 885l-78 -78q96 -135 96 -305q0 -143 -71 -264t-194 -191t-269 -70q-165 0 -301 93l-78 -80q-38 -35 -74 -35q-38 0 -65 28t-27 66q0 40 35 72l76 76q-97 137 -97 305q0 145 71 266t193.5 190.5t268.5 69.5q164 0 303 -92l78 78q35 35 71 35q38 0 66.5 -28t28.5 -65
q0 -38 -33 -71zM631 842q-143 0 -235.5 -95.5t-92.5 -244.5q0 -101 43 -174l463 465q-81 49 -178 49zM629 160q141 0 235 97.5t94 244.5q0 98 -40 174l-467 -465q79 -51 178 -51z" />
    <glyph glyph-name="ugrave" unicode="&#xf9;" horiz-adv-x="1167" 
d="M547 1155q-53 -3 -86 55l-137 242q-17 33 -17 57q0 46 31.5 78.5t75.5 32.5q32 0 61 -18t41 -46l111 -256q14 -28 14 -49q2 -38 -25 -66.5t-69 -29.5zM586 -23q-195 0 -318 124t-123 321v496q0 47 30.5 78.5t76.5 31.5t76 -31.5t30 -78.5v-512q0 -100 64 -165t164 -65
q97 0 159 65t62 165v512q0 47 30.5 78.5t77.5 31.5q46 0 76.5 -31.5t30.5 -78.5v-496q0 -196 -122 -320.5t-314 -124.5z" />
    <glyph glyph-name="uacute" unicode="&#xfa;" horiz-adv-x="1167" 
d="M621 1155q-42 1 -69.5 29.5t-25.5 66.5q0 19 15 49l110 256q12 28 41.5 46t61.5 18q44 0 75 -32.5t31 -78.5q0 -26 -16 -57l-137 -242q-33 -58 -86 -55zM586 -23q-195 0 -318 124t-123 321v496q0 47 30.5 78.5t76.5 31.5t76 -31.5t30 -78.5v-512q0 -100 64 -165t164 -65
q97 0 159 65t62 165v512q0 47 30.5 78.5t77.5 31.5q46 0 76.5 -31.5t30.5 -78.5v-496q0 -196 -122 -320.5t-314 -124.5z" />
    <glyph glyph-name="ucircumflex" unicode="&#xfb;" horiz-adv-x="1167" 
d="M354 1159q-34 0 -60 25t-26 61q0 34 25 62l209 266q34 39 82 39q49 0 80 -39l210 -266q25 -32 25 -62q0 -36 -26 -61t-60 -25q-38 0 -63 29l-166 190l-168 -190q-22 -29 -62 -29zM915 1028q46 0 76.5 -31.5t30.5 -78.5v-496q0 -196 -122 -320.5t-314 -124.5
q-195 0 -318 124t-123 321v496q0 47 30.5 78.5t76.5 31.5t76 -31.5t30 -78.5v-512q0 -100 64 -165t164 -65q97 0 159 65t62 165v512q0 47 30.5 78.5t77.5 31.5z" />
    <glyph glyph-name="udieresis" unicode="&#xfc;" horiz-adv-x="1167" 
d="M354 1516q59 0 98.5 -39t39.5 -97q0 -54 -40.5 -93.5t-97.5 -39.5q-55 0 -97 40t-42 93q0 56 41 96t98 40zM813 1516q59 0 99 -39t40 -97q0 -54 -41 -93.5t-98 -39.5q-55 0 -97 40t-42 93q0 56 41 96t98 40zM586 -23q-195 0 -318 124t-123 321v496q0 47 30.5 78.5
t76.5 31.5t76 -31.5t30 -78.5v-512q0 -100 64 -165t164 -65q97 0 159 65t62 165v512q0 47 30.5 78.5t77.5 31.5q46 0 76.5 -31.5t30.5 -78.5v-496q0 -196 -122 -320.5t-314 -124.5z" />
    <glyph glyph-name="yacute" unicode="&#xfd;" horiz-adv-x="1124" 
d="M594 1155q-42 1 -69 29.5t-25 66.5q0 21 14 49l111 256q12 28 41 46t61 18q44 0 75.5 -32.5t31.5 -78.5q0 -24 -17 -57l-137 -242q-33 -58 -86 -55zM971 1028q42 0 73 -31t31 -73q0 -30 -10 -50l-463 -968q-75 -157 -167 -227t-224 -70q-55 0 -96 12q-30 9 -48 34t-18 56
q0 38 29 66t69 28q9 0 22 -1t19 -1q71 0 122 35.5t87 112.5l45 96l-372 825q-13 35 -13 52q0 41 32 72.5t75 31.5q33 0 59.5 -17t38.5 -46l301 -676l309 676q12 28 39.5 45.5t59.5 17.5z" />
    <glyph glyph-name="thorn" unicode="&#xfe;" horiz-adv-x="1292" 
d="M707 1028q213 0 353 -149t140 -375q0 -228 -140 -377.5t-353 -149.5q-104 0 -191 38.5t-145 107.5v-406q0 -47 -30.5 -78.5t-76.5 -31.5t-77 31.5t-31 78.5v1731q0 48 30.5 79.5t77.5 31.5q46 0 76.5 -31t30.5 -80v-565q56 68 143.5 106.5t192.5 38.5zM672 174
q133 0 220 93.5t87 234.5q0 143 -87 236t-220 93q-135 0 -219 -90.5t-84 -236.5q0 -148 83.5 -239t219.5 -91z" />
    <glyph glyph-name="ydieresis" unicode="&#xff;" horiz-adv-x="1124" 
d="M328 1247q-55 0 -97.5 40t-42.5 93q0 55 41.5 95.5t98.5 40.5q59 0 98 -39t39 -97q0 -54 -40 -93.5t-97 -39.5zM786 1247q-55 0 -97 40t-42 93q0 56 41 96t98 40q59 0 99.5 -39t40.5 -97q0 -54 -41.5 -93.5t-98.5 -39.5zM971 1028q42 0 73 -31t31 -73q0 -30 -10 -50
l-463 -968q-75 -157 -167 -227t-224 -70q-55 0 -96 12q-30 9 -48 34t-18 56q0 38 29 66t69 28q9 0 22 -1t19 -1q71 0 122 35.5t87 112.5l45 96l-372 825q-13 35 -13 52q0 41 32 72.5t75 31.5q33 0 59.5 -17t38.5 -46l301 -676l309 676q12 28 39.5 45.5t59.5 17.5z" />
    <glyph glyph-name="Amacron" unicode="&#x100;" horiz-adv-x="1357" 
d="M440 1563q-38 0 -64 25.5t-26 62.5t26 61.5t64 24.5h478q37 0 62.5 -24.5t25.5 -61.5t-25.5 -62.5t-62.5 -25.5h-478zM1272 143q16 -40 16 -61q0 -43 -31 -74t-75 -31q-72 0 -103 76l-84 191h-637l-79 -191q-28 -76 -103 -76q-44 0 -75 31t-31 74q0 28 16 61l489 1157
q30 74 103 74q74 0 104 -74zM678 1057l-244 -629h484z" />
    <glyph glyph-name="amacron" unicode="&#x101;" horiz-adv-x="1097" 
d="M326 1294q-38 0 -64 24.5t-26 61.5t26 61.5t64 24.5h434q39 0 64.5 -24.5t25.5 -61.5t-25.5 -61.5t-64.5 -24.5h-434zM541 1028q195 0 304 -111t109 -309v-522q0 -47 -30 -78t-76 -31t-76.5 31.5t-30.5 77.5v12q-115 -121 -309 -121q-157 0 -253.5 80.5t-96.5 210.5
q0 132 100.5 209.5t270.5 77.5h284v66q0 103 -56 159t-159 56q-128 0 -223 -95q-38 -32 -74 -32q-38 0 -66 27t-28 63q0 45 43 88q64 67 160.5 104t206.5 37zM477 143q109 0 184.5 69t75.5 169v18h-258q-178 0 -178 -123q0 -61 48 -97t128 -36z" />
    <glyph glyph-name="Abreve" unicode="&#x102;" horiz-adv-x="1357" 
d="M678 1493q-128 0 -227 82t-99 190q0 37 24.5 62.5t61.5 25.5q58 0 84 -71q19 -60 59.5 -92.5t96.5 -32.5q58 0 99.5 33t58.5 92q24 71 82 71q38 0 62 -25.5t24 -62.5q0 -107 -98.5 -189.5t-227.5 -82.5zM1272 143q16 -40 16 -61q0 -43 -31 -74t-75 -31q-72 0 -103 76
l-84 191h-637l-79 -191q-28 -76 -103 -76q-44 0 -75 31t-31 74q0 28 16 61l489 1157q30 74 103 74q74 0 104 -74zM678 1057l-244 -629h484z" />
    <glyph glyph-name="abreve" unicode="&#x103;" horiz-adv-x="1097" 
d="M543 1182q-132 0 -231 90t-99 207q0 38 24.5 65t61.5 27q70 0 86 -76q9 -63 53.5 -103t104.5 -40q61 0 104.5 40t54.5 103q8 35 30 55.5t54 20.5q37 0 62.5 -27t25.5 -65q0 -121 -97.5 -209t-233.5 -88zM541 1028q195 0 304 -111t109 -309v-522q0 -47 -30 -78t-76 -31
t-76.5 31.5t-30.5 77.5v12q-115 -121 -309 -121q-157 0 -253.5 80.5t-96.5 210.5q0 132 100.5 209.5t270.5 77.5h284v66q0 103 -56 159t-159 56q-128 0 -223 -95q-38 -32 -74 -32q-38 0 -66 27t-28 63q0 45 43 88q64 67 160.5 104t206.5 37zM477 143q109 0 184.5 69
t75.5 169v18h-258q-178 0 -178 -123q0 -61 48 -97t128 -36z" />
    <glyph glyph-name="Aogonek" unicode="&#x104;" horiz-adv-x="1357" 
d="M1249 -225q31 0 50.5 -20.5t19.5 -53.5q0 -60 -66 -78q-41 -14 -116 -14q-105 0 -168.5 54t-63.5 147q0 72 40 125t130 126l-80 183h-637l-79 -191q-28 -76 -103 -76q-44 0 -75 31t-31 74q0 28 16 61l489 1157q30 74 103 74q74 0 104 -74l490 -1157q16 -40 16 -61
q0 -22 -6 -37q-2 -6 -10 -18q-9 -17 -29 -31q-2 0 -6 -4q-38 -29 -60.5 -48t-45.5 -50.5t-23 -57.5q0 -28 23 -45.5t67 -17.5q11 0 28.5 1t22.5 1zM678 1057l-244 -629h484z" />
    <glyph glyph-name="aogonek" unicode="&#x105;" horiz-adv-x="1097" 
d="M918 -225q31 0 50 -20t19 -54q0 -60 -65 -78q-41 -14 -117 -14q-105 0 -168.5 54t-63.5 147q0 72 40 125t130 126q-2 8 -2 25v12q-115 -121 -309 -121q-157 0 -253.5 80.5t-96.5 210.5q0 132 100.5 209.5t270.5 77.5h284v66q0 103 -56 159t-159 56q-128 0 -223 -95
q-38 -32 -74 -32q-38 0 -66 27t-28 63q0 45 43 88q64 67 160.5 104t206.5 37q195 0 304 -111t109 -309v-522v-8v-4q0 -46 -49 -82q-38 -29 -60.5 -48t-45.5 -50.5t-23 -57.5q0 -28 23 -45.5t67 -17.5q11 0 29 1t23 1zM477 143q109 0 184.5 69t75.5 169v18h-258
q-178 0 -178 -123q0 -61 48 -97t128 -36z" />
    <glyph glyph-name="Cacute" unicode="&#x106;" horiz-adv-x="1468" 
d="M829 1487q-56 3 -79.5 51.5t0.5 89.5l118 230q34 61 105 57q61 -3 89 -59.5t-9 -112.5l-138 -209q-34 -47 -86 -47zM799 -23q-197 0 -360 92t-257 253t-94 354t94 353.5t257 252.5t360 92q156 0 294.5 -62t231.5 -173q35 -46 35 -86t-29.5 -69.5t-70.5 -29.5
q-49 0 -86 43q-147 179 -373 179q-211 0 -349.5 -142.5t-138.5 -357.5t138.5 -357.5t349.5 -142.5q221 0 370 178q37 43 89 43q41 0 70.5 -29t29.5 -69q0 -38 -37 -86q-90 -111 -228 -173.5t-296 -62.5z" />
    <glyph glyph-name="cacute" unicode="&#x107;" horiz-adv-x="1130" 
d="M659 1155q-42 1 -69 29.5t-25 66.5q0 19 15 49l110 256q12 28 41.5 46t61.5 18q44 0 75 -32.5t31 -78.5q0 -26 -16 -57l-138 -242q-33 -58 -86 -55zM625 -23q-224 0 -378.5 153t-154.5 374q0 144 70.5 264.5t193 190t269.5 69.5q129 0 237 -56t168 -149q21 -33 21 -57
q0 -41 -28.5 -69.5t-68.5 -28.5q-46 0 -75 34q-101 127 -252 127q-135 0 -225.5 -93t-90.5 -232q0 -142 89.5 -235t226.5 -93q146 0 252 125q30 35 75 35q40 0 68.5 -28t28.5 -68q0 -29 -19 -56q-65 -96 -170 -151.5t-237 -55.5z" />
    <glyph glyph-name="Ccircumflex" unicode="&#x108;" horiz-adv-x="1468" 
d="M543 1483q-34 0 -57 23t-23 57q0 19 8.5 33t32.5 38l223 221q31 31 70 31q38 0 69 -31l224 -221q23 -23 31.5 -37.5t8.5 -33.5q0 -34 -22.5 -57t-56.5 -23q-31 0 -64 26l-190 179l-191 -179q-33 -26 -63 -26zM1260 397q41 0 70.5 -29t29.5 -69q0 -38 -37 -86
q-90 -111 -228 -173.5t-296 -62.5q-197 0 -360 92t-257 253t-94 354t94 353.5t257 252.5t360 92q156 0 294.5 -62t231.5 -173q35 -46 35 -86t-29.5 -69.5t-70.5 -29.5q-49 0 -86 43q-147 179 -373 179q-211 0 -349.5 -142.5t-138.5 -357.5t138.5 -357.5t349.5 -142.5
q221 0 370 178q37 43 89 43z" />
    <glyph glyph-name="ccircumflex" unicode="&#x109;" horiz-adv-x="1130" 
d="M393 1159q-34 0 -60 25t-26 61q0 34 25 62l209 266q34 39 82 39t79 -39l211 -266q25 -32 25 -62q0 -36 -26 -61t-60 -25q-39 0 -64 29l-165 190l-168 -190q-22 -29 -62 -29zM954 336q40 0 68.5 -28t28.5 -68q0 -29 -19 -56q-65 -96 -170 -151.5t-237 -55.5
q-224 0 -378.5 153t-154.5 374q0 144 70.5 264.5t193 190t269.5 69.5q129 0 237 -56t168 -149q21 -33 21 -57q0 -41 -28.5 -69.5t-68.5 -28.5q-46 0 -75 34q-101 127 -252 127q-135 0 -225.5 -93t-90.5 -232q0 -142 89.5 -235t226.5 -93q146 0 252 125q30 35 75 35z" />
    <glyph glyph-name="Cdotaccent" unicode="&#x10a;" horiz-adv-x="1468" 
d="M799 1808q59 0 101 -40.5t42 -98.5t-42 -98.5t-101 -40.5q-60 0 -102 40.5t-42 98.5t42 98.5t102 40.5zM799 -23q-197 0 -360 92t-257 253t-94 354t94 353.5t257 252.5t360 92q156 0 294.5 -62t231.5 -173q35 -46 35 -86t-29.5 -69.5t-70.5 -29.5q-49 0 -86 43
q-147 179 -373 179q-211 0 -349.5 -142.5t-138.5 -357.5t138.5 -357.5t349.5 -142.5q221 0 370 178q37 43 89 43q41 0 70.5 -29t29.5 -69q0 -38 -37 -86q-90 -111 -228 -173.5t-296 -62.5z" />
    <glyph glyph-name="cdotaccent" unicode="&#x10b;" horiz-adv-x="1130" 
d="M623 1520q59 0 101 -41t42 -99t-42 -98.5t-101 -40.5q-60 0 -102 40.5t-42 98.5t42 99t102 41zM625 -23q-224 0 -378.5 153t-154.5 374q0 144 70.5 264.5t193 190t269.5 69.5q129 0 237 -56t168 -149q21 -33 21 -57q0 -41 -28.5 -69.5t-68.5 -28.5q-46 0 -75 34
q-101 127 -252 127q-135 0 -225.5 -93t-90.5 -232q0 -142 89.5 -235t226.5 -93q146 0 252 125q30 35 75 35q40 0 68.5 -28t28.5 -68q0 -29 -19 -56q-65 -96 -170 -151.5t-237 -55.5z" />
    <glyph glyph-name="Ccaron" unicode="&#x10c;" horiz-adv-x="1468" 
d="M729 1513l-223 222q-24 24 -32.5 38t-8.5 33q0 34 23 57t57 23q30 0 63 -26l191 -179l190 179q33 26 64 26q34 0 57 -23t23 -57q0 -19 -8.5 -33t-32.5 -38l-224 -222q-30 -30 -69 -30q-40 0 -70 30zM1260 397q41 0 70.5 -29t29.5 -69q0 -38 -37 -86q-90 -111 -228 -173.5
t-296 -62.5q-197 0 -360 92t-257 253t-94 354t94 353.5t257 252.5t360 92q156 0 294.5 -62t231.5 -173q35 -46 35 -86t-29.5 -69.5t-70.5 -29.5q-49 0 -86 43q-147 179 -373 179q-211 0 -349.5 -142.5t-138.5 -357.5t138.5 -357.5t349.5 -142.5q221 0 370 178q37 43 89 43z
" />
    <glyph glyph-name="ccaron" unicode="&#x10d;" horiz-adv-x="1130" 
d="M541 1198l-209 266q-25 28 -25 62q0 36 26 61t60 25q40 0 62 -29l168 -190l165 190q25 29 64 29q34 0 60 -25t26 -61q0 -30 -25 -62l-211 -266q-31 -39 -79 -39t-82 39zM954 336q40 0 68.5 -28t28.5 -68q0 -29 -19 -56q-65 -96 -170 -151.5t-237 -55.5q-224 0 -378.5 153
t-154.5 374q0 144 70.5 264.5t193 190t269.5 69.5q129 0 237 -56t168 -149q21 -33 21 -57q0 -41 -28.5 -69.5t-68.5 -28.5q-46 0 -75 34q-101 127 -252 127q-135 0 -225.5 -93t-90.5 -232q0 -142 89.5 -235t226.5 -93q146 0 252 125q30 35 75 35z" />
    <glyph glyph-name="Dcaron" unicode="&#x10e;" horiz-adv-x="1417" 
d="M526 1507l-223 222q-24 24 -32.5 38t-8.5 33q0 34 23 57t57 23q30 0 64 -27l190 -178l190 178q34 27 64 27q34 0 57 -23t23 -57q0 -19 -8.5 -33t-32.5 -38l-223 -222q-30 -30 -70 -30t-70 30zM592 1352q332 0 534.5 -185t202.5 -489q0 -199 -93 -353.5t-260.5 -239.5
t-383.5 -85h-309q-49 0 -81 32t-32 81v1126q0 49 32 81t81 32h309zM590 195q232 0 373 132.5t141 350.5q0 220 -139 348.5t-375 128.5h-203v-960h203z" />
    <glyph glyph-name="dcaron" unicode="&#x10f;" horiz-adv-x="1583" 
d="M1460 1577q52 0 87 -42t16 -105l-66 -265q-8 -27 -30.5 -49t-61.5 -22q-43 0 -72 33.5t-22 84.5l39 265q5 41 36 70.5t74 29.5zM1028 1559q46 0 77.5 -31t31.5 -80v-1362q0 -47 -31 -78t-76 -31t-75.5 31.5t-30.5 77.5v41q-56 -71 -144 -110.5t-196 -39.5
q-212 0 -352 149t-140 376t140 376.5t352 149.5q104 0 191 -38t145 -107v565q0 47 31 79t77 32zM621 174q135 0 219 91t84 237t-84 237.5t-219 91.5q-134 0 -222 -93t-88 -234q0 -143 87.5 -236.5t222.5 -93.5z" />
    <glyph glyph-name="Dcroat" unicode="&#x110;" horiz-adv-x="1417" 
d="M592 1352q332 0 534.5 -185t202.5 -489q0 -199 -93 -353.5t-260.5 -239.5t-383.5 -85h-309q-49 0 -81 32t-32 81v430h-94q-41 0 -70 27t-29 65t29 65t70 27h94v512q0 49 32 81t81 32h309zM590 195q232 0 373 132.5t141 350.5q0 220 -139 348.5t-375 128.5h-203v-428h158
q41 0 69.5 -27t28.5 -65t-28.5 -65t-69.5 -27h-158v-348h203z" />
    <glyph glyph-name="dcroat" unicode="&#x111;" horiz-adv-x="1300" 
d="M1221 1337q38 0 64 -25t26 -63t-26 -63t-64 -25h-86v-1073q0 -49 -30.5 -80t-76.5 -31t-76 32t-30 79v41q-58 -71 -148.5 -111.5t-198.5 -40.5q-208 0 -346.5 143t-138.5 359q0 217 138 361.5t347 144.5q106 0 196.5 -41t148.5 -113v330h-355q-38 0 -64 25t-26 63t26 63
t64 25h355v111q0 48 30.5 79.5t77.5 31.5q45 0 76 -31t31 -80v-111h86zM618 164q137 0 220.5 86.5t83.5 228.5q0 143 -84 230.5t-220 87.5q-134 0 -220.5 -89.5t-86.5 -228.5q0 -138 86 -226.5t221 -88.5z" />
    <glyph glyph-name="Emacron" unicode="&#x112;" horiz-adv-x="1165" 
d="M852 1737q37 0 62.5 -24.5t25.5 -61.5t-25.5 -62.5t-62.5 -25.5h-477q-38 0 -64 25.5t-26 62.5t26 61.5t64 24.5h477zM274 0q-44 0 -74 30t-30 74v1143q0 44 30 74.5t74 30.5h695q43 0 71.5 -29t28.5 -70t-28.5 -68.5t-71.5 -27.5h-582v-346h420q41 0 68.5 -27t27.5 -67
t-27.5 -67t-68.5 -27h-420v-428h606q43 0 72 -28t29 -69t-29 -69.5t-72 -28.5h-719z" />
    <glyph glyph-name="emacron" unicode="&#x113;" horiz-adv-x="1167" 
d="M391 1294q-38 0 -64 24.5t-26 61.5t26 61.5t64 24.5h434q39 0 64.5 -24.5t25.5 -61.5t-25.5 -61.5t-64.5 -24.5h-434zM610 1028q201 0 334 -132.5t133 -334.5v-10q0 -55 -33 -87t-90 -32h-643q22 -122 109 -193t219 -71q131 0 235 78q30 20 56 20q38 0 64 -26t26 -64
q0 -51 -53 -90q-145 -109 -334 -109q-233 0 -387 149.5t-154 375.5q0 146 68 267t187 190t263 69zM604 846q-108 0 -186 -67.5t-103 -178.5h547q-3 109 -74 177.5t-184 68.5z" />
    <glyph glyph-name="Ebreve" unicode="&#x114;" horiz-adv-x="1165" 
d="M612 1493q-128 0 -226.5 82t-98.5 190q0 37 24.5 62.5t61.5 25.5q58 0 84 -71q19 -60 59 -92.5t96 -32.5q58 0 99.5 33t58.5 92q24 71 82 71q38 0 62 -25.5t24 -62.5q0 -107 -98.5 -189.5t-227.5 -82.5zM274 0q-44 0 -74 30t-30 74v1143q0 44 30 74.5t74 30.5h695
q43 0 71.5 -29t28.5 -70t-28.5 -68.5t-71.5 -27.5h-582v-346h420q41 0 68.5 -27t27.5 -67t-27.5 -67t-68.5 -27h-420v-428h606q43 0 72 -28t29 -69t-29 -69.5t-72 -28.5h-719z" />
    <glyph glyph-name="ebreve" unicode="&#x115;" horiz-adv-x="1167" 
d="M608 1182q-131 0 -230 90t-99 207q0 38 24.5 65t61.5 27q70 0 86 -76q9 -63 53 -103t104 -40q61 0 105 40t55 103q8 35 30 55.5t54 20.5q37 0 62.5 -27t25.5 -65q0 -120 -98 -208.5t-234 -88.5zM610 1028q201 0 334 -132.5t133 -334.5v-10q0 -55 -33 -87t-90 -32h-643
q22 -122 109 -193t219 -71q131 0 235 78q30 20 56 20q38 0 64 -26t26 -64q0 -51 -53 -90q-145 -109 -334 -109q-233 0 -387 149.5t-154 375.5q0 146 68 267t187 190t263 69zM604 846q-108 0 -186 -67.5t-103 -178.5h547q-3 109 -74 177.5t-184 68.5z" />
    <glyph glyph-name="Edotaccent" unicode="&#x116;" horiz-adv-x="1165" 
d="M612 1802q59 0 101.5 -40.5t42.5 -98.5t-42.5 -98.5t-101.5 -40.5q-60 0 -101.5 40.5t-41.5 98.5t41.5 98.5t101.5 40.5zM274 0q-44 0 -74 30t-30 74v1143q0 44 30 74.5t74 30.5h695q43 0 71.5 -29t28.5 -70t-28.5 -68.5t-71.5 -27.5h-582v-346h420q41 0 68.5 -27
t27.5 -67t-27.5 -67t-68.5 -27h-420v-428h606q43 0 72 -28t29 -69t-29 -69.5t-72 -28.5h-719z" />
    <glyph glyph-name="edotaccent" unicode="&#x117;" horiz-adv-x="1167" 
d="M608 1241q-60 0 -101.5 40.5t-41.5 98.5q0 59 41.5 99.5t101.5 40.5q59 0 101.5 -41t42.5 -99t-42.5 -98.5t-101.5 -40.5zM610 1028q201 0 334 -132.5t133 -334.5v-10q0 -55 -33 -87t-90 -32h-643q22 -122 109 -193t219 -71q131 0 235 78q30 20 56 20q38 0 64 -26t26 -64
q0 -51 -53 -90q-145 -109 -334 -109q-233 0 -387 149.5t-154 375.5q0 146 68 267t187 190t263 69zM604 846q-108 0 -186 -67.5t-103 -178.5h547q-3 109 -74 177.5t-184 68.5z" />
    <glyph glyph-name="Eogonek" unicode="&#x118;" horiz-adv-x="1165" 
d="M1024 -225q29 0 49.5 -20.5t20.5 -51.5q0 -62 -66 -80q-41 -14 -117 -14q-104 0 -167.5 52t-63.5 138q0 101 111 201h-517q-44 0 -74 30t-30 74v1143q0 44 30 74.5t74 30.5h695q43 0 71.5 -29t28.5 -70t-28.5 -68.5t-71.5 -27.5h-582v-346h420q41 0 68.5 -27t27.5 -67
t-27.5 -67t-68.5 -27h-420v-428h606q43 0 72 -28t29 -69q0 -21 -11 -43q-6 -17 -24 -32l-86 -68q-53 -42 -71.5 -67t-18.5 -52q0 -29 24.5 -46t65.5 -17q9 0 27 1t24 1z" />
    <glyph glyph-name="eogonek" unicode="&#x119;" horiz-adv-x="1167" 
d="M610 1028q201 0 334 -132.5t133 -334.5v-10q0 -55 -33 -87t-90 -32h-643q22 -122 109 -193t219 -71q131 0 235 78q30 20 56 20q38 0 64 -26t26 -64q0 -51 -53 -90q-6 -3 -11 -8q-6 -6 -10 -8l-72 -52q-39 -26 -60.5 -41.5t-48.5 -40t-39.5 -48t-12.5 -48.5
q0 -32 24.5 -50.5t65.5 -18.5q9 0 27 2t22 2q31 0 50.5 -20.5t19.5 -51.5q0 -62 -64 -80q-43 -14 -117 -14q-106 0 -169.5 53t-63.5 145q0 85 82 173q-217 14 -357.5 160.5t-140.5 361.5q0 146 68 267t187 190t263 69zM604 846q-108 0 -186 -67.5t-103 -178.5h547
q-3 109 -74 177.5t-184 68.5z" />
    <glyph glyph-name="Ecaron" unicode="&#x11a;" horiz-adv-x="1165" 
d="M543 1507l-224 222q-23 23 -31.5 37.5t-8.5 33.5q0 34 22.5 57t56.5 23q30 0 64 -27l190 -178l191 178q34 27 63 27q34 0 57 -23t23 -57q0 -19 -8.5 -33t-32.5 -38l-223 -222q-30 -30 -70 -30q-39 0 -69 30zM993 195q43 0 72 -28t29 -69t-29 -69.5t-72 -28.5h-719
q-44 0 -74 30t-30 74v1143q0 44 30 74.5t74 30.5h695q43 0 71.5 -29t28.5 -70t-28.5 -68.5t-71.5 -27.5h-582v-346h420q41 0 68.5 -27t27.5 -67t-27.5 -67t-68.5 -27h-420v-428h606z" />
    <glyph glyph-name="ecaron" unicode="&#x11b;" horiz-adv-x="1167" 
d="M526 1198l-209 266q-24 27 -24 62q0 36 26 61t60 25q39 0 61 -29l168 -190l166 190q25 29 64 29q34 0 60 -25t26 -61q0 -30 -25 -62l-211 -266q-31 -39 -80 -39q-48 0 -82 39zM610 1028q201 0 334 -132.5t133 -334.5v-10q0 -55 -33 -87t-90 -32h-643q22 -122 109 -193
t219 -71q131 0 235 78q30 20 56 20q38 0 64 -26t26 -64q0 -51 -53 -90q-145 -109 -334 -109q-233 0 -387 149.5t-154 375.5q0 146 68 267t187 190t263 69zM604 846q-108 0 -186 -67.5t-103 -178.5h547q-3 109 -74 177.5t-184 68.5z" />
    <glyph glyph-name="Gcircumflex" unicode="&#x11c;" horiz-adv-x="1527" 
d="M545 1477q-34 0 -57 22.5t-23 56.5q0 19 9 34t32 38l223 221q31 31 70 31q38 0 69 -31l224 -221q23 -23 32 -38t9 -34q0 -34 -23 -56.5t-57 -22.5q-31 0 -64 26l-190 178l-191 -178q-33 -26 -63 -26zM1321 715q48 0 79.5 -32t31.5 -81v-196q0 -78 -37 -134
q-94 -135 -255 -215t-339 -80q-148 0 -280 54t-227 147t-150.5 222.5t-55.5 275.5q0 194 94 354.5t257.5 252t361.5 91.5q149 0 286 -60t222 -161q51 -54 51 -100q0 -39 -29 -69t-71 -30q-48 0 -95 52q-82 88 -169.5 129t-196.5 41q-212 0 -349 -140.5t-137 -357.5
q0 -221 140 -363.5t358 -142.5q126 0 232.5 51.5t170.5 143.5v155h-321q-45 0 -76 28t-31 68t31 68.5t76 28.5h428z" />
    <glyph glyph-name="gcircumflex" unicode="&#x11d;" horiz-adv-x="1298" 
d="M406 1159q-35 0 -61 25t-26 61q0 34 25 62l209 266q34 39 82 39q49 0 80 -39l211 -266q24 -31 24 -62q0 -36 -26 -61t-60 -25q-38 0 -63 29l-166 190l-168 -190q-22 -29 -61 -29zM1038 1028q44 0 74.5 -31.5t30.5 -78.5v-814q0 -231 -134.5 -363t-369.5 -132
q-254 0 -436 149q-41 35 -41 78q0 41 28.5 69.5t69.5 28.5q36 0 62 -20q146 -109 305 -109q143 0 222 75.5t79 211.5v72q-122 -144 -340 -144q-213 0 -351.5 142.5t-138.5 361.5t138.5 361.5t351.5 142.5q109 0 197.5 -39t144.5 -110v39q0 47 31 78.5t77 31.5zM627 209
q136 0 219.5 87t83.5 230q0 140 -82.5 225t-220.5 85q-134 0 -221 -88t-87 -224q0 -138 87 -226.5t221 -88.5z" />
    <glyph glyph-name="Gbreve" unicode="&#x11e;" horiz-adv-x="1527" 
d="M801 1493q-128 0 -227 82t-99 190q0 37 24.5 62.5t61.5 25.5q58 0 84 -71q19 -60 59.5 -92.5t96.5 -32.5q58 0 99 33t58 92q24 71 82 71q38 0 62 -25.5t24 -62.5q0 -107 -98 -189.5t-227 -82.5zM801 -23q-148 0 -280 54t-227 147t-150.5 222.5t-55.5 275.5
q0 194 94 354.5t257.5 252t361.5 91.5q149 0 286 -60t222 -161q51 -54 51 -100q0 -39 -29 -69t-71 -30q-48 0 -95 52q-82 88 -169.5 129t-196.5 41q-212 0 -349 -140.5t-137 -357.5q0 -221 140 -363.5t358 -142.5q126 0 232.5 51.5t170.5 143.5v155h-321q-45 0 -76 28
t-31 68t31 68.5t76 28.5h428q48 0 79.5 -32t31.5 -81v-196q0 -78 -37 -134q-94 -135 -255 -215t-339 -80z" />
    <glyph glyph-name="gbreve" unicode="&#x11f;" horiz-adv-x="1298" 
d="M635 1182q-132 0 -231 90t-99 207q0 38 24.5 65t61.5 27q70 0 86 -76q9 -63 53.5 -103t104.5 -40q61 0 105 40t55 103q8 35 30 55.5t54 20.5q37 0 62.5 -27t25.5 -65q0 -120 -98 -208.5t-234 -88.5zM1038 1028q44 0 74.5 -31.5t30.5 -78.5v-814q0 -231 -134.5 -363
t-369.5 -132q-254 0 -436 149q-41 35 -41 78q0 41 28.5 69.5t69.5 28.5q36 0 62 -20q146 -109 305 -109q143 0 222 75.5t79 211.5v72q-122 -144 -340 -144q-213 0 -351.5 142.5t-138.5 361.5t138.5 361.5t351.5 142.5q109 0 197.5 -39t144.5 -110v39q0 47 31 78.5t77 31.5z
M627 209q136 0 219.5 87t83.5 230q0 140 -82.5 225t-220.5 85q-134 0 -221 -88t-87 -224q0 -138 87 -226.5t221 -88.5z" />
    <glyph glyph-name="Gdotaccent" unicode="&#x120;" horiz-adv-x="1527" 
d="M801 1802q59 0 101 -40.5t42 -98.5t-42 -98.5t-101 -40.5q-60 0 -102 40.5t-42 98.5t42 98.5t102 40.5zM801 -23q-148 0 -280 54t-227 147t-150.5 222.5t-55.5 275.5q0 194 94 354.5t257.5 252t361.5 91.5q149 0 286 -60t222 -161q51 -54 51 -100q0 -39 -29 -69t-71 -30
q-48 0 -95 52q-82 88 -169.5 129t-196.5 41q-212 0 -349 -140.5t-137 -357.5q0 -221 140 -363.5t358 -142.5q126 0 232.5 51.5t170.5 143.5v155h-321q-45 0 -76 28t-31 68t31 68.5t76 28.5h428q48 0 79.5 -32t31.5 -81v-196q0 -78 -37 -134q-94 -135 -255 -215t-339 -80z
" />
    <glyph glyph-name="gdotaccent" unicode="&#x121;" horiz-adv-x="1298" 
d="M635 1241q-60 0 -101.5 40.5t-41.5 98.5q0 59 41.5 99.5t101.5 40.5q59 0 101 -41t42 -99t-42 -98.5t-101 -40.5zM1038 1028q44 0 74.5 -31.5t30.5 -78.5v-814q0 -231 -134.5 -363t-369.5 -132q-254 0 -436 149q-41 35 -41 78q0 41 28.5 69.5t69.5 28.5q36 0 62 -20
q146 -109 305 -109q143 0 222 75.5t79 211.5v72q-122 -144 -340 -144q-213 0 -351.5 142.5t-138.5 361.5t138.5 361.5t351.5 142.5q109 0 197.5 -39t144.5 -110v39q0 47 31 78.5t77 31.5zM627 209q136 0 219.5 87t83.5 230q0 140 -82.5 225t-220.5 85q-134 0 -221 -88
t-87 -224q0 -138 87 -226.5t221 -88.5z" />
    <glyph glyph-name="Gcommaaccent" unicode="&#x122;" horiz-adv-x="1527" 
d="M801 -23q-148 0 -280 54t-227 147t-150.5 222.5t-55.5 275.5q0 194 94 354.5t257.5 252t361.5 91.5q149 0 286 -60t222 -161q51 -54 51 -100q0 -39 -29 -69t-71 -30q-48 0 -95 52q-82 88 -169.5 129t-196.5 41q-212 0 -349 -140.5t-137 -357.5q0 -221 140 -363.5
t358 -142.5q126 0 232.5 51.5t170.5 143.5v155h-321q-45 0 -76 28t-31 68t31 68.5t76 28.5h428q48 0 79.5 -32t31.5 -81v-196q0 -78 -37 -134q-94 -135 -255 -215t-339 -80zM748 -485q-37 0 -66 27.5t-29 62.5q0 15 13.5 74t13.5 122q0 44 32 76.5t76 32.5t76.5 -32.5
t32.5 -76.5q0 -60 -17.5 -121.5t-39.5 -97.5q-38 -67 -92 -67z" />
    <glyph glyph-name="gcommaaccent" unicode="&#x123;" horiz-adv-x="1298" 
d="M633 1151q-45 0 -76 30.5t-31 75.5q0 66 20 162.5t42 159.5q28 78 96 78q35 0 61.5 -25t26.5 -65q0 -20 -8 -60q-25 -161 -25 -250q0 -45 -32 -75.5t-74 -30.5zM1038 1028q44 0 74.5 -31.5t30.5 -78.5v-814q0 -231 -134.5 -363t-369.5 -132q-254 0 -436 149
q-41 35 -41 78q0 41 28.5 69.5t69.5 28.5q36 0 62 -20q146 -109 305 -109q143 0 222 75.5t79 211.5v72q-122 -144 -340 -144q-213 0 -351.5 142.5t-138.5 361.5t138.5 361.5t351.5 142.5q109 0 197.5 -39t144.5 -110v39q0 47 31 78.5t77 31.5zM627 209q136 0 219.5 87
t83.5 230q0 140 -82.5 225t-220.5 85q-134 0 -221 -88t-87 -224q0 -138 87 -226.5t221 -88.5z" />
    <glyph glyph-name="Hcircumflex" unicode="&#x124;" horiz-adv-x="1454" 
d="M471 1477q-34 0 -57 22.5t-23 56.5q0 19 9 34t32 38l223 221q31 31 70 31t70 -31l223 -221q23 -23 32 -38t9 -34q0 -34 -23 -56.5t-57 -22.5q-31 0 -64 26l-190 178l-190 -178q-33 -26 -64 -26zM1176 1374q47 0 77.5 -31.5t30.5 -78.5v-1176q0 -47 -31 -79t-77 -32
t-77.5 32t-31.5 79v530h-680v-530q0 -47 -31 -79t-77 -32t-77.5 32t-31.5 79v1176q0 47 31 78.5t78 31.5t77.5 -31.5t30.5 -78.5v-451h680v451q0 47 31 78.5t78 31.5z" />
    <glyph glyph-name="hcircumflex" unicode="&#x125;" horiz-adv-x="1177" 
d="M369 1866l-191 -178q-34 -27 -63 -27q-34 0 -57 23t-23 57q0 19 8.5 33t32.5 38l223 222q30 30 70 30q39 0 69 -30l224 -222q23 -23 31.5 -37.5t8.5 -33.5q0 -34 -22.5 -57t-56.5 -23q-29 0 -64 27zM662 1028q169 0 270.5 -109t101.5 -290v-541q0 -49 -30.5 -80
t-75.5 -31q-47 0 -78 32t-31 79v510q0 105 -60 169t-159 64q-100 0 -164.5 -65.5t-64.5 -167.5v-510q0 -49 -30.5 -80t-76.5 -31t-77 32t-31 79v1360q0 47 31 79t77 32t76.5 -31t30.5 -80v-543q110 123 291 123z" />
    <glyph glyph-name="Hbar" unicode="&#x126;" horiz-adv-x="1484" 
d="M293 -23q-46 0 -77.5 32t-31.5 79v830h-114q-40 0 -66.5 27t-26.5 65t26.5 64t66.5 26h114v164q0 47 31.5 78.5t77.5 31.5q47 0 77.5 -31.5t30.5 -78.5v-164h680v164q0 47 31.5 78.5t77.5 31.5q47 0 77.5 -31.5t30.5 -78.5v-164h115q41 0 67.5 -25.5t26.5 -64.5
t-26.5 -65.5t-67.5 -26.5h-115v-830q0 -48 -30.5 -79.5t-77.5 -31.5q-46 0 -77.5 32t-31.5 79v391h-680v-391q0 -48 -30.5 -79.5t-77.5 -31.5zM401 670h680v248h-680v-248z" />
    <glyph glyph-name="hbar" unicode="&#x127;" horiz-adv-x="1189" 
d="M672 985q169 0 272 -109.5t103 -291.5v-496q0 -49 -31.5 -80t-77.5 -31t-77.5 32t-31.5 79v469q0 103 -60 166t-157 63q-101 0 -166 -64t-65 -165v-469q0 -47 -30.5 -79t-76.5 -32t-76 32t-30 79v1069h-84q-40 0 -67 27t-27 65q0 40 27 66t67 26h84v107q0 49 30 80t76 31
t76.5 -32t30.5 -79v-107h321q39 0 66 -26.5t27 -65.5q0 -38 -27.5 -65t-65.5 -27h-321v-297q106 125 291 125z" />
    <glyph glyph-name="Itilde" unicode="&#x128;" horiz-adv-x="557" 
d="M-2 1493q-40 0 -65 26.5t-25 69.5q0 101 59 167.5t148 66.5q76 0 147 -45l68 -41q5 -3 16.5 -9.5t16 -9t13.5 -7t14.5 -6.5t13 -3.5t14.5 -1.5q52 0 61 57q4 34 27 54t57 20q40 0 65 -26.5t25 -67.5q0 -103 -59 -169.5t-150 -66.5q-71 0 -147 45l-66 41q-6 3 -20 11
t-20 11t-16 7.5t-18 6t-16 1.5q-53 0 -59 -57q-6 -34 -28.5 -54t-55.5 -20zM279 -23q-47 0 -78 32t-31 79v1176q0 47 31 78.5t78 31.5t77.5 -31.5t30.5 -78.5v-1176q0 -48 -30.5 -79.5t-77.5 -31.5z" />
    <glyph glyph-name="itilde" unicode="&#x129;" horiz-adv-x="526" 
d="M401 1202q-62 0 -135 58l-39 34q-46 41 -73 41q-48 0 -54 -59q-6 -35 -29 -55.5t-55 -20.5q-40 0 -64 27t-24 71q0 103 56.5 168.5t144.5 65.5q66 0 135 -55l39 -35q46 -41 74 -41q47 0 53 59q6 34 29 55t55 21q39 0 63.5 -27.5t24.5 -70.5q0 -103 -56.5 -169.5
t-144.5 -66.5zM262 -23q-46 0 -76 32t-30 79v830q0 47 30.5 78.5t77.5 31.5q46 0 76.5 -31.5t30.5 -78.5v-830q0 -47 -31.5 -79t-77.5 -32z" />
    <glyph glyph-name="Imacron" unicode="&#x12a;" horiz-adv-x="557" 
d="M520 1737q37 0 62.5 -24.5t25.5 -61.5t-25.5 -62.5t-62.5 -25.5h-477q-38 0 -64 25.5t-26 62.5t26 61.5t64 24.5h477zM279 -23q-47 0 -78 32t-31 79v1176q0 47 31 78.5t78 31.5t77.5 -31.5t30.5 -78.5v-1176q0 -48 -30.5 -79.5t-77.5 -31.5z" />
    <glyph glyph-name="imacron" unicode="&#x12b;" horiz-adv-x="526" 
d="M432 1466q38 0 63 -24.5t25 -61.5t-25 -61.5t-63 -24.5h-336q-38 0 -63 24.5t-25 61.5t25 61.5t63 24.5h336zM262 -23q-46 0 -76 32t-30 79v830q0 47 30.5 78.5t77.5 31.5q46 0 76.5 -31.5t30.5 -78.5v-830q0 -47 -31.5 -79t-77.5 -32z" />
    <glyph glyph-name="Ibreve" unicode="&#x12c;" horiz-adv-x="557" 
d="M281 1493q-128 0 -227 82t-99 190q0 37 24.5 62.5t61.5 25.5q58 0 84 -71q19 -60 59.5 -92.5t96.5 -32.5q58 0 99 33t58 92q24 71 82 71q38 0 62 -25.5t24 -62.5q0 -107 -98 -189.5t-227 -82.5zM279 -23q-47 0 -78 32t-31 79v1176q0 47 31 78.5t78 31.5t77.5 -31.5
t30.5 -78.5v-1176q0 -48 -30.5 -79.5t-77.5 -31.5z" />
    <glyph glyph-name="ibreve" unicode="&#x12d;" horiz-adv-x="526" 
d="M264 1182q-132 0 -231 90t-99 207q0 38 24.5 65t61.5 27q70 0 86 -76q9 -63 53.5 -103t104.5 -40q61 0 105 40t55 103q8 35 30 55.5t54 20.5q37 0 62.5 -27t25.5 -65q0 -120 -98 -208.5t-234 -88.5zM262 -23q-46 0 -76 32t-30 79v830q0 47 30.5 78.5t77.5 31.5
q46 0 76.5 -31.5t30.5 -78.5v-830q0 -47 -31.5 -79t-77.5 -32z" />
    <glyph glyph-name="Iogonek" unicode="&#x12e;" horiz-adv-x="557" 
d="M350 -225q31 0 50.5 -20.5t19.5 -53.5q0 -60 -66 -78q-41 -14 -116 -14q-105 0 -168.5 54t-63.5 147q0 72 39 124.5t129 124.5q-4 16 -4 29v1176q0 47 31 78.5t78 31.5t77.5 -31.5t30.5 -78.5v-1176v-8v-6q0 -46 -49 -82q-38 -29 -60.5 -48t-45.5 -50.5t-23 -57.5
q0 -28 23 -45.5t67 -17.5q11 0 28.5 1t22.5 1z" />
    <glyph glyph-name="iogonek" unicode="&#x12f;" horiz-adv-x="526" 
d="M264 1241q-60 0 -101.5 40.5t-41.5 98.5q0 59 41.5 99.5t101.5 40.5q59 0 101.5 -41t42.5 -99t-42.5 -98.5t-101.5 -40.5zM334 -225q31 0 50 -20t19 -54q0 -60 -65 -78q-41 -14 -117 -14q-105 0 -168 54t-63 147q0 72 39.5 125t128.5 126q0 4 -1 13t-1 14v830
q0 47 30.5 78.5t77.5 31.5q46 0 76.5 -31.5t30.5 -78.5v-830v-8v-6q0 -46 -49 -82q-38 -29 -60.5 -48t-45.5 -50.5t-23 -57.5q0 -28 23 -45.5t67 -17.5q11 0 28.5 1t22.5 1z" />
    <glyph glyph-name="Idotaccent" unicode="&#x130;" horiz-adv-x="557" 
d="M281 1802q59 0 101 -40.5t42 -98.5t-42 -98.5t-101 -40.5q-60 0 -102 40.5t-42 98.5t42 98.5t102 40.5zM279 -23q-47 0 -78 32t-31 79v1176q0 47 31 78.5t78 31.5t77.5 -31.5t30.5 -78.5v-1176q0 -48 -30.5 -79.5t-77.5 -31.5z" />
    <glyph glyph-name="dotlessi" unicode="&#x131;" horiz-adv-x="526" 
d="M262 -23q-46 0 -76 32t-30 79v830q0 47 30.5 78.5t77.5 31.5q46 0 76.5 -31.5t30.5 -78.5v-830q0 -47 -31.5 -79t-77.5 -32z" />
    <glyph glyph-name="IJ" unicode="&#x132;" horiz-adv-x="1337" 
d="M279 -23q-47 0 -78 32t-31 79v1176q0 47 31 78.5t78 31.5t77.5 -31.5t30.5 -78.5v-1176q0 -48 -30.5 -79.5t-77.5 -31.5zM780 -23q-81 0 -131 17q-31 10 -50 37t-19 59q0 41 30 69.5t74 28.5q20 0 57.5 -5t61.5 -5q69 0 108 44.5t39 121.5v920q0 47 31 78.5t78 31.5
t77.5 -31.5t30.5 -78.5v-928q0 -175 -99 -267t-288 -92z" />
    <glyph glyph-name="ij" unicode="&#x133;" horiz-adv-x="1052" 
d="M264 1520q59 0 101.5 -41t42.5 -99t-42.5 -98.5t-101.5 -40.5q-60 0 -101.5 40.5t-41.5 98.5q0 59 41.5 99.5t101.5 40.5zM791 1520q59 0 101 -41t42 -99t-42 -98.5t-101 -40.5q-60 0 -102 40.5t-42 98.5t42 99t102 41zM262 -23q-46 0 -76 32t-30 79v830q0 47 30.5 78.5
t77.5 31.5q46 0 76.5 -31.5t30.5 -78.5v-830q0 -47 -31.5 -79t-77.5 -32zM545 -391q-53 0 -94 12q-35 9 -56.5 33t-21.5 57q0 40 27 67t67 27q7 0 19 -1t20 -1q84 0 130 41.5t46 143.5v930q0 47 31 78.5t78 31.5q46 0 76 -31.5t30 -78.5v-959q0 -173 -94 -261.5t-258 -88.5z
" />
    <glyph glyph-name="Jcircumflex" unicode="&#x134;" horiz-adv-x="780" 
d="M766 1628q23 -23 32 -38t9 -34q0 -34 -23 -56.5t-57 -22.5q-30 0 -63 26l-191 178l-190 -178q-33 -26 -64 -26q-34 0 -57 22.5t-23 56.5q0 19 9 34t32 38l223 221q31 31 70 31t70 -31zM502 1374q47 0 77.5 -31.5t30.5 -78.5v-928q0 -175 -99 -267t-288 -92q-81 0 -131 17
q-31 10 -50 37t-19 59q0 41 30 69.5t74 28.5q20 0 57.5 -5t61.5 -5q69 0 108 44.5t39 121.5v920q0 47 31 78.5t78 31.5z" />
    <glyph glyph-name="jcircumflex" unicode="&#x135;" horiz-adv-x="526" 
d="M555 1307q25 -32 25 -62q0 -36 -26 -61t-60 -25q-39 0 -64 29l-166 190l-168 -190q-22 -29 -61 -29q-34 0 -60 25t-26 61q0 35 24 62l209 266q34 39 82 39q49 0 80 -39zM264 1028q46 0 76.5 -31.5t30.5 -78.5v-959q0 -173 -94.5 -261.5t-258.5 -88.5q-54 0 -94 12
q-35 9 -56.5 33t-21.5 57q0 40 27.5 67t67.5 27q7 0 19 -1t20 -1q84 0 130 41.5t46 143.5v930q0 47 30.5 78.5t77.5 31.5z" />
    <glyph glyph-name="Kcommaaccent" unicode="&#x136;" horiz-adv-x="1333" 
d="M279 1374q46 0 77 -31.5t31 -78.5v-1176q0 -47 -31 -79t-77 -32t-77.5 32t-31.5 79v1176q0 47 31 78.5t78 31.5zM1202 150q35 -35 35 -72q0 -41 -30 -71t-70 -30q-48 0 -88 43l-580 627q-33 38 -33 74q0 34 33 72l539 542q39 39 79 39q41 0 70 -28.5t29 -69.5
q0 -40 -37 -80l-473 -475zM647 -90q44 0 76.5 -32.5t32.5 -76.5q0 -60 -17.5 -121.5t-40.5 -97.5q-38 -67 -92 -67q-37 0 -65.5 27.5t-28.5 62.5q0 15 13.5 74t13.5 122q0 44 32 76.5t76 32.5z" />
    <glyph glyph-name="kcommaaccent" unicode="&#x137;" horiz-adv-x="1091" 
d="M264 1559q46 0 76.5 -31t30.5 -80v-1360q0 -49 -30.5 -80t-76.5 -31t-77 32t-31 79v1360q0 47 31 79t77 32zM1008 150q28 -32 28 -72q0 -42 -29 -71.5t-71 -29.5q-49 0 -86 43l-395 457q-33 42 -33 78q0 42 35 80l362 360q33 33 78 33q43 0 72.5 -28.5t29.5 -69.5
q0 -39 -41 -80l-301 -293zM547 -90q44 0 76 -32.5t32 -76.5q0 -60 -17.5 -121.5t-39.5 -97.5q-38 -67 -92 -67q-37 0 -65.5 27.5t-28.5 62.5q0 15 13 74t13 122q0 44 32.5 76.5t76.5 32.5z" />
    <glyph glyph-name="Lacute" unicode="&#x139;" horiz-adv-x="1054" 
d="M309 1481q-56 3 -80 51.5t0 89.5l119 229q34 62 105 58q61 -3 88.5 -59.5t-9.5 -112.5l-137 -209q-34 -47 -86 -47zM283 0q-49 0 -81 32t-32 81v1151q0 46 31 78t78 32t77.5 -31.5t30.5 -78.5v-1069h531q42 0 70 -27.5t28 -69.5t-28 -70t-70 -28h-635z" />
    <glyph glyph-name="lacute" unicode="&#x13a;" horiz-adv-x="526" 
d="M295 1665q-56 3 -80 51.5t0 89.5l119 230q34 61 104 57q61 -3 89 -59.5t-9 -112.5l-137 -209q-34 -47 -86 -47zM264 -23q-46 0 -77 32t-31 79v1360q0 48 30.5 79.5t77.5 31.5q46 0 76.5 -32t30.5 -79v-1360q0 -47 -30.5 -79t-76.5 -32z" />
    <glyph glyph-name="Lcommaaccent" unicode="&#x13b;" horiz-adv-x="1054" 
d="M283 0q-49 0 -81 32t-32 81v1151q0 46 31 78t78 32t77.5 -31.5t30.5 -78.5v-1069h531q42 0 70 -27.5t28 -69.5t-28 -70t-70 -28h-635zM528 -485q-37 0 -65.5 27.5t-28.5 62.5q0 15 13.5 74t13.5 122q0 44 32 76.5t76 32.5t76.5 -32.5t32.5 -76.5q0 -60 -17.5 -121.5
t-39.5 -97.5q-38 -67 -93 -67z" />
    <glyph glyph-name="lcommaaccent" unicode="&#x13c;" horiz-adv-x="526" 
d="M264 -23q-46 0 -77 32t-31 79v1360q0 48 30.5 79.5t77.5 31.5q46 0 76.5 -32t30.5 -79v-1360q0 -47 -30.5 -79t-76.5 -32zM219 -485q-37 0 -65.5 27.5t-28.5 62.5q0 15 13.5 74t13.5 122q0 44 32 76.5t76 32.5t76.5 -32.5t32.5 -76.5q0 -60 -17.5 -121.5t-40.5 -97.5
q-38 -67 -92 -67z" />
    <glyph glyph-name="Lcaron" unicode="&#x13d;" horiz-adv-x="1054" 
d="M844 1032q-43 0 -72 34t-22 85l38 264q5 41 36.5 71t74.5 30q52 0 86.5 -42.5t15.5 -105.5l-65 -264q-8 -27 -30.5 -49.5t-61.5 -22.5zM283 0q-49 0 -81 32t-32 81v1151q0 46 31 78t78 32t77.5 -31.5t30.5 -78.5v-1069h531q42 0 70 -27.5t28 -69.5t-28 -70t-70 -28h-635z
" />
    <glyph glyph-name="lcaron" unicode="&#x13e;" horiz-adv-x="819" 
d="M641 1094q-43 0 -72 33.5t-22 84.5l39 265q5 41 36 70.5t74 29.5q52 0 87 -42t16 -105l-66 -265q-8 -27 -30.5 -49t-61.5 -22zM264 -23q-46 0 -77 32t-31 79v1360q0 48 30.5 79.5t77.5 31.5q46 0 76.5 -32t30.5 -79v-1360q0 -47 -30.5 -79t-76.5 -32z" />
    <glyph glyph-name="Ldot" unicode="&#x13f;" horiz-adv-x="1054" 
d="M283 0q-49 0 -81 32t-32 81v1151q0 46 31 78t78 32t77.5 -31.5t30.5 -78.5v-1069h531q42 0 70 -27.5t28 -69.5t-28 -70t-70 -28h-635zM809 606q-68 0 -115 46t-47 112t47.5 113t114.5 47q66 0 112 -47t46 -113t-46 -112t-112 -46z" />
    <glyph glyph-name="ldot" unicode="&#x140;" horiz-adv-x="739" 
d="M264 -23q-46 0 -77 32t-31 79v1360q0 48 30.5 79.5t77.5 31.5q46 0 76.5 -32t30.5 -79v-1360q0 -47 -30.5 -79t-76.5 -32zM631 492q-68 0 -115 45.5t-47 111.5t47.5 113t114.5 47q66 0 111.5 -47t45.5 -113t-45.5 -111.5t-111.5 -45.5z" />
    <glyph glyph-name="Lslash" unicode="&#x141;" horiz-adv-x="1054" 
d="M918 195q42 0 70 -27.5t28 -69.5t-28 -70t-70 -28h-635q-49 0 -81 32t-32 81v356l-27 -12q-50 -22 -94.5 2.5t-44.5 75.5q0 64 70 94l96 43v592q0 46 31 78t78 32t77.5 -31.5t30.5 -78.5v-508l303 139q51 22 95 -2.5t44 -75.5q0 -65 -69 -94l-373 -168v-360h531z" />
    <glyph glyph-name="lslash" unicode="&#x142;" horiz-adv-x="716" 
d="M547 893q39 0 66 -27t26 -65q0 -27 -14.5 -49.5t-40.5 -34.5l-133 -62v-567q0 -47 -30.5 -79t-76.5 -32t-77 32t-31 79v490l-37 -17q-20 -8 -41 -8q-39 0 -66 27t-26 65q0 27 14.5 49.5t40.5 34.5l115 53v666q0 48 30.5 79.5t77.5 31.5q46 0 76.5 -32t30.5 -79v-590
l55 25q17 10 41 10z" />
    <glyph glyph-name="Nacute" unicode="&#x143;" horiz-adv-x="1454" 
d="M758 1481q-56 3 -80 51.5t0 89.5l119 229q34 62 104 58q61 -3 89 -59.5t-9 -112.5l-137 -209q-34 -47 -86 -47zM1176 1374q46 0 77 -31.5t31 -78.5v-1180q0 -45 -30.5 -76t-75.5 -31q-54 0 -103 62l-688 907v-858q0 -47 -31 -79t-77 -32t-77.5 32t-31.5 79v1180
q0 44 31 75t75 31q35 0 57.5 -16t51.5 -55l684 -895l-2 856q0 47 31.5 78.5t77.5 31.5z" />
    <glyph glyph-name="nacute" unicode="&#x144;" horiz-adv-x="1177" 
d="M616 1155q-42 1 -69 29.5t-25 66.5q0 19 15 49l110 256q12 28 41.5 46t61.5 18q44 0 75 -32.5t31 -78.5q0 -26 -16 -57l-138 -242q-33 -58 -86 -55zM657 1028q172 0 274.5 -108t102.5 -291v-541q0 -49 -30.5 -80t-75.5 -31q-47 0 -78 32t-31 79v512q0 104 -60.5 169
t-158.5 65q-100 0 -164.5 -66.5t-64.5 -167.5v-512q0 -49 -30.5 -80t-76.5 -31t-77 32t-31 79v830q0 47 30.5 78.5t77.5 31.5q44 0 74.5 -31.5t30.5 -78.5q113 110 288 110z" />
    <glyph glyph-name="Ncommaaccent" unicode="&#x145;" horiz-adv-x="1454" 
d="M1176 1374q46 0 77 -31.5t31 -78.5v-1180q0 -45 -30.5 -76t-75.5 -31q-54 0 -103 62l-688 907v-858q0 -47 -31 -79t-77 -32t-77.5 32t-31.5 79v1180q0 44 31 75t75 31q35 0 57.5 -16t51.5 -55l684 -895l-2 856q0 47 31.5 78.5t77.5 31.5zM723 -90q44 0 76 -32.5t32 -76.5
q0 -60 -17.5 -121.5t-39.5 -97.5q-38 -67 -92 -67q-37 0 -65.5 27.5t-28.5 62.5q0 15 13 74t13 122q0 44 32.5 76.5t76.5 32.5z" />
    <glyph glyph-name="ncommaaccent" unicode="&#x146;" horiz-adv-x="1177" 
d="M657 1028q172 0 274.5 -108t102.5 -291v-541q0 -49 -30.5 -80t-75.5 -31q-47 0 -78 32t-31 79v512q0 104 -60.5 169t-158.5 65q-100 0 -164.5 -66.5t-64.5 -167.5v-512q0 -49 -30.5 -80t-76.5 -31t-77 32t-31 79v830q0 47 30.5 78.5t77.5 31.5q44 0 74.5 -31.5
t30.5 -78.5q113 110 288 110zM592 -90q44 0 76 -32.5t32 -76.5q0 -60 -17.5 -121.5t-39.5 -97.5q-38 -67 -92 -67q-37 0 -65.5 27.5t-28.5 62.5q0 15 13 74t13 122q0 44 32.5 76.5t76.5 32.5z" />
    <glyph glyph-name="Ncaron" unicode="&#x147;" horiz-adv-x="1454" 
d="M657 1507l-223 222q-24 24 -32.5 38t-8.5 33q0 34 23 57t57 23q30 0 64 -27l190 -178l191 178q34 27 63 27q34 0 57 -23t23 -57q0 -19 -8.5 -33t-32.5 -38l-223 -222q-30 -30 -70 -30t-70 30zM1176 1374q46 0 77 -31.5t31 -78.5v-1180q0 -45 -30.5 -76t-75.5 -31
q-54 0 -103 62l-688 907v-858q0 -47 -31 -79t-77 -32t-77.5 32t-31.5 79v1180q0 44 31 75t75 31q35 0 57.5 -16t51.5 -55l684 -895l-2 856q0 47 31.5 78.5t77.5 31.5z" />
    <glyph glyph-name="ncaron" unicode="&#x148;" horiz-adv-x="1177" 
d="M498 1198l-209 266q-25 28 -25 62q0 36 26 61t60 25q40 0 62 -29l168 -190l165 190q25 29 64 29q34 0 60 -25t26 -61q0 -30 -25 -62l-211 -266q-31 -39 -79 -39t-82 39zM657 1028q172 0 274.5 -108t102.5 -291v-541q0 -49 -30.5 -80t-75.5 -31q-47 0 -78 32t-31 79v512
q0 104 -60.5 169t-158.5 65q-100 0 -164.5 -66.5t-64.5 -167.5v-512q0 -49 -30.5 -80t-76.5 -31t-77 32t-31 79v830q0 47 30.5 78.5t77.5 31.5q44 0 74.5 -31.5t30.5 -78.5q113 110 288 110z" />
    <glyph glyph-name="Eng" unicode="&#x14a;" horiz-adv-x="1454" 
d="M1176 1374q46 0 77 -31.5t31 -78.5v-1305q0 -170 -91.5 -260t-264.5 -90q-72 0 -107 14q-59 26 -59 88q0 43 29 72t73 29h29q89 0 131.5 39t42.5 122v76l-680 897v-858q0 -47 -31 -79t-77 -32t-77.5 32t-31.5 79v1180q0 44 31 75t75 31q35 0 57.5 -16t51.5 -55l684 -895
l-2 856q0 47 31.5 78.5t77.5 31.5z" />
    <glyph glyph-name="eng" unicode="&#x14b;" horiz-adv-x="1177" 
d="M657 1028q172 0 274.5 -108t102.5 -291v-670q0 -169 -97.5 -259.5t-256.5 -90.5q-49 0 -94 10q-34 9 -55 34t-21 58q0 40 26 67t66 27q7 0 20 -1t21 -1q176 0 176 174v623q0 104 -60.5 169t-158.5 65q-100 0 -164.5 -66.5t-64.5 -167.5v-512q0 -49 -30.5 -80t-76.5 -31
t-77 32t-31 79v830q0 47 30.5 78.5t77.5 31.5q44 0 74.5 -31.5t30.5 -78.5q113 110 288 110z" />
    <glyph glyph-name="Omacron" unicode="&#x14c;" horiz-adv-x="1597" 
d="M1038 1737q37 0 62.5 -24.5t25.5 -61.5t-25.5 -62.5t-62.5 -25.5h-477q-38 0 -64 25.5t-26 62.5t26 61.5t64 24.5h477zM797 1374q146 0 278 -55t226.5 -148t150 -222.5t55.5 -272.5q0 -144 -55.5 -273.5t-150 -223t-226.5 -148t-278 -54.5q-195 0 -358 92.5t-257 253
t-94 353.5q0 192 94 352.5t257 253t358 92.5zM799 1176q-211 0 -348.5 -141.5t-137.5 -356.5q0 -218 137.5 -360t348.5 -142q209 0 347 142.5t138 359.5q0 214 -138 356t-347 142z" />
    <glyph glyph-name="omacron" unicode="&#x14d;" horiz-adv-x="1247" 
d="M842 1466q39 0 64.5 -24.5t25.5 -61.5t-25.5 -61.5t-64.5 -24.5h-434q-38 0 -64.5 24.5t-26.5 61.5t26.5 61.5t64.5 24.5h434zM623 1028q147 0 270 -69.5t193.5 -190t70.5 -264.5q0 -108 -41.5 -205.5t-113 -168t-170.5 -112t-209 -41.5q-146 1 -268 71t-192.5 191
t-70.5 265q0 145 70.5 265.5t192.5 189.5t268 69zM625 831q-135 -2 -224.5 -95t-89.5 -234q0 -139 89 -232.5t223 -93.5q133 0 223 94t90 232q0 140 -89 233.5t-222 95.5z" />
    <glyph glyph-name="Obreve" unicode="&#x14e;" horiz-adv-x="1597" 
d="M799 1493q-128 0 -227 82t-99 190q0 37 24.5 62.5t61.5 25.5q58 0 84 -71q19 -60 59.5 -92.5t96.5 -32.5q58 0 99 33t58 92q24 71 82 71q38 0 62 -25.5t24 -62.5q0 -107 -98 -189.5t-227 -82.5zM797 1374q146 0 278 -55t226.5 -148t150 -222.5t55.5 -272.5
q0 -144 -55.5 -273.5t-150 -223t-226.5 -148t-278 -54.5q-195 0 -358 92.5t-257 253t-94 353.5q0 192 94 352.5t257 253t358 92.5zM799 1176q-211 0 -348.5 -141.5t-137.5 -356.5q0 -218 137.5 -360t348.5 -142q209 0 347 142.5t138 359.5q0 214 -138 356t-347 142z" />
    <glyph glyph-name="obreve" unicode="&#x14f;" horiz-adv-x="1247" 
d="M625 1182q-132 0 -231 90t-99 207q0 38 24.5 65t61.5 27q70 0 86 -76q9 -63 53.5 -103t104.5 -40q61 0 104.5 40t54.5 103q8 35 30 55.5t54 20.5q37 0 62.5 -27t25.5 -65q0 -121 -97.5 -209t-233.5 -88zM623 1028q147 0 270 -69.5t193.5 -190t70.5 -264.5
q0 -108 -41.5 -205.5t-113 -168t-170.5 -112t-209 -41.5q-146 1 -268 71t-192.5 191t-70.5 265q0 145 70.5 265.5t192.5 189.5t268 69zM625 831q-135 -2 -224.5 -95t-89.5 -234q0 -139 89 -232.5t223 -93.5q133 0 223 94t90 232q0 140 -89 233.5t-222 95.5z" />
    <glyph glyph-name="Ohungarumlaut" unicode="&#x150;" horiz-adv-x="1597" 
d="M614 1481q-56 3 -79.5 51.5t0.5 89.5l118 229q34 62 105 58q61 -3 89 -59.5t-9 -112.5l-138 -209q-34 -47 -86 -47zM1020 1481q-56 3 -80 51.5t0 89.5l119 229q34 62 104 58q61 -3 89 -59.5t-9 -112.5l-137 -209q-34 -47 -86 -47zM797 1374q146 0 278 -55t226.5 -148
t150 -222.5t55.5 -272.5q0 -144 -55.5 -273.5t-150 -223t-226.5 -148t-278 -54.5q-195 0 -358 92.5t-257 253t-94 353.5q0 192 94 352.5t257 253t358 92.5zM799 1176q-211 0 -348.5 -141.5t-137.5 -356.5q0 -218 137.5 -360t348.5 -142q209 0 347 142.5t138 359.5
q0 214 -138 356t-347 142z" />
    <glyph glyph-name="ohungarumlaut" unicode="&#x151;" horiz-adv-x="1247" 
d="M471 1155q-42 1 -69 29.5t-25 66.5q0 21 14 49l111 256q12 28 41 46t61 18q44 0 75.5 -32.5t31.5 -78.5q0 -24 -17 -57l-137 -242q-33 -58 -86 -55zM831 1155q-42 1 -69 29.5t-25 66.5q0 19 15 49l110 256q12 28 41.5 46t61.5 18q44 0 75 -32.5t31 -78.5q0 -26 -16 -57
l-137 -242q-34 -58 -87 -55zM623 1028q147 0 270 -69.5t193.5 -190t70.5 -264.5q0 -108 -41.5 -205.5t-113 -168t-170.5 -112t-209 -41.5q-146 1 -268 71t-192.5 191t-70.5 265q0 145 70.5 265.5t192.5 189.5t268 69zM625 831q-135 -2 -224.5 -95t-89.5 -234
q0 -139 89 -232.5t223 -93.5q133 0 223 94t90 232q0 140 -89 233.5t-222 95.5z" />
    <glyph glyph-name="OE" unicode="&#x152;" horiz-adv-x="2279" 
d="M2107 195q43 0 72 -28t29 -69t-29 -69.5t-72 -28.5h-718q-44 0 -74.5 30t-30.5 74v95q-82 -105 -210 -163.5t-281 -58.5q-195 0 -356.5 91.5t-255 252.5t-93.5 355t93.5 354.5t255.5 252t358 91.5q151 0 279 -57.5t210 -161.5v92q0 44 30.5 74.5t74.5 30.5h694
q43 0 71.5 -29t28.5 -70t-28.5 -68.5t-71.5 -27.5h-582v-346h420q41 0 68.5 -27t27.5 -67t-27.5 -67t-68.5 -27h-420v-428h606zM795 176q211 0 350 142t139 358q0 215 -139 357.5t-350 142.5q-209 0 -345.5 -141.5t-136.5 -358.5q0 -216 137.5 -358t344.5 -142z" />
    <glyph glyph-name="oe" unicode="&#x153;" horiz-adv-x="1970" 
d="M1413 1028q201 0 334 -132.5t133 -334.5v-10q0 -55 -33 -87t-90 -32h-631q19 -125 101.5 -194.5t214.5 -69.5q134 0 235 78q26 20 56 20q38 0 64 -26t26 -64q0 -50 -54 -90q-139 -109 -333 -109q-130 0 -240 57.5t-178 158.5q-64 -101 -169.5 -158.5t-232.5 -57.5
q-144 0 -264.5 69t-190 190t-69.5 266t70 266t191 190.5t265 69.5q127 0 231.5 -57t168.5 -158q67 100 170.5 157.5t224.5 57.5zM1407 846q-105 0 -180.5 -66.5t-98.5 -179.5h537q-3 109 -74 177.5t-184 68.5zM618 176q131 0 215.5 92t84.5 234q0 144 -83.5 235.5
t-213.5 91.5q-134 0 -222 -93t-88 -234t87.5 -233.5t219.5 -92.5z" />
    <glyph glyph-name="Racute" unicode="&#x154;" horiz-adv-x="1292" 
d="M580 1481q-56 3 -80 51.5t0 89.5l118 229q34 62 105 58q61 -3 89 -59.5t-9 -112.5l-137 -209q-34 -47 -86 -47zM1180 158q32 -40 32 -82q0 -41 -29.5 -70t-70.5 -29q-55 0 -96 56l-354 489h-275v-434q0 -47 -31 -79t-77 -32t-77.5 32t-31.5 79v1153q0 47 32 79t79 32h381
q206 0 332 -114t126 -300q0 -128 -63 -225.5t-174 -147.5zM387 1159v-444h270q112 0 176 59.5t64 161.5t-65 162.5t-175 60.5h-270z" />
    <glyph glyph-name="racute" unicode="&#x155;" horiz-adv-x="768" 
d="M410 1155q-42 1 -69.5 29.5t-25.5 66.5q0 19 15 49l110 256q12 28 41.5 46t61.5 18q44 0 75 -32.5t31 -78.5q0 -26 -16 -57l-137 -242q-33 -58 -86 -55zM649 1016q44 0 73.5 -27.5t29.5 -70.5q0 -44 -29.5 -73t-75.5 -32q-123 -3 -199.5 -79t-76.5 -197v-449
q0 -49 -30.5 -80t-76.5 -31t-77 32t-31 79v830q0 47 30.5 78.5t77.5 31.5q44 0 74.5 -31.5t30.5 -78.5v-31q110 129 280 129z" />
    <glyph glyph-name="Rcommaaccent" unicode="&#x156;" horiz-adv-x="1292" 
d="M1180 158q32 -40 32 -82q0 -41 -29.5 -70t-70.5 -29q-55 0 -96 56l-354 489h-275v-434q0 -47 -31 -79t-77 -32t-77.5 32t-31.5 79v1153q0 47 32 79t79 32h381q206 0 332 -114t126 -300q0 -128 -63 -225.5t-174 -147.5zM387 1159v-444h270q112 0 176 59.5t64 161.5
t-65 162.5t-175 60.5h-270zM629 -90q44 0 76 -32.5t32 -76.5q0 -60 -17.5 -121.5t-39.5 -97.5q-38 -67 -92 -67q-37 0 -65.5 27.5t-28.5 62.5q0 15 13 74t13 122q0 44 32.5 76.5t76.5 32.5z" />
    <glyph glyph-name="rcommaaccent" unicode="&#x157;" horiz-adv-x="768" 
d="M649 1016q44 0 73.5 -27.5t29.5 -70.5q0 -44 -29.5 -73t-75.5 -32q-123 -3 -199.5 -79t-76.5 -197v-449q0 -49 -30.5 -80t-76.5 -31t-77 32t-31 79v830q0 47 30.5 78.5t77.5 31.5q44 0 74.5 -31.5t30.5 -78.5v-31q110 129 280 129zM258 -90q44 0 76.5 -32.5t32.5 -76.5
q0 -60 -17.5 -121.5t-40.5 -97.5q-38 -67 -92 -67q-37 0 -65.5 27.5t-28.5 62.5q0 15 13.5 74t13.5 122q0 44 32 76.5t76 32.5z" />
    <glyph glyph-name="Rcaron" unicode="&#x158;" horiz-adv-x="1292" 
d="M479 1507l-223 222q-24 24 -32.5 38t-8.5 33q0 34 23 57t57 23q29 0 63 -27l191 -178l190 178q34 27 64 27q34 0 57 -23t23 -57q0 -19 -8.5 -33t-32.5 -38l-224 -222q-30 -30 -69 -30q-40 0 -70 30zM1180 158q32 -40 32 -82q0 -41 -29.5 -70t-70.5 -29q-55 0 -96 56
l-354 489h-275v-434q0 -47 -31 -79t-77 -32t-77.5 32t-31.5 79v1153q0 47 32 79t79 32h381q206 0 332 -114t126 -300q0 -128 -63 -225.5t-174 -147.5zM387 1159v-444h270q112 0 176 59.5t64 161.5t-65 162.5t-175 60.5h-270z" />
    <glyph glyph-name="rcaron" unicode="&#x159;" horiz-adv-x="768" 
d="M373 1159q-48 0 -82 39l-209 266q-25 28 -25 62q0 36 26 61t60 25q40 0 62 -29l168 -190l166 190q25 29 63 29q34 0 60 -25t26 -61q0 -31 -24 -62l-211 -266q-31 -39 -80 -39zM649 1016q44 0 73.5 -27.5t29.5 -70.5q0 -44 -29.5 -73t-75.5 -32q-123 -3 -199.5 -79
t-76.5 -197v-449q0 -49 -30.5 -80t-76.5 -31t-77 32t-31 79v830q0 47 30.5 78.5t77.5 31.5q44 0 74.5 -31.5t30.5 -78.5v-31q110 129 280 129z" />
    <glyph glyph-name="Sacute" unicode="&#x15a;" horiz-adv-x="1144" 
d="M606 1481q-56 3 -80 51.5t0 89.5l119 229q34 62 105 58q61 -3 88.5 -59.5t-9.5 -112.5l-137 -209q-34 -47 -86 -47zM584 -23q-127 0 -249 56t-200 151q-33 38 -33 76q0 42 30 70t71 28q40 0 65 -28q133 -158 314 -158q107 0 170 51.5t63 136.5q0 65 -42.5 107.5
t-156.5 95.5l-149 70q-163 76 -239 165.5t-76 209.5q0 159 121 262.5t305 103.5q229 3 376 -160q33 -36 33 -77q0 -38 -30.5 -67.5t-69.5 -29.5q-34 0 -66 29q-111 111 -243 111q-93 0 -149 -44.5t-56 -119.5q0 -62 38.5 -101t149.5 -92l152 -69q171 -79 247 -168t76 -217
q0 -175 -127 -283.5t-325 -108.5z" />
    <glyph glyph-name="sacute" unicode="&#x15b;" horiz-adv-x="931" 
d="M510 1155q-42 1 -69 29.5t-25 66.5q0 21 14 49l111 256q12 28 41 46t61 18q44 0 75.5 -32.5t31.5 -78.5q0 -24 -17 -57l-137 -242q-33 -58 -86 -55zM467 -23q-223 0 -369 156q-30 27 -30 70q0 38 28 66t68 28q34 0 67 -29q111 -104 236 -104q70 0 116 29t46 83
q0 45 -33.5 70t-108.5 55l-102 43q-133 56 -197.5 121t-64.5 172q0 136 100 213.5t254 77.5q194 0 320 -123q32 -28 32 -71q0 -38 -26.5 -65.5t-63.5 -27.5q-25 0 -67 31q-90 70 -199 70q-63 0 -100 -24.5t-37 -72.5q0 -39 29.5 -63.5t103.5 -54.5l96 -39
q143 -60 209 -128.5t66 -174.5q0 -146 -107 -227t-266 -81z" />
    <glyph glyph-name="Scircumflex" unicode="&#x15c;" horiz-adv-x="1144" 
d="M319 1477q-34 0 -56.5 22.5t-22.5 56.5q0 19 9 34t32 38l223 221q31 31 69 31q39 0 70 -31l223 -221q23 -23 32 -38t9 -34q0 -34 -23 -56.5t-57 -22.5q-30 0 -63 26l-191 178l-190 -178q-33 -26 -64 -26zM713 754q171 -79 247 -168t76 -217q0 -175 -127 -283.5
t-325 -108.5q-127 0 -249 56t-200 151q-33 38 -33 76q0 42 30 70t71 28q40 0 65 -28q133 -158 314 -158q107 0 170 51.5t63 136.5q0 65 -42.5 107.5t-156.5 95.5l-149 70q-163 76 -239 165.5t-76 209.5q0 159 121 262.5t305 103.5q229 3 376 -160q33 -36 33 -77
q0 -38 -30.5 -67.5t-69.5 -29.5q-34 0 -66 29q-111 111 -243 111q-93 0 -149 -44.5t-56 -119.5q0 -62 38.5 -101t149.5 -92z" />
    <glyph glyph-name="scircumflex" unicode="&#x15d;" horiz-adv-x="931" 
d="M244 1159q-34 0 -60 25t-26 61q0 35 24 62l209 266q34 39 82 39q49 0 80 -39l211 -266q24 -31 24 -62q0 -36 -26 -61t-60 -25q-38 0 -63 29l-166 190l-168 -190q-22 -29 -61 -29zM565 588q143 -60 209 -128.5t66 -174.5q0 -146 -107 -227t-266 -81q-223 0 -369 156
q-30 27 -30 70q0 38 28 66t68 28q34 0 67 -29q111 -104 236 -104q70 0 116 29t46 83q0 45 -33.5 70t-108.5 55l-102 43q-133 56 -197.5 121t-64.5 172q0 136 100 213.5t254 77.5q194 0 320 -123q32 -28 32 -71q0 -38 -26.5 -65.5t-63.5 -27.5q-25 0 -67 31q-90 70 -199 70
q-63 0 -100 -24.5t-37 -72.5q0 -39 29.5 -63.5t103.5 -54.5z" />
    <glyph glyph-name="Scedilla" unicode="&#x15e;" horiz-adv-x="1144" 
d="M1036 369q0 -139 -83.5 -238t-223.5 -135q43 -72 43 -139q0 -112 -81.5 -180t-215.5 -68q-83 0 -121 16q-57 22 -57 74q0 32 23 55t55 23q12 0 35.5 -3t44.5 -3q56 0 93.5 25.5t37.5 72.5q0 56 -41 111q-118 8 -228 62.5t-182 141.5q-33 38 -33 76q0 42 30 70t71 28
q40 0 65 -28q133 -158 314 -158q107 0 170 51.5t63 136.5q0 65 -42.5 107.5t-156.5 95.5l-149 70q-163 76 -239 165.5t-76 209.5q0 159 121 262.5t305 103.5q229 3 376 -160q33 -36 33 -77q0 -38 -30.5 -67.5t-69.5 -29.5q-34 0 -66 29q-111 111 -243 111q-93 0 -149 -44.5
t-56 -119.5q0 -62 38.5 -101t149.5 -92l152 -69q171 -79 247 -168t76 -217z" />
    <glyph glyph-name="scedilla" unicode="&#x15f;" horiz-adv-x="931" 
d="M840 285q0 -106 -58.5 -178.5t-156.5 -104.5q45 -78 45 -145q0 -112 -81.5 -180t-215.5 -68q-83 0 -121 16q-57 22 -57 74q0 32 22.5 55t54.5 23q12 0 35.5 -3t44.5 -3q56 0 93.5 25.5t37.5 72.5q0 51 -39 108q-209 9 -346 156q-30 27 -30 70q0 38 28 66t68 28
q34 0 67 -29q111 -104 236 -104q70 0 116 29t46 83q0 45 -33.5 70t-108.5 55l-102 43q-133 56 -197.5 121t-64.5 172q0 136 100 213.5t254 77.5q194 0 320 -123q32 -28 32 -71q0 -38 -26.5 -65.5t-63.5 -27.5q-25 0 -67 31q-90 70 -199 70q-63 0 -100 -24.5t-37 -72.5
q0 -39 29.5 -63.5t103.5 -54.5l96 -39q143 -60 209 -128.5t66 -174.5z" />
    <glyph glyph-name="Scaron" unicode="&#x160;" horiz-adv-x="1144" 
d="M506 1507l-223 222q-24 24 -32.5 38t-8.5 33q0 34 23 57t57 23q29 0 63 -27l190 -178l191 178q34 27 63 27q34 0 57 -23t23 -57q0 -19 -8.5 -33t-32.5 -38l-223 -222q-30 -30 -70 -30q-39 0 -69 30zM713 754q171 -79 247 -168t76 -217q0 -175 -127 -283.5t-325 -108.5
q-127 0 -249 56t-200 151q-33 38 -33 76q0 42 30 70t71 28q40 0 65 -28q133 -158 314 -158q107 0 170 51.5t63 136.5q0 65 -42.5 107.5t-156.5 95.5l-149 70q-163 76 -239 165.5t-76 209.5q0 159 121 262.5t305 103.5q229 3 376 -160q33 -36 33 -77q0 -38 -30.5 -67.5
t-69.5 -29.5q-34 0 -66 29q-111 111 -243 111q-93 0 -149 -44.5t-56 -119.5q0 -62 38.5 -101t149.5 -92z" />
    <glyph glyph-name="scaron" unicode="&#x161;" horiz-adv-x="931" 
d="M391 1198l-209 266q-24 27 -24 62q0 36 26 61t60 25q39 0 61 -29l168 -190l166 190q25 29 63 29q34 0 60 -25t26 -61q0 -31 -24 -62l-211 -266q-31 -39 -80 -39q-48 0 -82 39zM565 588q143 -60 209 -128.5t66 -174.5q0 -146 -107 -227t-266 -81q-223 0 -369 156
q-30 27 -30 70q0 38 28 66t68 28q34 0 67 -29q111 -104 236 -104q70 0 116 29t46 83q0 45 -33.5 70t-108.5 55l-102 43q-133 56 -197.5 121t-64.5 172q0 136 100 213.5t254 77.5q194 0 320 -123q32 -28 32 -71q0 -38 -26.5 -65.5t-63.5 -27.5q-25 0 -67 31q-90 70 -199 70
q-63 0 -100 -24.5t-37 -72.5q0 -39 29.5 -63.5t103.5 -54.5z" />
    <glyph glyph-name="uni0162" unicode="&#x162;" horiz-adv-x="1193" 
d="M1071 1352q43 0 71.5 -29t28.5 -70t-28.5 -68.5t-71.5 -27.5h-366v-1046q58 -36 102.5 -111t44.5 -143q0 -112 -81.5 -180t-215.5 -68q-83 0 -121 16q-57 22 -57 74q0 32 23 55t55 23q12 0 35.5 -3t44.5 -3q56 0 93.5 25.5t37.5 72.5q0 49 -41 113q-25 -5 -29 -5
q-46 0 -77.5 32t-31.5 79v1069h-364q-43 0 -71.5 27.5t-28.5 68.5t28.5 70t71.5 29h948z" />
    <glyph glyph-name="uni0163" unicode="&#x163;" horiz-adv-x="815" 
d="M680 174q43 0 68.5 -24t25.5 -62q0 -68 -63 -90q-41 -18 -101 -21q33 -64 33 -120q0 -112 -81.5 -180t-215.5 -68q-83 0 -121 16q-57 22 -57 74q0 32 23 55t55 23q12 0 35.5 -3t44.5 -3q56 0 93.5 25.5t37.5 72.5q0 56 -45 117q-1 2 -8 9.5t-9 12.5q-190 74 -190 320v491
h-80q-40 0 -68 26.5t-28 65.5q0 40 28 67.5t68 27.5h80v176q0 46 31 78t77 32t77.5 -31.5t31.5 -78.5v-176h215q41 0 68.5 -27.5t27.5 -67.5t-27.5 -66t-68.5 -26h-215v-473q0 -92 46.5 -133t149.5 -41q13 0 33.5 1t28.5 1z" />
    <glyph glyph-name="Tcaron" unicode="&#x164;" horiz-adv-x="1193" 
d="M528 1507l-223 222q-24 24 -32.5 38t-8.5 33q0 34 23 57t57 23q30 0 64 -27l190 -178l190 178q34 27 64 27q34 0 57 -23t23 -57q0 -19 -8.5 -33t-32.5 -38l-223 -222q-30 -30 -70 -30t-70 30zM1071 1352q43 0 71.5 -29t28.5 -70t-28.5 -68.5t-71.5 -27.5h-366v-1069
q0 -47 -31.5 -79t-77.5 -32t-77.5 32t-31.5 79v1069h-364q-43 0 -71.5 27.5t-28.5 68.5t28.5 70t71.5 29h948z" />
    <glyph glyph-name="tcaron" unicode="&#x165;" horiz-adv-x="815" 
d="M752 1577q52 0 86.5 -42t15.5 -105l-66 -265q-8 -27 -30.5 -49t-61.5 -22q-43 0 -72 33.5t-22 84.5l39 265q5 41 36.5 70.5t74.5 29.5zM680 174q43 0 68.5 -24t25.5 -62q0 -68 -63 -90q-53 -21 -136 -21q-180 0 -275 90.5t-95 260.5v491h-80q-40 0 -68 26.5t-28 65.5
q0 40 28 67.5t68 27.5h80v176q0 46 31 78t77 32t77.5 -31.5t31.5 -78.5v-176h215q41 0 68.5 -27.5t27.5 -67.5t-27.5 -66t-68.5 -26h-215v-473q0 -92 46.5 -133t149.5 -41q13 0 33.5 1t28.5 1z" />
    <glyph glyph-name="Tbar" unicode="&#x166;" horiz-adv-x="1193" 
d="M596 -23q-46 0 -77.5 32t-31.5 79v412h-299q-39 0 -65.5 26.5t-26.5 65.5q0 38 26 64t66 26h299v475h-364q-43 0 -71.5 27.5t-28.5 68.5t28.5 70t71.5 29h948q43 0 71.5 -29t28.5 -70t-28.5 -68.5t-71.5 -27.5h-366v-475h301q40 0 66 -26t26 -64q0 -39 -26.5 -65.5
t-65.5 -26.5h-301v-412q0 -47 -31.5 -79t-77.5 -32z" />
    <glyph glyph-name="tbar" unicode="&#x167;" horiz-adv-x="843" 
d="M700 174q43 0 69 -24t26 -62q0 -67 -64 -92q-55 -19 -141 -19q-180 0 -274.5 90.5t-94.5 260.5v98h-82q-38 0 -64 25.5t-26 62.5q0 38 26 64t64 26h82v221h-82q-38 0 -64 26t-26 64q0 37 26 63t64 26h82v178q0 46 31 78t78 32q45 0 75.5 -31.5t30.5 -78.5v-178h226
q38 0 64 -26t26 -63q0 -38 -26 -64t-64 -26h-226v-221h226q38 0 64 -26t26 -64q0 -37 -26 -62.5t-64 -25.5h-226v-80q0 -92 47 -133t150 -41q13 0 36 1t31 1z" />
    <glyph glyph-name="Utilde" unicode="&#x168;" horiz-adv-x="1421" 
d="M428 1493q-40 0 -65 26.5t-25 69.5q0 101 59 167.5t148 66.5q76 0 147 -45l68 -41q5 -3 16.5 -9.5t16 -9t13.5 -7t14.5 -6.5t13 -3.5t14.5 -1.5q52 0 61 57q4 34 27 54t57 20q40 0 65 -26.5t25 -67.5q0 -103 -59 -169.5t-150 -66.5q-71 0 -147 45l-65 41q-5 3 -20 11.5
t-20.5 11t-16 7t-18.5 6t-16 1.5q-53 0 -59 -57q-6 -34 -28.5 -54t-55.5 -20zM713 -23q-253 0 -405 156t-152 414v717q0 47 31 78.5t77 31.5q47 0 78 -31.5t31 -78.5v-732q0 -164 91.5 -260t248.5 -96q155 0 245.5 96t90.5 260v732q0 47 30.5 78.5t77.5 31.5
q46 0 77.5 -31.5t31.5 -78.5v-717q0 -258 -152 -414t-401 -156z" />
    <glyph glyph-name="utilde" unicode="&#x169;" horiz-adv-x="1167" 
d="M739 1202q-79 0 -145 51l-55 41q-33 27 -49.5 36t-34.5 9q-52 0 -58 -61q-6 -35 -29 -55.5t-55 -20.5q-39 0 -63.5 27.5t-24.5 70.5q0 104 57.5 169t147.5 65q75 0 143 -49l54 -41q38 -28 53.5 -36.5t32.5 -8.5q48 0 57 61q6 35 29 55.5t55 20.5q39 0 63.5 -27.5
t24.5 -70.5q0 -103 -57 -169.5t-146 -66.5zM586 -23q-195 0 -318 124t-123 321v496q0 47 30.5 78.5t76.5 31.5t76 -31.5t30 -78.5v-512q0 -100 64 -165t164 -65q97 0 159 65t62 165v512q0 47 30.5 78.5t77.5 31.5q46 0 76.5 -31.5t30.5 -78.5v-496q0 -196 -122 -320.5
t-314 -124.5z" />
    <glyph glyph-name="Umacron" unicode="&#x16a;" horiz-adv-x="1421" 
d="M950 1737q37 0 62.5 -24.5t25.5 -61.5t-25.5 -62.5t-62.5 -25.5h-477q-38 0 -64 25.5t-26 62.5t26 61.5t64 24.5h477zM713 -23q-253 0 -405 156t-152 414v717q0 47 31 78.5t77 31.5q47 0 78 -31.5t31 -78.5v-732q0 -164 91.5 -260t248.5 -96q155 0 245.5 96t90.5 260v732
q0 47 30.5 78.5t77.5 31.5q46 0 77.5 -31.5t31.5 -78.5v-717q0 -258 -152 -414t-401 -156z" />
    <glyph glyph-name="umacron" unicode="&#x16b;" horiz-adv-x="1167" 
d="M801 1466q39 0 64.5 -24.5t25.5 -61.5t-25.5 -61.5t-64.5 -24.5h-434q-38 0 -64.5 24.5t-26.5 61.5t26.5 61.5t64.5 24.5h434zM586 -23q-195 0 -318 124t-123 321v496q0 47 30.5 78.5t76.5 31.5t76 -31.5t30 -78.5v-512q0 -100 64 -165t164 -65q97 0 159 65t62 165v512
q0 47 30.5 78.5t77.5 31.5q46 0 76.5 -31.5t30.5 -78.5v-496q0 -196 -122 -320.5t-314 -124.5z" />
    <glyph glyph-name="Ubreve" unicode="&#x16c;" horiz-adv-x="1421" 
d="M711 1493q-128 0 -227 82t-99 190q0 37 24.5 62.5t61.5 25.5q58 0 84 -71q19 -60 59.5 -92.5t96.5 -32.5q58 0 99 33t58 92q24 71 82 71q38 0 62 -25.5t24 -62.5q0 -107 -98 -189.5t-227 -82.5zM713 -23q-253 0 -405 156t-152 414v717q0 47 31 78.5t77 31.5
q47 0 78 -31.5t31 -78.5v-732q0 -164 91.5 -260t248.5 -96q155 0 245.5 96t90.5 260v732q0 47 30.5 78.5t77.5 31.5q46 0 77.5 -31.5t31.5 -78.5v-717q0 -258 -152 -414t-401 -156z" />
    <glyph glyph-name="ubreve" unicode="&#x16d;" horiz-adv-x="1167" 
d="M584 1182q-132 0 -231 90t-99 207q0 38 24.5 65t61.5 27q70 0 86 -76q9 -63 53.5 -103t104.5 -40q61 0 104.5 40t54.5 103q8 35 30 55.5t54 20.5q37 0 62.5 -27t25.5 -65q0 -121 -97.5 -209t-233.5 -88zM586 -23q-195 0 -318 124t-123 321v496q0 47 30.5 78.5t76.5 31.5
t76 -31.5t30 -78.5v-512q0 -100 64 -165t164 -65q97 0 159 65t62 165v512q0 47 30.5 78.5t77.5 31.5q46 0 76.5 -31.5t30.5 -78.5v-496q0 -196 -122 -320.5t-314 -124.5z" />
    <glyph glyph-name="Uring" unicode="&#x16e;" horiz-adv-x="1421" 
d="M709 1878q104 0 173.5 -68t69.5 -168q0 -101 -69.5 -168t-173.5 -67q-103 0 -172.5 67.5t-69.5 167.5t70.5 168t171.5 68zM711 1737q-40 0 -67.5 -27t-27.5 -68q0 -40 27.5 -67t67.5 -27t66 27t26 67t-26.5 67.5t-65.5 27.5zM713 -23q-253 0 -405 156t-152 414v717
q0 47 31 78.5t77 31.5q47 0 78 -31.5t31 -78.5v-732q0 -164 91.5 -260t248.5 -96q155 0 245.5 96t90.5 260v732q0 47 30.5 78.5t77.5 31.5q46 0 77.5 -31.5t31.5 -78.5v-717q0 -258 -152 -414t-401 -156z" />
    <glyph glyph-name="uring" unicode="&#x16f;" horiz-adv-x="1167" 
d="M582 1614q104 0 173.5 -67.5t69.5 -168.5q0 -100 -69.5 -167.5t-173.5 -67.5q-102 0 -172 68t-70 167q0 100 69.5 168t172.5 68zM584 1473q-40 0 -67.5 -27t-27.5 -68q0 -39 27.5 -65.5t67.5 -26.5t66 26t26 66t-27 67.5t-65 27.5zM586 -23q-195 0 -318 124t-123 321v496
q0 47 30.5 78.5t76.5 31.5t76 -31.5t30 -78.5v-512q0 -100 64 -165t164 -65q97 0 159 65t62 165v512q0 47 30.5 78.5t77.5 31.5q46 0 76.5 -31.5t30.5 -78.5v-496q0 -196 -122 -320.5t-314 -124.5z" />
    <glyph glyph-name="Uhungarumlaut" unicode="&#x170;" horiz-adv-x="1421" 
d="M526 1481q-56 3 -80 51.5t0 89.5l119 229q34 62 105 58q61 -3 89 -59.5t-9 -112.5l-138 -209q-34 -47 -86 -47zM932 1481q-56 3 -80 51.5t0 89.5l119 229q34 62 104 58q61 -3 89 -59.5t-9 -112.5l-137 -209q-34 -47 -86 -47zM713 -23q-253 0 -405 156t-152 414v717
q0 47 31 78.5t77 31.5q47 0 78 -31.5t31 -78.5v-732q0 -164 91.5 -260t248.5 -96q155 0 245.5 96t90.5 260v732q0 47 30.5 78.5t77.5 31.5q46 0 77.5 -31.5t31.5 -78.5v-717q0 -258 -152 -414t-401 -156z" />
    <glyph glyph-name="uhungarumlaut" unicode="&#x171;" horiz-adv-x="1167" 
d="M430 1155q-42 1 -69 29.5t-25 66.5q0 21 14 49l111 256q12 28 41 46t61 18q44 0 75.5 -32.5t31.5 -78.5q0 -24 -17 -57l-137 -242q-33 -58 -86 -55zM791 1155q-42 1 -69.5 29.5t-25.5 66.5q0 19 15 49l110 256q12 28 41.5 46t61.5 18q44 0 75 -32.5t31 -78.5
q0 -26 -16 -57l-137 -242q-33 -58 -86 -55zM586 -23q-195 0 -318 124t-123 321v496q0 47 30.5 78.5t76.5 31.5t76 -31.5t30 -78.5v-512q0 -100 64 -165t164 -65q97 0 159 65t62 165v512q0 47 30.5 78.5t77.5 31.5q46 0 76.5 -31.5t30.5 -78.5v-496q0 -196 -122 -320.5
t-314 -124.5z" />
    <glyph glyph-name="Uogonek" unicode="&#x172;" horiz-adv-x="1421" 
d="M885 -391q-105 0 -169.5 51t-64.5 135q0 46 33.5 98t89.5 93q-40 -9 -74 -9q-243 0 -393.5 157.5t-150.5 412.5v717q0 47 31 78.5t77 31.5q47 0 78 -31.5t31 -78.5v-732q0 -164 91.5 -260t248.5 -96q155 0 245.5 96t90.5 260v732q0 47 30.5 78.5t77.5 31.5
q46 0 77.5 -31.5t31.5 -78.5v-717q0 -136 -48.5 -252t-138.5 -195l-71 -63q-40 -36 -58 -53.5t-42.5 -45t-34.5 -51.5t-11 -49q-3 -67 84 -67q8 0 27 2t24 2q29 0 48.5 -20.5t19.5 -51.5q0 -60 -59 -78q-50 -16 -121 -16z" />
    <glyph glyph-name="uogonek" unicode="&#x173;" horiz-adv-x="1167" 
d="M915 1028q46 0 76.5 -31.5t30.5 -78.5v-496q0 -110 -41 -200.5t-115 -151.5l-110 -101q-88 -76 -88 -133q0 -31 24.5 -48t65.5 -17q8 0 27 2t24 2q29 0 49.5 -20.5t20.5 -51.5q0 -62 -66 -80q-41 -14 -115 -14q-106 0 -169.5 52t-63.5 138q0 90 88 178
q-182 12 -295 134.5t-113 310.5v496q0 47 30.5 78.5t76.5 31.5t76 -31.5t30 -78.5v-512q0 -100 64 -165t164 -65q97 0 159 65t62 165v512q0 47 30.5 78.5t77.5 31.5z" />
    <glyph glyph-name="Wcircumflex" unicode="&#x174;" horiz-adv-x="2152" 
d="M821 1477q-34 0 -57 22.5t-23 56.5q0 19 9 34t32 38l224 221q31 31 69 31q39 0 70 -31l223 -221q23 -23 32 -38t9 -34q0 -34 -23 -56.5t-57 -22.5q-30 0 -63 26l-191 178l-190 -178q-33 -26 -64 -26zM1950 1374q46 0 77 -31t31 -75q0 -24 -14 -62l-426 -1157
q-26 -72 -100 -72q-77 0 -103 72l-338 952l-338 -952q-26 -72 -102 -72q-73 0 -102 72l-426 1157q-13 35 -13 62q0 45 31 75.5t78 30.5q35 0 62.5 -18.5t37.5 -50.5l336 -943l332 934q12 37 39.5 57.5t64.5 20.5t65 -20.5t40 -57.5l331 -934l334 941q12 33 39.5 52t63.5 19z
" />
    <glyph glyph-name="wcircumflex" unicode="&#x175;" horiz-adv-x="1746" 
d="M641 1159q-34 0 -60 25t-26 61q0 34 25 62l208 266q34 39 82 39q49 0 80 -39l211 -266q25 -32 25 -62q0 -36 -26 -61t-60 -25q-39 0 -64 29l-166 190l-168 -190q-22 -29 -61 -29zM1595 1028q43 0 75 -31t32 -73q0 -23 -10 -50l-365 -831q-29 -66 -98 -66
q-31 0 -56.5 17.5t-39.5 46.5l-259 627l-260 -627q-33 -64 -98 -64q-67 0 -96 66l-365 831q-10 27 -10 50q0 43 31 73.5t74 30.5q32 0 58 -17t38 -46l278 -635l246 620q32 78 102 78q74 0 103 -78l248 -620l278 635q12 29 37.5 46t56.5 17z" />
    <glyph glyph-name="Ycircumflex" unicode="&#x176;" horiz-adv-x="1271" 
d="M375 1477q-34 0 -57 22.5t-23 56.5q0 19 9 34t32 38l223 221q31 31 70 31q38 0 69 -31l224 -221q23 -23 32 -38t9 -34q0 -34 -23 -56.5t-57 -22.5q-31 0 -64 26l-190 178l-191 -178q-33 -26 -63 -26zM1184 1270q0 -36 -25 -76l-416 -676v-430q0 -47 -31 -79t-77 -32
t-77.5 32t-31.5 79v434l-413 672q-25 43 -25 78q0 44 31 73t76 29q36 0 60 -14.5t44 -48.5l336 -570l338 570q40 63 104 63q46 0 76.5 -30t30.5 -74z" />
    <glyph glyph-name="ycircumflex" unicode="&#x177;" horiz-adv-x="1124" 
d="M328 1159q-34 0 -60 25t-26 61q0 35 24 62l209 266q34 39 82 39q49 0 80 -39l211 -266q24 -31 24 -62q0 -36 -26 -61t-60 -25q-38 0 -63 29l-166 190l-168 -190q-22 -29 -61 -29zM971 1028q42 0 73 -31t31 -73q0 -30 -10 -50l-463 -968q-75 -157 -167 -227t-224 -70
q-55 0 -96 12q-30 9 -48 34t-18 56q0 38 29 66t69 28q9 0 22 -1t19 -1q71 0 122 35.5t87 112.5l45 96l-372 825q-13 35 -13 52q0 41 32 72.5t75 31.5q33 0 59.5 -17t38.5 -46l301 -676l309 676q12 28 39.5 45.5t59.5 17.5z" />
    <glyph glyph-name="Ydieresis" unicode="&#x178;" horiz-adv-x="1271" 
d="M379 1530q-55 0 -97 40t-42 93q0 56 42 94.5t97 38.5q57 0 97 -38t40 -95q0 -54 -40 -93.5t-97 -39.5zM879 1528q-53 0 -95.5 40t-42.5 93q0 56 42 95.5t96 39.5q59 0 99 -39t40 -96q0 -54 -40.5 -93.5t-98.5 -39.5zM1184 1270q0 -36 -25 -76l-416 -676v-430
q0 -47 -31 -79t-77 -32t-77.5 32t-31.5 79v434l-413 672q-25 43 -25 78q0 44 31 73t76 29q36 0 60 -14.5t44 -48.5l336 -570l338 570q40 63 104 63q46 0 76.5 -30t30.5 -74z" />
    <glyph glyph-name="Zacute" unicode="&#x179;" horiz-adv-x="1204" 
d="M645 1481q-56 3 -80 51.5t0 89.5l119 229q34 62 104 58q61 -3 89 -59.5t-9 -112.5l-137 -209q-34 -47 -86 -47zM1053 195q43 0 71.5 -28t28.5 -69t-28.5 -69.5t-71.5 -28.5h-897q-43 0 -73 28.5t-30 69.5q0 28 33 72l756 987h-611q-43 0 -71.5 27.5t-28.5 68.5t28.5 70
t71.5 29h809q41 0 71 -29t30 -70q0 -27 -31 -69l-756 -989h699z" />
    <glyph glyph-name="zacute" unicode="&#x17a;" horiz-adv-x="944" 
d="M524 1155q-42 1 -69 29.5t-25 66.5q0 21 14 49l111 256q12 28 41 46t61 18q44 0 75.5 -32.5t31.5 -78.5q0 -26 -16 -57l-138 -242q-33 -58 -86 -55zM817 186q40 0 67 -26.5t27 -67.5q0 -38 -27 -65t-67 -27h-676q-38 0 -66 27t-28 65q0 37 41 86l514 641h-426
q-40 0 -67 26t-27 66t27 67.5t67 27.5h625q39 0 66.5 -27t27.5 -66q0 -35 -35 -79l-518 -648h475z" />
    <glyph glyph-name="Zdotaccent" unicode="&#x17b;" horiz-adv-x="1204" 
d="M614 1524q-60 0 -101.5 40.5t-41.5 98.5t41.5 98.5t101.5 40.5q59 0 101.5 -40.5t42.5 -98.5t-42.5 -98.5t-101.5 -40.5zM1053 195q43 0 71.5 -28t28.5 -69t-28.5 -69.5t-71.5 -28.5h-897q-43 0 -73 28.5t-30 69.5q0 28 33 72l756 987h-611q-43 0 -71.5 27.5t-28.5 68.5
t28.5 70t71.5 29h809q41 0 71 -29t30 -70q0 -27 -31 -69l-756 -989h699z" />
    <glyph glyph-name="zdotaccent" unicode="&#x17c;" horiz-adv-x="944" 
d="M487 1241q-60 0 -101.5 40.5t-41.5 98.5q0 59 41.5 99.5t101.5 40.5q59 0 101.5 -41t42.5 -99t-42.5 -98.5t-101.5 -40.5zM817 186q40 0 67 -26.5t27 -67.5q0 -38 -27 -65t-67 -27h-676q-38 0 -66 27t-28 65q0 37 41 86l514 641h-426q-40 0 -67 26t-27 66t27 67.5
t67 27.5h625q39 0 66.5 -27t27.5 -66q0 -35 -35 -79l-518 -648h475z" />
    <glyph glyph-name="Zcaron" unicode="&#x17d;" horiz-adv-x="1204" 
d="M545 1507l-223 222q-24 24 -32.5 38t-8.5 33q0 34 22.5 57t56.5 23q30 0 64 -27l190 -178l191 178q35 27 63 27q34 0 57 -23t23 -57q0 -19 -8.5 -33t-32.5 -38l-223 -222q-30 -30 -70 -30q-39 0 -69 30zM1053 195q43 0 71.5 -28t28.5 -69t-28.5 -69.5t-71.5 -28.5h-897
q-43 0 -73 28.5t-30 69.5q0 28 33 72l756 987h-611q-43 0 -71.5 27.5t-28.5 68.5t28.5 70t71.5 29h809q41 0 71 -29t30 -70q0 -27 -31 -69l-756 -989h699z" />
    <glyph glyph-name="zcaron" unicode="&#x17e;" horiz-adv-x="944" 
d="M406 1198l-209 266q-25 28 -25 62q0 36 26 61t60 25q39 0 61 -29l168 -190l166 190q25 29 64 29q34 0 60 -25t26 -61q0 -30 -25 -62l-211 -266q-31 -39 -80 -39q-47 0 -81 39zM817 186q40 0 67 -26.5t27 -67.5q0 -38 -27 -65t-67 -27h-676q-38 0 -66 27t-28 65
q0 37 41 86l514 641h-426q-40 0 -67 26t-27 66t27 67.5t67 27.5h625q39 0 66.5 -27t27.5 -66q0 -35 -35 -79l-518 -648h475z" />
    <glyph glyph-name="uni018F" unicode="&#x18f;" horiz-adv-x="1499" 
d="M719 1374q143 0 271 -54t219.5 -146.5t145.5 -221.5t54 -272q0 -145 -55 -275.5t-148 -224t-222.5 -148.5t-272.5 -55q-132 0 -248 46.5t-198 126.5t-129.5 193.5t-47.5 242.5q0 32 4 57q3 45 31.5 75t69.5 30h991q-22 188 -151 308t-314 120q-110 0 -209 -46t-168 -129
q-25 -29 -45.5 -41t-46.5 -12q-41 0 -68.5 27.5t-27.5 68.5q0 37 36 78q99 123 235.5 187.5t293.5 64.5zM717 176q172 0 297.5 105.5t161.5 275.5h-875q2 -167 118 -274t298 -107z" />
    <glyph glyph-name="florin" unicode="&#x192;" horiz-adv-x="915" 
d="M778 1374q160 0 160 -102q0 -41 -26 -66.5t-66 -25.5h-31q-88 0 -135 -40t-59 -134l-23 -183h117q41 0 68.5 -26t27.5 -66t-27.5 -67t-68.5 -27h-140l-67 -559q-45 -350 -371 -350q-153 0 -153 100q0 40 27 68t65 28q7 0 22 -1t23 -1q68 0 115.5 41.5t58.5 132.5l65 541
h-69q-40 0 -68 27t-28 67q0 39 28 65.5t68 26.5h92l25 201q42 350 370 350z" />
    <glyph glyph-name="uni01D4" unicode="&#x1d4;" horiz-adv-x="1167" 
d="M502 1198l-209 266q-25 28 -25 62q0 36 26 61t60 25q40 0 62 -29l168 -190l166 190q25 29 63 29q34 0 60 -25t26 -61q0 -30 -25 -62l-210 -266q-31 -39 -80 -39q-48 0 -82 39zM915 1028q46 0 76.5 -31.5t30.5 -78.5v-496q0 -196 -122 -320.5t-314 -124.5q-195 0 -318 124
t-123 321v496q0 47 30.5 78.5t76.5 31.5t76 -31.5t30 -78.5v-512q0 -100 64 -165t164 -65q97 0 159 65t62 165v512q0 47 30.5 78.5t77.5 31.5z" />
    <glyph glyph-name="AEacute" unicode="&#x1fc;" horiz-adv-x="1714" 
d="M889 1481q-56 3 -80 51.5t0 89.5l119 229q34 62 104 58q61 -3 89 -59.5t-9 -112.5l-137 -209q-34 -47 -86 -47zM1544 195q43 0 72 -28t29 -69t-29.5 -69.5t-71.5 -28.5h-508q-40 0 -70 25t-36 63l-23 137h-536l-95 -180q-35 -68 -96 -68q-46 0 -76 29t-30 72q0 29 12 53
l594 1147q38 74 117 74h723q42 0 71 -29t29 -70t-29 -68.5t-71 -27.5h-551l57 -346h332q41 0 68.5 -27t27.5 -67t-27.5 -67t-68.5 -27h-301l71 -428h416zM776 1034l-309 -622h407z" />
    <glyph glyph-name="aeacute" unicode="&#x1fd;" horiz-adv-x="1816" 
d="M915 1155q-42 1 -69 29.5t-25 66.5q0 19 15 49l110 256q12 28 41.5 46t61.5 18q44 0 75 -32.5t31 -78.5q0 -26 -16 -57l-138 -242q-33 -58 -86 -55zM1262 1028q201 0 331.5 -132t130.5 -335v-18q0 -60 -31.5 -92.5t-90.5 -32.5h-641q25 -116 111.5 -183t213.5 -67
q140 0 236 78q29 20 55 20q40 0 66 -26t26 -64q0 -28 -12 -48t-43 -42q-136 -109 -332 -109q-137 0 -250 60t-182 164q-54 -106 -160.5 -165t-245.5 -59q-165 0 -263.5 80.5t-98.5 214.5q0 138 101 219.5t270 81.5h284v48q0 102 -56.5 158.5t-158.5 56.5q-120 0 -223 -95
q-38 -32 -72 -32q-37 0 -65.5 27.5t-28.5 64.5q0 43 43 86q63 68 158 104.5t207 36.5q118 0 205 -46.5t133 -133.5q68 86 167.5 133t215.5 47zM958 573h551q6 120 -65.5 196.5t-190.5 76.5q-115 0 -195.5 -75.5t-99.5 -197.5zM477 145q109 0 184.5 68t75.5 166v39h-258
q-178 0 -178 -129q0 -66 47.5 -105t128.5 -39z" />
    <glyph glyph-name="Oslashacute" unicode="&#x1fe;" horiz-adv-x="1599" 
d="M831 1481q-56 3 -79.5 51.5t0.5 89.5l118 229q34 62 105 58q61 -3 89 -59.5t-9 -112.5l-137 -209q-34 -47 -87 -47zM1360 1106q149 -185 149 -430q0 -144 -55.5 -273.5t-150 -223t-226.5 -148t-278 -54.5q-237 0 -428 138l-105 -105q-33 -33 -73 -33q-37 0 -64 27t-27 64
q0 40 33 73l103 103q-148 191 -148 432q0 192 94 352.5t257 253t358 92.5q240 0 428 -139l106 106q33 33 74 33q37 0 63.5 -26.5t26.5 -63.5q0 -41 -31 -72zM305 678q0 -162 80 -287l702 705q-128 88 -286 88q-214 0 -355 -144t-141 -362zM801 168q212 0 352.5 145
t140.5 365q0 158 -80 283l-702 -705q128 -88 289 -88z" />
    <glyph glyph-name="oslashacute" unicode="&#x1ff;" horiz-adv-x="1263" 
d="M670 1155q-42 1 -69.5 29.5t-25.5 66.5q0 19 15 49l110 256q12 28 41.5 46t61.5 18q44 0 75 -32.5t31 -78.5q0 -26 -16 -57l-137 -242q-33 -58 -86 -55zM1145 885l-78 -78q96 -135 96 -305q0 -143 -71 -264t-194 -191t-269 -70q-165 0 -301 93l-78 -80q-38 -35 -74 -35
q-38 0 -65 28t-27 66q0 40 35 72l76 76q-97 137 -97 305q0 145 71 266t193.5 190.5t268.5 69.5q164 0 303 -92l78 78q35 35 71 35q38 0 66.5 -28t28.5 -65q0 -38 -33 -71zM631 842q-143 0 -235.5 -95.5t-92.5 -244.5q0 -101 43 -174l463 465q-81 49 -178 49zM629 160
q141 0 235 97.5t94 244.5q0 98 -40 174l-467 -465q79 -51 178 -51z" />
    <glyph glyph-name="Scommaaccent" unicode="&#x218;" horiz-adv-x="1144" 
d="M584 -23q-127 0 -249 56t-200 151q-33 38 -33 76q0 42 30 70t71 28q40 0 65 -28q133 -158 314 -158q107 0 170 51.5t63 136.5q0 65 -42.5 107.5t-156.5 95.5l-149 70q-163 76 -239 165.5t-76 209.5q0 159 121 262.5t305 103.5q229 3 376 -160q33 -36 33 -77
q0 -38 -30.5 -67.5t-69.5 -29.5q-34 0 -66 29q-111 111 -243 111q-93 0 -149 -44.5t-56 -119.5q0 -62 38.5 -101t149.5 -92l152 -69q171 -79 247 -168t76 -217q0 -175 -127 -283.5t-325 -108.5zM547 -485q-37 0 -65.5 27.5t-28.5 62.5q0 15 13 74t13 122q0 44 32.5 76.5
t76.5 32.5t76 -32.5t32 -76.5q0 -60 -17.5 -121.5t-39.5 -97.5q-38 -67 -92 -67z" />
    <glyph glyph-name="scommaaccent" unicode="&#x219;" horiz-adv-x="931" 
d="M467 -23q-223 0 -369 156q-30 27 -30 70q0 38 28 66t68 28q34 0 67 -29q111 -104 236 -104q70 0 116 29t46 83q0 45 -33.5 70t-108.5 55l-102 43q-133 56 -197.5 121t-64.5 172q0 136 100 213.5t254 77.5q194 0 320 -123q32 -28 32 -71q0 -38 -26.5 -65.5t-63.5 -27.5
q-25 0 -67 31q-90 70 -199 70q-63 0 -100 -24.5t-37 -72.5q0 -39 29.5 -63.5t103.5 -54.5l96 -39q143 -60 209 -128.5t66 -174.5q0 -146 -107 -227t-266 -81zM444 -485q-37 0 -65.5 27.5t-28.5 62.5q0 15 13.5 74t13.5 122q0 44 32 76.5t76 32.5t76.5 -32.5t32.5 -76.5
q0 -60 -17.5 -121.5t-39.5 -97.5q-38 -67 -93 -67z" />
    <glyph glyph-name="uni021A" unicode="&#x21a;" horiz-adv-x="1193" 
d="M596 -23q-46 0 -77.5 32t-31.5 79v1069h-364q-43 0 -71.5 27.5t-28.5 68.5t28.5 70t71.5 29h948q43 0 71.5 -29t28.5 -70t-28.5 -68.5t-71.5 -27.5h-366v-1069q0 -47 -31.5 -79t-77.5 -32zM551 -485q-37 0 -65.5 27.5t-28.5 62.5q0 15 13 74t13 122q0 44 32.5 76.5
t76.5 32.5t76 -32.5t32 -76.5q0 -60 -17.5 -121.5t-39.5 -97.5q-38 -67 -92 -67z" />
    <glyph glyph-name="uni021B" unicode="&#x21b;" horiz-adv-x="815" 
d="M680 174q43 0 68.5 -24t25.5 -62q0 -68 -63 -90q-53 -21 -136 -21q-180 0 -275 90.5t-95 260.5v491h-80q-40 0 -68 26.5t-28 65.5q0 40 28 67.5t68 27.5h80v176q0 46 31 78t77 32t77.5 -31.5t31.5 -78.5v-176h215q41 0 68.5 -27.5t27.5 -67.5t-27.5 -66t-68.5 -26h-215
v-473q0 -92 46.5 -133t149.5 -41q13 0 33.5 1t28.5 1zM459 -90q44 0 76 -32.5t32 -76.5q0 -60 -17.5 -121.5t-39.5 -97.5q-38 -67 -92 -67q-37 0 -65.5 27.5t-28.5 62.5q0 15 13 74t13 122q0 44 32.5 76.5t76.5 32.5z" />
    <glyph glyph-name="uni0237" unicode="&#x237;" horiz-adv-x="526" 
d="M18 -391q-54 0 -94 12q-35 9 -56.5 33t-21.5 57q0 40 27.5 67t67.5 27q7 0 19 -1t20 -1q84 0 130 41.5t46 143.5v930q0 47 30.5 78.5t77.5 31.5q46 0 76.5 -31.5t30.5 -78.5v-959q0 -173 -94.5 -261.5t-258.5 -88.5z" />
    <glyph glyph-name="uni0259" unicode="&#x259;" horiz-adv-x="1167" 
d="M535 1028q233 0 386.5 -149t153.5 -375q0 -146 -68 -267t-187 -190.5t-263 -69.5q-201 0 -334 132.5t-133 334.5v11q0 55 33 86.5t90 31.5h643q-22 123 -109 194t-219 71q-131 0 -235 -78q-32 -21 -55 -21q-38 0 -64.5 26t-26.5 64q0 51 54 91q144 108 334 108zM563 160
q108 0 186 67.5t103 178.5h-547q3 -109 74 -177.5t184 -68.5z" />
    <glyph glyph-name="circumflex" unicode="&#x2c6;" horiz-adv-x="815" 
d="M698 1307q25 -32 25 -62q0 -36 -26 -61t-60 -25q-39 0 -64 29l-165 190l-168 -190q-22 -29 -62 -29q-34 0 -60 25t-26 61q0 34 25 62l209 266q34 39 82 39t79 -39z" />
    <glyph glyph-name="caron" unicode="&#x2c7;" horiz-adv-x="815" 
d="M637 1612q34 0 60 -25t26 -61q0 -30 -25 -62l-211 -266q-31 -39 -79 -39t-82 39l-209 266q-25 28 -25 62q0 36 26 61t60 25q40 0 62 -29l168 -190l165 190q25 29 64 29z" />
    <glyph glyph-name="breve" unicode="&#x2d8;" horiz-adv-x="788" 
d="M393 1182q-132 0 -231 90t-99 207q0 38 25 65t62 27q70 0 86 -76q9 -63 53 -103t104 -40q61 0 105 40t55 103q8 35 30 55.5t54 20.5q37 0 62.5 -27t25.5 -65q0 -120 -98 -208.5t-234 -88.5z" />
    <glyph glyph-name="dotaccent" unicode="&#x2d9;" horiz-adv-x="417" 
d="M209 1520q59 0 101 -41t42 -99t-42 -98.5t-101 -40.5q-60 0 -101.5 40.5t-41.5 98.5q0 59 41.5 99.5t101.5 40.5z" />
    <glyph glyph-name="ring" unicode="&#x2da;" horiz-adv-x="608" 
d="M303 1614q104 0 174 -67.5t70 -168.5q0 -100 -70 -167.5t-174 -67.5q-102 0 -172 68t-70 167q0 100 69.5 168t172.5 68zM305 1473q-40 0 -67 -27t-27 -68q0 -40 27 -66t67 -26t66 26t26 66t-27 67.5t-65 27.5z" />
    <glyph glyph-name="ogonek" unicode="&#x2db;" horiz-adv-x="518" 
d="M279 -391q-105 0 -168.5 54t-63.5 147q0 72 40 125t130 126q94 74 143 74q28 0 48 -18t20 -43q0 -46 -49 -82q-38 -29 -60.5 -48t-45.5 -50.5t-23 -57.5q0 -28 23 -45.5t67 -17.5q11 0 28.5 1t22.5 1q31 0 50.5 -20.5t19.5 -53.5q0 -60 -66 -78q-41 -14 -116 -14z" />
    <glyph glyph-name="tilde" unicode="&#x2dc;" horiz-adv-x="837" 
d="M575 1202q-79 0 -145 51l-55 41q-33 27 -49.5 36t-34.5 9q-52 0 -58 -61q-6 -35 -28.5 -55.5t-54.5 -20.5q-40 0 -64.5 27.5t-24.5 70.5q0 104 57.5 169t147.5 65q76 0 144 -49l53 -41q38 -28 53.5 -36.5t32.5 -8.5q48 0 57 61q6 35 29 55.5t55 20.5q39 0 63.5 -27.5
t24.5 -70.5q0 -103 -57 -169.5t-146 -66.5z" />
    <glyph glyph-name="hungarumlaut" unicode="&#x2dd;" horiz-adv-x="878" 
d="M207 1155q-42 1 -69 29.5t-25 66.5q0 21 14 49l111 256q12 28 41 46t61 18q44 0 75 -32.5t31 -78.5q0 -26 -16 -57l-137 -242q-33 -58 -86 -55zM567 1155q-42 1 -69 29.5t-25 66.5q0 21 14 49l111 256q12 28 41 46t61 18q44 0 75.5 -32.5t31.5 -78.5q0 -26 -16 -57
l-138 -242q-33 -58 -86 -55z" />
    <glyph glyph-name="uni030C" unicode="&#x30c;" horiz-adv-x="0" 
d="M-205 1094q-43 0 -72 33.5t-22 84.5l39 265q5 41 36 70.5t74 29.5q52 0 87 -42t16 -105l-66 -265q-8 -27 -30.5 -49t-61.5 -22z" />
    <glyph glyph-name="uni0326" unicode="&#x326;" horiz-adv-x="0" 
d="M-209 -485q-37 0 -65.5 27.5t-28.5 62.5q0 15 13.5 74t13.5 122q0 44 32 76.5t76 32.5t76.5 -32.5t32.5 -76.5q0 -60 -17.5 -121.5t-40.5 -97.5q-38 -67 -92 -67z" />
    <glyph glyph-name="dieresistonos" unicode="&#x385;" horiz-adv-x="1134" 
d="M551 1141q-41 0 -70.5 30t-25.5 72l39 309q5 42 33.5 71.5t70.5 29.5q48 0 80.5 -38t23.5 -89l-55 -287q-9 -45 -34.5 -71.5t-61.5 -26.5zM217 1247q-53 0 -95 40t-42 93q0 57 41.5 96.5t95.5 39.5q57 0 97 -39t40 -97q0 -54 -40 -93.5t-97 -39.5zM918 1247
q-53 0 -95.5 40t-42.5 93q0 57 42 96.5t96 39.5q58 0 98.5 -39t40.5 -97q0 -54 -41 -93.5t-98 -39.5z" />
    <glyph glyph-name="Alphatonos" unicode="&#x386;" horiz-adv-x="1357" 
d="M162 1032q-43 0 -72 34t-22 85l38 264q5 41 36.5 71t74.5 30q52 0 86.5 -42.5t15.5 -105.5l-65 -264q-8 -27 -30.5 -49.5t-61.5 -22.5zM1272 143q16 -40 16 -61q0 -43 -31 -74t-75 -31q-72 0 -103 76l-84 191h-637l-79 -191q-28 -76 -103 -76q-44 0 -75 31t-31 74
q0 28 16 61l489 1157q30 74 103 74q74 0 104 -74zM678 1057l-244 -629h484z" />
    <glyph glyph-name="Epsilontonos" unicode="&#x388;" horiz-adv-x="1165" 
d="M-102 1032q-43 0 -72.5 34t-22.5 85l39 264q5 41 36.5 71t74.5 30q52 0 86.5 -42.5t15.5 -105.5l-65 -264q-8 -27 -30.5 -49.5t-61.5 -22.5zM274 0q-44 0 -74 30t-30 74v1143q0 44 30 74.5t74 30.5h695q43 0 71.5 -29t28.5 -70t-28.5 -68.5t-71.5 -27.5h-582v-346h420
q41 0 68.5 -27t27.5 -67t-27.5 -67t-68.5 -27h-420v-428h606q43 0 72 -28t29 -69t-29 -69.5t-72 -28.5h-719z" />
    <glyph glyph-name="Etatonos" unicode="&#x389;" horiz-adv-x="1454" 
d="M-102 1032q-43 0 -72.5 34t-22.5 85l39 264q5 41 36.5 71t74.5 30q52 0 86.5 -42.5t15.5 -105.5l-65 -264q-8 -27 -30.5 -49.5t-61.5 -22.5zM279 -23q-46 0 -77.5 32t-31.5 79v1176q0 47 31 78.5t78 31.5t77.5 -31.5t30.5 -78.5v-451h680v451q0 47 31 78.5t78 31.5
t77.5 -31.5t30.5 -78.5v-1176q0 -47 -31 -79t-77 -32t-77.5 32t-31.5 79v530h-680v-530q0 -47 -31 -79t-77 -32z" />
    <glyph glyph-name="Iotatonos" unicode="&#x38a;" horiz-adv-x="557" 
d="M-102 1032q-43 0 -72.5 34t-22.5 85l39 264q5 41 36.5 71t74.5 30q52 0 86.5 -42.5t15.5 -105.5l-65 -264q-8 -27 -30.5 -49.5t-61.5 -22.5zM279 -23q-46 0 -77.5 32t-31.5 79v1176q0 47 31.5 78.5t77.5 31.5q47 0 77.5 -31.5t30.5 -78.5v-1176q0 -48 -30.5 -79.5
t-77.5 -31.5z" />
    <glyph glyph-name="Omicrontonos" unicode="&#x38c;" horiz-adv-x="1597" 
d="M-31 1032q-43 0 -72 34t-22 85l39 264q5 41 36.5 71t74.5 30q52 0 86.5 -42.5t15.5 -105.5l-66 -264q-8 -27 -30.5 -49.5t-61.5 -22.5zM797 1374q146 0 278 -55t226.5 -148t150 -222.5t55.5 -272.5q0 -144 -55.5 -273.5t-150 -223t-226.5 -148t-278 -54.5
q-195 0 -358 92.5t-257 253t-94 353.5q0 192 94 352.5t257 253t358 92.5zM799 1176q-211 0 -348.5 -141.5t-137.5 -356.5q0 -218 137.5 -360t348.5 -142q209 0 347 142.5t138 359.5q0 214 -138 356t-347 142z" />
    <glyph glyph-name="Upsilontonos" unicode="&#x38e;" horiz-adv-x="1271" 
d="M-162 1516q52 0 87 -42.5t16 -105.5l-66 -264q-8 -27 -30.5 -49.5t-61.5 -22.5q-43 0 -72 34t-22 85l39 264q5 41 36 71t74 30zM1184 1270q0 -36 -25 -76l-416 -676v-430q0 -47 -31 -79t-77 -32t-77.5 32t-31.5 79v434l-413 672q-25 43 -25 78q0 44 31 73t76 29
q36 0 60 -14.5t44 -48.5l336 -570l338 570q40 63 104 63q46 0 76.5 -30t30.5 -74z" />
    <glyph glyph-name="Omegatonos" unicode="&#x38f;" horiz-adv-x="1617" 
d="M23 1516q52 0 86.5 -42.5t15.5 -105.5l-66 -264q-8 -27 -30.5 -49.5t-61.5 -22.5q-43 0 -72 34t-22 85l39 264q5 41 36.5 71t74.5 30zM1409 195q43 0 71.5 -28t28.5 -69t-28.5 -69.5t-71.5 -28.5h-389q-49 0 -83 33t-34 80q0 61 64 100q327 172 327 483
q0 209 -137.5 344.5t-349.5 135.5t-347.5 -134.5t-135.5 -343.5q0 -155 82.5 -278.5t242.5 -206.5q66 -38 66 -100q0 -47 -34.5 -80t-84.5 -33h-387q-43 0 -71.5 28.5t-28.5 69.5t28.5 69t71.5 28h176q-287 195 -287 512q0 186 93.5 339t256 240.5t359.5 87.5t360 -88
t257 -241t94 -338q0 -160 -72.5 -285.5t-224.5 -226.5h188z" />
    <glyph glyph-name="iotadieresistonos" unicode="&#x390;" horiz-adv-x="612" 
d="M248 1141q-41 0 -70.5 30t-25.5 72l38 309q5 42 34 71.5t71 29.5q48 0 80.5 -38t23.5 -89l-55 -287q-9 -45 -34.5 -71.5t-61.5 -26.5zM-86 1247q-53 0 -95 40t-42 93q0 57 41.5 96.5t95.5 39.5q57 0 97 -39t40 -97q0 -54 -40 -93.5t-97 -39.5zM614 1247q-53 0 -95 40
t-42 93q0 57 41.5 96.5t95.5 39.5q58 0 99 -39t41 -97q0 -54 -41.5 -93.5t-98.5 -39.5zM442 -23q-140 0 -216 83t-76 237v621q0 46 31 78t77 32t77.5 -31.5t31.5 -78.5v-603q0 -143 118 -143h15q42 0 69 -24t27 -62q0 -62 -51 -88q-41 -21 -103 -21z" />
    <glyph glyph-name="Alpha" unicode="&#x391;" horiz-adv-x="1357" 
d="M1272 143q16 -40 16 -61q0 -43 -31 -74t-75 -31q-72 0 -103 76l-84 191h-637l-79 -191q-28 -76 -103 -76q-44 0 -75 31t-31 74q0 28 16 61l489 1157q30 74 103 74q74 0 104 -74zM678 1057l-244 -629h484z" />
    <glyph glyph-name="Beta" unicode="&#x392;" horiz-adv-x="1265" 
d="M936 737q119 -38 185.5 -128.5t66.5 -215.5q0 -175 -121.5 -284t-316.5 -109h-467q-49 0 -81 32t-32 81v1126q0 49 32 81t81 32h360q181 0 293.5 -100t112.5 -261q0 -158 -113 -254zM623 1161h-240v-364h240q97 0 151.5 48.5t54.5 135.5q0 86 -54 133t-152 47zM731 190
q110 0 173 55.5t63 153.5t-63 154.5t-173 56.5h-348v-420h348z" />
    <glyph glyph-name="Gamma" unicode="&#x393;" horiz-adv-x="1054" 
d="M279 -23q-46 0 -77.5 32t-31.5 79v1151q0 49 32 81t81 32h632q43 0 72 -29t29 -70t-29 -68.5t-72 -27.5h-528v-1069q0 -47 -31 -79t-77 -32z" />
    <glyph glyph-name="uni0394" unicode="&#x394;" horiz-adv-x="1370" 
d="M1284 168q14 -35 14 -64q0 -43 -31 -73.5t-75 -30.5h-1016q-44 0 -75 30.5t-31 73.5q0 31 16 64l496 1132q30 74 102 74q69 0 104 -74zM684 1061l-356 -866h712z" />
    <glyph glyph-name="Epsilon" unicode="&#x395;" horiz-adv-x="1165" 
d="M274 0q-44 0 -74 30t-30 74v1143q0 44 30 74.5t74 30.5h695q43 0 71.5 -29t28.5 -70t-28.5 -68.5t-71.5 -27.5h-582v-346h420q41 0 68.5 -27t27.5 -67t-27.5 -67t-68.5 -27h-420v-428h606q43 0 72 -28t29 -69t-29 -69.5t-72 -28.5h-719z" />
    <glyph glyph-name="Zeta" unicode="&#x396;" horiz-adv-x="1204" 
d="M1053 195q43 0 71.5 -28t28.5 -69t-28.5 -69.5t-71.5 -28.5h-897q-43 0 -73 28.5t-30 69.5q0 28 33 72l756 987h-611q-43 0 -71.5 27.5t-28.5 68.5t28.5 70t71.5 29h809q41 0 71 -29t30 -70q0 -27 -31 -69l-756 -989h699z" />
    <glyph glyph-name="Eta" unicode="&#x397;" horiz-adv-x="1454" 
d="M279 -23q-46 0 -77.5 32t-31.5 79v1176q0 47 31 78.5t78 31.5t77.5 -31.5t30.5 -78.5v-451h680v451q0 47 31 78.5t78 31.5t77.5 -31.5t30.5 -78.5v-1176q0 -47 -31 -79t-77 -32t-77.5 32t-31.5 79v530h-680v-530q0 -47 -31 -79t-77 -32z" />
    <glyph glyph-name="Theta" unicode="&#x398;" horiz-adv-x="1597" 
d="M797 1374q146 0 278 -55t226.5 -148t150 -222.5t55.5 -272.5q0 -144 -55.5 -273.5t-150 -223t-226.5 -148t-278 -54.5q-195 0 -358 92.5t-257 253t-94 353.5q0 192 94 352.5t257 253t358 92.5zM797 1186q-215 0 -355.5 -145t-140.5 -365q0 -221 140.5 -365.5
t355.5 -144.5t357 145t142 365q0 219 -142 364.5t-357 145.5zM991 782q40 0 67 -26t27 -66q0 -38 -27 -64t-67 -26h-387q-38 0 -65 26t-27 64q0 39 26.5 65.5t65.5 26.5h387z" />
    <glyph glyph-name="Iota" unicode="&#x399;" horiz-adv-x="557" 
d="M279 -23q-46 0 -77.5 32t-31.5 79v1176q0 47 31.5 78.5t77.5 31.5q47 0 77.5 -31.5t30.5 -78.5v-1176q0 -48 -30.5 -79.5t-77.5 -31.5z" />
    <glyph glyph-name="Kappa" unicode="&#x39a;" horiz-adv-x="1333" 
d="M279 1374q46 0 77 -31.5t31 -78.5v-1176q0 -47 -31 -79t-77 -32t-77.5 32t-31.5 79v1176q0 47 31 78.5t78 31.5zM1202 150q35 -35 35 -72q0 -41 -30 -71t-70 -30q-48 0 -88 43l-580 627q-33 38 -33 74q0 34 33 72l539 542q39 39 79 39q41 0 70 -28.5t29 -69.5
q0 -40 -37 -80l-473 -475z" />
    <glyph glyph-name="Lambda" unicode="&#x39b;" horiz-adv-x="1370" 
d="M1284 143q14 -32 14 -61q0 -43 -31 -74t-75 -31q-71 0 -102 76l-406 961l-405 -961q-31 -76 -103 -76q-44 0 -75 31t-31 74q0 30 16 61l496 1157q30 74 102 74q69 0 104 -74z" />
    <glyph glyph-name="Mu" unicode="&#x39c;" horiz-adv-x="1622" 
d="M1348 1374q44 0 74 -31.5t30 -78.5v-1176q0 -47 -31.5 -79t-77.5 -32t-77 32t-31 79v823l-315 -495q-25 -38 -50 -55t-59 -17q-65 0 -109 72l-315 495v-823q0 -47 -31 -79t-77 -32t-77.5 32t-31.5 79v1176q0 47 30 78.5t74 31.5q36 0 62.5 -19t56.5 -69l418 -655l418 655
q30 50 56.5 69t62.5 19z" />
    <glyph glyph-name="Nu" unicode="&#x39d;" horiz-adv-x="1454" 
d="M1176 1374q46 0 77 -31.5t31 -78.5v-1180q0 -45 -30.5 -76t-75.5 -31q-54 0 -103 62l-688 907v-858q0 -47 -31 -79t-77 -32t-77.5 32t-31.5 79v1180q0 44 31 75t75 31q35 0 57.5 -16t51.5 -55l684 -895l-2 856q0 47 31.5 78.5t77.5 31.5z" />
    <glyph glyph-name="Xi" unicode="&#x39e;" horiz-adv-x="1142" 
d="M170 1157q-41 0 -69.5 27.5t-28.5 68.5t28.5 70t69.5 29h801q43 0 71.5 -29t28.5 -70t-28.5 -68.5t-71.5 -27.5h-801zM193 600q-41 0 -69 27.5t-28 68.5q0 40 28 68.5t69 28.5h757q41 0 70 -28.5t29 -68.5q0 -41 -28.5 -68.5t-70.5 -27.5h-757zM170 0q-41 0 -69.5 28.5
t-28.5 69.5t28.5 69t69.5 28h801q43 0 71.5 -28t28.5 -69t-28.5 -69.5t-71.5 -28.5h-801z" />
    <glyph glyph-name="Omicron" unicode="&#x39f;" horiz-adv-x="1597" 
d="M797 1374q146 0 278 -55t226.5 -148t150 -222.5t55.5 -272.5q0 -144 -55.5 -273.5t-150 -223t-226.5 -148t-278 -54.5q-195 0 -358 92.5t-257 253t-94 353.5q0 192 94 352.5t257 253t358 92.5zM799 1176q-211 0 -348.5 -141.5t-137.5 -356.5q0 -218 137.5 -360
t348.5 -142q209 0 347 142.5t138 359.5q0 214 -138 356t-347 142z" />
    <glyph glyph-name="Pi" unicode="&#x3a0;" horiz-adv-x="1404" 
d="M279 -23q-46 0 -77.5 32t-31.5 79v1151q0 49 32 81t81 32h839q48 0 80.5 -32t32.5 -81v-1151q0 -47 -31.5 -79t-77.5 -32q-47 0 -77.5 31.5t-30.5 79.5v1069h-631v-1069q0 -47 -31 -79t-77 -32z" />
    <glyph glyph-name="Rho" unicode="&#x3a1;" horiz-adv-x="1193" 
d="M279 -23q-46 0 -77.5 32t-31.5 79v1151q0 49 32 81t81 32h379q206 0 332 -114t126 -300q0 -185 -127 -300.5t-331 -115.5h-275v-434q0 -47 -31 -79t-77 -32zM387 715h272q110 0 174 59t64 162t-64 163t-174 60h-272v-444z" />
    <glyph glyph-name="Sigma" unicode="&#x3a3;" horiz-adv-x="1171" 
d="M1001 195q43 0 72 -29t29 -70q0 -40 -29 -68t-72 -28h-788q-46 0 -77.5 31.5t-31.5 77.5q0 45 31 79l432 498l-424 469q-37 42 -37 88t31.5 77.5t77.5 31.5h762q43 0 71.5 -29t28.5 -70t-28.5 -68.5t-71.5 -27.5h-557l352 -391q35 -35 35 -76t-35 -76l-360 -419h589z" />
    <glyph glyph-name="Tau" unicode="&#x3a4;" horiz-adv-x="1193" 
d="M596 -23q-46 0 -77.5 32t-31.5 79v1069h-364q-43 0 -71.5 27.5t-28.5 68.5t28.5 70t71.5 29h948q43 0 71.5 -29t28.5 -70t-28.5 -68.5t-71.5 -27.5h-366v-1069q0 -47 -31.5 -79t-77.5 -32z" />
    <glyph glyph-name="Upsilon" unicode="&#x3a5;" horiz-adv-x="1271" 
d="M1184 1270q0 -36 -25 -76l-416 -676v-430q0 -47 -31 -79t-77 -32t-77.5 32t-31.5 79v434l-413 672q-25 43 -25 78q0 44 31 73t76 29q36 0 60 -14.5t44 -48.5l336 -570l338 570q40 63 104 63q46 0 76.5 -30t30.5 -74z" />
    <glyph glyph-name="Phi" unicode="&#x3a6;" horiz-adv-x="1673" 
d="M1585 686q0 -255 -175.5 -410.5t-465.5 -156.5v-101q0 -47 -30.5 -78.5t-77.5 -31.5q-46 0 -77.5 31.5t-31.5 78.5v101q-289 3 -464 158.5t-175 408.5t174.5 405.5t464.5 155.5v86q0 49 31.5 81t77.5 32q47 0 77.5 -32t30.5 -81v-86q291 -2 466 -155t175 -406zM307 680
q0 -172 112 -271t308 -100v748q-196 -1 -308 -101.5t-112 -275.5zM944 309q197 0 309.5 99t112.5 272q0 176 -113 276.5t-309 100.5v-748z" />
    <glyph glyph-name="Chi" unicode="&#x3a7;" horiz-adv-x="1241" 
d="M1128 158q29 -45 29 -76q0 -43 -31 -74t-75 -31q-54 0 -86 46l-344 487l-345 -487q-29 -46 -86 -46q-44 0 -75 31t-31 74q0 39 31 78l379 532l-349 500q-30 44 -30 80q0 43 31 72.5t75 29.5q55 0 88 -45l312 -457l317 457q31 45 88 45q44 0 74 -29.5t30 -72.5
q0 -42 -30 -82l-350 -498z" />
    <glyph glyph-name="Psi" unicode="&#x3a8;" horiz-adv-x="1701" 
d="M852 -23q-46 0 -77.5 32t-31.5 79v217q-293 0 -454.5 138t-161.5 388v433q0 47 31.5 78.5t77.5 31.5t77 -31.5t31 -78.5v-414q0 -169 103.5 -259.5t295.5 -90.5v807q0 49 31 80.5t78 31.5q46 0 77.5 -31.5t31.5 -80.5v-807q192 0 294.5 90.5t102.5 259.5v414
q0 47 31 78.5t77 31.5q47 0 78 -31.5t31 -78.5v-433q0 -250 -161 -388t-453 -138v-217q0 -47 -31.5 -79t-77.5 -32z" />
    <glyph glyph-name="uni03A9" unicode="&#x3a9;" horiz-adv-x="1617" 
d="M1409 195q43 0 71.5 -28t28.5 -69t-28.5 -69.5t-71.5 -28.5h-389q-49 0 -83 33t-34 80q0 61 64 100q327 172 327 483q0 209 -137.5 344.5t-349.5 135.5t-347.5 -134.5t-135.5 -343.5q0 -155 82.5 -278.5t242.5 -206.5q66 -38 66 -100q0 -47 -34.5 -80t-84.5 -33h-387
q-43 0 -71.5 28.5t-28.5 69.5t28.5 69t71.5 28h176q-287 195 -287 512q0 186 93.5 339t256 240.5t359.5 87.5t360 -88t257 -241t94 -338q0 -160 -72.5 -285.5t-224.5 -226.5h188z" />
    <glyph glyph-name="Iotadieresis" unicode="&#x3aa;" horiz-adv-x="557" 
d="M27 1530q-55 0 -97.5 40t-42.5 93q0 56 42.5 94.5t97.5 38.5q57 0 97 -38t40 -95q0 -54 -40 -93.5t-97 -39.5zM526 1528q-53 0 -95 40t-42 93q0 56 41.5 95.5t95.5 39.5q59 0 99.5 -39t40.5 -96q0 -54 -41 -93.5t-99 -39.5zM279 -23q-46 0 -77.5 32t-31.5 79v1176
q0 47 31.5 78.5t77.5 31.5q47 0 77.5 -31.5t30.5 -78.5v-1176q0 -48 -30.5 -79.5t-77.5 -31.5z" />
    <glyph glyph-name="Upsilondieresis" unicode="&#x3ab;" horiz-adv-x="1271" 
d="M383 1530q-55 0 -97 40t-42 93q0 56 42 94.5t97 38.5q57 0 97 -38t40 -95q0 -54 -40 -93.5t-97 -39.5zM883 1528q-53 0 -95.5 40t-42.5 93q0 56 42 95.5t96 39.5q59 0 99 -39t40 -96q0 -54 -40.5 -93.5t-98.5 -39.5zM1184 1270q0 -36 -25 -76l-416 -676v-430
q0 -47 -31 -79t-77 -32t-77.5 32t-31.5 79v434l-413 672q-25 43 -25 78q0 44 31 73t76 29q36 0 60 -14.5t44 -48.5l336 -570l338 570q40 63 104 63q46 0 76.5 -30t30.5 -74z" />
    <glyph glyph-name="alphatonos" unicode="&#x3ac;" horiz-adv-x="1314" 
d="M643 1141q-41 0 -70.5 30t-25.5 72l39 309q5 42 33.5 71.5t70.5 29.5q48 0 81 -38t24 -89l-56 -287q-9 -45 -34.5 -71.5t-61.5 -26.5zM1219 178q38 0 62 -24.5t24 -61.5q0 -59 -39 -84q-36 -24 -115 -24q-181 0 -227 163q-53 -80 -144.5 -125t-204.5 -45
q-209 0 -346 149.5t-137 375.5q0 227 137 376.5t346 149.5q112 0 203 -45.5t146 -124.5q0 19 4 51q5 48 32 75.5t72 27.5q48 0 78 -32t27 -81q-14 -172 -17 -369v-219q-1 -70 21.5 -101.5t75.5 -31.5h2zM610 174q132 0 214.5 91t82.5 237t-82.5 237.5t-214.5 91.5
q-130 0 -214.5 -92t-84.5 -235q0 -145 84 -237.5t215 -92.5z" />
    <glyph glyph-name="epsilontonos" unicode="&#x3ad;" horiz-adv-x="1030" 
d="M532 1141q-41 0 -70.5 30t-25.5 72l39 309q5 42 34 71.5t71 29.5q48 0 80.5 -38t23.5 -89l-55 -287q-9 -45 -35 -71.5t-62 -26.5zM936 188q3 -35 -31 -69q-142 -142 -375 -142q-185 0 -302 83t-117 221q0 78 40.5 141.5t112.5 101.5q-110 81 -110 219q0 133 105.5 209
t277.5 76q212 0 356 -127q31 -25 31 -67q0 -40 -28.5 -68.5t-66.5 -28.5q-29 0 -59 23q-100 78 -229 78q-172 0 -172 -115q0 -52 37 -82.5t106 -30.5h106q37 0 63 -25t26 -61t-26 -61t-63 -25h-108q-91 0 -138.5 -35.5t-47.5 -95.5q0 -64 53.5 -101.5t154.5 -37.5
q79 0 136 22t110 70q33 23 66 23q38 0 65 -27.5t27 -67.5z" />
    <glyph glyph-name="etatonos" unicode="&#x3ae;" horiz-adv-x="1218" 
d="M610 1141q-41 0 -70.5 30t-25.5 72l39 309q5 42 33.5 71.5t70.5 29.5q48 0 81 -38t24 -89l-55 -287q-9 -45 -35 -71.5t-62 -26.5zM694 1028q174 0 277.5 -108t103.5 -291v-910q0 -47 -30.5 -78.5t-75.5 -31.5q-46 0 -77.5 32t-31.5 78v879q0 105 -60 169t-159 64
q-101 0 -165 -65t-64 -168v-510q0 -46 -32.5 -78.5t-76.5 -32.5t-75 32.5t-31 78.5v610q0 73 -39 109q-20 23 -68 29q-34 5 -57 31t-23 61q0 53 43 78q40 22 107 22q157 0 213 -133q121 133 321 133z" />
    <glyph glyph-name="iotatonos" unicode="&#x3af;" horiz-adv-x="612" 
d="M264 1141q-41 0 -70.5 30t-25.5 72l39 309q5 42 33.5 71.5t70.5 29.5q48 0 81 -38t24 -89l-56 -287q-9 -45 -34.5 -71.5t-61.5 -26.5zM442 -23q-140 0 -216 83t-76 237v621q0 46 31 78t77 32t77.5 -31.5t31.5 -78.5v-603q0 -143 118 -143h15q42 0 69 -24t27 -62
q0 -62 -51 -88q-41 -21 -103 -21z" />
    <glyph glyph-name="upsilondieresistonos" unicode="&#x3b0;" horiz-adv-x="1155" 
d="M545 1141q-41 0 -70.5 30t-25.5 72l38 309q5 42 34 71.5t71 29.5q48 0 80.5 -38t23.5 -89l-55 -287q-9 -45 -34.5 -71.5t-61.5 -26.5zM211 1247q-53 0 -95 40t-42 93q0 57 41.5 96.5t95.5 39.5q57 0 97 -39t40 -97q0 -54 -40 -93.5t-97 -39.5zM911 1247q-53 0 -95 40
t-42 93q0 57 41.5 96.5t95.5 39.5q58 0 99 -39t41 -97q0 -54 -41.5 -93.5t-98.5 -39.5zM592 -23q-203 0 -325 124t-122 329v488q0 46 31.5 78t77.5 32q44 0 75 -32t31 -78v-502q0 -109 64.5 -176.5t169.5 -67.5q109 0 167 81t58 234q0 70 -11 163t-26 155q-26 99 -26 123
q0 44 29 72t73 28q85 0 109 -88q34 -104 53.5 -225t19.5 -223q0 -241 -119.5 -378t-328.5 -137z" />
    <glyph glyph-name="alpha" unicode="&#x3b1;" horiz-adv-x="1314" 
d="M1219 178q38 0 62 -24.5t24 -61.5q0 -59 -39 -84q-36 -24 -115 -24q-181 0 -227 163q-53 -80 -144.5 -125t-204.5 -45q-209 0 -346 149.5t-137 375.5q0 227 137 376.5t346 149.5q112 0 203 -45.5t146 -124.5q0 19 4 51q5 48 32 75.5t72 27.5q48 0 78 -32t27 -81
q-14 -172 -17 -369v-219q-1 -70 21.5 -101.5t75.5 -31.5h2zM610 174q132 0 214.5 91t82.5 237t-82.5 237.5t-214.5 91.5q-130 0 -214.5 -92t-84.5 -235q0 -145 84 -237.5t215 -92.5z" />
    <glyph glyph-name="beta" unicode="&#x3b2;" horiz-adv-x="1271" 
d="M870 872q144 -43 228 -154.5t84 -266.5q0 -207 -138 -340.5t-352 -133.5q-185 0 -321 111v-369q0 -49 -30.5 -79.5t-76.5 -30.5t-77 31.5t-31 78.5v1393q0 204 124.5 325.5t331.5 121.5q184 0 299 -106.5t115 -276.5q0 -97 -41 -175.5t-115 -128.5zM664 176q135 0 217 77
t82 204q0 126 -82 205t-213 79h-41q-43 0 -71 25t-28 63q0 79 90 99q89 12 139 72t50 157q0 95 -56 152t-151 57q-104 0 -166.5 -71t-62.5 -189v-809q124 -121 293 -121z" />
    <glyph glyph-name="gamma" unicode="&#x3b3;" horiz-adv-x="1122" 
d="M1075 924q0 -28 -14 -56l-393 -809v-340q0 -47 -30.5 -78.5t-76.5 -31.5t-76 31.5t-30 78.5v340l-394 809q-14 28 -14 56q0 41 32 72.5t75 31.5q68 0 96 -63l311 -658l311 658q28 63 97 63q43 0 74.5 -31.5t31.5 -72.5z" />
    <glyph glyph-name="delta" unicode="&#x3b4;" horiz-adv-x="1247" 
d="M930 946q118 -107 172.5 -213t54.5 -227q0 -146 -70.5 -267.5t-194 -191.5t-271.5 -70q-146 0 -267.5 70t-191.5 191.5t-70 267.5q0 204 133.5 346.5t339.5 161.5l-389 358q-33 33 -33 72q0 37 28.5 64.5t66.5 27.5h772q41 0 68.5 -26.5t27.5 -65.5q0 -40 -27.5 -67
t-68.5 -27h-514zM623 176q134 0 223.5 93.5t89.5 232.5q0 138 -89.5 230.5t-223.5 92.5t-223 -93t-89 -232t89 -231.5t223 -92.5z" />
    <glyph glyph-name="epsilon" unicode="&#x3b5;" horiz-adv-x="1030" 
d="M936 188q3 -35 -31 -69q-142 -142 -375 -142q-185 0 -302 83t-117 221q0 78 40.5 141.5t112.5 101.5q-110 81 -110 219q0 133 105.5 209t277.5 76q212 0 356 -127q31 -25 31 -67q0 -40 -28.5 -68.5t-66.5 -28.5q-29 0 -59 23q-100 78 -229 78q-172 0 -172 -115
q0 -52 37 -82.5t106 -30.5h106q37 0 63 -25t26 -61t-26 -61t-63 -25h-108q-91 0 -138.5 -35.5t-47.5 -95.5q0 -64 53.5 -101.5t154.5 -37.5q79 0 136 22t110 70q33 23 66 23q38 0 65 -27.5t27 -67.5z" />
    <glyph glyph-name="zeta" unicode="&#x3b6;" horiz-adv-x="1052" 
d="M715 174q315 -87 315 -326q0 -86 -35 -167q-37 -72 -104 -72q-45 0 -74 25.5t-29 64.5q0 19 10.5 59t10.5 62q0 121 -172 164l-127 32q-200 47 -309 161t-109 274q0 215 187 419l428 480h-469q-40 0 -67.5 27t-27.5 67q0 38 27.5 65t67.5 27h684q38 0 65 -27.5t27 -64.5
q0 -36 -25 -64l-547 -618q-131 -148 -131 -285q0 -98 64.5 -162.5t199.5 -101.5z" />
    <glyph glyph-name="eta" unicode="&#x3b7;" horiz-adv-x="1218" 
d="M694 1028q174 0 277.5 -108t103.5 -291v-910q0 -47 -30.5 -78.5t-75.5 -31.5q-46 0 -77.5 32t-31.5 78v879q0 105 -60 169t-159 64q-101 0 -165 -65t-64 -168v-510q0 -46 -32.5 -78.5t-76.5 -32.5t-75 32.5t-31 78.5v610q0 73 -39 109q-20 23 -68 29q-34 5 -57 31t-23 61
q0 53 43 78q40 22 107 22q157 0 213 -133q121 133 321 133z" />
    <glyph glyph-name="theta" unicode="&#x3b8;" horiz-adv-x="1288" 
d="M643 1559q254 0 385 -200t131 -587q0 -389 -132 -593t-384 -204t-383 203.5t-131 593.5q0 387 131 587t383 200zM643 1360q-137 0 -208 -116t-83 -361h584q-12 245 -84 361t-209 116zM643 172q141 0 213.5 128.5t79.5 395.5h-584q7 -266 79 -395t212 -129z" />
    <glyph glyph-name="iota" unicode="&#x3b9;" horiz-adv-x="612" 
d="M442 -23q-140 0 -216 83t-76 237v621q0 46 31 78t77 32t77.5 -31.5t31.5 -78.5v-603q0 -143 118 -143h15q42 0 69 -24t27 -62q0 -62 -51 -88q-41 -21 -103 -21z" />
    <glyph glyph-name="kappa" unicode="&#x3ba;" horiz-adv-x="1093" 
d="M264 1028q47 0 77 -31t30 -79v-830q0 -47 -30.5 -79t-76.5 -32t-77 32t-31 79v830q0 47 31 78.5t77 31.5zM1010 150q28 -32 28 -72q0 -42 -29 -71.5t-71 -29.5q-49 0 -86 43l-395 455q-33 38 -33 80q0 43 35 78l362 362q33 33 78 33q43 0 72.5 -28.5t29.5 -69.5
q0 -40 -40 -80l-302 -293z" />
    <glyph glyph-name="lambda" unicode="&#x3bb;" 
d="M1120 147q29 -26 29 -67q0 -45 -33.5 -70.5t-85.5 -25.5q-94 0 -146.5 48t-92.5 158l-211 566l-293 -711q-12 -32 -39 -50t-60 -18q-44 0 -76 31.5t-32 75.5q0 20 10 43l389 901l-63 168q-36 98 -81 133t-126 35q-23 0 -35 -2q-40 -1 -68 28t-28 68q0 31 17 54t46 32
q43 15 103 15q132 0 216 -63t144 -222l367 -985q38 -99 94 -115q40 -14 55 -27z" />
    <glyph glyph-name="uni03BC" unicode="&#x3bc;" horiz-adv-x="1230" 
d="M1135 178q38 0 62 -24.5t24 -61.5q0 -35 -18 -60t-48 -34q-46 -14 -88 -14q-148 0 -205 112q-95 -119 -252 -119q-149 0 -239 107v-365q0 -47 -31 -78.5t-76 -31.5q-46 0 -77 32t-31 78v1199q0 46 31 78t77 32q44 0 75.5 -32t31.5 -78v-502q0 -106 62.5 -174t160.5 -68
q99 0 162 68t63 174v502q0 46 31.5 78t77.5 32q45 0 75.5 -31.5t30.5 -78.5v-615q0 -125 99 -125h2z" />
    <glyph glyph-name="nu" unicode="&#x3bd;" horiz-adv-x="1124" 
d="M971 1028q42 0 73 -31t31 -73q0 -26 -12 -56l-401 -825q-15 -31 -41.5 -48.5t-57.5 -17.5q-68 0 -100 66l-400 825q-14 28 -14 56q0 42 31.5 73t73.5 31q67 0 98 -63l311 -656l309 656q31 63 99 63z" />
    <glyph glyph-name="xi" unicode="&#x3be;" horiz-adv-x="1075" 
d="M729 178q155 -31 239.5 -114t84.5 -209q0 -103 -35 -174q-37 -72 -107 -72q-44 0 -73 26.5t-29 67.5q0 18 11 58.5t11 62.5q0 133 -167 160l-113 20q-212 36 -327 154.5t-115 290.5q0 131 64 232.5t177 152.5q-85 55 -131.5 138.5t-46.5 186.5q0 174 126 287t316 113
q233 0 377 -173q23 -33 23 -65q0 -41 -29 -69.5t-70 -28.5q-40 0 -77 37q-84 100 -207 100q-101 0 -169.5 -61.5t-68.5 -157.5q0 -97 68.5 -161.5t173.5 -64.5h127q40 0 68 -26t28 -68q0 -40 -28.5 -66t-67.5 -26h-148q-124 0 -204 -72.5t-80 -189.5q0 -104 71 -171t199 -91
z" />
    <glyph glyph-name="omicron" unicode="&#x3bf;" horiz-adv-x="1247" 
d="M623 1028q147 0 270 -69.5t193.5 -190t70.5 -264.5q0 -108 -41.5 -205.5t-113 -168t-170.5 -112t-209 -41.5q-146 1 -268 71t-192.5 191t-70.5 265q0 145 70.5 265.5t192.5 189.5t268 69zM625 831q-135 -2 -224.5 -95t-89.5 -234q0 -139 89 -232.5t223 -93.5
q133 0 223 94t90 232q0 140 -89 233.5t-222 95.5z" />
    <glyph glyph-name="pi" unicode="&#x3c0;" horiz-adv-x="1208" 
d="M264 -23q-45 0 -76.5 32.5t-31.5 78.5v807q0 46 31.5 78.5t78.5 32.5h635q49 0 80 -31t31 -80v-604q0 -55 21 -82.5t65 -30.5q6 0 10 -2q43 -5 66.5 -28.5t23.5 -63.5q0 -47 -35 -74q-36 -26 -119 -26q-122 0 -185.5 75t-63.5 220v540h-424v-733q0 -46 -31.5 -77.5
t-75.5 -31.5z" />
    <glyph glyph-name="rho" unicode="&#x3c1;" horiz-adv-x="1267" 
d="M655 1028q229 0 376 -147t147 -379q0 -149 -63 -269t-174.5 -188t-250.5 -68q-103 0 -189.5 38.5t-142.5 107.5v-404q0 -46 -30.5 -78t-75.5 -32t-76 32t-31 78v777q0 239 140 385.5t370 146.5zM653 174q132 0 217.5 93.5t85.5 234.5q0 143 -86 236t-219 93
q-134 0 -214.5 -88.5t-80.5 -236.5q0 -149 81.5 -240.5t215.5 -91.5z" />
    <glyph glyph-name="uni03C2" unicode="&#x3c2;" horiz-adv-x="1083" 
d="M846 -391q-46 0 -74.5 25t-28.5 65q0 19 10.5 59t10.5 62q0 68 -41.5 103t-159.5 69q-227 66 -349 190t-122 332q0 232 142.5 373t367.5 141q250 0 395 -178q21 -27 21 -64q0 -41 -28.5 -69.5t-69.5 -28.5q-46 0 -72 33q-102 108 -244 108q-132 0 -211.5 -84t-79.5 -223
q0 -130 85.5 -211t252.5 -129q183 -57 258.5 -132.5t75.5 -201.5q0 -94 -37 -167q-34 -72 -102 -72z" />
    <glyph glyph-name="sigma" unicode="&#x3c3;" horiz-adv-x="1310" 
d="M1182 1006q40 0 67 -27.5t27 -67.5t-27 -66t-67 -26h-191q70 -63 110 -150.5t40 -185.5q0 -216 -151 -361t-376 -145q-224 0 -373 149t-149 372q0 224 150 366t385 142h555zM614 176q132 0 219 93t87 233q0 138 -85 225.5t-219 87.5t-219.5 -88t-85.5 -227
q0 -140 86.5 -232t216.5 -92z" />
    <glyph glyph-name="tau" unicode="&#x3c4;" horiz-adv-x="948" 
d="M815 180q41 0 66.5 -27.5t25.5 -68.5q0 -61 -65 -84q-68 -23 -170 -23q-192 0 -288.5 88.5t-96.5 262.5v491h-181q-40 0 -67 27t-27 65q0 40 27 67.5t67 27.5h676q40 0 68.5 -27.5t28.5 -67.5q0 -38 -28.5 -65t-68.5 -27h-280v-473q0 -92 49.5 -133t161.5 -41q19 0 53 4
t49 4z" />
    <glyph glyph-name="upsilon" unicode="&#x3c5;" horiz-adv-x="1155" 
d="M592 -23q-203 0 -325 124t-122 329v488q0 46 31.5 78t77.5 32q44 0 75 -32t31 -78v-502q0 -109 64.5 -176.5t169.5 -67.5q109 0 167 81t58 234q0 70 -11 163t-26 155q-26 99 -26 123q0 44 29 72t73 28q85 0 109 -88q34 -104 53.5 -225t19.5 -223q0 -241 -119.5 -378
t-328.5 -137z" />
    <glyph glyph-name="phi" unicode="&#x3c6;" horiz-adv-x="1587" 
d="M1495 504q0 -235 -163 -380.5t-431 -146.5v-258q0 -49 -31 -79.5t-77 -30.5t-77.5 31.5t-31.5 78.5v258q-267 1 -429.5 146.5t-162.5 380.5q0 234 162 377.5t430 144.5v326q0 46 31.5 78t77.5 32t77 -31.5t31 -78.5v-326q268 -1 431 -144.5t163 -377.5zM303 500
q0 -157 101.5 -246.5t279.5 -89.5h6v676h-6q-177 0 -279 -91t-102 -249zM901 164q180 0 281.5 89.5t101.5 246.5q0 158 -102.5 249t-280.5 91h-6v-676h6z" />
    <glyph glyph-name="chi" unicode="&#x3c7;" horiz-adv-x="1077" 
d="M999 -199q42 -1 66.5 -29t24.5 -65q0 -49 -35.5 -73.5t-91.5 -24.5q-81 0 -138 38t-108 136l-182 360l-293 -483q-30 -51 -90 -51q-43 0 -74 30.5t-31 71.5q0 31 21 66l354 573l-209 400q-20 40 -45.5 58t-63.5 19q-42 1 -66 29.5t-24 67.5q0 47 35.5 71.5t91.5 24.5
q82 0 138.5 -38t105.5 -136l156 -314l264 443q30 51 92 51q41 0 71.5 -30.5t30.5 -71.5q0 -32 -18 -66l-328 -526l236 -453q22 -40 47.5 -58.5t62.5 -19.5z" />
    <glyph glyph-name="psi" unicode="&#x3c8;" horiz-adv-x="1642" 
d="M825 -391q-44 0 -76 32t-32 76v260q-262 0 -417 142.5t-155 384.5v414q0 46 31.5 78t75.5 32t75 -32t31 -78v-396q0 -158 98.5 -254t260.5 -96v1092q0 46 32 78t76 32q46 0 77.5 -32t31.5 -78v-1092q179 0 276 93.5t97 264.5q0 138 -39 271q-25 109 -25 127q0 44 28.5 72
t74.5 28q81 0 108 -88q74 -222 74 -414q0 -255 -159.5 -402t-434.5 -147v-260q0 -46 -31.5 -77t-77.5 -31z" />
    <glyph glyph-name="omega" unicode="&#x3c9;" horiz-adv-x="1718" 
d="M1311 989q156 -63 236.5 -190.5t80.5 -311.5q0 -230 -124 -370t-328 -140q-213 0 -318 158q-102 -158 -315 -158q-204 0 -327.5 139t-123.5 369q0 184 80 311.5t236 192.5q63 25 92 25q40 0 70 -30.5t30 -72.5q0 -69 -72 -100q-219 -85 -219 -328q0 -138 67.5 -223.5
t174.5 -85.5q92 0 147.5 67t55.5 177v264q0 44 31 75t75 31q43 0 74 -31t31 -75v-264q0 -111 55 -177.5t147 -66.5q109 0 175.5 85.5t66.5 225.5q0 122 -53 202t-164 126q-74 30 -74 100q0 41 31 72t72 31q31 0 90 -27z" />
    <glyph glyph-name="iotadieresis" unicode="&#x3ca;" horiz-adv-x="612" 
d="M59 1247q-57 0 -98 39.5t-41 93.5q0 56 40.5 96t98.5 40q57 0 97.5 -39.5t40.5 -96.5q0 -54 -40.5 -93.5t-97.5 -39.5zM469 1247q-57 0 -98 40t-41 93q0 56 41 96t98 40t97 -39.5t40 -96.5q0 -54 -40 -93.5t-97 -39.5zM442 -23q-140 0 -216 83t-76 237v621q0 46 31 78
t77 32t77.5 -31.5t31.5 -78.5v-603q0 -143 118 -143h15q42 0 69 -24t27 -62q0 -62 -51 -88q-41 -21 -103 -21z" />
    <glyph glyph-name="upsilondieresis" unicode="&#x3cb;" horiz-adv-x="1155" 
d="M332 1516q59 0 98 -39t39 -97q0 -54 -40 -93.5t-97 -39.5q-55 0 -97 40t-42 93q0 56 41 96t98 40zM791 1516q59 0 99 -39t40 -97q0 -54 -41 -93.5t-98 -39.5q-55 0 -97.5 40t-42.5 93q0 55 41.5 95.5t98.5 40.5zM592 -23q-203 0 -325 124t-122 329v488q0 46 31.5 78
t77.5 32q44 0 75 -32t31 -78v-502q0 -109 64.5 -176.5t169.5 -67.5q109 0 167 81t58 234q0 70 -11 163t-26 155q-26 99 -26 123q0 44 29 72t73 28q85 0 109 -88q34 -104 53.5 -225t19.5 -223q0 -241 -119.5 -378t-328.5 -137z" />
    <glyph glyph-name="omicrontonos" unicode="&#x3cc;" horiz-adv-x="1247" 
d="M625 1141q-41 0 -71 30t-26 72l39 309q5 42 34 71.5t71 29.5q48 0 80.5 -38t23.5 -89l-55 -287q-9 -45 -34.5 -71.5t-61.5 -26.5zM623 1028q147 0 270 -69.5t193.5 -190t70.5 -264.5q0 -108 -41.5 -205.5t-113 -168t-170.5 -112t-209 -41.5q-146 1 -268 71t-192.5 191
t-70.5 265q0 145 70.5 265.5t192.5 189.5t268 69zM625 831q-135 -2 -224.5 -95t-89.5 -234q0 -139 89 -232.5t223 -93.5q133 0 223 94t90 232q0 140 -89 233.5t-222 95.5z" />
    <glyph glyph-name="upsilontonos" unicode="&#x3cd;" horiz-adv-x="1155" 
d="M561 1141q-41 0 -70.5 30t-25.5 72l39 309q5 42 33.5 71.5t70.5 29.5q48 0 81 -38t24 -89l-56 -287q-9 -45 -34.5 -71.5t-61.5 -26.5zM592 -23q-203 0 -325 124t-122 329v488q0 46 31.5 78t77.5 32q44 0 75 -32t31 -78v-502q0 -109 64.5 -176.5t169.5 -67.5q109 0 167 81
t58 234q0 70 -11 163t-26 155q-26 99 -26 123q0 44 29 72t73 28q85 0 109 -88q34 -104 53.5 -225t19.5 -223q0 -241 -119.5 -378t-328.5 -137z" />
    <glyph glyph-name="omegatonos" unicode="&#x3ce;" horiz-adv-x="1718" 
d="M854 1141q-41 0 -70.5 30t-25.5 72l39 309q5 42 33.5 71.5t70.5 29.5q48 0 81 -38t24 -89l-56 -287q-9 -45 -34.5 -71.5t-61.5 -26.5zM1311 989q156 -63 236.5 -190.5t80.5 -311.5q0 -230 -124 -370t-328 -140q-213 0 -318 158q-102 -158 -315 -158q-204 0 -327.5 139
t-123.5 369q0 184 80 311.5t236 192.5q63 25 92 25q40 0 70 -30.5t30 -72.5q0 -69 -72 -100q-219 -85 -219 -328q0 -138 67.5 -223.5t174.5 -85.5q92 0 147.5 67t55.5 177v264q0 44 31 75t75 31q43 0 74 -31t31 -75v-264q0 -111 55 -177.5t147 -66.5q109 0 175.5 85.5
t66.5 225.5q0 122 -53 202t-164 126q-74 30 -74 100q0 41 31 72t72 31q31 0 90 -27z" />
    <glyph glyph-name="uni0400" unicode="&#x400;" horiz-adv-x="1165" 
d="M582 1481q-52 0 -86 47l-138 209q-37 56 -9 112.5t89 59.5q71 4 105 -58l119 -229q24 -41 0 -89.5t-80 -51.5zM274 0q-44 0 -74 30t-30 74v1143q0 44 30 74.5t74 30.5h695q43 0 71.5 -29t28.5 -70t-28.5 -68.5t-71.5 -27.5h-582v-346h420q41 0 68.5 -27t27.5 -67
t-27.5 -67t-68.5 -27h-420v-428h606q43 0 72 -28t29 -69t-29 -69.5t-72 -28.5h-719z" />
    <glyph glyph-name="uni0401" unicode="&#x401;" horiz-adv-x="1165" 
d="M360 1530q-55 0 -97 40t-42 93q0 56 42 94.5t97 38.5q58 0 98 -38t40 -95q0 -54 -40.5 -93.5t-97.5 -39.5zM860 1528q-53 0 -95 40t-42 93q0 56 41.5 95.5t95.5 39.5q59 0 99 -39t40 -96q0 -54 -40.5 -93.5t-98.5 -39.5zM274 0q-44 0 -74 30t-30 74v1143q0 44 30 74.5
t74 30.5h695q43 0 71.5 -29t28.5 -70t-28.5 -68.5t-71.5 -27.5h-582v-346h420q41 0 68.5 -27t27.5 -67t-27.5 -67t-68.5 -27h-420v-428h606q43 0 72 -28t29 -69t-29 -69.5t-72 -28.5h-719z" />
    <glyph glyph-name="uni0402" unicode="&#x402;" horiz-adv-x="1560" 
d="M596 -23q-47 0 -78 32t-31 81v1067h-364q-43 0 -71.5 27.5t-28.5 68.5t28.5 70t71.5 29h948q43 0 71.5 -29t28.5 -70t-28.5 -68.5t-71.5 -27.5h-366v-319h282q218 0 349.5 -118t131.5 -312q0 -140 -79.5 -245t-227.5 -159q-83 -27 -114 -27q-43 0 -74 31t-31 72
q0 69 82 102q221 62 221 236q0 103 -70 165t-188 62h-282v-555q0 -49 -31.5 -81t-77.5 -32z" />
    <glyph glyph-name="uni0403" unicode="&#x403;" horiz-adv-x="1056" 
d="M588 1481q-56 3 -80 51.5t0 89.5l119 229q34 62 104 58q61 -3 89 -59.5t-9 -112.5l-137 -209q-34 -47 -86 -47zM920 1352q42 0 71 -29t29 -70t-28.5 -68.5t-71.5 -27.5h-533v-1069q0 -48 -30.5 -79.5t-77.5 -31.5q-46 0 -77.5 32t-31.5 79v1151q0 49 32.5 81t80.5 32h637
z" />
    <glyph glyph-name="uni0404" unicode="&#x404;" horiz-adv-x="1468" 
d="M1260 397q41 0 70.5 -29t29.5 -69q0 -38 -37 -86q-90 -111 -228 -173.5t-296 -62.5q-197 0 -360 92t-257 253t-94 354t94 353.5t257 252.5t360 92q156 0 294.5 -62t231.5 -173q35 -46 35 -86t-29.5 -69.5t-70.5 -29.5q-49 0 -86 43q-147 179 -373 179q-173 0 -302 -101
t-169 -264h573q42 0 69 -27t27 -67t-27 -67t-69 -27h-588q19 -196 154.5 -321.5t331.5 -125.5q221 0 370 178q37 43 89 43z" />
    <glyph glyph-name="uni0405" unicode="&#x405;" horiz-adv-x="1144" 
d="M584 -23q-127 0 -249 56t-200 151q-33 38 -33 76q0 42 30 70t71 28q40 0 65 -28q133 -158 314 -158q107 0 170 51.5t63 136.5q0 65 -42.5 107.5t-156.5 95.5l-149 70q-163 76 -239 165.5t-76 209.5q0 159 121 262.5t305 103.5q229 3 376 -160q33 -36 33 -77
q0 -38 -30.5 -67.5t-69.5 -29.5q-34 0 -66 29q-111 111 -243 111q-93 0 -149 -44.5t-56 -119.5q0 -62 38.5 -101t149.5 -92l152 -69q171 -79 247 -168t76 -217q0 -175 -127 -283.5t-325 -108.5z" />
    <glyph glyph-name="uni0406" unicode="&#x406;" horiz-adv-x="557" 
d="M279 1374q47 0 77.5 -31.5t30.5 -78.5v-1176q0 -48 -30.5 -79.5t-77.5 -31.5q-46 0 -77.5 32t-31.5 79v1176q0 47 31.5 78.5t77.5 31.5z" />
    <glyph glyph-name="uni0407" unicode="&#x407;" horiz-adv-x="557" 
d="M27 1530q-55 0 -97.5 40t-42.5 93q0 56 42.5 94.5t97.5 38.5q57 0 97 -38t40 -95q0 -54 -40 -93.5t-97 -39.5zM526 1528q-53 0 -95 40t-42 93q0 56 41.5 95.5t95.5 39.5q59 0 99.5 -39t40.5 -96q0 -54 -41 -93.5t-99 -39.5zM279 1374q47 0 77.5 -31.5t30.5 -78.5v-1176
q0 -48 -30.5 -79.5t-77.5 -31.5q-46 0 -77.5 32t-31.5 79v1176q0 47 31.5 78.5t77.5 31.5z" />
    <glyph glyph-name="uni0408" unicode="&#x408;" horiz-adv-x="780" 
d="M223 -23q-81 0 -131 17q-31 10 -50 37t-19 59q0 41 30 69.5t74 28.5q20 0 57.5 -5t61.5 -5q69 0 108 44.5t39 121.5v920q0 47 31 78.5t78 31.5t77.5 -31.5t30.5 -78.5v-928q0 -175 -99 -267t-288 -92z" />
    <glyph glyph-name="uni0409" unicode="&#x409;" horiz-adv-x="2060" 
d="M1497 852q211 0 341 -117.5t130 -308.5q0 -192 -129.5 -309t-341.5 -117h-432q-48 0 -80.5 32t-32.5 81v1044h-397q-6 -994 -393 -1147q-51 -26 -92 -26q-42 0 -70.5 27.5t-28.5 68.5q0 35 20 60.5t54 37.5q152 51 224.5 283.5t72.5 668.5v109q0 49 32.5 81t80.5 32h604
q47 0 78.5 -32t31.5 -81v-387h328zM1495 193q115 0 182.5 63.5t67.5 169.5q0 107 -67.5 170t-182.5 63h-326v-466h326z" />
    <glyph glyph-name="uni040A" unicode="&#x40a;" horiz-adv-x="2146" 
d="M279 -23q-46 0 -77.5 32t-31.5 79v1176q0 47 31.5 78.5t77.5 31.5q47 0 77.5 -31.5t30.5 -78.5v-445h651v445q0 47 31 78.5t78 31.5q46 0 77 -31.5t31 -78.5v-424h326q212 0 342.5 -116t130.5 -304q0 -189 -130.5 -304.5t-342.5 -115.5h-430q-49 0 -81 32t-32 81v510
h-651v-535q0 -48 -30.5 -79.5t-77.5 -31.5zM1255 193h326q115 0 182.5 61t67.5 164q0 104 -68 166.5t-182 62.5h-326v-454z" />
    <glyph glyph-name="uni040B" unicode="&#x40b;" horiz-adv-x="1626" 
d="M963 836q234 0 367.5 -144t133.5 -395v-209q0 -48 -30.5 -79.5t-77.5 -31.5q-46 0 -77.5 32t-31.5 79v199q0 175 -75 261.5t-230 86.5q-118 0 -237 -39v-508q0 -47 -31.5 -79t-77.5 -32t-77.5 32t-31.5 79v1069h-364q-43 0 -71.5 27.5t-28.5 68.5t28.5 70t71.5 29h948
q43 0 71.5 -29t28.5 -70t-28.5 -68.5t-71.5 -27.5h-366v-362q125 41 258 41z" />
    <glyph glyph-name="uni040C" unicode="&#x40c;" horiz-adv-x="1320" 
d="M698 1481q-56 3 -80 51.5t0 89.5l119 229q34 62 105 58q61 -3 89 -59.5t-9 -112.5l-138 -209q-34 -47 -86 -47zM279 1374q46 0 77 -31.5t31 -78.5v-1176q0 -47 -31 -79t-77 -32t-77.5 32t-31.5 79v1176q0 47 31 78.5t78 31.5zM1202 150q35 -35 35 -72q0 -41 -30 -71
t-70 -30q-48 0 -88 43l-580 627q-33 38 -33 74q0 34 33 72l539 542q39 39 79 39q41 0 70 -28.5t29 -69.5q0 -40 -37 -80l-473 -475z" />
    <glyph glyph-name="uni040D" unicode="&#x40d;" horiz-adv-x="1474" 
d="M602 1528l-137 209q-37 56 -9 112.5t89 59.5q70 4 104 -58l119 -229q24 -41 0 -89.5t-80 -51.5q-52 0 -86 47zM1198 1374q44 0 75.5 -31t31.5 -75v-1180q0 -47 -31 -79t-78 -32q-46 0 -77.5 32t-31.5 79v875l-720 -940q-35 -46 -88 -46q-44 0 -76.5 31.5t-32.5 75.5v1180
q0 47 31.5 78.5t77.5 31.5q47 0 77.5 -31.5t30.5 -78.5v-881l715 936q20 29 41.5 42t54.5 13z" />
    <glyph glyph-name="uni040E" unicode="&#x40e;" horiz-adv-x="1269" 
d="M621 1493q-128 0 -227 82t-99 190q0 37 24.5 62.5t61.5 25.5q58 0 84 -71q19 -60 59.5 -92.5t96.5 -32.5q58 0 99 33t58 92q24 71 82 71q38 0 62 -25.5t24 -62.5q0 -107 -98 -189.5t-227 -82.5zM1087 1358q46 0 78.5 -33.5t32.5 -79.5q0 -26 -16 -57l-426 -922
q-69 -147 -174 -218t-254 -71q-74 0 -129 19q-66 23 -66 90q0 40 29.5 68t73.5 28q6 0 25.5 -1t33.5 -1q97 0 153 34.5t95 113.5l2 6l-430 854q-17 28 -17 59q0 44 33.5 77.5t77.5 33.5q66 0 104 -68l351 -723l319 723q13 32 41.5 50t62.5 18z" />
    <glyph glyph-name="uni040F" unicode="&#x40f;" horiz-adv-x="1404" 
d="M1126 1374q46 0 77.5 -31.5t31.5 -78.5v-1151q0 -49 -31.5 -81t-81.5 -32h-311v-201q0 -47 -31 -78.5t-78 -31.5q-46 0 -77 31.5t-31 78.5v201h-311q-48 0 -80.5 32t-32.5 81v1151q0 47 31.5 78.5t77.5 31.5q47 0 77.5 -31.5t30.5 -78.5v-1069h631v1069q0 47 30.5 78.5
t77.5 31.5z" />
    <glyph glyph-name="uni0410" unicode="&#x410;" horiz-adv-x="1357" 
d="M1272 143q16 -40 16 -61q0 -43 -31 -74t-75 -31q-72 0 -103 76l-84 191h-637l-79 -191q-28 -76 -103 -76q-44 0 -75 31t-31 74q0 28 16 61l489 1157q30 74 103 74q74 0 104 -74zM678 1057l-244 -629h484z" />
    <glyph glyph-name="uni0411" unicode="&#x411;" horiz-adv-x="1265" 
d="M950 1352q43 0 72 -29t29 -70t-29.5 -68.5t-71.5 -27.5h-563v-360h363q196 0 317 -109.5t121 -288.5t-121 -289t-317 -110h-467q-48 0 -80.5 32t-32.5 81v1126q0 49 32.5 81t80.5 32h667zM731 610h-344v-420h344q111 0 174.5 55.5t63.5 153.5t-64 154.5t-174 56.5z" />
    <glyph glyph-name="uni0412" unicode="&#x412;" horiz-adv-x="1265" 
d="M936 737q119 -38 185.5 -128.5t66.5 -215.5q0 -175 -121.5 -284t-316.5 -109h-467q-49 0 -81 32t-32 81v1126q0 49 32 81t81 32h360q181 0 293.5 -100t112.5 -261q0 -158 -113 -254zM623 1161h-240v-364h240q97 0 151.5 48.5t54.5 135.5q0 86 -54 133t-152 47zM731 190
q110 0 173 55.5t63 153.5t-63 154.5t-173 56.5h-348v-420h348z" />
    <glyph glyph-name="uni0413" unicode="&#x413;" horiz-adv-x="1056" 
d="M920 1352q42 0 71 -29t29 -70t-28.5 -68.5t-71.5 -27.5h-533v-1069q0 -48 -30.5 -79.5t-77.5 -31.5q-46 0 -77.5 32t-31.5 79v1151q0 49 32.5 81t80.5 32h637z" />
    <glyph glyph-name="uni0414" unicode="&#x414;" horiz-adv-x="1452" 
d="M1280 195q47 0 79 -32t32 -79v-285q0 -47 -31 -78.5t-78 -31.5q-46 0 -77 31.5t-31 78.5v201h-912v-201q0 -47 -30.5 -78.5t-77.5 -31.5q-46 0 -77.5 31.5t-31.5 78.5v285q0 47 33 79t80 32h4q139 138 204.5 372.5t65.5 591.5v80q0 49 32 81t81 32h563q48 0 80.5 -32
t32.5 -81v-1044h59zM639 1157q-3 -347 -62.5 -581t-183.5 -381h611v962h-365z" />
    <glyph glyph-name="uni0415" unicode="&#x415;" horiz-adv-x="1165" 
d="M274 0q-44 0 -74 30t-30 74v1143q0 44 30 74.5t74 30.5h695q43 0 71.5 -29t28.5 -70t-28.5 -68.5t-71.5 -27.5h-582v-346h420q41 0 68.5 -27t27.5 -67t-27.5 -67t-68.5 -27h-420v-428h606q43 0 72 -28t29 -69t-29 -69.5t-72 -28.5h-719z" />
    <glyph glyph-name="uni0416" unicode="&#x416;" horiz-adv-x="2025" 
d="M313 1335l504 -534q37 -40 37 -80q0 -42 -35 -80l-538 -610q-51 -54 -99 -54q-41 0 -70.5 30.5t-29.5 72.5q0 38 22 63l514 578l-456 481q-29 33 -29 72q0 42 28 71t68 29q48 0 84 -39zM1014 1374q47 0 77.5 -31.5t30.5 -78.5v-1176q0 -47 -31 -79t-77 -32t-77.5 32
t-31.5 79v1176q0 47 31.5 78.5t77.5 31.5zM1923 143q23 -26 23 -63q0 -41 -30 -72t-71 -31q-48 0 -96 54l-543 610q-35 41 -35 80q0 40 37 80l506 534q36 39 84 39q40 0 69 -29t29 -71q0 -38 -30 -72l-457 -483z" />
    <glyph glyph-name="uni0417" unicode="&#x417;" horiz-adv-x="1198" 
d="M893 725q102 -45 159.5 -131t57.5 -199q0 -181 -141.5 -299.5t-358.5 -118.5q-142 0 -265.5 59t-203.5 165q-26 36 -26 67q0 41 30 70t72 29t76 -37q136 -154 315 -154q124 0 203.5 65t79.5 165q0 92 -65.5 148t-170.5 56h-188q-41 0 -68.5 27.5t-27.5 67.5
q0 39 27.5 65.5t68.5 26.5h135q94 0 149.5 49.5t55.5 134.5q0 88 -60.5 141.5t-158.5 53.5q-153 0 -262 -121q-34 -37 -76 -37q-41 0 -70.5 29t-29.5 69q0 35 28 70q70 89 179 138.5t231 49.5q189 0 313.5 -108t124.5 -271q0 -170 -133 -270z" />
    <glyph glyph-name="uni0418" unicode="&#x418;" horiz-adv-x="1474" 
d="M1198 1374q44 0 75.5 -31t31.5 -75v-1180q0 -47 -31 -79t-78 -32q-46 0 -77.5 32t-31.5 79v875l-720 -940q-35 -46 -88 -46q-44 0 -76.5 31.5t-32.5 75.5v1180q0 47 31.5 78.5t77.5 31.5q47 0 77.5 -31.5t30.5 -78.5v-881l715 936q20 29 41.5 42t54.5 13z" />
    <glyph glyph-name="uni0419" unicode="&#x419;" horiz-adv-x="1474" 
d="M719 1493q-128 0 -227 82t-99 190q0 37 24.5 62.5t61.5 25.5q58 0 84 -71q19 -60 59.5 -92.5t96.5 -32.5q58 0 99.5 33t58.5 92q24 71 81 71q38 0 62 -25.5t24 -62.5q0 -107 -98 -189.5t-227 -82.5zM1198 1374q44 0 75.5 -31t31.5 -75v-1180q0 -47 -31 -79t-78 -32
q-46 0 -77.5 32t-31.5 79v875l-720 -940q-35 -46 -88 -46q-44 0 -76.5 31.5t-32.5 75.5v1180q0 47 31.5 78.5t77.5 31.5q47 0 77.5 -31.5t30.5 -78.5v-881l715 936q20 29 41.5 42t54.5 13z" />
    <glyph glyph-name="uni041A" unicode="&#x41a;" horiz-adv-x="1320" 
d="M279 1374q46 0 77 -31.5t31 -78.5v-1176q0 -47 -31 -79t-77 -32t-77.5 32t-31.5 79v1176q0 47 31 78.5t78 31.5zM1202 150q35 -35 35 -72q0 -41 -30 -71t-70 -30q-48 0 -88 43l-580 627q-33 38 -33 74q0 34 33 72l539 542q39 39 79 39q41 0 70 -28.5t29 -69.5
q0 -40 -37 -80l-473 -475z" />
    <glyph glyph-name="uni041B" unicode="&#x41b;" horiz-adv-x="1339" 
d="M1059 1352q47 0 78.5 -32t31.5 -81v-1151q0 -48 -30.5 -79.5t-77.5 -31.5q-46 0 -77.5 32t-31.5 79v1069h-397q-6 -994 -393 -1147q-51 -26 -92 -26q-42 0 -70.5 27.5t-28.5 68.5q0 35 20 60.5t54 37.5q152 53 224.5 284.5t72.5 667.5v109q0 49 32.5 81t80.5 32h604z" />
    <glyph glyph-name="uni041C" unicode="&#x41c;" horiz-adv-x="1622" 
d="M1348 1374q44 0 74 -31.5t30 -78.5v-1176q0 -47 -31.5 -79t-77.5 -32t-77 32t-31 79v823l-315 -495q-25 -38 -50 -55t-59 -17q-65 0 -109 72l-315 495v-823q0 -47 -31 -79t-77 -32t-77.5 32t-31.5 79v1176q0 47 30 78.5t74 31.5q36 0 62.5 -19t56.5 -69l418 -655l418 655
q30 50 56.5 69t62.5 19z" />
    <glyph glyph-name="uni041D" unicode="&#x41d;" horiz-adv-x="1454" 
d="M279 -23q-46 0 -77.5 32t-31.5 79v1176q0 47 31 78.5t78 31.5t77.5 -31.5t30.5 -78.5v-451h680v451q0 47 31 78.5t78 31.5t77.5 -31.5t30.5 -78.5v-1176q0 -47 -31 -79t-77 -32t-77.5 32t-31.5 79v530h-680v-530q0 -47 -31 -79t-77 -32z" />
    <glyph glyph-name="uni041E" unicode="&#x41e;" horiz-adv-x="1597" 
d="M797 1374q146 0 278 -55t226.5 -148t150 -222.5t55.5 -272.5q0 -144 -55.5 -273.5t-150 -223t-226.5 -148t-278 -54.5q-195 0 -358 92.5t-257 253t-94 353.5q0 192 94 352.5t257 253t358 92.5zM799 1176q-211 0 -348.5 -141.5t-137.5 -356.5q0 -218 137.5 -360
t348.5 -142q209 0 347 142.5t138 359.5q0 214 -138 356t-347 142z" />
    <glyph glyph-name="uni041F" unicode="&#x41f;" horiz-adv-x="1404" 
d="M279 -23q-46 0 -77.5 32t-31.5 79v1151q0 49 32 81t81 32h839q48 0 80.5 -32t32.5 -81v-1151q0 -47 -31.5 -79t-77.5 -32q-47 0 -77.5 31.5t-30.5 79.5v1069h-631v-1069q0 -47 -31 -79t-77 -32z" />
    <glyph glyph-name="uni0420" unicode="&#x420;" horiz-adv-x="1193" 
d="M279 -23q-46 0 -77.5 32t-31.5 79v1151q0 49 32 81t81 32h379q206 0 332 -114t126 -300q0 -185 -127 -300.5t-331 -115.5h-275v-434q0 -47 -31 -79t-77 -32zM387 715h272q110 0 174 59t64 162t-64 163t-174 60h-272v-444z" />
    <glyph glyph-name="uni0421" unicode="&#x421;" horiz-adv-x="1468" 
d="M799 -23q-197 0 -360 92t-257 253t-94 354t94 353.5t257 252.5t360 92q156 0 294.5 -62t231.5 -173q35 -46 35 -86t-29.5 -69.5t-70.5 -29.5q-49 0 -86 43q-147 179 -373 179q-211 0 -349.5 -142.5t-138.5 -357.5t138.5 -357.5t349.5 -142.5q221 0 370 178q37 43 89 43
q41 0 70.5 -29t29.5 -69q0 -38 -37 -86q-90 -111 -228 -173.5t-296 -62.5z" />
    <glyph glyph-name="uni0422" unicode="&#x422;" horiz-adv-x="1193" 
d="M596 -23q-46 0 -77.5 32t-31.5 79v1069h-364q-43 0 -71.5 27.5t-28.5 68.5t28.5 70t71.5 29h948q43 0 71.5 -29t28.5 -70t-28.5 -68.5t-71.5 -27.5h-366v-1069q0 -47 -31.5 -79t-77.5 -32z" />
    <glyph glyph-name="uni0423" unicode="&#x423;" horiz-adv-x="1269" 
d="M1087 1358q46 0 78.5 -33.5t32.5 -79.5q0 -26 -16 -57l-426 -922q-69 -147 -174 -218t-254 -71q-74 0 -129 19q-66 23 -66 90q0 40 29.5 68t73.5 28q6 0 25.5 -1t33.5 -1q97 0 153 34.5t95 113.5l2 6l-430 854q-17 28 -17 59q0 44 33.5 77.5t77.5 33.5q66 0 104 -68
l351 -723l319 723q13 32 41.5 50t62.5 18z" />
    <glyph glyph-name="uni0424" unicode="&#x424;" horiz-adv-x="1673" 
d="M1585 686q0 -255 -175.5 -410.5t-465.5 -156.5v-107q0 -47 -30.5 -78.5t-77.5 -31.5q-46 0 -77.5 31.5t-31.5 78.5v107q-289 3 -464 158.5t-175 408.5t174 405.5t465 155.5v92q0 47 31.5 80t77.5 33q47 0 77.5 -32.5t30.5 -80.5v-92q291 -2 466 -155t175 -406zM307 680
q0 -172 112 -271t308 -100v748q-196 -1 -308 -101.5t-112 -275.5zM944 309q197 0 309.5 99t112.5 272q0 176 -113 276.5t-309 100.5v-748z" />
    <glyph glyph-name="uni0425" unicode="&#x425;" horiz-adv-x="1241" 
d="M1128 158q29 -45 29 -76q0 -43 -31 -74t-75 -31q-54 0 -86 46l-344 487l-345 -487q-29 -46 -86 -46q-44 0 -75 31t-31 74q0 39 31 78l379 532l-349 500q-30 44 -30 80q0 43 31 72.5t75 29.5q55 0 88 -45l312 -457l317 457q31 45 88 45q44 0 74 -29.5t30 -72.5
q0 -42 -30 -82l-350 -498z" />
    <glyph glyph-name="uni0426" unicode="&#x426;" horiz-adv-x="1456" 
d="M1116 1374q46 0 77.5 -31.5t31.5 -78.5v-1069h59q47 0 80 -32t33 -79v-285q0 -47 -31.5 -78.5t-77.5 -31.5q-47 0 -77.5 31.5t-30.5 78.5v201h-897q-48 0 -80.5 32t-32.5 81v1151q0 47 31.5 78.5t77.5 31.5q47 0 77.5 -31.5t30.5 -78.5v-1069h621v1069q0 47 30.5 78.5
t77.5 31.5z" />
    <glyph glyph-name="uni0427" unicode="&#x427;" horiz-adv-x="1296" 
d="M1018 1374q47 0 77.5 -31.5t30.5 -78.5v-1176q0 -48 -30.5 -79.5t-77.5 -31.5q-46 0 -77.5 32t-31.5 79v406q-125 -41 -262 -41q-258 0 -408.5 146t-150.5 398v267q0 47 31.5 78.5t77.5 31.5q47 0 77.5 -31.5t30.5 -78.5v-248q0 -170 93 -266.5t257 -96.5q128 0 254 49
v562q0 47 31.5 78.5t77.5 31.5z" />
    <glyph glyph-name="uni0428" unicode="&#x428;" horiz-adv-x="2109" 
d="M1831 1374q46 0 77 -31.5t31 -78.5v-1151q0 -49 -32 -81t-80 -32h-1544q-48 0 -80.5 32t-32.5 81v1151q0 47 31.5 78.5t77.5 31.5q47 0 77.5 -31.5t30.5 -78.5v-1069h559v1069q0 47 31.5 78.5t77.5 31.5q47 0 77.5 -31.5t30.5 -78.5v-1069h559v1069q0 47 31 78.5t78 31.5
z" />
    <glyph glyph-name="uni0429" unicode="&#x429;" horiz-adv-x="2170" 
d="M1831 1374q46 0 77 -31.5t31 -78.5v-1069h60q47 0 79.5 -32t32.5 -79v-285q0 -47 -31 -78.5t-77 -31.5q-47 0 -78 31.5t-31 78.5v201h-1611q-48 0 -80.5 32t-32.5 81v1151q0 47 31.5 78.5t77.5 31.5q47 0 77.5 -31.5t30.5 -78.5v-1069h559v1069q0 47 31.5 78.5t77.5 31.5
q47 0 77.5 -31.5t30.5 -78.5v-1069h559v1069q0 47 31 78.5t78 31.5z" />
    <glyph glyph-name="uni042A" unicode="&#x42a;" horiz-adv-x="1316" 
d="M322 0q-48 0 -80.5 32t-32.5 81v1044h-141q-43 0 -72 27.5t-29 68.5t29 70t72 29h245q49 0 81 -32t32 -81v-387h326q212 0 342.5 -117.5t130.5 -308.5q0 -192 -129.5 -309t-343.5 -117h-430zM426 193h326q115 0 182 63.5t67 169.5q0 107 -67 170t-182 63h-326v-466z" />
    <glyph glyph-name="uni042B" unicode="&#x42b;" horiz-adv-x="1835" 
d="M279 1374q47 0 77.5 -31.5t30.5 -78.5v-412h328q214 0 343.5 -119t129.5 -307q0 -189 -129 -307.5t-344 -118.5h-432q-48 0 -80.5 32t-32.5 81v1151q0 47 31.5 78.5t77.5 31.5zM1556 -23q-47 0 -77.5 31.5t-30.5 79.5v1176q0 47 30.5 78.5t77.5 31.5t78 -31.5t31 -78.5
v-1176q0 -47 -31 -79t-78 -32zM715 659h-328v-466h328q118 0 184 64.5t66 168.5t-66 168.5t-184 64.5z" />
    <glyph glyph-name="uni042C" unicode="&#x42c;" horiz-adv-x="1277" 
d="M279 1374q47 0 77.5 -31.5t30.5 -78.5v-412h328q214 0 343.5 -119t129.5 -307q0 -189 -129 -307.5t-344 -118.5h-432q-48 0 -80.5 32t-32.5 81v1151q0 47 31.5 78.5t77.5 31.5zM715 659h-328v-466h328q118 0 184 64.5t66 168.5t-66 168.5t-184 64.5z" />
    <glyph glyph-name="uni042D" unicode="&#x42d;" horiz-adv-x="1468" 
d="M670 1374q118 0 227 -34.5t196 -98.5t152 -149.5t100 -192.5t35 -223q0 -145 -55 -274.5t-149.5 -222.5t-226.5 -147.5t-279 -54.5q-158 0 -296.5 62.5t-228.5 173.5q-36 47 -36 86q0 40 29.5 69t70.5 29q51 0 88 -43q149 -178 371 -178q196 0 331 125.5t154 321.5h-588
q-41 0 -68.5 27t-27.5 67t27.5 67t68.5 27h574q-40 163 -169 264t-302 101q-226 0 -373 -179q-37 -43 -86 -43q-41 0 -70.5 29.5t-29.5 69.5q0 41 34 86q93 111 232 173t295 62z" />
    <glyph glyph-name="uni042E" unicode="&#x42e;" horiz-adv-x="2185" 
d="M1386 1374q146 0 277 -55t226 -148t150.5 -222.5t55.5 -272.5t-55.5 -272.5t-150.5 -223t-226 -148.5t-277 -55q-138 0 -262.5 49t-216 134t-149 204t-68.5 254h-303v-530q0 -48 -30.5 -79.5t-77.5 -31.5q-46 0 -77.5 32t-31.5 79v1176q0 47 31.5 78.5t77.5 31.5
q47 0 77.5 -31.5t30.5 -78.5v-451h313q46 246 237 403.5t449 157.5zM1389 176q207 0 345 143.5t138 358.5q0 214 -138 356t-345 142q-209 0 -347.5 -142t-138.5 -356q0 -215 138.5 -358.5t347.5 -143.5z" />
    <glyph glyph-name="uni042F" unicode="&#x42f;" horiz-adv-x="1284" 
d="M1004 1352q48 0 80 -32t32 -81v-1151q0 -47 -31 -79t-77 -32q-47 0 -78 32t-31 79v377h-248q-27 0 -67 4l-295 -444q-32 -48 -88 -48q-44 0 -75.5 31.5t-31.5 77.5q0 31 25 70l256 374q-102 58 -158.5 155.5t-56.5 223.5q0 198 135.5 320.5t355.5 122.5h353zM899 657v502
h-250q-120 0 -193 -68.5t-73 -181.5q0 -114 73 -183t193 -69h250z" />
    <glyph glyph-name="uni0430" unicode="&#x430;" horiz-adv-x="1097" 
d="M541 1028q195 0 304 -111t109 -309v-522q0 -47 -30 -78t-76 -31t-76.5 31.5t-30.5 77.5v12q-115 -121 -309 -121q-157 0 -253.5 80.5t-96.5 210.5q0 132 100.5 209.5t270.5 77.5h284v66q0 103 -56 159t-159 56q-128 0 -223 -95q-38 -32 -74 -32q-38 0 -66 27t-28 63
q0 45 43 88q64 67 160.5 104t206.5 37zM477 143q109 0 184.5 69t75.5 169v18h-258q-178 0 -178 -123q0 -61 48 -97t128 -36z" />
    <glyph glyph-name="uni0431" unicode="&#x431;" horiz-adv-x="1269" 
d="M690 985q202 0 346 -147.5t144 -354.5q0 -213 -152 -358t-375 -145q-235 0 -379.5 159t-144.5 420v121q0 338 140.5 522t473.5 281l185 51q49 14 65 14q40 0 67 -28t27 -68q0 -75 -88 -100l-194 -56q-231 -66 -337.5 -176t-115.5 -295q62 76 150 118t188 42zM653 176
q127 0 216 89t89 216q0 129 -88.5 217t-216.5 88t-216.5 -88t-88.5 -217q0 -126 89 -215.5t216 -89.5z" />
    <glyph glyph-name="uni0432" unicode="&#x432;" horiz-adv-x="1130" 
d="M879 537q159 -69 159 -238q0 -132 -98.5 -215.5t-253.5 -83.5h-407q-47 0 -79 32t-32 79v784q0 46 32 78.5t79 32.5h352q154 0 246 -74t92 -197t-90 -198zM377 825v-219h252q66 0 101.5 28.5t35.5 82.5q0 108 -137 108h-252zM670 182q78 0 123 35.5t45 95.5
q0 58 -45 91.5t-123 33.5h-293v-256h293z" />
    <glyph glyph-name="uni0433" unicode="&#x433;" horiz-adv-x="917" 
d="M276 -23q-47 0 -77.5 31.5t-30.5 79.5v807q0 46 32 78.5t79 32.5h528q41 0 68.5 -27.5t27.5 -67.5t-27.5 -66t-68.5 -26h-424v-731q0 -47 -30.5 -79t-76.5 -32z" />
    <glyph glyph-name="uni0434" unicode="&#x434;" horiz-adv-x="1316" 
d="M1137 186q46 0 78 -31.5t32 -78.5v-277q0 -49 -31 -79.5t-77 -30.5t-77.5 31.5t-31.5 78.5v201h-743v-201q0 -49 -31 -79.5t-78 -30.5q-46 0 -77 31.5t-31 78.5v277q0 47 32 78.5t78 31.5h19q96 104 138 271t42 440v2q0 45 32 76t78 31h474q47 0 78.5 -32.5t31.5 -78.5
v-709h64zM594 819q-2 -236 -41 -388.5t-123 -244.5h428v633h-264z" />
    <glyph glyph-name="uni0435" unicode="&#x435;" horiz-adv-x="1167" 
d="M610 1028q201 0 334 -132.5t133 -334.5v-10q0 -55 -33 -87t-90 -32h-643q22 -122 109 -193t219 -71q131 0 235 78q30 20 56 20q38 0 64 -26t26 -64q0 -51 -53 -90q-145 -109 -334 -109q-233 0 -387 149.5t-154 375.5q0 146 68 267t187 190t263 69zM604 846
q-108 0 -186 -67.5t-103 -178.5h547q-3 109 -74 177.5t-184 68.5z" />
    <glyph glyph-name="uni0436" unicode="&#x436;" horiz-adv-x="1658" 
d="M303 987l336 -366q35 -38 35 -78q0 -38 -31 -74l-381 -453q-27 -39 -78 -39q-44 0 -74 29t-30 70q0 36 26 69l338 402l-292 305q-35 38 -35 78q0 41 28 68.5t70 29.5q50 0 88 -41zM831 1028q45 0 76 -31.5t31 -78.5v-830q0 -49 -31 -80t-76 -31q-47 0 -77.5 31.5
t-30.5 79.5v830q0 47 30.5 78.5t77.5 31.5zM1548 145q29 -40 29 -69q0 -41 -30 -70t-74 -29q-47 0 -80 39l-379 453q-33 39 -33 74q0 38 37 78l336 366q38 41 86 41q42 -2 71 -29.5t29 -68.5q0 -37 -35 -78l-295 -305z" />
    <glyph glyph-name="uni0437" unicode="&#x437;" horiz-adv-x="1030" 
d="M766 524q73 -39 113.5 -102.5t40.5 -140.5q0 -137 -117 -220.5t-307 -83.5q-108 0 -200.5 31.5t-152.5 89.5q-47 41 -47 82q0 40 29 67t70 27q32 0 67 -26q86 -80 232 -80q101 0 156 36.5t55 102.5q0 63 -49.5 97t-139.5 34h-108q-37 0 -63 25t-26 61t26 61t63 25h104
q72 0 111 29.5t39 83.5q0 115 -179 115q-130 0 -211 -66q-37 -27 -67 -27q-40 0 -67 27.5t-27 67.5q0 43 47 82q57 50 144.5 78t186.5 28q178 0 283 -77t105 -208q0 -140 -111 -219z" />
    <glyph glyph-name="uni0438" unicode="&#x438;" horiz-adv-x="1234" 
d="M963 1028q45 0 75.5 -31.5t30.5 -78.5v-830q0 -47 -31 -79t-77 -32t-76.5 32t-30.5 79v557l-481 -612q-47 -56 -99 -56q-46 0 -76 32t-30 79v830q0 47 30.5 78.5t77.5 31.5q45 0 76 -31.5t31 -78.5v-572l481 625q43 57 99 57z" />
    <glyph glyph-name="uni0439" unicode="&#x439;" horiz-adv-x="1234" 
d="M623 1182q-132 0 -231 90t-99 207q0 38 24.5 65t61.5 27q70 0 86 -76q9 -63 53.5 -103t104.5 -40q61 0 104.5 40t54.5 103q8 35 30 55.5t54 20.5q37 0 62.5 -27t25.5 -65q0 -121 -97.5 -209t-233.5 -88zM963 1028q45 0 75.5 -31.5t30.5 -78.5v-830q0 -47 -31 -79t-77 -32
t-76.5 32t-30.5 79v557l-481 -612q-47 -56 -99 -56q-46 0 -76 32t-30 79v830q0 47 30.5 78.5t77.5 31.5q45 0 76 -31.5t31 -78.5v-572l481 625q43 57 99 57z" />
    </font>
</defs>
</svg>
