<?xml version="1.0" standalone="no"?>
<!DOCTYPE svg PUBLIC "-//W3C//DTD SVG 1.1//EN" "http://www.w3.org/Graphics/SVG/1.1/DTD/svg11.dtd" >
<svg xmlns="http://www.w3.org/2000/svg" xmlns:xlink="http://www.w3.org/1999/xlink" version="1.1">
<metadata>
Created by FontForge 20170731 at Wed Mar  4 01:53:03 2020
 By Aleksey,,,
Copyright (c) 2020 by Alexander Pravdin. All rights reserved.
</metadata>
<defs>
<font id="NEXTART-Bold" horiz-adv-x="1234" >
  <font-face 
    font-family="NEXT ART"
    font-weight="700"
    font-stretch="normal"
    units-per-em="2048"
    panose-1="2 0 8 3 3 0 0 2 0 4"
    ascent="1638"
    descent="-410"
    x-height="1433"
    cap-height="1434"
    bbox="-98 -610 2823 1946"
    underline-thickness="50"
    underline-position="-250"
    unicode-range="U+0020-F6D4"
  />
<missing-glyph horiz-adv-x="1466" 
d="M1223 1675l-99 -241h207v-1434h-792l-98 -241h-198l98 241h-206v1434h790l99 241h199zM1141 188v1057h-94l-431 -1057h525zM325 1245v-1057h92l431 1057h-523z" />
    <glyph glyph-name=".notdef" horiz-adv-x="1466" 
d="M1223 1675l-99 -241h207v-1434h-792l-98 -241h-198l98 241h-206v1434h790l99 241h199zM1141 188v1057h-94l-431 -1057h525zM325 1245v-1057h92l431 1057h-523z" />
    <glyph glyph-name=".null" horiz-adv-x="0" 
 />
    <glyph glyph-name="nonmarkingreturn" horiz-adv-x="682" 
 />
    <glyph glyph-name="space" unicode=" " horiz-adv-x="530" 
 />
    <glyph glyph-name="exclam" unicode="!" horiz-adv-x="563" 
d="M133 293h297v-293h-297v293zM156 416l-29 1018h309l-28 -1018h-252z" />
    <glyph glyph-name="quotedbl" unicode="&#x22;" horiz-adv-x="946" 
d="M132 1434h307l-24 -516h-248zM506 1434h308l-36 -516h-248z" />
    <glyph glyph-name="numbersign" unicode="#" horiz-adv-x="1529" 
d="M519 1431h267l-65 -346h230l66 346h267l-65 -346h250l-46 -248h-251l-44 -237h249l-47 -250h-248l-66 -350h-273l66 350h-229l-68 -350h-271l69 350h-250l48 250h249l45 237h-249l49 248h249zM861 597l46 245h-236l-46 -245h236z" />
    <glyph glyph-name="dollar" unicode="$" horiz-adv-x="1279" 
d="M68 248l180 215q202 -185 426 -185q64 0 121 16.5t97 54t40 89.5q0 28 -11 50.5t-36.5 39.5t-49.5 29t-69.5 23.5t-75.5 18t-88 17.5t-88 17q-96 20 -170 49t-135 73t-94 109.5t-33 148.5q0 164 111.5 279t309.5 138v239h268v-254q193 -43 350 -166l-170 -213
q-71 60 -168.5 94t-194.5 34q-87 0 -151.5 -32t-64.5 -92q0 -28 15 -49.5t38.5 -36t68 -27.5t87 -21.5t112.5 -20.5q59 -10 106 -20.5t104.5 -29t101 -40.5t87 -56.5t71.5 -76t45.5 -98.5t17.5 -125q0 -168 -128 -288t-327 -145v-245h-268v258q-240 53 -435 229z" />
    <glyph glyph-name="percent" unicode="%" horiz-adv-x="1815" 
d="M1339 236q67 0 105 58t38 131q0 45 -14 86.5t-48 72.5t-81 31q-68 0 -106 -58t-38 -132q0 -45 14 -86.5t48 -72t82 -30.5zM939 420q0 113 49 210.5t142 158t209 60.5q173 0 287 -122.5t114 -301.5q0 -174 -112.5 -299t-288.5 -125q-172 0 -286 121t-114 298zM475 1200
q-68 0 -105.5 -57.5t-37.5 -131.5q0 -45 14 -86t48 -72t81 -31q68 0 106 57.5t38 131.5q0 45 -14 86.5t-48 72t-82 30.5zM875 1017q0 -113 -49 -210.5t-142 -158.5t-209 -61q-172 0 -286 122.5t-114 301.5q0 113 48.5 209t141 155.5t210.5 59.5q172 0 286 -121t114 -297z
M1584 1435l-358 -518h-304l311 518h351zM230 0l359 516h303l-309 -516h-353z" />
    <glyph glyph-name="ampersand" unicode="&#x26;" horiz-adv-x="1434" 
d="M562 275q109 0 190 81l-254 280q-59 -23 -98 -70.5t-39 -106.5q0 -75 60 -129.5t141 -54.5zM1123 349l311 -349h-366l-126 147q-173 -147 -386 -147q-123 0 -234.5 57t-183 163t-71.5 235q0 117 67.5 214.5t179.5 159.5q-67 106 -67 208q0 85 37.5 161t98 127t137 81
t154.5 30q230 0 410 -235l-228 -168q-105 128 -192 128q-47 0 -83.5 -36t-36.5 -88q0 -31 18.5 -59t74.5 -89l296 -331q99 154 96 402h287q0 -210 -63 -372q-12 -33 -26.5 -64t-30.5 -59t-26 -44.5t-27 -42t-20 -29.5z" />
    <glyph glyph-name="quotesingle" unicode="'" horiz-adv-x="542" 
d="M114 1434h314l-36 -517h-242z" />
    <glyph glyph-name="parenleft" unicode="(" horiz-adv-x="674" 
d="M327 1713h276q-115 -198 -176 -466t-61 -529t58.5 -518.5t178.5 -477.5h-276q-123 193 -191.5 466.5t-68.5 529.5q0 552 260 995z" />
    <glyph glyph-name="parenright" unicode=")" horiz-adv-x="675" 
d="M72 1713h276q123 -193 191.5 -465t68.5 -530t-65.5 -520.5t-194.5 -475.5h-276q113 194 175 467t62 529q0 257 -59.5 518t-177.5 477z" />
    <glyph glyph-name="asterisk" unicode="*" horiz-adv-x="833" 
d="M316 1514h201l-6 -218l204 74l62 -192l-208 -62l133 -170l-163 -118l-122 178l-122 -178l-163 118l132 170l-208 62l62 191l204 -73z" />
    <glyph glyph-name="plus" unicode="+" horiz-adv-x="971" 
d="M353 1134h265v-308h309v-266h-309v-309h-265v309h-309v266h309v308z" />
    <glyph glyph-name="comma" unicode="," horiz-adv-x="543" 
d="M65 -229l73 536h318l-157 -536h-234z" />
    <glyph glyph-name="hyphen" unicode="-" horiz-adv-x="1057" 
d="M138 558v274h781v-274h-781z" />
    <glyph glyph-name="period" unicode="." horiz-adv-x="543" 
d="M117 0v307h309v-307h-309z" />
    <glyph glyph-name="slash" unicode="/" horiz-adv-x="1308" 
d="M953 1708h315l-913 -1995h-315z" />
    <glyph glyph-name="zero" unicode="0" horiz-adv-x="1615" 
d="M1538 717q0 -149 -55.5 -281.5t-151.5 -228.5t-232.5 -151.5t-291.5 -55.5t-291 55.5t-232 151.5t-151.5 228.5t-55.5 281.5t55.5 281.5t151.5 228t232 151.5t291 56t291.5 -56t232.5 -151.5t151.5 -228t55.5 -281.5zM1231 717q0 189 -117 315.5t-307 126.5
q-189 0 -306 -126.5t-117 -315.5q0 -190 117 -315.5t306 -125.5q190 0 307 125.5t117 315.5z" />
    <glyph glyph-name="one" unicode="1" horiz-adv-x="714" 
d="M57 1435h510v-1435h-299v1158h-211v277z" />
    <glyph glyph-name="two" unicode="2" 
d="M1131 278v-277h-1018v269q1 82 27.5 151.5t66.5 118.5t101 91t119 69.5t133 54.5q12 4 42.5 15t44 16t40.5 16t40 19t33.5 20.5t30.5 25t21.5 28t16 34t4.5 39.5q0 82 -61.5 136t-150.5 54q-79 0 -136 -50t-71 -134h-299q16 200 159.5 330t346.5 130q94 0 185.5 -34.5
t164 -93.5t117 -147.5t44.5 -188.5q0 -62 -14 -113.5t-42.5 -91t-61 -70.5t-81 -57.5t-89.5 -44t-99 -39.5q-155 -58 -216 -97q-118 -74 -121 -179h723z" />
    <glyph glyph-name="three" unicode="3" horiz-adv-x="1274" 
d="M110 1434h951v-275l-354 -259q160 7 287 -75q93 -60 146 -155.5t53 -208.5q0 -138 -77.5 -245.5t-199.5 -162t-263 -54.5q-103 0 -198 31t-170.5 87.5t-122.5 146.5t-50 199h299q7 -86 77.5 -135t164.5 -49q95 0 168 52t73 146q0 98 -79.5 153t-187.5 55q-86 0 -158 -39
l-156 213l377 300h-580v275z" />
    <glyph glyph-name="four" unicode="4" horiz-adv-x="1294" 
d="M719 280h-649v277l648 877h296v-882h215v-272h-215v-280h-295v280zM373 552h346v472z" />
    <glyph glyph-name="five" unicode="5" horiz-adv-x="1263" 
d="M101 464h300q9 -86 79.5 -135t163.5 -49q95 0 169 53t74 146q0 92 -72.5 150.5t-170.5 58.5h-486v746h929v-277h-629v-210h186q185 0 316 -74q109 -61 167.5 -166.5t58.5 -243.5q0 -104 -45.5 -192.5t-121 -147t-173 -91t-202.5 -32.5q-103 0 -198 31t-171 87.5
t-123.5 146.5t-50.5 199z" />
    <glyph glyph-name="six" unicode="6" horiz-adv-x="1218" 
d="M1014 1434l-392 -477q181 4 322 -93q93 -64 145.5 -161t52.5 -211q0 -135 -72 -248t-196.5 -178.5t-272.5 -65.5q-144 0 -267 63.5t-196.5 176.5t-74.5 250q0 47 7 90t27 90.5t37.5 82t58 93.5t67.5 95t85 113l295 380h374zM601 272q101 0 171 64.5t70 156.5t-70 157
t-171 65q-100 0 -169.5 -64.5t-69.5 -157.5q0 -92 69.5 -156.5t169.5 -64.5z" />
    <glyph glyph-name="seven" unicode="7" horiz-adv-x="1229" 
d="M589 0h-331l555 1159h-743v275h1112v-153z" />
    <glyph glyph-name="eight" unicode="8" horiz-adv-x="1275" 
d="M637 1160q-88 0 -154 -37.5t-66 -110.5q0 -72 65.5 -110.5t154.5 -38.5q56 0 104.5 15t82.5 50t34 84q0 72 -65 110t-156 38zM637 628q-101 0 -177.5 -45.5t-76.5 -131.5q0 -85 75.5 -131t178.5 -46q102 0 178.5 45.5t76.5 131.5q0 85 -75.5 131t-179.5 46zM1000 761
q191 -135 191 -329q0 -81 -31 -151.5t-84.5 -121t-124 -87t-151 -54.5t-163.5 -18q-101 0 -198 28t-177 80.5t-129 136.5t-49 187q0 194 191 329q-146 104 -146 277q0 74 28.5 138.5t77.5 111t114 80t138.5 50t149.5 16.5q93 0 182.5 -26t163 -73.5t118.5 -125t45 -171.5
q0 -173 -146 -277z" />
    <glyph glyph-name="nine" unicode="9" horiz-adv-x="1218" 
d="M204 0l392 477q-181 -4 -322 93q-93 64 -145.5 161t-52.5 211q0 135 72 248t196.5 178.5t272.5 65.5q144 0 267 -63.5t196.5 -176.5t74.5 -250q0 -47 -7 -90t-27 -90.5t-37.5 -82t-58 -93.5t-67.5 -95t-85 -113l-295 -380h-374zM617 1162q-101 0 -171 -64.5t-70 -156.5
t70 -157t171 -65q100 0 169.5 64.5t69.5 157.5q0 92 -69.5 156.5t-169.5 64.5z" />
    <glyph glyph-name="colon" unicode=":" horiz-adv-x="543" 
d="M117 723v307h309v-307h-309zM117 0v307h309v-307h-309z" />
    <glyph glyph-name="semicolon" unicode=";" horiz-adv-x="543" 
d="M136 307l-73 -536h234l157 536h-318zM116 723v307h309v-307h-309z" />
    <glyph glyph-name="less" unicode="&#x3c;" horiz-adv-x="1056" 
d="M60 865l856 417v-313l-567 -255l567 -256v-313l-856 418v302z" />
    <glyph glyph-name="equal" unicode="=" horiz-adv-x="1180" 
d="M140 752v247h900v-247h-900zM140 388v248h900v-248h-900z" />
    <glyph glyph-name="greater" unicode="&#x3e;" horiz-adv-x="1056" 
d="M140 1282l856 -417v-302l-856 -418v313l567 256l-567 255v313z" />
    <glyph glyph-name="question" unicode="?" horiz-adv-x="1107" 
d="M698 293v-293h-297v293h297zM682 416h-262q-2 102 21 176t59 117t96 87q6 5 32.5 23.5t35 25.5t29 24.5t28.5 29t19.5 29.5t15.5 37t4 40q0 67 -57 110.5t-146 43.5q-104 0 -157 -56.5t-56 -152.5h-302q9 219 147 351.5t370 132.5q221 0 361 -121.5t140 -312.5
q0 -101 -47.5 -172t-133.5 -134q-7 -5 -40 -28.5t-39.5 -28.5t-31 -25.5t-31 -30t-21.5 -30.5t-19.5 -38.5t-9.5 -42.5t-5 -54z" />
    <glyph glyph-name="at" unicode="@" horiz-adv-x="1808" 
d="M878 526q69 0 119.5 50t50.5 121q0 70 -49.5 121.5t-120.5 51.5q-70 0 -120 -51t-50 -122q0 -69 49 -120t121 -51zM1054 1109h248v-492q0 -133 89 -133q129 0 129 223q0 123 -47.5 236t-128.5 196.5t-196 133t-244 49.5q-164 0 -305 -80t-225.5 -222t-84.5 -313
q0 -140 59.5 -264.5t163.5 -210.5q170 -141 390 -141q187 0 348 110l127 -178q-214 -147 -472 -147q-291 0 -519 178q-151 117 -235.5 287.5t-84.5 365.5q0 110 30 216.5t83.5 197.5t130.5 168.5t168.5 132t201 85t224.5 30.5q164 0 318 -64.5t268.5 -174t183.5 -264.5
t69 -327q0 -115 -33.5 -203.5t-89 -139t-121 -76t-136.5 -25.5q-93 0 -168.5 45t-99.5 118q-35 -42 -64.5 -68t-85.5 -48.5t-125 -22.5q-68 0 -131.5 24.5t-117.5 71.5t-86.5 127.5t-32.5 181.5q0 176 104 295t246 119q35 0 66.5 -6.5t52.5 -14.5t45 -23t34.5 -23.5
t30 -26.5t23.5 -22v119z" />
    <glyph glyph-name="A" unicode="A" horiz-adv-x="1433" 
d="M1122 0l-90 239h-633l-88 -239h-311l569 1433h296l568 -1433h-311zM717 1084l-215 -574h427z" />
    <glyph glyph-name="B" unicode="B" horiz-adv-x="1370" 
d="M434 860h254q73 0 109 14q103 43 103 139q0 95 -103 139q-33 15 -110 15h-253v-307zM434 272h347q79 0 120 16q50 20 80.5 59t30.5 94q0 53 -30.5 92t-80.5 59q-39 16 -122 16h-345v-336zM135 0v1433h584q155 0 254 -54q98 -54 155 -149.5t57 -219.5q0 -130 -93 -236
q98 -54 156.5 -143.5t58.5 -201.5q0 -122 -55 -217.5t-150 -151.5q-104 -60 -262 -60h-705z" />
    <glyph glyph-name="C" unicode="C" horiz-adv-x="1540" 
d="M1489 942l-283 -92q-45 147 -152.5 229.5t-257.5 82.5q-186 0 -304.5 -127t-118.5 -318q0 -120 51.5 -220.5t149.5 -161.5t222 -61q151 0 257.5 82.5t153.5 234.5l285 -88q-64 -225 -257 -364t-439 -139q-148 0 -282.5 55t-233 149.5t-157 228t-58.5 284.5
q0 148 56.5 281t153.5 229t232.5 152t288.5 56q160 0 298.5 -56t243 -168.5t151.5 -268.5z" />
    <glyph glyph-name="D" unicode="D" horiz-adv-x="1461" 
d="M627 274q131 0 219 39q116 52 183 160t67 243q0 134 -67 242.5t-183 160.5q-86 38 -219 38h-193v-883h193zM627 1434q148 0 261 -35q224 -69 366 -255t142 -428t-142 -427.5t-366 -255.5q-112 -33 -261 -33h-492v1434h492z" />
    <glyph glyph-name="E" unicode="E" 
d="M135 1434h1009v-276h-709v-236h541v-273h-541v-373h709v-276h-1009v1434z" />
    <glyph glyph-name="F" unicode="F" horiz-adv-x="1210" 
d="M135 1434h1009v-276h-709v-236h541v-276h-541v-646h-300v1434z" />
    <glyph glyph-name="G" unicode="G" horiz-adv-x="1589" 
d="M1220 1311l-169 -231q-113 84 -255 84q-187 0 -306.5 -128t-119.5 -319q0 -184 119 -313.5t307 -129.5q161 0 278 98t147 275h-450v276h725q28 -96 28 -206q0 -119 -35.5 -229t-102 -198t-155.5 -153.5t-201 -101t-234 -35.5q-147 0 -281.5 54t-233.5 147.5t-157.5 228
t-58.5 287.5q0 148 56.5 281t153.5 229t232.5 152t288.5 56q242 0 424 -124z" />
    <glyph glyph-name="H" unicode="H" horiz-adv-x="1512" 
d="M1077 1434h300v-1434h-300v647h-643v-647h-299v1434h299v-510h643v510z" />
    <glyph glyph-name="I" unicode="I" horiz-adv-x="570" 
d="M135 0v1434h300v-1434h-300z" />
    <glyph glyph-name="J" unicode="J" horiz-adv-x="820" 
d="M-9 59l143 263q34 -22 85 -22q57 0 100.5 33.5t57.5 81.5q11 36 11 114v905h299v-828q0 -185 -20 -262q-37 -148 -161 -246t-287 -98q-124 0 -228 59z" />
    <glyph glyph-name="K" unicode="K" horiz-adv-x="1375" 
d="M859 1434h377l-466 -517l608 -917h-355l-453 694l-135 -150v-544h-300v1434h300v-491z" />
    <glyph glyph-name="L" unicode="L" horiz-adv-x="1194" 
d="M135 1435h300v-1158h709v-277h-1009v1435z" />
    <glyph glyph-name="M" unicode="M" horiz-adv-x="1822" 
d="M135 1434h163l613 -711l613 711h163v-1434h-299v881l-477 -561l-477 561v-881h-299v1434z" />
    <glyph glyph-name="N" unicode="N" horiz-adv-x="1583" 
d="M434 0h-299v1434h163l851 -908v908h299v-1434h-163l-851 907v-907z" />
    <glyph glyph-name="O" unicode="O" horiz-adv-x="1591" 
d="M1526 717q0 -149 -55.5 -281.5t-151.5 -228.5t-232.5 -151.5t-291.5 -55.5t-291 55.5t-232 151.5t-151.5 228.5t-55.5 281.5t55.5 281.5t151.5 228t232 151.5t291 56t291.5 -56t232.5 -151.5t151.5 -228t55.5 -281.5zM1219 717q0 189 -117 315.5t-307 126.5
q-189 0 -306 -126.5t-117 -315.5q0 -190 117 -315.5t306 -125.5q190 0 307 125.5t117 315.5z" />
    <glyph glyph-name="P" unicode="P" horiz-adv-x="1348" 
d="M434 852h364q74 0 109 14q45 19 73 54t28 84q0 48 -27.5 84t-73.5 54q-36 15 -110 15h-363v-305zM434 0h-299v1433h702q170 0 275 -67q89 -55 140 -148.5t51 -213.5q0 -116 -51.5 -209.5t-141.5 -150.5q-106 -67 -273 -67h-403v-577z" />
    <glyph glyph-name="Q" unicode="Q" horiz-adv-x="1597" 
d="M1526 717q0 -134 -49 -257t-138 -221l178 -241l-241 -178l-180 244q-142 -64 -301 -64q-155 0 -291 55.5t-232 151.5t-151.5 228.5t-55.5 281.5t55.5 281.5t151.5 228t232 151.5t291 56t291.5 -56t232.5 -151.5t151.5 -228t55.5 -281.5zM1219 717q0 189 -117 315.5
t-307 126.5q-189 0 -306 -126.5t-117 -315.5q0 -190 117 -315.5t306 -125.5q190 0 307 125.5t117 315.5z" />
    <glyph glyph-name="R" unicode="R" horiz-adv-x="1410" 
d="M434 0h-299v1433h701q170 0 275 -67q89 -55 140 -148.5t51 -213.5q0 -139 -73 -245q-71 -103 -193 -145l-13 -5l364 -609h-344l-339 579h-270v-579zM434 853h363q77 0 109 14q45 19 73 54t28 83t-27.5 84t-73.5 54q-33 15 -110 15h-362v-304z" />
    <glyph glyph-name="S" unicode="S" horiz-adv-x="1279" 
d="M68 248l180 215q202 -185 426 -185q64 0 121 16.5t97 54t40 89.5q0 28 -11 50.5t-36.5 39.5t-49.5 29t-69.5 23.5t-75.5 18t-88 17.5t-88 17q-96 20 -170 49t-135 73t-94 109.5t-33 148.5q0 183 136 302.5t374 119.5q139 0 275.5 -47t253.5 -139l-170 -213
q-71 60 -168.5 94t-194.5 34q-87 0 -151.5 -32t-64.5 -92q0 -28 15 -49.5t38.5 -36t68 -27.5t87 -21.5t112.5 -20.5q59 -10 106 -20.5t104.5 -29t101 -40.5t87 -56.5t71.5 -76t45.5 -98.5t17.5 -125q0 -124 -72 -225t-197.5 -157.5t-277.5 -56.5q-153 0 -311 60.5
t-300 187.5z" />
    <glyph glyph-name="T" unicode="T" horiz-adv-x="1365" 
d="M61 1434h1243v-277h-472v-1157h-300v1157h-471v277z" />
    <glyph glyph-name="U" unicode="U" horiz-adv-x="1481" 
d="M120 1434h299v-783q0 -69 18 -134q31 -108 108 -174.5t195 -66.5q120 0 197 66.5t107 174.5q18 64 18 134v783h299v-778q0 -89 -21 -183q-51 -213 -210.5 -343.5t-388.5 -130.5t-389 130.5t-211 343.5q-21 87 -21 183v778z" />
    <glyph glyph-name="V" unicode="V" horiz-adv-x="1468" 
d="M1144 1435h324l-580 -1435h-307l-581 1435h324l410 -1041z" />
    <glyph glyph-name="W" unicode="W" horiz-adv-x="1962" 
d="M20 1433h310l244 -953l284 953h253l277 -951l243 951h311l-383 -1433h-288l-288 922l-296 -922h-284z" />
    <glyph glyph-name="X" unicode="X" horiz-adv-x="1473" 
d="M15 0l548 757l-490 676h367l296 -433l296 433h367l-490 -676l549 -757h-370l-352 516l-352 -516h-369z" />
    <glyph glyph-name="Y" unicode="Y" horiz-adv-x="1336" 
d="M818 0h-299v544l-519 889h344l324 -587l324 587h344l-518 -889v-544z" />
    <glyph glyph-name="Z" unicode="Z" horiz-adv-x="1312" 
d="M108 1157v277h1096v-153l-692 -1004h712v-277h-1136v155l694 1002h-674z" />
    <glyph glyph-name="bracketleft" unicode="[" horiz-adv-x="801" 
d="M130 1707h571v-276h-286v-1442h286v-276h-571v1994z" />
    <glyph glyph-name="backslash" unicode="\" horiz-adv-x="1308" 
d="M40 1708h315l913 -1995h-315z" />
    <glyph glyph-name="bracketright" unicode="]" horiz-adv-x="801" 
d="M98 1707h571v-1994h-571v276h285v1442h-285v276z" />
    <glyph glyph-name="asciicircum" unicode="^" horiz-adv-x="852" 
d="M1 734l309 700h231l310 -700h-266l-159 408l-160 -408h-265z" />
    <glyph glyph-name="underscore" unicode="_" horiz-adv-x="1182" 
d="M0 -354v248h1182v-248h-1182z" />
    <glyph glyph-name="grave" unicode="`" horiz-adv-x="602" 
d="M233 1535l-241 306h324l134 -306h-217z" />
    <glyph glyph-name="a" unicode="a" horiz-adv-x="1433" 
d="M1122 0l-90 239h-633l-88 -239h-311l569 1433h296l568 -1433h-311zM717 1084l-215 -574h427z" />
    <glyph glyph-name="b" unicode="b" horiz-adv-x="1370" 
d="M434 860h254q73 0 109 14q103 43 103 139q0 95 -103 139q-33 15 -110 15h-253v-307zM434 272h347q79 0 120 16q50 20 80.5 59t30.5 94q0 53 -30.5 92t-80.5 59q-39 16 -122 16h-345v-336zM135 0v1433h584q155 0 254 -54q98 -54 155 -149.5t57 -219.5q0 -130 -93 -236
q98 -54 156.5 -143.5t58.5 -201.5q0 -122 -55 -217.5t-150 -151.5q-104 -60 -262 -60h-705z" />
    <glyph glyph-name="c" unicode="c" horiz-adv-x="1540" 
d="M1489 942l-283 -92q-45 147 -152.5 229.5t-257.5 82.5q-186 0 -304.5 -127t-118.5 -318q0 -120 51.5 -220.5t149.5 -161.5t222 -61q151 0 257.5 82.5t153.5 234.5l285 -88q-64 -225 -257 -364t-439 -139q-148 0 -282.5 55t-233 149.5t-157 228t-58.5 284.5
q0 148 56.5 281t153.5 229t232.5 152t288.5 56q160 0 298.5 -56t243 -168.5t151.5 -268.5z" />
    <glyph glyph-name="d" unicode="d" horiz-adv-x="1461" 
d="M627 274q131 0 219 39q116 52 183 160t67 243q0 134 -67 242.5t-183 160.5q-86 38 -219 38h-193v-883h193zM627 1434q148 0 261 -35q224 -69 366 -255t142 -428t-142 -427.5t-366 -255.5q-112 -33 -261 -33h-492v1434h492z" />
    <glyph glyph-name="e" unicode="e" 
d="M135 1434h1009v-276h-709v-236h541v-273h-541v-373h709v-276h-1009v1434z" />
    <glyph glyph-name="f" unicode="f" horiz-adv-x="1210" 
d="M135 1434h1009v-276h-709v-236h541v-276h-541v-646h-300v1434z" />
    <glyph glyph-name="g" unicode="g" horiz-adv-x="1589" 
d="M1220 1311l-169 -231q-113 84 -255 84q-187 0 -306.5 -128t-119.5 -319q0 -184 119 -313.5t307 -129.5q161 0 278 98t147 275h-450v276h725q28 -96 28 -206q0 -119 -35.5 -229t-102 -198t-155.5 -153.5t-201 -101t-234 -35.5q-147 0 -281.5 54t-233.5 147.5t-157.5 228
t-58.5 287.5q0 148 56.5 281t153.5 229t232.5 152t288.5 56q242 0 424 -124z" />
    <glyph glyph-name="h" unicode="h" horiz-adv-x="1512" 
d="M1077 1434h300v-1434h-300v647h-643v-647h-299v1434h299v-510h643v510z" />
    <glyph glyph-name="i" unicode="i" horiz-adv-x="570" 
d="M135 0v1434h300v-1434h-300z" />
    <glyph glyph-name="j" unicode="j" horiz-adv-x="820" 
d="M-9 59l143 263q34 -22 85 -22q57 0 100.5 33.5t57.5 81.5q11 36 11 114v905h299v-828q0 -185 -20 -262q-37 -148 -161 -246t-287 -98q-124 0 -228 59z" />
    <glyph glyph-name="k" unicode="k" horiz-adv-x="1375" 
d="M859 1434h377l-466 -517l608 -917h-355l-453 694l-135 -150v-544h-300v1434h300v-491z" />
    <glyph glyph-name="l" unicode="l" horiz-adv-x="1194" 
d="M135 1435h300v-1158h709v-277h-1009v1435z" />
    <glyph glyph-name="m" unicode="m" horiz-adv-x="1822" 
d="M135 1434h163l613 -711l613 711h163v-1434h-299v881l-477 -561l-477 561v-881h-299v1434z" />
    <glyph glyph-name="n" unicode="n" horiz-adv-x="1583" 
d="M434 0h-299v1434h163l851 -908v908h299v-1434h-163l-851 907v-907z" />
    <glyph glyph-name="o" unicode="o" horiz-adv-x="1591" 
d="M1526 717q0 -149 -55.5 -281.5t-151.5 -228.5t-232.5 -151.5t-291.5 -55.5t-291 55.5t-232 151.5t-151.5 228.5t-55.5 281.5t55.5 281.5t151.5 228t232 151.5t291 56t291.5 -56t232.5 -151.5t151.5 -228t55.5 -281.5zM1219 717q0 189 -117 315.5t-307 126.5
q-189 0 -306 -126.5t-117 -315.5q0 -190 117 -315.5t306 -125.5q190 0 307 125.5t117 315.5z" />
    <glyph glyph-name="p" unicode="p" horiz-adv-x="1348" 
d="M434 852h364q74 0 109 14q45 19 73 54t28 84q0 48 -27.5 84t-73.5 54q-36 15 -110 15h-363v-305zM434 0h-299v1433h702q170 0 275 -67q89 -55 140 -148.5t51 -213.5q0 -116 -51.5 -209.5t-141.5 -150.5q-106 -67 -273 -67h-403v-577z" />
    <glyph glyph-name="q" unicode="q" horiz-adv-x="1597" 
d="M1526 717q0 -134 -49 -257t-138 -221l178 -241l-241 -178l-180 244q-142 -64 -301 -64q-155 0 -291 55.5t-232 151.5t-151.5 228.5t-55.5 281.5t55.5 281.5t151.5 228t232 151.5t291 56t291.5 -56t232.5 -151.5t151.5 -228t55.5 -281.5zM1219 717q0 189 -117 315.5
t-307 126.5q-189 0 -306 -126.5t-117 -315.5q0 -190 117 -315.5t306 -125.5q190 0 307 125.5t117 315.5z" />
    <glyph glyph-name="r" unicode="r" horiz-adv-x="1410" 
d="M434 0h-299v1433h701q170 0 275 -67q89 -55 140 -148.5t51 -213.5q0 -139 -73 -245q-71 -103 -193 -145l-13 -5l364 -609h-344l-339 579h-270v-579zM434 853h363q77 0 109 14q45 19 73 54t28 83t-27.5 84t-73.5 54q-33 15 -110 15h-362v-304z" />
    <glyph glyph-name="s" unicode="s" horiz-adv-x="1279" 
d="M68 248l180 215q202 -185 426 -185q64 0 121 16.5t97 54t40 89.5q0 28 -11 50.5t-36.5 39.5t-49.5 29t-69.5 23.5t-75.5 18t-88 17.5t-88 17q-96 20 -170 49t-135 73t-94 109.5t-33 148.5q0 183 136 302.5t374 119.5q139 0 275.5 -47t253.5 -139l-170 -213
q-71 60 -168.5 94t-194.5 34q-87 0 -151.5 -32t-64.5 -92q0 -28 15 -49.5t38.5 -36t68 -27.5t87 -21.5t112.5 -20.5q59 -10 106 -20.5t104.5 -29t101 -40.5t87 -56.5t71.5 -76t45.5 -98.5t17.5 -125q0 -124 -72 -225t-197.5 -157.5t-277.5 -56.5q-153 0 -311 60.5
t-300 187.5z" />
    <glyph glyph-name="t" unicode="t" horiz-adv-x="1365" 
d="M61 1434h1243v-277h-472v-1157h-300v1157h-471v277z" />
    <glyph glyph-name="u" unicode="u" horiz-adv-x="1481" 
d="M120 1434h299v-783q0 -69 18 -134q31 -108 108 -174.5t195 -66.5q120 0 197 66.5t107 174.5q18 64 18 134v783h299v-778q0 -89 -21 -183q-51 -213 -210.5 -343.5t-388.5 -130.5t-389 130.5t-211 343.5q-21 87 -21 183v778z" />
    <glyph glyph-name="v" unicode="v" horiz-adv-x="1468" 
d="M1144 1435h324l-580 -1435h-307l-581 1435h324l410 -1041z" />
    <glyph glyph-name="w" unicode="w" horiz-adv-x="1962" 
d="M20 1433h310l244 -953l284 953h253l277 -951l243 951h311l-383 -1433h-288l-288 922l-296 -922h-284z" />
    <glyph glyph-name="x" unicode="x" horiz-adv-x="1473" 
d="M15 0l548 757l-490 676h367l296 -433l296 433h367l-490 -676l549 -757h-370l-352 516l-352 -516h-369z" />
    <glyph glyph-name="y" unicode="y" horiz-adv-x="1336" 
d="M818 0h-299v544l-519 889h344l324 -587l324 587h344l-518 -889v-544z" />
    <glyph glyph-name="z" unicode="z" horiz-adv-x="1312" 
d="M108 1157v277h1096v-153l-692 -1004h712v-277h-1136v155l694 1002h-674z" />
    <glyph glyph-name="braceleft" unicode="{" horiz-adv-x="852" 
d="M488 430v-262q0 -54 42 -92.5t95 -54.5t105 -16v-281q-104 0 -199.5 30.5t-170 86t-119 141t-44.5 186.5v279q0 129 -153 134v272q153 3 153 133v280q0 134 76.5 237t196.5 155t260 52v-282q-52 0 -105 -16t-95 -54.5t-42 -91.5v-262q0 -34 -7 -72t-22.5 -81t-47 -79.5
t-73.5 -55.5q42 -19 73.5 -55.5t47 -79t22.5 -80t7 -71.5z" />
    <glyph glyph-name="bar" unicode="|" horiz-adv-x="554" 
d="M134 -287v1995h286v-1995h-286z" />
    <glyph glyph-name="braceright" unicode="}" horiz-adv-x="850" 
d="M362 430q0 34 7 72t22.5 81t47 79.5t73.5 55.5q-42 19 -73.5 55.5t-47 79t-22.5 80t-7 71.5v262q0 54 -42 92.5t-95 54.5t-105 16v281q104 0 199.5 -30.5t170 -86t119 -141t44.5 -186.5v-279q0 -129 153 -134v-272q-153 -3 -153 -133v-280q0 -134 -76.5 -237t-196.5 -155
t-260 -52v282q52 0 105 16t95 54.5t42 91.5v262z" />
    <glyph glyph-name="asciitilde" unicode="~" horiz-adv-x="1174" 
d="M314 528h-211q17 342 274 342q73 0 148 -23.5t134 -47t93 -23.5q46 0 73 29.5t35 76.5h211q-17 -342 -274 -342q-73 0 -148 23.5t-134 47t-93 23.5q-46 0 -73 -28.5t-35 -77.5z" />
    <glyph glyph-name="exclamdown" unicode="&#xa1;" horiz-adv-x="563" 
d="M430 1143h-297v293h297v-293zM407 1020l29 -1018h-309l28 1018h252z" />
    <glyph glyph-name="cent" unicode="&#xa2;" horiz-adv-x="1096" 
d="M682 -197h-246v211q-170 39 -282 172.5t-112 318.5t109.5 320t284.5 173v210h246v-210q132 -29 230.5 -118t137.5 -224l-266 -80q-19 82 -79.5 133t-146.5 51q-107 0 -169.5 -72t-62.5 -183q0 -106 63.5 -180t168.5 -74q87 0 145.5 49t80.5 136l266 -82
q-36 -128 -134.5 -218.5t-233.5 -121.5v-211z" />
    <glyph glyph-name="sterling" unicode="&#xa3;" horiz-adv-x="1169" 
d="M78 603v258h167q-22 95 -22 166q0 196 118.5 305t324.5 109q196 0 444 -102l-104 -248q-168 78 -292 78q-53 0 -91.5 -14t-57.5 -32.5t-30 -44.5t-13 -41.5t-2 -32.5q0 -44 21 -143h402v-258h-357q1 -44 -5 -89q-19 -138 -129 -236h636v-278h-1010v278q178 103 210 250
q8 32 8 75h-218z" />
    <glyph glyph-name="currency" unicode="&#xa4;" horiz-adv-x="1286" 
d="M432 713q0 -91 60.5 -152.5t150.5 -61.5t150.5 61.5t60.5 152.5q0 92 -60.5 153.5t-150.5 61.5t-150.5 -61.5t-60.5 -153.5zM1119 713q0 -124 -66 -225l172 -172l-186 -185l-176 177q-100 -57 -220 -57t-220 57l-177 -177l-185 185l172 172q-66 98 -66 225q0 125 66 225
l-172 172l185 185l177 -177q100 57 220 57t220 -57l176 177l186 -185l-172 -172q66 -102 66 -225z" />
    <glyph glyph-name="yen" unicode="&#xa5;" horiz-adv-x="1404" 
d="M1234 231h-383v-231h-299v231h-384v218h384v94h-384v222h257l-391 668h344l323 -587l325 587h344l-392 -668h256v-222h-383v-94h383v-218z" />
    <glyph glyph-name="section" unicode="&#xa7;" horiz-adv-x="1301" 
d="M1211 727q0 -129 -127 -242q123 -96 123 -277q0 -120 -69.5 -217t-190.5 -151.5t-267 -54.5q-145 0 -297.5 59.5t-292.5 181.5l180 203q90 -88 196 -131.5t206 -43.5q105 -1 175 42t70 111q0 25 -9.5 44.5t-32.5 35t-44 26t-62.5 21.5t-68 16.5t-79.5 16t-80 16.5
q-75 16 -128 31.5t-115.5 45.5t-101 67.5t-64.5 97.5t-26 136q0 129 127 242q-123 96 -123 275q0 118 69.5 214t190 150t266.5 54q139 0 284 -53t278 -162l-179 -203q-84 76 -182.5 113t-191.5 37q-105 0 -175 -42t-70 -107q0 -24 9.5 -44t32.5 -35t44 -25.5t62.5 -21
t67.5 -16.5t80 -16.5t80 -15.5q52 -11 91.5 -21.5t87 -27.5t82 -36.5t69.5 -48t56.5 -63t35 -80.5t13.5 -101zM927 703q0 35 -20 61.5t-50.5 42.5t-80.5 29.5t-95 21t-109.5 20t-109.5 23.5q-72 -39 -72 -116q0 -35 20 -62t50.5 -42.5t80.5 -29t95 -21.5t109 -20t110 -24
q72 40 72 117z" />
    <glyph glyph-name="dieresis" unicode="&#xa8;" horiz-adv-x="1224" 
d="M713 1801h264v-256h-264v256zM298 1801h264v-256h-264v256z" />
    <glyph glyph-name="copyright" unicode="&#xa9;" horiz-adv-x="1840" 
d="M1540 720q0 127 -47.5 240t-130 195t-197.5 132t-246 55q-164 0 -307 -82t-228.5 -225.5t-85.5 -314.5q0 -122 48.5 -236t131 -198.5t198 -135.5t243.5 -51q121 0 235.5 48.5t199.5 131t136 198.5t50 243zM1769 720q0 -113 -31 -222t-86 -202t-134 -172.5t-172 -135
t-203 -86.5t-224 -31q-169 0 -326 68t-271.5 182t-183 271t-68.5 328q0 170 67.5 326.5t181.5 271.5t271.5 183.5t328.5 68.5q168 0 325 -68t272.5 -181.5t184.5 -271.5t68 -329zM1402 864l-250 -78q-20 79 -75 127t-138 48q-110 0 -170.5 -63.5t-60.5 -177.5
q0 -109 59.5 -175t171.5 -66q80 0 135 46t78 129l250 -76q-43 -154 -169 -244t-294 -90q-140 0 -254 55.5t-183 165.5t-69 255q0 214 142.5 345.5t363.5 131.5q161 0 287.5 -87t175.5 -246z" />
    <glyph glyph-name="ordfeminine" unicode="&#xaa;" horiz-adv-x="908" 
d="M450 1222q-69 0 -111 -49t-42 -117t42 -116.5t111 -48.5q68 0 111 49t43 116t-43 116.5t-111 49.5zM602 677v95q-73 -102 -210 -102q-82 0 -149.5 35.5t-108 93t-62.5 124t-22 133.5t22 133.5t62.5 123.5t108 93t149.5 36q137 0 210 -101v93h239v-757h-239z" />
    <glyph glyph-name="guillemotleft" unicode="&#xab;" horiz-adv-x="1231" 
d="M339 1101h308l-277 -407l277 -407h-308l-268 407zM815 1101h308l-277 -407l277 -407h-308l-268 407z" />
    <glyph glyph-name="uni00AD" unicode="&#xad;" horiz-adv-x="1043" 
d="M130 558v274h781v-274h-781z" />
    <glyph glyph-name="registered" unicode="&#xae;" horiz-adv-x="1025" 
d="M833 1189q0 133 -91.5 224.5t-228.5 96.5q-130 0 -225.5 -93.5t-95.5 -227.5q0 -130 94 -225.5t227 -95.5q129 0 225 94.5t95 226.5zM944 1189q0 -175 -126 -303t-305 -128q-115 0 -214 56.5t-158 156.5t-59 218q0 175 126 303t305 128q174 0 302.5 -125.5t128.5 -305.5z
M442 1300v-58h111q39 0 39 30q0 28 -39 28h-111zM319 1413h250q63 0 103 -38t40 -103q0 -95 -85 -127l93 -180h-138l-83 169h-57v-169h-123v448z" />
    <glyph glyph-name="degree" unicode="&#xb0;" horiz-adv-x="801" 
d="M401 969q58 0 93 39t35 96q0 60 -37 98t-91 38q-57 0 -93 -39t-36 -97t36 -96.5t93 -38.5zM401 1434q146 0 239 -95t93 -235q0 -145 -96 -237t-236 -92q-147 0 -239.5 95t-92.5 234q0 143 95.5 236.5t236.5 93.5z" />
    <glyph glyph-name="acute" unicode="&#xb4;" horiz-adv-x="626" 
d="M161 1535l134 306h324l-241 -306h-217z" />
    <glyph glyph-name="mu" unicode="&#xb5;" horiz-adv-x="1260" 
d="M864 1012h276v-1012h-276v112q-112 -112 -291 -112q-78 0 -176 57v-667h-277v1622h277v-502q0 -106 67 -178.5t167 -72.5t166.5 72.5t66.5 178.5v502z" />
    <glyph glyph-name="paragraph" unicode="&#xb6;" horiz-adv-x="1345" 
d="M536 -252v736q-199 1 -336.5 139.5t-137.5 336.5q0 196 137.5 334.5t336.5 139.5h674v-1686h-285v1405h-107v-1405h-282z" />
    <glyph glyph-name="middot" unicode="&#xb7;" horiz-adv-x="543" 
d="M117 541v307h309v-307h-309z" />
    <glyph glyph-name="cedilla" unicode="&#xb8;" horiz-adv-x="635" 
d="M29 -370l42 125q25 -7 53.5 -12.5t65.5 -11.5t69.5 -6.5t60.5 3t44 16.5t15 34q-4 65 -162 57l-50 59l71 154h134l-54 -108q74 -1 129 -18t84.5 -44.5t42 -58.5t8.5 -64q-10 -71 -85.5 -119.5t-195 -54t-272.5 48.5z" />
    <glyph glyph-name="ordmasculine" unicode="&#xba;" horiz-adv-x="889" 
d="M444 1220q-65 0 -108.5 -47t-43.5 -117q0 -71 43.5 -118t108.5 -47q66 0 109.5 47t43.5 118t-43.5 117.5t-109.5 46.5zM50 1056q0 166 112.5 276t281.5 110q170 0 282.5 -110t112.5 -276t-112.5 -276t-282.5 -110q-169 0 -281.5 110t-112.5 276z" />
    <glyph glyph-name="guillemotright" unicode="&#xbb;" horiz-adv-x="1231" 
d="M584 1102h308l268 -407l-268 -407h-308l277 407zM108 1102h308l268 -407l-268 -407h-308l277 407z" />
    <glyph glyph-name="questiondown" unicode="&#xbf;" horiz-adv-x="1107" 
d="M409 1141v293h297v-293h-297zM425 1018h262q2 -102 -21 -176t-59 -117t-96 -87q-6 -5 -32.5 -23.5t-35 -25.5t-29 -24.5t-28.5 -29t-19.5 -29.5t-15.5 -37t-4 -40q0 -67 57 -110.5t146 -43.5q104 0 157 56.5t56 152.5h302q-9 -219 -147 -351.5t-370 -132.5
q-221 0 -361 121.5t-140 312.5q0 101 47.5 172t133.5 134q7 5 40 28.5t39.5 28.5t31 25.5t31 30t21.5 30.5t19.5 38.5t9.5 42.5t5 54z" />
    <glyph glyph-name="Agrave" unicode="&#xc0;" horiz-adv-x="1433" 
d="M1122 0l-90 239h-633l-88 -239h-311l569 1433h296l568 -1433h-311zM717 1084l-215 -574h427zM638 1534l-241 306h324l134 -306h-217z" />
    <glyph glyph-name="Aacute" unicode="&#xc1;" horiz-adv-x="1433" 
d="M1122 0l-90 239h-633l-88 -239h-311l569 1433h296l568 -1433h-311zM717 1084l-215 -574h427zM584 1535l134 306h324l-241 -306h-217z" />
    <glyph glyph-name="Acircumflex" unicode="&#xc2;" horiz-adv-x="1433" 
d="M1122 0l-90 239h-633l-88 -239h-311l569 1433h296l568 -1433h-311zM601 1845h233l264 -303h-261l-120 137l-120 -137h-260zM717 1084l-215 -574h427z" />
    <glyph glyph-name="Atilde" unicode="&#xc3;" horiz-adv-x="1433" 
d="M1122 0l-90 239h-633l-88 -239h-311l569 1433h296l568 -1433h-311zM962 1843h181q-14 -294 -235 -294q-62 0 -127 20.5t-116 40.5t-80 20q-40 0 -63.5 -25t-29.5 -66h-181q14 294 235 294q62 0 127 -20.5t116 -40.5t80 -20q40 0 63 25t30 66zM717 1084l-215 -574h427z
" />
    <glyph glyph-name="Adieresis" unicode="&#xc4;" horiz-adv-x="1433" 
d="M1122 0l-90 239h-633l-88 -239h-311l569 1433h296l568 -1433h-311zM717 1084l-215 -574h427zM793 1801h264v-256h-264v256zM378 1801h264v-256h-264v256z" />
    <glyph glyph-name="Aring" unicode="&#xc5;" horiz-adv-x="1433" 
d="M717 1821q113 2 196.5 -79t83.5 -195q0 -125 -95 -207l531 -1340h-311l-90 239h-633l-88 -239h-311l532 1340q-95 84 -95 207q0 114 83.5 195t196.5 79zM717 1084l-215 -574h427zM717 1656q-46 0 -77.5 -32t-31.5 -80t31.5 -80.5t77.5 -32.5q47 0 78 32.5t31 80.5t-31 80
t-78 32z" />
    <glyph glyph-name="AE" unicode="&#xc6;" horiz-adv-x="1961" 
d="M861 0v239h-428l-110 -239h-323l676 1435h1195v-276h-709v-236h541v-273h-541v-374h709v-276h-1010zM861 1162l-302 -652h302v652z" />
    <glyph glyph-name="Ccedilla" unicode="&#xc7;" horiz-adv-x="1540" 
d="M534 -370l42 125q25 -7 53.5 -12.5t65.5 -11.5t69.5 -6.5t60.5 3t44 16.5t15 34q-4 65 -162 57l-50 59l50 109q-136 13 -256.5 72.5t-209 152.5t-140 220.5t-51.5 268.5q0 148 56.5 281t153.5 229t232.5 152t288.5 56q160 0 298.5 -56t243 -168.5t151.5 -268.5l-283 -92
q-45 147 -152.5 229.5t-257.5 82.5q-186 0 -304.5 -127t-118.5 -318q0 -120 51.5 -220.5t149.5 -161.5t222 -61q151 0 257.5 82.5t153.5 234.5l285 -88q-61 -211 -235.5 -347.5t-402.5 -153.5l-31 -62q74 -1 129 -18t84.5 -44.5t42 -58.5t8.5 -64q-10 -71 -85.5 -119.5
t-195 -54t-272.5 48.5z" />
    <glyph glyph-name="Egrave" unicode="&#xc8;" 
d="M135 1434h1009v-276h-709v-236h541v-273h-541v-373h709v-276h-1009v1434zM546 1536l-241 306h324l134 -306h-217z" />
    <glyph glyph-name="Eacute" unicode="&#xc9;" 
d="M135 1434h1009v-276h-709v-236h541v-273h-541v-373h709v-276h-1009v1434zM492 1537l134 306h324l-241 -306h-217z" />
    <glyph glyph-name="Ecircumflex" unicode="&#xca;" 
d="M135 1434h1009v-276h-709v-236h541v-273h-541v-373h709v-276h-1009v1434zM509 1847h233l264 -303h-261l-120 137l-120 -137h-260z" />
    <glyph glyph-name="Edieresis" unicode="&#xcb;" 
d="M135 1434h1009v-276h-709v-236h541v-273h-541v-373h709v-276h-1009v1434zM701 1803h264v-256h-264v256zM286 1803h264v-256h-264v256z" />
    <glyph glyph-name="Igrave" unicode="&#xcc;" horiz-adv-x="570" 
d="M135 0v1434h300v-1434h-300zM203 1533l-241 306h324l134 -306h-217z" />
    <glyph glyph-name="Iacute" unicode="&#xcd;" horiz-adv-x="570" 
d="M135 0v1434h300v-1434h-300zM149 1534l134 306h324l-241 -306h-217z" />
    <glyph glyph-name="Icircumflex" unicode="&#xce;" horiz-adv-x="570" 
d="M135 0v1434h300v-1434h-300zM166 1844h233l264 -303h-261l-120 137l-120 -137h-260z" />
    <glyph glyph-name="Idieresis" unicode="&#xcf;" horiz-adv-x="570" 
d="M135 0v1434h300v-1434h-300zM358 1800h264v-256h-264v256zM-57 1800h264v-256h-264v256z" />
    <glyph glyph-name="Eth" unicode="&#xd0;" horiz-adv-x="1505" 
d="M672 1434q148 0 261 -35q224 -69 366 -255t142 -428t-142 -427.5t-366 -255.5q-112 -33 -261 -33h-492v649h-156v274h156v511h492zM672 274q131 0 219 39q116 52 183 160t67 243q0 134 -67 242.5t-183 160.5q-85 38 -219 38h-193v-234h372v-274h-372v-375h193z" />
    <glyph glyph-name="Ntilde" unicode="&#xd1;" horiz-adv-x="1583" 
d="M434 0h-299v1434h163l851 -908v908h299v-1434h-163l-851 907v-907zM1028 1844h181q-14 -294 -235 -294q-62 0 -127 20t-116 40.5t-80 20.5q-40 0 -63.5 -25t-29.5 -66h-181q14 294 235 294q62 0 127 -20t116 -40.5t80 -20.5q40 0 63 25t30 66z" />
    <glyph glyph-name="Ograve" unicode="&#xd2;" horiz-adv-x="1591" 
d="M1526 717q0 -149 -55.5 -281.5t-151.5 -228.5t-232.5 -151.5t-291.5 -55.5t-291 55.5t-232 151.5t-151.5 228.5t-55.5 281.5t55.5 281.5t151.5 228t232 151.5t291 56t291.5 -56t232.5 -151.5t151.5 -228t55.5 -281.5zM1219 717q0 189 -117 315.5t-307 126.5
q-189 0 -306 -126.5t-117 -315.5q0 -190 117 -315.5t306 -125.5q190 0 307 125.5t117 315.5zM715 1536l-241 306h324l134 -306h-217z" />
    <glyph glyph-name="Oacute" unicode="&#xd3;" horiz-adv-x="1591" 
d="M1526 717q0 -149 -55.5 -281.5t-151.5 -228.5t-232.5 -151.5t-291.5 -55.5t-291 55.5t-232 151.5t-151.5 228.5t-55.5 281.5t55.5 281.5t151.5 228t232 151.5t291 56t291.5 -56t232.5 -151.5t151.5 -228t55.5 -281.5zM1219 717q0 189 -117 315.5t-307 126.5
q-189 0 -306 -126.5t-117 -315.5q0 -190 117 -315.5t306 -125.5q190 0 307 125.5t117 315.5zM661 1537l134 306h324l-241 -306h-217z" />
    <glyph glyph-name="Ocircumflex" unicode="&#xd4;" horiz-adv-x="1591" 
d="M1526 717q0 -149 -55.5 -281.5t-151.5 -228.5t-232.5 -151.5t-291.5 -55.5t-291 55.5t-232 151.5t-151.5 228.5t-55.5 281.5t55.5 281.5t151.5 228t232 151.5t291 56t291.5 -56t232.5 -151.5t151.5 -228t55.5 -281.5zM1219 717q0 189 -117 315.5t-307 126.5
q-189 0 -306 -126.5t-117 -315.5q0 -190 117 -315.5t306 -125.5q190 0 307 125.5t117 315.5zM678 1847h233l264 -303h-261l-120 137l-120 -137h-260z" />
    <glyph glyph-name="Otilde" unicode="&#xd5;" horiz-adv-x="1591" 
d="M1526 717q0 -149 -55.5 -281.5t-151.5 -228.5t-232.5 -151.5t-291.5 -55.5t-291 55.5t-232 151.5t-151.5 228.5t-55.5 281.5t55.5 281.5t151.5 228t232 151.5t291 56t291.5 -56t232.5 -151.5t151.5 -228t55.5 -281.5zM1219 717q0 189 -117 315.5t-307 126.5
q-189 0 -306 -126.5t-117 -315.5q0 -190 117 -315.5t306 -125.5q190 0 307 125.5t117 315.5zM1039 1845h181q-14 -294 -235 -294q-62 0 -127 20.5t-116 40.5t-80 20q-40 0 -63.5 -25t-29.5 -66h-181q14 294 235 294q62 0 127 -20.5t116 -40.5t80 -20q40 0 63 25t30 66z" />
    <glyph glyph-name="Odieresis" unicode="&#xd6;" horiz-adv-x="1591" 
d="M1526 717q0 -149 -55.5 -281.5t-151.5 -228.5t-232.5 -151.5t-291.5 -55.5t-291 55.5t-232 151.5t-151.5 228.5t-55.5 281.5t55.5 281.5t151.5 228t232 151.5t291 56t291.5 -56t232.5 -151.5t151.5 -228t55.5 -281.5zM1219 717q0 189 -117 315.5t-307 126.5
q-189 0 -306 -126.5t-117 -315.5q0 -190 117 -315.5t306 -125.5q190 0 307 125.5t117 315.5zM870 1803h264v-256h-264v256zM455 1803h264v-256h-264v256z" />
    <glyph glyph-name="multiply" unicode="&#xd7;" horiz-adv-x="968" 
d="M484 883l218 218l188 -188l-218 -218l218 -218l-188 -188l-218 218l-218 -218l-188 188l218 218l-218 218l188 188z" />
    <glyph glyph-name="Oslash" unicode="&#xd8;" horiz-adv-x="1591" 
d="M483 -69h-295l135 231q-122 99 -190 243t-68 312q0 149 55.5 281.5t151.5 228t232 151.5t291 56q134 0 251 -41l64 109h295l-136 -232q121 -99 189 -242.5t68 -310.5q0 -149 -55.5 -281.5t-151.5 -228.5t-232.5 -151.5t-291.5 -55.5q-129 0 -249 39zM372 717
q0 -178 103 -300l428 729q-55 13 -108 13q-189 0 -306 -126.5t-117 -315.5zM1219 717q0 176 -102 298l-427 -728q52 -11 105 -11q190 0 307 125.5t117 315.5z" />
    <glyph glyph-name="Ugrave" unicode="&#xd9;" horiz-adv-x="1481" 
d="M120 1434h299v-783q0 -69 18 -134q31 -108 108 -174.5t195 -66.5q120 0 197 66.5t107 174.5q18 64 18 134v783h299v-778q0 -89 -21 -183q-51 -213 -210.5 -343.5t-388.5 -130.5t-389 130.5t-211 343.5q-21 87 -21 183v778zM662 1534l-241 306h324l134 -306h-217z" />
    <glyph glyph-name="Uacute" unicode="&#xda;" horiz-adv-x="1481" 
d="M120 1434h299v-783q0 -69 18 -134q31 -108 108 -174.5t195 -66.5q120 0 197 66.5t107 174.5q18 64 18 134v783h299v-778q0 -89 -21 -183q-51 -213 -210.5 -343.5t-388.5 -130.5t-389 130.5t-211 343.5q-21 87 -21 183v778zM608 1535l134 306h324l-241 -306h-217z" />
    <glyph glyph-name="Ucircumflex" unicode="&#xdb;" horiz-adv-x="1481" 
d="M120 1434h299v-783q0 -69 18 -134q31 -108 108 -174.5t195 -66.5q120 0 197 66.5t107 174.5q18 64 18 134v783h299v-778q0 -89 -21 -183q-51 -213 -210.5 -343.5t-388.5 -130.5t-389 130.5t-211 343.5q-21 87 -21 183v778zM625 1845h233l264 -303h-261l-120 137
l-120 -137h-260z" />
    <glyph glyph-name="Udieresis" unicode="&#xdc;" horiz-adv-x="1481" 
d="M120 1434h299v-783q0 -69 18 -134q31 -108 108 -174.5t195 -66.5q120 0 197 66.5t107 174.5q18 64 18 134v783h299v-778q0 -89 -21 -183q-51 -213 -210.5 -343.5t-388.5 -130.5t-389 130.5t-211 343.5q-21 87 -21 183v778zM402 1801h264v-256h-264v256zM817 1801h264
v-256h-264v256z" />
    <glyph glyph-name="Yacute" unicode="&#xdd;" horiz-adv-x="1336" 
d="M818 0h-299v544l-519 889h344l324 -587l324 587h344l-518 -889v-544zM535 1535l134 306h324l-241 -306h-217z" />
    <glyph glyph-name="Thorn" unicode="&#xde;" horiz-adv-x="1347" 
d="M135 1433h299v-284h402q170 0 275 -67q89 -55 140 -148.5t51 -213.5q0 -116 -51.5 -209.5t-141.5 -150.5q-106 -67 -273 -67h-402v-293h-299v1433zM434 568h363q74 0 109 14q45 19 73 54t28 84q0 48 -27.5 84t-73.5 54q-36 15 -110 15h-362v-305z" />
    <glyph glyph-name="germandbls" unicode="&#xdf;" horiz-adv-x="1484" 
d="M419 0h-299v777q0 89 21 184q52 213 210.5 343t387.5 130q184 0 323 -85.5t214 -234.5l-319 -257q93 3 171 -18.5t131.5 -61t90.5 -92.5t54 -112t17 -122q0 -85 -35 -164.5t-100.5 -144.5t-171.5 -104t-236 -39q-114 0 -219 38.5t-184 111.5l185 228q66 -56 114 -78.5
t116 -22.5q111 0 171.5 54t60.5 134q0 73 -53 124.5t-145 51.5q-96 0 -218 -61l-140 226l365 306q-81 47 -182 47q-125 0 -203.5 -66.5t-108.5 -174.5q-18 -65 -18 -135v-782z" />
    <glyph glyph-name="agrave" unicode="&#xe0;" horiz-adv-x="1433" 
d="M1122 0l-90 239h-633l-88 -239h-311l569 1433h296l568 -1433h-311zM717 1084l-215 -574h427zM638 1534l-241 306h324l134 -306h-217z" />
    <glyph glyph-name="aacute" unicode="&#xe1;" horiz-adv-x="1433" 
d="M1122 0l-90 239h-633l-88 -239h-311l569 1433h296l568 -1433h-311zM717 1084l-215 -574h427zM584 1535l134 306h324l-241 -306h-217z" />
    <glyph glyph-name="acircumflex" unicode="&#xe2;" horiz-adv-x="1433" 
d="M1122 0l-90 239h-633l-88 -239h-311l569 1433h296l568 -1433h-311zM601 1845h233l264 -303h-261l-120 137l-120 -137h-260zM717 1084l-215 -574h427z" />
    <glyph glyph-name="atilde" unicode="&#xe3;" horiz-adv-x="1433" 
d="M1122 0l-90 239h-633l-88 -239h-311l569 1433h296l568 -1433h-311zM962 1843h181q-14 -294 -235 -294q-62 0 -127 20.5t-116 40.5t-80 20q-40 0 -63.5 -25t-29.5 -66h-181q14 294 235 294q62 0 127 -20.5t116 -40.5t80 -20q40 0 63 25t30 66zM717 1084l-215 -574h427z
" />
    <glyph glyph-name="adieresis" unicode="&#xe4;" horiz-adv-x="1433" 
d="M1122 0l-90 239h-633l-88 -239h-311l569 1433h296l568 -1433h-311zM717 1084l-215 -574h427zM793 1801h264v-256h-264v256zM378 1801h264v-256h-264v256z" />
    <glyph glyph-name="aring" unicode="&#xe5;" horiz-adv-x="1433" 
d="M717 1821q113 2 196.5 -79t83.5 -195q0 -125 -95 -207l531 -1340h-311l-90 239h-633l-88 -239h-311l532 1340q-95 84 -95 207q0 114 83.5 195t196.5 79zM717 1084l-215 -574h427zM717 1656q-46 0 -77.5 -32t-31.5 -80t31.5 -80.5t77.5 -32.5q47 0 78 32.5t31 80.5t-31 80
t-78 32z" />
    <glyph glyph-name="ae" unicode="&#xe6;" horiz-adv-x="1961" 
d="M861 0v239h-428l-110 -239h-323l676 1435h1195v-276h-709v-236h541v-273h-541v-374h709v-276h-1010zM861 1162l-302 -652h302v652z" />
    <glyph glyph-name="ccedilla" unicode="&#xe7;" horiz-adv-x="1540" 
d="M534 -370l42 125q25 -7 53.5 -12.5t65.5 -11.5t69.5 -6.5t60.5 3t44 16.5t15 34q-4 65 -162 57l-50 59l50 109q-136 13 -256.5 72.5t-209 152.5t-140 220.5t-51.5 268.5q0 148 56.5 281t153.5 229t232.5 152t288.5 56q160 0 298.5 -56t243 -168.5t151.5 -268.5l-283 -92
q-45 147 -152.5 229.5t-257.5 82.5q-186 0 -304.5 -127t-118.5 -318q0 -120 51.5 -220.5t149.5 -161.5t222 -61q151 0 257.5 82.5t153.5 234.5l285 -88q-61 -211 -235.5 -347.5t-402.5 -153.5l-31 -62q74 -1 129 -18t84.5 -44.5t42 -58.5t8.5 -64q-10 -71 -85.5 -119.5
t-195 -54t-272.5 48.5z" />
    <glyph glyph-name="egrave" unicode="&#xe8;" 
d="M135 1434h1009v-276h-709v-236h541v-273h-541v-373h709v-276h-1009v1434zM546 1536l-241 306h324l134 -306h-217z" />
    <glyph glyph-name="eacute" unicode="&#xe9;" 
d="M135 1434h1009v-276h-709v-236h541v-273h-541v-373h709v-276h-1009v1434zM492 1537l134 306h324l-241 -306h-217z" />
    <glyph glyph-name="ecircumflex" unicode="&#xea;" 
d="M135 1434h1009v-276h-709v-236h541v-273h-541v-373h709v-276h-1009v1434zM509 1847h233l264 -303h-261l-120 137l-120 -137h-260z" />
    <glyph glyph-name="edieresis" unicode="&#xeb;" 
d="M135 1434h1009v-276h-709v-236h541v-273h-541v-373h709v-276h-1009v1434zM701 1803h264v-256h-264v256zM286 1803h264v-256h-264v256z" />
    <glyph glyph-name="igrave" unicode="&#xec;" horiz-adv-x="570" 
d="M135 0v1434h300v-1434h-300zM203 1533l-241 306h324l134 -306h-217z" />
    <glyph glyph-name="iacute" unicode="&#xed;" horiz-adv-x="570" 
d="M135 0v1434h300v-1434h-300zM149 1534l134 306h324l-241 -306h-217z" />
    <glyph glyph-name="icircumflex" unicode="&#xee;" horiz-adv-x="570" 
d="M135 0v1434h300v-1434h-300zM166 1844h233l264 -303h-261l-120 137l-120 -137h-260z" />
    <glyph glyph-name="idieresis" unicode="&#xef;" horiz-adv-x="570" 
d="M135 0v1434h300v-1434h-300zM358 1800h264v-256h-264v256zM-57 1800h264v-256h-264v256z" />
    <glyph glyph-name="eth" unicode="&#xf0;" horiz-adv-x="1505" 
d="M672 1434q148 0 261 -35q224 -69 366 -255t142 -428t-142 -427.5t-366 -255.5q-112 -33 -261 -33h-492v649h-156v274h156v511h492zM672 274q131 0 219 39q116 52 183 160t67 243q0 134 -67 242.5t-183 160.5q-85 38 -219 38h-193v-234h372v-274h-372v-375h193z" />
    <glyph glyph-name="ntilde" unicode="&#xf1;" horiz-adv-x="1583" 
d="M434 0h-299v1434h163l851 -908v908h299v-1434h-163l-851 907v-907zM1028 1844h181q-14 -294 -235 -294q-62 0 -127 20t-116 40.5t-80 20.5q-40 0 -63.5 -25t-29.5 -66h-181q14 294 235 294q62 0 127 -20t116 -40.5t80 -20.5q40 0 63 25t30 66z" />
    <glyph glyph-name="ograve" unicode="&#xf2;" horiz-adv-x="1591" 
d="M1526 717q0 -149 -55.5 -281.5t-151.5 -228.5t-232.5 -151.5t-291.5 -55.5t-291 55.5t-232 151.5t-151.5 228.5t-55.5 281.5t55.5 281.5t151.5 228t232 151.5t291 56t291.5 -56t232.5 -151.5t151.5 -228t55.5 -281.5zM1219 717q0 189 -117 315.5t-307 126.5
q-189 0 -306 -126.5t-117 -315.5q0 -190 117 -315.5t306 -125.5q190 0 307 125.5t117 315.5zM715 1536l-241 306h324l134 -306h-217z" />
    <glyph glyph-name="oacute" unicode="&#xf3;" horiz-adv-x="1591" 
d="M1526 717q0 -149 -55.5 -281.5t-151.5 -228.5t-232.5 -151.5t-291.5 -55.5t-291 55.5t-232 151.5t-151.5 228.5t-55.5 281.5t55.5 281.5t151.5 228t232 151.5t291 56t291.5 -56t232.5 -151.5t151.5 -228t55.5 -281.5zM1219 717q0 189 -117 315.5t-307 126.5
q-189 0 -306 -126.5t-117 -315.5q0 -190 117 -315.5t306 -125.5q190 0 307 125.5t117 315.5zM661 1537l134 306h324l-241 -306h-217z" />
    <glyph glyph-name="ocircumflex" unicode="&#xf4;" horiz-adv-x="1591" 
d="M1526 717q0 -149 -55.5 -281.5t-151.5 -228.5t-232.5 -151.5t-291.5 -55.5t-291 55.5t-232 151.5t-151.5 228.5t-55.5 281.5t55.5 281.5t151.5 228t232 151.5t291 56t291.5 -56t232.5 -151.5t151.5 -228t55.5 -281.5zM1219 717q0 189 -117 315.5t-307 126.5
q-189 0 -306 -126.5t-117 -315.5q0 -190 117 -315.5t306 -125.5q190 0 307 125.5t117 315.5zM678 1847h233l264 -303h-261l-120 137l-120 -137h-260z" />
    <glyph glyph-name="otilde" unicode="&#xf5;" horiz-adv-x="1591" 
d="M1526 717q0 -149 -55.5 -281.5t-151.5 -228.5t-232.5 -151.5t-291.5 -55.5t-291 55.5t-232 151.5t-151.5 228.5t-55.5 281.5t55.5 281.5t151.5 228t232 151.5t291 56t291.5 -56t232.5 -151.5t151.5 -228t55.5 -281.5zM1219 717q0 189 -117 315.5t-307 126.5
q-189 0 -306 -126.5t-117 -315.5q0 -190 117 -315.5t306 -125.5q190 0 307 125.5t117 315.5zM1039 1845h181q-14 -294 -235 -294q-62 0 -127 20.5t-116 40.5t-80 20q-40 0 -63.5 -25t-29.5 -66h-181q14 294 235 294q62 0 127 -20.5t116 -40.5t80 -20q40 0 63 25t30 66z" />
    <glyph glyph-name="odieresis" unicode="&#xf6;" horiz-adv-x="1591" 
d="M1526 717q0 -149 -55.5 -281.5t-151.5 -228.5t-232.5 -151.5t-291.5 -55.5t-291 55.5t-232 151.5t-151.5 228.5t-55.5 281.5t55.5 281.5t151.5 228t232 151.5t291 56t291.5 -56t232.5 -151.5t151.5 -228t55.5 -281.5zM1219 717q0 189 -117 315.5t-307 126.5
q-189 0 -306 -126.5t-117 -315.5q0 -190 117 -315.5t306 -125.5q190 0 307 125.5t117 315.5zM870 1803h264v-256h-264v256zM455 1803h264v-256h-264v256z" />
    <glyph glyph-name="divide" unicode="&#xf7;" horiz-adv-x="975" 
d="M637 310q0 -60 -44 -105t-106 -45q-60 0 -105 44t-45 106q0 60 44 105t106 45q60 0 105 -44t45 -106zM637 1070q0 -60 -44 -105t-106 -45q-60 0 -105 44t-45 106q0 60 44 105t106 45q60 0 105 -44t45 -106zM38 553v274h899v-274h-899z" />
    <glyph glyph-name="oslash" unicode="&#xf8;" horiz-adv-x="1591" 
d="M483 -69h-295l135 231q-122 99 -190 243t-68 312q0 149 55.5 281.5t151.5 228t232 151.5t291 56q134 0 251 -41l64 109h295l-136 -232q121 -99 189 -242.5t68 -310.5q0 -149 -55.5 -281.5t-151.5 -228.5t-232.5 -151.5t-291.5 -55.5q-129 0 -249 39zM372 717
q0 -178 103 -300l428 729q-55 13 -108 13q-189 0 -306 -126.5t-117 -315.5zM1219 717q0 176 -102 298l-427 -728q52 -11 105 -11q190 0 307 125.5t117 315.5z" />
    <glyph glyph-name="ugrave" unicode="&#xf9;" horiz-adv-x="1481" 
d="M120 1434h299v-783q0 -69 18 -134q31 -108 108 -174.5t195 -66.5q120 0 197 66.5t107 174.5q18 64 18 134v783h299v-778q0 -89 -21 -183q-51 -213 -210.5 -343.5t-388.5 -130.5t-389 130.5t-211 343.5q-21 87 -21 183v778zM662 1534l-241 306h324l134 -306h-217z" />
    <glyph glyph-name="uacute" unicode="&#xfa;" horiz-adv-x="1481" 
d="M120 1434h299v-783q0 -69 18 -134q31 -108 108 -174.5t195 -66.5q120 0 197 66.5t107 174.5q18 64 18 134v783h299v-778q0 -89 -21 -183q-51 -213 -210.5 -343.5t-388.5 -130.5t-389 130.5t-211 343.5q-21 87 -21 183v778zM608 1535l134 306h324l-241 -306h-217z" />
    <glyph glyph-name="ucircumflex" unicode="&#xfb;" horiz-adv-x="1481" 
d="M120 1434h299v-783q0 -69 18 -134q31 -108 108 -174.5t195 -66.5q120 0 197 66.5t107 174.5q18 64 18 134v783h299v-778q0 -89 -21 -183q-51 -213 -210.5 -343.5t-388.5 -130.5t-389 130.5t-211 343.5q-21 87 -21 183v778zM625 1845h233l264 -303h-261l-120 137
l-120 -137h-260z" />
    <glyph glyph-name="udieresis" unicode="&#xfc;" horiz-adv-x="1481" 
d="M120 1434h299v-783q0 -69 18 -134q31 -108 108 -174.5t195 -66.5q120 0 197 66.5t107 174.5q18 64 18 134v783h299v-778q0 -89 -21 -183q-51 -213 -210.5 -343.5t-388.5 -130.5t-389 130.5t-211 343.5q-21 87 -21 183v778zM402 1801h264v-256h-264v256zM817 1801h264
v-256h-264v256z" />
    <glyph glyph-name="yacute" unicode="&#xfd;" horiz-adv-x="1336" 
d="M818 0h-299v544l-519 889h344l324 -587l324 587h344l-518 -889v-544zM535 1535l134 306h324l-241 -306h-217z" />
    <glyph glyph-name="thorn" unicode="&#xfe;" horiz-adv-x="1347" 
d="M135 1433h299v-284h402q170 0 275 -67q89 -55 140 -148.5t51 -213.5q0 -116 -51.5 -209.5t-141.5 -150.5q-106 -67 -273 -67h-402v-293h-299v1433zM434 568h363q74 0 109 14q45 19 73 54t28 84q0 48 -27.5 84t-73.5 54q-36 15 -110 15h-362v-305z" />
    <glyph glyph-name="ydieresis" unicode="&#xff;" horiz-adv-x="1336" 
d="M818 0h-299v544l-519 889h344l324 -587l324 587h344l-518 -889v-544zM744 1801h264v-256h-264v256zM329 1801h264v-256h-264v256z" />
    <glyph glyph-name="Ccaron" unicode="&#x10c;" horiz-adv-x="1540" 
d="M1489 942l-283 -92q-45 147 -152.5 229.5t-257.5 82.5q-186 0 -304.5 -127t-118.5 -318q0 -120 51.5 -220.5t149.5 -161.5t222 -61q151 0 257.5 82.5t153.5 234.5l285 -88q-64 -225 -257 -364t-439 -139q-148 0 -282.5 55t-233 149.5t-157 228t-58.5 284.5
q0 148 56.5 281t153.5 229t232.5 152t288.5 56q160 0 298.5 -56t243 -168.5t151.5 -268.5zM913 1542h-233l-264 303h260l120 -137l120 137h261z" />
    <glyph glyph-name="ccaron" unicode="&#x10d;" horiz-adv-x="1540" 
d="M1489 942l-283 -92q-45 147 -152.5 229.5t-257.5 82.5q-186 0 -304.5 -127t-118.5 -318q0 -120 51.5 -220.5t149.5 -161.5t222 -61q151 0 257.5 82.5t153.5 234.5l285 -88q-64 -225 -257 -364t-439 -139q-148 0 -282.5 55t-233 149.5t-157 228t-58.5 284.5
q0 148 56.5 281t153.5 229t232.5 152t288.5 56q160 0 298.5 -56t243 -168.5t151.5 -268.5zM913 1542h-233l-264 303h260l120 -137l120 137h261z" />
    <glyph glyph-name="Dcaron" unicode="&#x10e;" horiz-adv-x="1461" 
d="M627 274q131 0 219 39q116 52 183 160t67 243q0 134 -67 242.5t-183 160.5q-86 38 -219 38h-193v-883h193zM627 1434q148 0 261 -35q224 -69 366 -255t142 -428t-142 -427.5t-366 -255.5q-112 -33 -261 -33h-492v1434h492zM816 1541h-233l-264 303h260l120 -137l120 137
h261z" />
    <glyph glyph-name="dcaron" unicode="&#x10f;" horiz-adv-x="1461" 
d="M627 274q131 0 219 39q116 52 183 160t67 243q0 134 -67 242.5t-183 160.5q-86 38 -219 38h-193v-883h193zM627 1434q148 0 261 -35q224 -69 366 -255t142 -428t-142 -427.5t-366 -255.5q-112 -33 -261 -33h-492v1434h492zM816 1541h-233l-264 303h260l120 -137l120 137
h261z" />
    <glyph glyph-name="Ecaron" unicode="&#x11a;" 
d="M135 1434h1009v-276h-709v-236h541v-273h-541v-373h709v-276h-1009v1434zM742 1543h-233l-264 303h260l120 -137l120 137h261z" />
    <glyph glyph-name="ecaron" unicode="&#x11b;" 
d="M135 1434h1009v-276h-709v-236h541v-273h-541v-373h709v-276h-1009v1434zM742 1543h-233l-264 303h260l120 -137l120 137h261z" />
    <glyph glyph-name="Gbreve" unicode="&#x11e;" horiz-adv-x="1589" 
d="M1220 1311l-169 -231q-113 84 -255 84q-187 0 -306.5 -128t-119.5 -319q0 -184 119 -313.5t307 -129.5q161 0 278 98t147 275h-450v276h725q28 -96 28 -206q0 -119 -35.5 -229t-102 -198t-155.5 -153.5t-201 -101t-234 -35.5q-147 0 -281.5 54t-233.5 147.5t-157.5 228
t-58.5 287.5q0 148 56.5 281t153.5 229t232.5 152t288.5 56q242 0 424 -124zM412 1853h182q37 -143 202 -143q166 0 200 143h183q-1 -148 -106 -244.5t-277 -96.5q-173 0 -278 96.5t-106 244.5z" />
    <glyph glyph-name="gbreve" unicode="&#x11f;" horiz-adv-x="1589" 
d="M1220 1311l-169 -231q-113 84 -255 84q-187 0 -306.5 -128t-119.5 -319q0 -184 119 -313.5t307 -129.5q161 0 278 98t147 275h-450v276h725q28 -96 28 -206q0 -119 -35.5 -229t-102 -198t-155.5 -153.5t-201 -101t-234 -35.5q-147 0 -281.5 54t-233.5 147.5t-157.5 228
t-58.5 287.5q0 148 56.5 281t153.5 229t232.5 152t288.5 56q242 0 424 -124zM412 1853h182q37 -143 202 -143q166 0 200 143h183q-1 -148 -106 -244.5t-277 -96.5q-173 0 -278 96.5t-106 244.5z" />
    <glyph glyph-name="dotlessi" unicode="&#x131;" horiz-adv-x="570" 
d="M135 0v1434h300v-1434h-300z" />
    <glyph glyph-name="Ncaron" unicode="&#x147;" horiz-adv-x="1583" 
d="M434 0h-299v1434h163l851 -908v908h299v-1434h-163l-851 907v-907zM900 1542h-233l-264 303h260l120 -137l120 137h261z" />
    <glyph glyph-name="ncaron" unicode="&#x148;" horiz-adv-x="1583" 
d="M434 0h-299v1434h163l851 -908v908h299v-1434h-163l-851 907v-907zM900 1542h-233l-264 303h260l120 -137l120 137h261z" />
    <glyph glyph-name="OE" unicode="&#x152;" horiz-adv-x="1893" 
d="M1803 1159h-708v-237h540v-273h-540v-372h708v-277h-1007q-159 0 -296.5 57t-232 154.5t-148.5 229t-54 277.5q0 204 101 371.5t278 260.5t389 84h970v-275zM372 718q0 -188 117.5 -316.5t306.5 -128.5v890q-98 0 -179 -35.5t-134 -97t-82 -142t-29 -170.5z" />
    <glyph glyph-name="oe" unicode="&#x153;" horiz-adv-x="1893" 
d="M1803 1159h-708v-237h540v-273h-540v-372h708v-277h-1007q-159 0 -296.5 57t-232 154.5t-148.5 229t-54 277.5q0 204 101 371.5t278 260.5t389 84h970v-275zM372 718q0 -188 117.5 -316.5t306.5 -128.5v890q-98 0 -179 -35.5t-134 -97t-82 -142t-29 -170.5z" />
    <glyph glyph-name="Scedilla" unicode="&#x15e;" horiz-adv-x="1279" 
d="M386 -370l42 125q25 -7 53.5 -12.5t65.5 -11.5t69.5 -6.5t60.5 3t44 16.5t15 34q-4 65 -162 57l-50 59l52 112q-277 35 -508 242l180 215q202 -185 426 -185q64 0 121 16.5t97 54t40 89.5q0 28 -11 50.5t-36.5 39.5t-49.5 29t-69.5 23.5t-75.5 18t-88 17.5t-88 17
q-96 20 -170 49t-135 73t-94 109.5t-33 148.5q0 183 136 302.5t374 119.5q139 0 275.5 -47t253.5 -139l-170 -213q-71 60 -168.5 94t-194.5 34q-87 0 -151.5 -32t-64.5 -92q0 -28 15 -49.5t38.5 -36t68 -27.5t87 -21.5t112.5 -20.5q59 -10 106 -20.5t104.5 -29t101 -40.5
t87 -56.5t71.5 -76t45.5 -98.5t17.5 -125q0 -183 -149 -307t-372 -132l-30 -60q74 -1 129 -18t84.5 -44.5t42 -58.5t8.5 -64q-10 -71 -85.5 -119.5t-195 -54t-272.5 48.5z" />
    <glyph glyph-name="scedilla" unicode="&#x15f;" horiz-adv-x="1279" 
d="M386 -370l42 125q25 -7 53.5 -12.5t65.5 -11.5t69.5 -6.5t60.5 3t44 16.5t15 34q-4 65 -162 57l-50 59l52 112q-277 35 -508 242l180 215q202 -185 426 -185q64 0 121 16.5t97 54t40 89.5q0 28 -11 50.5t-36.5 39.5t-49.5 29t-69.5 23.5t-75.5 18t-88 17.5t-88 17
q-96 20 -170 49t-135 73t-94 109.5t-33 148.5q0 183 136 302.5t374 119.5q139 0 275.5 -47t253.5 -139l-170 -213q-71 60 -168.5 94t-194.5 34q-87 0 -151.5 -32t-64.5 -92q0 -28 15 -49.5t38.5 -36t68 -27.5t87 -21.5t112.5 -20.5q59 -10 106 -20.5t104.5 -29t101 -40.5
t87 -56.5t71.5 -76t45.5 -98.5t17.5 -125q0 -183 -149 -307t-372 -132l-30 -60q74 -1 129 -18t84.5 -44.5t42 -58.5t8.5 -64q-10 -71 -85.5 -119.5t-195 -54t-272.5 48.5z" />
    <glyph glyph-name="Scaron" unicode="&#x160;" horiz-adv-x="1279" 
d="M68 248l180 215q202 -185 426 -185q64 0 121 16.5t97 54t40 89.5q0 28 -11 50.5t-36.5 39.5t-49.5 29t-69.5 23.5t-75.5 18t-88 17.5t-88 17q-96 20 -170 49t-135 73t-94 109.5t-33 148.5q0 183 136 302.5t374 119.5q139 0 275.5 -47t253.5 -139l-170 -213
q-71 60 -168.5 94t-194.5 34q-87 0 -151.5 -32t-64.5 -92q0 -28 15 -49.5t38.5 -36t68 -27.5t87 -21.5t112.5 -20.5q59 -10 106 -20.5t104.5 -29t101 -40.5t87 -56.5t71.5 -76t45.5 -98.5t17.5 -125q0 -124 -72 -225t-197.5 -157.5t-277.5 -56.5q-153 0 -311 60.5
t-300 187.5zM735 1542h-233l-264 303h260l120 -137l120 137h261z" />
    <glyph glyph-name="scaron" unicode="&#x161;" horiz-adv-x="1279" 
d="M68 248l180 215q202 -185 426 -185q64 0 121 16.5t97 54t40 89.5q0 28 -11 50.5t-36.5 39.5t-49.5 29t-69.5 23.5t-75.5 18t-88 17.5t-88 17q-96 20 -170 49t-135 73t-94 109.5t-33 148.5q0 183 136 302.5t374 119.5q139 0 275.5 -47t253.5 -139l-170 -213
q-71 60 -168.5 94t-194.5 34q-87 0 -151.5 -32t-64.5 -92q0 -28 15 -49.5t38.5 -36t68 -27.5t87 -21.5t112.5 -20.5q59 -10 106 -20.5t104.5 -29t101 -40.5t87 -56.5t71.5 -76t45.5 -98.5t17.5 -125q0 -124 -72 -225t-197.5 -157.5t-277.5 -56.5q-153 0 -311 60.5
t-300 187.5zM735 1542h-233l-264 303h260l120 -137l120 137h261z" />
    <glyph glyph-name="Tcaron" unicode="&#x164;" horiz-adv-x="1365" 
d="M61 1434h1243v-277h-472v-1157h-300v1157h-471v277zM799 1541h-233l-264 303h260l120 -137l120 137h261z" />
    <glyph glyph-name="tcaron" unicode="&#x165;" horiz-adv-x="1365" 
d="M61 1434h1243v-277h-472v-1157h-300v1157h-471v277zM799 1541h-233l-264 303h260l120 -137l120 137h261z" />
    <glyph glyph-name="Uring" unicode="&#x16e;" horiz-adv-x="1481" 
d="M120 1434h299v-783q0 -69 18 -134q31 -108 108 -174.5t195 -66.5q120 0 197 66.5t107 174.5q18 64 18 134v783h299v-778q0 -89 -21 -183q-51 -213 -210.5 -343.5t-388.5 -130.5t-389 130.5t-211 343.5q-21 87 -21 183v778zM740 1906q103 0 175.5 -70.5t72.5 -173.5
q0 -105 -72.5 -175.5t-175.5 -70.5q-105 0 -178 70.5t-73 175.5q0 103 73.5 173.5t177.5 70.5zM741 1747q-37 0 -61 -24t-24 -61q0 -38 24 -62.5t61 -24.5q36 0 59 24.5t23 62.5q0 37 -23 61t-59 24z" />
    <glyph glyph-name="uring" unicode="&#x16f;" horiz-adv-x="1481" 
d="M120 1434h299v-783q0 -69 18 -134q31 -108 108 -174.5t195 -66.5q120 0 197 66.5t107 174.5q18 64 18 134v783h299v-778q0 -89 -21 -183q-51 -213 -210.5 -343.5t-388.5 -130.5t-389 130.5t-211 343.5q-21 87 -21 183v778zM740 1906q103 0 175.5 -70.5t72.5 -173.5
q0 -105 -72.5 -175.5t-175.5 -70.5q-105 0 -178 70.5t-73 175.5q0 103 73.5 173.5t177.5 70.5zM741 1747q-37 0 -61 -24t-24 -61q0 -38 24 -62.5t61 -24.5q36 0 59 24.5t23 62.5q0 37 -23 61t-59 24z" />
    <glyph glyph-name="Ydieresis" unicode="&#x178;" horiz-adv-x="1336" 
d="M818 0h-299v544l-519 889h344l324 -587l324 587h344l-518 -889v-544zM744 1801h264v-256h-264v256zM329 1801h264v-256h-264v256z" />
    <glyph glyph-name="Zacute" unicode="&#x179;" horiz-adv-x="1312" 
d="M108 1157v277h1096v-153l-692 -1004h712v-277h-1136v155l694 1002h-674zM523 1536l134 306h324l-241 -306h-217z" />
    <glyph glyph-name="zacute" unicode="&#x17a;" horiz-adv-x="1312" 
d="M108 1157v277h1096v-153l-692 -1004h712v-277h-1136v155l694 1002h-674zM523 1536l134 306h324l-241 -306h-217z" />
    <glyph glyph-name="Zcaron" unicode="&#x17d;" horiz-adv-x="1312" 
d="M108 1157v277h1096v-153l-692 -1004h712v-277h-1136v155l694 1002h-674zM773 1542h-233l-264 303h260l120 -137l120 137h261z" />
    <glyph glyph-name="zcaron" unicode="&#x17e;" horiz-adv-x="1312" 
d="M108 1157v277h1096v-153l-692 -1004h712v-277h-1136v155l694 1002h-674zM773 1542h-233l-264 303h260l120 -137l120 137h261z" />
    <glyph glyph-name="circumflex" unicode="&#x2c6;" horiz-adv-x="1128" 
d="M444 1845h233l264 -303h-261l-120 137l-120 -137h-260z" />
    <glyph glyph-name="caron" unicode="&#x2c7;" horiz-adv-x="1128" 
d="M677 1541h-233l-264 303h260l120 -137l120 137h261z" />
    <glyph glyph-name="breve" unicode="&#x2d8;" horiz-adv-x="1128" 
d="M176 1852h182q37 -143 202 -143q166 0 200 143h183q-1 -148 -106 -244.5t-277 -96.5q-173 0 -278 96.5t-106 244.5z" />
    <glyph glyph-name="dotaccent" unicode="&#x2d9;" horiz-adv-x="1224" 
d="M501 1807h273v-264h-273v264z" />
    <glyph glyph-name="ring" unicode="&#x2da;" horiz-adv-x="1024" 
d="M506 1802q-34 0 -55.5 -22t-21.5 -56q0 -35 21.5 -57t55.5 -22t54.5 22t20.5 57t-20.5 56.5t-54.5 21.5zM505 1946q94 0 160 -64t66 -158q0 -95 -66 -159t-160 -64q-95 0 -161.5 64t-66.5 159q0 94 66.5 158t161.5 64z" />
    <glyph glyph-name="tilde" unicode="&#x2dc;" horiz-adv-x="1060" 
d="M763 1843h181q-14 -294 -235 -294q-62 0 -127 20.5t-116 40.5t-80 20q-40 0 -63.5 -25t-29.5 -66h-181q14 294 235 294q62 0 127 -20.5t116 -40.5t80 -20q40 0 63 25t30 66z" />
    <glyph glyph-name="uni0400" unicode="&#x400;" 
d="M135 1434h1009v-276h-709v-236h541v-273h-541v-373h709v-276h-1009v1434zM568 1536l-263 319h338l155 -319h-230z" />
    <glyph glyph-name="uni0401" unicode="&#x401;" 
d="M135 1434h1009v-276h-709v-236h541v-273h-541v-373h709v-276h-1009v1434zM302 1570v270h272v-270h-272zM709 1570v270h271v-270h-271z" />
    <glyph glyph-name="uni0402" unicode="&#x402;" horiz-adv-x="1718" 
d="M1285 1157h-471v-270q106 36 227 46.5t244 -11.5q187 -37 283 -169q94 -128 94 -297q0 -98 -32.5 -184t-105 -154t-176.5 -97q-76 -21 -187 -21h-136v277h122q70 0 108 14q52 18 80 61.5t28 99.5q0 88 -67.5 149t-196.5 61q-162 0 -285 -60v-602h-301v1157h-458v277h1230
v-277z" />
    <glyph glyph-name="uni0403" unicode="&#x403;" horiz-adv-x="1207" 
d="M435 0h-300v1434h1009v-277h-709v-1157zM1006 1855l-263 -319h-230l155 319h338z" />
    <glyph glyph-name="uni0404" unicode="&#x404;" horiz-adv-x="1540" 
d="M1207 591l285 -88q-64 -225 -257 -364t-439 -139q-148 0 -282.5 55t-233 149.5t-157 228t-58.5 284.5q0 148 56.5 281t153.5 229t232.5 152t288.5 56q160 0 298.5 -56t243 -168.5t151.5 -268.5l-283 -92q-45 147 -152.5 229.5t-257.5 82.5q-143 0 -251 -76.5t-152 -203.5
h601v-273h-611q33 -147 144 -241t269 -94q151 0 257.5 82.5t153.5 234.5z" />
    <glyph glyph-name="uni0405" unicode="&#x405;" horiz-adv-x="1279" 
d="M68 248l180 215q202 -185 426 -185q64 0 121 16.5t97 54t40 89.5q0 28 -11 50.5t-36.5 39.5t-49.5 29t-69.5 23.5t-75.5 18t-88 17.5t-88 17q-96 20 -170 49t-135 73t-94 109.5t-33 148.5q0 183 136 302.5t374 119.5q139 0 275.5 -47t253.5 -139l-170 -213
q-71 60 -168.5 94t-194.5 34q-87 0 -151.5 -32t-64.5 -92q0 -28 15 -49.5t38.5 -36t68 -27.5t87 -21.5t112.5 -20.5q59 -10 106 -20.5t104.5 -29t101 -40.5t87 -56.5t71.5 -76t45.5 -98.5t17.5 -125q0 -124 -72 -225t-197.5 -157.5t-277.5 -56.5q-153 0 -311 60.5
t-300 187.5z" />
    <glyph glyph-name="uni0406" unicode="&#x406;" horiz-adv-x="570" 
d="M135 0v1434h300v-1434h-300z" />
    <glyph glyph-name="uni0407" unicode="&#x407;" horiz-adv-x="570" 
d="M135 0v1434h300v-1434h-300zM-53 1569v270h272v-270h-272zM354 1569v270h271v-270h-271z" />
    <glyph glyph-name="uni0408" unicode="&#x408;" horiz-adv-x="820" 
d="M-9 59l143 263q34 -22 85 -22q57 0 100.5 33.5t57.5 81.5q11 36 11 114v905h299v-828q0 -185 -20 -262q-37 -148 -161 -246t-287 -98q-124 0 -228 59z" />
    <glyph glyph-name="uni0409" unicode="&#x409;" horiz-adv-x="2238" 
d="M1095 0v1158h-408v-534q0 -262 -98 -411q-68 -101 -165.5 -157t-215.5 -56q-122 0 -228 59l144 263q34 -22 84 -22q82 0 131 75q29 43 39 106t10 171v782h1006v-543h324q172 0 279 -70q92 -59 144 -156.5t52 -218.5q0 -124 -51.5 -221.5t-142.5 -155.5q-109 -69 -281 -69
h-623zM1394 274h286q77 0 113 18q48 20 76.5 60.5t28.5 94.5t-29 93.5t-76 60.5q-34 15 -112 15h-287v-342z" />
    <glyph glyph-name="uni040A" unicode="&#x40a;" horiz-adv-x="2150" 
d="M1010 0v629h-576v-629h-299v1433h299v-527h576v527h299v-530h318q173 0 280 -71q92 -60 145 -159t53 -221q0 -126 -52 -224.5t-144 -157.5q-108 -70 -282 -70h-617zM1309 274h280q77 0 115 18q48 21 77 62.5t29 97.5q0 110 -106 159q-35 15 -114 15h-281v-352z" />
    <glyph glyph-name="uni040B" unicode="&#x40b;" horiz-adv-x="1742" 
d="M55 1434h1230v-277h-472v-269q151 51 316 51q313 0 439 -205q49 -78 64 -160.5t15 -200.5v-373h-299v417q0 130 -64.5 188t-194.5 58q-150 0 -276 -60v-603h-300v1157h-458v277z" />
    <glyph glyph-name="uni040C" unicode="&#x40c;" horiz-adv-x="1342" 
d="M872 1434h360l-522 -625l632 -809h-369l-538 712v-712h-300v1434h300v-543zM1029 1854l-263 -319h-230l155 319h338z" />
    <glyph glyph-name="uni040D" unicode="&#x40d;" horiz-adv-x="1566" 
d="M1431 0h-299v908l-832 -908h-165v1434h299v-907l833 907h164v-1434zM736 1480l-263 319h338l155 -319h-230z" />
    <glyph glyph-name="uni040E" unicode="&#x40e;" horiz-adv-x="1364" 
d="M10 1434h334l350 -660l338 660h332l-521 -976q-64 -120 -108.5 -189.5t-95.5 -123.5q-140 -147 -311 -147q-138 0 -252 83l153 252q46 -35 103 -35q48 0 89 35t100 131l11 19zM323 1802h183q13 -72 62 -108t121 -36t121 36t62 108h184q1 -158 -100.5 -250.5t-266.5 -92.5
q-164 0 -265.5 92.5t-100.5 250.5z" />
    <glyph glyph-name="uni040F" unicode="&#x40f;" horiz-adv-x="1513" 
d="M1378 0h-471v-295h-300v295h-472v1435h300v-1158h643v1158h300v-1435z" />
    <glyph glyph-name="uni0410" unicode="&#x410;" horiz-adv-x="1433" 
d="M1122 0l-90 239h-633l-88 -239h-311l569 1433h296l568 -1433h-311zM717 1084l-215 -574h427z" />
    <glyph glyph-name="uni0411" unicode="&#x411;" horiz-adv-x="1369" 
d="M1299 440q0 -122 -51.5 -218t-141.5 -154q-108 -68 -279 -68h-692v1434h1030v-276h-731v-280h393q171 0 277 -69q91 -57 143 -153.5t52 -215.5zM1004 440q0 53 -28.5 91t-75.5 58q-34 15 -111 15h-355v-330h354q75 0 112 17q47 20 75.5 58.5t28.5 90.5z" />
    <glyph glyph-name="uni0412" unicode="&#x412;" horiz-adv-x="1370" 
d="M434 860h254q73 0 109 14q103 43 103 139q0 95 -103 139q-33 15 -110 15h-253v-307zM434 272h347q79 0 120 16q50 20 80.5 59t30.5 94q0 53 -30.5 92t-80.5 59q-39 16 -122 16h-345v-336zM135 0v1433h584q155 0 254 -54q98 -54 155 -149.5t57 -219.5q0 -130 -93 -236
q98 -54 156.5 -143.5t58.5 -201.5q0 -122 -55 -217.5t-150 -151.5q-104 -60 -262 -60h-705z" />
    <glyph glyph-name="uni0413" unicode="&#x413;" horiz-adv-x="1207" 
d="M435 0h-300v1434h1009v-277h-709v-1157z" />
    <glyph glyph-name="uni0414" unicode="&#x414;" horiz-adv-x="1659" 
d="M1108 1157h-416q-2 -241 -31 -428q-37 -238 -124 -452h571v880zM1408 1434v-1157h196v-572h-299v295h-957v-295h-300v572h169q106 197 146 483q9 64 15.5 130t10 146t5 126t3 144.5t2.5 127.5h1009z" />
    <glyph glyph-name="uni0415" unicode="&#x415;" 
d="M135 1434h1009v-276h-709v-236h541v-273h-541v-373h709v-276h-1009v1434z" />
    <glyph glyph-name="uni0416" unicode="&#x416;" horiz-adv-x="2014" 
d="M2014 0h-357l-500 713v-713h-298v713l-503 -713h-356l586 809l-487 625h348l412 -545v545h298v-545l410 545h347l-486 -625z" />
    <glyph glyph-name="uni0417" unicode="&#x417;" horiz-adv-x="1261" 
d="M25 252l179 216q198 -184 408 -191q119 -4 202 47t83 123q0 63 -46.5 104t-123.5 57q-76 16 -182 16h-208v266h208q94 0 155 13q57 12 90.5 41.5t33.5 74.5q0 62 -70.5 101.5t-176.5 39.5q-171 0 -326 -120l-161 217q249 177 505 177q148 0 269.5 -57t189 -152.5
t67.5 -206.5q0 -152 -150 -235q106 -57 165.5 -143.5t59.5 -191.5q0 -116 -72.5 -218.5t-201.5 -166t-282 -64.5q-150 -1 -307.5 60.5t-307.5 192.5z" />
    <glyph glyph-name="uni0418" unicode="&#x418;" horiz-adv-x="1566" 
d="M1431 0h-299v908l-832 -908h-165v1434h299v-907l833 907h164v-1434z" />
    <glyph glyph-name="uni0419" unicode="&#x419;" horiz-adv-x="1566" 
d="M815 1339l-198 187l319 340l199 -187zM1431 0h-299v908l-832 -908h-165v1434h299v-907l833 907h164v-1434z" />
    <glyph glyph-name="uni041A" unicode="&#x41a;" horiz-adv-x="1342" 
d="M872 1434h360l-522 -625l632 -809h-369l-538 712v-712h-300v1434h300v-543z" />
    <glyph glyph-name="uni041B" unicode="&#x41b;" horiz-adv-x="1563" 
d="M388 1434h1040v-1434h-299v1158h-442v-534q0 -262 -98 -410q-68 -101 -165.5 -157.5t-215.5 -56.5q-122 0 -228 59l144 263q37 -22 84 -22q82 0 131 75q29 43 39 106t10 171v782z" />
    <glyph glyph-name="uni041C" unicode="&#x41c;" horiz-adv-x="1822" 
d="M135 1434h163l613 -711l613 711h163v-1434h-299v881l-477 -561l-477 561v-881h-299v1434z" />
    <glyph glyph-name="uni041D" unicode="&#x41d;" horiz-adv-x="1512" 
d="M1077 1434h300v-1434h-300v647h-643v-647h-299v1434h299v-510h643v510z" />
    <glyph glyph-name="uni041E" unicode="&#x41e;" horiz-adv-x="1591" 
d="M1526 717q0 -149 -55.5 -281.5t-151.5 -228.5t-232.5 -151.5t-291.5 -55.5t-291 55.5t-232 151.5t-151.5 228.5t-55.5 281.5t55.5 281.5t151.5 228t232 151.5t291 56t291.5 -56t232.5 -151.5t151.5 -228t55.5 -281.5zM1219 717q0 189 -117 315.5t-307 126.5
q-189 0 -306 -126.5t-117 -315.5q0 -190 117 -315.5t306 -125.5q190 0 307 125.5t117 315.5z" />
    <glyph glyph-name="uni041F" unicode="&#x41f;" horiz-adv-x="1513" 
d="M135 1434h1243v-1434h-300v1157h-643v-1157h-300v1434z" />
    <glyph glyph-name="uni0420" unicode="&#x420;" horiz-adv-x="1348" 
d="M434 852h364q74 0 109 14q45 19 73 54t28 84q0 48 -27.5 84t-73.5 54q-36 15 -110 15h-363v-305zM434 0h-299v1433h702q170 0 275 -67q89 -55 140 -148.5t51 -213.5q0 -116 -51.5 -209.5t-141.5 -150.5q-106 -67 -273 -67h-403v-577z" />
    <glyph glyph-name="uni0421" unicode="&#x421;" horiz-adv-x="1540" 
d="M1489 942l-283 -92q-45 147 -152.5 229.5t-257.5 82.5q-186 0 -304.5 -127t-118.5 -318q0 -120 51.5 -220.5t149.5 -161.5t222 -61q151 0 257.5 82.5t153.5 234.5l285 -88q-64 -225 -257 -364t-439 -139q-148 0 -282.5 55t-233 149.5t-157 228t-58.5 284.5
q0 148 56.5 281t153.5 229t232.5 152t288.5 56q160 0 298.5 -56t243 -168.5t151.5 -268.5z" />
    <glyph glyph-name="uni0422" unicode="&#x422;" horiz-adv-x="1365" 
d="M61 1434h1243v-277h-472v-1157h-300v1157h-471v277z" />
    <glyph glyph-name="uni0423" unicode="&#x423;" horiz-adv-x="1364" 
d="M10 1434h334l350 -660l338 660h332l-521 -976q-64 -120 -108.5 -189.5t-95.5 -123.5q-140 -147 -311 -147q-138 0 -252 83l153 252q46 -35 103 -35q48 0 89 35t100 131l11 19z" />
    <glyph glyph-name="uni0424" unicode="&#x424;" horiz-adv-x="1758" 
d="M1026 1014v-593q165 13 274 90t109 207q0 128 -107.5 205.5t-275.5 90.5zM729 421v593q-105 -8 -189.5 -42.5t-138 -100.5t-53.5 -153t52 -152t136.5 -100.5t192.5 -44.5zM1028 1436v-148q189 -9 343 -80t246.5 -199t92.5 -291q0 -99 -35 -186.5t-97 -153.5
t-147.5 -115.5t-187.5 -78.5t-215 -37v-147h-299v148q-181 5 -335.5 76.5t-250 202t-95.5 291.5q0 123 53.5 227t147 175t216.5 114t264 54v148h299z" />
    <glyph glyph-name="uni0425" unicode="&#x425;" horiz-adv-x="1473" 
d="M15 0l548 757l-490 676h367l296 -433l296 433h367l-490 -676l549 -757h-370l-352 516l-352 -516h-369z" />
    <glyph glyph-name="uni0426" unicode="&#x426;" horiz-adv-x="1639" 
d="M1074 1434h300v-1156h210v-573h-299v295h-1150v1434h300v-1156h639v1156z" />
    <glyph glyph-name="uni0427" unicode="&#x427;" horiz-adv-x="1385" 
d="M950 1434h300v-1434h-300v546q-152 -51 -324 -51q-324 0 -457 205q-50 76 -64.5 158t-14.5 203v373h299v-417q0 -130 70 -188t207 -58q158 0 284 60v603z" />
    <glyph glyph-name="uni0428" unicode="&#x428;" horiz-adv-x="2041" 
d="M1607 1434h299v-1434h-1771v1434h299v-1156h438v1156h297v-1156h438v1156z" />
    <glyph glyph-name="uni0429" unicode="&#x429;" horiz-adv-x="2173" 
d="M1607 1434h299v-1156h212v-573h-299v295h-1684v1434h299v-1156h438v1156h297v-1156h438v1156z" />
    <glyph glyph-name="uni042A" unicode="&#x42a;" horiz-adv-x="1495" 
d="M1450 440q0 -122 -51.5 -218t-141.5 -154q-108 -68 -279 -68h-692v1157h-277v276h576v-555h393q171 0 277 -69q91 -57 143 -153.5t52 -215.5zM1155 440q0 53 -28.5 91t-75.5 58q-34 15 -111 15h-355v-330h354q75 0 112 17q47 20 75.5 58.5t28.5 90.5z" />
    <glyph glyph-name="uni042B" unicode="&#x42b;" horiz-adv-x="1903" 
d="M1768 1433v-1433h-299v1433h299zM1004 440q0 53 -28.5 91t-75.5 58q-34 15 -111 15h-355v-330h354q75 0 112 17q47 20 75.5 58.5t28.5 90.5zM1299 440q0 -122 -51.5 -218t-141.5 -154q-108 -68 -279 -68h-692v1433h299v-555h393q171 0 277 -69q91 -57 143 -153.5
t52 -215.5z" />
    <glyph glyph-name="uni042C" unicode="&#x42c;" horiz-adv-x="1344" 
d="M1004 440q0 53 -28.5 91t-75.5 58q-34 15 -111 15h-355v-330h354q75 0 112 17q47 20 75.5 58.5t28.5 90.5zM1299 440q0 -122 -51.5 -218t-141.5 -154q-108 -68 -279 -68h-692v1433h299v-555h393q171 0 277 -69q91 -57 143 -153.5t52 -215.5z" />
    <glyph glyph-name="uni042D" unicode="&#x42d;" horiz-adv-x="1540" 
d="M546 882h600q-44 127 -151.5 203.5t-250.5 76.5q-150 0 -257.5 -82.5t-152.5 -229.5l-283 92q47 156 151.5 268.5t243 168.5t298.5 56q153 0 288.5 -56t232.5 -152t153.5 -229t56.5 -281q0 -151 -58.5 -284.5t-157 -228t-233 -149.5t-282.5 -55q-246 0 -439 139t-257 364
l285 88q47 -152 153.5 -234.5t257.5 -82.5q157 0 268.5 94t144.5 241h-611v273z" />
    <glyph glyph-name="uni042E" unicode="&#x42e;" horiz-adv-x="2130" 
d="M2065 717q0 -149 -55.5 -281.5t-151.5 -228.5t-232.5 -151.5t-291.5 -55.5q-275 0 -473 162.5t-245 416.5h-181v-579h-300v1435h300v-580h181q47 253 245 416t473 163q155 0 291.5 -56t232.5 -151.5t151.5 -228t55.5 -281.5zM1758 717q0 189 -117 315.5t-307 126.5
q-189 0 -306 -126.5t-117 -315.5q0 -190 117 -315.5t306 -125.5q190 0 307 125.5t117 315.5z" />
    <glyph glyph-name="uni042F" unicode="&#x42f;" horiz-adv-x="1410" 
d="M1275 0h-299v579h-270l-339 -579h-344l363 609l-12 5q-122 42 -193 145q-73 106 -73 245q0 120 51 213.5t140 148.5q105 67 275 67h701v-1433zM613 853h363v304h-362q-77 0 -110 -15q-46 -18 -73.5 -54t-27.5 -84t28 -83t73 -54q32 -14 109 -14z" />
    <glyph glyph-name="uni0430" unicode="&#x430;" horiz-adv-x="1433" 
d="M1122 0l-90 239h-633l-88 -239h-311l569 1433h296l568 -1433h-311zM717 1084l-215 -574h427z" />
    <glyph glyph-name="uni0431" unicode="&#x431;" horiz-adv-x="1369" 
d="M1299 440q0 -122 -51.5 -218t-141.5 -154q-108 -68 -279 -68h-692v1434h1030v-276h-731v-280h393q171 0 277 -69q91 -57 143 -153.5t52 -215.5zM1004 440q0 53 -28.5 91t-75.5 58q-34 15 -111 15h-355v-330h354q75 0 112 17q47 20 75.5 58.5t28.5 90.5z" />
    <glyph glyph-name="uni0432" unicode="&#x432;" horiz-adv-x="1370" 
d="M434 860h254q73 0 109 14q103 43 103 139q0 95 -103 139q-33 15 -110 15h-253v-307zM434 272h347q79 0 120 16q50 20 80.5 59t30.5 94q0 53 -30.5 92t-80.5 59q-39 16 -122 16h-345v-336zM135 0v1433h584q155 0 254 -54q98 -54 155 -149.5t57 -219.5q0 -130 -93 -236
q98 -54 156.5 -143.5t58.5 -201.5q0 -122 -55 -217.5t-150 -151.5q-104 -60 -262 -60h-705z" />
    <glyph glyph-name="uni0433" unicode="&#x433;" horiz-adv-x="1207" 
d="M435 0h-300v1434h1009v-277h-709v-1157z" />
    <glyph glyph-name="uni0434" unicode="&#x434;" horiz-adv-x="1659" 
d="M1108 1157h-416q-2 -241 -31 -428q-37 -238 -124 -452h571v880zM1408 1434v-1157h196v-572h-299v295h-957v-295h-300v572h169q106 197 146 483q9 64 15.5 130t10 146t5 126t3 144.5t2.5 127.5h1009z" />
    <glyph glyph-name="uni0435" unicode="&#x435;" 
d="M135 1434h1009v-276h-709v-236h541v-273h-541v-373h709v-276h-1009v1434z" />
    <glyph glyph-name="uni0436" unicode="&#x436;" horiz-adv-x="2014" 
d="M2014 0h-357l-500 713v-713h-298v713l-503 -713h-356l586 809l-487 625h348l412 -545v545h298v-545l410 545h347l-486 -625z" />
    <glyph glyph-name="uni0437" unicode="&#x437;" horiz-adv-x="1261" 
d="M25 252l179 216q198 -184 408 -191q119 -4 202 47t83 123q0 63 -46.5 104t-123.5 57q-76 16 -182 16h-208v266h208q94 0 155 13q57 12 90.5 41.5t33.5 74.5q0 62 -70.5 101.5t-176.5 39.5q-171 0 -326 -120l-161 217q249 177 505 177q148 0 269.5 -57t189 -152.5
t67.5 -206.5q0 -152 -150 -235q106 -57 165.5 -143.5t59.5 -191.5q0 -116 -72.5 -218.5t-201.5 -166t-282 -64.5q-150 -1 -307.5 60.5t-307.5 192.5z" />
    <glyph glyph-name="uni0438" unicode="&#x438;" horiz-adv-x="1566" 
d="M1431 0h-299v908l-832 -908h-165v1434h299v-907l833 907h164v-1434z" />
    <glyph glyph-name="uni0439" unicode="&#x439;" horiz-adv-x="1566" 
d="M1135 1679l-320 -340l-198 187l319 340zM1431 0h-299v908l-832 -908h-165v1434h299v-907l833 907h164v-1434z" />
    <glyph glyph-name="uni043A" unicode="&#x43a;" horiz-adv-x="1342" 
d="M872 1434h360l-522 -625l632 -809h-369l-538 712v-712h-300v1434h300v-543z" />
    <glyph glyph-name="uni043B" unicode="&#x43b;" horiz-adv-x="1563" 
d="M388 1434h1040v-1434h-299v1158h-442v-534q0 -262 -98 -410q-68 -101 -165.5 -157.5t-215.5 -56.5q-122 0 -228 59l144 263q37 -22 84 -22q82 0 131 75q29 43 39 106t10 171v782z" />
    <glyph glyph-name="uni043C" unicode="&#x43c;" horiz-adv-x="1822" 
d="M135 1434h163l613 -711l613 711h163v-1434h-299v881l-477 -561l-477 561v-881h-299v1434z" />
    <glyph glyph-name="uni043D" unicode="&#x43d;" horiz-adv-x="1512" 
d="M1077 1434h300v-1434h-300v647h-643v-647h-299v1434h299v-510h643v510z" />
    <glyph glyph-name="uni043E" unicode="&#x43e;" horiz-adv-x="1591" 
d="M1526 717q0 -149 -55.5 -281.5t-151.5 -228.5t-232.5 -151.5t-291.5 -55.5t-291 55.5t-232 151.5t-151.5 228.5t-55.5 281.5t55.5 281.5t151.5 228t232 151.5t291 56t291.5 -56t232.5 -151.5t151.5 -228t55.5 -281.5zM1219 717q0 189 -117 315.5t-307 126.5
q-189 0 -306 -126.5t-117 -315.5q0 -190 117 -315.5t306 -125.5q190 0 307 125.5t117 315.5z" />
    <glyph glyph-name="uni043F" unicode="&#x43f;" horiz-adv-x="1513" 
d="M135 1434h1243v-1434h-300v1157h-643v-1157h-300v1434z" />
    <glyph glyph-name="uni0440" unicode="&#x440;" horiz-adv-x="1348" 
d="M434 852h364q74 0 109 14q45 19 73 54t28 84q0 48 -27.5 84t-73.5 54q-36 15 -110 15h-363v-305zM434 0h-299v1433h702q170 0 275 -67q89 -55 140 -148.5t51 -213.5q0 -116 -51.5 -209.5t-141.5 -150.5q-106 -67 -273 -67h-403v-577z" />
    <glyph glyph-name="uni0441" unicode="&#x441;" horiz-adv-x="1540" 
d="M1489 942l-283 -92q-45 147 -152.5 229.5t-257.5 82.5q-186 0 -304.5 -127t-118.5 -318q0 -120 51.5 -220.5t149.5 -161.5t222 -61q151 0 257.5 82.5t153.5 234.5l285 -88q-64 -225 -257 -364t-439 -139q-148 0 -282.5 55t-233 149.5t-157 228t-58.5 284.5
q0 148 56.5 281t153.5 229t232.5 152t288.5 56q160 0 298.5 -56t243 -168.5t151.5 -268.5z" />
    <glyph glyph-name="uni0442" unicode="&#x442;" horiz-adv-x="1365" 
d="M61 1434h1243v-277h-472v-1157h-300v1157h-471v277z" />
    <glyph glyph-name="uni0443" unicode="&#x443;" horiz-adv-x="1364" 
d="M10 1434h334l350 -660l338 660h332l-521 -976q-64 -120 -108.5 -189.5t-95.5 -123.5q-140 -147 -311 -147q-138 0 -252 83l153 252q46 -35 103 -35q48 0 89 35t100 131l11 19z" />
    <glyph glyph-name="uni0444" unicode="&#x444;" horiz-adv-x="1758" 
d="M1026 1014v-593q165 13 274 90t109 207q0 128 -107.5 205.5t-275.5 90.5zM729 421v593q-105 -8 -189.5 -42.5t-138 -100.5t-53.5 -153t52 -152t136.5 -100.5t192.5 -44.5zM1028 1436v-148q189 -9 343 -80t246.5 -199t92.5 -291q0 -99 -35 -186.5t-97 -153.5
t-147.5 -115.5t-187.5 -78.5t-215 -37v-147h-299v148q-181 5 -335.5 76.5t-250 202t-95.5 291.5q0 123 53.5 227t147 175t216.5 114t264 54v148h299z" />
    <glyph glyph-name="uni0445" unicode="&#x445;" horiz-adv-x="1473" 
d="M15 0l548 757l-490 676h367l296 -433l296 433h367l-490 -676l549 -757h-370l-352 516l-352 -516h-369z" />
    <glyph glyph-name="uni0446" unicode="&#x446;" horiz-adv-x="1639" 
d="M1074 1434h300v-1156h210v-573h-299v295h-1150v1434h300v-1156h639v1156z" />
    <glyph glyph-name="uni0447" unicode="&#x447;" horiz-adv-x="1385" 
d="M950 1434h300v-1434h-300v546q-152 -51 -324 -51q-324 0 -457 205q-50 76 -64.5 158t-14.5 203v373h299v-417q0 -130 70 -188t207 -58q158 0 284 60v603z" />
    <glyph glyph-name="uni0448" unicode="&#x448;" horiz-adv-x="2041" 
d="M1607 1434h299v-1434h-1771v1434h299v-1156h438v1156h297v-1156h438v1156z" />
    <glyph glyph-name="uni0449" unicode="&#x449;" horiz-adv-x="2173" 
d="M1607 1434h299v-1156h212v-573h-299v295h-1684v1434h299v-1156h438v1156h297v-1156h438v1156z" />
    <glyph glyph-name="uni044A" unicode="&#x44a;" horiz-adv-x="1495" 
d="M1450 440q0 -122 -51.5 -218t-141.5 -154q-108 -68 -279 -68h-692v1157h-277v276h576v-555h393q171 0 277 -69q91 -57 143 -153.5t52 -215.5zM1155 440q0 53 -28.5 91t-75.5 58q-34 15 -111 15h-355v-330h354q75 0 112 17q47 20 75.5 58.5t28.5 90.5z" />
    <glyph glyph-name="uni044B" unicode="&#x44b;" horiz-adv-x="1903" 
d="M1768 1433v-1433h-299v1433h299zM1004 440q0 53 -28.5 91t-75.5 58q-34 15 -111 15h-355v-330h354q75 0 112 17q47 20 75.5 58.5t28.5 90.5zM1299 440q0 -122 -51.5 -218t-141.5 -154q-108 -68 -279 -68h-692v1433h299v-555h393q171 0 277 -69q91 -57 143 -153.5
t52 -215.5z" />
    <glyph glyph-name="uni044C" unicode="&#x44c;" horiz-adv-x="1344" 
d="M1004 440q0 53 -28.5 91t-75.5 58q-34 15 -111 15h-355v-330h354q75 0 112 17q47 20 75.5 58.5t28.5 90.5zM1299 440q0 -122 -51.5 -218t-141.5 -154q-108 -68 -279 -68h-692v1433h299v-555h393q171 0 277 -69q91 -57 143 -153.5t52 -215.5z" />
    <glyph glyph-name="uni044D" unicode="&#x44d;" horiz-adv-x="1540" 
d="M546 882h600q-44 127 -151.5 203.5t-250.5 76.5q-150 0 -257.5 -82.5t-152.5 -229.5l-283 92q47 156 151.5 268.5t243 168.5t298.5 56q153 0 288.5 -56t232.5 -152t153.5 -229t56.5 -281q0 -151 -58.5 -284.5t-157 -228t-233 -149.5t-282.5 -55q-246 0 -439 139t-257 364
l285 88q47 -152 153.5 -234.5t257.5 -82.5q157 0 268.5 94t144.5 241h-611v273z" />
    <glyph glyph-name="uni044E" unicode="&#x44e;" horiz-adv-x="2130" 
d="M2065 717q0 -149 -55.5 -281.5t-151.5 -228.5t-232.5 -151.5t-291.5 -55.5q-275 0 -473 162.5t-245 416.5h-181v-579h-300v1435h300v-580h181q47 253 245 416t473 163q155 0 291.5 -56t232.5 -151.5t151.5 -228t55.5 -281.5zM1758 717q0 189 -117 315.5t-307 126.5
q-189 0 -306 -126.5t-117 -315.5q0 -190 117 -315.5t306 -125.5q190 0 307 125.5t117 315.5z" />
    <glyph glyph-name="uni044F" unicode="&#x44f;" horiz-adv-x="1410" 
d="M1275 0h-299v579h-270l-339 -579h-344l363 609l-12 5q-122 42 -193 145q-73 106 -73 245q0 120 51 213.5t140 148.5q105 67 275 67h701v-1433zM613 853h363v304h-362q-77 0 -110 -15q-46 -18 -73.5 -54t-27.5 -84t28 -83t73 -54q32 -14 109 -14z" />
    <glyph glyph-name="uni0450" unicode="&#x450;" 
d="M135 1434h1009v-276h-709v-236h541v-273h-541v-373h709v-276h-1009v1434zM568 1536l-263 319h338l155 -319h-230z" />
    <glyph glyph-name="uni0451" unicode="&#x451;" 
d="M135 1434h1009v-276h-709v-236h541v-273h-541v-373h709v-276h-1009v1434zM302 1570v270h272v-270h-272zM709 1570v270h271v-270h-271z" />
    <glyph glyph-name="uni0452" unicode="&#x452;" horiz-adv-x="1718" 
d="M1285 1157h-471v-270q106 36 227 46.5t244 -11.5q187 -37 283 -169q94 -128 94 -297q0 -98 -32.5 -184t-105 -154t-176.5 -97q-76 -21 -187 -21h-136v277h122q70 0 108 14q52 18 80 61.5t28 99.5q0 88 -67.5 149t-196.5 61q-162 0 -285 -60v-602h-301v1157h-458v277h1230
v-277z" />
    <glyph glyph-name="uni0453" unicode="&#x453;" horiz-adv-x="1207" 
d="M435 0h-300v1434h1009v-277h-709v-1157zM1006 1855l-263 -319h-230l155 319h338z" />
    <glyph glyph-name="uni0454" unicode="&#x454;" horiz-adv-x="1540" 
d="M1207 591l285 -88q-64 -225 -257 -364t-439 -139q-148 0 -282.5 55t-233 149.5t-157 228t-58.5 284.5q0 148 56.5 281t153.5 229t232.5 152t288.5 56q160 0 298.5 -56t243 -168.5t151.5 -268.5l-283 -92q-45 147 -152.5 229.5t-257.5 82.5q-143 0 -251 -76.5t-152 -203.5
h601v-273h-611q33 -147 144 -241t269 -94q151 0 257.5 82.5t153.5 234.5z" />
    <glyph glyph-name="uni0455" unicode="&#x455;" horiz-adv-x="1279" 
d="M68 248l180 215q202 -185 426 -185q64 0 121 16.5t97 54t40 89.5q0 28 -11 50.5t-36.5 39.5t-49.5 29t-69.5 23.5t-75.5 18t-88 17.5t-88 17q-96 20 -170 49t-135 73t-94 109.5t-33 148.5q0 183 136 302.5t374 119.5q139 0 275.5 -47t253.5 -139l-170 -213
q-71 60 -168.5 94t-194.5 34q-87 0 -151.5 -32t-64.5 -92q0 -28 15 -49.5t38.5 -36t68 -27.5t87 -21.5t112.5 -20.5q59 -10 106 -20.5t104.5 -29t101 -40.5t87 -56.5t71.5 -76t45.5 -98.5t17.5 -125q0 -124 -72 -225t-197.5 -157.5t-277.5 -56.5q-153 0 -311 60.5
t-300 187.5z" />
    <glyph glyph-name="uni0456" unicode="&#x456;" horiz-adv-x="570" 
d="M135 0v1434h300v-1434h-300z" />
    <glyph glyph-name="uni0457" unicode="&#x457;" horiz-adv-x="570" 
d="M135 0v1434h300v-1434h-300zM-53 1569v270h272v-270h-272zM354 1569v270h271v-270h-271z" />
    <glyph glyph-name="uni0458" unicode="&#x458;" horiz-adv-x="820" 
d="M-9 59l143 263q34 -22 85 -22q57 0 100.5 33.5t57.5 81.5q11 36 11 114v905h299v-828q0 -185 -20 -262q-37 -148 -161 -246t-287 -98q-124 0 -228 59z" />
    <glyph glyph-name="uni0459" unicode="&#x459;" horiz-adv-x="2238" 
d="M1095 0v1158h-408v-534q0 -262 -98 -411q-68 -101 -165.5 -157t-215.5 -56q-122 0 -228 59l144 263q34 -22 84 -22q82 0 131 75q29 43 39 106t10 171v782h1006v-543h324q172 0 279 -70q92 -59 144 -156.5t52 -218.5q0 -124 -51.5 -221.5t-142.5 -155.5q-109 -69 -281 -69
h-623zM1394 274h286q77 0 113 18q48 20 76.5 60.5t28.5 94.5t-29 93.5t-76 60.5q-34 15 -112 15h-287v-342z" />
    <glyph glyph-name="uni045A" unicode="&#x45a;" horiz-adv-x="2150" 
d="M1010 0v629h-576v-629h-299v1433h299v-527h576v527h299v-530h318q173 0 280 -71q92 -60 145 -159t53 -221q0 -126 -52 -224.5t-144 -157.5q-108 -70 -282 -70h-617zM1309 274h280q77 0 115 18q48 21 77 62.5t29 97.5q0 110 -106 159q-35 15 -114 15h-281v-352z" />
    <glyph glyph-name="uni045B" unicode="&#x45b;" horiz-adv-x="1742" 
d="M55 1434h1230v-277h-472v-269q151 51 316 51q313 0 439 -205q49 -78 64 -160.5t15 -200.5v-373h-299v417q0 130 -64.5 188t-194.5 58q-150 0 -276 -60v-603h-300v1157h-458v277z" />
    <glyph glyph-name="uni045C" unicode="&#x45c;" horiz-adv-x="1342" 
d="M872 1434h360l-522 -625l632 -809h-369l-538 712v-712h-300v1434h300v-543zM1029 1854l-263 -319h-230l155 319h338z" />
    <glyph glyph-name="uni045D" unicode="&#x45d;" horiz-adv-x="1566" 
d="M1431 0h-299v908l-832 -908h-165v1434h299v-907l833 907h164v-1434zM736 1480l-263 319h338l155 -319h-230z" />
    <glyph glyph-name="uni045E" unicode="&#x45e;" horiz-adv-x="1364" 
d="M10 1434h334l350 -660l338 660h332l-521 -976q-64 -120 -108.5 -189.5t-95.5 -123.5q-140 -147 -311 -147q-138 0 -252 83l153 252q46 -35 103 -35q48 0 89 35t100 131l11 19zM323 1802h183q13 -72 62 -108t121 -36t121 36t62 108h184q1 -158 -100.5 -250.5t-266.5 -92.5
q-164 0 -265.5 92.5t-100.5 250.5z" />
    <glyph glyph-name="uni045F" unicode="&#x45f;" horiz-adv-x="1513" 
d="M1378 0h-471v-295h-300v295h-472v1435h300v-1158h643v1158h300v-1435z" />
    <glyph glyph-name="uni0490" unicode="&#x490;" horiz-adv-x="1207" 
d="M1144 1659v-501h-709v-1158h-301v1434h709v225h301z" />
    <glyph glyph-name="uni0491" unicode="&#x491;" horiz-adv-x="1207" 
d="M1144 1659v-501h-709v-1158h-301v1434h709v225h301z" />
    <glyph glyph-name="Germandbls" unicode="&#x1e9e;" horiz-adv-x="1484" 
d="M419 0h-299v777q0 89 21 184q52 213 210.5 343t387.5 130q184 0 323 -85.5t214 -234.5l-319 -257q93 3 171 -18.5t131.5 -61t90.5 -92.5t54 -112t17 -122q0 -85 -35 -164.5t-100.5 -144.5t-171.5 -104t-236 -39q-114 0 -219 38.5t-184 111.5l185 228q66 -56 114 -78.5
t116 -22.5q111 0 171.5 54t60.5 134q0 73 -53 124.5t-145 51.5q-96 0 -218 -61l-140 226l365 306q-81 47 -182 47q-125 0 -203.5 -66.5t-108.5 -174.5q-18 -65 -18 -135v-782z" />
    <glyph glyph-name="endash" unicode="&#x2013;" horiz-adv-x="1290" 
d="M130 561v268h1030v-268h-1030z" />
    <glyph glyph-name="emdash" unicode="&#x2014;" horiz-adv-x="1987" 
d="M184 560v270h1619v-270h-1619z" />
    <glyph glyph-name="quoteleft" unicode="&#x2018;" horiz-adv-x="543" 
d="M226 1434h230l-71 -524h-312z" />
    <glyph glyph-name="quoteright" unicode="&#x2019;" horiz-adv-x="543" 
d="M147 1434h312l-153 -524h-230z" />
    <glyph glyph-name="quotesinglbase" unicode="&#x201a;" horiz-adv-x="543" 
d="M76 -217l71 524h311l-153 -524h-229z" />
    <glyph glyph-name="quotedblleft" unicode="&#x201c;" horiz-adv-x="920" 
d="M601 1434h228l-71 -524h-310zM223 1434h228l-71 -524h-310z" />
    <glyph glyph-name="quotedblright" unicode="&#x201d;" horiz-adv-x="920" 
d="M148 1434h310l-153 -524h-228zM526 1434h310l-153 -524h-228z" />
    <glyph glyph-name="quotedblbase" unicode="&#x201e;" horiz-adv-x="920" 
d="M147 307h310l-153 -524h-228zM525 307h310l-153 -524h-228z" />
    <glyph glyph-name="dagger" unicode="&#x2020;" horiz-adv-x="1144" 
d="M60 1056v272h368v380h286v-380h370v-272h-370v-1343h-286v1343h-368z" />
    <glyph glyph-name="bullet" unicode="&#x2022;" horiz-adv-x="748" 
d="M596 708q0 -94 -63 -158t-158 -64t-158.5 63.5t-63.5 158.5q0 97 63.5 159t158.5 62q93 0 157 -62.5t64 -158.5z" />
    <glyph glyph-name="ellipsis" unicode="&#x2026;" horiz-adv-x="1722" 
d="M132 0v307h309v-307h-309zM1280 0v307h309v-307h-309zM706 0v307h309v-307h-309z" />
    <glyph glyph-name="perthousand" unicode="&#x2030;" horiz-adv-x="2657" 
d="M1339 236q-48 0 -82 30.5t-48 72t-14 86.5q0 74 38 132t106 58q47 0 81 -31t48 -72.5t14 -86.5q0 -73 -38 -131t-105 -58zM939 420q0 -177 114 -298t286 -121q117 0 210 59.5t141.5 155.5t48.5 209q0 179 -113.5 301.5t-286.5 122.5q-116 0 -209 -60.5t-142 -158
t-49 -210.5zM475 1200q-68 0 -105.5 -57.5t-37.5 -131.5q0 -45 14 -86t48 -72t81 -31q68 0 106 57.5t38 131.5q0 45 -14 86.5t-48 72t-82 30.5zM875 1017q0 -113 -49 -210.5t-142 -158.5t-209 -61q-172 0 -286 122.5t-114 301.5q0 113 48.5 209t141 155.5t210.5 59.5
q172 0 286 -121t114 -297zM1584 1435l-358 -518h-304l311 518h351zM230 0l359 516h303l-309 -516h-353zM2195 235q68 0 105.5 58t37.5 131t-37 131.5t-106 58.5t-106 -58.5t-37 -131.5t37.5 -131t105.5 -58zM1796 421q0 179 111.5 303t287.5 124t288 -124t112 -303
q0 -175 -113 -298t-287 -123t-286.5 123t-112.5 298z" />
    <glyph glyph-name="guilsinglleft" unicode="&#x2039;" horiz-adv-x="715" 
d="M314 1101h308l-277 -407l277 -407h-308l-268 407z" />
    <glyph glyph-name="guilsinglright" unicode="&#x203a;" horiz-adv-x="715" 
d="M93 1103h308l268 -407l-268 -407h-308l277 407z" />
    <glyph glyph-name="franc" unicode="&#x20a3;" horiz-adv-x="1257" 
d="M4 473h174v961h1009v-276h-709v-230h541v-276h-541v-179h353v-266h-353v-207h-300v207h-174v266z" />
    <glyph glyph-name="Euro" unicode="&#x20ac;" horiz-adv-x="1639" 
d="M1041 455h-496q57 -84 147.5 -132.5t202.5 -48.5q151 0 257.5 82t153.5 234l285 -87q-64 -226 -256.5 -364.5t-439.5 -138.5q-230 0 -416 125t-266 330h-186v215h141q-2 30 -2 46q0 20 2 52h-141v220h189q81 201 264 324t415 123q244 0 433.5 -130t260.5 -364l-284 -92
q-45 147 -152 229.5t-258 82.5q-110 0 -200 -46t-147 -127h493v-220h-566q-4 -32 -4 -52q0 -16 4 -46h566v-215z" />
    <glyph glyph-name="hryvnia" unicode="&#x20b4;" horiz-adv-x="1421" 
d="M724 275q107 0 212 43.5t193 117.5l171 -218q-266 -219 -580 -219q-131 0 -237.5 40.5t-172 106t-100.5 144t-35 159.5q0 28 2 43h-111v213h1290v-213h-860q-23 -28 -23 -61q0 -50 38.5 -86.5t94.5 -53t118 -16.5zM745 1163q-91 0 -188.5 -31t-162.5 -83l-176 216
q117 83 255 126.5t273 43.5q123 0 222.5 -35t159.5 -92.5t91.5 -126t31.5 -140.5q0 -24 -3 -46h108v-213h-1290v213h885q11 19 11 44q0 51 -53 87.5t-164 36.5z" />
    <glyph glyph-name="Ruble" unicode="&#x20bd;" horiz-adv-x="1483" 
d="M575 1161v-304h393q69 0 124 40.5t55 110.5t-52.5 110t-127.5 43h-392zM275 1434h730q186 0 310.5 -119t124.5 -307q0 -180 -126 -288t-309 -108h-430v-139h709v-237h-709v-236h-300v236h-211v237h211v139h-211v243h211v579z" />
    <glyph glyph-name="uni2116" unicode="&#x2116;" horiz-adv-x="2436" 
d="M1090 1434h299v-1434h-164l-791 891v-891h-299v1434h165l790 -891v891zM2353 813q0 -121 -52.5 -225t-152.5 -168.5t-227 -64.5q-185 0 -309 132.5t-124 325.5q0 122 52.5 225.5t153 168t227.5 64.5q186 0 309 -132.5t123 -325.5zM2313 275v-275h-785v275h785zM2075 813
q0 77 -39.5 140.5t-114.5 63.5q-72 0 -113.5 -62.5t-41.5 -141.5q0 -48 15.5 -92.5t52.5 -78t87 -33.5q73 0 113.5 62.5t40.5 141.5z" />
    <glyph glyph-name="trademark" unicode="&#x2122;" horiz-adv-x="1431" 
d="M61 1435h516v-160h-170v-442h-176v442h-170v160zM651 1435h85l257 -278l257 278h85v-602h-174v280l-168 -168l-168 168v-280h-174v602z" />
    <glyph glyph-name="minus" unicode="&#x2212;" horiz-adv-x="887" 
d="M44 826h799v-266h-799v266z" />
    <glyph glyph-name="cyrbreve" unicode="&#xf6d4;" horiz-adv-x="1128" 
d="M194 1857h183q13 -72 62 -108t121 -36t121 36t62 108h184q1 -158 -100.5 -250.5t-266.5 -92.5q-164 0 -265.5 92.5t-100.5 250.5z" />
    <glyph glyph-name="zero.ss02" horiz-adv-x="1326" 
d="M940 717q0 205 -71 323t-205 118q-135 0 -206 -118t-71 -323q0 -206 71 -324t206 -118q134 0 205 118t71 324zM1242 717q0 -215 -70 -377t-201 -251t-307 -89q-266 0 -423 195.5t-157 521.5t157 521t423 195t422 -195t156 -521z" />
    <glyph glyph-name="uni0419.ss02" horiz-adv-x="1566" 
d="M1431 0h-299v908l-832 -908h-165v1434h299v-907l833 907h164v-1434zM447 1802h183q13 -72 62 -108t121 -36t121 36t62 108h184q1 -158 -100.5 -250.5t-266.5 -92.5q-164 0 -265.5 92.5t-100.5 250.5z" />
    <glyph glyph-name="cyrdieresis" horiz-adv-x="1180" 
d="M251 1569v270h272v-270h-272zM658 1569v270h271v-270h-271z" />
    <glyph glyph-name="cyracute" horiz-adv-x="626" 
d="M664 1854l-263 -319h-230l155 319h338z" />
    <glyph glyph-name="cyrgrave" horiz-adv-x="626" 
d="M180 1535l-263 319h338l155 -319h-230z" />
    <glyph glyph-name="percent.ss02" horiz-adv-x="2045" 
d="M1567 235q67 0 105 58t38 131q0 45 -14 86.5t-48 72.5t-81 31q-68 0 -106 -58t-38 -132q0 -45 14 -86.5t48 -72t82 -30.5zM1167 419q0 113 49 210.5t142 158t209 60.5q173 0 287 -122.5t114 -301.5q0 -174 -112.5 -299t-288.5 -125q-172 0 -286 121t-114 298zM477 1199
q-68 0 -105.5 -57.5t-37.5 -131.5q0 -45 14 -86t48 -72t81 -31q68 0 106 57.5t38 131.5q0 45 -14 86.5t-48 72t-82 30.5zM877 1016q0 -113 -49 -210.5t-142 -158.5t-209 -61q-172 0 -286 122.5t-114 301.5q0 113 48.5 209t141 155.5t210.5 59.5q172 0 286 -121t114 -297z
M1357 1434h282l-951 -1434h-281z" />
    <glyph glyph-name="perthousand.ss02" horiz-adv-x="2885" 
d="M477 1199q-68 0 -105.5 -57.5t-37.5 -131.5q0 -45 14 -86t48 -72t81 -31q68 0 106 57.5t38 131.5q0 45 -14 86.5t-48 72t-82 30.5zM877 1016q0 -113 -49 -210.5t-142 -158.5t-209 -61q-172 0 -286 122.5t-114 301.5q0 113 48.5 209t141 155.5t210.5 59.5q172 0 286 -121
t114 -297zM1357 1434h282l-951 -1434h-281zM1567 235q-48 0 -82 30.5t-48 72t-14 86.5q0 74 38 132t106 58q47 0 81 -31t48 -72.5t14 -86.5q0 -73 -38 -131t-105 -58zM1167 419q0 -177 114 -298t286 -121q117 0 210 59.5t141.5 155.5t48.5 209q0 179 -113.5 301.5
t-286.5 122.5q-116 0 -209 -60.5t-142 -158t-49 -210.5zM2423 234q68 0 105.5 58t37.5 131t-37 131.5t-106 58.5t-106 -58.5t-37 -131.5t37.5 -131t105.5 -58zM2024 420q0 179 111.5 303t287.5 124t288 -124t112 -303q0 -175 -113 -298t-287 -123t-286.5 123t-112.5 298z
" />
    <glyph glyph-name="yen.ss02" horiz-adv-x="1404" 
d="M1234 543h-1066v222h257l-391 668h344l324 -587l324 587h344l-392 -668h256v-222zM1234 231h-382v-231h-299v231h-385v218h1066v-218z" />
    <glyph glyph-name="Euro.ss02" horiz-adv-x="1638" 
d="M1040 768h-1013v221h188q81 200 264 323.5t415 123.5q244 0 433.5 -130.5t260.5 -364.5l-284 -92q-45 147 -152 230t-258 83q-109 0 -199 -46t-148 -127h493v-221zM1040 455h-496q58 -83 148.5 -132t201.5 -49q151 0 257.5 82t153.5 234l285 -87q-64 -226 -256.5 -364.5
t-439.5 -138.5q-230 0 -416 125t-266 330h-185v215h1013v-215z" />
    <glyph glyph-name="Ruble.ss02" horiz-adv-x="1483" 
d="M1278 256h-704v-256h-299v256h-211v234h1214v-234zM64 612v242h211v580h729q186 0 310.5 -119t124.5 -307q0 -180 -126 -288t-309 -108h-940zM574 856h393q69 0 124 41t55 111t-52.5 110t-127.5 43h-392v-305z" />
    <glyph glyph-name="K.ss02" horiz-adv-x="1342" 
d="M872 1434h360l-522 -625l632 -809h-369l-538 712v-712h-300v1434h300v-543z" />
    </font>
</defs>
</svg>
